<?xml version="1.0" encoding="UTF-8"?> <svg xmlns="http://www.w3.org/2000/svg" width="178" height="63" viewBox="0 0 178 63" fill="none"><g clip-path="url(#clip0_465_681)"><path d="M171.643 1.00021H6.35714C2.84619 1.00021 0 3.84641 0 7.35736V56.3882C0 59.8992 2.8462 62.7454 6.35715 62.7454H171.643C175.154 62.7454 178 59.8992 178 56.3882V7.35736C178 3.8464 175.154 1.00021 171.643 1.00021Z" fill="url(#paint0_radial_465_681)"></path><path d="M128.281 28.9042L124.786 28.5572V24.2185H121.758V25.8383C121.758 29.1934 123.097 30.3504 124.728 30.8711H121.758V34.8626C121.758 38.7383 123.68 40.3003 127.407 40.3003C131.134 40.3003 133.056 38.7383 133.056 34.8626V34.3418C133.114 29.7141 130.61 29.1356 128.281 28.9042ZM130.086 37.5816H124.786V30.9289C125.369 31.1024 126.009 31.2181 126.592 31.2761L130.086 31.7966V37.5816ZM137.249 24.2185C136.317 24.2185 135.677 24.8548 135.677 25.7804C135.677 26.706 136.317 27.3423 137.249 27.3423C138.181 27.3423 138.821 26.706 138.821 25.7804C138.879 24.8548 138.239 24.2185 137.249 24.2185ZM144.528 28.8464V26.1275H141.558C141.558 30.0034 143.48 31.5654 147.207 31.5654H148.43V28.8464H144.528ZM144.528 31.2181H141.558V34.8626C141.558 38.7383 143.48 40.3003 147.207 40.3003H148.43V37.5816H144.528V31.2181ZM135.793 40.3003H138.821V28.8464H135.793V40.3003Z" fill="#EABC4C"></path><path d="M85.4187 28.9042L81.9243 28.5571V24.2185H78.896V25.8383C78.896 29.1934 80.2355 30.3504 81.8663 30.8711H78.896V40.3003H81.9243V30.9289C82.5067 31.1024 83.1475 31.2181 83.7296 31.2761L87.224 31.7966V40.3003H90.2523V34.3418C90.2523 29.7141 87.7481 29.1356 85.4187 28.9042ZM72.8395 37.5813H69.2288V28.8464H66.2006V34.8626C66.2006 38.7383 68.1222 40.3003 71.8495 40.3003H75.8095V28.8464H72.8395V37.5813ZM62.7065 28.8464H59.6782V34.8626C59.6782 38.7383 61.5999 40.3003 65.3269 40.3003H66.5501V37.5813H62.6482V28.8464H62.7065ZM113.721 28.8464H108.073V30.2926C108.073 34.1684 109.994 35.7304 113.721 35.7304H119.37V34.2841C119.37 30.3504 117.449 28.8464 113.721 28.8464ZM116.4 33.2429H113.721H111.042V31.3916H116.342V33.2429H116.4ZM94.6783 24.2185C93.7464 24.2185 93.1059 24.8548 93.1059 25.7804C93.1059 26.706 93.7464 27.3423 94.6783 27.3423C95.61 27.3423 96.2505 26.706 96.2505 25.7804C96.2505 24.8548 95.61 24.2185 94.6783 24.2185ZM93.1639 40.3003H96.1924V28.8464H93.1639V40.3003ZM101.958 31.2181H98.9295V34.8626C98.9295 38.7383 100.851 40.3003 104.578 40.3003H105.801V37.5813H101.958V31.2181ZM101.958 26.1275H98.9295C98.9295 30.0034 100.851 31.5651 104.578 31.5651H105.801V28.8464H101.958V26.1275ZM111.042 35.3254H108.014C108.014 38.7964 109.936 40.3003 113.663 40.3003H118.73V37.5813H110.984V35.3254H111.042ZM49.4866 20.8055C46.6913 20.8055 44.4201 23.0615 44.4201 25.8383H38.3053L43.3718 20.8055H37.199C34.4033 20.8055 32.1322 23.0615 32.1322 25.8383H32.0741C29.2788 25.8383 27.0074 28.0943 27.0074 30.8711H32.1322V34.6311C32.1322 39.6641 36.267 43.7133 41.2755 43.7133H50.5932V25.7804L55.6597 20.7476L49.4866 20.8055ZM44.1872 34.1106C43.4301 33.3586 43.4301 32.1436 44.1872 31.3916L46.9242 34.1106C46.1671 34.8626 44.9442 34.8626 44.1872 34.1106Z" fill="white"></path></g><defs><radialGradient id="paint0_radial_465_681" cx="0" cy="0" r="1" gradientUnits="userSpaceOnUse" gradientTransform="translate(82.0423 31.8728) scale(173.651 361.355)"><stop offset="0.08" stop-color="#0A3D4E"></stop><stop offset="0.548764" stop-color="#07212A"></stop></radialGradient><clipPath id="clip0_465_681"><rect width="178" height="61.962" fill="white" transform="translate(0 0.924042)"></rect></clipPath></defs></svg> 