<?xml version="1.0" encoding="UTF-8"?> <svg xmlns="http://www.w3.org/2000/svg" width="178" height="62" viewBox="0 0 178 62" fill="none"><g clip-path="url(#clip0_465_853)"><path d="M171.643 0H6.35714C2.84619 0 0 2.8462 0 6.35715V55.388C0 58.899 2.8462 61.7452 6.35715 61.7452H171.643C175.154 61.7452 178 58.899 178 55.388V6.35714C178 2.84619 175.154 0 171.643 0Z" fill="url(#paint0_radial_465_853)"></path><mask id="mask0_465_853" style="mask-type:luminance" maskUnits="userSpaceOnUse" x="14" y="13" width="150" height="35"><path d="M163.918 13.8331H14.0823V47.9122H163.918V13.8331Z" fill="white"></path></mask><g mask="url(#mask0_465_853)"><path d="M30.3245 13.8923C38.8411 13.3886 46.3988 19.1316 48.1428 27.3343C48.6523 29.5629 48.6523 31.9099 48.1968 34.1915C47.07 39.7686 43.2342 44.451 37.9362 46.6261C34.3281 48.1315 30.1566 48.3566 26.4347 47.2424C21.3044 45.737 17.1269 41.8906 15.215 36.924C13.8605 33.3559 13.7467 29.3376 14.9334 25.7163C17.073 18.9657 23.2163 14.2835 30.3785 13.8923H30.3245Z" fill="white"></path><path d="M32.0746 30.9022C31.4513 30.5704 30.7799 30.3451 30.1028 30.1792C29.1976 29.9539 28.2986 29.9006 27.3937 29.9539C26.7704 30.0074 26.0991 30.0665 25.4758 30.3451C25.4219 30.3986 25.308 30.3986 25.2481 30.4577C24.7386 30.7898 24.6847 31.1807 25.0203 31.6846C25.0743 31.7972 25.1881 31.8505 25.2481 31.9631C24.9124 31.9631 24.6247 31.9099 24.403 31.8505C23.6718 31.6846 22.9945 31.4593 22.3712 30.9557C22.0895 30.7304 21.8618 30.5645 21.694 30.2324C21.7479 30.12 21.8618 30.0074 22.0296 29.9539C22.2573 29.8415 22.4251 29.6753 22.6529 29.5629C23.7257 29.0591 24.7985 28.7805 25.9793 28.6679C26.4288 28.6146 26.8843 28.5552 27.3338 28.6146C28.6884 28.6679 30.0428 28.8932 31.3373 29.2844C31.673 29.3968 32.0146 29.5094 32.3503 29.6162C32.3503 29.5035 32.2963 29.4503 32.2363 29.3908C32.1225 29.1658 31.9546 28.9464 31.7868 28.7211C31.733 28.6679 31.6192 28.5552 31.6192 28.4425C31.7868 28.4961 32.0146 28.4961 32.1825 28.5552C32.2363 28.5552 32.2963 28.6087 32.2963 28.5552C32.3503 28.502 32.2963 28.4425 32.2425 28.4425C31.9608 28.0515 31.6192 27.7196 31.2835 27.3817C31.4513 27.2691 31.6789 27.3817 31.8468 27.3817C33.7648 27.607 35.5149 28.2767 37.0372 29.4444C39.069 31.003 40.3634 33.0122 40.8729 35.4659C41.0408 36.3016 41.1008 37.1372 41.0408 37.9729C40.9267 39.425 40.4772 40.7586 39.5723 41.9855C39.5185 42.0387 39.4585 42.1514 39.4044 42.2105C39.2366 42.4891 38.8949 42.7144 38.6733 42.9338C37.2051 44.1071 35.5149 44.7177 33.7107 44.9963C32.3022 45.2213 30.834 45.2213 29.4254 45.0495C27.1719 44.7709 25.0263 43.9885 23.1684 42.7085C22.7189 42.4299 22.2633 42.0919 21.8738 41.7069V41.6534C21.9277 41.6002 21.9876 41.7069 22.0416 41.7069C23.0005 42.4299 24.0733 42.9338 25.2541 43.2123C25.6496 43.325 26.0452 43.3782 26.4407 43.4374C26.5546 43.4909 26.6086 43.4374 26.7224 43.4909H26.7764C27.6814 43.6035 28.5805 43.5441 29.4254 43.3782C31.3435 43.0461 33.0933 42.264 34.5559 40.9245C35.5687 40.0294 36.3598 39.0279 36.7556 37.7478C37.151 36.4675 37.1808 35.3888 36.6176 34.1619C36.5038 34.719 36.2041 35.2525 35.8084 35.7031C35.413 36.094 34.9815 36.5565 34.4779 36.7756C34.4241 36.8291 34.3641 36.8883 34.31 36.8291C34.2562 36.7697 34.31 36.7164 34.31 36.6632C34.4241 36.272 34.4418 35.5727 34.5018 35.1815C34.6697 33.5102 33.9923 32.2239 32.6979 31.2224C32.47 31.0565 32.2484 30.8903 32.0205 30.7777L32.0746 30.9022Z" fill="#262F71"></path><path d="M25.0202 43.39C24.1152 43.1115 23.2702 42.7203 22.485 42.2164C19.9064 40.4863 18.5127 38.3711 17.5225 35.3001C17.1269 34.0732 16.9591 32.8464 16.8992 31.566C16.8992 31.4533 16.8992 31.4001 16.8992 31.2342C17.013 31.4593 17.067 31.6254 17.1269 31.7913C17.8581 33.3499 18.7631 34.7489 20.0038 35.9163C21.3583 37.1431 22.8806 37.9788 24.7386 38.3168C26.8842 38.6485 28.91 38.3168 30.714 37.1431C31.6189 36.586 32.4041 35.8631 32.7998 34.8553C33.3091 33.6285 33.1353 32.5143 32.3503 31.4533C32.2963 31.341 32.1825 31.2874 32.1225 31.1748C32.2363 31.1216 32.2903 31.1748 32.3503 31.2283C32.7998 31.6195 33.1953 32.1231 33.4769 32.6802C33.7048 33.2373 33.8726 33.7947 33.8726 34.4109C33.8726 35.0274 33.7586 35.5845 33.4769 36.1416C33.531 36.1416 33.591 36.1416 33.6448 36.0881C33.9264 35.9222 34.1543 35.7563 34.3759 35.5845C34.43 35.531 34.49 35.4183 34.6038 35.4719C34.5497 35.9163 34.4359 36.3666 34.3221 36.8114C34.6038 36.6452 34.8854 36.4793 35.1671 36.2543C35.3949 36.0881 35.5628 35.8631 35.7903 35.6969C35.9044 35.7504 35.9044 35.8095 35.9044 35.9222C36.2399 37.1491 36.0182 38.2632 35.3949 39.3242C34.6638 40.6043 33.591 41.612 32.3503 42.3944C29.9287 43.8677 27.7247 43.9877 25.0202 43.39Z" fill="#161F42"></path><path d="M45.0444 34.6954C44.9903 33.3026 44.6486 31.9631 44.0313 30.683C43.6359 29.8474 43.1264 29.1241 42.5631 28.3952C42.0536 27.7788 41.4362 27.2217 40.7588 26.7239C40.8129 26.6705 40.8729 26.6705 40.9867 26.6705C41.8916 26.7831 42.7906 27.0024 43.6359 27.2869C43.8637 27.3402 44.0313 27.4528 44.2591 27.5654C44.3132 27.6188 44.3729 27.6188 44.487 27.6781C44.487 27.6781 44.487 27.7314 44.5408 27.7314V27.6781C43.9775 26.955 43.2463 26.2853 42.509 25.7282C41.6041 25.0051 40.6451 24.448 39.6323 23.9442C38.2237 23.2745 35.5388 22.664 35.1192 22.6047C34.6995 22.5454 34.6637 22.5988 34.5497 22.5455C34.5497 22.4328 34.7297 22.3321 34.7896 22.2788C35.6946 21.4964 36.3539 20.7022 36.9172 19.6413C37.0851 19.3094 37.2228 18.9953 37.3368 18.6634C37.3906 18.5508 37.3428 18.3315 37.4565 18.2782C39.0929 19.0605 40.705 20.2696 41.9457 21.5497C45.2181 25.1177 46.4588 30.0251 45.2181 34.654C45.1641 34.654 45.1641 34.654 45.1641 34.6004L45.0444 34.6954Z" fill="#4189C9"></path><path d="M39.3326 42.3113C39.3326 42.1455 39.4463 42.086 39.5004 41.9796C40.1775 41.0313 40.5732 39.9703 40.7949 38.8561C40.9086 38.1328 40.9627 37.4631 40.9086 36.7342C40.8548 35.6732 40.5732 34.6126 40.1175 33.6107C39.7821 32.8878 39.3863 32.1589 38.9309 31.5483C38.4214 30.8785 37.8041 30.2682 37.1808 29.7052C36.168 28.8692 34.9811 28.253 33.7408 27.8618C33.0634 27.6366 32.386 27.5299 31.6549 27.4173C31.5411 27.4173 31.427 27.364 31.2595 27.364C30.81 27.032 30.3543 26.7475 29.851 26.469V26.4157C30.0188 26.4157 30.2464 26.4157 30.4142 26.4157C33.0093 26.3623 35.3768 26.9728 37.4086 28.5375C39.5542 30.1555 40.9027 32.2712 41.4122 34.897C41.8617 37.1254 41.526 39.2473 40.2254 41.1971C39.9978 41.5884 39.7162 41.9796 39.3804 42.2581L39.3326 42.3113Z" fill="#161F42"></path><path d="M36.4136 20.6371C35.2543 22.3646 33.4783 23.5157 31.5591 24.2643H31.5051C31.4513 24.2109 31.5051 24.2109 31.5591 24.1516C32.0684 23.7071 32.3503 23.15 32.5179 22.5336C32.5179 22.4803 32.5719 22.3677 32.6857 22.3677C34.208 21.7513 35.3949 20.8089 36.3539 19.5821C36.4677 19.4695 36.5215 19.3569 36.6355 19.1909C36.5113 19.1909 35.7303 19.4868 35.7303 19.3035C36.6355 18.2426 37.3667 16.9624 37.7621 15.623C37.7621 15.5104 37.7621 15.3978 37.8762 15.3978C37.8762 17.2225 37.4754 19.13 36.4136 20.6371Z" fill="#161F42"></path><path d="M31.6789 28.502C31.9605 28.8338 32.2422 29.225 32.47 29.6162C32.47 29.6694 32.5241 29.6694 32.47 29.7288C32.4162 29.7821 32.4162 29.7288 32.3562 29.7288C31.3432 29.3376 30.3245 29.0591 29.3117 28.8932C28.8022 28.7805 28.2386 28.7805 27.7353 28.727C27.2258 28.6738 26.7763 28.727 26.2669 28.727C25.1941 28.8397 24.1212 29.0591 23.0544 29.5094C22.7188 29.6221 22.0055 29.966 21.7239 30.191C21.6699 30.191 21.6939 30.2147 21.6939 30.1614C22.5989 29.5449 23.9594 28.8991 24.9723 28.5611C26.3808 28.1167 27.8492 28.0574 29.3714 28.1699C30.1028 28.2234 30.8937 28.3361 31.6251 28.502C31.6789 28.502 31.7389 28.502 31.7389 28.5552L31.6789 28.502Z" fill="#161F42"></path><path d="M44.1932 27.6662C43.348 27.275 42.3893 26.9965 41.4841 26.8306C41.2024 26.7772 40.9749 26.7179 40.7529 26.7179C40.4175 26.4927 40.0758 26.2734 39.7401 26.1015C38.6673 25.4852 37.4267 25.0407 36.186 24.8747C36.132 24.8747 36.132 24.8747 36.132 24.8213C36.5277 24.768 37.7683 24.934 38.6673 25.2125C39.5123 25.4378 40.3034 25.7163 41.0346 26.1608C40.9808 25.9356 40.807 25.7696 40.6991 25.6037C40.6991 25.5504 40.645 25.4911 40.645 25.4378C40.6991 25.3844 40.7588 25.4378 40.8129 25.4378C40.9267 25.4911 41.0408 25.5504 41.2083 25.6037C42.2814 26.1608 43.2942 26.8306 44.1991 27.5536C44.2532 27.607 44.2532 27.607 44.1991 27.607V27.6662H44.1932Z" fill="#161F42"></path><path d="M29.929 22.7588C30.3244 22.5929 30.7198 22.4269 31.0556 22.1424C31.1096 22.1424 31.1096 22.1958 31.1096 22.1958C30.7739 23.476 29.8149 24.3176 28.4605 24.4243C28.1788 24.4243 27.951 24.4776 27.6693 24.4776C27.7233 24.365 27.7832 24.365 27.8371 24.365C28.1188 24.3117 28.4005 24.199 28.6821 24.0864C29.1916 23.8079 29.5274 23.47 29.7549 22.9129C29.7549 22.8462 29.7868 22.8631 29.8451 22.8418C29.8667 22.8338 29.9062 22.7543 29.929 22.7588Z" fill="#161F42"></path><path d="M30.0248 22.7233C29.8457 23.3355 29.4232 23.7769 28.8794 24.0536C28.5211 24.2184 28.0988 24.3302 27.6764 24.4421C27.5549 24.1654 27.6764 23.9417 27.8556 23.7239C28.0348 23.5003 28.3355 23.3355 28.6363 23.2236C29.1227 23.0529 29.5449 22.8881 30.0248 22.7233Z" fill="#418AC9"></path><path d="M23.2163 27.6129C23.2702 27.6662 23.1623 27.7255 23.1623 27.7789C23.1084 27.5536 22.9945 27.5003 22.7668 27.5003C22.539 27.5536 22.3173 27.6662 22.1435 27.8322C22.0895 27.8855 22.0296 27.9448 21.9756 27.9448C21.9217 27.8915 21.9756 27.8322 21.9756 27.8322C22.0895 27.5003 22.3113 27.2751 22.539 27.1091C22.593 27.0558 22.6529 27.0558 22.7668 26.9965C23.1024 26.9432 23.2762 27.0498 23.2163 27.3877C23.2163 27.441 23.2163 27.5003 23.2163 27.5003V27.6129Z" fill="#428AC9"></path><path d="M23.2163 27.6129C23.2163 27.5595 23.2163 27.5003 23.2163 27.4469C23.2163 27.115 23.0485 27.0024 22.7668 27.1684C22.4312 27.3343 22.2034 27.6129 22.0356 27.9507C21.9817 27.9507 21.9817 27.9507 21.9817 27.8974C22.0956 27.5062 22.3173 27.1743 22.6589 26.9491C22.7728 26.8957 22.8267 26.8365 22.9406 26.8365C23.1084 26.7831 23.2762 26.8898 23.2762 27.0617C23.3302 27.2276 23.2762 27.4528 23.1624 27.6188H23.2163V27.6129Z" fill="#182144"></path><path d="M34.6097 35.4659C34.2143 35.7445 33.8786 36.0822 33.3691 36.3016C33.5369 36.023 33.5969 35.5845 33.7048 35.2465C33.9864 33.9665 33.633 32.9055 32.9018 31.8505C32.7339 31.5719 32.4402 31.3646 32.2123 31.1393C32.1585 31.0861 32.2425 31.0683 32.1825 31.0683C32.1284 31.0148 31.9366 30.8371 31.8828 30.7836C31.9366 30.7304 32.0326 30.7836 32.1225 30.8134C33.0274 31.317 33.7648 32.0758 34.2143 32.9646C34.4418 33.4094 34.55 33.9129 34.6097 34.4168C34.6638 34.6954 34.6097 35.1874 34.6097 35.4659Z" fill="#0E1F66"></path><path d="M26.7704 43.6686C27.9571 43.7218 29.1976 43.5559 30.2645 43.1115C31.3373 42.7203 32.4103 42.1632 33.3093 41.4402C34.2143 40.7169 34.9454 39.9348 35.4549 38.8739C35.7366 38.3168 35.9044 37.7597 35.9644 37.1431C36.0182 36.586 35.9103 36.0822 35.7966 35.5845C35.7966 35.4719 35.9103 35.4186 36.0241 35.306C36.3061 34.9739 36.4736 34.5827 36.5877 34.1918C36.5877 34.1383 36.6415 34.0791 36.6415 34.0256C36.8094 34.3577 36.9231 34.6954 37.0372 35.0274C37.151 35.531 37.2648 36.029 37.2051 36.5328C37.151 37.4276 36.8693 38.3168 36.4139 39.0992C35.9644 39.8813 35.4009 40.5511 34.7238 41.1617C34.1602 41.6652 33.4831 42.11 32.8058 42.5009C31.9608 42.9456 31.0556 43.2833 30.1566 43.5027C29.5933 43.6154 28.97 43.7277 28.4065 43.7812C28.1249 43.7812 27.8432 43.8345 27.5615 43.7812C27.3338 43.7812 27.112 43.7812 26.8843 43.7277L26.7704 43.6686Z" fill="#0E1F66"></path><path d="M27.3877 25.1059C26.4826 25.3844 26.201 24.7739 26.0931 24.8806C25.6975 25.3252 24.2291 26.6113 23.444 26.2734C22.8806 26.1608 23.1084 25.3252 23.1623 24.9932C22.9346 25.0466 22.8267 25.2185 22.5989 25.3252C20.8488 26.552 20.4533 28.502 20.9088 30.5645C20.9627 30.7304 21.0226 30.7304 21.1365 30.6177C21.3043 30.4518 21.5321 30.2859 21.6999 30.1733C21.7538 30.1733 21.8138 30.2265 21.8138 30.2859C22.3771 31.0089 23.1084 31.4593 24.0134 31.6787C24.4089 31.7913 24.7445 31.7913 25.1401 31.8445C25.0263 31.6787 25.0262 31.6195 24.9124 31.4533C24.7445 31.1216 24.7445 30.7839 24.9663 30.5585C25.248 30.28 25.6975 30.1673 26.0931 30.0547C26.8842 29.8297 27.7293 29.8297 28.5743 29.8888C29.2517 29.942 29.9287 30.1141 30.5461 30.28C31.1097 30.4459 31.6189 30.6118 32.0684 30.8962C32.1225 30.9498 32.1825 31.0089 32.2363 31.0624C32.8595 31.7319 33.1953 32.4552 33.2493 33.3499C33.2493 33.9665 33.0815 34.5768 32.7998 35.0807C32.2363 36.029 31.4631 36.7756 30.5041 37.333C29.4913 37.8901 28.4546 38.3227 27.3277 38.4294C25.296 38.6545 23.2942 38.1804 21.5441 37.1254C20.1356 36.2303 19.0628 35.1102 18.1578 33.7175C17.7682 33.0536 16.9591 31.7023 16.8992 31.2579C16.8992 31.0326 16.9531 30.9022 16.9531 30.3986C17.007 29.3968 17.1809 28.3893 17.4026 27.441C18.5953 23.0907 21.7538 19.5821 25.9792 17.9048C27.2738 17.401 28.5743 17.0691 29.9287 16.9565C32.0746 16.7906 34.1602 17.0098 36.1861 17.7388C35.8503 18.296 34.1002 19.8606 32.7458 20.7497C32.5179 19.6887 32.4641 19.8014 32.1225 19.0783C32.1225 19.1909 31.2176 20.3585 30.1507 21.0282C29.0238 21.698 26.147 22.99 26.147 23.8138C26.147 24.6376 26.3932 24.8721 27.3877 25.1059Z" fill="#5591CD"></path><path d="M66.4709 40.6043V40.9363C64.8945 40.9363 63.2584 40.4919 61.6221 39.5968C60.2135 38.8739 59.1408 37.9788 58.4096 36.9772C57.1152 36.6452 56.0421 35.8036 55.1972 34.5768C54.3522 33.2967 53.9027 31.9572 53.9027 30.5645C53.9027 28.7211 54.526 27.2158 55.7066 25.9356C56.8932 24.6554 58.4155 24.039 60.2197 24.039C62.0237 24.039 63.4922 24.6554 64.7325 25.9356C65.9732 27.2158 66.5368 28.7211 66.5368 30.5645C66.5368 32.0699 66.0873 33.4094 65.1821 34.6894C64.2771 35.9695 63.0965 36.7519 61.742 37.0305C62.0237 37.9256 62.587 38.702 63.4922 39.4309C64.4509 40.2134 65.464 40.5451 66.4827 40.5451V40.6043H66.4709ZM60.2135 36.6452C61.5083 36.4793 62.527 35.8631 63.2584 34.8021C63.9896 33.7411 64.3312 32.3484 64.3312 30.5645C64.3312 28.7805 63.9955 27.3876 63.2584 26.3267C62.527 25.2125 61.5083 24.6554 60.2135 24.6554C58.9191 24.6554 57.9001 25.2125 57.169 26.2734C56.4378 27.3343 56.0962 28.7805 56.0962 30.5704C56.0962 32.3602 56.4319 33.8065 57.109 34.9207C57.8401 36.0881 58.8591 36.6452 60.2135 36.6452ZM69.006 32.5202V26.386C69.006 25.7163 68.8922 25.2718 68.6105 25.0466C68.3286 24.8213 67.8791 24.7147 67.202 24.7147V24.3828H72.7879V24.7147C72.1105 24.7147 71.661 24.8273 71.3794 25.0466C71.0977 25.2659 70.984 25.7163 70.984 26.386V32.5737C70.984 33.6879 71.3194 34.5827 71.9967 35.3592C72.6738 36.1416 73.519 36.4734 74.5918 36.4734C75.6646 36.4734 76.5636 36.0822 77.1869 35.3592C77.8643 34.6362 78.1459 33.6879 78.1459 32.5737V26.386C78.1459 25.7163 78.0321 25.2718 77.7505 25.0466C77.4686 24.8213 77.0191 24.7147 76.342 24.7147V24.3828H80.7951V24.7147C80.1177 24.7147 79.6682 24.8273 79.3866 25.0466C79.1049 25.2659 78.9911 25.7163 78.9911 26.386V32.5737C78.9911 33.9665 78.5954 35.0806 77.8043 35.9222C76.8994 36.8705 75.6046 37.3149 73.9145 37.3149C72.3384 37.3149 71.1515 36.8705 70.2466 35.9222C69.4017 35.0274 69.006 33.9129 69.006 32.5202ZM83.2764 34.9739V26.3267C83.2764 25.657 83.1623 25.2125 82.8807 24.9873C82.599 24.7621 82.1495 24.6554 81.4724 24.6554V24.3235H87.058V24.6554C86.381 24.6554 85.9314 24.768 85.6498 24.9873C85.3682 25.2125 85.2541 25.657 85.2541 26.3267V34.968C85.2541 35.6377 85.3682 36.0822 85.6498 36.3075C85.9314 36.5328 86.381 36.6393 87.058 36.6393V36.9713H81.4724V36.6393C82.1495 36.6393 82.599 36.5269 82.8807 36.3075C83.1623 36.0881 83.2764 35.6377 83.2764 34.9739ZM99.0691 24.039L99.4045 28.3358H98.955C98.8412 27.3343 98.3917 26.4927 97.6606 25.7696C96.9294 25.0466 96.0842 24.7087 95.1252 24.7087C93.717 24.7087 92.5901 25.3251 91.6852 26.4927C91.2895 27.0498 90.9537 27.6662 90.7262 28.4425C90.4983 29.225 90.3905 30.0015 90.3905 30.8962C90.3905 32.627 90.9 34.0197 91.859 35.0807C92.7639 36.0822 94.0045 36.586 95.413 36.586C96.2042 36.586 96.9353 36.3075 97.6665 35.8036C98.3438 35.3592 98.9071 34.6894 99.4166 33.907L99.7524 34.0732C99.2429 35.0215 98.5655 35.7445 97.7206 36.3607C96.8154 37.0305 95.8026 37.3625 94.7298 37.3625C92.8118 37.3625 91.2357 36.746 89.995 35.4659C88.7544 34.2391 88.077 32.6802 88.077 30.8903C88.077 29.0472 88.7544 27.4351 90.0488 26.0956C91.4033 24.7561 92.9258 24.0864 94.7836 24.0864C95.515 24.0864 96.1383 24.199 96.6475 24.365C97.097 24.5902 97.6065 24.7561 98.056 24.9814C98.1701 24.9814 98.3376 24.8687 98.4517 24.7561C98.5655 24.5902 98.6793 24.365 98.7334 24.1398H99.0691V24.039ZM102.503 34.9739V26.3267C102.503 25.657 102.389 25.2125 102.108 24.9873C101.826 24.7621 101.376 24.6554 100.699 24.6554V24.3235H106.285V24.6554C105.608 24.6554 105.158 24.768 104.877 24.9873C104.595 25.2125 104.481 25.657 104.481 26.3267V29.8947L108.539 26.2675C108.766 26.0423 108.934 25.8763 109.102 25.7104C109.33 25.4852 109.438 25.2659 109.438 25.094C109.438 24.928 109.324 24.8154 109.156 24.7621C108.928 24.7087 108.646 24.6495 108.251 24.6495V24.3176H112.986V24.6495C112.422 24.6495 111.913 24.7621 111.463 24.9814C111.014 25.2066 110.504 25.5978 109.887 26.1549L106.111 29.6694L111.302 34.8021C112.147 35.6377 112.77 36.1416 113.165 36.3607C113.561 36.5801 114.07 36.6928 114.742 36.6928V37.0246H108.766V36.6928C109.102 36.6928 109.33 36.6393 109.443 36.5269C109.558 36.4142 109.671 36.2484 109.671 36.023C109.671 35.7977 109.444 35.4659 108.94 34.9621L104.541 30.6118V35.0153C104.541 35.6851 104.655 36.1298 104.937 36.3548C105.218 36.5801 105.668 36.6869 106.345 36.6869V37.0187H100.759V36.6869C101.436 36.6869 101.886 36.5742 102.167 36.3548C102.449 36.1298 102.563 35.6851 102.563 35.0153L102.503 34.9739ZM123.204 28.4485H122.869C122.755 27.275 122.419 26.386 121.796 25.7163C121.179 25.0466 120.388 24.768 119.369 24.768C118.691 24.768 118.128 24.9932 117.733 25.3844C117.283 25.8289 117.115 26.2793 117.115 26.7772C117.115 27.5003 117.733 28.2293 118.919 28.9523C120.046 29.6221 121.173 30.2324 122.305 30.8489C123.546 31.6846 124.109 32.6329 124.109 33.6344C124.109 34.6954 123.714 35.531 122.983 36.2008C122.252 36.8705 121.179 37.2026 119.878 37.2026C119.482 37.2026 119.147 37.1491 118.805 37.0899C118.47 37.0364 118.188 36.9237 117.96 36.8646C117.733 36.7519 117.511 36.6987 117.283 36.586C117.055 36.5328 116.887 36.4734 116.72 36.4734C116.552 36.4734 116.438 36.5269 116.324 36.6393C116.21 36.7519 116.156 36.9178 116.096 37.1431H115.761V32.8464H116.096C116.096 33.9605 116.492 34.7962 117.337 35.4659C118.068 36.0822 118.973 36.4142 120.046 36.4142C120.723 36.4142 121.287 36.2484 121.736 35.8571C122.245 35.4659 122.467 34.9621 122.467 34.3518C122.467 33.5158 121.904 32.7337 120.717 32.0104C119.59 31.3942 118.518 30.7836 117.445 30.1673C116.258 29.3317 115.695 28.3834 115.695 27.3224C115.695 26.3742 116.03 25.5385 116.767 24.9221C117.499 24.2524 118.404 23.9738 119.477 23.9738C119.812 23.9738 120.1 24.0272 120.381 24.0864C120.436 24.0864 120.663 24.1398 121.113 24.3117C121.281 24.365 121.448 24.4243 121.73 24.5369C122.012 24.6495 122.18 24.7028 122.353 24.7028C122.521 24.7028 122.689 24.6495 122.803 24.4776C122.971 24.3117 123.031 24.1457 123.031 24.0331H123.366V28.4366H123.204V28.4485ZM124.445 24.3176H129.18V24.6495C128.73 24.6495 128.449 24.7028 128.221 24.8747C127.993 24.9873 127.939 25.1532 127.939 25.3785C127.939 25.5444 127.939 25.7104 127.993 25.823C128.047 25.9356 128.107 26.2141 128.275 26.6053L130.924 33.9129L133.07 28.004L132.56 26.6112C132.333 25.8882 132.051 25.3844 131.883 25.1592C131.601 24.8273 131.152 24.6554 130.588 24.6554V24.3235H135.551V24.6554C135.101 24.6554 134.82 24.7087 134.592 24.8806C134.364 24.9932 134.256 25.1592 134.256 25.3844C134.256 25.7163 134.37 26.1075 134.538 26.6646L137.073 33.9724L139.668 26.6112C139.782 26.2201 139.896 25.8882 139.896 25.6096C139.896 24.9932 139.447 24.7147 138.542 24.7147V24.3828H142.317V24.7147C141.7 24.7147 141.305 24.9932 141.023 25.497C140.909 25.7222 140.741 26.1134 140.573 26.6705L136.905 37.3209H136.456L133.525 29.29L130.648 37.3209H130.199L126.363 26.7239C126.081 25.9415 125.854 25.4437 125.686 25.2184C125.404 24.8865 125.068 24.7147 124.559 24.7147V24.3828L124.445 24.3176ZM146.321 24.039H146.771L151.451 34.968C151.733 35.6377 152.015 36.0289 152.243 36.2484C152.524 36.5269 152.974 36.6393 153.597 36.6393V36.9713H148.353V36.6393C149.258 36.6393 149.761 36.3607 149.761 35.8036C149.761 35.5786 149.707 35.3001 149.533 34.968L148.574 32.7396H143.612L142.599 34.968C142.431 35.3001 142.372 35.5845 142.372 35.8036C142.372 36.0822 142.485 36.2484 142.707 36.4202C142.935 36.586 143.33 36.6452 143.834 36.6452V36.9772H139.776V36.6452C140.226 36.6452 140.567 36.4793 140.849 36.2008C141.077 35.9757 141.358 35.531 141.58 34.9739L146.321 24.039ZM146.039 26.9431L143.84 32.0163H148.179L146.039 26.9431ZM155.911 34.9739V26.3267C155.911 25.657 155.797 25.2125 155.515 24.9873C155.233 24.7621 154.784 24.6554 154.107 24.6554V24.3235H159.579C160.819 24.3235 161.892 24.6554 162.683 25.2718C163.528 25.8882 163.924 26.7772 163.924 27.8914C163.924 29.0056 163.528 29.8415 162.737 30.4577C162.006 31.0148 161.161 31.2934 160.088 31.2934C159.638 31.2934 159.183 31.2934 158.847 31.2401C158.452 31.1866 158.116 31.1275 157.834 31.0742V34.9207C157.834 35.5904 157.948 36.0349 158.23 36.2602C158.512 36.4852 158.961 36.592 159.638 36.592V36.9237H154.052V36.592C154.73 36.592 155.179 36.4793 155.461 36.2602C155.743 36.0349 155.857 35.5904 155.857 34.9207L155.911 34.9739ZM157.882 25.2125V30.3986C158.218 30.511 158.506 30.5645 158.728 30.6236C158.949 30.683 159.177 30.6771 159.351 30.6771C160.142 30.6771 160.759 30.4518 161.215 29.9539C161.664 29.4503 161.832 28.8397 161.832 28.0574C161.832 27.2217 161.604 26.4986 161.101 25.8822C160.591 25.3251 159.974 24.9873 159.237 24.9873C158.955 24.9873 158.728 24.9873 158.56 25.0406C158.392 25.0466 158.164 25.0999 157.882 25.2125Z" fill="white"></path></g></g><defs><radialGradient id="paint0_radial_465_853" cx="0" cy="0" r="1" gradientUnits="userSpaceOnUse" gradientTransform="translate(82.0423 30.8726) scale(173.651 361.355)"><stop offset="0.08" stop-color="#0A3D4E"></stop><stop offset="0.548764" stop-color="#07212A"></stop></radialGradient><clipPath id="clip0_465_853"><rect width="178" height="61.962" fill="white"></rect></clipPath></defs></svg> 