<?xml version="1.0" encoding="UTF-8"?> <svg xmlns="http://www.w3.org/2000/svg" width="178" height="62" viewBox="0 0 178 62" fill="none"><g clip-path="url(#clip0_465_827)"><path d="M171.643 0H6.35714C2.84619 0 0 2.8462 0 6.35715V55.388C0 58.899 2.8462 61.7452 6.35715 61.7452H171.643C175.154 61.7452 178 58.899 178 55.388V6.35714C178 2.84619 175.154 0 171.643 0Z" fill="url(#paint0_radial_465_827)"></path><mask id="mask0_465_827" style="mask-type:luminance" maskUnits="userSpaceOnUse" x="18" y="13" width="142" height="36"><path d="M159.13 13.5514H18.8704V48.1938H159.13V13.5514Z" fill="white"></path></mask><g mask="url(#mask0_465_827)"><path fill-rule="evenodd" clip-rule="evenodd" d="M19.4191 14.2308C22.919 18.4742 26.7618 23.8052 27.3834 24.6674C27.4165 24.7134 27.4405 24.7467 27.4548 24.7664C27.7861 25.2239 28.0596 25.564 28.2675 25.8222C28.7285 26.3955 28.8654 26.5657 28.5902 26.7219C28.3683 26.8479 28.1393 26.8895 27.9108 26.8895C27.6524 26.8895 27.3613 26.7652 27.1493 26.5643C26.9994 26.4224 25.9742 24.9349 24.5781 22.771C23.5099 21.1152 22.616 19.7417 22.5916 19.7187C22.5352 19.6655 22.5362 19.6673 24.4692 23.1224C25.683 25.2919 26.5133 26.8952 26.5133 26.9978C26.5133 27.2064 26.4563 27.3161 26.1986 27.6032C25.7691 28.0819 25.5771 28.6197 25.4385 29.7328C25.2831 30.9805 24.8462 31.862 23.6354 33.3702C22.9266 34.2535 22.8106 34.4151 22.6317 34.7711C22.4065 35.2195 22.3445 35.4704 22.3194 36.0363C22.2929 36.6348 22.3446 37.0215 22.5276 37.5935C22.6878 38.0943 22.8551 38.4252 23.2826 39.0865C23.6516 39.6574 23.864 40.0815 23.864 40.2474C23.864 40.3795 23.8892 40.3798 24.461 40.2508C25.8292 39.9421 26.9402 39.3994 27.565 38.7342C27.9518 38.3224 28.0425 38.0951 28.0455 37.5307C28.0474 37.1617 28.0344 37.0846 27.9346 36.8722C27.772 36.5263 27.476 36.2391 26.8237 35.7938C25.969 35.2099 25.604 34.7401 25.5031 34.094C25.4204 33.5637 25.5164 33.1897 25.9892 32.1997C26.4786 31.1751 26.5999 30.7382 26.6819 29.7054C26.7349 29.0382 26.8083 28.7749 27.0002 28.5639C27.2004 28.3437 27.3806 28.269 27.876 28.2012C28.6835 28.0911 29.1977 27.8824 29.6205 27.4933C29.9872 27.1557 30.1407 26.8305 30.1641 26.3408L30.1821 25.9697L29.9771 25.7311C29.2349 24.8667 18.9222 13.5514 18.8765 13.5514C18.8667 13.5514 19.1109 13.8572 19.4191 14.2308ZM24.2806 36.7133C24.4484 36.4165 24.3592 36.0351 24.0786 35.8487C23.8134 35.6724 23.4014 35.7555 23.4014 35.985C23.4014 36.0549 23.4402 36.1058 23.5276 36.1509C23.6747 36.2267 23.6854 36.3117 23.5696 36.4855C23.4524 36.6615 23.4619 36.8161 23.5963 36.9212C23.8131 37.091 24.1199 36.9978 24.2806 36.7133ZM29.3307 20.5267C28.9997 20.4754 28.9857 20.4694 29.1414 20.4455C29.44 20.3996 30.1449 20.4621 30.6308 20.5775C31.7649 20.8468 32.7972 21.5367 33.8987 22.762L34.1913 23.0875L34.6101 23.0203C36.3738 22.7371 38.1682 22.9622 39.669 23.6547C40.0819 23.8453 40.7328 24.2246 40.8142 24.322C40.8401 24.3531 40.8877 24.553 40.9198 24.7664C41.0314 25.5046 40.9756 26.0704 40.7494 26.493C40.6266 26.7229 40.6199 26.7958 40.7024 26.9926C40.7683 27.1497 40.9525 27.2659 41.1347 27.2657C41.5076 27.2652 41.909 26.6629 42.0951 25.8249L42.1689 25.492L42.3154 25.6576C43.1181 26.5662 43.7487 27.8054 43.8571 28.6873L43.8853 28.9174L43.7504 28.7084C43.518 28.3488 43.2848 28.1037 42.9857 27.9062C42.4472 27.5501 41.8777 27.429 40.3692 27.3496C39.0069 27.2779 38.236 27.1616 37.4716 26.9126C36.1707 26.4889 35.5151 25.9247 33.9699 23.8997C33.2836 23.0002 32.8594 22.5026 32.4375 22.1018C31.4788 21.1912 30.5367 20.7136 29.3307 20.5267ZM41.1215 22.535C41.1556 21.9323 41.2375 21.5347 41.402 21.1717C41.4671 21.028 41.5282 20.9104 41.5375 20.9104C41.5471 20.9104 41.5186 21.0164 41.4747 21.1461C41.355 21.4984 41.3353 21.9803 41.4178 22.541C41.5223 23.2525 41.582 23.3551 42.3345 24.1236C42.6877 24.4841 43.0984 24.9387 43.2471 25.1339L43.518 25.4888L43.2471 25.2352C42.9161 24.925 42.1549 24.3201 41.9867 24.2336C41.8741 24.1756 41.8572 24.1766 41.7876 24.2458C41.7236 24.3095 41.7101 24.4053 41.7011 24.8579C41.6873 25.5634 41.591 26.0163 41.3586 26.4691C41.233 26.7139 41.2133 26.6617 41.3268 26.3853C41.4119 26.1789 41.4206 26.0881 41.4198 25.4052C41.4186 24.0329 41.2553 23.703 40.2991 23.1379C40.0569 22.9947 39.6575 22.7883 39.4119 22.6791C39.1663 22.5698 38.9711 22.4747 38.9782 22.4676C39.0055 22.4407 39.9383 22.7126 40.3134 22.8569C40.872 23.0714 40.9641 23.0993 41.0319 23.0734C41.0773 23.056 41.0992 22.9238 41.1215 22.535ZM28.9758 21.4815C28.886 22.5409 29.3017 23.9582 29.974 24.8825C30.4947 25.599 31.3025 26.1559 31.8987 26.2097C32.2891 26.2448 32.4065 26.1227 32.2299 25.8651C31.9846 25.5073 31.683 24.9565 31.6033 24.7207C31.5537 24.5742 31.4458 24.1414 31.3639 23.759C31.0834 22.4534 30.8079 21.945 30.1714 21.5588C29.9393 21.4181 29.4439 21.2339 29.1566 21.1816L29.0037 21.1537L28.9758 21.4815ZM40.3064 31.762C37.1652 30.4986 36.0589 29.4021 36.0589 27.5518C36.0589 27.2795 36.0685 27.0568 36.0798 27.0568C36.0913 27.0568 36.2127 27.1466 36.3499 27.2564C36.9867 27.7668 37.7001 27.9847 39.6747 28.2724C40.8365 28.442 41.4902 28.5786 42.0935 28.7785C44.0106 29.4137 45.1966 30.7025 45.4794 32.458C45.5616 32.9683 45.5135 33.9248 45.3803 34.4289C45.2749 34.8272 44.9538 35.5448 44.8688 35.5724C44.8451 35.58 44.822 35.4896 44.8161 35.3668C44.7837 34.7075 44.4503 34.0659 43.8904 33.5848C43.2535 33.0384 42.3979 32.6033 40.3064 31.762ZM37.9493 31.6229C37.9935 31.7541 38.0617 32.0527 38.1011 32.2867C38.3526 33.7825 37.5668 34.9908 36.0378 35.4592C35.8761 35.5087 35.2385 35.6332 34.6211 35.736C33.3715 35.9439 32.8138 36.0912 32.2533 36.3607C31.8559 36.552 31.3749 36.8384 31.4033 36.8668C31.4126 36.8759 31.5033 36.8545 31.605 36.8187C32.3116 36.5708 33.098 36.4424 34.2927 36.3804C34.767 36.3559 35.3064 36.3168 35.4914 36.2934C36.5557 36.1594 37.2936 35.8363 37.8674 35.253C38.1865 34.9286 38.3769 34.6261 38.5301 34.1997C38.6275 33.9293 38.6405 33.8287 38.6413 33.3497C38.6422 32.8613 38.6303 32.772 38.525 32.4715C38.387 32.0777 38.2242 31.7823 38.0183 31.5511L37.8693 31.3843L37.9493 31.6229ZM39.5412 34.8412C39.1235 33.9451 39.028 33.0798 39.2564 32.2729C39.2809 32.1865 39.3201 32.116 39.344 32.116C39.3677 32.116 39.466 32.1693 39.5629 32.2343C39.7549 32.3636 40.1408 32.5813 41.1682 33.141C42.4506 33.8394 43.1817 34.3799 43.6788 34.9978C44.1143 35.5389 44.3835 36.1551 44.5131 36.9066C44.5869 37.3324 44.5438 38.3565 44.4345 38.7851C44.0898 40.1365 43.2885 41.198 42.1456 41.8176C41.9783 41.9083 41.8279 41.9827 41.8115 41.9832C41.7952 41.9835 41.8563 41.8286 41.947 41.6388C42.3314 40.8358 42.3754 40.0551 42.0847 39.1859C41.9067 38.6536 41.5437 38.0044 40.8111 36.9068C39.9594 35.6307 39.7504 35.291 39.5412 34.8412ZM31.6802 37.7805C30.359 37.9948 28.9088 38.6933 27.7432 39.6765L27.3962 39.9692L27.7012 40.0168C29.2927 40.2649 29.721 40.4851 30.8251 41.621C31.4605 42.2747 31.6748 42.42 32.2018 42.5544C32.9757 42.7518 33.7387 42.3891 34.0004 41.6996C34.1172 41.3915 34.1015 40.8811 33.9674 40.6248C33.6483 40.0148 32.7189 39.8176 32.2694 40.2643C31.8951 40.6367 32.0041 41.1974 32.4696 41.294C32.5764 41.3163 32.5733 41.3115 32.4426 41.2523C32.2387 41.1602 32.1502 41.0327 32.1491 40.8296C32.1466 40.3533 32.6921 40.0861 33.1994 40.3147C33.5711 40.4823 33.7187 40.7012 33.7187 41.0848C33.7187 41.6757 33.2151 42.1207 32.6296 42.048C32.3164 42.0091 31.9334 41.8089 31.728 41.5771C31.2115 40.9935 31.4126 40.0725 32.1342 39.7194C32.6831 39.4504 33.4131 39.5166 33.9792 39.8869C34.6296 40.3125 34.9061 40.7012 35.4663 41.9776C35.6488 42.393 35.8834 42.8608 35.9879 43.0171C36.5186 43.8105 37.1542 44.1998 37.92 44.1998C38.3425 44.1998 38.6602 44.1226 39.0601 43.9232C39.357 43.775 39.778 43.4934 39.7476 43.4633C39.7392 43.4548 39.6158 43.4931 39.4739 43.5483C38.6377 43.8742 37.7877 43.8517 37.2942 43.4906C36.9833 43.2636 36.7326 42.8107 36.6036 42.2446C36.5814 42.1466 36.5079 41.714 36.44 41.283C36.2685 40.1905 36.1037 39.6996 35.7192 39.1361C35.3261 38.5595 34.5701 38.0757 33.7252 37.8596C33.198 37.7247 32.2494 37.6881 31.6802 37.7805ZM29.83 29.3345C29.9441 28.9137 30.3125 28.5124 30.6916 28.3961C30.9327 28.322 31.4312 28.3693 31.6655 28.4882C32.1195 28.7188 32.4491 29.2441 32.3775 29.6232C32.2905 30.0857 31.5399 30.4555 30.6764 30.4617C30.2353 30.4648 30.0725 30.4056 29.9041 30.1809C29.7999 30.0417 29.7605 29.5914 29.83 29.3345ZM31.5495 28.6529C31.7759 28.7912 31.8342 28.9954 31.701 29.1844C31.6095 29.3145 31.3253 29.4382 31.118 29.4382C30.8062 29.4382 30.466 29.2171 30.466 29.0146C30.466 28.6076 31.1183 28.3899 31.5495 28.6529ZM99.2272 29.8181C98.5228 27.5011 99.6846 25.5792 102.163 24.9616C102.874 24.7843 106.093 24.8643 106.644 25.073C106.847 25.1494 106.935 25.4429 106.936 26.0459C106.938 26.5209 106.99 27.0978 107.053 27.3278C107.148 27.6765 107.092 27.7451 106.72 27.7395C106.384 27.7343 106.18 27.5392 105.896 26.9492C105.442 26.0067 104.893 25.7069 103.612 25.7034C101.978 25.6988 100.781 26.7872 100.976 28.1024C101.103 28.9582 101.968 29.8004 103.908 30.9579C105.754 32.0592 106.832 32.9646 107.261 33.7761C108.409 35.9453 107.428 38.2666 104.871 39.4363C103.558 40.0365 101.357 40.0987 99.8102 39.5791L98.8194 39.2462V37.6805C98.8194 36.2627 98.8535 36.1148 99.1805 36.1148C99.4537 36.1148 99.5717 36.2934 99.6677 36.8533C99.9066 38.2452 100.976 39.0902 102.499 39.0902C103.992 39.0902 105.035 38.2838 105.434 36.8218C105.605 36.1988 105.575 35.9692 105.238 35.282C104.833 34.4585 104.136 33.9118 101.77 32.5619C100.457 31.8127 99.5292 30.8112 99.2272 29.8181ZM52.8467 25.8866C52.5239 25.8866 52.398 25.7822 52.398 25.5146C52.398 25.1604 52.5239 25.1427 55.0536 25.1427C57.4017 25.1427 57.7022 25.1777 57.6485 25.4441C57.6147 25.61 57.2902 25.8401 56.9269 25.9556L56.2664 26.1655L56.2101 30.9078C56.1723 34.0721 56.2253 35.8974 56.3695 36.3937C56.7979 37.8695 58.1044 38.7184 59.9481 38.7184C61.2315 38.7184 61.9813 38.4215 62.9234 37.5403C63.9365 36.5925 64.0981 35.6924 64.095 31.0134C64.0919 26.398 64.0105 26.0171 63.0084 25.9213C62.5522 25.8777 62.3995 25.7726 62.3995 25.5029C62.3995 25.1667 62.5499 25.1427 64.664 25.1427C66.8025 25.1427 66.9284 25.1633 66.9284 25.5146C66.9284 25.7438 66.8014 25.8877 66.598 25.8893C65.7241 25.897 65.708 25.9792 65.5903 31.0402C65.4683 36.2957 65.3543 36.9178 64.2773 38.2052C63.9669 38.5767 63.2262 39.1158 62.6316 39.4036C61.6625 39.8728 61.3543 39.9266 59.6631 39.9235C58.1042 39.9204 57.6121 39.8458 56.8325 39.4949C55.6947 38.9826 54.9548 38.3199 54.4092 37.3234C54.0285 36.628 53.9958 36.2517 53.9076 31.5398C53.8065 26.1466 53.7578 25.8866 52.8467 25.8866ZM70.5047 25.8866C70.0735 25.8866 69.9476 25.8025 69.9476 25.5146C69.9476 25.166 70.0682 25.1436 71.8817 25.158L73.816 25.1732L74.7415 26.2273C75.2502 26.8069 76.9088 28.6203 78.4269 30.2566C79.9449 31.8933 81.688 33.7969 82.3 34.4875C82.9121 35.1778 83.488 35.7428 83.5801 35.7428C83.6748 35.7428 83.7218 33.7924 83.6883 31.2632L83.6286 26.7837L83.0991 26.3351C82.8078 26.0883 82.3623 25.8866 82.1085 25.8866C81.7711 25.8866 81.6475 25.7854 81.6475 25.5094C81.6475 25.1462 81.7438 25.1341 84.242 25.184C86.3662 25.2264 86.8368 25.285 86.8368 25.507C86.8368 25.6653 86.574 25.8314 86.2059 25.9055C85.8592 25.9755 85.4767 26.1294 85.3567 26.2477C85.2018 26.4004 85.1227 28.3744 85.0844 33.0553L85.0303 39.6481H84.4834C84.0125 39.6481 83.452 39.124 80.4555 35.8822C78.5412 33.811 76.3066 31.3491 75.4899 30.4118C74.6728 29.4745 73.9411 28.7002 73.8631 28.6918C73.6442 28.6676 73.6972 37.0432 73.9211 37.8382C74.0957 38.4576 74.216 38.5643 74.9581 38.7601C75.5558 38.9175 75.7974 39.0775 75.7974 39.3146C75.7974 39.6194 75.5696 39.6481 73.1556 39.6481C70.6982 39.6481 70.5137 39.6236 70.5137 39.2994C70.5137 39.062 70.6915 38.9158 71.0714 38.8409C72.2236 38.6136 72.2999 38.2534 72.3647 32.7438C72.4008 29.6578 72.3478 27.4989 72.2242 27.0468C72.007 26.2518 71.4657 25.8866 70.5047 25.8866ZM90.2917 25.8866C89.8876 25.8866 89.7617 25.7982 89.7617 25.5146C89.7617 25.1593 89.8876 25.1427 92.5922 25.1427C95.2969 25.1427 95.4228 25.1593 95.4228 25.5146C95.4228 25.7874 95.2969 25.8866 94.951 25.8866C94.6916 25.8866 94.306 26.0573 94.0942 26.266C93.7205 26.6344 93.7109 26.8175 93.7642 32.5109C93.816 38.0689 93.8382 38.3905 94.1849 38.6404C94.3866 38.7854 94.7474 38.9043 94.9871 38.9043C95.2969 38.9043 95.4228 39.0113 95.4228 39.276C95.4228 39.6315 95.2969 39.6481 92.5922 39.6481C89.9518 39.6481 89.7617 39.6247 89.7617 39.3C89.7617 39.0381 89.947 38.9226 90.5092 38.8339C91.6259 38.6578 91.6831 38.2976 91.6135 31.8688C91.5577 26.7203 91.5338 26.3993 91.1879 26.1503C90.9866 26.0052 90.5832 25.8866 90.2917 25.8866ZM110.037 25.8866C109.778 25.8866 109.582 25.7451 109.521 25.5146C109.426 25.155 109.515 25.1427 112.235 25.1427C114.922 25.1427 115.048 25.1593 115.048 25.5146C115.048 25.8005 114.922 25.8866 114.505 25.8866C113.317 25.8866 113.344 26.0993 115.142 30.9627C116.057 33.4384 116.946 35.7898 117.116 36.1884L117.427 36.9133L118.868 33.1201C120.565 28.6552 120.785 27.8293 120.497 27.015C120.296 26.4474 119.515 25.8866 118.926 25.8866C118.76 25.8866 118.633 25.7266 118.633 25.5146C118.633 25.1587 118.76 25.1427 121.559 25.1427C124.358 25.1427 124.484 25.1587 124.484 25.5146C124.484 25.7793 124.358 25.8866 124.048 25.8866C123.254 25.8866 122.905 26.3035 123.018 27.1136C123.136 27.9474 126.381 36.9097 126.518 36.7756C126.739 36.5573 130.333 26.9096 130.333 26.5335C130.333 26.0829 130.013 25.8866 129.28 25.8866C128.95 25.8866 128.824 25.7841 128.824 25.5146C128.824 25.1633 128.95 25.1427 131.088 25.1427C133.009 25.1427 133.353 25.1866 133.353 25.4313C133.353 25.5901 133.117 25.8008 132.83 25.8996C132.183 26.1218 132.02 26.3755 131.209 28.4302C130.853 29.3325 129.737 32.1563 128.73 34.7052C127.724 37.2544 126.857 39.4509 126.804 39.587C126.751 39.723 126.439 39.834 126.11 39.834H125.513L124.157 36.3472C123.412 34.4295 122.531 32.1574 122.2 31.2984C121.633 29.8263 121.585 29.7623 121.372 30.1825C121.247 30.4281 120.352 32.7041 119.382 35.2403L117.618 39.8523L116.959 39.7965L116.301 39.741L113.79 33.2469C112.387 29.6184 111.097 26.5613 110.866 26.3195C110.639 26.0813 110.266 25.8866 110.037 25.8866ZM147.769 25.9654C147.737 25.8948 147.737 25.6409 147.737 25.6409C147.737 25.6409 147.73 25.5493 147.769 25.5005C147.807 25.4518 147.821 25.4505 147.96 25.4375L147.961 25.4373C148.471 25.3894 149.493 25.3088 150.346 25.2719C150.424 25.2686 150.511 25.2647 150.606 25.2605L150.608 25.2603L150.609 25.2603L150.609 25.2603C151.548 25.2181 153.228 25.1618 154.383 25.2189C156.599 25.3283 158.175 26.3875 158.711 28.1377C159.248 29.8879 158.965 31.5308 158.233 32.5765C157.501 33.6223 156.27 34.5227 154.224 34.4641C152.535 34.4157 152.083 34.1031 151.722 33.8532C151.645 33.8003 151.573 33.7502 151.494 33.7062V35.9383C151.512 37.4606 151.525 38.1914 151.644 38.4621C151.805 38.8265 152.168 39.051 152.875 39.2231C152.875 39.2231 153.195 39.2972 153.277 39.3763C153.36 39.4554 153.36 39.6312 153.36 39.6312C153.36 39.6312 153.377 39.7954 153.311 39.879C153.244 39.9627 153.116 39.9461 153.116 39.9461L149.984 39.921L148.096 39.9162C148.096 39.9162 147.897 39.9537 147.823 39.8748C147.749 39.796 147.756 39.6315 147.756 39.6315C147.756 39.6315 147.772 39.4543 147.859 39.3752C147.945 39.2958 148.268 39.207 148.268 39.207C148.996 39.0048 149.312 38.791 149.477 38.388C149.61 38.063 149.611 37.4606 149.609 32.5439C149.608 27.8811 149.601 27.0113 149.493 26.7612C149.333 26.3909 148.933 26.2928 148.362 26.1531L148.362 26.153C148.249 26.1253 148.129 26.096 148.003 26.0626C148.003 26.0626 147.8 26.0361 147.769 25.9654ZM156.889 29.7702C156.889 30.5346 156.875 31.7319 156.052 32.4968C155.229 33.2621 153.608 33.4716 152.508 33.2584C152.162 33.1914 151.963 33.0877 151.81 33.008L151.795 33.0001L151.514 32.8534L151.497 30.1671C151.487 28.4839 151.505 27.3872 151.545 27.2305C151.582 26.3429 152.905 26.2325 153.552 26.2654C156.319 26.2654 156.808 28.5713 156.889 29.7702ZM139.079 25.2469C139.079 25.2469 138.944 25.2982 138.739 25.375L138.001 25.7524L137.468 27.066C137.176 27.7885 136.64 29.1148 136.279 30.0133C135.62 31.6499 135.185 32.7252 134.728 33.8473C134.593 34.1774 134.187 35.1826 133.825 36.0813C133.462 36.9795 133.1 37.8349 133.02 37.9813C133.007 38.0058 132.993 38.032 132.978 38.0599C132.775 38.4362 132.423 39.0902 131.802 39.189C131.802 39.189 131.46 39.2222 131.334 39.3456C131.208 39.4695 131.22 39.5704 131.22 39.5704V39.7261C131.22 39.7261 131.231 39.8016 131.303 39.8393C131.375 39.8768 131.472 39.879 131.472 39.879L133.744 39.8534H136.093C136.093 39.8534 136.259 39.8728 136.323 39.8202C136.387 39.7675 136.405 39.6898 136.405 39.6898V39.5256C136.405 39.5256 136.372 39.3479 136.279 39.2786C136.186 39.2093 135.838 39.1617 135.838 39.1617C134.897 39.0395 134.735 38.3359 134.851 37.7036C134.909 37.3927 135.287 36.2433 135.712 35.0857L135.859 34.6858L138.32 34.6672C139.674 34.6571 140.843 34.6638 140.918 34.6827C141.025 34.7094 141.174 35.0097 141.613 36.0796C142.279 37.7005 142.332 37.8982 142.185 38.2013C142.176 38.2199 142.166 38.2402 142.156 38.2621C142.017 38.5553 141.749 39.1254 141.073 39.1834C141.073 39.1834 140.714 39.1955 140.625 39.3017C140.535 39.4079 140.555 39.5301 140.555 39.5301V39.6923C140.555 39.6923 140.579 39.7875 140.625 39.825C140.671 39.8627 140.749 39.8531 140.749 39.8531L142.983 39.8374L146.123 39.8371C146.123 39.8371 146.247 39.8503 146.28 39.8036C146.313 39.7565 146.32 39.7013 146.32 39.7013V39.4859C146.32 39.4859 146.307 39.3712 146.246 39.3081C146.186 39.2451 145.779 39.1783 145.779 39.1783C145.259 39.0952 144.999 38.6705 144.806 38.3545C144.757 38.2737 144.712 38.2002 144.668 38.141C144.579 38.0205 144.26 37.36 144.009 36.7246C143.76 36.0895 143.195 34.6545 142.756 33.5358C142.316 32.4174 141.703 30.8571 141.393 30.0685C141.083 29.2802 140.493 27.7798 140.083 26.7346C140.016 26.563 139.955 26.4089 139.901 26.271V26.2704C139.626 25.5684 139.515 25.2852 139.485 25.2469C139.386 25.1224 139.079 25.2469 139.079 25.2469ZM138.933 29.5181C138.834 29.2799 138.659 28.8523 138.546 28.5682C138.338 28.0514 138.26 27.9324 138.195 28.0391C138.177 28.0703 138.046 28.4234 137.905 28.8239C136.995 31.4162 136.582 32.5836 136.499 32.8035C136.448 32.9418 136.405 33.0843 136.405 33.1201C136.405 33.1615 137.146 33.1855 138.415 33.1855C139.521 33.1855 140.425 33.1719 140.425 33.1553C140.425 33.1387 140.326 32.8914 140.206 32.6053C140.085 32.3191 139.79 31.6051 139.55 31.0185C139.31 30.4315 139.032 29.7564 138.933 29.5181Z" fill="white"></path></g></g><defs><radialGradient id="paint0_radial_465_827" cx="0" cy="0" r="1" gradientUnits="userSpaceOnUse" gradientTransform="translate(82.0423 30.8726) scale(173.651 361.355)"><stop offset="0.08" stop-color="#0A3D4E"></stop><stop offset="0.548764" stop-color="#07212A"></stop></radialGradient><clipPath id="clip0_465_827"><rect width="178" height="61.962" fill="white"></rect></clipPath></defs></svg> 