<?xml version="1.0" encoding="UTF-8"?> <svg xmlns="http://www.w3.org/2000/svg" width="178" height="63" viewBox="0 0 178 63" fill="none"><g clip-path="url(#clip0_465_839)"><path d="M171.643 0.962021H6.35714C2.84619 0.962021 0 3.80822 0 7.31917V56.35C0 59.861 2.8462 62.7072 6.35715 62.7072H171.643C175.154 62.7072 178 59.861 178 56.35V7.31916C178 3.80821 175.154 0.962021 171.643 0.962021Z" fill="url(#paint0_radial_465_839)"></path><mask id="mask0_465_839" style="mask-type:luminance" maskUnits="userSpaceOnUse" x="28" y="17" width="122" height="30"><path d="M149.554 17.189H28.4462V46.4802H149.554V17.189Z" fill="white"></path></mask><g mask="url(#mask0_465_839)"><path d="M68.5001 38.967C66.7863 38.967 65.4271 38.4983 64.4371 37.5464C63.4325 36.5944 62.9303 35.247 62.9303 33.4895V30.1943C62.9303 28.4368 63.4325 27.0748 64.4371 26.1375C65.442 25.1855 66.7863 24.7168 68.5001 24.7168C70.1993 24.7168 71.5143 25.1709 72.4451 26.0935C73.376 27.0162 73.8339 28.2757 73.8339 29.8867V30.0039H71.2631V29.8135C71.2631 29.008 71.0414 28.3343 70.5834 27.8217C70.1255 27.2945 69.431 27.0455 68.5001 27.0455C67.5842 27.0455 66.8604 27.3238 66.3284 27.8803C65.7966 28.4368 65.5454 29.1984 65.5454 30.165V33.5335C65.5454 34.4854 65.8113 35.247 66.3284 35.8182C66.8604 36.3894 67.5842 36.6676 68.5001 36.6676C69.431 36.6676 70.1255 36.404 70.5834 35.8768C71.0414 35.3495 71.2631 34.6905 71.2631 33.885V33.5335H73.8339V33.8117C73.8339 35.4228 73.376 36.6823 72.4451 37.6049C71.5143 38.4983 70.1993 38.967 68.5001 38.967Z" fill="#FAFAFA"></path><path d="M74.8682 38.6887L78.5028 24.9805H83.0384L86.6731 38.6887H83.9842L83.2305 35.6717H78.2958L77.5424 38.6887H74.8682ZM78.9165 33.2845H82.625L80.9404 26.6062H80.5858L78.9165 33.2845Z" fill="#FAFAFA"></path><path d="M88.328 38.6887V24.9805H93.1591L95.5528 36.9166H95.9074L98.3008 24.9805H103.132V38.6887H100.605V26.8844H100.251L97.887 38.6887H93.5877L91.2236 26.8844H90.869V38.6887H88.328Z" fill="#FAFAFA"></path><path d="M105.747 38.6887V24.9805H114.627V27.3238H108.347V30.5897H114.08V32.933H108.347V36.3161H114.745V38.6594H105.747V38.6887Z" fill="#FAFAFA"></path><path d="M116.695 38.6887V24.9805H119.296V36.3308H125.619V38.6741H116.695V38.6887Z" fill="#FAFAFA"></path><path d="M132.297 38.967C130.554 38.967 129.179 38.4983 128.145 37.5464C127.111 36.5944 126.609 35.247 126.609 33.4895V30.1943C126.609 28.4368 127.126 27.0748 128.145 26.1375C129.179 25.1855 130.554 24.7168 132.297 24.7168C134.04 24.7168 135.415 25.1855 136.449 26.1375C137.483 27.0894 137.985 28.4368 137.985 30.1943V33.4895C137.985 35.247 137.468 36.609 136.449 37.5464C135.415 38.4837 134.026 38.967 132.297 38.967ZM132.297 36.653C133.272 36.653 134.026 36.3747 134.572 35.8182C135.119 35.2617 135.385 34.5001 135.385 33.5628V30.1064C135.385 29.1691 135.119 28.4222 134.572 27.851C134.026 27.2945 133.272 27.0162 132.297 27.0162C131.337 27.0162 130.583 27.2945 130.037 27.851C129.49 28.4075 129.224 29.1691 129.224 30.1064V33.5481C129.224 34.4854 129.49 35.2324 130.037 35.8035C130.568 36.3747 131.337 36.653 132.297 36.653Z" fill="#FAFAFA"></path><path d="M142.92 38.6887V27.3384H138.886V24.9951H149.554V27.3384H145.52V38.6887H142.92Z" fill="#FAFAFA"></path><path d="M45.7474 46.4802V34.4415C48.643 34.7491 50.6081 36.0672 50.6081 36.0672L52.4551 34.0021C49.4263 31.8639 44.9346 31.776 44.9346 31.776L44.1961 23.6917C44.6836 23.3695 45.0087 22.8276 45.0087 22.1978C45.0087 21.2166 44.1961 20.4111 43.2061 20.4111C42.2161 20.4111 41.4036 21.2166 41.4036 22.1978C41.4036 22.8276 41.7286 23.3841 42.2161 23.6917L41.4774 31.776C41.4774 31.776 36.986 31.8492 33.9572 34.0021L35.8039 36.0672C35.8039 36.0672 37.769 34.7491 40.6648 34.4415V46.4802C29.3475 38.1615 28.4166 26.0789 28.4462 22.066C28.4462 21.2312 28.9487 20.4696 29.717 20.1328C31.9775 19.1369 37.1338 17.189 43.1912 17.189C49.2488 17.189 54.4052 19.1369 56.6657 20.1328C57.434 20.4696 57.9365 21.2312 57.9365 22.066C57.966 26.0789 57.0352 38.1615 45.7474 46.4802Z" fill="#FFAF1D"></path></g></g><defs><radialGradient id="paint0_radial_465_839" cx="0" cy="0" r="1" gradientUnits="userSpaceOnUse" gradientTransform="translate(82.0423 31.8346) scale(173.651 361.355)"><stop offset="0.08" stop-color="#0A3D4E"></stop><stop offset="0.548764" stop-color="#07212A"></stop></radialGradient><clipPath id="clip0_465_839"><rect width="178" height="61.962" fill="white" transform="translate(0 0.962021)"></rect></clipPath></defs></svg> 