<?xml version="1.0" encoding="UTF-8"?> <svg xmlns="http://www.w3.org/2000/svg" width="178" height="63" viewBox="0 0 178 63" fill="none"><g clip-path="url(#clip0_465_628)"><path d="M171.643 0.962036H6.35714C2.84619 0.962036 0 3.80823 0 7.31918V56.35C0 59.861 2.8462 62.7072 6.35715 62.7072H171.643C175.154 62.7072 178 59.861 178 56.35V7.31918C178 3.80823 175.154 0.962036 171.643 0.962036Z" fill="url(#paint0_radial_465_628)"></path><path fill-rule="evenodd" clip-rule="evenodd" d="M40.1536 42.7481C39.4075 42.7481 39.0343 42.7481 38.7493 42.6031C38.4992 42.4743 38.2953 42.2704 38.1674 42.0189C38.0221 41.733 38.0221 41.3585 38.0221 40.6101V20.9214H41.4401C42.1862 20.9214 42.5591 20.9214 42.8441 21.0671C43.0945 21.1951 43.2984 21.3998 43.4263 21.6513C43.5714 21.9371 43.5714 22.3111 43.5714 23.0595V36.5567C43.5714 36.931 43.5714 37.118 43.644 37.2611C43.7077 37.3867 43.8096 37.4889 43.9352 37.5529C44.0775 37.6258 44.2642 37.6258 44.6368 37.6258H52.6001C53.3461 37.6258 53.7193 37.6258 54.0044 37.7714C54.2545 37.8996 54.4584 38.104 54.5862 38.3556C54.7313 38.6414 54.7313 39.0155 54.7313 39.7638V42.7481H40.1536Z" fill="white"></path><path fill-rule="evenodd" clip-rule="evenodd" d="M98.8514 23.0595C98.8514 22.3111 98.8514 21.9371 98.9965 21.6513C99.1238 21.3998 99.3277 21.1951 99.5784 21.0671C99.8634 20.9214 100.237 20.9214 100.982 20.9214H102.944C103.394 20.9214 103.619 20.9214 103.82 20.9873C103.998 21.0453 104.162 21.1409 104.301 21.2671C104.458 21.4095 104.57 21.6053 104.794 21.9969L111.617 33.9509V23.0595C111.617 22.3111 111.617 21.9371 111.762 21.6513C111.89 21.3998 112.093 21.1951 112.344 21.0671C112.629 20.9214 113.002 20.9214 113.748 20.9214H116.945V40.607C116.945 41.3548 116.945 41.7283 116.8 42.0141C116.672 42.2656 116.469 42.4698 116.218 42.5983C115.934 42.7442 115.561 42.7444 114.816 42.745L112.853 42.7473C112.403 42.7478 112.178 42.7478 111.976 42.6819C111.798 42.6239 111.634 42.5287 111.495 42.4025C111.338 42.2597 111.226 42.064 111.002 41.6717L104.179 29.7192V40.6101C104.179 41.3585 104.179 41.733 104.034 42.0189C103.906 42.2704 103.703 42.4743 103.452 42.6031C103.167 42.7481 102.794 42.7481 102.048 42.7481H98.8514V23.0595Z" fill="white"></path><path fill-rule="evenodd" clip-rule="evenodd" d="M122.694 20.9214H119.498V40.6045C119.498 41.3531 119.498 41.7274 119.643 42.0133C119.771 42.2648 119.975 42.469 120.225 42.5974C120.51 42.7428 120.883 42.7428 121.629 42.7428H124.826V33.8397H125.698C126.071 33.8397 126.257 33.8397 126.43 33.887C126.582 33.9287 126.726 33.9974 126.855 34.09C127 34.1945 127.118 34.3396 127.352 34.6302L133.282 41.9581C133.517 42.2482 133.634 42.3932 133.779 42.4983C133.908 42.5904 134.052 42.6591 134.205 42.7013C134.377 42.7481 134.563 42.7481 134.937 42.7481H139.978L132.136 33.0736C131.746 32.5922 131.551 32.3514 131.477 32.0842C131.411 31.8484 131.411 31.5989 131.477 31.3631C131.552 31.0959 131.747 30.8556 132.137 30.3748L132.137 30.3743L139.808 20.9214H134.821C134.449 20.9214 134.264 20.9214 134.092 20.9683C133.94 21.01 133.797 21.0782 133.668 21.1701C133.523 21.2736 133.406 21.4179 133.171 21.7065L127.373 28.8228C127.138 29.1114 127.02 29.2553 126.876 29.3592C126.747 29.4511 126.604 29.5192 126.452 29.5609C126.28 29.6079 126.094 29.6079 125.723 29.6079H124.826V23.0595C124.826 22.3111 124.826 21.9371 124.681 21.6513C124.553 21.3998 124.349 21.1951 124.099 21.0671C123.814 20.9214 123.441 20.9214 122.694 20.9214Z" fill="white"></path><path fill-rule="evenodd" clip-rule="evenodd" d="M57.2591 42.2411C57.114 41.9553 57.114 41.581 57.114 40.8324V22.8368C57.114 22.0884 57.114 21.7144 57.2591 21.4286C57.3869 21.1771 57.5903 20.9725 57.8409 20.8444C58.126 20.6987 58.4991 20.6987 59.2452 20.6987H66.2162C68.074 20.6987 69.0034 20.6987 69.7655 20.9038C71.8339 21.4596 73.45 23.0804 74.0043 25.1558C74.2082 25.9205 74.2082 26.8527 74.2082 28.7166C74.2082 29.9299 73.6604 30.3749 73.1932 30.7534C72.8462 31.035 72.5434 31.2806 72.5434 31.7794C72.5434 32.2706 72.896 32.5162 73.305 32.8012C73.8694 33.1941 74.5414 33.6619 74.5414 34.953C74.5414 36.8138 74.5414 37.7444 74.3378 38.5077C73.7841 40.5845 72.1677 42.2068 70.0979 42.7628C69.3369 42.9672 68.4097 42.9678 66.5545 42.9681L59.2458 42.9706C58.4994 42.9709 58.1265 42.9709 57.8415 42.8253C57.5908 42.6971 57.3869 42.4927 57.2591 42.2411ZM67.0499 28.002C67.4679 27.3431 67.8303 26.7729 67.8303 26.0439C67.8303 24.5679 66.635 23.3713 65.1609 23.3713C63.6862 23.3713 62.4912 24.6241 62.4912 26.0439C62.4912 26.7729 62.8632 27.3431 63.2928 28.002C63.8808 28.9026 64.5765 29.9693 64.5765 31.8352C64.5765 33.7002 63.8808 34.7671 63.2928 35.6681C62.8632 36.3266 62.4912 36.8969 62.4912 37.6258C62.4912 39.1016 63.6862 40.2984 65.1609 40.2984C66.635 40.2984 67.8303 39.1016 67.8303 37.6258C67.8303 36.8969 67.4679 36.3266 67.0499 35.6681C66.4776 34.7671 65.8005 33.7002 65.8005 31.8352C65.8005 29.9693 66.4776 28.9026 67.0499 28.002Z" fill="white"></path><path fill-rule="evenodd" clip-rule="evenodd" d="M82.6807 38.4051L81.7718 41.2607C81.6017 41.7953 81.517 42.0623 81.3547 42.26C81.2119 42.4349 81.0272 42.5704 80.8176 42.654C80.5808 42.7481 80.3008 42.7481 79.7415 42.7481H75.7227L82.1737 22.3031C82.3427 21.7668 82.4272 21.4986 82.5895 21.3C82.732 21.1246 82.9176 20.9886 83.1268 20.9051C83.3648 20.81 83.6445 20.81 84.2053 20.81H88.6322C89.1929 20.81 89.4732 20.81 89.7106 20.9051C89.9204 20.9886 90.1054 21.1246 90.248 21.3C90.4102 21.4986 90.4947 21.7663 90.6637 22.3027L97.1184 42.7481H93.0974C92.538 42.7481 92.2583 42.7481 92.0212 42.654C91.8122 42.5704 91.6272 42.4349 91.4841 42.26C91.3224 42.0623 91.2371 41.7953 91.067 41.2607L90.1581 38.4051H82.6807ZM83.8143 34.8417H89.0242L86.4187 26.6564L83.8143 34.8417Z" fill="white"></path></g><defs><radialGradient id="paint0_radial_465_628" cx="0" cy="0" r="1" gradientUnits="userSpaceOnUse" gradientTransform="translate(82.0423 31.8346) scale(173.651 361.355)"><stop offset="0.08" stop-color="#0A3D4E"></stop><stop offset="0.548764" stop-color="#07212A"></stop></radialGradient><clipPath id="clip0_465_628"><rect width="178" height="61.962" fill="white" transform="translate(0 0.962036)"></rect></clipPath></defs></svg> 