<?xml version="1.0" encoding="UTF-8"?> <svg xmlns="http://www.w3.org/2000/svg" width="178" height="63" viewBox="0 0 178 63" fill="none"><g clip-path="url(#clip0_465_635)"><path d="M171.643 0.962036H6.35714C2.84619 0.962036 0 3.80823 0 7.31918V56.35C0 59.861 2.8462 62.7072 6.35715 62.7072H171.643C175.154 62.7072 178 59.861 178 56.35V7.31918C178 3.80823 175.154 0.962036 171.643 0.962036Z" fill="url(#paint0_radial_465_635)"></path><path d="M56.4307 20.7681C56.5389 15.2384 53.4213 10.4027 51.776 9.23171C51.776 9.23171 51.6244 9.14496 51.6244 9.3618C51.4512 19.8357 46.0822 22.6547 43.1813 26.4713C36.7079 34.9935 42.0986 44.73 49.1133 46.5731C49.2431 46.5948 49.5462 46.7032 50.174 46.8334C50.4987 46.8984 50.5855 46.6382 50.3472 46.2264C49.5028 44.7734 48.009 42.3014 47.7276 39.1354C47.0564 31.8059 56.3009 27.2086 56.4307 20.7681Z" fill="white"></path><path d="M59.9595 24.3028C59.8948 24.2594 59.8297 24.2594 59.808 24.3461C59.6565 25.6689 58.2928 28.4446 56.4742 31.0252C50.3906 39.7207 53.4431 43.6674 55.8247 46.4213C56.2576 46.9201 56.4742 46.8117 56.7122 46.4647C56.9287 46.118 57.2535 45.6842 58.6606 45.012C58.8772 44.9035 64.2031 42.0845 64.7658 35.6441C65.3719 29.3987 61.3669 25.4521 59.9595 24.3028Z" fill="#008CD6"></path><path d="M91.6114 22.7198V45.6192H86.6967V36.3595H77.2793V45.6192H72.2565V22.7198H77.2793V31.9794H86.6967V22.7198H91.6114Z" fill="white"></path><path d="M114.278 22.7198V27.2519H111.94H107.242V45.6192H102.198V27.2519H97.6082H95.27V22.7198H114.278Z" fill="white"></path><path fill-rule="evenodd" clip-rule="evenodd" d="M132.139 45.6409L126.381 37.6824L120.665 45.6192H115.079L123.566 33.9309L115.556 22.7198H121.141L137.725 45.6409H132.139Z" fill="white"></path><path d="M127.939 27.8375L130.71 31.6975L137.27 22.7198H131.706L127.939 27.8375Z" fill="#008CD6"></path></g><defs><radialGradient id="paint0_radial_465_635" cx="0" cy="0" r="1" gradientUnits="userSpaceOnUse" gradientTransform="translate(82.0423 31.8346) scale(173.651 361.355)"><stop offset="0.08" stop-color="#0A3D4E"></stop><stop offset="0.548764" stop-color="#07212A"></stop></radialGradient><clipPath id="clip0_465_635"><rect width="178" height="61.962" fill="white" transform="translate(0 0.962036)"></rect></clipPath></defs></svg> 