<?xml version="1.0" encoding="UTF-8"?> <svg xmlns="http://www.w3.org/2000/svg" width="178" height="63" viewBox="0 0 178 63" fill="none"><g clip-path="url(#clip0_465_617)"><path d="M171.643 0.962036H6.35714C2.84619 0.962036 0 3.80823 0 7.31918V56.35C0 59.861 2.8462 62.7072 6.35715 62.7072H171.643C175.154 62.7072 178 59.861 178 56.35V7.31918C178 3.80823 175.154 0.962036 171.643 0.962036Z" fill="url(#paint0_radial_465_617)"></path><path d="M72.6992 20.0068H50.0954C49.956 20.0068 49.8222 20.0621 49.7236 20.1608C49.6251 20.2593 49.5696 20.393 49.5696 20.5325V43.1365C49.5696 43.2759 49.6251 43.4094 49.7236 43.508C49.8222 43.6066 49.956 43.662 50.0954 43.662H72.6992C72.8386 43.662 72.9724 43.6066 73.0709 43.508C73.1695 43.4094 73.225 43.2759 73.225 43.1365V20.5325C73.225 20.393 73.1695 20.2593 73.0709 20.1608C72.9724 20.0621 72.8386 20.0068 72.6992 20.0068ZM65.3398 35.2513C65.3398 35.3907 65.2846 35.5245 65.1857 35.623C65.0874 35.7216 64.9536 35.7771 64.8142 35.7771H57.9804C57.8409 35.7771 57.7074 35.7216 57.6086 35.623C57.5103 35.5245 57.4548 35.3907 57.4548 35.2513V28.4175C57.4548 28.2781 57.5103 28.1444 57.6086 28.0458C57.7074 27.9472 57.8409 27.8919 57.9804 27.8919H64.8142C64.9536 27.8919 65.0874 27.9472 65.1857 28.0458C65.2846 28.1444 65.3398 28.2781 65.3398 28.4175V35.2513Z" fill="white"></path><path d="M120.023 27.8927H113.189C112.899 27.8927 112.664 28.128 112.664 28.4183V35.2521C112.664 35.5425 112.899 35.7779 113.189 35.7779H120.023C120.313 35.7779 120.549 35.5425 120.549 35.2521V28.4183C120.549 28.128 120.313 27.8927 120.023 27.8927Z" fill="white"></path><path d="M112.135 20.0074H105.301C105.011 20.0074 104.775 20.2427 104.775 20.5331V27.3668C104.775 27.6571 105.011 27.8925 105.301 27.8925H112.135C112.425 27.8925 112.66 27.6571 112.66 27.3668V20.5331C112.66 20.2427 112.425 20.0074 112.135 20.0074Z" fill="white"></path><path d="M127.905 20.0074H121.071C120.781 20.0074 120.545 20.2427 120.545 20.5331V27.3668C120.545 27.6571 120.781 27.8925 121.071 27.8925H127.905C128.195 27.8925 128.43 27.6571 128.43 27.3668V20.5331C128.43 20.2427 128.195 20.0074 127.905 20.0074Z" fill="white"></path><path d="M112.135 35.7774H105.301C105.011 35.7774 104.775 36.0128 104.775 36.3029V43.1368C104.775 43.4272 105.011 43.6626 105.301 43.6626H112.135C112.425 43.6626 112.66 43.4272 112.66 43.1368V36.3029C112.66 36.0128 112.425 35.7774 112.135 35.7774Z" fill="white"></path><path d="M127.905 35.7774H121.071C120.781 35.7774 120.545 36.0128 120.545 36.3029V43.1368C120.545 43.4272 120.781 43.6626 121.071 43.6626H127.905C128.195 43.6626 128.43 43.4272 128.43 43.1368V36.3029C128.43 36.0128 128.195 35.7774 127.905 35.7774Z" fill="white"></path><path d="M100.297 20.0074H93.4633C93.1732 20.0074 92.9377 20.2427 92.9377 20.5331V27.3668C92.9377 27.6571 93.1732 27.8925 93.4633 27.8925H100.297C100.588 27.8925 100.823 27.6571 100.823 27.3668V20.5331C100.823 20.2427 100.588 20.0074 100.297 20.0074Z" fill="white"></path><path d="M100.297 35.7774H93.4633C93.1732 35.7774 92.9377 36.0128 92.9377 36.3029V43.1368C92.9377 43.4272 93.1732 43.6626 93.4633 43.6626H100.297C100.588 43.6626 100.823 43.4272 100.823 43.1368V36.3029C100.823 36.0128 100.588 35.7774 100.297 35.7774Z" fill="white"></path><path d="M92.9377 28.4116C92.9377 28.2722 92.8822 28.1385 92.7836 28.0399C92.685 27.9413 92.5512 27.886 92.4118 27.886H85.0524V20.5325C85.0524 20.393 84.9969 20.2593 84.8986 20.1608C84.7998 20.0621 84.6663 20.0068 84.5269 20.0068H77.693C77.5536 20.0068 77.4198 20.0621 77.3213 20.1608C77.2227 20.2593 77.1675 20.393 77.1675 20.5325V43.1247C77.1675 43.2641 77.2227 43.3976 77.3213 43.4962C77.4198 43.5947 77.5536 43.6502 77.693 43.6502H84.5269C84.6663 43.6502 84.7998 43.5947 84.8986 43.4962C84.9969 43.3976 85.0524 43.2641 85.0524 43.1247V35.7712H92.4118C92.5512 35.7712 92.685 35.7157 92.7836 35.6171C92.8822 35.5185 92.9377 35.3848 92.9377 35.2453V28.4116Z" fill="white"></path></g><defs><radialGradient id="paint0_radial_465_617" cx="0" cy="0" r="1" gradientUnits="userSpaceOnUse" gradientTransform="translate(82.0423 31.8346) scale(173.651 361.355)"><stop offset="0.08" stop-color="#0A3D4E"></stop><stop offset="0.548764" stop-color="#07212A"></stop></radialGradient><clipPath id="clip0_465_617"><rect width="178" height="61.962" fill="white" transform="translate(0 0.962036)"></rect></clipPath></defs></svg> 