<?xml version="1.0" encoding="UTF-8"?> <svg xmlns="http://www.w3.org/2000/svg" width="178" height="63" viewBox="0 0 178 63" fill="none"><g clip-path="url(#clip0_465_652)"><path d="M171.643 0.962036H6.35714C2.84619 0.962036 0 3.80823 0 7.31918V56.35C0 59.861 2.8462 62.7072 6.35715 62.7072H171.643C175.154 62.7072 178 59.861 178 56.35V7.31918C178 3.80823 175.154 0.962036 171.643 0.962036Z" fill="url(#paint0_radial_465_652)"></path><path d="M45.1949 19.338C43.2299 17.7163 40.5396 16.9149 37.1055 16.9149H28.5581V18.1169H36.9528C39.8718 18.1169 42.5049 18.7084 44.1266 20.1202C45.7483 21.532 46.9501 23.5926 46.9501 26.1491C46.9501 28.0605 46.3159 29.5753 45.265 30.8069C45.7779 30.9874 45.5805 30.9407 46.4879 31.3257C47.5923 29.922 48.1522 28.1684 48.1522 26.0729C48.1522 23.1729 47.1602 20.9406 45.1949 19.338Z" fill="white"></path><path d="M44.4699 21.0551C43.249 20.1202 41.8563 19.3761 37.8876 19.3761H31.2864V20.5399C31.2864 20.5399 34.2437 20.5018 37.7352 20.5399C41.1121 20.5781 42.3522 20.9597 43.4968 21.7992C44.947 22.8676 45.8627 24.2031 45.8627 26.0537C45.8627 27.8472 44.947 29.1064 43.478 30.1937C43.8844 30.5143 43.9632 30.5703 44.4128 30.919C46.0725 29.6786 46.9501 28.057 46.9501 25.9965C46.9501 23.2873 45.5765 21.9327 44.4699 21.0551Z" fill="white"></path><path d="M43.8783 22.6005C42.9627 22.0281 42.1611 21.6466 38.3646 21.6466H33.6138V22.4097H38.2311C41.5888 22.4097 42.8481 23.0012 43.2489 23.2492C44.0118 23.7071 45.0041 24.4702 45.0041 25.9966C45.0041 26.9696 44.4318 28.2097 43.573 28.6867C43.1908 28.9012 42.6535 29.1065 41.9122 29.2604C40.0085 29.6558 41.1813 29.4575 41.3204 29.6462C41.492 29.8792 42.0305 29.8042 42.7405 29.9093C43.2365 29.7623 43.6311 29.5758 44.031 29.3545C45.0996 28.763 45.8245 27.542 45.8245 25.9966C45.8245 24.2413 44.8514 23.211 43.8783 22.6005Z" fill="white"></path><path d="M46.8929 31.0525C44.9279 29.4308 42.2376 28.6295 38.8035 28.6295H33.0799V29.8315H38.6317C41.5509 29.8315 44.1838 30.4419 45.8055 31.8346C47.4272 33.2273 48.6481 35.307 48.6481 37.8635C48.6481 40.344 47.599 42.1564 45.9198 43.5491C44.2409 44.9418 41.2456 45.5524 38.2503 45.5524H28.6152V46.7545H38.3267C41.9326 46.7545 44.7561 45.9721 46.7977 44.4078C48.8391 42.8433 49.8502 40.6301 49.8502 37.7872C49.831 34.9065 48.8582 32.6742 46.8929 31.0525Z" fill="white"></path><path d="M46.168 32.7697C44.9471 31.8538 43.5541 31.0905 39.5857 31.0905H30.6187V32.2546C30.6187 32.2546 35.9418 32.2163 39.433 32.2546C42.8102 32.2926 44.0503 32.6742 45.1949 33.5135C46.6451 34.5821 47.5608 35.9176 47.5608 37.7683C47.5608 39.5616 46.6451 40.8208 45.1758 41.9082C43.6879 43.0148 41.3984 43.0148 40.4633 43.0531C40.12 43.0531 35.5601 43.0531 35.5601 43.0531V44.2169C35.5601 44.2169 37.8305 44.2552 39.2232 44.2169C42.4286 44.1406 44.3365 43.9499 46.1108 42.6335C47.7706 41.3931 48.6482 39.7717 48.6482 37.7109C48.6482 35.0209 47.2938 33.6473 46.168 32.7697Z" fill="white"></path><path d="M32.5264 36.7378H40.9402V36.0891H32.5264V36.7378Z" fill="white"></path><path d="M35.9988 39.0084H40.8831V38.455H35.9988V39.0084Z" fill="white"></path><path d="M28.6152 36.7378H31.0957V36.0891H28.6152V36.7378Z" fill="white"></path><path d="M27.0508 39.0464H34.6252V38.3978H27.0508V39.0464Z" fill="white"></path><path d="M28.9204 22.3525H31.8777V21.8183H28.9204V22.3525Z" fill="white"></path><path d="M26.8792 26.7024H33.6139V26.0919H26.8792V26.7024Z" fill="white"></path><path d="M27.0508 44.1405H34.1672V43.3773H27.0508V44.1405Z" fill="white"></path><path d="M25.2957 46.6782H27.07V45.5524H25.2957V46.6782Z" fill="white"></path><path d="M29.7217 24.7944H40.9022V24.1839H29.7217V24.7944Z" fill="white"></path><path d="M35.3118 26.7024H40.692V26.0919H35.3118V26.7024Z" fill="white"></path><path d="M45.5765 34.4294C44.6606 33.876 43.8593 33.4946 40.0627 33.4946H34.0338V34.2385H39.9481C43.3062 34.2385 44.5843 34.811 44.9659 35.04C45.71 35.4788 46.7211 36.2038 46.7211 37.692C46.7211 38.6459 46.1488 39.8288 45.2903 40.2865C44.5079 40.7064 43.0772 41.0878 40.5779 41.0878H25.0667V41.8319H40.597C43.6303 41.8319 44.6606 41.5077 45.7292 40.9351C46.7974 40.3628 47.5035 39.1991 47.5035 37.692C47.5227 36.032 46.5496 35.04 45.5765 34.4294Z" fill="white"></path><path d="M61.4882 32.7694V39.5807H65.2087C66.8113 39.5807 68.0705 39.2754 68.9481 38.6648C69.8066 38.1117 70.3026 37.1577 70.2837 36.1275C70.2837 33.8951 68.3947 32.7694 64.6361 32.7694H61.4882ZM61.4882 24.661V30.7663H64.2928C65.8002 30.7663 66.9639 30.4802 67.8224 29.8887C68.662 29.3545 69.1579 28.4005 69.1196 27.4083C69.1196 25.5768 67.6317 24.6419 64.6361 24.6419L61.4882 24.661ZM58.7407 41.5841V22.6577H65.3994C67.4219 22.6577 69.0244 23.0584 70.2074 23.8597C71.3903 24.661 71.9817 25.7103 71.9817 26.9886C72.0006 28.0189 71.6192 29.0301 70.9132 29.7933C70.1882 30.5945 69.2151 31.1477 67.9559 31.4913V31.5485C69.5396 31.7011 70.7988 32.178 71.7336 32.9984C72.6684 33.7808 73.1835 34.9446 73.1455 36.1655C73.1455 37.7872 72.4205 39.0847 70.9895 40.0959C69.5587 41.107 67.7461 41.6029 65.552 41.6029H58.7407V41.5841Z" fill="white"></path><path d="M76.198 41.5838H78.8691V28.076H76.198V41.5838ZM77.5527 24.6228C77.1139 24.6418 76.6751 24.4892 76.3315 24.2221C76.0073 23.9931 75.8164 23.6116 75.8355 23.23C75.8355 22.8293 76.0265 22.4477 76.3315 22.2188C76.6751 21.9517 77.1139 21.7991 77.5527 21.8181C78.0107 21.7991 78.4495 21.9517 78.7928 22.2188C79.3463 22.6195 79.4606 23.3826 79.079 23.9359C79.0026 24.0504 78.9072 24.1458 78.7928 24.2221C78.4495 24.5083 78.0107 24.6418 77.5527 24.6228Z" fill="white"></path><path d="M90.6788 41.4506C90.0494 41.7367 89.2098 41.8702 88.1795 41.8702C85.2606 41.8702 83.7915 40.5538 83.7915 37.9018V29.9079H80.9297V28.0571H83.7915V24.7565L86.4626 24.0505V28.0571H90.66V29.9079H86.4626V37.5202C86.4626 38.417 86.6533 39.0656 87.0349 39.4664C87.4165 39.8669 88.046 40.0387 88.9236 40.0387C89.5342 40.0578 90.1448 39.9052 90.66 39.5807L90.6788 41.4506Z" fill="white"></path><path d="M114.967 41.584H112.467V29.9076C112.486 28.782 112.544 27.6373 112.677 26.5116H112.62C112.467 27.084 112.238 27.6564 111.971 28.1906L104.626 41.5649H103.386L96.0594 28.286C95.773 27.7136 95.5632 27.1221 95.4105 26.4925H95.3533C95.4488 27.6182 95.4868 28.763 95.468 29.9076V41.5649H93.0447V24.1649H96.3836L102.985 36.2993C103.366 36.9668 103.71 37.6728 103.977 38.3978H104.073C104.511 37.4439 104.855 36.7381 105.103 36.2609L111.837 24.1649H114.985V41.584" fill="white"></path><path d="M128.551 34.7347L124.525 35.1927C123.285 35.3262 122.35 35.574 121.72 35.9365C121.091 36.2993 120.766 36.9287 120.766 37.8255C120.766 38.4741 121.091 39.0847 121.644 39.4472C122.216 39.8669 122.998 40.0767 123.972 40.0767C125.307 40.0767 126.395 39.6951 127.253 38.9512C128.093 38.2452 128.57 37.1957 128.551 36.0892V34.7347ZM131.222 41.5841H128.551V39.4664H128.493C127.33 41.0881 125.612 41.8894 123.361 41.8894C121.701 41.8894 120.404 41.5269 119.45 40.8208C118.534 40.1722 118.019 39.1036 118.038 37.9782C118.038 35.4597 119.87 33.9906 123.552 33.571L128.551 32.9984C128.551 30.7089 127.406 29.5643 125.116 29.5643C123.17 29.5451 121.282 30.1177 119.679 31.2243V29.011C121.32 28.1715 123.209 27.7518 125.345 27.7518C129.275 27.7518 131.222 29.4308 131.222 32.7886V41.5841Z" fill="white"></path><path d="M143.623 30.2509C143.146 29.9648 142.478 29.8121 141.601 29.8121C140.494 29.7932 139.445 30.2701 138.739 31.1285C137.976 32.0064 137.594 33.189 137.594 34.6964V41.5838H134.923V28.076H137.594V30.8615H137.651C137.995 29.9648 138.605 29.1826 139.407 28.6293C140.17 28.0951 141.086 27.828 142.039 27.828C142.574 27.8089 143.127 27.8662 143.642 28.0188L143.623 30.2509Z" fill="white"></path><path d="M152.934 41.4506C152.304 41.7367 151.464 41.8702 150.434 41.8702C147.515 41.8702 146.046 40.5538 146.046 37.9018V29.9079H143.184V28.0571H146.046V24.7565L148.717 24.0505V28.0571H152.914V29.9079H148.717V37.5202C148.717 38.417 148.908 39.0656 149.29 39.4664C149.671 39.8669 150.301 40.0387 151.178 40.0387C151.789 40.0578 152.399 39.9052 152.914 39.5807L152.934 41.4506Z" fill="white"></path></g><defs><radialGradient id="paint0_radial_465_652" cx="0" cy="0" r="1" gradientUnits="userSpaceOnUse" gradientTransform="translate(82.0423 31.8346) scale(173.651 361.355)"><stop offset="0.08" stop-color="#0A3D4E"></stop><stop offset="0.548764" stop-color="#07212A"></stop></radialGradient><clipPath id="clip0_465_652"><rect width="178" height="61.962" fill="white" transform="translate(0 0.962036)"></rect></clipPath></defs></svg> 