<?xml version="1.0" encoding="UTF-8"?> <svg xmlns="http://www.w3.org/2000/svg" width="178" height="62" viewBox="0 0 178 62" fill="none"><g clip-path="url(#clip0_465_381)"><path d="M171.643 0H6.35714C2.84619 0 0 2.8462 0 6.35715V55.388C0 58.899 2.8462 61.7452 6.35715 61.7452H171.643C175.154 61.7452 178 58.899 178 55.388V6.35714C178 2.84619 175.154 0 171.643 0Z" fill="url(#paint0_radial_465_381)"></path><path d="M29.2103 28.6445L34.485 23.3752L39.7622 28.6473L42.8313 25.5811L34.485 17.2424L26.1412 25.5783L29.2103 28.6445Z" fill="white"></path><path d="M27.0036 30.9571L23.9228 27.8764L20.8419 30.9574L23.9227 34.038L27.0036 30.9571Z" fill="white"></path><path d="M29.2137 33.1004L34.4864 38.37L39.7616 33.0979L42.8313 36.1625L42.8299 36.1641L34.4864 44.5028L26.1455 36.167L26.1412 36.1627L29.2137 33.1004Z" fill="white"></path><path d="M45.0253 34.0394L48.1062 30.9585L45.0253 27.8778L41.9443 30.9588L45.0253 34.0394Z" fill="white"></path><path d="M37.5433 31.01H37.5445L34.4863 27.8127L32.2261 30.1755L31.9662 30.447L31.4305 31.0072L31.4263 31.0117L31.4305 31.0162L34.4863 34.2106L37.5445 31.0134L37.5461 31.0117L37.5433 31.01Z" fill="white"></path><path d="M52.8455 23.9184H59.53C61.1892 23.9184 62.4439 24.3455 63.2942 25.1995C63.9522 25.8609 64.2811 26.6806 64.2811 27.6585V27.6999C64.2811 28.1131 64.2301 28.4783 64.1276 28.7949C64.0254 29.112 63.8888 29.3976 63.7181 29.6525C63.5477 29.9077 63.3494 30.1313 63.1244 30.3239C62.8991 30.5172 62.6569 30.6825 62.3978 30.8199C63.2317 31.1371 63.8882 31.5674 64.3667 32.1116C64.8453 32.656 65.0847 33.4102 65.0847 34.3743V34.4154C65.0847 35.077 64.9579 35.6555 64.7041 36.1515C64.4507 36.6475 64.0871 37.0606 63.6139 37.3916C63.1405 37.7222 62.5715 37.9701 61.9063 38.1354C61.2413 38.3007 60.5042 38.3832 59.6954 38.3832H52.8455V23.9184ZM58.8617 29.7663C59.5627 29.7663 60.119 29.646 60.5307 29.4047C60.9428 29.1636 61.1489 28.7743 61.1489 28.2372V28.1958C61.1489 27.7139 60.9701 27.3455 60.613 27.0904C60.2558 26.8355 59.7407 26.708 59.0679 26.708H55.936V29.7663H58.8617ZM59.7066 35.5938C60.4074 35.5938 60.9563 35.4668 61.3551 35.2116C61.7533 34.9567 61.9528 34.5605 61.9528 34.0231V33.982C61.9528 33.4998 61.7671 33.1176 61.3962 32.8351C61.0253 32.5529 60.4279 32.4118 59.6035 32.4118H55.936V35.5941L59.7066 35.5938Z" fill="white"></path><path d="M69.2572 23.9184H72.317V38.3832H69.2572V23.9184Z" fill="white"></path><path d="M77.0458 23.9184H80.0301L86.9248 32.8247V23.9184H90.1198V38.3832H87.3664L80.2405 29.1878V38.3832H77.0458V23.9184Z" fill="white"></path><path d="M99.6437 23.9184H102.571L108.757 38.3832H105.437L104.118 35.1621H98.0149L96.6954 38.3832H93.4579L99.6437 23.9184ZM102.984 32.3715L101.066 27.7141L99.1491 32.3715H102.984Z" fill="white"></path><path d="M112.095 23.9184H115.08L121.974 32.8247V23.9184H125.169V38.3832H122.416L115.29 29.1878V38.3832H112.095V23.9184Z" fill="white"></path><path d="M136.484 38.6612C135.422 38.6612 134.437 38.4674 133.528 38.0805C132.618 37.6935 131.833 37.1643 131.171 36.4931C130.51 35.8225 129.993 35.0305 129.621 34.1177C129.249 33.2046 129.063 32.2295 129.063 31.192V31.1508C129.063 30.1133 129.249 29.1419 129.621 28.2358C129.993 27.3299 130.51 26.5345 131.171 25.8499C131.833 25.1653 132.625 24.6255 133.548 24.2314C134.471 23.8373 135.492 23.6403 136.608 23.6403C137.282 23.6403 137.899 23.6959 138.457 23.8062C139.015 23.9171 139.521 24.069 139.976 24.2626C140.431 24.4564 140.851 24.6915 141.237 24.968C141.623 25.2448 141.981 25.549 142.312 25.881L140.287 28.2254C139.721 27.7138 139.146 27.3124 138.561 27.0221C137.975 26.7318 137.317 26.5864 136.587 26.5864C135.98 26.5864 135.419 26.7041 134.902 26.9392C134.385 27.1743 133.941 27.4993 133.569 27.9141C133.197 28.329 132.908 28.8098 132.701 29.3559C132.495 29.9026 132.391 30.487 132.391 31.1092V31.1506C132.391 31.773 132.495 32.3611 132.701 32.9139C132.908 33.4674 133.193 33.9512 133.559 34.3661C133.924 34.7813 134.365 35.1099 134.881 35.3519C135.398 35.5944 135.967 35.7149 136.587 35.7149C137.414 35.7149 138.112 35.5628 138.684 35.2586C139.256 34.9548 139.825 34.5396 140.39 34.0138L142.415 36.0678C142.043 36.4689 141.657 36.8288 141.258 37.1465C140.858 37.4648 140.421 37.738 139.945 37.9664C139.47 38.1942 138.949 38.3674 138.385 38.4849C137.82 38.6023 137.186 38.6612 136.484 38.6612Z" fill="white"></path><path d="M146.031 23.9184H157.053V26.7495H149.211V29.6838H156.112V32.5146H149.211V35.5524H157.158V38.3832H146.031V23.9184Z" fill="white"></path></g><defs><radialGradient id="paint0_radial_465_381" cx="0" cy="0" r="1" gradientUnits="userSpaceOnUse" gradientTransform="translate(82.0423 30.8726) scale(173.651 361.355)"><stop offset="0.08" stop-color="#0A3D4E"></stop><stop offset="0.548764" stop-color="#07212A"></stop></radialGradient><clipPath id="clip0_465_381"><rect width="178" height="61.962" fill="white"></rect></clipPath></defs></svg> 