<?xml version="1.0" encoding="UTF-8"?> <svg xmlns="http://www.w3.org/2000/svg" width="178" height="63" viewBox="0 0 178 63" fill="none"><g clip-path="url(#clip0_465_685)"><path d="M171.643 0.924042H6.35714C2.84619 0.924042 0 3.77024 0 7.28119V56.3121C0 59.823 2.8462 62.6692 6.35715 62.6692H171.643C175.154 62.6692 178 59.823 178 56.312V7.28118C178 3.77023 175.154 0.924042 171.643 0.924042Z" fill="url(#paint0_radial_465_685)"></path><mask id="mask0_465_685" style="mask-type:luminance" maskUnits="userSpaceOnUse" x="28" y="13" width="122" height="37"><path d="M149.554 13.6305H28.4462V49.9628H149.554V13.6305Z" fill="white"></path></mask><g mask="url(#mask0_465_685)"><path d="M75.9159 31.2975C76.8271 30.7819 77.5559 30.1394 78.0874 29.3824C78.6915 28.5265 79.0109 27.5034 79.0011 26.4571C79.0011 24.4389 78.244 22.8625 76.7518 21.7737C75.2774 20.6955 73.249 20.1505 70.721 20.1505H61.5805V43.5334H71.0868C73.7487 43.5334 75.8804 42.9168 77.4219 41.699C78.9752 40.4707 79.7643 38.7513 79.7643 36.5869C79.7643 35.2682 79.3926 34.1348 78.6625 33.2172C78.0074 32.3968 77.0845 31.7521 75.9159 31.2975ZM66.527 24.365H70.3236C71.5147 24.365 72.4131 24.5959 72.9975 25.0483C73.5735 25.4937 73.8557 26.082 73.8557 26.8415C73.8557 27.6033 73.5735 28.2198 72.9975 28.6686C72.4131 29.121 71.5147 29.3508 70.3236 29.3508H66.527V24.365ZM73.6746 38.5265C73.0164 39.0527 72.0109 39.3188 70.6883 39.3188H66.527V33.5969H70.6894C72.0109 33.5969 73.0175 33.8549 73.6783 34.3588C74.3331 34.8626 74.6508 35.5273 74.6508 36.3934C74.6508 37.305 74.332 38.0024 73.6746 38.5265ZM86.4486 26.048H81.468V43.5319H86.4475L86.4486 26.048ZM135.634 28.6792C134.836 27.737 133.832 26.991 132.698 26.4993C131.538 25.9871 130.234 25.7269 128.824 25.7269C127.096 25.7269 125.537 26.1183 124.188 26.8895C122.855 27.6461 121.753 28.7507 121.002 30.0845C120.237 31.4322 119.85 32.9933 119.85 34.7269C119.85 36.4612 120.226 38.1255 120.967 39.4934C121.69 40.8448 122.794 41.9564 124.141 42.6929C125.502 43.4418 127.1 43.8215 128.891 43.8215C131.09 43.8215 132.956 43.2706 134.441 42.182C135.87 41.1354 136.852 39.6596 137.388 37.8103H132.374C132.111 38.4398 131.739 38.9752 131.207 39.3526C130.578 39.7982 129.765 40.0229 128.792 40.0229C127.947 40.0229 127.223 39.819 126.64 39.416C126.056 39.0115 125.609 38.4161 125.315 37.6416C125.127 37.1324 125.001 36.6029 124.94 36.0641H137.475L137.5 35.9092C137.723 34.4993 137.666 33.1632 137.33 31.9386C137.009 30.7419 136.43 29.6294 135.634 28.678V28.6792ZM125.02 32.828C125.096 32.4658 125.2 32.1101 125.331 31.764C125.637 30.9787 126.078 30.3763 126.643 29.973C127.207 29.5688 127.907 29.366 128.726 29.366C129.752 29.366 130.595 29.6978 131.23 30.3504C131.833 30.9717 132.174 31.8203 132.247 32.8269L125.02 32.828ZM86.552 20.1505H81.3644V24.365H86.552V20.1505ZM113.821 28.0322C113.26 27.3491 112.558 26.7936 111.764 26.4031C110.835 25.9543 109.747 25.7269 108.531 25.7269C107.044 25.7269 105.71 26.0938 104.569 26.8134C103.428 27.5341 102.523 28.5514 101.882 29.8361C101.242 31.1181 100.917 32.623 100.917 34.3106C100.917 35.9985 101.258 37.4155 101.933 38.7057C102.609 40.0007 103.546 41.0321 104.718 41.7728C105.892 42.5146 107.231 42.892 108.698 42.892C109.806 42.892 110.818 42.6529 111.705 42.1806C112.388 41.8218 112.986 41.3202 113.457 40.7099V42.6132C113.457 43.7933 113.146 44.6994 112.535 45.3029C111.921 45.9065 110.988 46.2112 109.76 46.2112C108.702 46.2112 107.871 45.9721 107.288 45.4998C106.812 45.1131 106.396 44.6067 106.3 43.5334H101.498C101.542 45.0357 101.984 46.0473 102.61 46.9345C103.31 47.927 104.295 48.7041 105.541 49.2409C106.774 49.7707 108.206 50.0402 109.793 50.0402C112.46 50.0402 114.582 49.3722 116.101 48.056C117.63 46.7329 118.403 44.8799 118.403 42.5499V26.048H113.823L113.821 28.0322ZM112.945 36.6336C112.657 37.2532 112.197 37.7776 111.619 38.1455C111.055 38.497 110.373 38.6775 109.594 38.6775C108.465 38.6775 107.59 38.2945 106.914 37.5078C106.238 36.7237 105.897 35.6478 105.897 34.3095C105.897 32.9711 106.237 31.8952 106.912 31.1111C107.581 30.3352 108.483 29.9414 109.593 29.9414C110.704 29.9414 111.685 30.34 112.375 31.1286C113.071 31.9245 113.424 33.0052 113.424 34.3399C113.424 35.2062 113.263 35.9762 112.945 36.6325V36.6336ZM149.556 30.231V26.0492H145.962V20.1505H141.015V26.0492H137.945V30.231H141.015V37.0755C141.015 40.8811 141.768 43.6773 146.455 43.5905L149.398 43.5319V39.614H147.937C145.854 39.614 145.97 38.4035 145.97 36.1542L145.962 30.2321L149.556 30.231ZM99.7071 30.231V26.0492H96.1124V20.1505H91.1659V26.0492H88.0948V30.231H91.1637V37.0755C91.1637 40.8811 91.9162 43.6773 96.6039 43.5905L99.546 43.5319V39.614H98.089C96.0054 39.614 96.1209 38.4035 96.1209 36.1542L96.1124 30.2321L99.7071 30.231ZM40.8629 24.365H48.3327L55.9743 31.9327C56.4717 32.425 56.4739 33.2265 55.9788 33.7211L46.1787 43.539H38.4852L40.8122 41.2841L49.3534 32.8246L40.9203 24.3639" fill="white"></path><path d="M43.9317 32.8046H36.4641L28.8214 25.237C28.7031 25.1199 28.6093 24.9808 28.5448 24.8275C28.4806 24.6742 28.4473 24.5098 28.4468 24.3437C28.4465 24.1776 28.4789 24.013 28.5423 23.8594C28.6059 23.7058 28.6991 23.5661 28.8166 23.4485L38.617 13.6305H46.3116L43.9857 15.8855L35.4423 24.345L43.8764 32.8046" fill="white"></path></g></g><defs><radialGradient id="paint0_radial_465_685" cx="0" cy="0" r="1" gradientUnits="userSpaceOnUse" gradientTransform="translate(82.0423 31.7966) scale(173.651 361.355)"><stop offset="0.08" stop-color="#0A3D4E"></stop><stop offset="0.548764" stop-color="#07212A"></stop></radialGradient><clipPath id="clip0_465_685"><rect width="178" height="61.962" fill="white" transform="translate(0 0.924042)"></rect></clipPath></defs></svg> 