<?xml version="1.0" encoding="UTF-8"?> <svg xmlns="http://www.w3.org/2000/svg" width="178" height="62" viewBox="0 0 178 62" fill="none"><g clip-path="url(#clip0_465_595)"><rect width="178" height="61.962" rx="6.35714" fill="url(#paint0_radial_465_595)"></rect><path d="M171.643 0H6.35714C2.84619 0 0 2.8462 0 6.35715V55.388C0 58.899 2.8462 61.7452 6.35715 61.7452H171.643C175.154 61.7452 178 58.899 178 55.388V6.35714C178 2.84619 175.154 0 171.643 0Z" fill="url(#paint1_radial_465_595)"></path><mask id="mask0_465_595" style="mask-type:luminance" maskUnits="userSpaceOnUse" x="29" y="19" width="120" height="24"><path d="M148.709 19.4659H29.2911V42.2792H148.709V19.4659Z" fill="white"></path></mask><g mask="url(#mask0_465_595)"><path d="M63.9594 35.328L56.34 22.1622C54.6696 19.4181 50.5958 19.3889 48.984 22.279L40.9833 35.9704C39.4889 38.481 41.3351 41.6337 44.3244 41.6337H60.3549C63.3733 41.6337 65.6298 38.3934 63.9594 35.328Z" fill="#3156AA"></path><path d="M52.9707 36.3503L52.5018 35.533C52.0624 34.7739 51.0952 33.139 51.0952 33.139L44.6478 21.9875C42.9774 19.5061 39.0211 19.3017 37.3506 22.4254L29.8482 35.3578C28.2949 38.0726 30.1414 41.605 33.5115 41.6343H49.4541H56.253H60.2974C56.1651 41.6633 54.8465 39.5323 52.9707 36.3503Z" fill="#1972E2"></path><path d="M52.971 36.35L52.5021 35.5327C52.0624 34.7737 51.0955 33.139 51.0955 33.139L46.9339 25.8408L40.9554 35.9999C39.4608 38.5103 41.3072 41.6633 44.2963 41.6633H49.4251H56.224H60.2975C56.1361 41.634 54.8468 39.5321 52.971 36.35Z" fill="url(#paint2_linear_465_595)"></path><path d="M131.01 31.5266C131.045 36.6545 135.232 40.6885 140.38 40.6201C143.572 40.6201 146.042 39.5262 147.896 37.3724L146.729 36.381C145.974 35.7656 144.91 35.7315 144.155 36.3126C143.125 37.0649 141.856 37.4749 140.346 37.4749C136.776 37.4749 134.546 35.1846 134.546 31.4581C134.546 27.766 136.707 25.5781 140.346 25.5781C141.821 25.5781 143.125 25.9542 144.155 26.7405C144.944 27.3216 146.008 27.2874 146.729 26.6721L147.896 25.6807C146.042 23.4927 143.469 22.3646 140.208 22.3646C137.428 22.3646 135.094 23.2192 133.481 24.7918C131.869 26.3986 131.01 28.7234 131.01 31.5266Z" fill="white"></path><path d="M82.8598 38.535L87.7331 30.0567V40.3809H91.4395V22.5698H89.1402C88.4194 22.5698 87.7331 22.9459 87.3897 23.5954L81.5555 34.1932L75.7212 23.5954C75.3778 22.9459 74.6915 22.5698 73.9707 22.5698H71.6714V40.3809H75.3778V30.0567L80.2514 38.535H82.8598Z" fill="white"></path><path d="M94.4934 22.6036V40.4147L109.354 40.3807V39.2524C109.354 38.3638 108.633 37.6456 107.741 37.6456H98.1999V32.8596H107.741V30.1248H98.1999V25.3386H107.741C108.633 25.3386 109.354 24.6206 109.354 23.7318V22.6036H94.4934Z" fill="white"></path><path d="M127.202 22.6036H130.702L123.633 31.5604L130.736 40.4491H127.237C126.584 40.4491 126 40.1413 125.588 39.6627L121.334 34.3639L117.112 39.6287C116.7 40.1413 116.117 40.4147 115.465 40.4147H111.964L119.068 31.5263L111.964 22.6378H115.465C116.117 22.6378 116.7 22.9113 117.112 23.4241L121.334 28.689L125.555 23.3899C125.966 22.8771 126.549 22.6036 127.202 22.6036Z" fill="white"></path></g></g><defs><radialGradient id="paint0_radial_465_595" cx="0" cy="0" r="1" gradientUnits="userSpaceOnUse" gradientTransform="translate(82.0423 30.981) scale(173.651 362.624)"><stop offset="0.08" stop-color="#0A3D4E"></stop><stop offset="0.548764" stop-color="#07212A"></stop></radialGradient><radialGradient id="paint1_radial_465_595" cx="0" cy="0" r="1" gradientUnits="userSpaceOnUse" gradientTransform="translate(82.0423 30.8726) scale(173.651 361.355)"><stop offset="0.08" stop-color="#0A3D4E"></stop><stop offset="0.548764" stop-color="#07212A"></stop></radialGradient><linearGradient id="paint2_linear_465_595" x1="38.8276" y1="31.3838" x2="57.3314" y2="38.2483" gradientUnits="userSpaceOnUse"><stop stop-color="#264CA2" stop-opacity="0"></stop><stop offset="1" stop-color="#234588"></stop></linearGradient><clipPath id="clip0_465_595"><rect width="178" height="61.962" rx="6.35714" fill="white"></rect></clipPath></defs></svg> 