<?xml version="1.0" encoding="UTF-8"?> <svg xmlns="http://www.w3.org/2000/svg" width="178" height="63" viewBox="0 0 178 63" fill="none"><g clip-path="url(#clip0_465_693)"><path d="M171.643 0.924042H6.35714C2.84619 0.924042 0 3.77024 0 7.28119V56.3121C0 59.823 2.8462 62.6692 6.35715 62.6692H171.643C175.154 62.6692 178 59.823 178 56.312V7.28118C178 3.77023 175.154 0.924042 171.643 0.924042Z" fill="url(#paint0_radial_465_693)"></path><mask id="mask0_465_693" style="mask-type:luminance" maskUnits="userSpaceOnUse" x="17" y="17" width="144" height="30"><path d="M160.256 17.5736H17.7438V46.0198H160.256V17.5736Z" fill="white"></path></mask><g mask="url(#mask0_465_693)"><path fill-rule="evenodd" clip-rule="evenodd" d="M54.5086 38.1689C51.3936 38.1689 49.0917 35.7459 49.0917 32.77C49.0917 29.7938 51.3936 27.3117 54.5277 27.3117C56.5128 27.3117 57.7427 28.0412 58.7152 29.1055L57.2273 30.701C56.4925 29.933 55.7191 29.4007 54.5086 29.4007C52.7618 29.4007 51.4921 30.8985 51.4921 32.7306C51.4921 34.6021 52.7821 36.0999 54.6271 36.0999C55.7588 36.0999 56.5919 35.5679 57.3461 34.7998L58.7944 36.2179C57.763 37.3605 56.5525 38.1689 54.5086 38.1689Z" fill="white"></path><path fill-rule="evenodd" clip-rule="evenodd" d="M63.3505 38.1689H60.9501V27.3317H63.3505V29.8735C64.0051 28.3164 65.2159 27.2522 67.0609 27.3317V29.8541H66.9221C64.819 29.8541 63.3505 31.2139 63.3505 33.9723V38.1689Z" fill="white"></path><path fill-rule="evenodd" clip-rule="evenodd" d="M79.6289 27.3117L74.3235 41.0864H71.8892L73.0488 38.1722L68.5033 27.3117H71.0629L74.1641 35.3335L77.1416 27.3117H79.6289Z" fill="white"></path><path fill-rule="evenodd" clip-rule="evenodd" d="M86.7128 29.3807C85.0858 29.3807 83.657 30.701 83.657 32.7306C83.657 34.7604 85.0858 36.0799 86.7128 36.0799C88.3599 36.0799 89.7093 34.7998 89.7093 32.7306C89.7093 30.6807 88.3396 29.3807 86.7128 29.3807ZM87.268 38.1489C85.5426 38.1489 84.4507 37.282 83.7159 36.3165V41.0856H81.3157V27.3117H83.7159V29.2618C84.4901 28.1784 85.582 27.3117 87.268 27.3117C89.7484 27.3117 92.1497 29.2618 92.1497 32.7306C92.1497 36.1985 89.7687 38.1489 87.268 38.1489Z" fill="white"></path><path fill-rule="evenodd" clip-rule="evenodd" d="M97.4119 29.5781V34.6798C97.4119 35.6053 97.8854 35.9793 98.701 35.9793H99.6428V38.1086H98.0006C96.2532 38.1035 95.0115 37.3321 95.0115 35.0539V29.5781H93.6787V27.5308H95.0115V24.6728H97.4119V27.5308H99.6428V29.5781H97.4119Z" fill="white"></path><path fill-rule="evenodd" clip-rule="evenodd" d="M107.237 29.4004C105.312 29.4004 104.082 30.8982 104.082 32.7303C104.082 34.5827 105.411 36.0996 107.277 36.0996C109.221 36.0996 110.452 34.6029 110.452 32.7697C110.452 30.9173 109.122 29.4004 107.237 29.4004ZM107.237 38.1686C104.043 38.1686 101.681 35.7456 101.681 32.7697C101.681 29.7744 104.062 27.3114 107.277 27.3114C110.491 27.3114 112.853 29.7353 112.853 32.7303C112.853 35.7064 110.471 38.1686 107.237 38.1686Z" fill="white"></path><path fill-rule="evenodd" clip-rule="evenodd" d="M117.247 35.9822V37.1834C117.247 37.2346 117.221 37.2805 117.177 37.3039L116.13 37.9047C116.085 37.9297 116.032 37.9297 115.991 37.9047L114.941 37.3039C114.899 37.2805 114.871 37.2346 114.871 37.1834V35.9822C114.871 35.9334 114.899 35.8875 114.941 35.8616L115.991 35.2609C116.032 35.2358 116.085 35.2358 116.13 35.2609L117.177 35.8616C117.221 35.8875 117.247 35.9334 117.247 35.9822Z" fill="white"></path><path fill-rule="evenodd" clip-rule="evenodd" d="M135.806 29.4004C133.881 29.4004 132.651 30.8982 132.651 32.7303C132.651 34.5827 133.981 36.0996 135.846 36.0996C137.79 36.0996 139.019 34.6029 139.019 32.7697C139.019 30.9173 137.691 29.4004 135.806 29.4004ZM135.806 38.1686C132.611 38.1686 130.25 35.7456 130.25 32.7697C130.25 29.7744 132.631 27.3114 135.846 27.3114C139.06 27.3114 141.422 29.7353 141.422 32.7303C141.422 35.7064 139.04 38.1686 135.806 38.1686Z" fill="white"></path><path fill-rule="evenodd" clip-rule="evenodd" d="M124.557 38.1567C121.442 38.0973 119.188 35.6301 119.246 32.6551C119.303 29.6806 121.652 27.2426 124.786 27.302C126.77 27.3397 127.986 28.0918 128.938 29.1745L127.419 30.7416C126.7 29.9592 125.937 29.4131 124.727 29.3894C122.98 29.3562 121.681 30.8295 121.646 32.6616C121.61 34.5334 122.871 36.0551 124.716 36.0903C125.847 36.112 126.69 35.5957 127.459 34.8421L128.88 36.2877C127.827 37.4104 126.601 38.1953 124.557 38.1567Z" fill="white"></path><path fill-rule="evenodd" clip-rule="evenodd" d="M155.693 27.3117C157.975 27.3117 159.363 28.7498 159.363 31.2916V38.1689H156.964V32.0211C156.964 30.3664 156.189 29.4795 154.84 29.4795C153.531 29.4795 152.597 30.3856 152.597 32.0605V38.1689H150.197V32.0011C150.197 30.3856 149.403 29.4795 148.073 29.4795C146.744 29.4795 145.831 30.465 145.831 32.0805V38.1689H143.43V27.3117H145.831V29.1055C146.506 28.1793 147.419 27.3117 149.026 27.3117C150.534 27.3117 151.585 28.0412 152.14 29.1438C152.995 28.0412 154.105 27.3117 155.693 27.3117Z" fill="white"></path><path fill-rule="evenodd" clip-rule="evenodd" d="M17.7438 25.1832V38.7282L29.4962 45.5018L41.2459 38.7282V25.1832L29.4962 18.4103L17.7438 25.1832ZM18.7782 38.1345V25.7796L29.4962 19.5993L40.2148 25.7796V38.1345L29.4962 44.3121L18.7782 38.1345Z" fill="#FEFEFE"></path><path fill-rule="evenodd" clip-rule="evenodd" d="M34.1008 24.258H24.8665L23.796 28.9579H35.2139L34.1008 24.258Z" fill="#FEFEFE"></path><path fill-rule="evenodd" clip-rule="evenodd" d="M26.5048 35.4259V32.303L23.7696 30.5672L20.6741 32.8641L24.8936 40.1888H26.5789L28.5724 38.3367V37.4056L26.5048 35.4259Z" fill="#FEFEFE"></path><path fill-rule="evenodd" clip-rule="evenodd" d="M32.4949 29.6671H26.5151L27.5225 32.2929L27.2157 35.2349H29.4946L31.7956 35.2248L31.5086 32.2929L32.4949 29.6671Z" fill="#FEFEFE"></path><path fill-rule="evenodd" clip-rule="evenodd" d="M35.23 30.5458L32.5265 32.3027V35.4259L30.4595 37.4056V38.3364L32.4524 40.1683H34.1164L38.3154 32.8638L35.23 30.5458Z" fill="#FEFEFE"></path></g></g><defs><radialGradient id="paint0_radial_465_693" cx="0" cy="0" r="1" gradientUnits="userSpaceOnUse" gradientTransform="translate(82.0423 31.7966) scale(173.651 361.355)"><stop offset="0.08" stop-color="#0A3D4E"></stop><stop offset="0.548764" stop-color="#07212A"></stop></radialGradient><clipPath id="clip0_465_693"><rect width="178" height="61.962" fill="white" transform="translate(0 0.924042)"></rect></clipPath></defs></svg> 