<?xml version="1.0" encoding="UTF-8"?> <svg xmlns="http://www.w3.org/2000/svg" width="178" height="62" viewBox="0 0 178 62" fill="none"><g clip-path="url(#clip0_465_588)"><path d="M171.643 0H6.35714C2.84619 0 0 2.8462 0 6.35715V55.388C0 58.899 2.8462 61.7452 6.35715 61.7452H171.643C175.154 61.7452 178 58.899 178 55.388V6.35714C178 2.84619 175.154 0 171.643 0Z" fill="url(#paint0_radial_465_588)"></path><path d="M107.819 35.4735V12.8473H112.389V35.4735H107.819Z" fill="#EBAA3B"></path><path d="M54.5661 42.1925H44.771V19.5697H54.1732C58.7401 19.5697 61.4055 22.0501 61.4055 25.9257C61.4055 28.4378 59.6957 30.055 58.5099 30.5974C59.9224 31.2317 61.7311 32.6622 61.7311 35.6817C61.7311 39.9024 58.7401 42.1925 54.5661 42.1925ZM53.8121 23.5122H49.3376V28.7231H53.8121C55.7521 28.7231 56.8389 27.6732 56.8389 26.1159C56.8389 24.5586 55.7521 23.5122 53.8121 23.5122ZM54.1061 32.6937H49.3376V38.2537H54.1025C56.1768 38.2537 57.1611 36.9818 57.1611 35.4561C57.1611 33.9304 56.1734 32.6937 54.1061 32.6937Z" fill="white"></path><path d="M75.6683 32.9123V42.1925H71.1299V32.9123L64.0961 19.5697H69.0626L73.4309 28.6879L77.7393 19.5697H82.7024L75.6683 32.9123Z" fill="white"></path><path d="M95.6553 42.1925H85.8602V19.5697H95.2624C99.829 19.5697 102.495 22.0501 102.495 25.9257C102.495 28.4378 100.785 30.055 99.5989 30.5974C101.012 31.2317 102.82 32.6622 102.82 35.6817C102.82 39.9024 99.8327 42.1925 95.6553 42.1925ZM94.9013 23.5122H90.4302V28.7231H94.9013C96.8413 28.7231 97.9282 27.6732 97.9282 26.1159C97.9245 24.5586 96.8377 23.5122 94.9013 23.5122ZM95.1951 32.6937H90.4302V38.2537H95.1951C97.2697 38.2537 98.2538 36.9818 98.2538 35.4561C98.2538 33.9304 97.266 32.6937 95.1951 32.6937Z" fill="white"></path><path d="M127.116 23.5122V42.1962H122.546V23.5122H116.432V19.5697H133.229V23.5122H127.116Z" fill="white"></path></g><defs><radialGradient id="paint0_radial_465_588" cx="0" cy="0" r="1" gradientUnits="userSpaceOnUse" gradientTransform="translate(82.0423 30.8726) scale(173.651 361.355)"><stop offset="0.08" stop-color="#0A3D4E"></stop><stop offset="0.548764" stop-color="#07212A"></stop></radialGradient><clipPath id="clip0_465_588"><rect width="178" height="61.962" fill="white"></rect></clipPath></defs></svg> 