<?xml version="1.0" encoding="UTF-8"?> <svg xmlns="http://www.w3.org/2000/svg" width="178" height="62" viewBox="0 0 178 62" fill="none"><g clip-path="url(#clip0_465_608)"><path d="M171.643 0H6.35714C2.84619 0 0 2.8462 0 6.35715V55.388C0 58.899 2.8462 61.7452 6.35715 61.7452H171.643C175.154 61.7452 178 58.899 178 55.388V6.35714C178 2.84619 175.154 0 171.643 0Z" fill="url(#paint0_radial_465_608)"></path><mask id="mask0_465_608" style="mask-type:luminance" maskUnits="userSpaceOnUse" x="23" y="23" width="132" height="16"><path d="M154.905 23.1273H23.095V38.6179H154.905V23.1273Z" fill="white"></path></mask><g mask="url(#mask0_465_608)"><path d="M140.004 36.3185C140.712 37.0677 144.595 40.6584 150.69 36.4911C155.098 33.0565 154.988 25.6098 154.565 23.3611C154.417 23.6884 149.297 34.9066 140.004 36.3185ZM154.564 23.3592C154.51 23.3369 148.839 22.5633 143.233 26.1762C139.752 28.4197 139.292 31.7032 139.451 33.8913C147.6 32.9787 154.379 23.6165 154.564 23.3592Z" fill="#97C554"></path><path d="M154.564 23.3592C154.51 23.3369 148.839 22.5633 143.233 26.1762C139.752 28.4197 139.292 31.7032 139.451 33.8913C147.6 32.9787 154.379 23.6165 154.564 23.3592Z" fill="#709B30"></path><path d="M32.3335 35.8805H25.9852V32.4974H32.3335C33.9203 32.4974 34.7311 33.2567 34.7311 34.2408C34.7311 35.1899 33.9377 35.8805 32.3335 35.8805ZM32.1265 30.685H25.9852V27.8369H32.1265C33.7997 27.8369 34.4551 28.4237 34.4551 29.2351C34.4551 29.9772 33.6961 30.685 32.1265 30.685ZM33.7479 31.548C36.4216 31.4618 37.3876 30.1327 37.3876 28.6828C37.3876 27.0947 36.1284 25.7829 33.0579 25.7829H23.2424V37.8999H33.3511C35.8698 37.8999 37.7501 36.8471 37.7501 34.5858C37.7501 32.9807 36.6976 31.617 33.7479 31.548ZM40.9896 25.7829V37.8999H43.7322V25.7829H40.9896ZM54.8553 28.0786H60.8929V25.7829H46.0747V28.0786H52.1123V37.8999H54.8553V28.0786ZM63.2353 25.7829V37.8999H65.978V33.1705H72.4125V31.1855H65.978V27.8715H76.4318V25.7829H63.2353ZM78.6535 25.7829V37.8999H81.3964V25.7829H78.6535ZM87.8272 28.7346L96.9182 37.8999H100.023V25.7829H97.3147V34.5168L88.5863 25.7829H85.1017V37.8999H87.8272V28.7346ZM103.728 25.7829V37.8999H117.149V35.8634H106.471V32.5318H112.871V30.6504H106.471V27.8715H117.149V25.7829H103.728ZM135.517 25.7829H131.895L127.272 30.0463L122.683 25.7829H119.009L125.46 31.7553L118.767 37.8999H122.39L127.237 33.4294L132.067 37.8999H135.759L129.048 31.7378L135.517 25.7829Z" fill="#DDDDDD"></path></g></g><defs><radialGradient id="paint0_radial_465_608" cx="0" cy="0" r="1" gradientUnits="userSpaceOnUse" gradientTransform="translate(82.0423 30.8726) scale(173.651 361.355)"><stop offset="0.08" stop-color="#0A3D4E"></stop><stop offset="0.548764" stop-color="#07212A"></stop></radialGradient><clipPath id="clip0_465_608"><rect width="178" height="61.962" fill="white"></rect></clipPath></defs></svg> 