<?xml version="1.0" encoding="UTF-8"?> <svg xmlns="http://www.w3.org/2000/svg" width="178" height="62" viewBox="0 0 178 62" fill="none"><g clip-path="url(#clip0_465_1038)"><path d="M171.643 0H6.35714C2.84619 0 0 2.8462 0 6.35715V55.388C0 58.899 2.8462 61.7452 6.35715 61.7452H171.643C175.154 61.7452 178 58.899 178 55.388V6.35714C178 2.84619 175.154 0 171.643 0Z" fill="url(#paint0_radial_465_1038)"></path><mask id="mask0_465_1038" style="mask-type:luminance" maskUnits="userSpaceOnUse" x="21" y="13" width="136" height="36"><path d="M156.156 13.3965H21.8445V48.3487H156.156V13.3965Z" fill="white"></path></mask><g mask="url(#mask0_465_1038)"><path d="M152.37 26.938V20.6911H156.153V35.6774H152.37V33.6411C148.824 37.9588 139.017 36.5674 139.51 29.9741C139.984 23.6427 148.537 23.4231 152.37 26.938ZM152.37 30.6867C152.37 28.1209 149.833 27.0845 147.774 27.0676C145.797 27.0507 143.704 27.9491 143.603 30.1684C143.49 32.6328 145.909 33.72 147.63 33.72C149.351 33.72 152.37 33.2525 152.37 30.6867Z" fill="white"></path><path d="M86.9721 25.0834H83.3417L80.8491 32.8751L77.9257 25.0834H73.4926C72.6082 27.6379 71.7576 30.1431 70.8113 32.8751C69.8199 30.0642 68.9299 27.5337 68.0652 25.0834H64.0011C65.4516 28.6856 66.8598 32.1667 68.2877 35.7127C69.7833 35.7098 71.2732 35.7127 72.6561 35.7127C73.6137 33.0793 74.5431 30.4895 75.5655 27.6816C76.616 30.543 77.5708 33.1412 78.5143 35.7127H82.9502C84.2711 32.2005 85.5949 28.7447 86.9721 25.0834Z" fill="white"></path><path d="M108.174 33.827V39.6458H104.465V25.1102L108.174 25.0454C108.174 25.0454 108.174 25.8227 108.174 26.7071C109.014 26.0706 110.974 25.2647 111.923 25.0341C113.545 24.6454 115.258 24.6116 116.888 24.9637C119.725 25.5805 121.155 27.721 121.057 30.5881C120.823 37.2378 112.148 37.0857 108.174 33.827ZM116.976 30.2107C116.905 27.7745 114.424 26.8338 112.275 27.0225C110.371 27.1887 108.011 28.3124 108.174 30.5036C108.493 34.7604 117.11 34.8145 116.976 30.2107Z" fill="white"></path><path d="M134.291 26.7437C134.291 26.0706 134.291 25.0848 134.291 25.0848H138.077V35.6802H134.291V33.4046C131.21 37.3842 122.842 37.0603 122.006 31.3147C121.003 24.4229 130.072 23.1865 134.291 26.7409C134.291 26.7409 134.291 27.4168 134.291 26.7437ZM129.829 33.7031C132.147 33.7031 134.342 32.6751 134.291 30.3008C134.246 28.211 131.676 27.0422 129.829 27.0732C128.035 27.1042 125.631 28.0195 125.631 30.3008C125.631 32.5821 127.511 33.7031 129.829 33.7031Z" fill="white"></path><path d="M90.8532 30.9711C91.1489 34.2974 97.3141 35.055 98.8942 32.4301H102.874C102.113 35.3648 98.8942 36.2317 95.1934 36.2317C90.9377 36.2548 86.989 35.2184 86.989 29.8727C86.989 25.9241 91.27 24.6848 95.1934 24.6848C99.173 24.7017 102.902 26.0706 102.902 30.9711H90.8532ZM99.0181 29.2278C98.4802 25.7044 91.4503 25.6987 90.9095 29.2278H99.0181Z" fill="white"></path><path d="M56.5103 26.094L44.362 13.9456C43.592 13.1757 42.3437 13.1757 41.5738 13.9456C40.8039 14.7156 40.8039 15.9639 41.5738 16.7338L53.7222 28.8822C54.4921 29.6521 55.7404 29.6521 56.5103 28.8822C57.2803 28.1122 57.2803 26.8639 56.5103 26.094Z" fill="#6AC2EA"></path><path d="M22.6752 26.094L34.8236 13.9456C35.5935 13.1757 36.8418 13.1757 37.6117 13.9456C38.3817 14.7156 38.3817 15.9639 37.6117 16.7338L25.4634 28.8822C24.6934 29.6521 23.4451 29.6521 22.6752 28.8822C21.9053 28.1122 21.9053 26.8639 22.6752 26.094Z" fill="#6AC2EA"></path><path d="M37.6118 44.9642L25.4634 32.8159C24.6935 32.0459 23.4452 32.0459 22.6753 32.8159C21.9053 33.5858 21.9053 34.8341 22.6753 35.604L34.8236 47.7524C35.5935 48.5223 36.8418 48.5223 37.6118 47.7524C38.3817 46.9824 38.3817 45.7341 37.6118 44.9642Z" fill="#6AC2EA"></path><path d="M41.5362 44.9642L53.6845 32.8159C54.4545 32.0459 55.7028 32.0459 56.4727 32.8159C57.2426 33.5858 57.2426 34.8341 56.4727 35.604L44.3243 47.7524C43.5544 48.5223 42.3061 48.5223 41.5362 47.7524C40.7662 46.9824 40.7662 45.7342 41.5362 44.9642Z" fill="#6AC2EA"></path></g></g><defs><radialGradient id="paint0_radial_465_1038" cx="0" cy="0" r="1" gradientUnits="userSpaceOnUse" gradientTransform="translate(82.0423 30.8726) scale(173.651 361.355)"><stop offset="0.08" stop-color="#0A3D4E"></stop><stop offset="0.548764" stop-color="#07212A"></stop></radialGradient><clipPath id="clip0_465_1038"><rect width="178" height="61.962" fill="white"></rect></clipPath></defs></svg> 