<?xml version="1.0" encoding="UTF-8"?> <svg xmlns="http://www.w3.org/2000/svg" width="178" height="63" viewBox="0 0 178 63" fill="none"><g clip-path="url(#clip0_465_777)"><path d="M171.643 0.962021H6.35714C2.84619 0.962021 0 3.80822 0 7.31917V56.35C0 59.861 2.8462 62.7072 6.35715 62.7072H171.643C175.154 62.7072 178 59.861 178 56.35V7.31916C178 3.80821 175.154 0.962021 171.643 0.962021Z" fill="url(#paint0_radial_465_777)"></path><path d="M61.5483 41.7443H63.868V32.4951H75.7303V41.7443H78.0502V21.1905H75.7303V30.3225H63.868V21.1905H61.5483V41.7443Z" fill="white"></path><path d="M85.6924 41.7443H100.697V39.6303H88.012V32.4365H99.2285V30.3225H88.012V23.3046H100.55V21.1905H85.6924V41.7443Z" fill="white"></path><path d="M107.198 41.7443H121.086V39.601H109.518V21.1905H107.198V41.7443Z" fill="white"></path><path d="M127.418 41.7443H129.738V21.1905H127.418V41.7443Z" fill="white"></path><path d="M151.628 21.1905L145.345 29.6471L139.061 21.1905H136.33L143.906 31.2617L136.037 41.7443H138.709L145.286 32.877L151.863 41.7443H154.623L146.754 31.2617L154.33 21.1905H151.628Z" fill="white"></path><path fill-rule="evenodd" clip-rule="evenodd" d="M46.7199 25.228C46.7199 25.6334 47.0486 25.962 47.4542 25.962C47.8595 25.962 48.1882 25.6334 48.1882 25.228V21.7045C48.1882 21.2991 47.8595 20.9704 47.4542 20.9704C47.0486 20.9704 46.7199 21.2991 46.7199 21.7045V25.228ZM40.2601 29.0451C40.2601 29.4505 40.5888 29.7791 40.9944 29.7791C41.3997 29.7791 41.7283 29.4505 41.7283 29.0451V26.4025C41.7283 25.9971 41.3997 25.6685 40.9944 25.6685C40.5888 25.6685 40.2601 25.9971 40.2601 26.4025V29.0451ZM32.0386 39.9094C32.0386 40.3147 32.3673 40.6433 32.7726 40.6433C33.1781 40.6433 33.5068 40.3147 33.5068 39.9094V36.3857C33.5068 35.9804 33.1781 35.6517 32.7726 35.6517C32.3673 35.6517 32.0386 35.9804 32.0386 36.3857V39.9094ZM25.7257 42.1116C25.3202 42.1116 24.9916 41.7829 24.9916 41.3776V39.3221C24.9916 38.9166 25.3202 38.5882 25.7257 38.5882C26.1311 38.5882 26.4597 38.9166 26.4597 39.3221V41.3776C26.4597 41.7829 26.1311 42.1116 25.7257 42.1116ZM29.5429 42.6988C29.1374 42.6988 28.8087 42.3701 28.8087 41.9648V39.3221C28.8087 38.9166 29.1374 38.5882 29.5429 38.5882C29.9482 38.5882 30.2769 38.9166 30.2769 39.3221V41.9648C30.2769 42.3701 29.9482 42.6988 29.5429 42.6988ZM35.2685 37.2667C35.2685 37.672 35.5972 38.0007 36.0025 38.0007C36.4081 38.0007 36.7367 37.672 36.7367 37.2667V35.2112C36.7367 34.806 36.4081 34.4773 36.0025 34.4773C35.5972 34.4773 35.2685 34.806 35.2685 35.2112V37.2667ZM44.2243 27.4302C43.8187 27.4302 43.49 27.1015 43.49 26.6961V24.0535C43.49 23.6481 43.8187 23.3195 44.2243 23.3195C44.6296 23.3195 44.9582 23.6481 44.9582 24.0535V26.6961C44.9582 27.1015 44.6296 27.4302 44.2243 27.4302ZM49.9499 23.4662C49.9499 23.8716 50.2785 24.2004 50.6841 24.2004C51.0894 24.2004 51.4181 23.8716 51.4181 23.4662V21.7045C51.4181 21.2991 51.0894 20.9704 50.6841 20.9704C50.2785 20.9704 49.9499 21.2991 49.9499 21.7045V23.4662Z" fill="url(#paint1_linear_465_777)"></path><path fill-rule="evenodd" clip-rule="evenodd" d="M23.3799 23.2845C23.4329 24.0935 24.1318 24.7065 24.941 24.6534C27.477 24.4871 33.6685 25.7783 36.8755 32.6204L36.9023 32.6773L36.9336 32.7316C38.3688 35.216 39.986 37.4624 42.2344 39.1396C44.5084 40.836 47.3221 41.873 51.0251 42.1242C51.834 42.1789 52.5345 41.5674 52.5891 40.7585C52.644 39.9497 52.0329 39.2495 51.2237 39.1946C47.9972 38.9757 45.746 38.0959 43.9899 36.7862C42.2217 35.4667 40.8513 33.6349 39.5067 31.3158C35.6586 23.1744 28.175 21.4988 24.7488 21.7235C23.9397 21.7765 23.3268 22.4754 23.3799 23.2845Z" fill="#5BB1E9"></path></g><defs><radialGradient id="paint0_radial_465_777" cx="0" cy="0" r="1" gradientUnits="userSpaceOnUse" gradientTransform="translate(82.0423 31.8346) scale(173.651 361.355)"><stop offset="0.08" stop-color="#0A3D4E"></stop><stop offset="0.548764" stop-color="#07212A"></stop></radialGradient><linearGradient id="paint1_linear_465_777" x1="22.2029" y1="17.0064" x2="49.9625" y2="28.462" gradientUnits="userSpaceOnUse"><stop offset="0.015625" stop-color="#6EE5B3"></stop><stop offset="0.430034" stop-color="#68D8E2"></stop><stop offset="1" stop-color="#4475F6"></stop></linearGradient><clipPath id="clip0_465_777"><rect width="178" height="61.962" fill="white" transform="translate(0 0.962021)"></rect></clipPath></defs></svg> 