<?xml version="1.0" encoding="UTF-8"?> <svg xmlns="http://www.w3.org/2000/svg" width="178" height="62" viewBox="0 0 178 62" fill="none"><g clip-path="url(#clip0_465_1027)"><path d="M171.643 0H6.35714C2.84619 0 0 2.8462 0 6.35715V55.388C0 58.899 2.8462 61.7452 6.35715 61.7452H171.643C175.154 61.7452 178 58.899 178 55.388V6.35714C178 2.84619 175.154 0 171.643 0Z" fill="url(#paint0_radial_465_1027)"></path><mask id="mask0_465_1027" style="mask-type:luminance" maskUnits="userSpaceOnUse" x="30" y="18" width="118" height="26"><path d="M147.582 18.0577H30.4177V43.6875H147.582V18.0577Z" fill="white"></path></mask><g mask="url(#mask0_465_1027)"><path d="M75.2478 38.2075H71.1704V26.8883H75.2782C76.4307 26.8883 77.4305 27.112 78.2648 27.5594C79.0889 27.9972 79.7603 28.6735 80.1898 29.4984C80.6444 30.349 80.8565 31.348 80.8565 32.5258C80.8565 33.7042 80.6292 34.7182 80.1746 35.5687C79.7398 36.3987 79.0638 37.0795 78.2344 37.5222C77.4159 37.9844 76.4155 38.2075 75.2478 38.2075ZM73.5959 36.1495H75.1425C76.2186 36.1495 77.0368 35.8664 77.5976 35.2843C78.1583 34.7176 78.4312 33.7932 78.4312 32.5253C78.4312 31.2728 78.1583 30.3628 77.5976 29.7815C77.0368 29.2142 76.2181 28.9312 75.1419 28.9312H73.5959V36.1495ZM82.6753 38.2075H80.0684L84.0399 26.9029H87.1775L91.1334 38.2075H88.5265L87.6771 35.627H83.5242L82.6753 38.2075ZM84.1458 33.7628H87.0716L85.6608 29.4826H85.5701L84.1458 33.7628ZM101.108 32.5554C101.108 33.7932 100.865 34.837 100.395 35.7019C99.9256 36.5672 99.2736 37.2234 98.4703 37.6856C97.6516 38.1328 96.7421 38.3717 95.7265 38.3717C94.7112 38.3717 93.7863 38.148 92.983 37.6856C92.1645 37.2234 91.5278 36.5672 91.058 35.7019C90.5882 34.837 90.3457 33.7932 90.3457 32.57C90.3457 31.3322 90.5882 30.2884 91.058 29.4232C91.5278 28.5583 92.1645 27.9019 92.983 27.44C93.8015 26.992 94.7112 26.7538 95.7265 26.7538C96.7421 26.7538 97.6516 26.9774 98.4703 27.44C99.2888 27.8873 99.9256 28.5583 100.395 29.4232C100.881 30.2586 101.108 31.3176 101.108 32.5554ZM98.652 32.5554C98.652 31.3618 98.3791 30.4374 97.849 29.8108C97.3181 29.1844 96.6058 28.8566 95.7265 28.8566C94.8478 28.8566 94.1347 29.1695 93.6046 29.8108C93.0737 30.4521 92.8008 31.3618 92.8008 32.5554C92.8008 33.7485 93.0737 34.6728 93.6046 35.2989C94.1347 35.9259 94.8478 36.2543 95.7265 36.2543C96.6058 36.2543 97.3181 35.9408 97.849 35.2989C98.3791 34.6582 98.652 33.7485 98.652 32.5554ZM104.367 26.8883H107.368L110.536 34.494H110.673L113.841 26.8877H116.827V38.2075H114.462V30.8399H114.371L111.4 38.148H109.793L106.823 30.8103H106.731V38.208H104.367V26.8872V26.8883ZM120.358 38.3565C119.54 38.3565 118.858 38.148 118.312 37.7157C117.766 37.2975 117.494 36.6562 117.494 35.8214C117.494 35.1947 117.645 34.688 117.948 34.3303C118.251 33.9721 118.646 33.7034 119.146 33.5392C119.66 33.364 120.195 33.2539 120.737 33.2114C121.48 33.1367 122.026 33.0621 122.344 32.9725C122.663 32.8832 122.829 32.719 122.829 32.436V32.4058C122.829 32.0631 122.723 31.7795 122.496 31.6006C122.268 31.4069 121.965 31.317 121.556 31.317C121.131 31.317 120.783 31.4069 120.525 31.6006C120.279 31.7665 120.101 32.0155 120.025 32.3014L117.812 32.1225C117.979 31.3469 118.388 30.7357 119.04 30.2879C119.691 29.8409 120.54 29.6021 121.571 29.6021C122.208 29.6021 122.814 29.7071 123.36 29.9003C123.92 30.0944 124.36 30.4073 124.709 30.8247C125.057 31.2424 125.224 31.7947 125.224 32.4658V38.2075H122.95V37.0296H122.89C122.671 37.4318 122.347 37.7673 121.95 37.9993C121.526 38.2382 120.995 38.3565 120.358 38.3565ZM121.041 36.746C121.571 36.746 121.995 36.5967 122.329 36.2985C122.49 36.1599 122.618 35.9878 122.704 35.7946C122.791 35.6014 122.833 35.3916 122.829 35.1801V34.2847C122.738 34.345 122.586 34.4041 122.39 34.4492C122.184 34.4976 121.977 34.5373 121.768 34.5686C121.541 34.5982 121.344 34.628 121.177 34.6582C120.753 34.7176 120.419 34.837 120.161 35.0006C119.904 35.1801 119.783 35.4335 119.783 35.7614C119.783 36.0895 119.904 36.3283 120.146 36.4925C120.374 36.6562 120.677 36.746 121.041 36.746ZM126.134 38.2075V26.8883H128.528V32.9289H128.665L131.423 29.7077H134.167L130.969 33.3761L134.334 38.1934H131.53L129.165 34.7781L128.514 35.5087V38.208L126.134 38.2075Z" fill="white"></path><path d="M137.79 38.3717C136.911 38.3717 136.153 38.1928 135.501 37.8346C134.873 37.4876 134.361 36.9635 134.031 36.3283C133.683 35.6724 133.516 34.897 133.516 34.0017C133.516 33.1367 133.683 32.3614 134.031 31.7048C134.38 31.0492 134.865 30.5273 135.486 30.169C136.108 29.7961 136.851 29.6173 137.7 29.6173C138.457 29.6173 139.139 29.7809 139.761 30.0944C140.367 30.4079 140.852 30.8847 141.216 31.526C141.58 32.1676 141.762 32.9579 141.762 33.927V34.5686H135.896C135.896 35.1953 136.077 35.702 136.426 36.0597C136.774 36.4179 137.259 36.612 137.851 36.612C138.245 36.612 138.594 36.5221 138.882 36.3585C139.168 36.1943 139.388 35.9357 139.503 35.6276L141.716 35.7766C141.549 36.5669 141.125 37.1933 140.443 37.6709C139.746 38.1334 138.866 38.3717 137.79 38.3717ZM135.88 33.1069H139.503C139.503 32.6002 139.336 32.1825 139.003 31.8547C138.67 31.526 138.26 31.3618 137.729 31.3618C137.199 31.3618 136.759 31.526 136.426 31.8688C136.098 32.2014 135.904 32.6419 135.88 33.1069ZM142.353 38.2072V29.7215H144.672V31.1976H144.763C144.915 30.6757 145.187 30.2732 145.551 30.0046C145.915 29.7367 146.354 29.6021 146.824 29.6021C147.097 29.6021 147.34 29.6319 147.582 29.6919V31.7795C147.427 31.7412 147.271 31.711 147.112 31.6899C146.915 31.6606 146.733 31.6606 146.566 31.6606C146.036 31.6606 145.596 31.8237 145.263 32.1524C144.915 32.4802 144.748 32.8979 144.748 33.4198V38.208L142.353 38.2072Z" fill="white"></path><path d="M30.8805 43.6432L42.3643 22.494L52.4897 18.0577L41.0071 39.207L30.8805 43.6432Z" fill="url(#paint1_linear_465_1027)"></path><path d="M42.3339 38.8091L51.0578 22.7438L56.0094 27.5785L47.404 43.6875L42.3339 38.8091Z" fill="url(#paint2_linear_465_1027)"></path><path d="M56.9789 28.0649L63.4359 30.3938L60.2144 36.2593L52.3855 36.5244L56.9789 28.0649Z" fill="url(#paint3_linear_465_1027)"></path></g></g><defs><radialGradient id="paint0_radial_465_1027" cx="0" cy="0" r="1" gradientUnits="userSpaceOnUse" gradientTransform="translate(82.0423 30.8726) scale(173.651 361.355)"><stop offset="0.08" stop-color="#0A3D4E"></stop><stop offset="0.548764" stop-color="#07212A"></stop></radialGradient><linearGradient id="paint1_linear_465_1027" x1="30.9039" y1="43.628" x2="63.8936" y2="17.6241" gradientUnits="userSpaceOnUse"><stop stop-color="#48D5FF"></stop><stop offset="1" stop-color="#1FA5FF"></stop></linearGradient><linearGradient id="paint2_linear_465_1027" x1="31.1928" y1="43.699" x2="65.5646" y2="17.6101" gradientUnits="userSpaceOnUse"><stop stop-color="#48D5FF"></stop><stop offset="1" stop-color="#1FA5FF"></stop></linearGradient><linearGradient id="paint3_linear_465_1027" x1="31.0486" y1="43.5925" x2="64.3794" y2="18.1421" gradientUnits="userSpaceOnUse"><stop stop-color="#48D5FF"></stop><stop offset="1" stop-color="#1FA5FF"></stop></linearGradient><clipPath id="clip0_465_1027"><rect width="178" height="61.962" fill="white"></rect></clipPath></defs></svg> 