<?xml version="1.0" encoding="UTF-8"?> <svg xmlns="http://www.w3.org/2000/svg" width="178" height="63" viewBox="0 0 178 63" fill="none"><g clip-path="url(#clip0_465_824)"><path d="M171.643 0.962021H6.35714C2.84619 0.962021 0 3.80822 0 7.31917V56.35C0 59.861 2.8462 62.7072 6.35715 62.7072H171.643C175.154 62.7072 178 59.861 178 56.35V7.31916C178 3.80821 175.154 0.962021 171.643 0.962021Z" fill="url(#paint0_radial_465_824)"></path><path fill-rule="evenodd" clip-rule="evenodd" d="M42.8664 12.8128C44.2183 12.8128 45.3167 14.7279 45.3167 17.1219C45.3167 17.1783 45.3167 17.2346 45.3167 17.2909C46.049 16.446 46.894 15.9954 47.5418 16.277C48.1895 16.5586 48.4712 17.4881 48.3585 18.6147C48.3022 19.2061 48.1895 19.7976 47.9361 20.3327C47.7952 20.6707 47.6262 20.9805 47.4291 21.2903C57.0614 23.4308 63.9054 31.2888 63.7927 44.9767H57.9345C58.019 33.3729 51.2595 27.6273 42.3876 27.4583C32.7272 27.2612 27.4042 33.6546 26.7846 44.9767H20.8982C21.6586 31.2324 27.6295 22.8393 38.1066 21.2058C37.8813 20.8678 37.6842 20.5298 37.487 20.1919C36.6702 18.502 36.7829 16.7558 37.7405 16.277C38.5009 15.9109 39.5993 16.4742 40.4161 17.6007C40.4161 17.4317 40.388 17.2628 40.388 17.0938C40.4161 14.7561 41.5145 12.8128 42.8664 12.8128ZM101.336 23.5435C102.772 23.5435 104.209 23.8251 105.561 24.3884C106.828 24.9235 107.983 25.684 108.969 26.6697C109.926 27.6555 110.715 28.8102 111.25 30.0777C111.813 31.4014 112.095 32.8378 112.067 34.2742C112.067 35.7669 111.785 37.1752 111.25 38.4707C110.715 39.7381 109.954 40.921 108.969 41.8786C107.983 42.8644 106.828 43.6248 105.561 44.16C104.237 44.7233 102.801 45.0049 101.336 45.0049C98.4633 45.0331 95.7313 43.9065 93.7035 41.9068C92.7177 40.921 91.9573 39.7663 91.4221 38.4989C90.8588 37.1752 90.5772 35.7388 90.6054 34.3024C90.6054 32.8097 90.887 31.4014 91.4221 30.1059C91.9573 28.8384 92.7177 27.6555 93.7035 26.6979C95.7313 24.6419 98.4633 23.5153 101.336 23.5435ZM77.7905 23.5435C79.255 23.5435 80.6633 23.8251 81.9588 24.3884C83.2262 24.9235 84.381 25.684 85.3386 26.6697C86.3243 27.6555 87.0848 28.8102 87.6199 30.0777C88.1832 31.4296 88.4649 32.866 88.4649 34.3305C88.4649 35.7669 88.1832 37.1752 87.6199 38.4989C87.0848 39.7663 86.3243 40.921 85.3386 41.9068C84.3528 42.8644 83.1981 43.653 81.9588 44.1881C80.6351 44.7514 79.2269 45.0331 77.7905 45.0049H69.144V23.5435H77.7905ZM146.371 23.5435C147.864 23.5435 149.272 23.8251 150.596 24.3884C151.863 24.9235 153.018 25.684 153.976 26.6697C154.961 27.6555 155.722 28.8102 156.257 30.0777C156.82 31.4014 157.102 32.8378 157.102 34.2742C157.102 35.7669 156.82 37.1752 156.257 38.4707C155.722 39.7381 154.961 40.921 153.976 41.8786C152.99 42.8644 151.835 43.6248 150.596 44.16C149.272 44.7233 147.836 45.0049 146.371 45.0049C143.527 45.0331 140.766 43.9065 138.739 41.9068C137.753 40.921 136.992 39.7663 136.457 38.4989C135.894 37.1752 135.612 35.7388 135.612 34.3024C135.612 32.8097 135.894 31.4014 136.457 30.1059C136.992 28.8384 137.753 27.6555 138.739 26.6979C140.766 24.6419 143.498 23.5153 146.371 23.5435ZM122.826 23.5435C124.29 23.5435 125.698 23.8251 126.994 24.3884C128.261 24.9235 129.416 25.684 130.402 26.6697C131.388 27.6555 132.148 28.8102 132.683 30.0777C133.246 31.4296 133.528 32.866 133.528 34.3305C133.528 35.7669 133.246 37.1752 132.683 38.4989C132.148 39.7663 131.388 40.921 130.402 41.9068C129.416 42.8644 128.261 43.653 126.994 44.1881C125.67 44.7514 124.262 45.0331 122.826 45.0049H114.179V23.5435H122.826ZM37.5152 33.204C38.3883 33.204 39.1205 33.9644 39.1205 34.8938V39.034C39.1205 39.9634 38.3883 40.7239 37.5152 40.7239C36.6139 40.7239 35.9098 39.9634 35.9098 39.034V34.8938C35.9098 33.9644 36.6421 33.204 37.5152 33.204ZM47.1756 33.204C48.0769 33.204 48.781 33.9644 48.781 34.8938V39.034C48.781 39.9634 48.0487 40.7239 47.1756 40.7239C46.3025 40.7239 45.5702 39.9634 45.5702 39.034V34.8938C45.5702 33.9644 46.2743 33.204 47.1756 33.204ZM122.769 28.1906H119.39V40.6676H122.769C123.473 40.6676 124.178 40.4986 124.797 40.1888C125.445 39.879 126.008 39.4283 126.459 38.8932C126.909 38.3299 127.304 37.6821 127.557 36.9217C127.839 36.1331 127.98 35.3163 127.952 34.4995C127.952 33.6264 127.811 32.8097 127.557 32.021C127.304 31.2888 126.938 30.6128 126.459 30.0214C126.008 29.4581 125.445 29.0074 124.797 28.6976C124.178 28.3596 123.473 28.1906 122.769 28.1906ZM101.167 28.1906C100.407 28.1906 99.6743 28.3596 98.9984 28.6694C98.3506 28.9792 97.7591 29.4299 97.2522 29.965C96.7452 30.5283 96.3791 31.2043 96.1256 31.9084C95.844 32.697 95.7031 33.5138 95.7031 34.3587C95.7031 35.2318 95.844 36.0486 96.1256 36.809C96.4072 37.5695 96.7734 38.2172 97.2522 38.7524C97.731 39.2875 98.3224 39.7381 98.9984 40.0479C99.6743 40.3577 100.407 40.5267 101.167 40.5267C101.928 40.5267 102.66 40.3577 103.308 40.0479C103.984 39.7381 104.547 39.2875 105.054 38.7524C105.533 38.2172 105.899 37.5695 106.18 36.809C106.462 36.0204 106.603 35.2036 106.603 34.3587C106.603 33.4856 106.462 32.6688 106.18 31.9084C105.927 31.2043 105.533 30.5283 105.054 29.965C104.575 29.4299 103.984 28.9792 103.308 28.6694C102.632 28.3596 101.899 28.1906 101.167 28.1906ZM146.202 28.1906C145.442 28.1906 144.709 28.3596 144.034 28.6694C143.386 28.9792 142.794 29.4299 142.315 29.965C141.809 30.5283 141.414 31.2043 141.161 31.9084C140.879 32.697 140.738 33.5138 140.738 34.3587C140.738 35.2318 140.879 36.0486 141.161 36.809C141.442 37.5695 141.809 38.2172 142.315 38.7524C142.794 39.2875 143.386 39.7381 144.034 40.0479C144.709 40.3577 145.442 40.5267 146.202 40.5267C146.963 40.5267 147.695 40.3577 148.371 40.0479C149.019 39.7381 149.61 39.2875 150.089 38.7524C150.568 38.2172 150.962 37.5695 151.215 36.809C151.497 36.0204 151.638 35.2036 151.638 34.3587C151.638 33.5138 151.497 32.697 151.215 31.9084C150.962 31.2043 150.568 30.5283 150.089 29.965C149.61 29.4299 149.019 28.9792 148.371 28.6694C147.667 28.3596 146.934 28.1906 146.202 28.1906ZM77.7905 28.0498H74.3544V40.4986H77.7905C78.5228 40.4986 79.1987 40.3296 79.8465 40.0198C80.4943 39.71 81.0576 39.2593 81.5364 38.7242C82.0152 38.1891 82.3813 37.5131 82.663 36.7527C82.9446 35.9922 83.0573 35.2036 83.0573 34.3305C83.0573 33.4574 82.9164 32.6407 82.663 31.8521C82.4095 31.1198 82.0433 30.4438 81.5364 29.8524C81.0857 29.2891 80.4943 28.8384 79.8465 28.5286C79.1987 28.2188 78.4946 28.0498 77.7905 28.0498Z" fill="white"></path></g><defs><radialGradient id="paint0_radial_465_824" cx="0" cy="0" r="1" gradientUnits="userSpaceOnUse" gradientTransform="translate(82.0423 31.8346) scale(173.651 361.355)"><stop offset="0.08" stop-color="#0A3D4E"></stop><stop offset="0.548764" stop-color="#07212A"></stop></radialGradient><clipPath id="clip0_465_824"><rect width="178" height="61.962" fill="white" transform="translate(0 0.962021)"></rect></clipPath></defs></svg> 