<?xml version="1.0" encoding="UTF-8"?> <svg xmlns="http://www.w3.org/2000/svg" width="178" height="63" viewBox="0 0 178 63" fill="none"><g clip-path="url(#clip0_465_643)"><path d="M171.643 0.962036H6.35714C2.84619 0.962036 0 3.80823 0 7.31918V56.35C0 59.861 2.8462 62.7072 6.35715 62.7072H171.643C175.154 62.7072 178 59.861 178 56.35V7.31918C178 3.80823 175.154 0.962036 171.643 0.962036Z" fill="url(#paint0_radial_465_643)"></path><mask id="mask0_465_643" style="mask-type:luminance" maskUnits="userSpaceOnUse" x="25" y="17" width="128" height="30"><path d="M152.652 17.3299H25.3481V46.3394H152.652V17.3299Z" fill="white"></path></mask><g mask="url(#mask0_465_643)"><path fill-rule="evenodd" clip-rule="evenodd" d="M130.74 25.9568H134.356V22.3622H130.74V25.9568ZM111.523 31.9459C112.215 30.1233 113.982 28.8273 116.055 28.8273C118.127 28.8273 119.899 30.1233 120.587 31.9459H111.523ZM116.055 25.4809C111.523 25.4809 107.846 29.1362 107.846 33.6419C107.846 38.148 111.523 41.8032 116.055 41.8032C119.166 41.8032 121.87 40.0818 123.26 37.5503L120.23 36.0872C119.385 37.51 117.832 38.4617 116.055 38.4617C113.809 38.4617 111.92 36.9428 111.37 34.8772H120.739V34.8823H124.172C124.233 34.4773 124.263 34.0621 124.263 33.6419C124.263 29.1362 120.592 25.4809 116.055 25.4809ZM125.22 41.3678H128.836V37.7731H125.22V41.3678ZM130.74 41.3678H134.356V27.5364H130.74V41.3678ZM144.443 38.4617C141.765 38.4617 139.596 36.3049 139.596 33.6419C139.596 30.979 141.765 28.8223 144.443 28.8223C147.122 28.8223 149.291 30.979 149.291 33.6419C149.291 36.3049 147.122 38.4617 144.443 38.4617ZM144.443 25.4809C139.911 25.4809 136.235 29.1362 136.235 33.6419C136.235 38.148 139.911 41.8032 144.443 41.8032C148.975 41.8032 152.652 38.148 152.652 33.6419C152.652 29.1362 148.975 25.4809 144.443 25.4809ZM68.8556 30.6348V34.3508H73.912C73.6472 35.414 73.1279 36.3657 72.3792 37.125C71.2487 38.2744 69.6856 38.9022 67.9746 38.9022C64.4202 38.9022 61.528 36.0266 61.528 32.4877C61.528 28.9539 64.4202 26.0732 67.9746 26.0732C69.8791 26.0732 71.6306 26.8833 72.8425 28.2806L75.7351 25.9264C73.8154 23.6887 70.9688 22.3521 67.9746 22.3521C62.358 22.3521 57.7903 26.8984 57.7903 32.4827C57.7903 38.0669 62.358 42.6132 67.9746 42.6132C70.704 42.6132 73.2143 41.6362 75.0526 39.768C76.5955 38.1984 77.619 36.0114 77.8125 33.8242C77.9094 32.7562 77.9195 31.6929 77.8584 30.6247L68.8556 30.6348ZM87.2687 38.4617C84.5953 38.4617 82.421 36.3049 82.421 33.6419C82.421 30.979 84.5903 28.8223 87.2687 28.8223C89.9472 28.8223 92.1164 30.979 92.1164 33.6419C92.1164 36.3049 89.9472 38.4617 87.2687 38.4617ZM92.1164 27.0706C90.7569 26.0783 89.0817 25.4961 87.2687 25.4961C82.7368 25.4961 79.0652 29.1514 79.0652 33.6571C79.0652 38.1629 82.7418 41.8184 87.2687 41.8184C89.0817 41.8184 90.7569 41.2312 92.1164 40.2437V41.3728H95.4773V25.9416H92.1164V27.0706ZM102.688 22.3622H99.3268V25.9568H97.3156V29.1109H99.3268V37.363C99.3268 38.2136 99.4338 38.9326 99.6479 39.4945C99.8566 40.0513 100.182 40.4868 100.564 40.8261C100.951 41.1703 101.405 41.4387 101.944 41.5956C102.494 41.7474 103.095 41.8082 103.737 41.8082C104.399 41.8082 104.989 41.7423 105.488 41.6057C105.957 41.479 106.405 41.3018 106.817 41.0791V38.5378C106.156 38.8211 105.534 38.9276 104.826 38.958C104.078 38.9932 103.64 38.7806 103.273 38.4313C102.886 38.0669 102.683 37.5909 102.683 36.7961V29.1109H106.817V25.9568H102.683V22.3622H102.688Z" fill="white"></path><path fill-rule="evenodd" clip-rule="evenodd" d="M39.9218 39.8032C35.4969 39.8032 31.9068 36.2342 31.9068 31.8346C31.9068 27.4351 35.4969 23.8658 39.9218 23.8658V17.34C31.8713 17.34 25.3481 23.8304 25.3481 31.8346C25.3481 39.8387 31.8713 46.3241 39.9218 46.3241C47.9676 46.3241 54.4956 39.8336 54.4956 31.8346H47.9369C47.9369 36.2393 44.3471 39.8032 39.9218 39.8032Z" fill="#2354E6"></path><path fill-rule="evenodd" clip-rule="evenodd" d="M39.9219 31.8346H47.9369V23.8658H39.9219V31.8346Z" fill="#17E6A1"></path></g></g><defs><radialGradient id="paint0_radial_465_643" cx="0" cy="0" r="1" gradientUnits="userSpaceOnUse" gradientTransform="translate(82.0423 31.8346) scale(173.651 361.355)"><stop offset="0.08" stop-color="#0A3D4E"></stop><stop offset="0.548764" stop-color="#07212A"></stop></radialGradient><clipPath id="clip0_465_643"><rect width="178" height="61.962" fill="white" transform="translate(0 0.962036)"></rect></clipPath></defs></svg> 