<?xml version="1.0" encoding="UTF-8"?> <svg xmlns="http://www.w3.org/2000/svg" width="178" height="63" viewBox="0 0 178 63" fill="none"><g clip-path="url(#clip0_465_677)"><path d="M171.643 0.924042H6.35714C2.84619 0.924042 0 3.77024 0 7.28119V56.3121C0 59.823 2.8462 62.6692 6.35715 62.6692H171.643C175.154 62.6692 178 59.823 178 56.312V7.28118C178 3.77023 175.154 0.924042 171.643 0.924042Z" fill="url(#paint0_radial_465_677)"></path><path d="M68.3923 36.0188C68.3923 36.6108 68.5106 37.1631 68.7278 37.676C68.9449 38.1891 69.2406 38.6429 69.6155 39.0374C70.385 39.8266 71.4504 40.2803 72.5553 40.2803C73.6602 40.2803 74.7257 39.8266 75.4951 39.0374C76.2843 38.2286 76.7183 37.1434 76.6986 36.0188C76.6986 34.8942 76.2646 33.809 75.4951 33.0001C75.1203 32.6055 74.6665 32.3095 74.1731 32.0926C73.6602 31.8755 73.1076 31.7572 72.5553 31.7572C71.4504 31.7572 70.385 32.2109 69.6155 33.0001C69.2406 33.3947 68.9249 33.8484 68.7278 34.3616C68.4909 34.8744 68.3923 35.4467 68.3923 36.0188ZM64.9002 24.2993C64.9002 24.0428 64.9396 23.806 65.0382 23.5693C65.1171 23.3523 65.2554 23.155 65.4131 22.9774C65.5711 22.8196 65.7682 22.6814 65.9657 22.5828C66.1825 22.4841 66.4194 22.4447 66.6563 22.4447C66.9126 22.4447 67.1297 22.4841 67.3466 22.5828C67.7609 22.7801 68.0963 23.1352 68.2543 23.5693C68.3332 23.7863 68.3726 24.0428 68.3726 24.2993V30.3366C68.5501 30.0208 68.7869 29.7448 69.0829 29.4685C69.3789 29.1922 69.7341 28.9753 70.109 28.778C70.4838 28.5806 70.8784 28.4228 71.2927 28.3044C71.707 28.1861 72.1213 28.1269 72.5356 28.1269C73.5617 28.1269 74.5677 28.3242 75.4951 28.7385C76.4026 29.1331 77.2312 29.7051 77.9218 30.4351C78.6124 31.1652 79.1647 32.0138 79.5593 32.9409C79.9539 33.9078 80.171 34.9533 80.171 35.999C80.171 37.0448 79.9739 38.0906 79.5593 39.0374C79.1647 39.9646 78.6124 40.7935 77.9218 41.5235C77.2312 42.2336 76.4026 42.8059 75.4951 43.2004C74.5677 43.6147 73.5617 43.8319 72.5356 43.8122C71.5096 43.8122 70.5035 43.6147 69.5761 43.2004C68.6686 42.8059 67.84 42.2336 67.1494 41.5235C66.4391 40.8132 65.8865 39.9646 65.4919 39.0374C65.0776 38.0706 64.8805 37.0448 64.8805 35.999V24.2993H64.9002ZM82.4597 29.9223C82.4597 29.212 82.8937 28.5609 83.5449 28.2847C83.7617 28.1861 83.9986 28.1466 84.2355 28.1466C84.472 28.1466 84.6892 28.1861 84.9061 28.2847C85.3206 28.482 85.6361 28.8174 85.7941 29.2317C85.8729 29.4488 85.9321 29.6854 85.9321 29.9223V42.0364C85.9321 42.5098 85.7547 42.9439 85.4389 43.299C85.2809 43.457 85.1035 43.595 84.8863 43.6739C84.6695 43.7725 84.4523 43.8122 84.2157 43.8122C83.9789 43.8122 83.742 43.7725 83.5449 43.6739C83.1306 43.4965 82.7754 43.161 82.5977 42.727C82.4991 42.5098 82.4597 42.2733 82.4597 42.0364V29.9223ZM82.3217 24.5952C82.3217 24.0823 82.5188 23.589 82.874 23.2141C83.0517 23.0366 83.2489 22.8985 83.466 22.7998C83.7026 22.7012 83.9394 22.642 84.2157 22.642C84.472 22.642 84.7089 22.7012 84.9458 22.7998C85.1824 22.8985 85.3798 23.0366 85.5375 23.2141C85.7152 23.3917 85.8532 23.589 85.9518 23.8258C86.0504 24.0625 86.1098 24.319 86.1098 24.5755C86.1098 24.8517 86.0504 25.1082 85.9518 25.345C85.8532 25.5817 85.7152 25.779 85.5375 25.9566C85.3601 26.1342 85.1626 26.2723 84.9458 26.3709C84.7089 26.4696 84.472 26.5287 84.2157 26.5287C83.9394 26.5287 83.7026 26.4696 83.466 26.3709C83.2489 26.2723 83.032 26.1342 82.874 25.9566C82.5188 25.6015 82.3217 25.1082 82.3217 24.5952ZM88.201 25.2858C88.201 24.5558 88.6153 23.9047 89.2862 23.6088C89.5034 23.5101 89.7202 23.4706 89.9571 23.4706C90.4305 23.4706 90.8843 23.6482 91.2197 23.9836C91.3777 24.1415 91.5157 24.3388 91.6143 24.5558C91.7129 24.7728 91.7723 25.0095 91.7723 25.266V27.8704H97.2571C97.4939 27.8704 97.7305 27.9099 97.9477 28.0085C98.362 28.1861 98.6974 28.5412 98.8748 28.9555C98.9734 29.1725 99.0131 29.4094 99.0131 29.646C99.0131 29.8828 98.9734 30.1 98.8748 30.3168C98.5985 30.9483 97.9674 31.3626 97.2571 31.3626H91.7723V36.0582C91.7723 36.6502 91.8709 37.2025 92.0877 37.7157C92.3049 38.2286 92.5812 38.6626 92.956 39.0572C93.3112 39.432 93.7452 39.728 94.2384 39.9449C94.7315 40.1621 95.2644 40.2606 95.8562 40.2606C96.3693 40.2606 96.8428 40.1818 97.2768 40.0438C97.7108 39.8858 98.1251 39.6492 98.5 39.3137C98.7171 39.136 98.9143 38.9783 99.1117 38.8797C99.3088 38.7611 99.5457 38.702 99.822 38.702C100.019 38.702 100.217 38.7414 100.394 38.8403C100.591 38.9191 100.749 39.0374 100.887 39.1952C101.025 39.3532 101.144 39.5306 101.242 39.7477C101.341 39.9646 101.381 40.1818 101.381 40.4186C101.381 40.6946 101.321 40.9709 101.223 41.2275C101.124 41.4838 100.966 41.7207 100.749 41.9181C100.118 42.5493 99.3483 43.0427 98.5197 43.3582C97.6911 43.6739 96.8033 43.8319 95.8562 43.8319C94.8304 43.8319 93.8044 43.6345 92.8572 43.2202C91.9497 42.8256 91.1211 42.2733 90.4305 41.563C89.7399 40.8526 89.1876 40.0043 88.7931 39.0966C88.3787 38.13 88.1813 37.0842 88.1813 36.0385V25.2858H88.201ZM103.669 36.3739C103.669 35.269 103.886 34.1838 104.3 33.1778C104.695 32.2109 105.287 31.3035 106.017 30.5537C106.747 29.804 107.615 29.212 108.562 28.778C109.529 28.3439 110.594 28.1269 111.66 28.1269H111.699C112.271 28.1269 112.725 28.2847 113.021 28.6201C113.337 28.9555 113.495 29.3897 113.495 29.9025C113.495 30.1591 113.455 30.3957 113.356 30.6129C113.278 30.8297 113.14 31.0272 112.982 31.1849C112.646 31.5203 112.173 31.698 111.699 31.698H111.62C111.028 31.698 110.456 31.836 109.924 32.0729C109.391 32.3095 108.917 32.6449 108.503 33.0592C108.089 33.4735 107.773 33.9473 107.517 34.4996C107.26 35.0522 107.142 35.6636 107.142 36.2753V41.8984C107.142 42.135 107.102 42.3718 107.004 42.5887C106.905 42.8059 106.787 42.9833 106.649 43.161C106.491 43.3187 106.313 43.457 106.116 43.5359C105.682 43.7133 105.208 43.7133 104.774 43.5359C104.557 43.4373 104.36 43.3187 104.202 43.161C103.866 42.8256 103.669 42.3718 103.669 41.8984V36.3739ZM115.764 29.9025C115.764 29.4291 115.941 28.995 116.257 28.6398C116.415 28.482 116.592 28.3439 116.809 28.265C117.026 28.1663 117.243 28.1269 117.48 28.1269C117.954 28.1269 118.388 28.3044 118.723 28.6398C118.881 28.7977 118.999 28.995 119.098 29.212C119.197 29.4291 119.236 29.6657 119.236 29.9025V36.2753C119.236 36.8474 119.335 37.3605 119.532 37.8537C119.907 38.8006 120.656 39.5503 121.584 39.9646C122.057 40.1621 122.571 40.2606 123.123 40.2606C124.109 40.2803 125.076 39.8463 125.727 39.0966C126.043 38.7217 126.299 38.2877 126.438 37.834C126.595 37.3408 126.694 36.8079 126.694 36.2556V29.9223C126.694 29.4488 126.891 28.995 127.227 28.6596C127.384 28.5017 127.582 28.3636 127.799 28.2847C128.016 28.1861 128.233 28.1466 128.47 28.1466C128.923 28.1466 129.357 28.3242 129.673 28.6596C129.989 28.995 130.166 29.4488 130.166 29.9223V36.2556C130.166 37.3011 129.989 38.2877 129.634 39.2149C129.298 40.1029 128.805 40.9118 128.154 41.6221C127.523 42.3127 126.773 42.865 125.924 43.2596C125.056 43.6542 124.129 43.8516 123.123 43.8516C122.097 43.8516 121.15 43.6542 120.242 43.2596C119.354 42.865 118.565 42.3127 117.894 41.6221C116.513 40.1818 115.744 38.268 115.744 36.2556V29.9025H115.764ZM136.342 37.6168C136.618 38.4257 137.111 39.1163 137.782 39.6295C138.117 39.866 138.473 40.0635 138.887 40.2015C139.281 40.3395 139.716 40.4186 140.15 40.4186C140.623 40.4186 140.998 40.3792 141.314 40.3001C141.61 40.2212 141.905 40.0832 142.182 39.9252C142.557 39.7083 142.892 39.5897 143.208 39.5897C143.444 39.5897 143.681 39.6492 143.879 39.7477C144.096 39.8463 144.273 39.9846 144.411 40.1621C144.727 40.5172 144.904 40.9709 144.904 41.4444C144.904 41.7995 144.786 42.135 144.569 42.431C144.332 42.727 144.017 42.9833 143.602 43.2004C143.129 43.4373 142.616 43.595 142.103 43.6739C141.471 43.7925 140.821 43.8516 140.169 43.8516C139.143 43.8516 138.137 43.6542 137.19 43.2399C136.283 42.8453 135.434 42.2733 134.744 41.563C134.033 40.8526 133.481 40.0043 133.086 39.0769C132.672 38.1103 132.475 37.0842 132.475 36.0385C132.475 34.9927 132.672 33.9473 133.086 32.9607C133.481 32.0335 134.033 31.1849 134.744 30.4749C135.454 29.7645 136.283 29.1922 137.19 28.7977C138.137 28.3834 139.143 28.1663 140.169 28.1861C141.215 28.1861 142.201 28.3834 143.129 28.7977C144.056 29.212 144.865 29.7645 145.556 30.4549C146.266 31.1652 146.818 31.994 147.213 32.9212C147.627 33.8681 147.844 34.8744 147.864 35.9596C147.864 36.4725 147.706 36.8868 147.391 37.2025C147.075 37.5182 146.661 37.676 146.167 37.676L136.342 37.6168ZM144.254 34.6179C144.135 34.1838 143.938 33.7498 143.681 33.375C143.425 33.0001 143.129 32.6844 142.774 32.4083C142.419 32.1321 142.024 31.9149 141.59 31.7769C141.156 31.6192 140.682 31.5598 140.189 31.5598C139.696 31.5598 139.242 31.6389 138.808 31.7966C138.374 31.9543 137.979 32.1715 137.644 32.4478C137.308 32.7238 136.993 33.0592 136.756 33.4144C136.519 33.7893 136.322 34.1838 136.223 34.6179H144.254Z" fill="white"></path><path d="M53.5358 37.2222V21.2214L58.2117 23.885V39.9055L49.6294 44.7985L44.9532 42.135L53.5358 37.2222ZM30.1361 30.0803L34.8123 27.4166V37.1828L48.8599 45.1734L44.1837 47.8369L30.1361 39.8463V30.0803ZM44.1837 15.7563L52.7663 20.6296V25.9763L44.1837 21.1031L30.1361 29.1134V23.7863L44.1837 15.7563ZM38.9358 25.2661L42.1122 23.4706V30.1789C42.4477 29.942 43.1974 29.3502 44.3615 29.3502C45.8609 29.3502 47.1433 29.8631 48.2087 30.9089C49.2742 31.9543 49.7871 33.2172 49.7871 34.697C49.7871 36.1768 49.2545 37.4394 48.2087 38.4851C47.1433 39.5306 45.8807 40.0635 44.3615 40.0635C42.8423 40.0635 41.5599 39.5306 40.5142 38.4851C39.4487 37.4394 38.9358 36.1768 38.9358 34.697V25.2661ZM42.7634 36.2556C43.1974 36.6896 43.73 36.9065 44.3615 36.9065C44.9732 36.9065 45.5058 36.6896 45.9398 36.2556C46.3738 35.8413 46.6107 35.269 46.6107 34.6773C46.6107 34.0656 46.3935 33.5527 45.9398 33.1184C45.5255 32.7041 44.9532 32.4675 44.3615 32.4675C43.7497 32.4675 43.2171 32.6844 42.7634 33.1184C42.3294 33.5133 42.0925 34.0853 42.0925 34.6773C42.1122 35.2887 42.3294 35.8216 42.7634 36.2556Z" fill="url(#paint1_linear_465_677)"></path></g><defs><radialGradient id="paint0_radial_465_677" cx="0" cy="0" r="1" gradientUnits="userSpaceOnUse" gradientTransform="translate(82.0423 31.7966) scale(173.651 361.355)"><stop offset="0.08" stop-color="#0A3D4E"></stop><stop offset="0.548764" stop-color="#07212A"></stop></radialGradient><linearGradient id="paint1_linear_465_677" x1="44.1708" y1="15.7638" x2="44.1708" y2="47.8634" gradientUnits="userSpaceOnUse"><stop stop-color="#FFE275"></stop><stop offset="1" stop-color="#F0B736"></stop></linearGradient><clipPath id="clip0_465_677"><rect width="178" height="61.962" fill="white" transform="translate(0 0.924042)"></rect></clipPath></defs></svg> 