<?xml version="1.0" encoding="UTF-8"?> <svg xmlns="http://www.w3.org/2000/svg" width="178" height="62" viewBox="0 0 178 62" fill="none"><g clip-path="url(#clip0_465_575)"><path d="M171.643 0H6.35714C2.84619 0 0 2.8462 0 6.35715V55.388C0 58.899 2.8462 61.7452 6.35715 61.7452H171.643C175.154 61.7452 178 58.899 178 55.388V6.35714C178 2.84619 175.154 0 171.643 0Z" fill="url(#paint0_radial_465_575)"></path><mask id="mask0_465_575" style="mask-type:luminance" maskUnits="userSpaceOnUse" x="25" y="16" width="128" height="30"><path d="M152.934 16.0862H25.0665V45.659H152.934V16.0862Z" fill="white"></path></mask><g mask="url(#mask0_465_575)"><path d="M120.986 30.8605C120.986 30.1901 120.986 29.5595 120.964 28.9771C120.949 28.4279 120.896 27.8802 120.803 27.3386C120.716 26.8441 120.562 26.3638 120.347 25.911C120.119 25.4441 119.815 25.0194 119.447 24.6546C118.925 24.1158 118.304 23.6845 117.619 23.3849C116.877 23.0823 116.083 22.9322 115.283 22.9436C114.48 22.9332 113.683 23.0832 112.938 23.3849C112.248 23.6804 111.623 24.1098 111.099 24.6486C110.731 25.0131 110.428 25.438 110.203 25.905C109.989 26.3578 109.838 26.8382 109.754 27.3325C109.663 27.8743 109.611 28.422 109.598 28.9712C109.584 29.5536 109.577 30.1842 109.58 30.8545C109.584 31.5249 109.58 32.1507 109.598 32.7368C109.611 33.286 109.663 33.8335 109.754 34.3754C109.838 34.8697 109.989 35.3499 110.203 35.8028C110.429 36.2695 110.732 36.6942 111.099 37.0592C111.623 37.5985 112.248 38.0272 112.938 38.3204C113.683 38.6243 114.48 38.775 115.283 38.7643C116.083 38.7761 116.878 38.6251 117.619 38.3204C118.304 38.025 118.925 37.5963 119.447 37.0592C119.814 36.6939 120.118 36.2692 120.347 35.8028C120.562 35.3502 120.716 34.87 120.803 34.3754C120.894 33.8352 120.948 33.2894 120.962 32.7416C120.98 32.1555 120.988 31.5285 120.983 30.8593L120.986 30.8605ZM117.97 30.8605C117.97 31.6032 117.96 32.2219 117.935 32.7137C117.92 33.1178 117.88 33.5206 117.815 33.9194C117.77 34.1853 117.69 34.4436 117.575 34.6875C117.483 34.8841 117.362 35.0657 117.217 35.2265C116.992 35.4856 116.713 35.6915 116.4 35.8295C116.049 35.9813 115.669 36.0582 115.287 36.0563C114.902 36.0579 114.521 35.9808 114.167 35.8295C113.846 35.6941 113.56 35.4882 113.329 35.2265C113.183 35.0666 113.062 34.8849 112.97 34.6875C112.859 34.4436 112.783 34.185 112.743 33.9194C112.679 33.5203 112.639 33.1178 112.623 32.7137C112.602 32.2219 112.591 31.604 112.591 30.8605C112.591 30.1178 112.602 29.4981 112.623 29.0061C112.639 28.6022 112.679 28.1995 112.743 27.8004C112.783 27.535 112.859 27.2765 112.97 27.0323C113.062 26.8353 113.183 26.6536 113.329 26.4933C113.56 26.2322 113.846 26.0262 114.167 25.8905C114.52 25.7375 114.902 25.6603 115.287 25.6638C115.67 25.6598 116.049 25.737 116.4 25.8905C116.713 26.0288 116.992 26.2346 117.217 26.4933C117.362 26.6543 117.483 26.8359 117.575 27.0323C117.69 27.2762 117.77 27.5346 117.815 27.8004C117.88 28.1992 117.92 28.6019 117.935 29.0061C117.961 29.4967 117.97 30.1166 117.97 30.8605Z" fill="white"></path><path d="M145.012 23.3463C145.011 23.1997 144.893 23.0812 144.747 23.0799H142.26C142.114 23.0805 141.996 23.1995 141.995 23.3463V32.6064L135.929 23.1546C135.888 23.0907 135.852 23.0799 135.763 23.0799H133.456C133.311 23.0818 133.193 23.2 133.191 23.3463V38.3722C133.193 38.5184 133.311 38.6364 133.456 38.6375H135.942C136.087 38.637 136.205 38.5187 136.206 38.3722V29.0881L142.273 38.5615C142.315 38.6254 142.348 38.6364 142.439 38.6364H144.745C144.89 38.6359 145.008 38.5176 145.01 38.3711L145.012 23.3463Z" fill="white"></path><path d="M128.337 23.3463C128.336 23.1995 128.218 23.0805 128.073 23.0799H125.587C125.442 23.0805 125.324 23.1995 125.323 23.3463V38.3711C125.324 38.5181 125.442 38.637 125.587 38.6375H128.073C128.218 38.637 128.336 38.5181 128.337 38.3711V23.3463Z" fill="white"></path><path d="M98.5866 30.8605C98.5866 30.113 98.5951 29.4908 98.6168 28.9951C98.6314 28.5912 98.6711 28.1885 98.7362 27.7895C98.966 26.4511 99.983 25.6614 101.281 25.6614C102.128 25.6686 102.897 25.9845 103.387 26.7031C103.609 27.0386 103.771 27.4108 103.866 27.8028C103.873 27.844 103.911 27.8729 103.952 27.8691H106.877C106.919 27.8691 106.935 27.8402 106.928 27.7991C106.608 25.9748 105.643 24.3363 103.936 23.5248C103.098 23.1335 102.182 22.9378 101.259 22.9521C99.6113 22.9521 98.2239 23.5204 97.0959 24.657C96.452 25.2894 96.0124 26.103 95.8347 26.9913C95.6623 27.8659 95.5756 29.1551 95.5739 30.8593C95.5722 32.5636 95.6592 33.8524 95.8347 34.726C96.011 35.6155 96.4492 36.4308 97.0922 37.0654C98.2194 38.201 99.607 38.7691 101.255 38.7691C102.179 38.7832 103.094 38.5877 103.933 38.1976C105.639 37.3859 106.605 35.7473 106.924 33.9231C106.931 33.8808 106.916 33.8532 106.874 33.8532H103.947C103.906 33.8487 103.868 33.878 103.861 33.9194C103.766 34.3109 103.604 34.6827 103.383 35.0178C102.892 35.7414 102.124 36.0537 101.277 36.0596C99.9782 36.0596 98.9612 35.271 98.7314 33.9327C98.6666 33.5338 98.6266 33.1311 98.612 32.7269C98.5951 32.229 98.5866 31.6057 98.5866 30.8605Z" fill="white"></path><path d="M67.6879 23.3463C67.687 23.1995 67.569 23.0805 67.4234 23.0799H64.9382C64.7926 23.0805 64.6746 23.1995 64.6737 23.3463V38.3722C64.6751 38.5187 64.7928 38.637 64.9382 38.6378H67.4234C67.5687 38.637 67.6865 38.5187 67.6879 38.3722V33.9617L69.6825 31.5587L73.7793 38.5581C73.8109 38.6097 73.8675 38.6401 73.9277 38.6378H76.9478C77.0864 38.6378 77.1117 38.5508 77.0422 38.4314L71.6782 29.2678L76.5994 23.3186C76.6988 23.198 76.6569 23.0835 76.5014 23.0835H73.2002C73.16 23.0811 73.1214 23.0992 73.0972 23.1317L67.6879 29.6694V23.3463Z" fill="white"></path><path d="M85.7935 36.0596C84.3948 36.0596 83.1266 34.7551 83.1266 33.1973V23.3463C83.126 23.1995 83.008 23.0805 82.8621 23.0799H80.3769C80.2313 23.0805 80.1133 23.1995 80.1124 23.3463V33.1587C80.1124 36.5891 82.6588 38.7691 85.7935 38.7691C88.9285 38.7691 91.4746 36.5891 91.4746 33.1587V23.3463C91.4734 23.1997 91.3557 23.0812 91.2104 23.0799H88.724C88.5787 23.0812 88.4612 23.1999 88.4607 23.3463V33.1973C88.4607 34.7539 87.191 36.0596 85.7935 36.0596Z" fill="white"></path><path fill-rule="evenodd" clip-rule="evenodd" d="M39.6929 30.8605L47.408 38.6364L52.278 33.729C53.1485 32.939 54.481 32.9739 55.3093 33.809C56.1379 34.6438 56.1728 35.9864 55.3887 36.864L48.9624 43.3413C48.0992 44.1967 46.7146 44.1967 45.8514 43.3413L36.5796 33.9955V39.5503C36.5796 40.7763 35.5933 41.77 34.3769 41.77C33.1602 41.77 32.1738 40.7763 32.1738 39.5503V22.1635C32.1738 20.9375 33.1602 19.9437 34.3769 19.9437C35.5933 19.9437 36.5796 20.9375 36.5796 22.1635V27.7184L45.8503 18.3751C46.7132 17.5189 48.0981 17.5189 48.961 18.3751L55.3924 24.8511C56.1765 25.7286 56.1416 27.0711 55.313 27.906C54.4844 28.7411 53.1522 28.7763 52.2814 27.986L47.4117 23.0786L39.6929 30.8605ZM47.4117 28.6383C46.5197 28.638 45.7151 29.179 45.3734 30.0093C45.0318 30.8396 45.2202 31.7955 45.8508 32.4315C46.4814 33.0671 47.43 33.2575 48.2541 32.9137C49.0782 32.5698 49.6156 31.7595 49.6156 30.8605C49.6159 30.2713 49.3838 29.7057 48.9706 29.2889C48.5571 28.8718 47.9964 28.6374 47.4117 28.6371V28.6383Z" fill="white"></path></g></g><defs><radialGradient id="paint0_radial_465_575" cx="0" cy="0" r="1" gradientUnits="userSpaceOnUse" gradientTransform="translate(82.0423 30.8726) scale(173.651 361.355)"><stop offset="0.08" stop-color="#0A3D4E"></stop><stop offset="0.548764" stop-color="#07212A"></stop></radialGradient><clipPath id="clip0_465_575"><rect width="178" height="61.962" fill="white"></rect></clipPath></defs></svg> 