<?xml version="1.0" encoding="UTF-8"?> <svg xmlns="http://www.w3.org/2000/svg" width="178" height="62" viewBox="0 0 178 62" fill="none"><g clip-path="url(#clip0_465_887)"><path d="M171.643 0H6.35714C2.84619 0 0 2.8462 0 6.35715V55.388C0 58.899 2.8462 61.7452 6.35715 61.7452H171.643C175.154 61.7452 178 58.899 178 55.388V6.35714C178 2.84619 175.154 0 171.643 0Z" fill="url(#paint0_radial_465_887)"></path><mask id="mask0_465_887" style="mask-type:luminance" maskUnits="userSpaceOnUse" x="15" y="19" width="148" height="24"><path d="M162.51 19.466H15.4906V42.2792H162.51V19.466Z" fill="white"></path></mask><g mask="url(#mask0_465_887)"><path d="M43.8401 37.017C43.4982 37.017 43.2566 36.946 43.1149 36.8049C42.9853 36.6635 42.9203 36.4399 42.9203 36.1334V25.9053C42.9203 25.5991 42.991 25.3753 43.1326 25.234C43.274 25.0809 43.5098 25.0043 43.8401 25.0043H48.173C49.8234 25.0043 51.0379 25.3518 51.8161 26.0466C52.5942 26.7415 52.9832 27.7778 52.9832 29.1557C52.9832 30.5219 52.5942 31.5522 51.8161 32.247C51.0497 32.9303 49.8352 33.2719 48.173 33.2719H46.4927V36.1334C46.4927 36.4399 46.422 36.6635 46.2806 36.8049C46.1392 36.946 45.8973 37.017 45.5554 37.017H43.8401ZM47.8899 30.7103C48.3735 30.7103 48.7447 30.5808 49.0041 30.3217C49.2753 30.0626 49.4108 29.6739 49.4108 29.1557C49.4108 28.6259 49.2753 28.2313 49.0041 27.9721C48.7447 27.713 48.3735 27.5835 47.8899 27.5835H46.4927V30.7103H47.8899Z" fill="white"></path><path d="M57.16 37.2817C56.0517 37.2817 55.1614 36.9285 54.4894 36.2219C53.8292 35.5034 53.4991 34.4965 53.4991 33.2009C53.4991 32.2118 53.7231 31.3463 54.1712 30.6042C54.6308 29.8623 55.2735 29.2911 56.0987 28.8906C56.9358 28.4786 57.8968 28.2724 58.9814 28.2724C59.8776 28.2724 60.6676 28.3727 61.3514 28.5727C62.0468 28.7611 62.6836 29.0379 63.2613 29.4029V36.4692C63.2613 36.6931 63.2201 36.8401 63.1373 36.9108C63.0548 36.9815 62.8898 37.017 62.6422 37.017H60.8383C60.7087 37.017 60.6084 36.9992 60.5377 36.9637C60.4671 36.9167 60.4082 36.846 60.3609 36.7519L60.1311 36.2219C59.7891 36.5869 59.3765 36.8519 58.8929 37.017C58.4215 37.1935 57.8438 37.2817 57.16 37.2817ZM58.4862 34.8793C58.9462 34.8793 59.3056 34.7675 59.5649 34.5438C59.8243 34.3199 59.9542 34.0019 59.9542 33.5896V30.834C59.7303 30.7278 59.4472 30.6749 59.1053 30.6749C58.4803 30.6749 57.9793 30.8929 57.6022 31.3286C57.2366 31.7643 57.0538 32.3766 57.0538 33.1657C57.0538 34.3081 57.5312 34.8793 58.4862 34.8793Z" fill="white"></path><path d="M65.7226 37.017C65.3807 37.017 65.1387 36.946 64.9974 36.8049C64.856 36.6635 64.7853 36.4399 64.7853 36.1334V29.085C64.7853 28.8732 64.8205 28.7318 64.8912 28.6611C64.9737 28.5786 65.1387 28.5374 65.3866 28.5374H67.2083C67.3497 28.5374 67.4558 28.5611 67.5265 28.6081C67.6091 28.6433 67.6561 28.714 67.6679 28.8202L67.7564 29.35C68.0864 29.0202 68.5168 28.7611 69.0474 28.5727C69.5896 28.3727 70.1909 28.2724 70.8514 28.2724C71.8061 28.2724 72.5784 28.5434 73.1679 29.085C73.7577 29.615 74.0523 30.4042 74.0523 31.4522V36.1334C74.0523 36.4399 73.9816 36.6635 73.8402 36.8049C73.7103 36.946 73.4746 37.017 73.1327 37.017H71.4172C71.0753 37.017 70.8277 36.946 70.6745 36.8049C70.5328 36.6635 70.4621 36.4399 70.4621 36.1334V31.6817C70.4621 31.3286 70.3855 31.0754 70.2323 30.9221C70.0791 30.7692 69.8372 30.6926 69.5071 30.6926C69.1536 30.6926 68.8705 30.787 68.6582 30.9751C68.4579 31.1638 68.3577 31.4226 68.3577 31.7527V36.1334C68.3577 36.4399 68.287 36.6635 68.1456 36.8049C68.0158 36.946 67.78 37.017 67.4381 37.017H65.7226Z" fill="white"></path><path d="M80.3034 37.2817C78.6529 37.2817 77.3796 36.8989 76.4834 36.1334C75.5875 35.3682 75.1394 34.2551 75.1394 32.7948C75.1394 31.8997 75.3459 31.1108 75.7582 30.4276C76.1711 29.7446 76.7665 29.2145 77.5447 28.8377C78.3344 28.4608 79.2661 28.2724 80.3389 28.2724C81.1523 28.2724 81.8364 28.349 82.3904 28.5022C82.9562 28.6552 83.4572 28.8906 83.8935 29.2086C84.0234 29.2911 84.0881 29.397 84.0881 29.5266C84.0881 29.6209 84.0411 29.7446 83.9468 29.8978L83.2215 31.152C83.139 31.3167 83.0387 31.3993 82.921 31.3993C82.85 31.3993 82.7382 31.3522 82.585 31.2579C82.2664 31.0576 81.9659 30.9106 81.6829 30.8162C81.4117 30.7222 81.0697 30.6749 80.6571 30.6749C80.0676 30.6749 79.5903 30.8633 79.2247 31.2401C78.8709 31.617 78.6941 32.1352 78.6941 32.7948C78.6941 33.466 78.8768 33.9842 79.2424 34.3492C79.608 34.7027 80.109 34.8793 80.7456 34.8793C81.123 34.8793 81.4649 34.8263 81.7713 34.7201C82.078 34.6142 82.3904 34.4672 82.7086 34.2788C82.8737 34.1844 82.9917 34.1374 83.0624 34.1374C83.1686 34.1374 83.2629 34.2196 83.3454 34.3847L84.1411 35.745C84.2002 35.8628 84.2295 35.9568 84.2295 36.0275C84.2295 36.1334 84.1588 36.2337 84.0174 36.3278C83.5223 36.6457 82.9799 36.8812 82.3904 37.0344C81.8127 37.1995 81.1171 37.2817 80.3034 37.2817Z" fill="white"></path><path d="M88.7136 37.2817C87.6053 37.2817 86.715 36.9285 86.0433 36.2219C85.3828 35.5034 85.0527 34.4965 85.0527 33.2009C85.0527 32.2118 85.2766 31.3463 85.7247 30.6042C86.1847 29.8623 86.8271 29.2911 87.6523 28.8906C88.4897 28.4786 89.4506 28.2724 90.5352 28.2724C91.4312 28.2724 92.2212 28.3727 92.905 28.5727C93.6007 28.7611 94.2372 29.0379 94.8151 29.4029V36.4692C94.8151 36.6931 94.7737 36.8401 94.6912 36.9108C94.6087 36.9815 94.4436 37.017 94.1961 37.017H92.3921C92.2626 37.017 92.162 36.9992 92.0913 36.9637C92.0207 36.9167 91.9618 36.846 91.9148 36.7519L91.6847 36.2219C91.3427 36.5869 90.9301 36.8519 90.4468 37.017C89.9751 37.1935 89.3974 37.2817 88.7136 37.2817ZM90.0401 34.8793C90.4998 34.8793 90.8594 34.7675 91.1188 34.5438C91.3782 34.3199 91.5078 34.0019 91.5078 33.5896V30.834C91.2839 30.7278 91.0008 30.6749 90.6589 30.6749C90.0342 30.6749 89.5332 30.8929 89.1558 31.3286C88.7902 31.7643 88.6074 32.3766 88.6074 33.1657C88.6074 34.3081 89.0851 34.8793 90.0401 34.8793Z" fill="white"></path><path d="M105.924 36.3455C106.007 36.4399 106.048 36.5458 106.048 36.6635C106.048 36.7694 106.013 36.8578 105.942 36.9285C105.871 36.9874 105.777 37.017 105.659 37.017H102.918C102.753 37.017 102.629 37.0051 102.546 36.9815C102.476 36.946 102.399 36.8812 102.317 36.7871L99.9113 33.5192V36.1334C99.9113 36.4399 99.8406 36.6635 99.6992 36.8049C99.5575 36.946 99.3159 37.017 98.9739 37.017H97.2584C96.9165 37.017 96.6749 36.946 96.5335 36.8049C96.4036 36.6635 96.3389 36.4399 96.3389 36.1334V25.9053C96.3389 25.5991 96.4096 25.3753 96.5512 25.234C96.6926 25.0809 96.9283 25.0043 97.2584 25.0043H98.9739C99.3159 25.0043 99.5575 25.0809 99.6992 25.234C99.8406 25.3753 99.9113 25.5991 99.9113 25.9053V31.8231L102.246 28.7847C102.317 28.6907 102.393 28.6259 102.476 28.5904C102.558 28.5552 102.682 28.5375 102.847 28.5375H105.588C105.706 28.5375 105.795 28.5727 105.854 28.6433C105.924 28.7022 105.96 28.7847 105.96 28.8906C105.96 29.0086 105.918 29.1145 105.836 29.2086L102.812 32.6712L105.924 36.3455Z" fill="white"></path><path d="M111.667 37.2817C110.676 37.2817 109.792 37.1169 109.014 36.7871C108.248 36.4573 107.64 35.9628 107.192 35.3034C106.744 34.6438 106.52 33.8372 106.52 32.8832C106.52 31.3874 106.945 30.2451 107.794 29.4562C108.643 28.667 109.863 28.2724 111.455 28.2724C113.011 28.2724 114.19 28.6611 114.992 29.4384C115.805 30.2039 116.212 31.2697 116.212 32.6357C116.212 33.2246 115.953 33.5192 115.434 33.5192H109.881C109.881 34.0253 110.069 34.4143 110.447 34.6849C110.835 34.9559 111.419 35.0913 112.197 35.0913C112.681 35.0913 113.082 35.0499 113.4 34.9677C113.73 34.8733 114.06 34.7382 114.39 34.5613C114.532 34.5024 114.626 34.4728 114.673 34.4728C114.779 34.4728 114.868 34.5438 114.938 34.6849L115.54 35.8155C115.599 35.9335 115.628 36.0216 115.628 36.0805C115.628 36.1864 115.558 36.2866 115.416 36.3807C114.933 36.6987 114.384 36.9285 113.771 37.0699C113.158 37.2113 112.457 37.2817 111.667 37.2817ZM113.029 31.7702C113.029 31.3226 112.899 30.9751 112.639 30.7278C112.38 30.4805 111.991 30.3569 111.472 30.3569C110.953 30.3569 110.559 30.4864 110.287 30.7456C110.016 30.9931 109.881 31.3345 109.881 31.7702H113.029Z" fill="white"></path><path d="M122.274 37.2817C121.283 37.2817 120.346 37.1817 119.462 36.9815C118.577 36.7694 117.864 36.4751 117.321 36.0982C117.121 35.9687 117.021 35.8332 117.021 35.6918C117.021 35.5977 117.056 35.4978 117.127 35.3916L117.994 34.0138C118.088 33.8724 118.182 33.8017 118.276 33.8017C118.336 33.8017 118.436 33.8428 118.577 33.9253C119.014 34.1726 119.509 34.3729 120.063 34.5261C120.617 34.679 121.165 34.7556 121.707 34.7556C122.262 34.7556 122.668 34.6734 122.928 34.5083C123.199 34.3436 123.335 34.0785 123.335 33.7133C123.335 33.3601 123.187 33.0832 122.892 32.8832C122.609 32.683 122.073 32.4298 121.283 32.1236C120.092 31.6761 119.161 31.1756 118.489 30.6219C117.828 30.0567 117.498 29.2911 117.498 28.3254C117.498 27.1596 117.917 26.2704 118.754 25.658C119.591 25.0456 120.705 24.7394 122.097 24.7394C123.063 24.7394 123.889 24.8277 124.573 25.0044C125.268 25.1693 125.858 25.4283 126.341 25.7816C126.541 25.9347 126.642 26.0761 126.642 26.2056C126.642 26.2881 126.606 26.3823 126.535 26.4883L125.669 27.8662C125.563 28.0075 125.469 28.0781 125.386 28.0781C125.327 28.0781 125.227 28.0369 125.086 27.9545C124.401 27.507 123.588 27.2832 122.645 27.2832C122.138 27.2832 121.749 27.3656 121.478 27.5305C121.206 27.6954 121.071 27.9663 121.071 28.3431C121.071 28.6022 121.142 28.8143 121.283 28.9791C121.424 29.1438 121.613 29.2911 121.849 29.4207C122.097 29.5384 122.474 29.6916 122.981 29.8801L123.317 30.0037C124.189 30.3453 124.873 30.6749 125.368 30.9931C125.875 31.299 126.259 31.6817 126.518 32.1411C126.777 32.5886 126.907 33.1539 126.907 33.8372C126.907 34.8852 126.512 35.7214 125.722 36.3455C124.944 36.9696 123.794 37.2817 122.274 37.2817Z" fill="white"></path><path d="M130.665 37.017C130.488 37.017 130.353 36.9874 130.258 36.9285C130.164 36.8697 130.093 36.7519 130.046 36.5751L127.764 28.9439C127.741 28.8732 127.729 28.8202 127.729 28.7847C127.729 28.62 127.847 28.5375 128.083 28.5375H130.417C130.571 28.5375 130.682 28.567 130.753 28.6259C130.824 28.6729 130.871 28.7554 130.894 28.8732L131.849 32.8832L133.052 29.6502C133.112 29.5091 133.17 29.4148 133.228 29.3677C133.3 29.3089 133.418 29.2793 133.583 29.2793H134.696C134.862 29.2793 134.974 29.3089 135.033 29.3677C135.104 29.4148 135.168 29.5091 135.228 29.6502L136.412 32.8832L137.386 28.8732C137.42 28.7554 137.467 28.6729 137.527 28.6259C137.585 28.567 137.692 28.5375 137.845 28.5375H140.197C140.433 28.5375 140.551 28.62 140.551 28.7847C140.551 28.8202 140.539 28.8732 140.515 28.9439L138.216 36.5751C138.169 36.7519 138.098 36.8697 138.004 36.9285C137.922 36.9874 137.792 37.017 137.615 37.017H135.882C135.717 37.017 135.593 36.9874 135.51 36.9285C135.428 36.8578 135.357 36.7401 135.298 36.5751L134.131 33.3778L132.963 36.5751C132.916 36.7401 132.845 36.8578 132.751 36.9285C132.669 36.9874 132.546 37.017 132.38 37.017H130.665Z" fill="white"></path><path d="M145.034 37.2817C143.925 37.2817 143.036 36.9285 142.363 36.2219C141.703 35.5034 141.373 34.4965 141.373 33.2009C141.373 32.2118 141.596 31.3463 142.045 30.6042C142.504 29.8623 143.147 29.2911 143.972 28.8906C144.81 28.4786 145.77 28.2724 146.855 28.2724C147.752 28.2724 148.541 28.3727 149.225 28.5727C149.921 28.7611 150.558 29.0379 151.135 29.4029V36.4692C151.135 36.6931 151.094 36.8401 151.011 36.9108C150.928 36.9815 150.764 37.017 150.516 37.017H148.712C148.582 37.017 148.482 36.9992 148.411 36.9637C148.34 36.9167 148.282 36.846 148.235 36.7519L148.005 36.2219C147.663 36.5869 147.25 36.8519 146.767 37.017C146.295 37.1935 145.718 37.2817 145.034 37.2817ZM146.36 34.8793C146.82 34.8793 147.18 34.7675 147.439 34.5438C147.699 34.3199 147.828 34.0019 147.828 33.5896V30.834C147.603 30.7278 147.321 30.6749 146.979 30.6749C146.353 30.6749 145.853 30.8929 145.476 31.3286C145.111 31.7643 144.927 32.3766 144.927 33.1657C144.927 34.3081 145.406 34.8793 146.36 34.8793Z" fill="white"></path><path d="M153.578 40.5851C153.236 40.5851 152.995 40.5147 152.853 40.3733C152.723 40.2319 152.659 40.008 152.659 39.7019V29.5798C153.189 29.2027 153.856 28.8906 154.657 28.6433C155.459 28.3961 156.296 28.2724 157.168 28.2724C160.729 28.2724 162.509 29.7798 162.509 32.7948C162.509 34.1611 162.132 35.2502 161.378 36.063C160.623 36.8756 159.556 37.2817 158.177 37.2817C157.788 37.2817 157.41 37.2347 157.044 37.1403C156.691 37.0462 156.396 36.9167 156.161 36.7519V39.7019C156.161 40.008 156.089 40.2319 155.948 40.3733C155.807 40.5147 155.565 40.5851 155.223 40.5851H153.578ZM157.416 34.897C157.923 34.897 158.301 34.7086 158.548 34.3317C158.807 33.9431 158.937 33.4248 158.937 32.7771C158.937 32.0115 158.784 31.4759 158.478 31.1694C158.183 30.8517 157.723 30.6926 157.098 30.6926C156.697 30.6926 156.379 30.7456 156.143 30.8517V33.6603C156.143 34.0608 156.255 34.367 156.478 34.579C156.703 34.7911 157.015 34.897 157.416 34.897Z" fill="white"></path><path fill-rule="evenodd" clip-rule="evenodd" d="M26.6871 42.2342C23.3366 42.2316 20.6378 41.4287 18.7521 39.9863C16.8438 38.5266 15.8314 36.4551 15.8314 34.1109C15.8314 31.8524 16.8416 30.2239 17.9845 29.123C18.8803 28.2603 19.8687 27.7078 20.557 27.39C20.4013 26.9129 20.2072 26.2883 20.0334 25.6431C19.8009 24.7798 19.5729 23.7669 19.5729 23.0247C19.5729 22.1462 19.7646 21.2639 20.2817 20.5783C20.828 19.854 21.6503 19.466 22.6396 19.466C23.4129 19.466 24.0693 19.7524 24.5832 20.2467C25.0745 20.7191 25.4014 21.3464 25.6272 22.0004C26.0239 23.1496 26.1783 24.5934 26.2216 26.0342H27.1693C27.2126 24.5934 27.367 23.1496 27.7638 22.0004C27.9895 21.3464 28.3164 20.7191 28.8076 20.2467C29.3216 19.7524 29.9781 19.466 30.7512 19.466C31.7406 19.466 32.563 19.854 33.1091 20.5783C33.6262 21.2639 33.818 22.1462 33.818 23.0247C33.818 23.7669 33.5899 24.7798 33.3575 25.6431C33.1838 26.2883 32.9894 26.9129 32.834 27.39C33.5223 27.7078 34.5106 28.2603 35.4062 29.123C36.5494 30.2239 37.5594 31.8524 37.5594 34.1109C37.5594 36.4551 36.5472 38.5266 34.6388 39.9863C32.7531 41.4287 30.0541 42.2316 26.7038 42.2342H26.6871Z" fill="#633001"></path><path d="M22.6396 20.3015C21.1906 20.3015 20.5236 21.3923 20.5236 22.9009C20.5236 24.1 21.2986 26.5016 21.6166 27.4364C21.6881 27.6467 21.5757 27.8771 21.3708 27.9586C20.2094 28.4206 16.7821 30.1124 16.7821 33.9873C16.7821 38.0689 20.265 41.1462 26.6877 41.1512C26.6903 41.1512 26.6928 41.1509 26.6954 41.1509C26.698 41.1509 26.7005 41.1512 26.7031 41.1512C33.1258 41.1462 36.6086 38.0689 36.6086 33.9873C36.6086 30.1124 33.1816 28.4206 32.0201 27.9586C31.815 27.8771 31.7026 27.6467 31.7742 27.4364C32.0922 26.5016 32.8672 24.1 32.8672 22.9009C32.8672 21.3923 32.2003 20.3015 30.7512 20.3015C28.6654 20.3015 28.1454 23.283 28.1083 26.4828C28.1059 26.6964 27.9347 26.8697 27.723 26.8697H25.6678C25.4561 26.8697 25.285 26.6964 25.2825 26.4828C25.2454 23.283 24.7255 20.3015 22.6396 20.3015Z" fill="#D1884F"></path><path d="M26.7031 39.8438C21.984 39.8438 16.7903 37.2947 16.7821 33.9952C16.7821 34 16.7821 34.0053 16.7821 34.0104C16.7821 38.0954 20.2705 41.1743 26.7031 41.1743C33.1357 41.1743 36.6241 38.0954 36.6241 34.0104C36.6241 34.0053 36.6241 34 36.6241 33.9952C36.6159 37.2947 31.4221 39.8438 26.7031 39.8438Z" fill="#FEDC90"></path><path d="M24.081 32.9815C24.081 34.0954 23.5592 34.6756 22.9156 34.6756C22.272 34.6756 21.7502 34.0954 21.7502 32.9815C21.7502 31.8673 22.272 31.2872 22.9156 31.2872C23.5592 31.2872 24.081 31.8673 24.081 32.9815Z" fill="#633001"></path><path d="M31.6558 32.9815C31.6558 34.0954 31.1342 34.6756 30.4906 34.6756C29.8468 34.6756 29.3252 34.0954 29.3252 32.9815C29.3252 31.8673 29.8468 31.2872 30.4906 31.2872C31.1342 31.2872 31.6558 31.8673 31.6558 32.9815Z" fill="#633001"></path></g></g><defs><radialGradient id="paint0_radial_465_887" cx="0" cy="0" r="1" gradientUnits="userSpaceOnUse" gradientTransform="translate(82.0423 30.8726) scale(173.651 361.355)"><stop offset="0.08" stop-color="#0A3D4E"></stop><stop offset="0.548764" stop-color="#07212A"></stop></radialGradient><clipPath id="clip0_465_887"><rect width="178" height="61.962" fill="white"></rect></clipPath></defs></svg> 