<?xml version="1.0" encoding="UTF-8"?> <svg xmlns="http://www.w3.org/2000/svg" width="178" height="62" viewBox="0 0 178 62" fill="none"><g clip-path="url(#clip0_465_1053)"><path d="M171.643 0H6.35714C2.84619 0 0 2.8462 0 6.35715V55.388C0 58.899 2.8462 61.7452 6.35715 61.7452H171.643C175.154 61.7452 178 58.899 178 55.388V6.35714C178 2.84619 175.154 0 171.643 0Z" fill="url(#paint0_radial_465_1053)"></path><mask id="mask0_465_1053" style="mask-type:luminance" maskUnits="userSpaceOnUse" x="55" y="11" width="68" height="39"><path d="M122.234 11.8615H55.7659V49.8837H122.234V11.8615Z" fill="white"></path></mask><g mask="url(#mask0_465_1053)"><path fill-rule="evenodd" clip-rule="evenodd" d="M109.822 15.6669C109.822 13.382 107.821 11.6125 105.552 11.8902L59.1098 17.5762C57.2006 17.8099 55.7659 19.4303 55.7659 21.3528V32.9649C55.7659 34.6421 57.2425 35.9366 58.9065 35.7177C60.5702 35.4989 62.0468 36.793 62.0468 38.4705V46.0783C62.0468 48.3706 64.06 50.1425 66.3352 49.8527L118.678 43.181C120.579 42.9388 122.003 41.3222 122.003 39.407V28.9506C122.003 26.6991 120.058 24.94 117.816 25.1649L112.962 25.6521C111.281 25.8208 109.822 24.5015 109.822 22.8127V15.6669ZM101.374 37.9354C100.77 38.0148 100.399 37.6892 100.399 37.0964V34.7939C100.399 34.5835 100.568 34.3912 100.776 34.3636L102.048 34.1963C102.257 34.1689 102.426 33.9763 102.426 33.7662V32.2805C102.426 32.0704 102.257 31.9223 102.048 31.9499L100.714 32.1253C100.506 32.1529 100.337 32.0048 100.337 31.7947V30.1065C100.337 29.8964 100.168 29.7482 99.9594 29.7756L99.8963 29.7837C99.7924 29.7975 99.693 29.8539 99.6217 29.9398L96.3961 33.8172V33.0429C96.3961 32.8328 96.2274 32.6847 96.0187 32.712L95.6224 32.7641C94.8532 32.8655 94.2519 33.1142 93.7461 33.5781C93.532 33.7744 93.2005 33.7752 93.0822 33.5443L92.9865 33.3572C92.9236 33.2342 92.7916 33.168 92.6468 33.1868L91.3267 33.3606C91.1183 33.3882 90.9493 33.5806 90.9493 33.7907V41.4537C90.9493 41.6638 91.1183 41.812 91.3267 41.7846L93.45 41.5053C93.6585 41.4776 93.8275 41.2853 93.8275 41.0752V37.1811C93.8275 36.1047 94.2606 35.5955 95.2667 35.4631L96.0187 35.364C96.2251 35.3369 96.393 35.1477 96.3961 34.9401L97.1433 34.8418C97.3517 34.8142 97.5207 34.9623 97.5207 35.1724V37.9588C97.5207 39.8309 98.6503 40.8208 100.492 40.5786L102.095 40.3677C102.303 40.3404 102.472 40.1477 102.472 39.9373V38.1711C102.472 37.961 102.303 37.8132 102.095 37.8405L101.374 37.9354ZM78.4358 39.9866C78.4358 40.5792 78.807 40.9048 79.4106 40.8254L80.1319 40.7304C80.3403 40.7031 80.5093 40.8513 80.5093 41.0614V42.8276C80.5093 43.0377 80.3403 43.2303 80.1319 43.2576L78.5287 43.4686C76.6871 43.7111 75.5577 42.7208 75.5577 40.8487V38.0627C75.5577 37.8523 75.3887 37.7044 75.1803 37.7318L74.4032 37.834C74.3238 37.8444 74.25 37.8295 74.1894 37.7954L74.1906 37.8033C74.2218 38.0097 74.0489 38.2083 73.8379 38.2359L71.8918 38.4919C71.6831 38.5195 71.5287 38.3598 71.4397 38.1815C71.3099 37.9213 71.0198 37.8267 70.6477 37.8757C70.1836 37.9368 69.8741 38.2117 69.8741 38.6015C69.8741 39.0696 70.5083 39.111 71.2975 39.1473L71.3465 39.1496C72.6708 39.2079 74.377 39.2831 74.377 41.3785C74.377 43.1413 72.9068 44.4893 70.6787 44.7825C68.5684 45.0602 67.2305 44.1888 67.0235 42.6076C66.9962 42.4003 67.1689 42.2023 67.3798 42.1744L69.3882 41.9103C69.5966 41.8829 69.7541 42.039 69.829 42.2251C69.9681 42.571 70.3222 42.6921 70.7404 42.6372C71.1584 42.582 71.5606 42.3108 71.5606 41.8739C71.5606 41.3903 70.9263 41.3334 70.1216 41.3146C68.8218 41.2673 67.1041 41.1033 67.1041 39.0597C67.1041 37.3749 68.5433 36.0934 70.6787 35.8126C72.3669 35.5904 73.5938 36.1512 74.0393 37.2454C74.0554 37.184 74.0858 37.1251 74.1283 37.0738L77.6587 32.8297C77.73 32.7438 77.8294 32.6875 77.9333 32.674L77.9964 32.6655C78.2049 32.6382 78.3738 32.7863 78.3738 32.9965V34.6846C78.3738 34.8947 78.5428 35.0429 78.7512 35.0153L80.0854 34.8398C80.2938 34.8125 80.4628 34.9607 80.4628 35.1708V36.6562C80.4628 36.8663 80.2938 37.0589 80.0854 37.0862L78.8132 37.2535C78.6048 37.2811 78.4358 37.4738 78.4358 37.6839V39.9866ZM87.9898 33.7997C87.8473 33.8186 87.718 33.9197 87.6591 34.0583C87.56 34.2923 87.2786 34.3931 87.0761 34.2889C86.4607 33.9718 85.7211 33.8487 84.9083 33.9557C82.3552 34.2917 80.5293 36.3883 80.5293 38.9935C80.5293 41.6142 82.3552 43.2458 84.9083 42.9098C85.7256 42.8025 86.4666 42.4857 87.086 42.0026C87.2651 41.8629 87.5135 41.892 87.5963 42.079C87.6459 42.1913 87.7617 42.2536 87.8898 42.237L89.5293 42.0212C89.7377 41.9936 89.9067 41.8013 89.9067 41.5909V33.9281C89.9067 33.718 89.7377 33.5699 89.5293 33.5972L87.9898 33.7997ZM85.2953 40.3006C84.2121 40.4432 83.4229 39.7202 83.4229 38.6127C83.4229 37.5205 84.2121 36.6057 85.2953 36.4629C86.3785 36.3204 87.1677 37.0279 87.1677 38.1199C87.1677 39.2276 86.3785 40.1581 85.2953 40.3006ZM107.026 31.0297C109.719 30.6754 111.576 32.3653 111.576 34.8302C111.576 34.9809 111.571 35.1274 111.561 35.2752C111.547 35.4696 111.385 35.6352 111.193 35.6603L105.782 36.3725C105.544 36.4038 105.363 36.6483 105.451 36.8589C105.719 37.5 106.265 37.7754 107.026 37.6752C107.601 37.5994 108.107 37.3115 108.404 36.8899C108.49 36.7677 108.614 36.6705 108.754 36.6522L110.893 36.3706C111.148 36.3373 111.329 36.5621 111.227 36.8102C110.519 38.5384 108.934 39.7486 107.026 39.9996C104.411 40.3437 102.492 38.6772 102.492 36.1033C102.492 33.5293 104.396 31.3759 107.026 31.0297ZM108.547 33.9335C108.238 33.4336 107.715 33.2164 107.026 33.3071C106.36 33.395 105.851 33.7493 105.555 34.3317C105.434 34.568 105.618 34.7874 105.867 34.7545L108.238 34.4424C108.491 34.4092 108.674 34.1371 108.547 33.9335ZM116.785 29.9795C116.015 30.0809 115.414 30.3293 114.908 30.7934C114.694 30.9897 114.363 30.9906 114.244 30.7596L114.149 30.5726C114.085 30.4495 113.954 30.3833 113.809 30.4022L112.489 30.576C112.281 30.6036 112.111 30.796 112.111 31.0061V38.6691C112.111 38.8792 112.281 39.0273 112.489 39L114.612 38.7206C114.82 38.693 114.99 38.5007 114.99 38.2905V34.3965C114.99 33.3201 115.423 32.8106 116.429 32.6785L117.181 32.5793C117.389 32.552 117.558 32.3594 117.558 32.1493V30.2583C117.558 30.0482 117.389 29.9 117.181 29.9274L116.785 29.9795ZM100.76 17.8048C103.448 17.4153 105.301 19.0811 105.301 21.5459C105.301 21.6967 105.296 21.8432 105.286 21.9912C105.273 22.1856 105.111 22.3534 104.92 22.3811L99.5175 23.164C99.2807 23.1983 99.0993 23.4452 99.1872 23.6546C99.4547 24.2923 99.9997 24.5605 100.76 24.4503C101.334 24.3671 101.839 24.0725 102.135 23.647C102.221 23.5237 102.345 23.425 102.485 23.4048L104.621 23.0953C104.874 23.0585 105.055 23.281 104.953 23.5304C104.246 25.2679 102.664 26.4988 100.76 26.7747C98.1496 27.153 96.2341 25.5118 96.2341 22.9378C96.2341 20.3639 98.1341 18.1854 100.76 17.8048ZM102.279 20.6887C101.969 20.193 101.448 19.9827 100.76 20.0824C100.095 20.1788 99.5871 20.5399 99.2911 21.1262C99.1711 21.3641 99.3536 21.581 99.6029 21.5448L101.97 21.2018C102.222 21.1653 102.404 20.8906 102.279 20.6887ZM92.798 18.9899C91.9463 19.1132 91.1679 19.5431 90.5832 20.1662C90.3956 20.3661 90.0883 20.3985 89.91 20.2419C89.3884 19.7843 88.6705 19.588 87.84 19.7084C87.0899 19.8171 86.3872 20.1868 85.8284 20.7288C85.613 20.9377 85.2688 20.9361 85.1567 20.6952L85.097 20.567C85.0367 20.4377 84.9015 20.3682 84.7523 20.3899L83.3511 20.5929C83.1429 20.6231 82.9745 20.8178 82.9745 21.028V28.6909C82.9745 28.901 83.1429 29.0469 83.3511 29.0168L85.4707 28.7095C85.6786 28.6794 85.8473 28.4848 85.8473 28.2747V24.0375C85.8473 22.9923 86.2799 22.3681 87.0522 22.2561C87.6546 22.1688 87.9788 22.5742 87.9788 23.4322V27.9656C87.9788 28.1758 88.1475 28.3217 88.3556 28.2916L90.3979 27.9956C90.606 27.9654 90.7747 27.7706 90.7747 27.5605V23.3234C90.7747 22.2626 91.1763 21.6584 91.9641 21.5443C92.582 21.4548 92.891 21.8312 92.891 22.7203V27.2538C92.891 27.4639 93.0594 27.6098 93.2675 27.5797L95.3872 27.2725C95.5951 27.2424 95.7638 27.0476 95.7638 26.8375V21.9452C95.7638 19.964 94.5899 18.7302 92.798 18.9899ZM66.538 25.9995C66.538 25.7894 66.7067 25.5946 66.9145 25.5644L72.0926 24.8141C72.3004 24.7839 72.4703 24.9302 72.4604 25.1415C72.3016 28.5355 70.0309 31.228 66.7695 31.7006C63.4641 32.1797 61.0081 30.1332 61.0081 26.8104C61.0081 23.4876 63.4176 20.7205 66.7388 20.2392C69.4108 19.852 71.6186 21.1178 72.2582 23.315C72.3221 23.5347 72.1438 23.7771 71.9081 23.8112L69.475 24.1638C69.3237 24.1857 69.1897 24.1122 69.1153 23.9899C68.674 23.2636 67.7735 22.8972 66.7695 23.0427C65.1478 23.2777 64.0665 24.62 64.0665 26.3672C64.0665 28.0988 65.1323 29.1297 66.7695 28.8926C67.6767 28.7611 68.4768 28.2916 68.9381 27.6576C69.108 27.4243 68.9328 27.1751 68.6652 27.2139L66.9145 27.4676C66.7067 27.4978 66.538 27.3519 66.538 27.1417V25.9995ZM79.6903 21.3385C79.7488 21.1991 79.8781 21.0962 80.0203 21.0756L81.557 20.8529C81.7649 20.8227 81.9336 20.9687 81.9336 21.1788V28.8416C81.9336 29.0517 81.7649 29.2466 81.557 29.2768L79.9206 29.5139C79.7925 29.5325 79.677 29.4717 79.6274 29.3598C79.5449 29.174 79.2968 29.1481 79.1182 29.29C78.5 29.7815 77.7601 30.1079 76.9445 30.2259C74.3959 30.5954 72.5733 28.9875 72.5733 26.3667C72.5733 23.7616 74.3959 21.6411 76.9445 21.2717C77.7556 21.1542 78.4938 21.2677 79.1084 21.5767C79.3103 21.6783 79.5914 21.5738 79.6903 21.3385ZM75.4616 25.9482C75.4616 27.0558 76.2494 27.7684 77.3306 27.6117C78.4119 27.455 79.1996 26.514 79.1996 25.4065C79.1996 24.3145 78.4119 23.6175 77.3306 23.7742C76.2494 23.9308 75.4616 24.8562 75.4616 25.9482Z" fill="white"></path></g></g><defs><radialGradient id="paint0_radial_465_1053" cx="0" cy="0" r="1" gradientUnits="userSpaceOnUse" gradientTransform="translate(82.0423 30.8726) scale(173.651 361.355)"><stop offset="0.08" stop-color="#0A3D4E"></stop><stop offset="0.548764" stop-color="#07212A"></stop></radialGradient><clipPath id="clip0_465_1053"><rect width="178" height="61.962" fill="white"></rect></clipPath></defs></svg> 