<?xml version="1.0" encoding="UTF-8"?> <svg xmlns="http://www.w3.org/2000/svg" width="178" height="63" viewBox="0 0 178 63" fill="none"><g clip-path="url(#clip0_465_1102)"><path d="M171.643 0.962036H6.35714C2.84619 0.962036 0 3.80823 0 7.31918V56.35C0 59.861 2.8462 62.7072 6.35715 62.7072H171.643C175.154 62.7072 178 59.861 178 56.35V7.31918C178 3.80823 175.154 0.962036 171.643 0.962036Z" fill="url(#paint0_radial_465_1102)"></path><path d="M48.0028 38.8862C46.8059 40.0778 45.2101 40.6738 43.1152 40.6738C41.1203 40.6738 39.5242 40.0778 38.2275 38.8862C37.0305 37.6943 36.432 36.2046 36.432 34.3176C36.432 32.4306 37.0305 30.9407 38.2275 29.749C39.5242 28.5571 41.1203 27.9612 43.1152 27.9612C45.1103 27.9612 46.7062 28.5571 48.0028 29.749C49.1998 30.9407 49.7983 32.4306 49.7983 34.3176C49.7983 36.2046 49.1998 37.6943 48.0028 38.8862ZM43.1152 37.4957C44.0131 37.4957 44.7113 37.1977 45.2101 36.6018C45.7088 36.0058 46.008 35.3107 46.008 34.3176C46.008 33.4237 45.7088 32.6292 45.2101 32.0332C44.7113 31.4372 44.0131 31.1395 43.1152 31.1395C42.2176 31.1395 41.5194 31.4372 41.0206 32.0332C40.5218 32.6292 40.2224 33.4237 40.2224 34.3176C40.2224 35.2113 40.5218 36.0058 41.0206 36.6018C41.5194 37.1977 42.2176 37.4957 43.1152 37.4957Z" fill="white"></path><path d="M51.4941 40.2766V22.8961H55.2848V40.2766H51.4941Z" fill="white"></path><path d="M69.8481 40.2766H65.1599L61.3695 35.1121V40.2766H57.5791V22.8961H61.3695V33.3242L65.2596 28.3585H69.7484L64.9605 34.0196L69.8481 40.2766Z" fill="white"></path><path d="M75.2346 40.6738C73.5388 40.6738 72.1424 40.0778 71.1448 38.8862C70.1472 37.6943 69.6487 36.2046 69.6487 34.3176C69.6487 32.5297 70.1472 30.9407 71.2445 29.749C72.2421 28.5571 73.6385 27.9612 75.3343 27.9612C76.1322 27.9612 76.9303 28.1599 77.6285 28.4578C78.227 28.7558 78.8255 29.3516 79.1246 29.9476V28.3585H82.9153V40.2767H79.0249V38.5882C78.7258 39.1842 78.227 39.6807 77.5288 40.0778C76.8306 40.4752 76.0325 40.6738 75.2346 40.6738ZM76.3318 37.4957C77.2295 37.4957 77.9277 37.1977 78.4264 36.6018C78.9252 36.0058 79.2246 35.2113 79.2246 34.3176C79.2246 33.4237 78.9252 32.6292 78.4264 32.0332C77.9277 31.4372 77.2295 31.1395 76.3318 31.1395C75.434 31.1395 74.7358 31.4372 74.237 32.0332C73.7382 32.6292 73.4391 33.3243 73.4391 34.3176C73.4391 35.2113 73.7382 36.0058 74.237 36.6018C74.8355 37.1977 75.434 37.4957 76.3318 37.4957Z" fill="white"></path><path d="M90.197 40.6738C88.5012 40.6738 87.1048 40.2767 86.1072 39.5813C85.1096 38.7868 84.5111 37.8928 84.5111 36.7012H88.3018C88.3018 37.0983 88.5012 37.4957 88.8006 37.6943C89.1994 37.9922 89.5985 38.0917 90.197 38.0917C90.5961 38.0917 90.9949 37.9922 91.1946 37.7937C91.4937 37.5951 91.5934 37.2971 91.5934 36.9992C91.5934 36.5026 91.2943 36.1052 90.6958 36.0058L87.803 35.2113C86.8054 34.9136 86.1072 34.5162 85.6084 33.9202C85.1096 33.3243 84.8105 32.6292 84.8105 31.7352C84.8105 30.6427 85.3093 29.6496 86.2069 28.9544C87.2045 28.3585 88.4015 27.9612 89.9976 27.9612C91.6931 27.9612 93.0897 28.2592 93.9874 28.9544C94.8852 29.6496 95.384 30.5436 95.384 31.7352H91.5934C91.5934 31.3381 91.4937 31.0401 91.1946 30.7421C90.7955 30.5436 90.3964 30.3447 89.8979 30.3447C89.4988 30.3447 89.0997 30.4441 88.9003 30.6427C88.7009 30.8415 88.5012 31.0401 88.5012 31.3381C88.5012 31.8346 88.8006 32.2318 89.4988 32.4306L92.2918 33.2251C93.1894 33.5231 93.9874 33.9202 94.4861 34.4168C94.9849 35.0127 95.2843 35.7081 95.2843 36.5026C95.2843 37.7937 94.7855 38.7868 93.8877 39.4822C93.0897 40.2767 91.7931 40.6738 90.197 40.6738Z" fill="white"></path><path d="M102.666 37.3963C103.065 37.3963 103.563 37.3963 103.962 37.2971V40.2767C103.165 40.3758 102.267 40.4752 101.469 40.4752C101.07 40.4752 100.671 40.4752 100.272 40.3758C99.8727 40.2767 99.4736 40.1772 99.1745 40.0778C98.7754 39.8793 98.4763 39.6807 98.1769 39.3827C97.8778 39.0847 97.6781 38.6876 97.4787 38.0916C97.2793 37.4957 97.1796 36.8006 97.1796 36.1052V22.9954H100.97V28.3585H103.663V31.3381H100.97V35.3107C100.97 36.1052 101.07 36.7012 101.369 36.8997C101.668 37.1977 102.167 37.3963 102.666 37.3963Z" fill="white"></path><path d="M110.945 40.6738C109.249 40.6738 107.853 40.0778 106.855 38.8862C105.858 37.6943 105.359 36.2046 105.359 34.3176C105.359 32.5297 105.858 30.9407 106.955 29.749C108.052 28.5571 109.349 27.9612 111.045 27.9612C111.843 27.9612 112.641 28.1599 113.339 28.4578C113.937 28.7558 114.536 29.3516 114.835 29.9476V28.3585H118.626V40.2767H114.835V38.5882C114.536 39.1842 114.037 39.6807 113.339 40.0778C112.541 40.4752 111.743 40.6738 110.945 40.6738ZM112.042 37.4957C112.94 37.4957 113.638 37.1977 114.137 36.6018C114.636 36.0058 114.935 35.2113 114.935 34.3176C114.935 33.4237 114.636 32.6292 114.137 32.0332C113.638 31.4372 112.94 31.1395 112.042 31.1395C111.144 31.1395 110.446 31.4372 109.947 32.0332C109.449 32.6292 109.149 33.3243 109.149 34.3176C109.149 35.2113 109.449 36.0058 109.947 36.6018C110.446 37.1977 111.144 37.4957 112.042 37.4957Z" fill="white"></path><path d="M120.222 40.2766V28.3585H124.012V30.8415C124.212 29.9476 124.61 29.3516 125.209 28.8551C125.807 28.3585 126.506 28.1599 127.304 28.1599C127.603 28.1599 128.002 28.1599 128.301 28.2592V31.8346C127.902 31.8346 127.503 31.7352 127.104 31.7352C125.01 31.7352 123.912 33.0265 123.912 35.7081V40.2766H120.222Z" fill="white"></path><path d="M135.583 37.3963C135.982 37.3963 136.481 37.3963 136.88 37.2971V40.2767C136.082 40.3758 135.184 40.4752 134.386 40.4752C133.987 40.4752 133.588 40.4752 133.189 40.3758C132.79 40.2767 132.391 40.1772 132.092 40.0778C131.693 39.8793 131.394 39.6807 131.094 39.3827C130.795 39.0847 130.595 38.6876 130.396 38.0916C130.197 37.4957 130.097 36.8006 130.097 36.1052V22.9954H133.887V28.3585H136.58V31.3381H133.887V35.3107C133.887 36.1052 133.987 36.7012 134.286 36.8997C134.685 37.1977 135.084 37.3963 135.583 37.3963Z" fill="white"></path><path d="M150.945 33.7217C150.945 34.3176 150.945 34.8142 150.845 35.4101H141.967C141.967 36.2046 142.266 36.8006 142.765 37.1977C143.264 37.5951 143.962 37.8928 144.76 37.7937C145.957 37.7937 146.655 37.3963 146.955 36.7012H150.645C150.446 37.8928 149.847 38.8862 148.75 39.5813C147.653 40.2767 146.256 40.6738 144.66 40.6738C142.665 40.6738 140.97 40.0778 139.872 38.9853C138.675 37.8928 138.077 36.3038 138.077 34.3176C138.077 32.3312 138.675 30.8415 139.872 29.6496C141.069 28.5571 142.665 27.9612 144.561 27.9612C146.456 27.9612 147.952 28.4578 149.049 29.5502C150.346 30.6427 150.945 32.0332 150.945 33.7217ZM141.967 33.0266H147.154C147.154 32.2318 146.955 31.6361 146.456 31.1395C146.057 30.7421 145.358 30.5436 144.561 30.5436C143.763 30.5436 143.064 30.7421 142.665 31.2387C142.266 31.6361 141.967 32.2318 141.967 33.0266Z" fill="white"></path><path d="M152.74 40.2766V28.3585H156.53V30.8415C156.73 29.9476 157.129 29.3516 157.727 28.8551C158.326 28.3585 159.024 28.1599 159.822 28.1599C160.121 28.1599 160.52 28.1599 160.82 28.2592V31.8346C160.42 31.8346 160.022 31.7352 159.623 31.7352C157.528 31.7352 156.431 33.0265 156.431 35.7081V40.2766H152.74Z" fill="white"></path><path fill-rule="evenodd" clip-rule="evenodd" d="M34.0379 24.6837C32.8409 23.492 31.3448 22.8961 29.5494 22.8961H22.1678V27.564V30.047C23.7638 30.5435 24.9608 32.0331 24.9608 33.821C24.9608 35.6086 23.7638 37.0983 22.1678 37.5951V40.2766H26.1578V35.4101H29.5494C31.3448 35.4101 32.8409 34.8141 34.0379 33.6222C35.2349 32.4305 35.8334 30.9406 35.8334 29.153C35.8334 27.3653 35.2349 25.8756 34.0379 24.6837ZM30.9458 31.338C30.447 31.934 29.7488 32.232 28.9509 32.232H26.1578V26.1735H28.9509C29.7488 26.1735 30.447 26.4715 30.9458 27.0674C31.4445 27.6633 31.7437 28.3585 31.7437 29.2525C31.7437 30.047 31.4445 30.7421 30.9458 31.338Z" fill="white"></path><path d="M20.0731 36.8006C21.6691 36.8006 22.9659 35.5093 22.9659 33.9202C22.9659 32.3312 21.6691 31.0401 20.0731 31.0401C18.4772 30.9407 17.1804 32.232 17.1804 33.9202C17.1804 35.5093 18.4772 36.8006 20.0731 36.8006Z" fill="#F35165"></path></g><defs><radialGradient id="paint0_radial_465_1102" cx="0" cy="0" r="1" gradientUnits="userSpaceOnUse" gradientTransform="translate(82.0423 31.8346) scale(173.651 361.355)"><stop offset="0.08" stop-color="#0A3D4E"></stop><stop offset="0.548764" stop-color="#07212A"></stop></radialGradient><clipPath id="clip0_465_1102"><rect width="178" height="61.962" fill="white" transform="translate(0 0.962036)"></rect></clipPath></defs></svg> 