<?xml version="1.0" encoding="UTF-8"?> <svg xmlns="http://www.w3.org/2000/svg" width="178" height="63" viewBox="0 0 178 63" fill="none"><g clip-path="url(#clip0_465_760)"><mask id="mask0_465_760" style="mask-type:luminance" maskUnits="userSpaceOnUse" x="0" y="0" width="178" height="63"><path d="M178 0.886047H0V62.6312H178V0.886047Z" fill="white"></path></mask><g mask="url(#mask0_465_760)"><path d="M171.643 0.886047H6.35714C2.84619 0.886047 0 3.73224 0 7.2432V56.2741C0 59.785 2.8462 62.6312 6.35715 62.6312H171.643C175.154 62.6312 178 59.785 178 56.2741V7.24319C178 3.73224 175.154 0.886047 171.643 0.886047Z" fill="url(#paint0_radial_465_760)"></path><path d="M40.9755 31.0514C39.5669 30.5971 38.4877 29.8815 37.738 28.9044C37.011 27.9275 36.6475 26.7461 36.6475 25.3603C36.6475 24.1334 36.9542 23.0429 37.5676 22.0887C38.2038 21.1118 39.1239 20.3507 40.328 19.8054C41.5321 19.2375 42.9748 18.9535 44.656 18.9535C46.3372 18.9535 47.7798 19.2375 48.9839 19.8054C50.188 20.3507 51.0968 21.1118 51.7102 22.0887C52.3464 23.0429 52.6644 24.1334 52.6644 25.3603C52.6644 26.7234 52.2896 27.9048 51.5398 28.9044C50.8128 29.904 49.745 30.6196 48.3364 31.0514C49.8814 31.4375 51.0968 32.176 51.9829 33.2665C52.8689 34.3571 53.3119 35.6862 53.3119 37.2535C53.3119 38.7077 52.9483 39.9799 52.2214 41.0704C51.5171 42.1384 50.5061 42.9675 49.1884 43.5582C47.8934 44.1488 46.3826 44.4442 44.656 44.4442C42.9293 44.4442 41.4071 44.1488 40.0894 43.5582C38.7945 42.9675 37.7835 42.1384 37.0565 41.0704C36.3521 39.9799 36 38.7077 36 37.2535C36 35.6862 36.443 34.3571 37.3291 33.2665C38.2151 32.176 39.4306 31.4375 40.9755 31.0514ZM50.3471 25.6329C50.3471 24.1334 49.8359 22.9747 48.8135 22.1569C47.7912 21.339 46.4053 20.93 44.656 20.93C42.9066 20.93 41.5207 21.339 40.4984 22.1569C39.476 22.952 38.9649 24.1107 38.9649 25.6329C38.9649 27.0414 39.4874 28.166 40.5325 29.0067C41.5775 29.8474 42.952 30.2676 44.656 30.2676C46.3599 30.2676 47.7344 29.8474 48.7795 29.0067C49.8245 28.166 50.3471 27.0414 50.3471 25.6329ZM44.656 32.1079C42.793 32.1079 41.2708 32.5281 40.0894 33.3688C38.908 34.2092 38.3174 35.4817 38.3174 37.1854C38.3174 38.8212 38.8853 40.1049 40.0213 41.0363C41.1572 41.968 42.7021 42.4335 44.656 42.4335C46.5871 42.4335 48.1206 41.968 49.2566 41.0363C50.3925 40.0821 50.9605 38.7986 50.9605 37.1854C50.9605 35.5042 50.3698 34.2433 49.1884 33.4029C48.0297 32.5393 46.5189 32.1079 44.656 32.1079ZM57.5045 31.29C57.5045 27.3822 58.1063 24.3493 59.3106 22.1909C60.5147 20.0326 62.6729 18.9535 65.7854 18.9535C68.8979 18.9535 71.0564 20.0326 72.2604 22.1909C73.4645 24.3493 74.0666 27.3822 74.0666 31.29C74.0666 35.2657 73.4645 38.3441 72.2604 40.5251C71.0564 42.7062 68.8979 43.7967 65.7854 43.7967C62.6501 43.7967 60.4806 42.7062 59.2766 40.5251C58.0951 38.3441 57.5045 35.2657 57.5045 31.29ZM71.7152 31.29C71.7152 29.1771 71.5676 27.3936 71.2721 25.9396C70.9767 24.4855 70.3973 23.3155 69.5341 22.4295C68.6709 21.5434 67.4212 21.1004 65.7854 21.1004C64.1496 21.1004 62.9002 21.5434 62.0367 22.4295C61.1735 23.3155 60.5941 24.4855 60.2989 25.9396C60.0035 27.3936 59.8559 29.1771 59.8559 31.29C59.8559 33.471 60.0035 35.2997 60.2989 36.7767C60.5941 38.2306 61.1735 39.4005 62.0367 40.2866C62.9002 41.1726 64.1496 41.6157 65.7854 41.6157C67.4212 41.6157 68.6709 41.1726 69.5341 40.2866C70.3973 39.4005 70.9767 38.2306 71.2721 36.7767C71.5676 35.2997 71.7152 33.471 71.7152 31.29ZM81.6733 31.8011C81.6733 29.461 82.1845 27.3709 83.2069 25.5306C84.2292 23.6677 85.6265 22.225 87.3986 21.2027C89.1704 20.1576 91.147 19.635 93.3281 19.635C95.9863 19.635 98.2583 20.2712 100.144 21.5434C102.052 22.793 103.438 24.5651 104.302 26.8597H101.507C100.825 25.2466 99.7803 23.9857 98.3718 23.077C96.9858 22.1682 95.3047 21.7138 93.3281 21.7138C91.5788 21.7138 89.9999 22.1228 88.5911 22.9407C87.2054 23.7586 86.1149 24.9399 85.3198 26.4848C84.5244 28.007 84.127 29.7792 84.127 31.8011C84.127 33.8231 84.5244 35.5952 85.3198 37.1172C86.1149 38.6395 87.2054 39.8095 88.5911 40.6274C89.9999 41.4453 91.5788 41.8542 93.3281 41.8542C95.3047 41.8542 96.9858 41.4112 98.3718 40.5251C99.7803 39.6165 100.825 38.3669 101.507 36.7767H104.302C103.438 39.0485 102.052 40.8093 100.144 42.0587C98.2355 43.3083 95.9634 43.933 93.3281 43.933C91.147 43.933 89.1704 43.4218 87.3986 42.3995C85.6265 41.3546 84.2292 39.9117 83.2069 38.0714C82.1845 36.2314 81.6733 34.1411 81.6733 31.8011ZM111.44 21.8502V30.7447H120.471V32.7213H111.44V41.752H121.493V43.7286H109.055V19.8736H121.493V21.8502H111.44ZM134.782 31.8352L142.006 43.7286H139.348L133.282 33.7777L127.523 43.7286H124.865L132.055 31.733L124.865 19.9077H127.523L133.555 29.8246L139.382 19.9077H142.04L134.782 31.8352Z" fill="white"></path></g></g><defs><radialGradient id="paint0_radial_465_760" cx="0" cy="0" r="1" gradientUnits="userSpaceOnUse" gradientTransform="translate(82.0423 31.7586) scale(173.651 361.355)"><stop offset="0.08" stop-color="#0A3D4E"></stop><stop offset="0.548764" stop-color="#07212A"></stop></radialGradient><clipPath id="clip0_465_760"><rect width="178" height="61.962" fill="white" transform="translate(0 0.886047)"></rect></clipPath></defs></svg> 