<?xml version="1.0" encoding="UTF-8"?> <svg xmlns="http://www.w3.org/2000/svg" width="178" height="62" viewBox="0 0 178 62" fill="none"><g clip-path="url(#clip0_465_794)"><path d="M171.643 0H6.35714C2.84619 0 0 2.8462 0 6.35715V55.388C0 58.899 2.8462 61.7452 6.35715 61.7452H171.643C175.154 61.7452 178 58.899 178 55.388V6.35714C178 2.84619 175.154 0 171.643 0Z" fill="url(#paint0_radial_465_794)"></path><path d="M33.6256 15.3936C33.9304 15.5348 33.818 15.8248 33.8746 16.0605C34.0101 16.6233 34.2162 16.9036 34.8254 16.4229C35.3363 16.0198 35.9543 15.7527 36.744 15.2996C36.2925 16.9502 37.3087 17.3026 38.3632 17.815C41.4156 19.298 43.4657 21.7918 44.8526 24.8299C45.1058 25.3847 45.1889 25.5068 45.8057 25.3141C46.9531 24.9558 48.423 25.6761 49.0575 26.7379C50.0768 28.4428 49.8788 32.383 47.4938 33.5952C46.6069 34.0462 46.5934 34.6049 46.6492 35.607C46.7771 37.8963 46.1234 40.1134 44.5732 41.9128C41.2109 45.8161 36.8124 47.0942 31.8298 46.8115C31.7301 46.8058 31.6375 46.6782 31.5412 46.6076C30.7835 46.2513 30.0839 45.8043 29.504 45.1979C29.299 44.9836 28.9466 44.7397 29.3688 44.3955C30.5714 44.4471 31.6797 44.9892 32.8936 45.0287C36.0061 45.1292 38.6347 44.1457 40.5783 41.6481C41.795 40.0846 42.0724 38.279 41.5418 36.4021C41.1946 35.1739 41.2582 34.0777 41.8322 32.9255C42.8979 30.7864 42.6763 29.0968 41.2658 27.58C39.8703 26.0795 37.7196 25.6055 35.707 26.5163C34.1867 27.2041 32.7621 27.2768 31.2649 26.5127C30.2338 25.9865 29.1193 25.9561 27.9965 26.215C27.5833 26.3103 27.1802 26.5058 26.7392 26.3551C26.342 26.0784 26.3953 25.6761 26.5176 25.3144C27.7433 21.6983 29.5646 18.4551 32.4942 15.9237C32.8131 15.6483 33.1527 15.365 33.6256 15.3936Z" fill="#A06552"></path><path d="M33.6254 15.3936C30.2366 17.9641 28.1832 21.445 26.8219 25.3935C26.7268 25.6694 26.7196 25.9757 26.6714 26.2678C26.7093 26.4831 26.6032 26.6421 26.4687 26.7902C24.4862 28.4062 23.6583 30.5816 25.172 33.1562C25.6872 34.0324 25.7193 34.9894 25.4651 36.0106C24.656 39.2608 25.5323 41.5413 28.235 43.4703C28.6084 43.7939 29.1453 43.9719 29.2241 44.5617C29.9964 45.2435 30.7689 45.9257 31.5412 46.6076C26.8098 46.4524 21.8374 42.909 20.6996 38.6832C20.3696 37.4572 19.8969 36.2008 20.4257 34.8719C20.7325 34.1016 19.9608 33.9186 19.5414 33.7014C17.4515 32.6199 16.4497 28.9588 17.8977 26.7286C18.5303 25.7544 19.9605 24.9504 21.0357 25.2724C21.6542 25.4576 21.8356 25.3386 22.0715 24.8232C23.7101 21.2426 26.2188 18.5656 29.9964 17.1823C30.3239 17.0625 30.538 16.5813 30.7616 16.2398C31.3097 15.4029 32.1622 15.1099 33.0669 14.915C33.4198 14.8387 33.6445 14.9943 33.6254 15.3936Z" fill="#83584B"></path><path d="M26.4233 26.5264C26.506 26.4401 26.5884 26.3541 26.6711 26.2678C28.5411 25.4764 30.3419 25.5406 32.1698 26.5014C33.1981 27.0421 34.2681 26.7961 35.3338 26.2799C38.9583 24.5241 43.0791 27.0761 42.8785 30.9036C42.8281 31.8668 42.3738 32.6855 41.9364 33.506C41.5326 34.263 41.4726 35.0232 41.7525 35.8388C42.9574 39.3543 41.2729 42.3947 38.5395 43.9823C35.6746 45.6466 32.6869 45.937 29.6037 44.5693C29.4973 44.522 29.3517 44.562 29.2241 44.5614C28.8824 44.291 28.5405 44.0206 28.1986 43.75C25.787 41.4301 25.2945 38.5815 25.4035 35.3305C25.4805 33.0325 25.4117 30.7382 25.8195 28.4631C25.9393 27.7943 25.979 27.0959 26.4233 26.5264Z" fill="#F4DBB3"></path><path d="M48.2859 29.5993C48.4177 30.1462 48.22 30.7639 47.9318 31.2382C47.5463 31.8724 46.9928 32.7548 46.3068 32.7162C45.6578 32.6799 46.1521 31.6722 45.9344 31.1517C45.3725 29.8085 46.0009 28.362 45.5148 26.9952C45.3061 26.4084 45.9203 26.4658 46.2755 26.5387C47.5533 26.8009 48.2957 27.9254 48.2859 29.5993Z" fill="#F4DBB3"></path><path d="M26.4234 26.5264C26.0651 29.7367 25.4195 32.9199 25.6179 36.1805C25.7732 38.7327 26.2078 41.169 27.9806 43.1692C28.1086 43.3137 28.1284 43.5542 28.1989 43.75C25.5664 42.3203 24.2137 39.3121 25.0447 36.4528C25.4139 35.1829 25.3992 34.0264 24.7093 32.9182C23.2665 30.6016 24.2908 27.7812 26.4234 26.5264Z" fill="#BAA48A"></path><path d="M18.5594 29.4522C18.5221 27.9341 19.351 26.7788 20.6568 26.5557C20.9762 26.5011 21.4548 26.2847 21.383 27.0109C21.225 28.6079 21.1063 30.2087 20.9971 31.8096C20.9724 32.1704 20.8964 32.6154 20.6393 32.7047C20.4208 32.7807 19.9992 32.5185 19.7776 32.2963C19.0058 31.5221 18.561 30.5783 18.5594 29.4522Z" fill="#BAA48A"></path><path d="M30.4941 42.7155C29.1602 42.2125 28.7473 41.0039 28.3001 39.8303C28.044 39.158 28.3722 38.8606 29.0211 38.8589C31.9665 38.8519 34.912 38.8586 37.8574 38.853C38.5373 38.8519 38.6556 39.1772 38.5506 39.7951C38.3252 41.1211 37.7045 42.1297 36.4658 42.7155C34.8756 41.3535 32.084 41.3535 30.4941 42.7155Z" fill="#4E3F3F"></path><path d="M30.4937 42.7155C30.4416 41.8204 31.0463 41.4985 31.76 41.4548C32.9029 41.3853 34.056 41.3853 35.1989 41.4548C35.9126 41.4985 36.5179 41.8199 36.4655 42.7152C34.4748 43.8829 32.4841 43.8829 30.4937 42.7155Z" fill="#E5646E"></path><path d="M30.5045 30.919C30.5087 32.1141 29.9933 32.6709 28.874 32.6796C27.7955 32.6881 27.1971 32.0797 27.1657 30.9424C27.1345 29.8119 27.7484 29.0988 28.7692 29.0779C29.8913 29.0551 30.4999 29.7009 30.5045 30.919Z" fill="#524549"></path><path d="M36.4365 30.807C36.4466 29.6871 37.0815 29.0447 38.1402 29.0827C39.0648 29.116 39.8788 30.0623 39.7655 31.1117C39.6605 32.0873 39.2099 32.7638 38.0407 32.6912C36.7981 32.6143 36.4233 32.2219 36.4365 30.807Z" fill="#524448"></path><path d="M34.5703 36.2729C34.1732 36.276 33.887 36.0847 33.8876 35.6853C33.8884 34.9373 34.5644 34.9114 35.0508 34.7559C35.3564 34.6582 35.8346 34.721 35.7985 35.1587C35.7428 35.8391 35.1578 36.0875 34.5703 36.2729Z" fill="#4E3F3F"></path><path d="M33.0877 35.513C33.0838 35.9864 32.8771 36.2948 32.4887 36.2517C31.8885 36.1847 31.3458 35.9388 31.1827 35.2527C31.0802 34.8232 31.4384 34.6683 31.6685 34.768C32.1628 34.9821 32.9092 34.8125 33.0877 35.513Z" fill="#4E3F3F"></path><path d="M29.4974 30.1482C29.4976 30.5732 29.3072 30.8343 28.909 30.8669C28.5122 30.8996 28.2567 30.6788 28.2184 30.2814C28.179 29.8736 28.4141 29.6347 28.8025 29.5894C29.2157 29.5418 29.4157 29.7978 29.4974 30.1482Z" fill="#FEFEFE"></path><path d="M38.7704 30.0834C38.7617 30.576 38.5738 30.8481 38.1731 30.8655C37.7069 30.8858 37.494 30.6053 37.4735 30.1459C37.458 29.7967 37.5303 29.5917 37.9472 29.5745C38.4127 29.5553 38.6527 29.7604 38.7704 30.0834Z" fill="#FEFEFE"></path><path d="M61.346 38.9586C60.95 39.1124 60.238 39.1893 59.2126 39.1893C58.1871 39.1893 57.3303 39.0947 56.6445 38.9085C55.959 38.7223 55.6134 38.4829 55.6134 38.1906C55.6134 37.8565 56.2311 35.729 57.4661 31.8076C58.7014 27.8864 59.4105 25.6258 59.5908 25.0319C59.6618 24.8516 60.2172 24.7039 61.2663 24.5827C62.3861 24.4616 63.5122 24.4025 64.6407 24.4054C65.8436 24.4054 66.5055 24.6123 66.6325 25.0289C69.2566 33.749 70.5685 38.1787 70.5685 38.3145C70.5685 38.4505 70.4857 38.5922 70.3204 38.7313C69.9303 39.0386 69.162 39.1893 68.0095 39.1893C65.551 39.1893 64.2951 38.8967 64.2391 38.3117L64.094 36.9553H62.0907L61.9873 38.1224C61.9578 38.5243 61.7448 38.802 61.3488 38.9558M63.651 32.9984L63.3406 29.2517H62.8827L62.5281 32.9984H63.651Z" fill="white"></path><path d="M71.9165 41.7072V28.4628C71.9165 28.1702 72.3063 27.8718 73.0836 27.5675C73.8875 27.2572 74.7414 27.1006 75.6041 27.1095C76.0209 27.1095 76.3488 27.1597 76.5822 27.2542C76.8188 27.3518 76.9636 27.4493 77.0196 27.5468C77.0757 27.6443 77.1793 28.061 77.3328 28.7968H77.4984C77.5249 28.6726 77.6491 28.4777 77.8736 28.2147C78.0716 27.9723 78.2992 27.7566 78.5504 27.5704C78.778 27.402 79.1089 27.2542 79.5404 27.1213C80.0307 26.9824 80.5391 26.9144 81.0503 26.9233C81.5998 26.9174 82.1405 27.0504 82.6224 27.3104C83.095 27.5675 83.4468 27.8659 83.6744 28.2057C83.9253 28.6017 84.1087 29.0391 84.2151 29.497C84.3272 29.9048 84.4041 30.3245 84.4427 30.747C84.4633 31.0602 84.4751 31.5125 84.4751 32.1034C84.4751 32.6943 84.4545 33.2764 84.4131 33.8527C84.3686 34.4438 84.2948 35.0319 84.1856 35.6138C84.094 36.1458 83.9343 36.6629 83.7068 37.1536C83.5028 37.5791 83.2339 37.972 82.9148 38.3207C82.2766 39.0152 81.3398 39.3608 80.1045 39.3608C79.7029 39.3698 79.3038 39.3017 78.9286 39.1628C78.5887 39.0299 78.3346 38.8733 78.169 38.693C77.8204 38.3179 77.6195 37.9838 77.5663 37.6943L77.5458 37.4873H77.3802L77.6728 39.3608V41.7131C77.6728 41.8666 77.2737 41.9877 76.4758 42.0764C75.6604 42.168 74.8389 42.2125 74.0173 42.2125C73.1783 42.2125 72.6198 42.1739 72.3449 42.0973C72.0613 42.0204 71.9221 41.8934 71.9221 41.71M78.6507 30.6081C78.5267 30.1352 78.3375 29.8989 78.0893 29.8989C77.8412 29.8989 77.6579 30.0378 77.5486 30.3155V35.7704C77.5486 36.1309 77.7347 36.3114 78.1099 36.3114C78.5977 36.3114 78.8399 35.2355 78.8399 33.0843C78.8399 31.9054 78.778 31.0779 78.6538 30.6053" fill="white"></path><path d="M91.6171 34.4791C91.6171 35.3831 92.0485 35.8352 92.9084 35.8352C93.4078 35.8352 94.0609 35.6639 94.8675 35.324C95.6742 34.9843 96.0969 34.8128 96.1383 34.8128C96.4014 34.8128 96.747 35.2088 97.1784 36.0008C97.6099 36.7928 97.8257 37.3749 97.8226 37.7501C97.8226 38.2908 97.2672 38.7015 96.1561 38.9795C95.0892 39.2513 93.9958 39.3901 92.8966 39.396C91.8328 39.396 90.9462 39.3132 90.2311 39.1479C89.516 38.9823 88.9341 38.7696 88.4818 38.5094C87.6546 38.0337 86.9806 37.3335 86.5345 36.4911C86.3602 36.1278 86.2241 35.7467 86.1357 35.3536C85.9968 34.7331 85.9259 34.0949 85.9287 33.4595C85.9287 30.9329 86.5877 29.1895 87.9086 28.2322C88.5618 27.7474 89.3033 27.3988 90.0953 27.2126C90.902 27.0176 91.8505 26.9201 92.9498 26.9201C96.4602 26.9201 98.2186 28.1434 98.2186 30.5873C98.2186 33.1846 96.2476 34.4819 92.3057 34.4819H91.6202L91.6171 34.4791ZM91.5757 31.4381V32.8123C91.9629 32.8213 92.3293 32.6439 92.5656 32.3335C92.8256 32.0025 92.9645 31.5888 92.9498 31.1663C92.9498 30.3329 92.7341 29.9164 92.3057 29.9164C91.8182 29.9164 91.5757 30.4217 91.5757 31.4353" fill="white"></path><path d="M110.591 38.3117C110.175 38.6161 109.596 38.8702 108.851 39.071C108.109 39.2721 107.152 39.3724 105.982 39.3724C104.862 39.3755 103.742 39.2808 102.64 39.08C101.584 38.8848 100.828 38.6722 100.37 38.4359C99.9121 38.1993 99.6814 37.9717 99.6814 37.7473C99.6873 36.9288 99.7997 36.1132 100.015 35.3212C100.237 34.4819 100.5 34.0625 100.807 34.0625C100.861 34.0625 101.437 34.2515 102.536 34.6238C103.635 34.999 104.46 35.1851 105.015 35.1823C105.571 35.1823 105.931 35.1232 106.1 35.0049C106.265 34.8897 106.36 34.6976 106.351 34.4937C106.351 34.272 106.197 34.0743 105.893 33.9C105.529 33.702 105.145 33.551 104.746 33.4417C104.235 33.2911 103.739 33.099 103.257 32.8686C102.74 32.6292 102.24 32.3543 101.765 32.0383C101.28 31.7043 100.887 31.2582 100.618 30.738C100.305 30.144 100.148 29.4821 100.16 28.8115C100.16 25.7293 102.001 24.1868 105.68 24.1868C107.054 24.1868 108.242 24.2725 109.241 24.4468C110.243 24.6212 110.946 24.8133 111.354 25.0319C111.765 25.2447 111.968 25.4574 111.968 25.6702C111.968 26.3912 111.797 27.1684 111.457 28.0017C111.117 28.8349 110.786 29.2517 110.467 29.2517C110.411 29.2517 110.231 29.1895 109.927 29.0655C109.01 28.6636 108.251 28.4625 107.645 28.4597C107.042 28.4597 106.632 28.5158 106.416 28.6253C106.215 28.7138 106.088 28.9149 106.094 29.1365C106.094 29.3638 106.247 29.5531 106.552 29.6978C106.915 29.8663 107.297 29.9992 107.687 30.0966C108.195 30.2358 108.688 30.416 109.164 30.6374C109.687 30.874 110.186 31.1607 110.653 31.4916C111.111 31.8167 111.492 32.2774 111.8 32.8773C112.104 33.4744 112.258 34.1687 112.258 34.9607C112.267 35.7645 112.042 36.5506 111.611 37.2302C111.342 37.6498 110.996 38.0162 110.588 38.3086" fill="white"></path><path d="M129.731 38.6866C129.551 39.0206 128.608 39.1859 126.909 39.1859C125.209 39.1859 124.323 39.0206 124.252 38.6866L123.543 34.8953H123.25L122.583 38.6866C122.541 39.0206 121.327 39.1859 118.939 39.1859C118.271 39.1859 117.831 39.1476 117.618 39.0707C117.42 39.0116 117.258 38.8727 117.169 38.6866C114.586 32.3422 113.295 29.003 113.295 28.6693C113.295 28.3352 113.798 27.9926 114.805 27.6379C115.736 27.2981 116.72 27.1179 117.71 27.106C118.904 27.106 119.521 27.4252 119.563 28.0635L120.272 33.7696H120.523L120.774 29.1686C120.789 28.8228 121.141 28.5155 121.835 28.2527C122.506 27.9926 123.218 27.8566 123.939 27.8536C124.648 27.8536 125.177 27.9394 125.535 28.1137C125.889 28.2879 126.072 28.5008 126.087 28.7521L126.315 33.7755H126.545L127.231 28.418C127.272 28.0841 127.742 27.7827 128.637 27.5138C129.533 27.242 130.322 27.109 131.001 27.106C131.681 27.106 132.216 27.2036 132.606 27.3986C133.244 27.703 133.563 28.0635 133.563 28.4831C133.563 28.5245 132.934 30.2178 131.678 33.5657C130.422 36.9108 129.772 38.6218 129.734 38.6925" fill="white"></path><path d="M137.937 39.3724C136.672 39.3724 135.682 39.0738 134.958 38.477C134.666 38.2258 134.415 37.8594 134.199 37.3718C133.983 36.8871 133.877 36.3168 133.877 35.6668C133.862 35.064 134.027 34.47 134.346 33.9589C134.633 33.4978 135.023 33.1105 135.487 32.83C135.978 32.5464 136.501 32.3307 137.05 32.1859C138.022 31.9406 139.024 31.8223 140.029 31.831H140.718C140.718 31.261 140.522 30.8591 140.135 30.6225C139.97 30.525 139.716 30.4777 139.376 30.4777C139.036 30.4777 138.625 30.5664 138.147 30.7467C137.733 30.8974 137.334 31.0807 136.95 31.2993C136.631 31.4854 136.415 31.5801 136.306 31.5801C136.055 31.5801 135.715 31.2491 135.286 30.5901C134.855 29.931 134.642 29.3311 134.639 28.7876C134.639 28.6073 134.896 28.3707 135.41 28.0783C135.924 27.7858 136.651 27.5198 137.588 27.2775C138.481 27.0411 139.403 26.917 140.327 26.9141C141.102 26.9022 141.873 26.9761 142.629 27.1327C143.176 27.245 143.708 27.4223 144.213 27.6646C144.615 27.8656 144.97 28.1492 145.253 28.498C145.499 28.7876 145.714 29.1007 145.898 29.4348C146.06 29.7775 146.169 30.1409 146.217 30.5191C146.323 31.1455 146.37 31.7781 146.361 32.4132V38.6809C146.361 38.8344 145.989 38.9555 145.244 39.0442C144.512 39.1358 143.776 39.1803 143.037 39.1803C142.307 39.1803 141.835 39.1594 141.622 39.118C141.406 39.0769 141.279 39.0296 141.237 38.9733C141.184 38.8848 141.149 38.7843 141.134 38.6809L140.969 37.4989H140.803C140.454 38.7457 139.503 39.3693 137.952 39.3693M140.741 35.9121V33.477C140.389 33.471 140.062 33.6426 139.864 33.9352C139.642 34.2366 139.527 34.603 139.53 34.9781C139.53 35.8943 139.737 36.3523 140.156 36.3523C140.31 36.3613 140.463 36.314 140.585 36.2162C140.679 36.1455 140.738 36.0332 140.744 35.9149L140.741 35.9121Z" fill="white"></path><path d="M148.223 41.7072V28.4628C148.223 28.1702 148.613 27.8718 149.39 27.5675C150.194 27.2572 151.048 27.1006 151.911 27.1095C152.328 27.1095 152.653 27.1597 152.889 27.2542C153.125 27.3518 153.27 27.4493 153.326 27.5468C153.382 27.6443 153.486 28.061 153.64 28.7968H153.805C153.835 28.6726 153.959 28.4777 154.18 28.2147C154.378 27.9723 154.606 27.7566 154.857 27.5704C155.088 27.402 155.416 27.2542 155.847 27.1213C156.338 26.9824 156.846 26.9144 157.357 26.9233C157.907 26.9174 158.447 27.0504 158.929 27.3104C159.402 27.5675 159.75 27.8659 159.981 28.2057C160.235 28.6017 160.418 29.0391 160.522 29.497C160.634 29.9048 160.711 30.3245 160.752 30.747C160.773 31.0602 160.785 31.5125 160.785 32.1034C160.785 32.6943 160.764 33.2764 160.723 33.8527C160.679 34.4438 160.602 35.0319 160.492 35.6138C160.401 36.1458 160.241 36.666 160.014 37.1536C159.81 37.5791 159.541 37.972 159.222 38.3207C158.583 39.0152 157.647 39.3608 156.411 39.3608C156.01 39.3698 155.611 39.3017 155.235 39.1628C154.895 39.0299 154.641 38.8733 154.476 38.693C154.13 38.3179 153.926 37.9838 153.87 37.6943L153.849 37.4873H153.684L153.976 39.3608V41.7131C153.976 41.8666 153.578 41.9877 152.783 42.0764C151.967 42.168 151.146 42.2125 150.324 42.2125C149.485 42.2125 148.926 42.1739 148.652 42.0973C148.368 42.0204 148.229 41.8934 148.229 41.71M154.957 30.6081C154.834 30.1352 154.647 29.8989 154.399 29.8989C154.151 29.8989 153.971 30.0378 153.858 30.3155V35.7704C153.858 36.1309 154.044 36.3114 154.42 36.3114C154.904 36.3114 155.147 35.2355 155.147 33.0843C155.147 31.9054 155.082 31.0779 154.955 30.6053" fill="white"></path></g><defs><radialGradient id="paint0_radial_465_794" cx="0" cy="0" r="1" gradientUnits="userSpaceOnUse" gradientTransform="translate(82.0423 30.8726) scale(173.651 361.355)"><stop offset="0.08" stop-color="#0A3D4E"></stop><stop offset="0.548764" stop-color="#07212A"></stop></radialGradient><clipPath id="clip0_465_794"><rect width="178" height="61.962" fill="white"></rect></clipPath></defs></svg> 