<?xml version="1.0" encoding="UTF-8"?> <svg xmlns="http://www.w3.org/2000/svg" width="178" height="63" viewBox="0 0 178 63" fill="none"><g clip-path="url(#clip0_465_834)"><path d="M171.643 0.962021H6.35714C2.84619 0.962021 0 3.80822 0 7.31917V56.35C0 59.861 2.8462 62.7072 6.35715 62.7072H171.643C175.154 62.7072 178 59.861 178 56.35V7.31916C178 3.80821 175.154 0.962021 171.643 0.962021Z" fill="url(#paint0_radial_465_834)"></path><path d="M66.0017 34.5604L61.7787 40.769L61.7441 40.7346C60.2308 42.7687 55.3389 41.9271 50.7301 38.6662C46.1553 35.4366 43.5146 31.3341 44.8178 29.1249L44.7834 29.0905L49.0064 22.9884C50.4473 20.8822 55.4116 21.724 60.0551 24.9846C64.8056 28.0735 67.3736 32.4576 66.0017 34.5604Z" fill="url(#paint1_linear_465_834)"></path><path fill-rule="evenodd" clip-rule="evenodd" d="M65.3675 34.21C64.1023 36.0345 59.5965 35.1206 55.3012 32.1072C50.9058 29.0905 48.3375 25.2664 49.6373 23.4419C50.9024 21.6175 55.4079 22.5314 59.7033 25.5447C63.9987 28.558 66.567 32.3855 65.3675 34.21ZM61.3582 31.4749C60.7237 32.3855 58.5071 31.932 56.325 30.4579C54.2151 29.0184 52.9466 27.0908 53.5809 26.1803C54.2151 25.2698 56.432 25.7234 58.6139 27.1974C60.7237 28.6336 61.9888 30.5644 61.3582 31.4749Z" fill="white"></path><path d="M79.9225 41.2948C78.6196 41.2948 77.2818 41.0509 75.9443 40.5594C74.6067 40.0682 73.4796 39.4359 72.5659 38.6321L74.7137 35.4399C75.4514 36.0722 76.296 36.5981 77.2131 36.9828C78.1645 37.3675 79.0435 37.5427 79.8881 37.5427C80.5914 37.5427 81.1913 37.4019 81.6462 37.158C82.1393 36.9141 82.3841 36.5601 82.3841 36.141C82.3841 36.0001 82.3494 35.8593 82.2771 35.7219C82.2081 35.6154 82.1013 35.478 81.9599 35.4056C81.8185 35.2991 81.6428 35.2304 81.5014 35.1239C81.2913 35.0175 81.0809 34.9488 80.8328 34.88C80.55 34.8113 80.3053 34.7392 80.0949 34.6705C79.8124 34.6018 79.4952 34.4953 79.2158 34.4266C75.2066 33.4403 73.2348 31.616 73.2348 28.9153C73.2348 27.3726 73.8344 26.1082 75.0652 25.1977C76.296 24.2494 77.9163 23.7958 79.9225 23.7958C81.1877 23.7958 82.3494 23.9711 83.4079 24.3559C84.4663 24.7407 85.3419 25.2321 86.0105 25.8643L84.0768 29.0906C83.5492 28.6336 82.915 28.2487 82.1771 27.967C81.4394 27.6853 80.6638 27.5478 79.8881 27.5478C79.2192 27.5478 78.6574 27.6544 78.2335 27.8983C77.8127 28.1423 77.5992 28.424 77.5992 28.8088C77.5992 29.1936 77.844 29.5096 78.3368 29.7915C78.8297 30.0355 79.533 30.2827 80.412 30.4923C80.7291 30.561 80.9742 30.6334 81.2223 30.7021C81.4704 30.7708 81.8222 30.8773 82.2771 31.0525C82.7356 31.1933 83.1217 31.3685 83.5078 31.5437C83.8593 31.7191 84.2835 31.963 84.6696 32.2447C85.0558 32.5263 85.4073 32.8426 85.69 33.193C85.9725 33.5433 86.2176 33.9661 86.3933 34.4195C86.5691 34.911 86.6758 35.4366 86.6758 35.9624C86.6758 37.0138 86.3587 37.9277 85.7624 38.7315C85.1625 39.539 84.3559 40.1713 83.3355 40.5904C82.3151 41.0475 81.1533 41.2571 79.8881 41.2571L79.9225 41.2948ZM98.5381 39.8587C97.4487 40.807 96.0045 41.2982 94.1738 41.2982C92.3777 41.2982 90.9368 40.807 89.8097 39.8587C88.7203 38.876 88.1547 37.6151 88.1547 36.0001V28.5271H92.133V35.4366C92.133 36.0345 92.309 36.5223 92.6951 36.9107C93.081 37.2611 93.5741 37.4706 94.1738 37.4706C94.7737 37.4706 95.2632 37.2954 95.6183 36.9107C96.0045 36.5601 96.1802 36.0689 96.1802 35.4366V28.5271H100.158V35.9968C100.158 37.5737 99.5966 38.8726 98.5038 39.8553H98.5381V39.8587ZM107.053 41.2948C105.047 41.2948 103.254 40.6625 101.599 39.4359L103.358 36.9451C104.519 37.8213 105.716 38.2437 106.912 38.2437C107.439 38.2437 107.863 38.175 108.177 38.0342C108.494 37.8934 108.67 37.6838 108.67 37.4019C108.67 37.1202 108.494 36.9107 108.177 36.7699C107.86 36.6288 107.333 36.488 106.629 36.3505C106.243 36.2818 105.96 36.2097 105.75 36.1753C105.467 36.1066 105.15 36.0001 104.871 35.9314C104.554 35.825 104.271 35.7219 103.958 35.5811C103.747 35.4399 103.499 35.2991 103.182 35.0896C102.937 34.9144 102.689 34.6705 102.513 34.4229C102.337 34.1413 102.196 33.863 102.127 33.547C102.02 33.162 101.951 32.7739 101.951 32.3889C101.951 31.513 102.196 30.7398 102.689 30.1076C103.182 29.4753 103.816 29.0218 104.588 28.7057C105.398 28.424 106.277 28.2487 107.264 28.2487C109.094 28.2487 110.818 28.7744 112.331 29.8636L110.573 32.3545C109.446 31.6538 108.391 31.3031 107.405 31.3031C106.946 31.3031 106.595 31.3719 106.316 31.4786C106.033 31.5851 105.895 31.7946 105.895 32.0385C105.895 32.2824 106.071 32.4956 106.388 32.6364C106.705 32.7773 107.233 32.9181 107.936 33.0555C108.287 33.1243 108.57 33.1964 108.815 33.2307C109.06 33.2994 109.342 33.3715 109.694 33.4746C110.045 33.5814 110.328 33.7188 110.573 33.8253C110.818 33.9661 111.066 34.1069 111.349 34.3165C111.631 34.526 111.841 34.7358 112.017 34.9831C112.193 35.2304 112.335 35.543 112.438 35.8937C112.541 36.244 112.614 36.5944 112.614 37.0172C112.614 38.3502 112.086 39.4016 111.066 40.1747C110.011 40.9101 108.708 41.2948 107.053 41.2948ZM121.973 28.2144C123.38 28.2144 124.507 28.6336 125.386 29.4753C126.265 30.3171 126.689 31.4749 126.689 32.877V40.9788H122.711V34.21C122.711 33.5433 122.535 33.0178 122.149 32.6331C121.763 32.2481 121.27 32.0351 120.636 32.0351C119.933 32.0351 119.405 32.2447 118.981 32.6331C118.56 33.0522 118.347 33.5814 118.347 34.2477V40.9822H114.368V23.3732H118.35V29.6851C119.302 28.7023 120.498 28.2144 121.973 28.2144ZM131.088 27.1596C130.385 27.1596 129.823 26.9156 129.364 26.493C128.906 26.0361 128.661 25.4416 128.661 24.7751C128.661 24.0742 128.906 23.5141 129.364 23.0571C129.823 22.6002 130.385 22.3562 131.088 22.3562C131.791 22.3562 132.353 22.6002 132.812 23.0571C133.27 23.5141 133.515 24.1085 133.515 24.7751C133.515 25.4416 133.27 26.0361 132.812 26.493C132.353 26.95 131.795 27.1596 131.088 27.1596ZM129.12 40.9788V28.4927H133.098V40.9788H129.12Z" fill="white"></path></g><defs><radialGradient id="paint0_radial_465_834" cx="0" cy="0" r="1" gradientUnits="userSpaceOnUse" gradientTransform="translate(82.0423 31.8346) scale(173.651 361.355)"><stop offset="0.08" stop-color="#0A3D4E"></stop><stop offset="0.548764" stop-color="#07212A"></stop></radialGradient><linearGradient id="paint1_linear_465_834" x1="53.2136" y1="26.2196" x2="57.6219" y2="37.4182" gradientUnits="userSpaceOnUse"><stop stop-color="#29AFE5"></stop><stop offset="0.3608" stop-color="#9181C3"></stop><stop offset="1" stop-color="#FA52A0"></stop></linearGradient><clipPath id="clip0_465_834"><rect width="178" height="61.962" fill="white" transform="translate(0 0.962021)"></rect></clipPath></defs></svg> 