<?xml version="1.0" encoding="UTF-8"?> <svg xmlns="http://www.w3.org/2000/svg" width="178" height="63" viewBox="0 0 178 63" fill="none"><g clip-path="url(#clip0_465_786)"><mask id="mask0_465_786" style="mask-type:luminance" maskUnits="userSpaceOnUse" x="0" y="0" width="178" height="63"><path d="M178 0.924042H0V62.6692H178V0.924042Z" fill="white"></path></mask><g mask="url(#mask0_465_786)"><path d="M171.643 0.924042H6.35714C2.84619 0.924042 0 3.77024 0 7.28119V56.3121C0 59.823 2.8462 62.6692 6.35715 62.6692H171.643C175.154 62.6692 178 59.823 178 56.312V7.28118C178 3.77023 175.154 0.924042 171.643 0.924042Z" fill="url(#paint0_radial_465_786)"></path><path d="M37 41.8922C41.1803 38.7569 44.4064 35.9512 46.6783 33.4749C48.9729 30.9759 50.1203 28.5335 50.1203 26.148C50.1203 24.5804 49.7227 23.3308 48.9275 22.3993C48.1551 21.4451 46.8828 20.968 45.1107 20.968C43.3841 20.968 42.0437 21.5133 41.0894 22.6038C40.158 23.6716 39.6354 25.1029 39.5218 26.8977H37.2045C37.3408 24.3759 38.1132 22.4221 39.5218 21.0362C40.9531 19.6276 42.8161 18.9233 45.1107 18.9233C47.3145 18.9233 49.0979 19.5481 50.4611 20.7976C51.8242 22.0245 52.5057 23.7738 52.5057 26.0457C52.5057 28.7947 51.3584 31.4643 49.0638 34.0543C46.7919 36.6215 43.9861 39.1318 40.6464 41.5855H53.2554V43.5962H37V41.8922ZM56.9791 31.328C56.9791 27.4202 57.5812 24.3873 58.7853 22.2289C59.9893 20.0706 62.1475 18.9915 65.2603 18.9915C68.3728 18.9915 70.531 20.0706 71.735 22.2289C72.9394 24.3873 73.5412 27.4202 73.5412 31.328C73.5412 35.3037 72.9394 38.3821 71.735 40.5631C70.531 42.7442 68.3728 43.8347 65.2603 43.8347C62.125 43.8347 59.9552 42.7442 58.7512 40.5631C57.5697 38.3821 56.9791 35.3037 56.9791 31.328ZM71.1898 31.328C71.1898 29.2151 71.0422 27.4316 70.7467 25.9776C70.4516 24.5236 69.8722 23.3535 69.0087 22.4675C68.1455 21.5815 66.8961 21.1384 65.2603 21.1384C63.6245 21.1384 62.3748 21.5815 61.5116 22.4675C60.6483 23.3535 60.069 24.5236 59.7736 25.9776C59.4781 27.4316 59.3305 29.2151 59.3305 31.328C59.3305 33.509 59.4781 35.3378 59.7736 36.8147C60.069 38.2686 60.6483 39.4385 61.5116 40.3246C62.3748 41.2106 63.6245 41.6537 65.2603 41.6537C66.8961 41.6537 68.1455 41.2106 69.0087 40.3246C69.8722 39.4385 70.4516 38.2686 70.7467 36.8147C71.0422 35.3378 71.1898 33.509 71.1898 31.328ZM91.1672 19.9457C93.8025 19.9457 96.063 20.4228 97.9486 21.377C99.8343 22.3312 101.277 23.7057 102.277 25.5005C103.276 27.2953 103.776 29.4308 103.776 31.9073C103.776 34.361 103.276 36.4852 102.277 38.2798C101.277 40.0519 99.8343 41.4151 97.9486 42.3693C96.063 43.3007 93.8025 43.7666 91.1672 43.7666H84.1128V19.9457H91.1672ZM91.1672 41.79C94.4841 41.79 97.006 40.9267 98.7325 39.2C100.482 37.4507 101.357 35.0198 101.357 31.9073C101.357 28.772 100.482 26.3297 98.7325 24.5804C97.006 22.8083 94.4841 21.9222 91.1672 21.9222H86.4983V41.79H91.1672ZM110.56 21.8882V30.7827H119.591V32.7593H110.56V41.79H120.613V43.7666H108.174V19.9116H120.613V21.8882H110.56ZM133.901 31.8732L141.126 43.7666H138.468L132.401 33.8157L126.642 43.7666H123.984L131.175 31.771L123.984 19.9457H126.642L132.674 29.8626L138.502 19.9457H141.16L133.901 31.8732Z" fill="white"></path></g></g><defs><radialGradient id="paint0_radial_465_786" cx="0" cy="0" r="1" gradientUnits="userSpaceOnUse" gradientTransform="translate(82.0423 31.7966) scale(173.651 361.355)"><stop offset="0.08" stop-color="#0A3D4E"></stop><stop offset="0.548764" stop-color="#07212A"></stop></radialGradient><clipPath id="clip0_465_786"><rect width="178" height="61.962" fill="white" transform="translate(0 0.924042)"></rect></clipPath></defs></svg> 