<?xml version="1.0" encoding="UTF-8"?> <svg xmlns="http://www.w3.org/2000/svg" width="178" height="63" viewBox="0 0 178 63" fill="none"><g clip-path="url(#clip0_465_1084)"><path d="M171.643 0.962036H6.35714C2.84619 0.962036 0 3.80823 0 7.31918V56.35C0 59.861 2.8462 62.7072 6.35715 62.7072H171.643C175.154 62.7072 178 59.861 178 56.35V7.31918C178 3.80823 175.154 0.962036 171.643 0.962036Z" fill="url(#paint0_radial_465_1084)"></path><path d="M36.3678 17.7949C36.3638 27.1547 36.3599 36.5145 36.3559 45.8744C35.636 45.4581 34.9162 45.0418 34.1963 44.6256V22.1523L27.7347 24.9925L24.4989 23.1464C28.4552 21.3625 32.4115 19.5786 36.3678 17.7949Z" fill="white"></path><path d="M36.7524 45.8744L38.8825 44.6256V22.0813L45.415 25.028L48.6139 23.1464L36.7524 17.7949V45.8744Z" fill="white"></path><path d="M24.4989 24.2828C25.5044 24.8754 26.51 25.4682 27.5157 26.0609C27.5177 29.7997 27.5196 33.5383 27.5217 37.2768C29.4038 38.36 31.286 39.4435 33.1683 40.5267C33.1705 41.6961 33.173 42.865 33.1756 44.0344C30.2834 42.3676 27.3913 40.7011 24.4991 39.0343L24.4989 24.2828Z" fill="white"></path><path d="M48.614 24.2828C47.6071 24.8754 46.6003 25.4682 45.5934 26.0609C45.5914 29.7997 45.5894 33.5383 45.5875 37.2768C43.703 38.36 41.8185 39.4435 39.934 40.5267C39.9315 41.6961 39.9292 42.865 39.9264 44.0344C42.8223 42.3676 45.7182 40.7011 48.6137 39.0343L48.614 24.2828Z" fill="white"></path><mask id="mask0_465_1084" style="mask-type:luminance" maskUnits="userSpaceOnUse" x="57" y="26" width="97" height="12"><path d="M153.501 26.6285H57.4478V37.19H153.501V26.6285Z" fill="white"></path></mask><g mask="url(#mask0_465_1084)"><path d="M94.8652 34.1914H96.7931C97.166 35.0431 97.9194 35.2092 98.8266 35.1639C99.9531 35.1109 101.087 35.1766 102.214 35.1312C102.932 35.1011 103.36 34.6575 103.38 34.0728C103.4 33.4656 103.023 33.0648 102.279 32.9488C101.992 32.9034 101.694 32.9186 101.402 32.9161C100.356 32.911 99.3104 32.9288 98.2647 32.9034C97.8084 32.8936 97.3347 32.8631 96.9063 32.7271C95.5228 32.2835 94.6258 30.822 94.8173 29.4082C95.0139 27.934 96.158 26.7521 97.6346 26.6841C99.3053 26.606 100.984 26.606 102.652 26.6841C104.204 26.7546 105.175 27.8156 105.459 29.6501C104.839 29.678 104.235 29.7056 103.589 29.7332C103.113 28.6926 102.256 28.5615 101.281 28.6169C100.447 28.6623 99.6078 28.6245 98.7711 28.627C98.5193 28.627 98.2647 28.6119 98.0202 28.6472C97.3397 28.7505 96.9088 29.2091 96.9139 29.7912C96.9164 30.3785 97.3347 30.8395 98.063 30.8674C99.4845 30.9203 100.908 30.8674 102.329 30.9077C103.862 30.9505 104.973 31.8148 105.386 33.2186C105.905 34.9774 104.726 36.9431 102.886 37.0842C101.059 37.2253 99.2045 37.2002 97.3724 37.0842C95.9614 36.9935 95.097 35.8897 94.8652 34.1936V34.1914Z" fill="white"></path><path d="M142.912 37.1548V26.7446C143.305 26.7118 143.628 26.6614 143.953 26.6614C145.878 26.6564 147.806 26.6337 149.731 26.6715C151.679 26.7093 153.206 27.997 153.4 29.9123C153.539 31.2656 153.536 32.6541 153.388 34.0049C153.181 35.8773 151.815 37.0867 149.923 37.1421C147.627 37.2103 145.329 37.1574 142.915 37.1574L142.912 37.1548ZM145.049 28.7228V35.1413C146.695 35.1413 148.237 35.1765 149.777 35.1287C150.727 35.0985 151.326 34.4936 151.377 33.5436C151.432 32.4677 151.43 31.3864 151.377 30.3106C151.332 29.4411 150.762 28.7883 149.877 28.743C148.302 28.6623 146.72 28.7203 145.049 28.7203V28.7228Z" fill="white"></path><path d="M69.7078 26.6641C72.2178 26.6641 74.6042 26.586 76.9832 26.6843C79.6217 26.7952 81.1412 29.9123 79.7251 32.1804C79.4428 32.6316 79.0598 33.0223 78.659 33.5211C79.1404 34.635 79.6442 35.7993 80.2013 37.0895H77.9988C77.5477 36.1344 77.0765 35.1315 76.5675 34.0528H71.7491C71.6962 35.076 71.6458 36.0463 71.5928 37.0895H69.7078V26.6641ZM71.7466 31.8931C73.4551 31.8931 74.9999 31.9309 76.5422 31.8805C77.5023 31.8478 78.16 31.1575 78.1802 30.3233C78.198 29.5622 77.5803 28.718 76.7638 28.6777C75.1159 28.5995 73.4576 28.655 71.7491 28.655V31.8931H71.7466Z" fill="white"></path><path d="M119.221 26.6844C121.65 26.6844 123.946 26.6289 126.239 26.702C128.172 26.7625 129.611 28.2745 129.689 30.1418C129.767 32.0697 128.558 33.6497 126.625 33.912C125.392 34.0781 124.125 34.01 122.875 34.0404C122.346 34.0531 121.817 34.0404 121.146 34.0404V37.0844H119.224V26.6844H119.221ZM121.217 31.9109C122.956 31.9109 124.616 31.9562 126.275 31.8909C127.089 31.8605 127.638 31.1524 127.65 30.3762C127.663 29.6478 127.124 28.8214 126.338 28.776C124.647 28.6777 122.948 28.7458 121.217 28.7458V31.9109Z" fill="white"></path><path d="M82.2243 26.7271H84.1573C84.1826 27.2362 84.2204 27.6797 84.2229 28.1232C84.233 29.8242 84.1976 31.5253 84.2429 33.2236C84.2758 34.5065 84.9183 35.1036 86.2085 35.1388C87.1284 35.1642 88.0507 35.1692 88.9706 35.1388C90.2028 35.096 90.7951 34.5141 90.8202 33.269C90.8557 31.5681 90.8328 29.8695 90.8328 28.1686C90.8328 27.72 90.8328 27.274 90.8328 26.7422H92.6751C92.723 26.7952 92.8263 26.8556 92.8263 26.9136C92.8387 29.2322 92.9548 31.558 92.8086 33.8663C92.6827 35.8573 91.246 37.0591 89.2176 37.1526C88.091 37.203 86.9571 37.2053 85.8305 37.1501C83.7971 37.0492 82.3277 35.6934 82.2472 33.6951C82.1539 31.4219 82.2243 29.1437 82.2243 26.7271Z" fill="white"></path><path d="M141.218 37.1019H139.066C138.83 36.6333 138.608 36.1947 138.353 35.6881H133.558C133.326 36.1215 133.076 36.5879 132.799 37.1095H130.649C132.043 33.569 133.386 30.1543 134.745 26.7068H137.098C138.464 30.1467 139.817 33.5639 141.221 37.1019H141.218ZM136.063 29.7484L135.795 29.7662C135.322 30.9581 134.848 32.1475 134.326 33.4529C135.521 33.5614 136.481 33.7301 137.504 33.3445C137 32.0895 136.531 30.9178 136.06 29.7484H136.063Z" fill="white"></path><path d="M63.778 28.6171V37.0642H61.6612V28.6574H57.4478V26.7573H67.9413V28.6171H63.778Z" fill="white"></path><path d="M117.475 26.7475V28.6022H113.292V37.0847H111.175V28.6728H106.933V26.7475H117.475Z" fill="white"></path></g></g><defs><radialGradient id="paint0_radial_465_1084" cx="0" cy="0" r="1" gradientUnits="userSpaceOnUse" gradientTransform="translate(82.0423 31.8346) scale(173.651 361.355)"><stop offset="0.08" stop-color="#0A3D4E"></stop><stop offset="0.548764" stop-color="#07212A"></stop></radialGradient><clipPath id="clip0_465_1084"><rect width="178" height="61.962" fill="white" transform="translate(0 0.962036)"></rect></clipPath></defs></svg> 