<?xml version="1.0" encoding="UTF-8"?> <svg xmlns="http://www.w3.org/2000/svg" width="178" height="62" viewBox="0 0 178 62" fill="none"><g clip-path="url(#clip0_465_817)"><path d="M171.643 0H6.35714C2.84619 0 0 2.8462 0 6.35715V55.388C0 58.899 2.8462 61.7452 6.35715 61.7452H171.643C175.154 61.7452 178 58.899 178 55.388V6.35714C178 2.84619 175.154 0 171.643 0Z" fill="url(#paint0_radial_465_817)"></path><mask id="mask0_465_817" style="mask-type:luminance" maskUnits="userSpaceOnUse" x="18" y="18" width="142" height="26"><path d="M159.13 18.4968H18.8704V43.2485H159.13V18.4968Z" fill="white"></path></mask><g mask="url(#mask0_465_817)"><path fill-rule="evenodd" clip-rule="evenodd" d="M44.3527 21.6314C44.3527 23.3099 40.0841 24.6707 34.8188 24.6707C29.5534 24.6707 25.285 23.3099 25.285 21.6314C25.285 19.9529 29.5534 18.5922 34.8188 18.5922C40.0841 18.5922 44.3527 19.9529 44.3527 21.6314ZM50.7086 38.1447C50.7086 36.076 46.8185 34.2971 41.2434 33.5102L41.0989 33.5384C39.2183 33.8924 37.0829 34.0924 34.8188 34.0924C32.4966 34.0924 30.3093 33.882 28.3944 33.5102C22.8191 34.2971 18.9291 36.076 18.9291 38.1447C18.9291 40.9423 26.0431 43.2101 34.8188 43.2101C43.5946 43.2101 50.7086 40.9423 50.7086 38.1447ZM47.5308 29.027C47.5308 27.2368 43.89 25.718 38.8404 25.1814L38.71 25.2015C37.5085 25.3818 36.1949 25.4811 34.8188 25.4811C33.3931 25.4811 32.0341 25.3745 30.7974 25.1816C25.7477 25.7179 22.1071 27.2369 22.1071 29.027C22.1071 31.2649 27.7983 33.0793 34.8188 33.0793C41.8393 33.0793 47.5308 31.2649 47.5308 29.027ZM63.7342 22.1202V39.1859H70.9826C72.3525 39.1859 73.489 38.9831 74.3925 38.5773C75.296 38.172 75.9722 37.6191 76.4212 36.9192C76.8699 36.2137 77.0943 35.4195 77.0943 34.5359C77.0943 33.6696 76.9079 32.9306 76.5347 32.3194C76.1618 31.7085 75.6807 31.2362 75.0921 30.903C74.5091 30.5642 73.9002 30.378 73.2645 30.3448V30.178C73.8475 30.0448 74.375 29.8251 74.8474 29.5198C75.3194 29.2142 75.6954 28.8171 75.9751 28.3282C76.255 27.8337 76.395 27.2393 76.395 26.5449C76.395 25.7005 76.179 24.945 75.7478 24.2784C75.3222 23.6118 74.6781 23.0868 73.8154 22.7035C72.9586 22.3146 71.8833 22.1202 70.5892 22.1202H63.7342ZM70.4666 36.6027H66.9782V31.6029H70.5542C71.2245 31.6029 71.8016 31.7223 72.2852 31.9611C72.7691 32.1946 73.1423 32.5168 73.4045 32.9277C73.667 33.3333 73.7979 33.7887 73.7979 34.2946C73.7979 34.9722 73.5357 35.5276 73.011 35.9611C72.4922 36.3886 71.6442 36.6027 70.4666 36.6027ZM70.187 29.3782H66.9782V24.67H70.2568C71.213 24.67 71.9326 24.8839 72.4165 25.3117C72.9062 25.7394 73.151 26.2838 73.151 26.9449C73.151 27.4448 73.0197 27.8782 72.7575 28.2448C72.501 28.6059 72.1483 28.8864 71.6994 29.0864C71.2507 29.2807 70.7466 29.3782 70.187 29.3782ZM80.3566 39.0107C81.0388 39.2997 81.8051 39.4442 82.6563 39.4442C83.3559 39.4442 83.9648 39.3524 84.4836 39.169C85.0083 38.9803 85.4426 38.733 85.7865 38.4274C86.1363 38.1165 86.4072 37.783 86.5996 37.4276H86.7046V39.1859H89.7473V30.6197C89.7473 29.7697 89.5842 29.0613 89.2578 28.4949C88.9372 27.9281 88.5117 27.481 87.981 27.1532C87.4507 26.8199 86.8649 26.581 86.2236 26.4366C85.5823 26.2921 84.9384 26.2199 84.2912 26.2199C83.3528 26.2199 82.496 26.3532 81.7206 26.6199C80.9455 26.881 80.2896 27.2754 79.7533 27.8032C79.2171 28.3254 78.8324 28.9754 78.5992 29.753L81.5545 30.153C81.7119 29.7142 82.0149 29.3337 82.4639 29.0115C82.9185 28.6893 83.5336 28.5282 84.309 28.5282C85.0432 28.5282 85.6056 28.7002 85.9963 29.0447C86.3869 29.3892 86.5821 29.8753 86.5821 30.5031V30.5529C86.5821 30.8419 86.4686 31.0556 86.241 31.1945C86.0197 31.328 85.6639 31.428 85.1744 31.4947C84.6847 31.5556 84.0465 31.6251 83.2595 31.7029C82.6067 31.7696 81.9744 31.8778 81.3621 32.0279C80.756 32.1724 80.211 32.3861 79.7271 32.6695C79.2433 32.9528 78.8616 33.3305 78.5817 33.8028C78.302 34.2751 78.162 34.8722 78.162 35.5944C78.162 36.4331 78.3572 37.1386 78.7479 37.7109C79.1441 38.283 79.6807 38.7164 80.3566 39.0107ZM85.1305 36.8694C84.6644 37.1082 84.1135 37.2276 83.4781 37.2276C82.8196 37.2276 82.2774 37.086 81.8519 36.8026C81.4263 36.5193 81.2137 36.0999 81.2137 35.5442C81.2137 35.1556 81.3213 34.8387 81.537 34.5945C81.7527 34.3444 82.0471 34.1498 82.4202 34.011C82.7931 33.8721 83.2159 33.7721 83.6879 33.711C83.8978 33.6834 84.1456 33.6499 84.4312 33.6113C84.7168 33.5722 85.0055 33.5279 85.2967 33.4778C85.5882 33.4279 85.8507 33.3696 86.0836 33.3029C86.3227 33.2361 86.4917 33.1638 86.5909 33.086V34.5945C86.5909 35.0666 86.4627 35.5028 86.2061 35.9028C85.9555 36.3027 85.5969 36.6249 85.1305 36.8694ZM95.1103 22.1202V39.1859H91.9449V22.1202H95.1103ZM98.9452 39.0107C99.6274 39.2997 100.394 39.4442 101.245 39.4442C101.944 39.4442 102.553 39.3524 103.072 39.169C103.597 38.9803 104.031 38.733 104.375 38.4274C104.725 38.1165 104.996 37.783 105.188 37.4276H105.293V39.1859H108.336V30.6197C108.336 29.7697 108.173 29.0613 107.846 28.4949C107.526 27.9281 107.1 27.481 106.57 27.1532C106.039 26.8199 105.453 26.581 104.812 26.4366C104.171 26.2921 103.527 26.2199 102.88 26.2199C101.941 26.2199 101.085 26.3532 100.309 26.6199C99.5341 26.881 98.8782 27.2754 98.3419 27.8032C97.8057 28.3254 97.421 28.9754 97.1878 29.753L100.143 30.153C100.301 29.7142 100.604 29.3337 101.052 29.0115C101.507 28.6893 102.122 28.5282 102.898 28.5282C103.632 28.5282 104.195 28.7002 104.585 29.0447C104.976 29.3892 105.171 29.8753 105.171 30.5031V30.5529C105.171 30.8419 105.057 31.0556 104.83 31.1945C104.608 31.328 104.253 31.428 103.763 31.4947C103.274 31.5556 102.635 31.6251 101.848 31.7029C101.195 31.7696 100.563 31.8778 99.951 32.0279C99.3446 32.1724 98.7996 32.3861 98.3158 32.6695C97.8322 32.9528 97.4503 33.3305 97.1703 33.8028C96.8906 34.2751 96.7506 34.8722 96.7506 35.5944C96.7506 36.4331 96.9458 37.1386 97.3365 37.7109C97.7327 38.283 98.2693 38.7164 98.9452 39.0107ZM103.719 36.8694C103.253 37.1082 102.702 37.2276 102.067 37.2276C101.408 37.2276 100.866 37.086 100.44 36.8026C100.015 36.5193 99.8023 36.0999 99.8023 35.5442C99.8023 35.1556 99.9099 34.8387 100.126 34.5945C100.341 34.3444 100.636 34.1498 101.009 34.011C101.382 33.8721 101.804 33.7721 102.277 33.711C102.487 33.6834 102.734 33.6499 103.02 33.6113C103.305 33.5722 103.594 33.5279 103.886 33.4778C104.177 33.4279 104.439 33.3696 104.672 33.3029C104.911 33.2361 105.08 33.1638 105.179 33.086V34.5945C105.179 35.0666 105.051 35.5028 104.795 35.9028C104.544 36.3027 104.186 36.6249 103.719 36.8694ZM113.699 31.6863V39.1859H110.534V26.3866H113.559V28.5614H113.716C114.025 27.8448 114.518 27.2754 115.194 26.8532C115.876 26.431 116.718 26.2199 117.721 26.2199C118.648 26.2199 119.455 26.4088 120.143 26.7866C120.837 27.1643 121.373 27.7115 121.752 28.4282C122.136 29.1447 122.326 30.0141 122.32 31.0362V39.1859H119.155V31.5029C119.155 30.6475 118.922 29.9781 118.455 29.4948C117.995 29.0115 117.357 28.7698 116.541 28.7698C115.987 28.7698 115.494 28.8864 115.063 29.1196C114.637 29.3475 114.302 29.6781 114.057 30.1113C113.818 30.5447 113.699 31.0697 113.699 31.6863ZM126.957 38.5942C127.919 39.1552 129.071 39.4357 130.411 39.4357C131.536 39.4357 132.515 39.2414 133.349 38.8524C134.183 38.4581 134.841 37.9137 135.325 37.2192C135.809 36.5193 136.089 35.7166 136.164 34.8111H133.139C133.046 35.2722 132.874 35.6639 132.623 35.9859C132.373 36.3081 132.061 36.5553 131.688 36.7277C131.321 36.8942 130.904 36.9775 130.437 36.9775C129.779 36.9775 129.205 36.8111 128.715 36.4776C128.231 36.1388 127.855 35.6583 127.587 35.0361C127.319 34.4084 127.185 33.6583 127.185 32.7861C127.185 31.9251 127.319 31.1863 127.587 30.5695C127.861 29.953 128.243 29.481 128.732 29.1531C129.222 28.8197 129.79 28.6532 130.437 28.6532C131.201 28.6532 131.81 28.8613 132.265 29.2782C132.725 29.6891 133.017 30.2031 133.139 30.8196H136.164C136.095 29.8975 135.809 29.092 135.308 28.4031C134.806 27.7087 134.133 27.1727 133.288 26.7949C132.448 26.4116 131.484 26.2199 130.394 26.2199C129.082 26.2199 127.945 26.5005 126.984 27.0615C126.028 27.6171 125.288 28.3947 124.763 29.3948C124.238 30.389 123.976 31.5361 123.976 32.8362C123.976 34.1307 124.232 35.275 124.745 36.2695C125.264 37.258 126.002 38.0331 126.957 38.5942ZM143.724 39.4357C142.378 39.4357 141.215 39.169 140.236 38.6359C139.262 38.0971 138.513 37.3361 137.988 36.3526C137.464 35.364 137.201 34.1999 137.201 32.861C137.201 31.5446 137.464 30.389 137.988 29.3948C138.519 28.3947 139.259 27.6171 140.209 27.0615C141.159 26.5005 142.276 26.2199 143.558 26.2199C144.386 26.2199 145.167 26.3477 145.901 26.6033C146.642 26.8532 147.294 27.2421 147.86 27.7698C148.431 28.2975 148.88 28.9698 149.207 29.7863C149.533 30.5974 149.696 31.564 149.696 32.6864V33.6113H140.341C140.35 34.3236 140.493 34.9373 140.769 35.4527C141.055 35.9805 141.454 36.3858 141.967 36.6691C142.48 36.9471 143.08 37.086 143.768 37.086C144.228 37.086 144.645 37.0248 145.018 36.9026C145.391 36.7747 145.715 36.5889 145.989 36.3444C146.263 36.0999 146.47 35.7972 146.61 35.4361L149.565 35.7527C149.378 36.497 149.023 37.1471 148.498 37.7025C147.979 38.2525 147.315 38.6804 146.505 38.9857C145.694 39.2856 144.768 39.4357 143.724 39.4357ZM140.751 30.1862C140.512 30.6126 140.377 31.0765 140.347 31.5778H146.662C146.656 31.0002 146.525 30.4864 146.269 30.0364C146.012 29.581 145.654 29.2224 145.193 28.9613C144.739 28.7002 144.208 28.5698 143.602 28.5698C142.955 28.5698 142.387 28.7197 141.897 29.0196C141.407 29.3142 141.025 29.7032 140.751 30.1862ZM154.458 26.3866H151.389V39.1859H154.554V31.6612C154.554 31.1168 154.685 30.6363 154.948 30.2197C155.21 29.8032 155.568 29.4782 156.023 29.2447C156.484 29.0058 157.003 28.8864 157.579 28.8864C157.848 28.8864 158.125 28.9058 158.41 28.9447C158.701 28.9782 158.914 29.0171 159.049 29.0613V26.2866C158.902 26.2588 158.719 26.2394 158.497 26.2283C158.282 26.2116 158.087 26.2033 157.912 26.2033C157.142 26.2033 156.457 26.406 155.857 26.8116C155.263 27.2115 154.843 27.7809 154.598 28.5197H154.458V26.3866Z" fill="white"></path></g></g><defs><radialGradient id="paint0_radial_465_817" cx="0" cy="0" r="1" gradientUnits="userSpaceOnUse" gradientTransform="translate(82.0423 30.8726) scale(173.651 361.355)"><stop offset="0.08" stop-color="#0A3D4E"></stop><stop offset="0.548764" stop-color="#07212A"></stop></radialGradient><clipPath id="clip0_465_817"><rect width="178" height="61.962" fill="white"></rect></clipPath></defs></svg> 