<?xml version="1.0" encoding="UTF-8"?> <svg xmlns="http://www.w3.org/2000/svg" width="178" height="63" viewBox="0 0 178 63" fill="none"><g clip-path="url(#clip0_465_714)"><path d="M171.643 0.924042H6.35714C2.84619 0.924042 0 3.77024 0 7.28119V56.3121C0 59.823 2.8462 62.6692 6.35715 62.6692H171.643C175.154 62.6692 178 59.823 178 56.312V7.28118C178 3.77023 175.154 0.924042 171.643 0.924042Z" fill="url(#paint0_radial_465_714)"></path><mask id="mask0_465_714" style="mask-type:luminance" maskUnits="userSpaceOnUse" x="29" y="15" width="120" height="33"><path d="M148.427 15.7429H29.5728V47.8505H148.427V15.7429Z" fill="white"></path></mask><g mask="url(#mask0_465_714)"><path d="M47.0489 25.0649L44.4271 23.5469C43.9933 23.296 43.2839 23.296 42.8501 23.5469L40.2283 25.0649C39.6625 25.3923 39.6616 25.9303 40.2252 26.2606L42.851 27.7992C43.2839 28.053 43.9933 28.053 44.4262 27.7992L47.0509 26.2606C47.6145 25.9303 47.6136 25.3923 47.0478 25.0649H47.0489Z" fill="white"></path><path d="M57.2703 23.1841L44.6061 15.929C44.1721 15.6801 43.4618 15.6801 43.0281 15.929L30.3628 23.1841C29.9279 23.4331 29.5728 24.0456 29.5728 24.5444V39.0479C29.5728 39.5466 29.9279 40.1592 30.3628 40.4082L43.0272 47.6631C43.461 47.9121 44.1713 47.9121 44.605 47.6631L57.2695 40.4082C57.7044 40.1592 58.0595 39.5466 58.0595 39.0479V24.5444C58.0595 24.0456 57.7044 23.4331 57.2695 23.1841H57.2703ZM51.6352 26.5505L44.427 30.7754C43.9941 31.0291 43.285 31.0291 42.8521 30.7754L38.2793 28.096C37.7106 27.7628 37.2465 28.0284 37.2465 28.685V36.7682C37.2465 37.4132 36.7781 37.6945 36.2055 37.3926L35.4293 36.984C34.9837 36.7488 34.6187 36.1461 34.6187 35.6433V26.8573C34.6187 26.3585 34.9727 25.7449 35.4056 25.4941L42.8509 21.182C43.285 20.9311 43.9941 20.9311 44.4281 21.182L51.6324 25.3539C52.1979 25.6813 52.199 26.2193 51.6352 26.5496V26.5505Z" fill="white"></path><path d="M73.013 42.0527C73.013 41.9105 73.0839 41.8302 73.2374 41.8302H73.6644C73.7864 41.8302 73.8985 41.9116 73.8985 42.0527V44.3036C73.8985 44.3743 73.868 44.4459 73.7557 44.5163L73.7351 44.5371C73.1045 45.0035 72.2998 45.2672 71.4144 45.2672C69.2668 45.2672 67.5364 43.5443 67.5364 41.4038C67.5364 39.2636 69.2767 37.5309 71.4242 37.5309C71.9131 37.5309 72.3804 37.623 72.8184 37.7945C73.1645 37.9258 73.8562 38.2404 73.8562 38.4941C73.8562 38.5344 73.8464 38.5755 73.8255 38.606L73.6025 38.9715C73.5512 39.0526 73.4901 39.0929 73.4292 39.0929C73.378 39.0929 73.3073 39.0724 73.2363 39.0115C72.7375 38.6569 72.0962 38.4237 71.4349 38.4237C69.6741 38.4237 68.4227 39.8534 68.4227 41.4145C68.4227 43.0776 69.807 44.385 71.4253 44.385C72.1278 44.385 72.7178 44.142 73.013 43.9285V42.0527Z" fill="white"></path><path d="M80.8675 44.2938C80.9894 44.2938 81.0908 44.3752 81.0908 44.5273V44.9328C81.0908 45.0545 80.9993 45.1553 80.8675 45.1553H76.5419C76.3893 45.1553 76.3186 45.0849 76.3186 44.9328V37.8562C76.3186 37.7345 76.4003 37.6337 76.5526 37.6337H76.9698C77.1016 37.6337 77.1931 37.7151 77.1931 37.8562V44.2938H80.8675Z" fill="white"></path><path d="M90.1387 41.4137C90.1387 43.5432 88.3984 45.266 86.241 45.266C84.0836 45.266 82.363 43.5432 82.363 41.403C82.363 39.2625 84.1033 37.5298 86.2509 37.5298C88.3984 37.5298 90.1387 39.2537 90.1387 41.4128V41.4137ZM86.2509 44.3949C87.8996 44.3949 89.2425 43.0562 89.2425 41.394C89.2425 39.732 87.8988 38.4139 86.2509 38.4139C84.603 38.4139 83.2483 39.7525 83.2483 41.394C83.2483 43.0357 84.5813 44.3949 86.2509 44.3949Z" fill="white"></path><path d="M97.0264 41.1303C97.6776 41.4754 98.1155 42.2054 98.1155 42.9855C98.1155 44.1411 97.2202 45.1553 96.019 45.1553H92.6711C92.5392 45.1553 92.437 45.0739 92.437 44.9328V37.8768C92.437 37.7151 92.5187 37.6337 92.6711 37.6337H95.6737C96.8236 37.6337 97.7198 38.4648 97.7198 39.6004C97.7198 40.1984 97.4554 40.756 97.0273 41.1315L97.0264 41.1303ZM95.663 38.4941H93.3115V40.8267H95.663C96.324 40.8267 96.8228 40.2786 96.8228 39.5996C96.8228 38.9206 96.3446 38.4941 95.663 38.4941ZM93.3115 41.688V44.2938H96.0083C96.6693 44.2938 97.2289 43.6854 97.2289 42.9855C97.2289 42.2859 96.6899 41.688 96.0083 41.688H93.3115Z" fill="white"></path><path d="M100.71 44.9526C100.648 45.0945 100.567 45.1553 100.425 45.1553H99.9874C99.8446 45.1553 99.7739 45.1044 99.7739 44.9937C99.7739 44.923 99.7945 44.8624 99.7945 44.8624C101.756 40.1713 102.739 37.8224 102.746 37.8159C102.776 37.7455 102.817 37.6337 103 37.6337H103.295C103.468 37.6337 103.519 37.7455 103.55 37.8159L106.48 44.872C106.48 44.872 106.511 44.9534 106.511 44.9937C106.511 45.1055 106.419 45.1553 106.288 45.1553H105.85C105.718 45.1553 105.616 45.0739 105.575 44.9633L104.985 43.5139H101.28L100.71 44.9534L100.71 44.9526ZM101.645 42.6515H104.627L103.141 38.9411L101.645 42.6515Z" fill="white"></path><path d="M113.206 44.2938C113.328 44.2938 113.429 44.3752 113.429 44.5273V44.9328C113.429 45.0545 113.337 45.1553 113.206 45.1553H108.88C108.727 45.1553 108.656 45.0849 108.656 44.9328V37.8562C108.656 37.7345 108.738 37.6337 108.891 37.6337H109.308C109.44 37.6337 109.531 37.7151 109.531 37.8562V44.2938H113.206Z" fill="white"></path><path d="M67.373 18.9457C67.373 18.6644 67.5423 18.5331 67.7685 18.5331H73.807C76.3846 18.5331 78.1525 20.8009 78.1525 23.0863C78.1525 25.3717 76.4406 27.5836 73.8641 27.5836H70.9854V32.025C70.9854 32.3053 70.835 32.4368 70.5525 32.4368H67.7685C67.4863 32.4368 67.373 32.3053 67.373 32.025V18.9457ZM70.9846 21.4937V24.623H73.0161C73.9379 24.623 74.464 23.8546 74.464 23.0677C74.464 22.2807 73.9182 21.4937 73.0161 21.4937H70.9846Z" fill="white"></path><path d="M81.4803 18.9457C81.4803 18.7389 81.6124 18.5331 81.876 18.5331H88.121C90.7732 18.5331 92.5797 20.8567 92.5797 23.199C92.5797 24.6984 91.6579 26.1596 90.2843 27.0407L92.974 32.0262C93.0872 32.2132 93.0115 32.4376 92.7479 32.4376H89.3616C89.098 32.4376 89.0034 32.3633 88.8541 32.0447L86.6159 27.809H85.1107V32.025C85.1107 32.3053 84.9601 32.4368 84.6964 32.4368H81.8749C81.6113 32.4368 81.4795 32.3053 81.4795 32.025V18.9457H81.4803ZM85.1116 21.4183V24.8101H87.1991C88.177 24.8101 88.8735 23.9859 88.8735 23.1235C88.8735 22.3179 88.177 21.4183 87.1991 21.4183H85.1116Z" fill="white"></path><path d="M102.737 18.3262C106.707 18.3262 109.923 21.5309 109.923 25.503C109.923 29.475 106.706 32.6424 102.737 32.6424C98.7685 32.6424 95.5515 29.4564 95.5515 25.503C95.5515 21.5495 98.7499 18.3262 102.737 18.3262ZM102.737 29.1956C104.806 29.1956 106.292 27.5659 106.292 25.4853C106.292 23.4047 104.807 21.775 102.737 21.775C100.667 21.775 99.1816 23.4243 99.1816 25.4853C99.1816 27.5463 100.667 29.1956 102.737 29.1956Z" fill="white"></path><path d="M113.703 18.9643C113.703 18.7016 113.853 18.5331 114.117 18.5331H120.079C122.28 18.5331 124.105 20.3128 124.105 22.562C124.105 23.4989 123.804 24.3231 123.259 24.9611C124.144 25.7853 124.727 26.9848 124.727 28.2402C124.727 30.5081 122.846 32.4376 120.627 32.4376H114.118C113.873 32.4376 113.703 32.3064 113.703 32.0447V18.9643H113.703ZM119.083 21.287H117.352V24.0046H119.045C119.911 24.0046 120.494 23.442 120.494 22.655C120.494 21.8681 119.91 21.287 119.083 21.287ZM119.553 26.534H117.352V29.6632H119.553C120.38 29.6632 121.001 28.8949 121.001 28.0893C121.001 27.3406 120.38 26.534 119.553 26.534Z" fill="white"></path><path d="M129.09 18.9457C129.09 18.6644 129.222 18.5331 129.485 18.5331H132.307C132.57 18.5331 132.721 18.6644 132.721 18.9457V32.0262C132.721 32.3064 132.57 32.4376 132.307 32.4376H129.485C129.222 32.4376 129.09 32.3064 129.09 32.0262V18.9457Z" fill="white"></path><path d="M137.404 18.9457C137.404 18.6644 137.536 18.5331 137.818 18.5331H148.014C148.278 18.5331 148.428 18.6644 148.428 18.9457V21.3252C148.428 21.5878 148.278 21.7368 148.014 21.7368H144.684V32.025C144.684 32.3053 144.533 32.4368 144.251 32.4368H141.543C141.279 32.4368 141.129 32.3053 141.129 32.025V21.7368H137.818C137.536 21.7368 137.404 21.5868 137.404 21.3252V18.9457Z" fill="white"></path></g></g><defs><radialGradient id="paint0_radial_465_714" cx="0" cy="0" r="1" gradientUnits="userSpaceOnUse" gradientTransform="translate(82.0423 31.7966) scale(173.651 361.355)"><stop offset="0.08" stop-color="#0A3D4E"></stop><stop offset="0.548764" stop-color="#07212A"></stop></radialGradient><clipPath id="clip0_465_714"><rect width="178" height="61.962" fill="white" transform="translate(0 0.924042)"></rect></clipPath></defs></svg> 