<?xml version="1.0" encoding="UTF-8"?> <svg xmlns="http://www.w3.org/2000/svg" width="1197" height="485" viewBox="0 0 1197 485" fill="none"><g clip-path="url(#clip0_2804_2)"><rect width="1197" height="485" fill="#00141B"></rect><g opacity="0.05"><path d="M77 -16V514" stroke="#D9D9D9" stroke-width="0.42437"></path><path d="M133 -16V514" stroke="#D9D9D9" stroke-width="0.42437"></path><path d="M189 -16V514" stroke="#D9D9D9" stroke-width="0.42437"></path><path d="M244 -16V514" stroke="#D9D9D9" stroke-width="0.42437"></path><path d="M300 -16V514" stroke="#D9D9D9" stroke-width="0.42437"></path><path d="M355 -16V514" stroke="#D9D9D9" stroke-width="0.42437"></path><path d="M411 -16V514" stroke="#D9D9D9" stroke-width="0.42437"></path><path d="M467 -16V514" stroke="#D9D9D9" stroke-width="0.42437"></path><path d="M522 -16V514" stroke="#D9D9D9" stroke-width="0.42437"></path><path d="M578 -16V514" stroke="#D9D9D9" stroke-width="0.42437"></path><path d="M633 -16V514" stroke="#D9D9D9" stroke-width="0.42437"></path><path d="M689 -16V514" stroke="#D9D9D9" stroke-width="0.42437"></path><path d="M744 -16V514" stroke="#D9D9D9" stroke-width="0.42437"></path><path d="M800 -16V514" stroke="#D9D9D9" stroke-width="0.42437"></path><path d="M856 -16V514" stroke="#D9D9D9" stroke-width="0.42437"></path><path d="M911 -16V514" stroke="#D9D9D9" stroke-width="0.42437"></path><path d="M967 -16V514" stroke="#D9D9D9" stroke-width="0.42437"></path><path d="M1022 -16V514" stroke="#D9D9D9" stroke-width="0.42437"></path><path d="M1078 -16V514" stroke="#D9D9D9" stroke-width="0.42437"></path><path d="M1134 -16V514" stroke="#D9D9D9" stroke-width="0.42437"></path><path d="M1237 27L-26 27" stroke="#D9D9D9" stroke-width="0.42437"></path><path d="M1237 51L-26 51" stroke="#D9D9D9" stroke-width="0.42437"></path><path d="M1237 74L-26 74" stroke="#D9D9D9" stroke-width="0.42437"></path><path d="M1237 97L-26 97" stroke="#D9D9D9" stroke-width="0.42437"></path><path d="M1237 121L-26 121" stroke="#D9D9D9" stroke-width="0.42437"></path><path d="M1237 144L-26 144" stroke="#D9D9D9" stroke-width="0.42437"></path><path d="M1237 167L-26 167" stroke="#D9D9D9" stroke-width="0.42437"></path><path d="M1237 191L-26 191" stroke="#D9D9D9" stroke-width="0.42437"></path><path d="M1237 214L-26 214" stroke="#D9D9D9" stroke-width="0.42437"></path><path d="M1237 237L-26 237" stroke="#D9D9D9" stroke-width="0.42437"></path><path d="M1237 261L-26 261" stroke="#D9D9D9" stroke-width="0.42437"></path><path d="M1237 284L-26 284" stroke="#D9D9D9" stroke-width="0.42437"></path><path d="M1237 307L-26 307" stroke="#D9D9D9" stroke-width="0.42437"></path><path d="M1237 331L-26 331" stroke="#D9D9D9" stroke-width="0.42437"></path><path d="M1237 354L-26 354" stroke="#D9D9D9" stroke-width="0.42437"></path><path d="M1237 377L-26 377" stroke="#D9D9D9" stroke-width="0.42437"></path><path d="M1237 401L-26 401" stroke="#D9D9D9" stroke-width="0.42437"></path><path d="M1237 424L-26 424" stroke="#D9D9D9" stroke-width="0.42437"></path><path d="M1237 448L-26 448" stroke="#D9D9D9" stroke-width="0.42437"></path><path d="M1237 471L-26 471" stroke="#D9D9D9" stroke-width="0.42437"></path></g><rect x="1" y="360" width="1196" height="139" fill="url(#paint0_linear_2804_2)"></rect><path opacity="0.4" d="M-9 443H1218" stroke="#176B87" stroke-dasharray="6 6"></path><path opacity="0.4" d="M-9 354H1218" stroke="#176B87" stroke-dasharray="6 6"></path><path opacity="0.4" d="M-9 144H1218" stroke="#176B87" stroke-dasharray="6 6"></path><path d="M85.9514 25V257.574" stroke="#176B87" stroke-width="0.842661"></path><mask id="path-46-outside-1_2804_2" maskUnits="userSpaceOnUse" x="714.419" y="254.889" width="12" height="53" fill="black"><rect fill="white" x="714.419" y="254.889" width="12" height="53"></rect><path fill-rule="evenodd" clip-rule="evenodd" d="M721.002 255.889H719.606V268.666H715.419V301.188H719.606V306.996H721.002V301.188H725.19V268.666H721.002V255.889Z"></path></mask><path fill-rule="evenodd" clip-rule="evenodd" d="M721.002 255.889H719.606V268.666H715.419V301.188H719.606V306.996H721.002V301.188H725.19V268.666H721.002V255.889Z" fill="url(#paint1_linear_2804_2)"></path><path d="M719.606 255.889V255.342H719.059V255.889H719.606ZM721.002 255.889H721.55V255.342H721.002V255.889ZM719.606 268.666V269.214H720.154V268.666H719.606ZM715.419 268.666V268.118H714.871V268.666H715.419ZM715.419 301.188H714.871V301.736H715.419V301.188ZM719.606 301.188H720.154V300.64H719.606V301.188ZM719.606 306.996H719.059V307.543H719.606V306.996ZM721.002 306.996V307.543H721.55V306.996H721.002ZM721.002 301.188V300.64H720.455V301.188H721.002ZM725.19 301.188V301.736H725.737V301.188H725.19ZM725.19 268.666H725.737V268.118H725.19V268.666ZM721.002 268.666H720.455V269.214H721.002V268.666ZM719.606 256.437H721.002V255.342H719.606V256.437ZM720.154 268.666V255.889H719.059V268.666H720.154ZM715.419 269.214H719.606V268.118H715.419V269.214ZM715.967 301.188V268.666H714.871V301.188H715.967ZM719.606 300.64H715.419V301.736H719.606V300.64ZM720.154 306.996V301.188H719.059V306.996H720.154ZM721.002 306.448H719.606V307.543H721.002V306.448ZM720.455 301.188V306.996H721.55V301.188H720.455ZM725.19 300.64H721.002V301.736H725.19V300.64ZM724.642 268.666V301.188H725.737V268.666H724.642ZM721.002 269.214H725.19V268.118H721.002V269.214ZM720.455 255.889V268.666H721.55V255.889H720.455Z" fill="#3291B0" mask="url(#path-46-outside-1_2804_2)"></path><mask id="path-48-outside-2_2804_2" maskUnits="userSpaceOnUse" x="739.699" y="294.147" width="12" height="43" fill="black"><rect fill="white" x="739.699" y="294.147" width="12" height="43"></rect><path fill-rule="evenodd" clip-rule="evenodd" d="M746.282 336.147H744.886V316.788H740.699V298.72H744.886V295.494H746.282V298.72H750.469V316.788H746.282V336.147Z"></path></mask><path fill-rule="evenodd" clip-rule="evenodd" d="M746.282 336.147H744.886V316.788H740.699V298.72H744.886V295.494H746.282V298.72H750.469V316.788H746.282V336.147Z" fill="url(#paint2_linear_2804_2)"></path><path d="M744.886 336.147V336.695H744.339V336.147H744.886ZM746.282 336.147H746.83V336.695H746.282V336.147ZM744.886 316.788V316.24H745.434V316.788H744.886ZM740.699 316.788V317.336H740.151V316.788H740.699ZM740.699 298.72H740.151V298.173H740.699V298.72ZM744.886 298.72H745.434V299.268H744.886V298.72ZM744.886 295.494H744.339V294.946H744.886V295.494ZM746.282 295.494V294.946H746.83V295.494H746.282ZM746.282 298.72V299.268H745.734V298.72H746.282ZM750.469 298.72V298.173H751.017V298.72H750.469ZM750.469 316.788H751.017V317.336H750.469V316.788ZM746.282 316.788H745.734V316.24H746.282V316.788ZM744.886 335.599H746.282V336.695H744.886V335.599ZM745.434 316.788V336.147H744.339V316.788H745.434ZM740.699 316.24H744.886V317.336H740.699V316.24ZM741.247 298.72V316.788H740.151V298.72H741.247ZM744.886 299.268H740.699V298.173H744.886V299.268ZM745.434 295.494V298.72H744.339V295.494H745.434ZM746.282 296.042H744.886V294.946H746.282V296.042ZM745.734 298.72V295.494H746.83V298.72H745.734ZM750.469 299.268H746.282V298.173H750.469V299.268ZM749.922 316.788V298.72H751.017V316.788H749.922ZM746.282 316.24H750.469V317.336H746.282V316.24ZM745.734 336.147V316.788H746.83V336.147H745.734Z" fill="#3291B0" mask="url(#path-48-outside-2_2804_2)"></path><mask id="path-50-outside-3_2804_2" maskUnits="userSpaceOnUse" x="115.105" y="170.623" width="12" height="31" fill="black"><rect fill="white" x="115.105" y="170.623" width="12" height="31"></rect><path fill-rule="evenodd" clip-rule="evenodd" d="M121.688 171.623H120.292V187.884H116.105V200.661H120.292V200.661H121.688V200.661H125.875V187.884H121.688V171.623Z"></path></mask><path fill-rule="evenodd" clip-rule="evenodd" d="M121.688 171.623H120.292V187.884H116.105V200.661H120.292V200.661H121.688V200.661H125.875V187.884H121.688V171.623Z" fill="url(#paint3_linear_2804_2)"></path><path d="M120.292 171.623V171.075H119.744V171.623H120.292ZM121.688 171.623H122.236V171.075H121.688V171.623ZM120.292 187.884V188.432H120.84V187.884H120.292ZM116.105 187.884V187.336H115.557V187.884H116.105ZM116.105 200.661H115.557V201.208H116.105V200.661ZM120.292 200.661H120.84V200.113H120.292V200.661ZM120.292 200.661H119.744V201.209H120.292V200.661ZM121.688 200.661V201.209H122.236V200.661H121.688ZM121.688 200.661V200.113H121.14V200.661H121.688ZM125.875 200.661V201.208H126.423V200.661H125.875ZM125.875 187.884H126.423V187.336H125.875V187.884ZM121.688 187.884H121.14V188.432H121.688V187.884ZM120.292 172.171H121.688V171.075H120.292V172.171ZM120.84 187.884V171.623H119.744V187.884H120.84ZM116.105 188.432H120.292V187.336H116.105V188.432ZM116.652 200.661V187.884H115.557V200.661H116.652ZM120.292 200.113H116.105V201.208H120.292V200.113ZM120.84 200.661V200.661H119.744V200.661H120.84ZM121.688 200.113H120.292V201.209H121.688V200.113ZM121.14 200.661V200.661H122.236V200.661H121.14ZM125.875 200.113H121.688V201.208H125.875V200.113ZM125.327 187.884V200.661H126.423V187.884H125.327ZM121.688 188.432H125.875V187.336H121.688V188.432ZM121.14 171.623V187.884H122.236V171.623H121.14Z" fill="#3291B0" mask="url(#path-50-outside-3_2804_2)"></path><mask id="path-52-outside-4_2804_2" maskUnits="userSpaceOnUse" x="79.8955" y="167.252" width="12" height="54" fill="black"><rect fill="white" x="79.8955" y="167.252" width="12" height="54"></rect><path fill-rule="evenodd" clip-rule="evenodd" d="M86.7942 168.252H85.1088V171.623H80.8955V199.431H85.1088V220.497H86.7942V199.431H91.0074V171.623H86.7942V168.252Z"></path></mask><path fill-rule="evenodd" clip-rule="evenodd" d="M86.7942 168.252H85.1088V171.623H80.8955V199.431H85.1088V220.497H86.7942V199.431H91.0074V171.623H86.7942V168.252Z" fill="url(#paint4_linear_2804_2)"></path><path d="M85.1088 168.252V167.704H84.5611V168.252H85.1088ZM86.7942 168.252H87.3419V167.704H86.7942V168.252ZM85.1088 171.623V172.171H85.6566V171.623H85.1088ZM80.8955 171.623V171.075H80.3478V171.623H80.8955ZM80.8955 199.431H80.3478V199.979H80.8955V199.431ZM85.1088 199.431H85.6566V198.883H85.1088V199.431ZM85.1088 220.497H84.5611V221.045H85.1088V220.497ZM86.7942 220.497V221.045H87.3419V220.497H86.7942ZM86.7942 199.431V198.883H86.2464V199.431H86.7942ZM91.0074 199.431V199.979H91.5552V199.431H91.0074ZM91.0074 171.623H91.5552V171.075H91.0074V171.623ZM86.7942 171.623H86.2464V172.171H86.7942V171.623ZM85.1088 168.8H86.7942V167.704H85.1088V168.8ZM85.6566 171.623V168.252H84.5611V171.623H85.6566ZM80.8955 172.171H85.1088V171.075H80.8955V172.171ZM81.4432 199.431V171.623H80.3478V199.431H81.4432ZM85.1088 198.883H80.8955V199.979H85.1088V198.883ZM85.6566 220.497V199.431H84.5611V220.497H85.6566ZM86.7942 219.949H85.1088V221.045H86.7942V219.949ZM86.2464 199.431V220.497H87.3419V199.431H86.2464ZM91.0074 198.883H86.7942V199.979H91.0074V198.883ZM90.4597 171.623V199.431H91.5552V171.623H90.4597ZM86.7942 172.171H91.0074V171.075H86.7942V172.171ZM86.2464 168.252V171.623H87.3419V168.252H86.2464Z" fill="#3291B0" mask="url(#path-52-outside-4_2804_2)"></path><mask id="path-54-outside-5_2804_2" maskUnits="userSpaceOnUse" x="168.352" y="163.039" width="12" height="66" fill="black"><rect fill="white" x="168.352" y="163.039" width="12" height="66"></rect><path fill-rule="evenodd" clip-rule="evenodd" d="M179.122 164.039H169.352V220.953H173.539V227.922H174.935V220.953H179.122V164.039Z"></path></mask><path fill-rule="evenodd" clip-rule="evenodd" d="M179.122 164.039H169.352V220.953H173.539V227.922H174.935V220.953H179.122V164.039Z" fill="url(#paint5_linear_2804_2)"></path><path d="M169.352 164.039V163.491H168.804V164.039H169.352ZM179.122 164.039H179.67V163.491H179.122V164.039ZM169.352 220.953H168.804V221.501H169.352V220.953ZM173.539 220.953H174.086V220.405H173.539V220.953ZM173.539 227.922H172.991V228.47H173.539V227.922ZM174.935 227.922V228.47H175.482V227.922H174.935ZM174.935 220.953V220.405H174.387V220.953H174.935ZM179.122 220.953V221.501H179.67V220.953H179.122ZM169.352 164.587H179.122V163.491H169.352V164.587ZM169.899 220.953V164.039H168.804V220.953H169.899ZM173.539 220.405H169.352V221.501H173.539V220.405ZM174.086 227.922V220.953H172.991V227.922H174.086ZM174.935 227.375H173.539V228.47H174.935V227.375ZM174.387 220.953V227.922H175.482V220.953H174.387ZM179.122 220.405H174.935V221.501H179.122V220.405ZM178.574 164.039V220.953H179.67V164.039H178.574Z" fill="#3291B0" mask="url(#path-54-outside-5_2804_2)"></path><mask id="path-56-outside-6_2804_2" maskUnits="userSpaceOnUse" x="64.7275" y="140.287" width="12" height="47" fill="black"><rect fill="white" x="64.7275" y="140.287" width="12" height="47"></rect><path fill-rule="evenodd" clip-rule="evenodd" d="M71.3106 141.287H69.9149V154.064H65.7275V172.648H69.9149V186.586H71.3106V172.648H75.4979V154.064H71.3106V141.287Z"></path></mask><path fill-rule="evenodd" clip-rule="evenodd" d="M71.3106 141.287H69.9149V154.064H65.7275V172.648H69.9149V186.586H71.3106V172.648H75.4979V154.064H71.3106V141.287Z" fill="url(#paint6_linear_2804_2)"></path><path d="M69.9149 141.287V140.739H69.3672V141.287H69.9149ZM71.3106 141.287H71.8584V140.739H71.3106V141.287ZM69.9149 154.064V154.611H70.4626V154.064H69.9149ZM65.7275 154.064V153.516H65.1798V154.064H65.7275ZM65.7275 172.648H65.1798V173.195H65.7275V172.648ZM69.9149 172.648H70.4626V172.1H69.9149V172.648ZM69.9149 186.586H69.3672V187.133H69.9149V186.586ZM71.3106 186.586V187.133H71.8584V186.586H71.3106ZM71.3106 172.648V172.1H70.7629V172.648H71.3106ZM75.4979 172.648V173.195H76.0456V172.648H75.4979ZM75.4979 154.064H76.0456V153.516H75.4979V154.064ZM71.3106 154.064H70.7629V154.611H71.3106V154.064ZM69.9149 141.835H71.3106V140.739H69.9149V141.835ZM70.4626 154.064V141.287H69.3672V154.064H70.4626ZM65.7275 154.611H69.9149V153.516H65.7275V154.611ZM66.2753 172.648V154.064H65.1798V172.648H66.2753ZM69.9149 172.1H65.7275V173.195H69.9149V172.1ZM70.4626 186.586V172.648H69.3672V186.586H70.4626ZM71.3106 186.038H69.9149V187.133H71.3106V186.038ZM70.7629 172.648V186.586H71.8584V172.648H70.7629ZM75.4979 172.1H71.3106V173.195H75.4979V172.1ZM74.9501 154.064V172.648H76.0456V154.064H74.9501ZM71.3106 154.611H75.4979V153.516H71.3106V154.611ZM70.7629 141.287V154.064H71.8584V141.287H70.7629Z" fill="#3291B0" mask="url(#path-56-outside-6_2804_2)"></path><mask id="path-58-outside-7_2804_2" maskUnits="userSpaceOnUse" x="35.2344" y="174.836" width="12" height="24" fill="black"><rect fill="white" x="35.2344" y="174.836" width="12" height="24"></rect><path fill-rule="evenodd" clip-rule="evenodd" d="M41.8175 175.836H40.4217V181.644H36.2344V189.774H40.4217V197.905H41.8175V189.774H46.0047V181.644H41.8175V175.836Z"></path></mask><path fill-rule="evenodd" clip-rule="evenodd" d="M41.8175 175.836H40.4217V181.644H36.2344V189.774H40.4217V197.905H41.8175V189.774H46.0047V181.644H41.8175V175.836Z" fill="url(#paint7_linear_2804_2)"></path><path d="M40.4217 175.836V175.289H39.874V175.836H40.4217ZM41.8175 175.836H42.3652V175.289H41.8175V175.836ZM40.4217 181.644V182.192H40.9695V181.644H40.4217ZM36.2344 181.644V181.096H35.6866V181.644H36.2344ZM36.2344 189.774H35.6866V190.322H36.2344V189.774ZM40.4217 189.774H40.9695V189.227H40.4217V189.774ZM40.4217 197.905H39.874V198.453H40.4217V197.905ZM41.8175 197.905V198.453H42.3652V197.905H41.8175ZM41.8175 189.774V189.227H41.2698V189.774H41.8175ZM46.0047 189.774V190.322H46.5524V189.774H46.0047ZM46.0047 181.644H46.5524V181.096H46.0047V181.644ZM41.8175 181.644H41.2698V182.192H41.8175V181.644ZM40.4217 176.384H41.8175V175.289H40.4217V176.384ZM40.9695 181.644V175.836H39.874V181.644H40.9695ZM36.2344 182.192H40.4217V181.096H36.2344V182.192ZM36.7821 189.774V181.644H35.6866V189.774H36.7821ZM40.4217 189.227H36.2344V190.322H40.4217V189.227ZM40.9695 197.905V189.774H39.874V197.905H40.9695ZM41.8175 197.357H40.4217V198.453H41.8175V197.357ZM41.2698 189.774V197.905H42.3652V189.774H41.2698ZM46.0047 189.227H41.8175V190.322H46.0047V189.227ZM45.457 181.644V189.774H46.5524V181.644H45.457ZM41.8175 182.192H46.0047V181.096H41.8175V182.192ZM41.2698 175.836V181.644H42.3652V175.836H41.2698Z" fill="#3291B0" mask="url(#path-58-outside-7_2804_2)"></path><mask id="path-60-outside-8_2804_2" maskUnits="userSpaceOnUse" x="566.954" y="186.633" width="12" height="45" fill="black"><rect fill="white" x="566.954" y="186.633" width="12" height="45"></rect><path fill-rule="evenodd" clip-rule="evenodd" d="M573.537 187.633H572.141V189.957H567.954V222.479H572.141V230.609H573.537V222.479H577.724V189.957H573.537V187.633Z"></path></mask><path fill-rule="evenodd" clip-rule="evenodd" d="M573.537 187.633H572.141V189.957H567.954V222.479H572.141V230.609H573.537V222.479H577.724V189.957H573.537V187.633Z" fill="url(#paint8_linear_2804_2)"></path><path d="M572.141 187.633V187.086H571.593V187.633H572.141ZM573.537 187.633H574.084V187.086H573.537V187.633ZM572.141 189.957V190.504H572.689V189.957H572.141ZM567.954 189.957V189.409H567.406V189.957H567.954ZM567.954 222.479H567.406V223.027H567.954V222.479ZM572.141 222.479H572.689V221.931H572.141V222.479ZM572.141 230.609H571.593V231.157H572.141V230.609ZM573.537 230.609V231.157H574.084V230.609H573.537ZM573.537 222.479V221.931H572.989V222.479H573.537ZM577.724 222.479V223.027H578.272V222.479H577.724ZM577.724 189.957H578.272V189.409H577.724V189.957ZM573.537 189.957H572.989V190.504H573.537V189.957ZM572.141 188.181H573.537V187.086H572.141V188.181ZM572.689 189.957V187.633H571.593V189.957H572.689ZM567.954 190.504H572.141V189.409H567.954V190.504ZM568.501 222.479V189.957H567.406V222.479H568.501ZM572.141 221.931H567.954V223.027H572.141V221.931ZM572.689 230.609V222.479H571.593V230.609H572.689ZM573.537 230.061H572.141V231.157H573.537V230.061ZM572.989 222.479V230.609H574.084V222.479H572.989ZM577.724 221.931H573.537V223.027H577.724V221.931ZM577.176 189.957V222.479H578.272V189.957H577.176ZM573.537 190.504H577.724V189.409H573.537V190.504ZM572.989 187.633V189.957H574.084V187.633H572.989Z" fill="#3291B0" mask="url(#path-60-outside-8_2804_2)"></path><mask id="path-62-outside-9_2804_2" maskUnits="userSpaceOnUse" x="481.002" y="178.207" width="12" height="22" fill="black"><rect fill="white" x="481.002" y="178.207" width="12" height="22"></rect><path fill-rule="evenodd" clip-rule="evenodd" d="M487.585 179.207H486.189V186.176H482.002V193.145H486.189V198.952H487.585V193.145H491.773V186.176H487.585V179.207Z"></path></mask><path fill-rule="evenodd" clip-rule="evenodd" d="M487.585 179.207H486.189V186.176H482.002V193.145H486.189V198.952H487.585V193.145H491.773V186.176H487.585V179.207Z" fill="url(#paint9_linear_2804_2)"></path><path d="M486.189 179.207V178.659H485.642V179.207H486.189ZM487.585 179.207H488.133V178.659H487.585V179.207ZM486.189 186.176V186.723H486.737V186.176H486.189ZM482.002 186.176V185.628H481.454V186.176H482.002ZM482.002 193.145H481.454V193.693H482.002V193.145ZM486.189 193.145H486.737V192.597H486.189V193.145ZM486.189 198.952H485.642V199.5H486.189V198.952ZM487.585 198.952V199.5H488.133V198.952H487.585ZM487.585 193.145V192.597H487.038V193.145H487.585ZM491.773 193.145V193.693H492.32V193.145H491.773ZM491.773 186.176H492.32V185.628H491.773V186.176ZM487.585 186.176H487.038V186.723H487.585V186.176ZM486.189 179.754H487.585V178.659H486.189V179.754ZM486.737 186.176V179.207H485.642V186.176H486.737ZM482.002 186.723H486.189V185.628H482.002V186.723ZM482.55 193.145V186.176H481.454V193.145H482.55ZM486.189 192.597H482.002V193.693H486.189V192.597ZM486.737 198.952V193.145H485.642V198.952H486.737ZM487.585 198.405H486.189V199.5H487.585V198.405ZM487.038 193.145V198.952H488.133V193.145H487.038ZM491.773 192.597H487.585V193.693H491.773V192.597ZM491.225 186.176V193.145H492.32V186.176H491.225ZM487.585 186.723H491.773V185.628H487.585V186.723ZM487.038 179.207V186.176H488.133V179.207H487.038Z" fill="#3291B0" mask="url(#path-62-outside-9_2804_2)"></path><mask id="path-64-outside-10_2804_2" maskUnits="userSpaceOnUse" x="496.17" y="153.77" width="12" height="40" fill="black"><rect fill="white" x="496.17" y="153.77" width="12" height="40"></rect><path fill-rule="evenodd" clip-rule="evenodd" d="M502.753 154.77H501.357V169.869H497.17V179.161H501.357V193.1H502.753V179.161H506.94V169.869H502.753V154.77Z"></path></mask><path fill-rule="evenodd" clip-rule="evenodd" d="M502.753 154.77H501.357V169.869H497.17V179.161H501.357V193.1H502.753V179.161H506.94V169.869H502.753V154.77Z" fill="url(#paint10_linear_2804_2)"></path><path d="M501.357 154.77V154.222H500.809V154.77H501.357ZM502.753 154.77H503.301V154.222H502.753V154.77ZM501.357 169.869V170.417H501.905V169.869H501.357ZM497.17 169.869V169.322H496.622V169.869H497.17ZM497.17 179.161H496.622V179.709H497.17V179.161ZM501.357 179.161H501.905V178.614H501.357V179.161ZM501.357 193.1H500.809V193.647H501.357V193.1ZM502.753 193.1V193.647H503.301V193.1H502.753ZM502.753 179.161V178.614H502.205V179.161H502.753ZM506.94 179.161V179.709H507.488V179.161H506.94ZM506.94 169.869H507.488V169.322H506.94V169.869ZM502.753 169.869H502.205V170.417H502.753V169.869ZM501.357 155.318H502.753V154.222H501.357V155.318ZM501.905 169.869V154.77H500.809V169.869H501.905ZM497.17 170.417H501.357V169.322H497.17V170.417ZM497.718 179.161V169.869H496.622V179.161H497.718ZM501.357 178.614H497.17V179.709H501.357V178.614ZM501.905 193.1V179.161H500.809V193.1H501.905ZM502.753 192.552H501.357V193.647H502.753V192.552ZM502.205 179.161V193.1H503.301V179.161H502.205ZM506.94 178.614H502.753V179.709H506.94V178.614ZM506.393 169.869V179.161H507.488V169.869H506.393ZM502.753 170.417H506.94V169.322H502.753V170.417ZM502.205 154.77V169.869H503.301V154.77H502.205Z" fill="#3291B0" mask="url(#path-64-outside-10_2804_2)"></path><mask id="path-66-outside-11_2804_2" maskUnits="userSpaceOnUse" x="277.921" y="186.633" width="12" height="38" fill="black"><rect fill="white" x="277.921" y="186.633" width="12" height="38"></rect><path fill-rule="evenodd" clip-rule="evenodd" d="M284.504 187.633H283.108V206.218H278.921V214.349H283.108V223.64H284.504V214.349H288.691V206.218H284.504V187.633Z"></path></mask><path fill-rule="evenodd" clip-rule="evenodd" d="M284.504 187.633H283.108V206.218H278.921V214.349H283.108V223.64H284.504V214.349H288.691V206.218H284.504V187.633Z" fill="url(#paint11_linear_2804_2)"></path><path d="M283.108 187.633V187.086H282.56V187.633H283.108ZM284.504 187.633H285.052V187.086H284.504V187.633ZM283.108 206.218V206.766H283.656V206.218H283.108ZM278.921 206.218V205.67H278.373V206.218H278.921ZM278.921 214.349H278.373V214.896H278.921V214.349ZM283.108 214.349H283.656V213.801H283.108V214.349ZM283.108 223.64H282.56V224.188H283.108V223.64ZM284.504 223.64V224.188H285.052V223.64H284.504ZM284.504 214.349V213.801H283.956V214.349H284.504ZM288.691 214.349V214.896H289.239V214.349H288.691ZM288.691 206.218H289.239V205.67H288.691V206.218ZM284.504 206.218H283.956V206.766H284.504V206.218ZM283.108 188.181H284.504V187.086H283.108V188.181ZM283.656 206.218V187.633H282.56V206.218H283.656ZM278.921 206.766H283.108V205.67H278.921V206.766ZM279.469 214.349V206.218H278.373V214.349H279.469ZM283.108 213.801H278.921V214.896H283.108V213.801ZM283.656 223.64V214.349H282.56V223.64H283.656ZM284.504 223.092H283.108V224.188H284.504V223.092ZM283.956 214.349V223.64H285.052V214.349H283.956ZM288.691 213.801H284.504V214.896H288.691V213.801ZM288.143 206.218V214.349H289.239V206.218H288.143ZM284.504 206.766H288.691V205.67H284.504V206.766ZM283.956 187.633V206.218H285.052V187.633H283.956Z" fill="#3291B0" mask="url(#path-66-outside-11_2804_2)"></path><mask id="path-68-outside-12_2804_2" maskUnits="userSpaceOnUse" x="141.728" y="151.242" width="12" height="71" fill="black"><rect fill="white" x="141.728" y="151.242" width="12" height="71"></rect><path fill-rule="evenodd" clip-rule="evenodd" d="M152.499 152.242H142.728V198.702H146.916V220.771H148.311V198.702H152.499V152.242Z"></path></mask><path fill-rule="evenodd" clip-rule="evenodd" d="M152.499 152.242H142.728V198.702H146.916V220.771H148.311V198.702H152.499V152.242Z" fill="url(#paint12_linear_2804_2)"></path><path d="M142.728 152.242V151.694H142.181V152.242H142.728ZM152.499 152.242H153.046V151.694H152.499V152.242ZM142.728 198.702H142.181V199.25H142.728V198.702ZM146.916 198.702H147.463V198.155H146.916V198.702ZM146.916 220.771H146.368V221.318H146.916V220.771ZM148.311 220.771V221.318H148.859V220.771H148.311ZM148.311 198.702V198.155H147.764V198.702H148.311ZM152.499 198.702V199.25H153.046V198.702H152.499ZM142.728 152.79H152.499V151.694H142.728V152.79ZM143.276 198.702V152.242H142.181V198.702H143.276ZM146.916 198.155H142.728V199.25H146.916V198.155ZM147.463 220.771V198.702H146.368V220.771H147.463ZM148.311 220.223H146.916V221.318H148.311V220.223ZM147.764 198.702V220.771H148.859V198.702H147.764ZM152.499 198.155H148.311V199.25H152.499V198.155ZM151.951 152.242V198.702H153.046V152.242H151.951Z" fill="#3291B0" mask="url(#path-68-outside-12_2804_2)"></path><mask id="path-70-outside-13_2804_2" maskUnits="userSpaceOnUse" x="260.225" y="208.543" width="12" height="71" fill="black"><rect fill="white" x="260.225" y="208.543" width="12" height="71"></rect><path fill-rule="evenodd" clip-rule="evenodd" d="M270.995 209.543H261.225V256.003H265.412V278.072H266.808V256.003H270.995V209.543Z"></path></mask><path fill-rule="evenodd" clip-rule="evenodd" d="M270.995 209.543H261.225V256.003H265.412V278.072H266.808V256.003H270.995V209.543Z" fill="url(#paint13_linear_2804_2)"></path><path d="M261.225 209.543V208.995H260.677V209.543H261.225ZM270.995 209.543H271.543V208.995H270.995V209.543ZM261.225 256.003H260.677V256.551H261.225V256.003ZM265.412 256.003H265.96V255.455H265.412V256.003ZM265.412 278.072H264.864V278.619H265.412V278.072ZM266.808 278.072V278.619H267.356V278.072H266.808ZM266.808 256.003V255.455H266.26V256.003H266.808ZM270.995 256.003V256.551H271.543V256.003H270.995ZM261.225 210.091H270.995V208.995H261.225V210.091ZM261.773 256.003V209.543H260.677V256.003H261.773ZM265.412 255.455H261.225V256.551H265.412V255.455ZM265.96 278.072V256.003H264.864V278.072H265.96ZM266.808 277.524H265.412V278.619H266.808V277.524ZM266.26 256.003V278.072H267.356V256.003H266.26ZM270.995 255.455H266.808V256.551H270.995V255.455ZM270.447 209.543V256.003H271.543V209.543H270.447Z" fill="#3291B0" mask="url(#path-70-outside-13_2804_2)"></path><mask id="path-72-outside-14_2804_2" maskUnits="userSpaceOnUse" x="586.335" y="211.411" width="12" height="78" fill="black"><rect fill="white" x="586.335" y="211.411" width="12" height="78"></rect><path fill-rule="evenodd" clip-rule="evenodd" d="M592.918 288.411H591.522V264.02H587.335V212.913H597.105V264.02H592.918V288.411Z"></path></mask><path fill-rule="evenodd" clip-rule="evenodd" d="M592.918 288.411H591.522V264.02H587.335V212.913H597.105V264.02H592.918V288.411Z" fill="url(#paint14_linear_2804_2)"></path><path d="M591.522 288.411V288.959H590.974V288.411H591.522ZM592.918 288.411H593.465V288.959H592.918V288.411ZM591.522 264.02V263.472H592.07V264.02H591.522ZM587.335 264.02V264.567H586.787V264.02H587.335ZM587.335 212.913H586.787V212.366H587.335V212.913ZM597.105 212.913V212.366H597.653V212.913H597.105ZM597.105 264.02H597.653V264.567H597.105V264.02ZM592.918 264.02H592.37V263.472H592.918V264.02ZM591.522 287.864H592.918V288.959H591.522V287.864ZM592.07 264.02V288.411H590.974V264.02H592.07ZM587.335 263.472H591.522V264.567H587.335V263.472ZM587.882 212.913V264.02H586.787V212.913H587.882ZM597.105 213.461H587.335V212.366H597.105V213.461ZM596.557 264.02V212.913H597.653V264.02H596.557ZM592.918 263.472H597.105V264.567H592.918V263.472ZM592.37 288.411V264.02H593.465V288.411H592.37Z" fill="#3291B0" mask="url(#path-72-outside-14_2804_2)"></path><mask id="path-74-outside-15_2804_2" maskUnits="userSpaceOnUse" x="930.14" y="347.582" width="12" height="38" fill="black"><rect fill="white" x="930.14" y="347.582" width="12" height="38"></rect><path fill-rule="evenodd" clip-rule="evenodd" d="M936.723 348.582H935.328V349.743H931.14V382.266H935.328V384.589H936.723V382.266H940.911V349.743H936.723V348.582Z"></path></mask><path fill-rule="evenodd" clip-rule="evenodd" d="M936.723 348.582H935.328V349.743H931.14V382.266H935.328V384.589H936.723V382.266H940.911V349.743H936.723V348.582Z" fill="url(#paint15_linear_2804_2)"></path><path d="M935.328 348.582V348.034H934.78V348.582H935.328ZM936.723 348.582H937.271V348.034H936.723V348.582ZM935.328 349.743V350.291H935.875V349.743H935.328ZM931.14 349.743V349.196H930.593V349.743H931.14ZM931.14 382.266H930.593V382.813H931.14V382.266ZM935.328 382.266H935.875V381.718H935.328V382.266ZM935.328 384.589H934.78V385.136H935.328V384.589ZM936.723 384.589V385.136H937.271V384.589H936.723ZM936.723 382.266V381.718H936.176V382.266H936.723ZM940.911 382.266V382.813H941.458V382.266H940.911ZM940.911 349.743H941.458V349.196H940.911V349.743ZM936.723 349.743H936.176V350.291H936.723V349.743ZM935.328 349.13H936.723V348.034H935.328V349.13ZM935.875 349.743V348.582H934.78V349.743H935.875ZM931.14 350.291H935.328V349.196H931.14V350.291ZM931.688 382.266V349.743H930.593V382.266H931.688ZM935.328 381.718H931.14V382.813H935.328V381.718ZM935.875 384.589V382.266H934.78V384.589H935.875ZM936.723 384.041H935.328V385.136H936.723V384.041ZM936.176 382.266V384.589H937.271V382.266H936.176ZM940.911 381.718H936.723V382.813H940.911V381.718ZM940.363 349.743V382.266H941.458V349.743H940.363ZM936.723 350.291H940.911V349.196H936.723V350.291ZM936.176 348.582V349.743H937.271V348.582H936.176Z" fill="#3291B0" mask="url(#path-74-outside-15_2804_2)"></path><mask id="path-76-outside-16_2804_2" maskUnits="userSpaceOnUse" x="882.109" y="314.719" width="12" height="68" fill="black"><rect fill="white" x="882.109" y="314.719" width="12" height="68"></rect><path fill-rule="evenodd" clip-rule="evenodd" d="M888.692 315.719H887.296V319.203H883.109V369.148H887.296V381.924H888.692V369.148H892.879V319.203H888.692V315.719Z"></path></mask><path fill-rule="evenodd" clip-rule="evenodd" d="M888.692 315.719H887.296V319.203H883.109V369.148H887.296V381.924H888.692V369.148H892.879V319.203H888.692V315.719Z" fill="url(#paint16_linear_2804_2)"></path><path d="M887.296 315.719V315.171H886.748V315.719H887.296ZM888.692 315.719H889.24V315.171H888.692V315.719ZM887.296 319.203V319.751H887.844V319.203H887.296ZM883.109 319.203V318.656H882.561V319.203H883.109ZM883.109 369.148H882.561V369.696H883.109V369.148ZM887.296 369.148H887.844V368.6H887.296V369.148ZM887.296 381.924H886.748V382.472H887.296V381.924ZM888.692 381.924V382.472H889.24V381.924H888.692ZM888.692 369.148V368.6H888.144V369.148H888.692ZM892.879 369.148V369.696H893.427V369.148H892.879ZM892.879 319.203H893.427V318.656H892.879V319.203ZM888.692 319.203H888.144V319.751H888.692V319.203ZM887.296 316.266H888.692V315.171H887.296V316.266ZM887.844 319.203V315.719H886.748V319.203H887.844ZM883.109 319.751H887.296V318.656H883.109V319.751ZM883.656 369.148V319.203H882.561V369.148H883.656ZM887.296 368.6H883.109V369.696H887.296V368.6ZM887.844 381.924V369.148H886.748V381.924H887.844ZM888.692 381.377H887.296V382.472H888.692V381.377ZM888.144 369.148V381.924H889.24V369.148H888.144ZM892.879 368.6H888.692V369.696H892.879V368.6ZM892.331 319.203V369.148H893.427V319.203H892.331ZM888.692 319.751H892.879V318.656H888.692V319.751ZM888.144 315.719V319.203H889.24V315.719H888.144Z" fill="#3291B0" mask="url(#path-76-outside-16_2804_2)"></path><mask id="path-78-outside-17_2804_2" maskUnits="userSpaceOnUse" x="463.306" y="197.588" width="12" height="22" fill="black"><rect fill="white" x="463.306" y="197.588" width="12" height="22"></rect><path fill-rule="evenodd" clip-rule="evenodd" d="M474.076 198.588H464.306V206.719H468.493V218.334H469.889V206.719H474.076V198.588Z"></path></mask><path fill-rule="evenodd" clip-rule="evenodd" d="M474.076 198.588H464.306V206.719H468.493V218.334H469.889V206.719H474.076V198.588Z" fill="url(#paint17_linear_2804_2)"></path><path d="M464.306 198.588V198.041H463.758V198.588H464.306ZM474.076 198.588H474.624V198.041H474.076V198.588ZM464.306 206.719H463.758V207.267H464.306V206.719ZM468.493 206.719H469.041V206.171H468.493V206.719ZM468.493 218.334H467.946V218.882H468.493V218.334ZM469.889 218.334V218.882H470.437V218.334H469.889ZM469.889 206.719V206.171H469.341V206.719H469.889ZM474.076 206.719V207.267H474.624V206.719H474.076ZM464.306 199.136H474.076V198.041H464.306V199.136ZM464.854 206.719V198.588H463.758V206.719H464.854ZM468.493 206.171H464.306V207.267H468.493V206.171ZM469.041 218.334V206.719H467.946V218.334H469.041ZM469.889 217.786H468.493V218.882H469.889V217.786ZM469.341 206.719V218.334H470.437V206.719H469.341ZM474.076 206.171H469.889V207.267H474.076V206.171ZM473.529 198.588V206.719H474.624V198.588H473.529Z" fill="#3291B0" mask="url(#path-78-outside-17_2804_2)"></path><mask id="path-80-outside-18_2804_2" maskUnits="userSpaceOnUse" x="1040.53" y="375.39" width="12" height="85" fill="black"><rect fill="white" x="1040.53" y="375.39" width="12" height="85"></rect><path fill-rule="evenodd" clip-rule="evenodd" d="M1047.11 376.39H1045.72V390.328H1041.53V447.242H1045.72V458.857H1047.11V447.242H1051.3V390.328H1047.11V376.39Z"></path></mask><path fill-rule="evenodd" clip-rule="evenodd" d="M1047.11 376.39H1045.72V390.328H1041.53V447.242H1045.72V458.857H1047.11V447.242H1051.3V390.328H1047.11V376.39Z" fill="url(#paint18_linear_2804_2)"></path><path d="M1045.72 376.39V375.842H1045.17V376.39H1045.72ZM1047.11 376.39H1047.66V375.842H1047.11V376.39ZM1045.72 390.328V390.876H1046.26V390.328H1045.72ZM1041.53 390.328V389.78H1040.98V390.328H1041.53ZM1041.53 447.242H1040.98V447.789H1041.53V447.242ZM1045.72 447.242H1046.26V446.694H1045.72V447.242ZM1045.72 458.857H1045.17V459.405H1045.72V458.857ZM1047.11 458.857V459.405H1047.66V458.857H1047.11ZM1047.11 447.242V446.694H1046.56V447.242H1047.11ZM1051.3 447.242V447.789H1051.85V447.242H1051.3ZM1051.3 390.328H1051.85V389.78H1051.3V390.328ZM1047.11 390.328H1046.56V390.876H1047.11V390.328ZM1045.72 376.938H1047.11V375.842H1045.72V376.938ZM1046.26 390.328V376.39H1045.17V390.328H1046.26ZM1041.53 390.876H1045.72V389.78H1041.53V390.876ZM1042.08 447.242V390.328H1040.98V447.242H1042.08ZM1045.72 446.694H1041.53V447.789H1045.72V446.694ZM1046.26 458.857V447.242H1045.17V458.857H1046.26ZM1047.11 458.309H1045.72V459.405H1047.11V458.309ZM1046.56 447.242V458.857H1047.66V447.242H1046.56ZM1051.3 446.694H1047.11V447.789H1051.3V446.694ZM1050.75 390.328V447.242H1051.85V390.328H1050.75ZM1047.11 390.876H1051.3V389.78H1047.11V390.876ZM1046.56 376.39V390.328H1047.66V376.39H1046.56Z" fill="#3291B0" mask="url(#path-80-outside-18_2804_2)"></path><mask id="path-82-outside-19_2804_2" maskUnits="userSpaceOnUse" x="406.005" y="184.948" width="12" height="57" fill="black"><rect fill="white" x="406.005" y="184.948" width="12" height="57"></rect><path fill-rule="evenodd" clip-rule="evenodd" d="M412.588 185.948H411.193V194.079H407.005V227.762H411.193V240.539H412.588V227.762H416.776V194.079H412.588V185.948Z"></path></mask><path fill-rule="evenodd" clip-rule="evenodd" d="M412.588 185.948H411.193V194.079H407.005V227.762H411.193V240.539H412.588V227.762H416.776V194.079H412.588V185.948Z" fill="url(#paint19_linear_2804_2)"></path><path d="M411.193 185.948V185.4H410.645V185.948H411.193ZM412.588 185.948H413.136V185.4H412.588V185.948ZM411.193 194.079V194.626H411.74V194.079H411.193ZM407.005 194.079V193.531H406.458V194.079H407.005ZM407.005 227.762H406.458V228.31H407.005V227.762ZM411.193 227.762H411.74V227.215H411.193V227.762ZM411.193 240.539H410.645V241.087H411.193V240.539ZM412.588 240.539V241.087H413.136V240.539H412.588ZM412.588 227.762V227.215H412.041V227.762H412.588ZM416.776 227.762V228.31H417.323V227.762H416.776ZM416.776 194.079H417.323V193.531H416.776V194.079ZM412.588 194.079H412.041V194.626H412.588V194.079ZM411.193 186.496H412.588V185.4H411.193V186.496ZM411.74 194.079V185.948H410.645V194.079H411.74ZM407.005 194.626H411.193V193.531H407.005V194.626ZM407.553 227.762V194.079H406.458V227.762H407.553ZM411.193 227.215H407.005V228.31H411.193V227.215ZM411.74 240.539V227.762H410.645V240.539H411.74ZM412.588 239.991H411.193V241.087H412.588V239.991ZM412.041 227.762V240.539H413.136V227.762H412.041ZM416.776 227.215H412.588V228.31H416.776V227.215ZM416.228 194.079V227.762H417.323V194.079H416.228ZM412.588 194.626H416.776V193.531H412.588V194.626ZM412.041 185.948V194.079H413.136V185.948H412.041Z" fill="#3291B0" mask="url(#path-82-outside-19_2804_2)"></path><mask id="path-84-outside-20_2804_2" maskUnits="userSpaceOnUse" x="425.386" y="200.116" width="12" height="57" fill="black"><rect fill="white" x="425.386" y="200.116" width="12" height="57"></rect><path fill-rule="evenodd" clip-rule="evenodd" d="M431.97 201.116H430.574V217.377H426.386V251.061H430.574V255.707H431.97V251.061H436.157V217.377H431.97V201.116Z"></path></mask><path fill-rule="evenodd" clip-rule="evenodd" d="M431.97 201.116H430.574V217.377H426.386V251.061H430.574V255.707H431.97V251.061H436.157V217.377H431.97V201.116Z" fill="url(#paint20_linear_2804_2)"></path><path d="M430.574 201.116V200.569H430.026V201.116H430.574ZM431.97 201.116H432.517V200.569H431.97V201.116ZM430.574 217.377V217.925H431.121V217.377H430.574ZM426.386 217.377V216.829H425.839V217.377H426.386ZM426.386 251.061H425.839V251.608H426.386V251.061ZM430.574 251.061H431.121V250.513H430.574V251.061ZM430.574 255.707H430.026V256.255H430.574V255.707ZM431.97 255.707V256.255H432.517V255.707H431.97ZM431.97 251.061V250.513H431.422V251.061H431.97ZM436.157 251.061V251.608H436.705V251.061H436.157ZM436.157 217.377H436.705V216.829H436.157V217.377ZM431.97 217.377H431.422V217.925H431.97V217.377ZM430.574 201.664H431.97V200.569H430.574V201.664ZM431.121 217.377V201.116H430.026V217.377H431.121ZM426.386 217.925H430.574V216.829H426.386V217.925ZM426.934 251.061V217.377H425.839V251.061H426.934ZM430.574 250.513H426.386V251.608H430.574V250.513ZM431.121 255.707V251.061H430.026V255.707H431.121ZM431.97 255.159H430.574V256.255H431.97V255.159ZM431.422 251.061V255.707H432.517V251.061H431.422ZM436.157 250.513H431.97V251.608H436.157V250.513ZM435.609 217.377V251.061H436.705V217.377H435.609ZM431.97 217.925H436.157V216.829H431.97V217.925ZM431.422 201.116V217.377H432.517V201.116H431.422Z" fill="#3291B0" mask="url(#path-84-outside-20_2804_2)"></path><path d="M0 194.796L20.9168 180.01C23.1062 178.462 25.9393 178.154 28.4105 179.195V179.195C30.9134 180.248 33.7851 179.918 35.983 178.322L47.0253 170.308C53.6351 165.51 62.7733 166.336 68.4157 172.241V172.241C73.3365 177.391 81.0281 178.755 87.42 175.613L123.001 158.119C125.784 156.751 128.179 154.706 129.967 152.173L142.421 134.53C148.09 126.499 159.041 124.289 167.381 129.493L201.374 150.704C203.88 152.268 205.977 154.409 207.488 156.948L235.434 203.882C237.147 206.759 239.608 209.119 242.554 210.71L276.062 228.804C278.768 230.265 281.795 231.031 284.87 231.031H335.794C338.027 231.031 340.242 231.434 342.331 232.221L358.797 238.426C364.686 240.645 371.299 239.725 376.358 235.982L392.395 224.119C396.601 221.008 401.926 219.818 407.056 220.844L455.611 230.556C457.188 230.871 458.799 230.98 460.404 230.879L527.572 226.681C530.573 226.494 533.574 227.039 536.317 228.27L606.466 259.742C608.853 260.813 611.439 261.366 614.055 261.366H634.809C638.205 261.366 641.536 262.299 644.438 264.063L657.052 271.731C659.954 273.495 663.285 274.428 666.681 274.428H688.593C692.863 274.428 697.003 272.953 700.312 270.254L716.832 256.776C723.03 251.72 731.772 251.209 738.517 255.509L754.925 265.97C758.787 268.431 763.422 269.376 767.939 268.624L771.68 268C778.963 266.786 786.272 270.01 790.287 276.206L801.111 292.913C802.396 294.896 804.048 296.616 805.979 297.978L834.062 317.802C837.19 320.01 840.925 321.195 844.753 321.195H861.719C866.269 321.195 870.66 322.869 874.057 325.897L919.343 366.278L957.519 399.265C960.887 402.175 965.189 403.776 969.64 403.776H1194.47" stroke="#176B87" stroke-width="0.842661"></path><path d="M41.7117 176.257L56.0209 158.792C62.9175 150.374 76.1213 151.525 81.4565 161.01V161.01C84.0002 165.532 88.6425 168.477 93.8174 168.851L113.908 170.304C118.171 170.612 122.411 169.437 125.907 166.978L138.97 157.794C144.248 154.083 151.076 153.383 156.997 155.946L175.695 164.039L263.546 208.793C264.525 209.292 265.545 209.702 266.597 210.02L279.03 213.779C281.731 214.596 284.581 214.785 287.366 214.333L402.036 195.718C408.735 194.63 415.493 197.29 419.653 202.653L422.153 205.874C427.745 213.082 437.75 215.15 445.741 210.75L469.362 197.745L483.321 188.082C484.959 186.948 486.404 185.557 487.599 183.963L494.011 175.413C498.894 168.903 507.452 166.338 515.11 169.089L568.056 188.112C571.028 189.179 573.678 190.989 575.755 193.369L590.017 209.711C591.857 211.818 594.149 213.482 596.723 214.578L716.148 265.423C718.988 266.632 721.481 268.531 723.401 270.947L740.35 292.28C743.281 295.969 747.507 298.403 752.168 299.089L884.319 318.523C886.855 318.896 889.287 319.791 891.459 321.151L934.025 347.801C935.742 348.876 937.271 350.225 938.551 351.794L992.655 418.101" stroke="#176B87" stroke-width="0.842661"></path><path d="M40.8689 199.009L68.4721 187.891C70.2143 187.19 72.1702 187.247 73.8687 188.048L265.755 278.639C266.924 279.19 268.226 279.394 269.507 279.227L429.789 258.267C431.14 258.09 432.406 257.508 433.42 256.598L497.307 199.214C500.039 196.76 504.232 196.944 506.739 199.628L590.337 289.142C591.131 289.992 592.131 290.622 593.24 290.971L886.863 383.408C887.168 383.504 887.467 383.622 887.756 383.761L1044.78 459.149C1045.69 459.586 1046.69 459.813 1047.7 459.813H1197" stroke="#176B87" stroke-width="0.842661"></path></g><defs><linearGradient id="paint0_linear_2804_2" x1="599" y1="499" x2="599" y2="360" gradientUnits="userSpaceOnUse"><stop stop-color="#021117"></stop><stop offset="1" stop-color="#07212A" stop-opacity="0"></stop></linearGradient><linearGradient id="paint1_linear_2804_2" x1="720.304" y1="255.889" x2="720.304" y2="306.996" gradientUnits="userSpaceOnUse"><stop stop-color="#155E77"></stop><stop offset="1" stop-color="#169CC9"></stop></linearGradient><linearGradient id="paint2_linear_2804_2" x1="745.584" y1="336.147" x2="745.584" y2="295.494" gradientUnits="userSpaceOnUse"><stop stop-color="#155E77"></stop><stop offset="1" stop-color="#169CC9"></stop></linearGradient><linearGradient id="paint3_linear_2804_2" x1="120.99" y1="171.623" x2="120.99" y2="200.661" gradientUnits="userSpaceOnUse"><stop stop-color="#155E77"></stop><stop offset="1" stop-color="#169CC9"></stop></linearGradient><linearGradient id="paint4_linear_2804_2" x1="85.7807" y1="168.252" x2="85.7807" y2="197.29" gradientUnits="userSpaceOnUse"><stop stop-color="#176B87"></stop><stop offset="1" stop-color="#0E3C4B"></stop></linearGradient><linearGradient id="paint5_linear_2804_2" x1="174.237" y1="164.039" x2="174.237" y2="227.922" gradientUnits="userSpaceOnUse"><stop stop-color="#176B87"></stop><stop offset="1" stop-color="#0E3C4B"></stop></linearGradient><linearGradient id="paint6_linear_2804_2" x1="70.6127" y1="141.287" x2="70.6127" y2="186.586" gradientUnits="userSpaceOnUse"><stop stop-color="#155E77"></stop><stop offset="1" stop-color="#169CC9"></stop></linearGradient><linearGradient id="paint7_linear_2804_2" x1="41.1195" y1="175.836" x2="41.1195" y2="197.905" gradientUnits="userSpaceOnUse"><stop stop-color="#4CBADE"></stop><stop offset="1" stop-color="#296578"></stop></linearGradient><linearGradient id="paint8_linear_2804_2" x1="572.839" y1="187.633" x2="572.839" y2="230.609" gradientUnits="userSpaceOnUse"><stop stop-color="#176B87"></stop><stop offset="1" stop-color="#0E3C4B"></stop></linearGradient><linearGradient id="paint9_linear_2804_2" x1="486.887" y1="179.207" x2="486.887" y2="198.952" gradientUnits="userSpaceOnUse"><stop stop-color="#155E77"></stop><stop offset="1" stop-color="#169CC9"></stop></linearGradient><linearGradient id="paint10_linear_2804_2" x1="502.055" y1="154.77" x2="502.055" y2="193.1" gradientUnits="userSpaceOnUse"><stop stop-color="#176B87"></stop><stop offset="1" stop-color="#0E3C4B"></stop></linearGradient><linearGradient id="paint11_linear_2804_2" x1="283.806" y1="187.633" x2="283.806" y2="223.64" gradientUnits="userSpaceOnUse"><stop stop-color="#155E77"></stop><stop offset="1" stop-color="#169CC9"></stop></linearGradient><linearGradient id="paint12_linear_2804_2" x1="147.613" y1="152.242" x2="147.613" y2="220.771" gradientUnits="userSpaceOnUse"><stop stop-color="#155E77"></stop><stop offset="1" stop-color="#169CC9"></stop></linearGradient><linearGradient id="paint13_linear_2804_2" x1="266.11" y1="209.543" x2="266.11" y2="278.072" gradientUnits="userSpaceOnUse"><stop stop-color="#155E77"></stop><stop offset="1" stop-color="#169CC9"></stop></linearGradient><linearGradient id="paint14_linear_2804_2" x1="592.22" y1="288.411" x2="592.22" y2="212.914" gradientUnits="userSpaceOnUse"><stop stop-color="#155E77"></stop><stop offset="1" stop-color="#169CC9"></stop></linearGradient><linearGradient id="paint15_linear_2804_2" x1="936.026" y1="348.582" x2="936.026" y2="384.589" gradientUnits="userSpaceOnUse"><stop stop-color="#155E77"></stop><stop offset="1" stop-color="#169CC9"></stop></linearGradient><linearGradient id="paint16_linear_2804_2" x1="887.994" y1="315.719" x2="887.994" y2="381.924" gradientUnits="userSpaceOnUse"><stop stop-color="#4CBADE"></stop><stop offset="1" stop-color="#296578"></stop></linearGradient><linearGradient id="paint17_linear_2804_2" x1="469.191" y1="198.588" x2="469.191" y2="218.334" gradientUnits="userSpaceOnUse"><stop stop-color="#176B87"></stop><stop offset="1" stop-color="#0E3C4B"></stop></linearGradient><linearGradient id="paint18_linear_2804_2" x1="1046.41" y1="376.39" x2="1046.41" y2="458.857" gradientUnits="userSpaceOnUse"><stop stop-color="#155E77"></stop><stop offset="1" stop-color="#169CC9"></stop></linearGradient><linearGradient id="paint19_linear_2804_2" x1="411.891" y1="185.948" x2="411.891" y2="240.539" gradientUnits="userSpaceOnUse"><stop stop-color="#155E77"></stop><stop offset="1" stop-color="#169CC9"></stop></linearGradient><linearGradient id="paint20_linear_2804_2" x1="431.272" y1="201.116" x2="431.272" y2="255.707" gradientUnits="userSpaceOnUse"><stop stop-color="#176B87"></stop><stop offset="1" stop-color="#0E3C4B"></stop></linearGradient><clipPath id="clip0_2804_2"><rect width="1197" height="485" fill="white"></rect></clipPath></defs></svg> 