<?xml version="1.0" encoding="UTF-8"?> <svg xmlns="http://www.w3.org/2000/svg" width="141" height="57" viewBox="0 0 141 57" fill="none"><g clip-path="url(#clip0_396_1838)"><path d="M5.34524 0C2.39216 0 0 2.38116 0 5.31775V39.3359C0 43.5428 5.44973 45.2366 7.85289 41.7776L24.2901 18.0979C24.367 17.9879 24.356 17.834 24.2571 17.735L20.9025 14.397C20.7211 14.2155 20.8475 13.9075 21.106 13.9075L42.036 13.8965C42.1955 13.8965 42.322 14.023 42.322 14.1825L42.278 35.0135C42.278 35.272 41.97 35.3985 41.7886 35.217L38.797 32.2309C38.698 32.1319 38.544 32.1209 38.434 32.1979L14.7654 48.1897C11.2514 50.5653 12.9397 56.0261 17.1851 56.0261H50.9338C53.8814 56.0261 56.279 53.6449 56.279 50.7083V5.31775C56.279 2.38116 53.8869 0 50.9338 0H5.34524ZM29.1734 22.3323C26.4073 22.3323 24.1636 24.565 24.1636 27.3201C24.1636 30.0752 26.4073 32.3079 29.1734 32.3079C31.9395 32.3079 34.1832 30.0752 34.1832 27.3201C34.1832 24.565 31.9395 22.3323 29.1734 22.3323Z" fill="#88D498"></path><path d="M81.7404 14.9471H76.7801V27.8153H73.783V14.9471H68.8227V12.302H81.7349V14.9471H81.7404Z" fill="#88D498"></path><path d="M89.9343 27.925C88.796 27.925 87.7677 27.7051 86.8438 27.2706C85.9199 26.8362 85.1225 26.2423 84.4626 25.4889C83.8027 24.741 83.2858 23.8941 82.9228 22.9538C82.5599 22.0134 82.3784 21.051 82.3784 20.0612C82.3784 19.0713 82.5709 18.0374 82.9558 17.0971C83.3408 16.1567 83.8742 15.3208 84.5506 14.5839C85.227 13.847 86.0299 13.2641 86.9538 12.8352C87.8776 12.4062 88.895 12.1863 90.0003 12.1863C91.1057 12.1863 92.145 12.4117 93.0689 12.8627C93.9928 13.3136 94.7847 13.9185 95.4391 14.6774C96.0935 15.4363 96.6049 16.2777 96.9678 17.2126C97.3308 18.1419 97.5123 19.1098 97.5123 20.0997C97.5123 21.0895 97.3253 22.0959 96.9458 23.0362C96.5664 23.9766 96.0385 24.8125 95.3621 25.5494C94.6857 26.2863 93.8828 26.8637 92.9589 27.2871C92.035 27.7106 91.0287 27.9195 89.9343 27.9195V27.925ZM85.436 20.0612C85.436 20.7321 85.5405 21.3755 85.7439 22.0024C85.9474 22.6293 86.2389 23.1847 86.6293 23.6741C87.0143 24.1636 87.4872 24.5485 88.0481 24.8345C88.609 25.1149 89.2469 25.2579 89.9563 25.2579C90.6657 25.2579 91.3366 25.1094 91.9031 24.8125C92.4695 24.5155 92.9424 24.1141 93.3219 23.6082C93.7013 23.1077 93.9873 22.5468 94.1852 21.9254C94.3832 21.304 94.4822 20.6826 94.4822 20.0612C94.4822 19.3903 94.3777 18.7468 94.1632 18.1254C93.9543 17.504 93.6518 16.9541 93.2669 16.4647C92.8819 15.9807 92.4035 15.5903 91.8481 15.3098C91.2872 15.0239 90.6602 14.8864 89.9563 14.8864C89.2139 14.8864 88.565 15.0349 87.9986 15.3318C87.4377 15.6343 86.9703 16.0247 86.5908 16.5252C86.2114 17.0201 85.9254 17.5755 85.7274 18.1859C85.5295 18.7963 85.436 19.4233 85.436 20.0667V20.0612Z" fill="#88D498"></path><path d="M99.8273 27.8149V12.3291H102.841V19.6926L109.352 12.3071H112.673L106.734 19.1867L113.047 27.8149H109.638L104.81 21.1334L102.846 23.1846V27.8149H99.8328H99.8273Z" fill="#88D498"></path><path d="M125.212 25.1702V27.8153H114.444V12.302H125.019V14.9471H117.463V18.6811H123.996V21.1282H117.463V25.1702H125.217H125.212Z" fill="#88D498"></path><path d="M130.584 17.8507V27.8098H127.571V12.302H129.974L137.992 22.5251V12.3295H141.005V27.8153H138.492L130.584 17.8562V17.8507Z" fill="#88D498"></path><path d="M73.2992 45.3081V32.6819H78.562C79.1174 32.6819 79.6288 32.7974 80.0907 33.0283C80.5527 33.2593 80.9541 33.5673 81.3006 33.9522C81.647 34.3372 81.911 34.7716 82.0979 35.25C82.2849 35.7285 82.3784 36.2179 82.3784 36.7183C82.3784 37.4057 82.2244 38.0601 81.9165 38.6815C81.6085 39.3029 81.1741 39.8089 80.6187 40.1938C80.0632 40.5788 79.4088 40.7712 78.6609 40.7712H74.894V45.3081H73.2937H73.2992ZM74.8995 39.3469H78.5785C79.0184 39.3469 79.3978 39.2315 79.7278 38.995C80.0522 38.753 80.3107 38.4396 80.4922 38.0326C80.6737 37.6312 80.7671 37.1912 80.7671 36.7183C80.7671 36.2179 80.6627 35.7724 80.4482 35.3765C80.2392 34.9806 79.9588 34.6671 79.6123 34.4471C79.2659 34.2217 78.8864 34.1062 78.474 34.1062H74.8995V39.3524V39.3469Z" fill="#88D498"></path><path d="M89.1534 45.3081V32.6819H90.7537V45.3081H89.1534Z" fill="#88D498"></path><path d="M98.5571 45.3081V32.6819H100.157V43.8838H107.202V45.3081H98.5571Z" fill="#88D498"></path><path d="M118.448 45.3961C117.557 45.3961 116.754 45.2201 116.028 44.8626C115.302 44.5052 114.681 44.0267 114.153 43.4163C113.625 42.8059 113.223 42.1185 112.937 41.3541C112.652 40.5897 112.509 39.8033 112.509 39.0005C112.509 38.1976 112.663 37.3562 112.959 36.5863C113.262 35.8219 113.685 35.14 114.224 34.5406C114.763 33.9412 115.396 33.4682 116.122 33.1218C116.847 32.7698 117.634 32.5994 118.486 32.5994C119.339 32.5994 120.18 32.7808 120.9 33.1493C121.621 33.5177 122.248 34.0127 122.77 34.6286C123.287 35.2445 123.694 35.9319 123.974 36.6908C124.26 37.4497 124.403 38.2251 124.403 39.0225C124.403 39.8638 124.255 40.6667 123.958 41.4311C123.661 42.1955 123.243 42.8774 122.704 43.4768C122.165 44.0762 121.533 44.5437 120.807 44.8901C120.081 45.2366 119.295 45.407 118.442 45.407L118.448 45.3961ZM114.125 38.995C114.125 39.6329 114.23 40.2543 114.433 40.8537C114.642 41.4531 114.934 41.9865 115.313 42.443C115.693 42.9049 116.149 43.2734 116.682 43.5483C117.216 43.8233 117.81 43.9608 118.464 43.9608C119.119 43.9608 119.74 43.8178 120.279 43.5318C120.812 43.2514 121.263 42.8719 121.637 42.3935C122.011 41.9205 122.292 41.3871 122.49 40.7932C122.688 40.1993 122.787 39.5999 122.787 39.0005C122.787 38.357 122.682 37.7411 122.473 37.1472C122.264 36.5533 121.967 36.0254 121.582 35.5579C121.197 35.0905 120.741 34.7221 120.213 34.4526C119.685 34.1886 119.102 34.0512 118.464 34.0512C117.788 34.0512 117.183 34.1886 116.649 34.4691C116.116 34.7496 115.665 35.1235 115.291 35.6019C114.917 36.0804 114.631 36.6028 114.428 37.1912C114.224 37.7796 114.125 38.379 114.125 38.995Z" fill="#88D498"></path><path d="M140.12 34.1062H135.765V45.3081H134.164V34.1062H129.809V32.6819H140.12V34.1062Z" fill="#88D498"></path></g><defs><clipPath id="clip0_396_1838"><rect width="141" height="56.0206" fill="white"></rect></clipPath></defs></svg> 