<?xml version="1.0" encoding="UTF-8"?> <svg xmlns="http://www.w3.org/2000/svg" width="134" height="134" viewBox="0 0 134 134" fill="none"><g clip-path="url(#clip0_2774_303)"><rect width="134" height="134" rx="8" fill="#00141B"></rect><rect opacity="0.3" x="159.745" y="123.794" width="198.19" height="1.76835" transform="rotate(-171.112 159.745 123.794)" fill="url(#paint0_linear_2774_303)"></rect><rect opacity="0.3" x="147.867" y="142.225" width="198.19" height="1.25297" transform="rotate(-171.112 147.867 142.225)" fill="url(#paint1_linear_2774_303)"></rect><rect opacity="0.3" x="-10.0034" y="35.8763" width="198.19" height="0.981315" transform="rotate(30 -10.0034 35.8763)" fill="url(#paint2_linear_2774_303)"></rect><mask id="path-6-inside-1_2774_303" fill="white"><path fill-rule="evenodd" clip-rule="evenodd" d="M54.5125 39.6137C54.9054 40.0067 55.1262 40.5396 55.1262 41.0954V45.3224C56.9841 45.2861 59.0683 45.2861 61.4123 45.2861H72.5876C74.9316 45.2861 77.0158 45.2861 78.8737 45.3224V41.0954C78.8737 40.5396 79.0945 40.0067 79.4874 39.6137C79.8804 39.2208 80.4134 39 80.9691 39C81.5248 39 82.0578 39.2208 82.4508 39.6137C82.8437 40.0067 83.0645 40.5396 83.0645 41.0954V45.5068C87.0848 45.8309 89.725 46.6188 91.6639 48.5605C93.6056 50.4994 94.3934 53.1368 94.7175 57.1599H39.2824C39.6065 53.1396 40.3944 50.4994 42.3361 48.5605C44.275 46.6188 46.9123 45.8309 50.9355 45.5096V41.0954C50.9355 40.5396 51.1562 40.0067 51.5492 39.6137C51.9421 39.2208 52.4751 39 53.0308 39C53.5866 39 54.1195 39.2208 54.5125 39.6137ZM39.0981 61.3505C39.0618 63.2084 39.0618 65.2926 39.0618 67.6366V73.2243C39.0618 83.7598 39.0618 89.0289 42.3361 92.3005C45.6077 95.5749 50.8769 95.5749 61.4124 95.5749H72.5877C83.1232 95.5749 88.3924 95.5749 91.6639 92.3005C94.9383 89.0289 94.9383 83.7598 94.9383 73.2243V67.6366C94.9383 65.2926 94.9383 63.2084 94.902 61.3505H39.0981ZM82.9447 72.406C82.4208 72.9299 81.7101 73.2243 80.9692 73.2243C80.2282 73.2243 79.5176 72.9299 78.9936 72.406C78.4697 71.882 78.1754 71.1714 78.1754 70.4304C78.1754 69.6895 78.4697 68.9788 78.9936 68.4549C79.5176 67.931 80.2282 67.6366 80.9692 67.6366C81.7101 67.6366 82.4208 67.931 82.9447 68.4549C83.4687 68.9788 83.763 69.6895 83.763 70.4304C83.763 71.1714 83.4687 71.882 82.9447 72.406ZM82.9447 83.5813C82.4208 84.1052 81.7101 84.3996 80.9692 84.3996C80.2282 84.3996 79.5176 84.1052 78.9936 83.5813C78.4697 83.0573 78.1754 82.3467 78.1754 81.6057C78.1754 80.8648 78.4697 80.1542 78.9936 79.6302C79.5176 79.1063 80.2282 78.8119 80.9692 78.8119C81.7101 78.8119 82.4208 79.1063 82.9447 79.6302C83.4687 80.1542 83.763 80.8648 83.763 81.6057C83.763 82.3467 83.4687 83.0573 82.9447 83.5813ZM68.9756 72.406C69.4995 71.882 69.7939 71.1714 69.7939 70.4304C69.7939 69.6895 69.4995 68.9788 68.9756 68.4549C68.4516 67.931 67.741 67.6366 67 67.6366C66.2591 67.6366 65.5485 67.931 65.0245 68.4549C64.5006 68.9788 64.2062 69.6895 64.2062 70.4304C64.2062 71.1714 64.5006 71.882 65.0245 72.406C65.5485 72.9299 66.2591 73.2243 67 73.2243C67.741 73.2243 68.4516 72.9299 68.9756 72.406ZM68.9756 83.5813C69.4995 83.0573 69.7939 82.3467 69.7939 81.6057C69.7939 80.8648 69.4995 80.1542 68.9756 79.6302C68.4516 79.1063 67.741 78.8119 67 78.8119C66.2591 78.8119 65.5485 79.1063 65.0245 79.6302C64.5006 80.1542 64.2062 80.8648 64.2062 81.6057C64.2062 82.3467 64.5006 83.0573 65.0245 83.5813C65.5485 84.1052 66.2591 84.3996 67 84.3996C67.741 84.3996 68.4516 84.1052 68.9756 83.5813ZM55.0064 72.406C54.4825 72.9299 53.7719 73.2243 53.0309 73.2243C52.2899 73.2243 51.5793 72.9299 51.0554 72.406C50.5314 71.882 50.2371 71.1714 50.2371 70.4304C50.2371 69.6895 50.5314 68.9788 51.0554 68.4549C51.5793 67.931 52.2899 67.6366 53.0309 67.6366C53.7719 67.6366 54.4825 67.931 55.0064 68.4549C55.5304 68.9788 55.8247 69.6895 55.8247 70.4304C55.8247 71.1714 55.5304 71.882 55.0064 72.406ZM55.0064 83.5813C54.4825 84.1052 53.7719 84.3996 53.0309 84.3996C52.2899 84.3996 51.5793 84.1052 51.0554 83.5813C50.5314 83.0573 50.2371 82.3467 50.2371 81.6057C50.2371 80.8648 50.5314 80.1542 51.0554 79.6302C51.5793 79.1063 52.2899 78.8119 53.0309 78.8119C53.7719 78.8119 54.4825 79.1063 55.0064 79.6302C55.5304 80.1542 55.8247 80.8648 55.8247 81.6057C55.8247 82.3467 55.5304 83.0573 55.0064 83.5813Z"></path></mask><path fill-rule="evenodd" clip-rule="evenodd" d="M54.5125 39.6137C54.9054 40.0067 55.1262 40.5396 55.1262 41.0954V45.3224C56.9841 45.2861 59.0683 45.2861 61.4123 45.2861H72.5876C74.9316 45.2861 77.0158 45.2861 78.8737 45.3224V41.0954C78.8737 40.5396 79.0945 40.0067 79.4874 39.6137C79.8804 39.2208 80.4134 39 80.9691 39C81.5248 39 82.0578 39.2208 82.4508 39.6137C82.8437 40.0067 83.0645 40.5396 83.0645 41.0954V45.5068C87.0848 45.8309 89.725 46.6188 91.6639 48.5605C93.6056 50.4994 94.3934 53.1368 94.7175 57.1599H39.2824C39.6065 53.1396 40.3944 50.4994 42.3361 48.5605C44.275 46.6188 46.9123 45.8309 50.9355 45.5096V41.0954C50.9355 40.5396 51.1562 40.0067 51.5492 39.6137C51.9421 39.2208 52.4751 39 53.0308 39C53.5866 39 54.1195 39.2208 54.5125 39.6137ZM39.0981 61.3505C39.0618 63.2084 39.0618 65.2926 39.0618 67.6366V73.2243C39.0618 83.7598 39.0618 89.0289 42.3361 92.3005C45.6077 95.5749 50.8769 95.5749 61.4124 95.5749H72.5877C83.1232 95.5749 88.3924 95.5749 91.6639 92.3005C94.9383 89.0289 94.9383 83.7598 94.9383 73.2243V67.6366C94.9383 65.2926 94.9383 63.2084 94.902 61.3505H39.0981ZM82.9447 72.406C82.4208 72.9299 81.7101 73.2243 80.9692 73.2243C80.2282 73.2243 79.5176 72.9299 78.9936 72.406C78.4697 71.882 78.1754 71.1714 78.1754 70.4304C78.1754 69.6895 78.4697 68.9788 78.9936 68.4549C79.5176 67.931 80.2282 67.6366 80.9692 67.6366C81.7101 67.6366 82.4208 67.931 82.9447 68.4549C83.4687 68.9788 83.763 69.6895 83.763 70.4304C83.763 71.1714 83.4687 71.882 82.9447 72.406ZM82.9447 83.5813C82.4208 84.1052 81.7101 84.3996 80.9692 84.3996C80.2282 84.3996 79.5176 84.1052 78.9936 83.5813C78.4697 83.0573 78.1754 82.3467 78.1754 81.6057C78.1754 80.8648 78.4697 80.1542 78.9936 79.6302C79.5176 79.1063 80.2282 78.8119 80.9692 78.8119C81.7101 78.8119 82.4208 79.1063 82.9447 79.6302C83.4687 80.1542 83.763 80.8648 83.763 81.6057C83.763 82.3467 83.4687 83.0573 82.9447 83.5813ZM68.9756 72.406C69.4995 71.882 69.7939 71.1714 69.7939 70.4304C69.7939 69.6895 69.4995 68.9788 68.9756 68.4549C68.4516 67.931 67.741 67.6366 67 67.6366C66.2591 67.6366 65.5485 67.931 65.0245 68.4549C64.5006 68.9788 64.2062 69.6895 64.2062 70.4304C64.2062 71.1714 64.5006 71.882 65.0245 72.406C65.5485 72.9299 66.2591 73.2243 67 73.2243C67.741 73.2243 68.4516 72.9299 68.9756 72.406ZM68.9756 83.5813C69.4995 83.0573 69.7939 82.3467 69.7939 81.6057C69.7939 80.8648 69.4995 80.1542 68.9756 79.6302C68.4516 79.1063 67.741 78.8119 67 78.8119C66.2591 78.8119 65.5485 79.1063 65.0245 79.6302C64.5006 80.1542 64.2062 80.8648 64.2062 81.6057C64.2062 82.3467 64.5006 83.0573 65.0245 83.5813C65.5485 84.1052 66.2591 84.3996 67 84.3996C67.741 84.3996 68.4516 84.1052 68.9756 83.5813ZM55.0064 72.406C54.4825 72.9299 53.7719 73.2243 53.0309 73.2243C52.2899 73.2243 51.5793 72.9299 51.0554 72.406C50.5314 71.882 50.2371 71.1714 50.2371 70.4304C50.2371 69.6895 50.5314 68.9788 51.0554 68.4549C51.5793 67.931 52.2899 67.6366 53.0309 67.6366C53.7719 67.6366 54.4825 67.931 55.0064 68.4549C55.5304 68.9788 55.8247 69.6895 55.8247 70.4304C55.8247 71.1714 55.5304 71.882 55.0064 72.406ZM55.0064 83.5813C54.4825 84.1052 53.7719 84.3996 53.0309 84.3996C52.2899 84.3996 51.5793 84.1052 51.0554 83.5813C50.5314 83.0573 50.2371 82.3467 50.2371 81.6057C50.2371 80.8648 50.5314 80.1542 51.0554 79.6302C51.5793 79.1063 52.2899 78.8119 53.0309 78.8119C53.7719 78.8119 54.4825 79.1063 55.0064 79.6302C55.5304 80.1542 55.8247 80.8648 55.8247 81.6057C55.8247 82.3467 55.5304 83.0573 55.0064 83.5813Z" fill="url(#paint3_radial_2774_303)"></path><path d="M54.5125 39.6137L54.866 39.2602L54.866 39.2602L54.5125 39.6137ZM55.1262 45.3224H54.6262V45.8323L55.136 45.8223L55.1262 45.3224ZM78.8737 45.3224L78.864 45.8223L79.3737 45.8323V45.3224H78.8737ZM79.4874 39.6137L79.841 39.9673L79.841 39.9673L79.4874 39.6137ZM83.0645 45.5068H82.5645V45.9681L83.0243 46.0052L83.0645 45.5068ZM91.6639 48.5605L91.3101 48.9138L91.3106 48.9143L91.6639 48.5605ZM94.7175 57.1599V57.6599H95.2594L95.2159 57.1197L94.7175 57.1599ZM39.2824 57.1599L38.784 57.1197L38.7405 57.6599H39.2824V57.1599ZM42.3361 48.5605L42.6894 48.9143L42.6899 48.9138L42.3361 48.5605ZM50.9355 45.5096L50.9753 46.008L51.4355 45.9713V45.5096H50.9355ZM51.5492 39.6137L51.9027 39.9673L51.9027 39.9673L51.5492 39.6137ZM39.0981 61.3505V60.8505H38.6078L38.5982 61.3407L39.0981 61.3505ZM42.3361 92.3005L42.6898 91.9471L42.6895 91.9468L42.3361 92.3005ZM91.6639 92.3005L91.3105 91.9468L91.3102 91.9471L91.6639 92.3005ZM94.902 61.3505L95.4019 61.3407L95.3923 60.8505H94.902V61.3505ZM82.9447 72.406L83.2983 72.7595L83.2983 72.7595L82.9447 72.406ZM78.9936 72.406L78.6401 72.7595L78.6401 72.7595L78.9936 72.406ZM68.9756 72.406L69.3291 72.7595L69.3291 72.7595L68.9756 72.406ZM65.0245 68.4549L65.3781 68.8085L65.3781 68.8085L65.0245 68.4549ZM65.0245 72.406L64.671 72.7595L64.671 72.7595L65.0245 72.406ZM65.0245 79.6302L65.3781 79.9838L65.3781 79.9838L65.0245 79.6302ZM65.0245 83.5813L65.3781 83.2277L65.3781 83.2277L65.0245 83.5813ZM55.0064 72.406L55.36 72.7595L55.36 72.7595L55.0064 72.406ZM51.0554 72.406L50.7018 72.7595L50.7018 72.7595L51.0554 72.406ZM55.0064 68.4549L54.6529 68.8085L54.6529 68.8085L55.0064 68.4549ZM55.0064 83.5813L54.6529 83.2277L54.6529 83.2277L55.0064 83.5813ZM55.0064 79.6302L54.6529 79.9838L54.6529 79.9838L55.0064 79.6302ZM55.6262 41.0954C55.6262 40.407 55.3528 39.7469 54.866 39.2602L54.1589 39.9673C54.4581 40.2665 54.6262 40.6723 54.6262 41.0954H55.6262ZM55.6262 45.3224V41.0954H54.6262V45.3224H55.6262ZM61.4123 44.7861C59.0697 44.7861 56.9802 44.7861 55.1164 44.8225L55.136 45.8223C56.988 45.7861 59.0669 45.7861 61.4123 45.7861V44.7861ZM72.5876 44.7861H61.4123V45.7861H72.5876V44.7861ZM78.8835 44.8225C77.0197 44.7861 74.9303 44.7861 72.5876 44.7861V45.7861C74.933 45.7861 77.0119 45.7861 78.864 45.8223L78.8835 44.8225ZM78.3737 41.0954V45.3224H79.3737V41.0954H78.3737ZM79.1339 39.2602C78.6472 39.7469 78.3737 40.407 78.3737 41.0954H79.3737C79.3737 40.6723 79.5418 40.2665 79.841 39.9673L79.1339 39.2602ZM80.9691 38.5C80.2808 38.5 79.6206 38.7734 79.1339 39.2602L79.841 39.9673C80.1402 39.6681 80.546 39.5 80.9691 39.5V38.5ZM82.8043 39.2602C82.3176 38.7734 81.6574 38.5 80.9691 38.5V39.5C81.3922 39.5 81.798 39.6681 82.0972 39.9673L82.8043 39.2602ZM83.5645 41.0954C83.5645 40.407 83.291 39.7469 82.8043 39.2602L82.0972 39.9673C82.3964 40.2665 82.5645 40.6723 82.5645 41.0954H83.5645ZM83.5645 45.5068V41.0954H82.5645V45.5068H83.5645ZM92.0177 48.2072C89.9501 46.1366 87.1596 45.3353 83.1046 45.0084L83.0243 46.0052C87.01 46.3265 89.4998 47.101 91.3101 48.9138L92.0177 48.2072ZM95.2159 57.1197C94.889 53.0619 94.0877 50.2743 92.0172 48.2067L91.3106 48.9143C93.1234 50.7245 93.8978 53.2116 94.2191 57.2L95.2159 57.1197ZM39.2824 57.6599H94.7175V56.6599H39.2824V57.6599ZM41.9828 48.2067C39.9122 50.2743 39.1109 53.0648 38.784 57.1197L39.7808 57.2001C40.1021 53.2143 40.8765 50.7245 42.6894 48.9143L41.9828 48.2067ZM50.8957 45.0112C46.8376 45.3353 44.0499 46.1366 41.9823 48.2072L42.6899 48.9138C44.5001 47.101 46.9871 46.3265 50.9753 46.008L50.8957 45.0112ZM50.4355 41.0954V45.5096H51.4355V41.0954H50.4355ZM51.1956 39.2602C50.7089 39.7469 50.4355 40.407 50.4355 41.0954H51.4355C51.4355 40.6723 51.6035 40.2665 51.9027 39.9673L51.1956 39.2602ZM53.0308 38.5C52.3425 38.5 51.6824 38.7734 51.1956 39.2602L51.9027 39.9673C52.2019 39.6681 52.6077 39.5 53.0308 39.5V38.5ZM54.866 39.2602C54.3793 38.7734 53.7192 38.5 53.0308 38.5V39.5C53.4539 39.5 53.8597 39.6681 54.1589 39.9673L54.866 39.2602ZM39.5618 67.6366C39.5618 65.2912 39.5618 63.2123 39.598 61.3603L38.5982 61.3407C38.5617 63.2045 38.5618 65.294 38.5618 67.6366H39.5618ZM39.5618 73.2243V67.6366H38.5618V73.2243H39.5618ZM42.6895 91.9468C41.1609 90.4194 40.3684 88.4074 39.9666 85.4197C39.5628 82.4176 39.5618 78.5062 39.5618 73.2243H38.5618C38.5618 78.4779 38.5607 82.4688 38.9755 85.553C39.3923 88.6516 40.237 90.91 41.9827 92.6542L42.6895 91.9468ZM61.4124 95.0749C56.1305 95.0749 52.219 95.0738 49.2169 94.67C46.2292 94.2682 44.2172 93.4758 42.6898 91.9471L41.9824 92.6539C43.7266 94.3996 45.985 95.2444 49.0836 95.6611C52.1679 96.0759 56.1588 96.0749 61.4124 96.0749V95.0749ZM72.5877 95.0749H61.4124V96.0749H72.5877V95.0749ZM91.3102 91.9471C89.7829 93.4758 87.7709 94.2682 84.7832 94.67C81.7811 95.0738 77.8696 95.0749 72.5877 95.0749V96.0749C77.8413 96.0749 81.8322 96.0759 84.9164 95.6611C88.0151 95.2444 90.2734 94.3996 92.0176 92.6539L91.3102 91.9471ZM94.4383 73.2243C94.4383 78.5062 94.4372 82.4176 94.0335 85.4197C93.6316 88.4074 92.8392 90.4194 91.3105 91.9468L92.0173 92.6542C93.763 90.91 94.6078 88.6516 95.0246 85.553C95.4394 82.4688 95.4383 78.4779 95.4383 73.2243H94.4383ZM94.4383 67.6366V73.2243H95.4383V67.6366H94.4383ZM94.4021 61.3603C94.4383 63.2123 94.4383 65.2912 94.4383 67.6366H95.4383C95.4383 65.294 95.4383 63.2045 95.4019 61.3407L94.4021 61.3603ZM39.0981 61.8505H94.902V60.8505H39.0981V61.8505ZM80.9692 73.7243C81.8428 73.7243 82.6806 73.3772 83.2983 72.7595L82.5912 72.0524C82.161 72.4826 81.5775 72.7243 80.9692 72.7243V73.7243ZM78.6401 72.7595C79.2578 73.3772 80.0956 73.7243 80.9692 73.7243V72.7243C80.3608 72.7243 79.7774 72.4826 79.3472 72.0524L78.6401 72.7595ZM77.6754 70.4304C77.6754 71.304 78.0224 72.1418 78.6401 72.7595L79.3472 72.0524C78.917 71.6222 78.6754 71.0388 78.6754 70.4304H77.6754ZM78.6401 68.1013C78.0224 68.7191 77.6754 69.5569 77.6754 70.4304H78.6754C78.6754 69.8221 78.917 69.2386 79.3472 68.8085L78.6401 68.1013ZM80.9692 67.1366C80.0956 67.1366 79.2578 67.4836 78.6401 68.1013L79.3472 68.8085C79.7774 68.3783 80.3608 68.1366 80.9692 68.1366V67.1366ZM83.2983 68.1013C82.6806 67.4836 81.8428 67.1366 80.9692 67.1366V68.1366C81.5775 68.1366 82.161 68.3783 82.5912 68.8085L83.2983 68.1013ZM84.263 70.4304C84.263 69.5569 83.916 68.7191 83.2983 68.1013L82.5912 68.8085C83.0213 69.2386 83.263 69.8221 83.263 70.4304H84.263ZM83.2983 72.7595C83.916 72.1418 84.263 71.304 84.263 70.4304H83.263C83.263 71.0388 83.0213 71.6222 82.5912 72.0524L83.2983 72.7595ZM80.9692 84.8996C81.8428 84.8996 82.6806 84.5525 83.2983 83.9348L82.5912 83.2277C82.161 83.6579 81.5775 83.8996 80.9692 83.8996V84.8996ZM78.6401 83.9348C79.2578 84.5525 80.0956 84.8996 80.9692 84.8996V83.8996C80.3608 83.8996 79.7774 83.6579 79.3472 83.2277L78.6401 83.9348ZM77.6754 81.6057C77.6754 82.4793 78.0224 83.3171 78.6401 83.9348L79.3472 83.2277C78.917 82.7976 78.6754 82.2141 78.6754 81.6057H77.6754ZM78.6401 79.2767C78.0224 79.8944 77.6754 80.7322 77.6754 81.6057H78.6754C78.6754 80.9974 78.917 80.4139 79.3472 79.9838L78.6401 79.2767ZM80.9692 78.3119C80.0956 78.3119 79.2578 78.6589 78.6401 79.2767L79.3472 79.9838C79.7774 79.5536 80.3608 79.3119 80.9692 79.3119V78.3119ZM83.2983 79.2767C82.6806 78.6589 81.8428 78.3119 80.9692 78.3119V79.3119C81.5775 79.3119 82.161 79.5536 82.5912 79.9838L83.2983 79.2767ZM84.263 81.6057C84.263 80.7322 83.916 79.8944 83.2983 79.2767L82.5912 79.9838C83.0213 80.4139 83.263 80.9974 83.263 81.6057H84.263ZM83.2983 83.9348C83.916 83.3171 84.263 82.4793 84.263 81.6057H83.263C83.263 82.2141 83.0213 82.7976 82.5912 83.2277L83.2983 83.9348ZM69.2939 70.4304C69.2939 71.0388 69.0522 71.6222 68.622 72.0524L69.3291 72.7595C69.9468 72.1418 70.2939 71.304 70.2939 70.4304H69.2939ZM68.622 68.8085C69.0522 69.2386 69.2939 69.8221 69.2939 70.4304H70.2939C70.2939 69.5569 69.9468 68.7191 69.3291 68.1013L68.622 68.8085ZM67 68.1366C67.6084 68.1366 68.1918 68.3783 68.622 68.8085L69.3291 68.1013C68.7114 67.4836 67.8736 67.1366 67 67.1366V68.1366ZM65.3781 68.8085C65.8082 68.3783 66.3917 68.1366 67 68.1366V67.1366C66.1265 67.1366 65.2887 67.4836 64.671 68.1013L65.3781 68.8085ZM64.7062 70.4304C64.7062 69.8221 64.9479 69.2386 65.3781 68.8085L64.671 68.1013C64.0532 68.7191 63.7062 69.5569 63.7062 70.4304H64.7062ZM65.3781 72.0524C64.9479 71.6222 64.7062 71.0388 64.7062 70.4304H63.7062C63.7062 71.304 64.0532 72.1418 64.671 72.7595L65.3781 72.0524ZM67 72.7243C66.3917 72.7243 65.8082 72.4826 65.3781 72.0524L64.671 72.7595C65.2887 73.3772 66.1265 73.7243 67 73.7243V72.7243ZM68.622 72.0524C68.1918 72.4826 67.6084 72.7243 67 72.7243V73.7243C67.8736 73.7243 68.7114 73.3772 69.3291 72.7595L68.622 72.0524ZM69.2939 81.6057C69.2939 82.2141 69.0522 82.7976 68.622 83.2277L69.3291 83.9348C69.9468 83.3171 70.2939 82.4793 70.2939 81.6057H69.2939ZM68.622 79.9838C69.0522 80.4139 69.2939 80.9974 69.2939 81.6057H70.2939C70.2939 80.7322 69.9468 79.8944 69.3291 79.2767L68.622 79.9838ZM67 79.3119C67.6084 79.3119 68.1918 79.5536 68.622 79.9838L69.3291 79.2767C68.7114 78.6589 67.8736 78.3119 67 78.3119V79.3119ZM65.3781 79.9838C65.8082 79.5536 66.3917 79.3119 67 79.3119V78.3119C66.1265 78.3119 65.2887 78.6589 64.671 79.2767L65.3781 79.9838ZM64.7062 81.6057C64.7062 80.9974 64.9479 80.4139 65.3781 79.9838L64.671 79.2767C64.0532 79.8944 63.7062 80.7322 63.7062 81.6057H64.7062ZM65.3781 83.2277C64.9479 82.7975 64.7062 82.2141 64.7062 81.6057H63.7062C63.7062 82.4793 64.0532 83.3171 64.671 83.9348L65.3781 83.2277ZM67 83.8996C66.3917 83.8996 65.8082 83.6579 65.3781 83.2277L64.671 83.9348C65.2887 84.5525 66.1265 84.8996 67 84.8996V83.8996ZM68.622 83.2277C68.1918 83.6579 67.6084 83.8996 67 83.8996V84.8996C67.8736 84.8996 68.7114 84.5525 69.3291 83.9348L68.622 83.2277ZM53.0309 73.7243C53.9045 73.7243 54.7423 73.3772 55.36 72.7595L54.6529 72.0524C54.2227 72.4826 53.6393 72.7243 53.0309 72.7243V73.7243ZM50.7018 72.7595C51.3195 73.3772 52.1573 73.7243 53.0309 73.7243V72.7243C52.4225 72.7243 51.8391 72.4826 51.4089 72.0524L50.7018 72.7595ZM49.7371 70.4304C49.7371 71.304 50.0841 72.1418 50.7018 72.7595L51.4089 72.0524C50.9787 71.6222 50.7371 71.0388 50.7371 70.4304H49.7371ZM50.7018 68.1013C50.0841 68.7191 49.7371 69.5569 49.7371 70.4304H50.7371C50.7371 69.8221 50.9787 69.2386 51.4089 68.8085L50.7018 68.1013ZM53.0309 67.1366C52.1573 67.1366 51.3195 67.4836 50.7018 68.1013L51.4089 68.8085C51.8391 68.3783 52.4225 68.1366 53.0309 68.1366V67.1366ZM55.36 68.1013C54.7423 67.4836 53.9045 67.1366 53.0309 67.1366V68.1366C53.6393 68.1366 54.2227 68.3783 54.6529 68.8085L55.36 68.1013ZM56.3247 70.4304C56.3247 69.5569 55.9777 68.7191 55.36 68.1013L54.6529 68.8085C55.0831 69.2386 55.3247 69.8221 55.3247 70.4304H56.3247ZM55.36 72.7595C55.9777 72.1418 56.3247 71.304 56.3247 70.4304H55.3247C55.3247 71.0388 55.0831 71.6222 54.6529 72.0524L55.36 72.7595ZM53.0309 84.8996C53.9045 84.8996 54.7423 84.5525 55.36 83.9348L54.6529 83.2277C54.2227 83.6579 53.6393 83.8996 53.0309 83.8996V84.8996ZM50.7018 83.9348C51.3195 84.5525 52.1573 84.8996 53.0309 84.8996V83.8996C52.4225 83.8996 51.8391 83.6579 51.4089 83.2277L50.7018 83.9348ZM49.7371 81.6057C49.7371 82.4793 50.0841 83.3171 50.7018 83.9348L51.4089 83.2277C50.9787 82.7975 50.7371 82.2141 50.7371 81.6057H49.7371ZM50.7018 79.2767C50.0841 79.8944 49.7371 80.7322 49.7371 81.6057H50.7371C50.7371 80.9974 50.9787 80.4139 51.4089 79.9838L50.7018 79.2767ZM53.0309 78.3119C52.1573 78.3119 51.3195 78.6589 50.7018 79.2767L51.4089 79.9838C51.8391 79.5536 52.4225 79.3119 53.0309 79.3119V78.3119ZM55.36 79.2767C54.7423 78.6589 53.9045 78.3119 53.0309 78.3119V79.3119C53.6393 79.3119 54.2227 79.5536 54.6529 79.9838L55.36 79.2767ZM56.3247 81.6057C56.3247 80.7322 55.9777 79.8944 55.36 79.2767L54.6529 79.9838C55.0831 80.4139 55.3247 80.9974 55.3247 81.6057H56.3247ZM55.36 83.9348C55.9777 83.3171 56.3247 82.4793 56.3247 81.6057H55.3247C55.3247 82.2141 55.0831 82.7975 54.6529 83.2277L55.36 83.9348Z" fill="#16A5D5" mask="url(#path-6-inside-1_2774_303)"></path><rect opacity="0.3" x="-20.0571" y="53.8928" width="133.673" height="1.16526" transform="rotate(-29.0332 -20.0571 53.8928)" fill="url(#paint4_linear_2774_303)"></rect><rect opacity="0.3" x="-15.1113" y="9.06332" width="178.474" height="1.24953" transform="rotate(15 -15.1113 9.06332)" fill="url(#paint5_linear_2774_303)"></rect></g><rect x="0.5" y="0.5" width="133" height="133" rx="7.5" stroke="url(#paint6_linear_2774_303)"></rect><defs><linearGradient id="paint0_linear_2774_303" x1="159.745" y1="124.678" x2="357.935" y2="124.678" gradientUnits="userSpaceOnUse"><stop offset="0.210354" stop-color="#176B87" stop-opacity="0"></stop><stop offset="0.505" stop-color="#176B87"></stop><stop offset="0.750345" stop-color="#176B87" stop-opacity="0"></stop></linearGradient><linearGradient id="paint1_linear_2774_303" x1="147.867" y1="142.852" x2="346.057" y2="142.852" gradientUnits="userSpaceOnUse"><stop offset="0.210354" stop-color="#176B87" stop-opacity="0"></stop><stop offset="0.505" stop-color="#176B87"></stop><stop offset="0.750345" stop-color="#176B87" stop-opacity="0"></stop></linearGradient><linearGradient id="paint2_linear_2774_303" x1="-10.0034" y1="36.367" x2="188.187" y2="36.367" gradientUnits="userSpaceOnUse"><stop offset="0.210354" stop-color="#176B87" stop-opacity="0"></stop><stop offset="0.505" stop-color="#176B87"></stop><stop offset="0.750345" stop-color="#176B87" stop-opacity="0"></stop></linearGradient><radialGradient id="paint3_radial_2774_303" cx="0" cy="0" r="1" gradientUnits="userSpaceOnUse" gradientTransform="translate(67 67.2874) rotate(90) scale(28.2874 27.9383)"><stop stop-color="#033242"></stop><stop offset="1" stop-color="#176B87"></stop></radialGradient><linearGradient id="paint4_linear_2774_303" x1="-20.0571" y1="54.4754" x2="113.616" y2="54.4754" gradientUnits="userSpaceOnUse"><stop offset="0.210354" stop-color="#176B87" stop-opacity="0"></stop><stop offset="0.505" stop-color="#176B87"></stop><stop offset="0.750345" stop-color="#176B87" stop-opacity="0"></stop></linearGradient><linearGradient id="paint5_linear_2774_303" x1="-15.1113" y1="9.68809" x2="163.363" y2="9.68809" gradientUnits="userSpaceOnUse"><stop offset="0.210354" stop-color="#176B87" stop-opacity="0"></stop><stop offset="0.505" stop-color="#176B87"></stop><stop offset="0.750345" stop-color="#176B87" stop-opacity="0"></stop></linearGradient><linearGradient id="paint6_linear_2774_303" x1="134" y1="67" x2="0" y2="67" gradientUnits="userSpaceOnUse"><stop offset="0.190327" stop-color="#176B87"></stop><stop offset="1" stop-color="#176B87" stop-opacity="0"></stop></linearGradient><clipPath id="clip0_2774_303"><rect width="134" height="134" rx="8" fill="white"></rect></clipPath></defs></svg> 