<?xml version="1.0" encoding="UTF-8"?> <svg xmlns="http://www.w3.org/2000/svg" width="134" height="134" viewBox="0 0 134 134" fill="none"><g clip-path="url(#clip0_2774_428)"><path d="M0 8C0 3.58172 3.58172 0 8 0H126C130.418 0 134 3.58172 134 8V126C134 130.418 130.418 134 126 134H8C3.58172 134 0 130.418 0 126V8Z" fill="#00141B"></path><rect opacity="0.3" width="133.673" height="1.16526" transform="matrix(-0.874338 -0.485317 -0.485317 0.874338 183.441 142.874)" fill="url(#paint0_linear_2774_428)"></rect><rect opacity="0.3" width="133.673" height="1.16526" transform="matrix(0.793193 -0.608971 -0.608971 -0.793193 -13.2903 67.3274)" fill="url(#paint1_linear_2774_428)"></rect><rect opacity="0.3" width="133.673" height="1.16526" transform="matrix(0.258819 0.965926 0.965926 -0.258819 -7 21.3016)" fill="url(#paint2_linear_2774_428)"></rect><rect opacity="0.3" width="178.474" height="1.24953" transform="matrix(-0.965926 0.258819 0.258819 0.965926 152.393 95.0443)" fill="url(#paint3_linear_2774_428)"></rect><path d="M23.7375 93.1875V94.4875H20H19.675V94.8125V102.937V103.262H20H23.7375V105.375H24.3875V103.262H28.125H28.45V102.937V94.8125V94.4875H28.125H24.3875V93.1875H23.7375Z" fill="url(#paint4_linear_2774_428)" stroke="#3291B0" stroke-width="0.65"></path><path d="M36.7375 89.125V90.425H32.1875H31.8625V90.75V98.875V99.2H32.1875H36.7375V103.75H37.3875V99.2H41.9375H42.2625V98.875V90.75V90.425H41.9375H37.3875V89.125H36.7375Z" fill="url(#paint5_linear_2774_428)" stroke="#3291B0" stroke-width="0.65"></path><path d="M50.55 81.8125V85.55H46H45.675V85.875V94.8125V95.1375H46H50.55V96.4375H51.2V95.1375H55.75H56.075V94.8125V85.875V85.55H55.75H51.2V81.8125H50.55Z" fill="url(#paint6_linear_2774_428)" stroke="#3291B0" stroke-width="0.65"></path><path d="M63.55 81V87.9875H59H58.675V88.3125V100.5V100.825H59H68.75H69.075V100.5V88.3125V87.9875H68.75H64.2V81H63.55Z" fill="#176B87" stroke="#3291B0" stroke-width="0.65"></path><path d="M78.175 60.6875V71.7375H73.625H73.3V72.0625V95.625V95.95H73.625H83.375H83.7V95.625V72.0625V71.7375H83.375H78.825V60.6875H78.175Z" fill="url(#paint7_linear_2774_428)" stroke="#3291B0" stroke-width="0.65"></path><path d="M91.9875 56.625V63.6125H87.4375H87.1125V63.9375V87.5V87.825H87.4375H91.9875V93.1875H92.6375V87.825H97.1875H97.5125V87.5V63.9375V63.6125H97.1875H92.6375V56.625H91.9875Z" fill="url(#paint8_linear_2774_428)" stroke="#3291B0" stroke-width="0.65"></path><path d="M105.8 29L105.8 42.4875H101.25H100.925V42.8125V77.75V78.075H101.25H105.8L105.8 93.1875H106.45L106.45 78.075H111H111.325V77.75V42.8125V42.4875H111H106.45L106.45 29H105.8Z" fill="url(#paint9_linear_2774_428)" stroke="#3291B0" stroke-width="0.65"></path></g><path d="M8 0.5H126C130.142 0.5 133.5 3.85786 133.5 8V126C133.5 130.142 130.142 133.5 126 133.5H8C3.85787 133.5 0.5 130.142 0.5 126V8C0.5 3.85787 3.85786 0.5 8 0.5Z" stroke="url(#paint10_linear_2774_428)"></path><defs><linearGradient id="paint0_linear_2774_428" x1="0" y1="0.582631" x2="133.673" y2="0.582631" gradientUnits="userSpaceOnUse"><stop offset="0.210354" stop-color="#176B87" stop-opacity="0"></stop><stop offset="0.505" stop-color="#176B87"></stop><stop offset="0.750345" stop-color="#176B87" stop-opacity="0"></stop></linearGradient><linearGradient id="paint1_linear_2774_428" x1="0" y1="0.582631" x2="133.673" y2="0.582631" gradientUnits="userSpaceOnUse"><stop offset="0.210354" stop-color="#176B87" stop-opacity="0"></stop><stop offset="0.505" stop-color="#176B87"></stop><stop offset="0.750345" stop-color="#176B87" stop-opacity="0"></stop></linearGradient><linearGradient id="paint2_linear_2774_428" x1="0" y1="0.582631" x2="133.673" y2="0.582631" gradientUnits="userSpaceOnUse"><stop offset="0.210354" stop-color="#176B87" stop-opacity="0"></stop><stop offset="0.505" stop-color="#176B87"></stop><stop offset="0.750345" stop-color="#176B87" stop-opacity="0"></stop></linearGradient><linearGradient id="paint3_linear_2774_428" x1="0" y1="0.624764" x2="178.474" y2="0.624764" gradientUnits="userSpaceOnUse"><stop offset="0.210354" stop-color="#176B87" stop-opacity="0"></stop><stop offset="0.505" stop-color="#176B87"></stop><stop offset="0.750345" stop-color="#176B87" stop-opacity="0"></stop></linearGradient><linearGradient id="paint4_linear_2774_428" x1="24.0625" y1="93.1875" x2="24.0625" y2="105.375" gradientUnits="userSpaceOnUse"><stop stop-color="#176B87"></stop><stop offset="1" stop-color="#0E3C4B"></stop></linearGradient><linearGradient id="paint5_linear_2774_428" x1="37.0625" y1="89.125" x2="37.0625" y2="103.75" gradientUnits="userSpaceOnUse"><stop stop-color="#13576E"></stop><stop offset="1" stop-color="#24A8D4"></stop></linearGradient><linearGradient id="paint6_linear_2774_428" x1="50.875" y1="81.8125" x2="50.875" y2="96.4375" gradientUnits="userSpaceOnUse"><stop stop-color="#4CBADE"></stop><stop offset="1" stop-color="#296578"></stop></linearGradient><linearGradient id="paint7_linear_2774_428" x1="78.5" y1="60.6875" x2="78.5" y2="95.625" gradientUnits="userSpaceOnUse"><stop stop-color="#13576E"></stop><stop offset="1" stop-color="#24A8D4"></stop></linearGradient><linearGradient id="paint8_linear_2774_428" x1="92.3125" y1="56.625" x2="92.3125" y2="93.1875" gradientUnits="userSpaceOnUse"><stop stop-color="#176B87"></stop><stop offset="1" stop-color="#0E3C4B"></stop></linearGradient><linearGradient id="paint9_linear_2774_428" x1="106.125" y1="29" x2="106.125" y2="93.1875" gradientUnits="userSpaceOnUse"><stop stop-color="#4CBADE"></stop><stop offset="1" stop-color="#296578"></stop></linearGradient><linearGradient id="paint10_linear_2774_428" x1="134" y1="67" x2="0" y2="67" gradientUnits="userSpaceOnUse"><stop offset="0.190327" stop-color="#176B87"></stop><stop offset="1" stop-color="#176B87" stop-opacity="0"></stop></linearGradient><clipPath id="clip0_2774_428"><path d="M0 8C0 3.58172 3.58172 0 8 0H126C130.418 0 134 3.58172 134 8V126C134 130.418 130.418 134 126 134H8C3.58172 134 0 130.418 0 126V8Z" fill="white"></path></clipPath></defs></svg> 