<?xml version="1.0" encoding="UTF-8"?> <svg xmlns="http://www.w3.org/2000/svg" width="134" height="134" viewBox="0 0 134 134" fill="none"><g clip-path="url(#clip0_2774_322)"><path d="M0 8C0 3.58172 3.58172 0 8 0H126C130.418 0 134 3.58172 134 8V126C134 130.418 130.418 134 126 134H8C3.58172 134 0 130.418 0 126V8Z" fill="#00141B"></path><path d="M67 40V60.5" stroke="#3291B0" stroke-width="1.2"></path><path d="M40.8569 44.1453L58.3547 61.6431" stroke="#3291B0" stroke-width="1.2"></path><path d="M72 70L89.4978 87.4978" stroke="#3291B0" stroke-width="1.2"></path><path d="M42.501 87.1421L59.9988 69.6443" stroke="#3291B0" stroke-width="1.2"></path><path d="M75.8989 60.5103L92.3101 41.9895" stroke="#3291B0" stroke-width="1.2"></path><path d="M37 67L61.5 67" stroke="#3291B0" stroke-width="1.2"></path><path d="M72 67L96.5 67" stroke="#3291B0" stroke-width="1.2"></path><path d="M67 73L67 97.5" stroke="#3291B0" stroke-width="1.2"></path><rect opacity="0.3" x="51.9524" y="53.9097" width="133.673" height="1.12656" transform="rotate(-29.0332 51.9524 53.9097)" fill="url(#paint0_linear_2774_322)"></rect><rect opacity="0.3" x="-15.1187" y="9.09058" width="178.474" height="1.1931" transform="rotate(15 -15.1187 9.09058)" fill="url(#paint1_linear_2774_322)"></rect><rect opacity="0.3" width="178.474" height="1.1931" transform="matrix(-0.965926 0.258819 0.258819 0.965926 116.965 27)" fill="url(#paint2_linear_2774_322)"></rect><rect opacity="0.3" x="156.538" y="149.04" width="198.19" height="0.874797" transform="rotate(-164.045 156.538 149.04)" fill="url(#paint3_linear_2774_322)"></rect><circle cx="66.8834" cy="33.9029" r="7.30291" fill="#176B87" stroke="#3291B0" stroke-width="0.8"></circle><g filter="url(#filter0_d_2774_322)"><path d="M68.0138 31.2812C67.7268 30.9934 67.3259 30.8349 66.8834 30.8349C66.4385 30.8349 66.0363 30.9925 65.7506 31.2784C65.4618 31.5676 65.3211 31.9605 65.3542 32.3848C65.4197 33.2219 66.1057 33.9029 66.8834 33.9029C67.6611 33.9029 68.3459 33.2221 68.4125 32.3851C68.4459 31.9646 68.3043 31.5725 68.0138 31.2812ZM69.4793 36.9708H64.2875C64.2195 36.9717 64.1522 36.9584 64.0905 36.932C64.0288 36.9057 63.9741 36.8668 63.9306 36.8184C63.8347 36.712 63.796 36.5667 63.8247 36.4197C63.9491 35.7784 64.3376 35.2398 64.9483 34.8616C65.4908 34.5259 66.1779 34.3412 66.8834 34.3412C67.5889 34.3412 68.276 34.5261 68.8185 34.8616C69.4291 35.2396 69.8176 35.7783 69.9421 36.4196C69.9707 36.5665 69.9321 36.7118 69.8362 36.8183C69.7927 36.8667 69.738 36.9056 69.6763 36.932C69.6146 36.9584 69.5473 36.9716 69.4793 36.9708Z" fill="url(#paint4_linear_2774_322)"></path></g><circle cx="30.835" cy="66.8834" r="7.30291" fill="#176B87" stroke="#3291B0" stroke-width="0.8"></circle><g filter="url(#filter1_d_2774_322)"><path d="M31.9654 64.2618C31.6784 63.974 31.2775 63.8155 30.8351 63.8155C30.3902 63.8155 29.988 63.973 29.7023 64.259C29.4135 64.5481 29.2728 64.9411 29.3058 65.3654C29.3713 66.2025 30.0573 66.8835 30.8351 66.8835C31.6128 66.8835 32.2976 66.2026 32.3641 65.3657C32.3976 64.9452 32.256 64.5531 31.9654 64.2618ZM33.4309 69.9514H28.2392C28.1712 69.9522 28.1039 69.939 28.0422 69.9126C27.9804 69.8862 27.9258 69.8474 27.8822 69.799C27.7863 69.6926 27.7477 69.5472 27.7763 69.4003C27.9008 68.759 28.2893 68.2204 28.8999 67.8422C29.4424 67.5065 30.1296 67.3218 30.8351 67.3218C31.5405 67.3218 32.2277 67.5067 32.7702 67.8422C33.3808 68.2202 33.7693 68.7589 33.8938 69.4002C33.9224 69.5471 33.8838 69.6924 33.7879 69.7988C33.7443 69.8473 33.6897 69.8862 33.628 69.9126C33.5662 69.9389 33.4989 69.9522 33.4309 69.9514Z" fill="url(#paint5_linear_2774_322)"></path></g><circle cx="41.2718" cy="40.8057" r="7.30291" fill="#176B87" stroke="#3291B0" stroke-width="0.8"></circle><g filter="url(#filter2_d_2774_322)"><path d="M42.4022 38.1841C42.1152 37.8963 41.7143 37.7379 41.2718 37.7379C40.827 37.7379 40.4248 37.8954 40.1391 38.1814C39.8503 38.4705 39.7096 38.8634 39.7426 39.2877C39.8081 40.1248 40.4941 40.8058 41.2718 40.8058C42.0496 40.8058 42.7344 40.125 42.8009 39.288C42.8344 38.8675 42.6928 38.4754 42.4022 38.1841ZM43.8677 43.8738H38.6759C38.608 43.8746 38.5407 43.8613 38.4789 43.835C38.4172 43.8086 38.3625 43.7698 38.319 43.7213C38.2231 43.6149 38.1845 43.4696 38.2131 43.3226C38.3376 42.6814 38.7261 42.1427 39.3367 41.7645C39.8792 41.4289 40.5664 41.2441 41.2718 41.2441C41.9773 41.2441 42.6645 41.429 43.2069 41.7645C43.8176 42.1426 44.2061 42.6812 44.3306 43.3225C44.3592 43.4694 44.3205 43.6148 44.2247 43.7212C44.1811 43.7696 44.1265 43.8085 44.0647 43.8349C44.003 43.8613 43.9357 43.8746 43.8677 43.8738Z" fill="url(#paint6_linear_2774_322)"></path></g><circle cx="90.1942" cy="40.8057" r="7.30291" fill="#176B87" stroke="#3291B0" stroke-width="0.8"></circle><g filter="url(#filter3_d_2774_322)"><path d="M91.3246 38.1841C91.0376 37.8963 90.6367 37.7379 90.1942 37.7379C89.7493 37.7379 89.3471 37.8954 89.0614 38.1814C88.7726 38.4705 88.6319 38.8634 88.665 39.2877C88.7305 40.1248 89.4164 40.8058 90.1942 40.8058C90.9719 40.8058 91.6567 40.125 91.7233 39.288C91.7567 38.8675 91.6151 38.4754 91.3246 38.1841ZM92.7901 43.8738H87.5983C87.5303 43.8746 87.463 43.8613 87.4013 43.835C87.3395 43.8086 87.2849 43.7698 87.2414 43.7213C87.1455 43.6149 87.1068 43.4696 87.1354 43.3226C87.2599 42.6814 87.6484 42.1427 88.2591 41.7645C88.8015 41.4289 89.4887 41.2441 90.1942 41.2441C90.8996 41.2441 91.5868 41.429 92.1293 41.7645C92.7399 42.1426 93.1284 42.6812 93.2529 43.3225C93.2815 43.4694 93.2429 43.6148 93.147 43.7212C93.1035 43.7696 93.0488 43.8085 92.9871 43.8349C92.9254 43.8613 92.858 43.8746 92.7901 43.8738Z" fill="url(#paint7_linear_2774_322)"></path></g><circle cx="41.2718" cy="89.1263" r="7.30291" fill="#176B87" stroke="#3291B0" stroke-width="0.8"></circle><g filter="url(#filter4_d_2774_322)"><path d="M42.4022 86.5045C42.1152 86.2167 41.7143 86.0583 41.2718 86.0583C40.827 86.0583 40.4248 86.2158 40.1391 86.5017C39.8503 86.7909 39.7096 87.1838 39.7426 87.6081C39.8081 88.4452 40.4941 89.1262 41.2718 89.1262C42.0496 89.1262 42.7344 88.4454 42.8009 87.6084C42.8344 87.1879 42.6928 86.7958 42.4022 86.5045ZM43.8677 92.1941H38.6759C38.608 92.195 38.5407 92.1817 38.4789 92.1553C38.4172 92.129 38.3625 92.0902 38.319 92.0417C38.2231 91.9353 38.1845 91.79 38.2131 91.643C38.3376 91.0018 38.7261 90.4631 39.3367 90.0849C39.8792 89.7492 40.5664 89.5645 41.2718 89.5645C41.9773 89.5645 42.6645 89.7494 43.2069 90.0849C43.8176 90.4629 44.2061 91.0016 44.3306 91.6429C44.3592 91.7898 44.3205 91.9351 44.2247 92.0416C44.1811 92.09 44.1265 92.1289 44.0647 92.1553C44.003 92.1817 43.9357 92.1949 43.8677 92.1941Z" fill="url(#paint8_linear_2774_322)"></path></g><circle cx="90.1942" cy="89.1263" r="7.30291" fill="#176B87" stroke="#3291B0" stroke-width="0.8"></circle><g filter="url(#filter5_d_2774_322)"><path d="M91.3246 86.5045C91.0376 86.2167 90.6367 86.0583 90.1942 86.0583C89.7493 86.0583 89.3471 86.2158 89.0614 86.5017C88.7726 86.7909 88.6319 87.1838 88.665 87.6081C88.7305 88.4452 89.4164 89.1262 90.1942 89.1262C90.9719 89.1262 91.6567 88.4454 91.7233 87.6084C91.7567 87.1879 91.6151 86.7958 91.3246 86.5045ZM92.7901 92.1941H87.5983C87.5303 92.195 87.463 92.1817 87.4013 92.1553C87.3395 92.129 87.2849 92.0902 87.2414 92.0417C87.1455 91.9353 87.1068 91.79 87.1354 91.643C87.2599 91.0018 87.6484 90.4631 88.2591 90.0849C88.8015 89.7492 89.4887 89.5645 90.1942 89.5645C90.8996 89.5645 91.5868 89.7494 92.1293 90.0849C92.7399 90.4629 93.1284 91.0016 93.2529 91.6429C93.2815 91.7898 93.2429 91.9351 93.147 92.0416C93.1035 92.09 93.0488 92.1289 92.9871 92.1553C92.9254 92.1817 92.858 92.1949 92.7901 92.1941Z" fill="url(#paint9_linear_2774_322)"></path></g><circle cx="66.9029" cy="99.097" r="7.30291" fill="#176B87" stroke="#3291B0" stroke-width="0.8"></circle><g filter="url(#filter6_d_2774_322)"><path d="M68.0333 96.4754C67.7463 96.1876 67.3454 96.0291 66.9029 96.0291C66.4581 96.0291 66.0559 96.1866 65.7702 96.4726C65.4814 96.7617 65.3407 97.1547 65.3737 97.579C65.4392 98.4161 66.1252 99.0971 66.9029 99.0971C67.6807 99.0971 68.3655 98.4162 68.432 97.5793C68.4655 97.1588 68.3239 96.7667 68.0333 96.4754ZM69.4988 102.165H64.307C64.2391 102.166 64.1718 102.153 64.11 102.126C64.0483 102.1 63.9936 102.061 63.9501 102.013C63.8542 101.906 63.8156 101.761 63.8442 101.614C63.9687 100.973 64.3572 100.434 64.9678 100.056C65.5103 99.7201 66.1975 99.5353 66.9029 99.5353C67.6084 99.5353 68.2956 99.7202 68.838 100.056C69.4487 100.434 69.8372 100.972 69.9617 101.614C69.9903 101.761 69.9516 101.906 69.8558 102.012C69.8122 102.061 69.7576 102.1 69.6958 102.126C69.6341 102.153 69.5668 102.166 69.4988 102.165Z" fill="url(#paint10_linear_2774_322)"></path></g><circle cx="102.165" cy="66.8834" r="7.30291" fill="#176B87" stroke="#3291B0" stroke-width="0.8"></circle><g filter="url(#filter7_d_2774_322)"><path d="M103.296 64.2618C103.009 63.974 102.608 63.8155 102.165 63.8155C101.72 63.8155 101.318 63.973 101.032 64.259C100.744 64.5481 100.603 64.9411 100.636 65.3654C100.701 66.2025 101.387 66.8835 102.165 66.8835C102.943 66.8835 103.628 66.2026 103.694 65.3657C103.728 64.9452 103.586 64.5531 103.296 64.2618ZM104.761 69.9514H99.5692C99.5013 69.9522 99.434 69.939 99.3722 69.9126C99.3105 69.8862 99.2559 69.8474 99.2123 69.799C99.1164 69.6926 99.0778 69.5472 99.1064 69.4003C99.2309 68.759 99.6194 68.2204 100.23 67.8422C100.772 67.5065 101.46 67.3218 102.165 67.3218C102.871 67.3218 103.558 67.5067 104.1 67.8422C104.711 68.2202 105.099 68.7589 105.224 69.4002C105.252 69.5471 105.214 69.6924 105.118 69.7988C105.074 69.8473 105.02 69.8862 104.958 69.9126C104.896 69.9389 104.829 69.9522 104.761 69.9514Z" fill="url(#paint11_linear_2774_322)"></path></g><rect x="55.7455" y="58.8136" width="21.7088" height="15.3728" rx="3.568" fill="#176B87"></rect><rect x="55.7455" y="58.8136" width="21.7088" height="15.3728" rx="3.568" stroke="#3291B0" stroke-width="0.8"></rect><g filter="url(#filter8_d_2774_322)"><path d="M69.9536 61.9336C70.0724 61.8148 70.2335 61.7481 70.4015 61.7481C70.5695 61.7481 70.7307 61.8148 70.8495 61.9336L73.7007 64.7848C73.8195 64.9036 73.8862 65.0647 73.8862 65.2327C73.8862 65.4008 73.8195 65.5619 73.7007 65.6807L70.8495 68.5319C70.73 68.6473 70.5699 68.7112 70.4038 68.7097C70.2377 68.7083 70.0788 68.6417 69.9613 68.5242C69.8438 68.4067 69.7772 68.2478 69.7757 68.0817C69.7743 67.9155 69.8381 67.7555 69.9536 67.636L71.6687 65.8663H65.6495C65.4815 65.8663 65.3203 65.7996 65.2015 65.6808C65.0827 65.5619 65.0159 65.4008 65.0159 65.2327C65.0159 65.0647 65.0827 64.9035 65.2015 64.7847C65.3203 64.6659 65.4815 64.5991 65.6495 64.5991H71.6687L69.9536 62.8295C69.8348 62.7107 69.7681 62.5496 69.7681 62.3815C69.7681 62.2135 69.8348 62.0524 69.9536 61.9336Z" fill="url(#paint12_linear_2774_322)"></path><path d="M63.2461 65.1015C63.1273 64.9828 62.9662 64.916 62.7981 64.916C62.6301 64.916 62.469 64.9828 62.3502 65.1015L59.499 67.9527C59.3802 68.0716 59.3135 68.2327 59.3135 68.4007C59.3135 68.5687 59.3802 68.7298 59.499 68.8487L62.3502 71.6999C62.4697 71.8153 62.6297 71.8791 62.7959 71.8777C62.962 71.8763 63.1209 71.8096 63.2384 71.6921C63.3559 71.5747 63.4225 71.4158 63.4239 71.2496C63.4254 71.0835 63.3615 70.9234 63.2461 70.8039L61.5309 69.0343H67.5501C67.7182 69.0343 67.8793 68.9675 67.9982 68.8487C68.117 68.7299 68.1838 68.5687 68.1838 68.4007C68.1838 68.2327 68.117 68.0715 67.9982 67.9527C67.8793 67.8339 67.7182 67.7671 67.5501 67.7671H61.5309L63.2461 65.9975C63.3649 65.8786 63.4316 65.7175 63.4316 65.5495C63.4316 65.3815 63.3649 65.2204 63.2461 65.1015Z" fill="url(#paint13_linear_2774_322)"></path></g></g><path d="M8 0.5H126C130.142 0.5 133.5 3.85786 133.5 8V126C133.5 130.142 130.142 133.5 126 133.5H8C3.85787 133.5 0.5 130.142 0.5 126V8C0.5 3.85787 3.85786 0.5 8 0.5Z" stroke="url(#paint14_linear_2774_322)"></path><defs><filter id="filter0_d_2774_322" x="63.8154" y="30.8349" width="6.13599" height="6.23593" filterUnits="userSpaceOnUse" color-interpolation-filters="sRGB"><feFlood flood-opacity="0" result="BackgroundImageFix"></feFlood><feColorMatrix in="SourceAlpha" type="matrix" values="0 0 0 0 0 0 0 0 0 0 0 0 0 0 0 0 0 0 127 0" result="hardAlpha"></feColorMatrix><feOffset dy="0.1"></feOffset><feComposite in2="hardAlpha" operator="out"></feComposite><feColorMatrix type="matrix" values="0 0 0 0 0 0 0 0 0 0 0 0 0 0 0 0 0 0 0.25 0"></feColorMatrix><feBlend mode="normal" in2="BackgroundImageFix" result="effect1_dropShadow_2774_322"></feBlend><feBlend mode="normal" in="SourceGraphic" in2="effect1_dropShadow_2774_322" result="shape"></feBlend></filter><filter id="filter1_d_2774_322" x="27.7671" y="63.8155" width="6.13599" height="6.23593" filterUnits="userSpaceOnUse" color-interpolation-filters="sRGB"><feFlood flood-opacity="0" result="BackgroundImageFix"></feFlood><feColorMatrix in="SourceAlpha" type="matrix" values="0 0 0 0 0 0 0 0 0 0 0 0 0 0 0 0 0 0 127 0" result="hardAlpha"></feColorMatrix><feOffset dy="0.1"></feOffset><feComposite in2="hardAlpha" operator="out"></feComposite><feColorMatrix type="matrix" values="0 0 0 0 0 0 0 0 0 0 0 0 0 0 0 0 0 0 0.25 0"></feColorMatrix><feBlend mode="normal" in2="BackgroundImageFix" result="effect1_dropShadow_2774_322"></feBlend><feBlend mode="normal" in="SourceGraphic" in2="effect1_dropShadow_2774_322" result="shape"></feBlend></filter><filter id="filter2_d_2774_322" x="38.2039" y="37.7379" width="6.13599" height="6.23593" filterUnits="userSpaceOnUse" color-interpolation-filters="sRGB"><feFlood flood-opacity="0" result="BackgroundImageFix"></feFlood><feColorMatrix in="SourceAlpha" type="matrix" values="0 0 0 0 0 0 0 0 0 0 0 0 0 0 0 0 0 0 127 0" result="hardAlpha"></feColorMatrix><feOffset dy="0.1"></feOffset><feComposite in2="hardAlpha" operator="out"></feComposite><feColorMatrix type="matrix" values="0 0 0 0 0 0 0 0 0 0 0 0 0 0 0 0 0 0 0.25 0"></feColorMatrix><feBlend mode="normal" in2="BackgroundImageFix" result="effect1_dropShadow_2774_322"></feBlend><feBlend mode="normal" in="SourceGraphic" in2="effect1_dropShadow_2774_322" result="shape"></feBlend></filter><filter id="filter3_d_2774_322" x="87.1262" y="37.7379" width="6.13599" height="6.23593" filterUnits="userSpaceOnUse" color-interpolation-filters="sRGB"><feFlood flood-opacity="0" result="BackgroundImageFix"></feFlood><feColorMatrix in="SourceAlpha" type="matrix" values="0 0 0 0 0 0 0 0 0 0 0 0 0 0 0 0 0 0 127 0" result="hardAlpha"></feColorMatrix><feOffset dy="0.1"></feOffset><feComposite in2="hardAlpha" operator="out"></feComposite><feColorMatrix type="matrix" values="0 0 0 0 0 0 0 0 0 0 0 0 0 0 0 0 0 0 0.25 0"></feColorMatrix><feBlend mode="normal" in2="BackgroundImageFix" result="effect1_dropShadow_2774_322"></feBlend><feBlend mode="normal" in="SourceGraphic" in2="effect1_dropShadow_2774_322" result="shape"></feBlend></filter><filter id="filter4_d_2774_322" x="38.2039" y="86.0583" width="6.13599" height="6.23593" filterUnits="userSpaceOnUse" color-interpolation-filters="sRGB"><feFlood flood-opacity="0" result="BackgroundImageFix"></feFlood><feColorMatrix in="SourceAlpha" type="matrix" values="0 0 0 0 0 0 0 0 0 0 0 0 0 0 0 0 0 0 127 0" result="hardAlpha"></feColorMatrix><feOffset dy="0.1"></feOffset><feComposite in2="hardAlpha" operator="out"></feComposite><feColorMatrix type="matrix" values="0 0 0 0 0 0 0 0 0 0 0 0 0 0 0 0 0 0 0.25 0"></feColorMatrix><feBlend mode="normal" in2="BackgroundImageFix" result="effect1_dropShadow_2774_322"></feBlend><feBlend mode="normal" in="SourceGraphic" in2="effect1_dropShadow_2774_322" result="shape"></feBlend></filter><filter id="filter5_d_2774_322" x="87.1262" y="86.0583" width="6.13599" height="6.23593" filterUnits="userSpaceOnUse" color-interpolation-filters="sRGB"><feFlood flood-opacity="0" result="BackgroundImageFix"></feFlood><feColorMatrix in="SourceAlpha" type="matrix" values="0 0 0 0 0 0 0 0 0 0 0 0 0 0 0 0 0 0 127 0" result="hardAlpha"></feColorMatrix><feOffset dy="0.1"></feOffset><feComposite in2="hardAlpha" operator="out"></feComposite><feColorMatrix type="matrix" values="0 0 0 0 0 0 0 0 0 0 0 0 0 0 0 0 0 0 0.25 0"></feColorMatrix><feBlend mode="normal" in2="BackgroundImageFix" result="effect1_dropShadow_2774_322"></feBlend><feBlend mode="normal" in="SourceGraphic" in2="effect1_dropShadow_2774_322" result="shape"></feBlend></filter><filter id="filter6_d_2774_322" x="63.835" y="96.0291" width="6.13599" height="6.23593" filterUnits="userSpaceOnUse" color-interpolation-filters="sRGB"><feFlood flood-opacity="0" result="BackgroundImageFix"></feFlood><feColorMatrix in="SourceAlpha" type="matrix" values="0 0 0 0 0 0 0 0 0 0 0 0 0 0 0 0 0 0 127 0" result="hardAlpha"></feColorMatrix><feOffset dy="0.1"></feOffset><feComposite in2="hardAlpha" operator="out"></feComposite><feColorMatrix type="matrix" values="0 0 0 0 0 0 0 0 0 0 0 0 0 0 0 0 0 0 0.25 0"></feColorMatrix><feBlend mode="normal" in2="BackgroundImageFix" result="effect1_dropShadow_2774_322"></feBlend><feBlend mode="normal" in="SourceGraphic" in2="effect1_dropShadow_2774_322" result="shape"></feBlend></filter><filter id="filter7_d_2774_322" x="99.0972" y="63.8155" width="6.13599" height="6.23593" filterUnits="userSpaceOnUse" color-interpolation-filters="sRGB"><feFlood flood-opacity="0" result="BackgroundImageFix"></feFlood><feColorMatrix in="SourceAlpha" type="matrix" values="0 0 0 0 0 0 0 0 0 0 0 0 0 0 0 0 0 0 127 0" result="hardAlpha"></feColorMatrix><feOffset dy="0.1"></feOffset><feComposite in2="hardAlpha" operator="out"></feComposite><feColorMatrix type="matrix" values="0 0 0 0 0 0 0 0 0 0 0 0 0 0 0 0 0 0 0.25 0"></feColorMatrix><feBlend mode="normal" in2="BackgroundImageFix" result="effect1_dropShadow_2774_322"></feBlend><feBlend mode="normal" in="SourceGraphic" in2="effect1_dropShadow_2774_322" result="shape"></feBlend></filter><filter id="filter8_d_2774_322" x="59.3135" y="61.7481" width="14.5728" height="10.2296" filterUnits="userSpaceOnUse" color-interpolation-filters="sRGB"><feFlood flood-opacity="0" result="BackgroundImageFix"></feFlood><feColorMatrix in="SourceAlpha" type="matrix" values="0 0 0 0 0 0 0 0 0 0 0 0 0 0 0 0 0 0 127 0" result="hardAlpha"></feColorMatrix><feOffset dy="0.1"></feOffset><feComposite in2="hardAlpha" operator="out"></feComposite><feColorMatrix type="matrix" values="0 0 0 0 0 0 0 0 0 0 0 0 0 0 0 0 0 0 0.25 0"></feColorMatrix><feBlend mode="normal" in2="BackgroundImageFix" result="effect1_dropShadow_2774_322"></feBlend><feBlend mode="normal" in="SourceGraphic" in2="effect1_dropShadow_2774_322" result="shape"></feBlend></filter><linearGradient id="paint0_linear_2774_322" x1="51.9524" y1="54.4729" x2="185.626" y2="54.4729" gradientUnits="userSpaceOnUse"><stop offset="0.210354" stop-color="#176B87" stop-opacity="0"></stop><stop offset="0.505" stop-color="#176B87"></stop><stop offset="0.750345" stop-color="#176B87" stop-opacity="0"></stop></linearGradient><linearGradient id="paint1_linear_2774_322" x1="-15.1187" y1="9.68712" x2="163.355" y2="9.68712" gradientUnits="userSpaceOnUse"><stop offset="0.210354" stop-color="#176B87" stop-opacity="0"></stop><stop offset="0.505" stop-color="#176B87"></stop><stop offset="0.750345" stop-color="#176B87" stop-opacity="0"></stop></linearGradient><linearGradient id="paint2_linear_2774_322" x1="0" y1="0.596548" x2="178.474" y2="0.596548" gradientUnits="userSpaceOnUse"><stop offset="0.210354" stop-color="#176B87" stop-opacity="0"></stop><stop offset="0.505" stop-color="#176B87"></stop><stop offset="0.750345" stop-color="#176B87" stop-opacity="0"></stop></linearGradient><linearGradient id="paint3_linear_2774_322" x1="156.538" y1="149.477" x2="354.728" y2="149.477" gradientUnits="userSpaceOnUse"><stop offset="0.210354" stop-color="#176B87" stop-opacity="0"></stop><stop offset="0.505" stop-color="#176B87"></stop><stop offset="0.750345" stop-color="#176B87" stop-opacity="0"></stop></linearGradient><linearGradient id="paint4_linear_2774_322" x1="66.8834" y1="30.8349" x2="66.8834" y2="36.9709" gradientUnits="userSpaceOnUse"><stop stop-color="#061A21"></stop><stop offset="0.385" stop-color="#0F5167"></stop><stop offset="0.645" stop-color="#09303D"></stop><stop offset="1" stop-color="#04181F"></stop></linearGradient><linearGradient id="paint5_linear_2774_322" x1="30.8351" y1="63.8155" x2="30.8351" y2="69.9515" gradientUnits="userSpaceOnUse"><stop stop-color="#061A21"></stop><stop offset="0.385" stop-color="#0F5167"></stop><stop offset="0.645" stop-color="#09303D"></stop><stop offset="1" stop-color="#04181F"></stop></linearGradient><linearGradient id="paint6_linear_2774_322" x1="41.2718" y1="37.7379" x2="41.2718" y2="43.8738" gradientUnits="userSpaceOnUse"><stop stop-color="#061A21"></stop><stop offset="0.385" stop-color="#0F5167"></stop><stop offset="0.645" stop-color="#09303D"></stop><stop offset="1" stop-color="#04181F"></stop></linearGradient><linearGradient id="paint7_linear_2774_322" x1="90.1942" y1="37.7379" x2="90.1942" y2="43.8738" gradientUnits="userSpaceOnUse"><stop stop-color="#061A21"></stop><stop offset="0.385" stop-color="#0F5167"></stop><stop offset="0.645" stop-color="#09303D"></stop><stop offset="1" stop-color="#04181F"></stop></linearGradient><linearGradient id="paint8_linear_2774_322" x1="41.2718" y1="86.0583" x2="41.2718" y2="92.1942" gradientUnits="userSpaceOnUse"><stop stop-color="#061A21"></stop><stop offset="0.385" stop-color="#0F5167"></stop><stop offset="0.645" stop-color="#09303D"></stop><stop offset="1" stop-color="#04181F"></stop></linearGradient><linearGradient id="paint9_linear_2774_322" x1="90.1942" y1="86.0583" x2="90.1942" y2="92.1942" gradientUnits="userSpaceOnUse"><stop stop-color="#061A21"></stop><stop offset="0.385" stop-color="#0F5167"></stop><stop offset="0.645" stop-color="#09303D"></stop><stop offset="1" stop-color="#04181F"></stop></linearGradient><linearGradient id="paint10_linear_2774_322" x1="66.9029" y1="96.0291" x2="66.9029" y2="102.165" gradientUnits="userSpaceOnUse"><stop stop-color="#061A21"></stop><stop offset="0.385" stop-color="#0F5167"></stop><stop offset="0.645" stop-color="#09303D"></stop><stop offset="1" stop-color="#04181F"></stop></linearGradient><linearGradient id="paint11_linear_2774_322" x1="102.165" y1="63.8155" x2="102.165" y2="69.9515" gradientUnits="userSpaceOnUse"><stop stop-color="#061A21"></stop><stop offset="0.385" stop-color="#0F5167"></stop><stop offset="0.645" stop-color="#09303D"></stop><stop offset="1" stop-color="#04181F"></stop></linearGradient><linearGradient id="paint12_linear_2774_322" x1="66.5998" y1="61.7481" x2="66.5998" y2="71.8777" gradientUnits="userSpaceOnUse"><stop stop-color="#061A21"></stop><stop offset="0.385" stop-color="#0F5167"></stop><stop offset="0.645" stop-color="#09303D"></stop><stop offset="1" stop-color="#04181F"></stop></linearGradient><linearGradient id="paint13_linear_2774_322" x1="66.5998" y1="61.7481" x2="66.5998" y2="71.8777" gradientUnits="userSpaceOnUse"><stop stop-color="#061A21"></stop><stop offset="0.385" stop-color="#0F5167"></stop><stop offset="0.645" stop-color="#09303D"></stop><stop offset="1" stop-color="#04181F"></stop></linearGradient><linearGradient id="paint14_linear_2774_322" x1="134" y1="67" x2="0" y2="67" gradientUnits="userSpaceOnUse"><stop offset="0.190327" stop-color="#176B87"></stop><stop offset="1" stop-color="#176B87" stop-opacity="0"></stop></linearGradient><clipPath id="clip0_2774_322"><path d="M0 8C0 3.58172 3.58172 0 8 0H126C130.418 0 134 3.58172 134 8V126C134 130.418 130.418 134 126 134H8C3.58172 134 0 130.418 0 126V8Z" fill="white"></path></clipPath></defs></svg> 