<?xml version="1.0" encoding="UTF-8"?> <svg xmlns="http://www.w3.org/2000/svg" width="290" height="178" viewBox="0 0 290 178" fill="none"><g clip-path="url(#clip0_2789_178)"><path d="M0 18.0253C0 8.0702 8.07021 0 18.0253 0H271.506C281.461 0 289.532 8.07021 289.532 18.0253V178H0V18.0253Z" fill="#00141B"></path><g opacity="0.05"><path d="M3.66431 -98.8575V277.139" stroke="#D9D9D9" stroke-width="0.300918"></path><path d="M20.2148 -98.8575V277.139" stroke="#D9D9D9" stroke-width="0.300918"></path><path d="M36.7653 -98.8575V277.139" stroke="#D9D9D9" stroke-width="0.300918"></path><path d="M53.3158 -98.8575V277.139" stroke="#D9D9D9" stroke-width="0.300918"></path><path d="M69.8663 -98.8575V277.139" stroke="#D9D9D9" stroke-width="0.300918"></path><path d="M86.4167 -98.8575V277.139" stroke="#D9D9D9" stroke-width="0.300918"></path><path d="M102.967 -98.8575V277.139" stroke="#D9D9D9" stroke-width="0.300918"></path><path d="M119.518 -98.8575V277.139" stroke="#D9D9D9" stroke-width="0.300918"></path><path d="M136.068 -98.8575V277.139" stroke="#D9D9D9" stroke-width="0.300918"></path><path d="M152.619 -98.8575V277.139" stroke="#D9D9D9" stroke-width="0.300918"></path><path d="M169.169 -98.8575V277.139" stroke="#D9D9D9" stroke-width="0.300918"></path><path d="M185.72 -98.8575V277.139" stroke="#D9D9D9" stroke-width="0.300918"></path><path d="M202.27 -98.8575V277.139" stroke="#D9D9D9" stroke-width="0.300918"></path><path d="M218.821 -98.8575V277.139" stroke="#D9D9D9" stroke-width="0.300918"></path><path d="M235.371 -98.8575V277.139" stroke="#D9D9D9" stroke-width="0.300918"></path><path d="M251.922 -98.8575V277.139" stroke="#D9D9D9" stroke-width="0.300918"></path><path d="M268.472 -98.8575V277.139" stroke="#D9D9D9" stroke-width="0.300918"></path><path d="M285.022 -98.8575V277.139" stroke="#D9D9D9" stroke-width="0.300918"></path><path d="M332.342 14.6638L-43.655 14.6638" stroke="#D9D9D9" stroke-width="0.300918"></path><path d="M332.342 31.2143L-43.655 31.2143" stroke="#D9D9D9" stroke-width="0.300918"></path><path d="M332.342 47.7646L-43.655 47.7645" stroke="#D9D9D9" stroke-width="0.300918"></path><path d="M332.342 64.3151L-43.655 64.3151" stroke="#D9D9D9" stroke-width="0.300918"></path><path d="M332.342 80.8656L-43.655 80.8656" stroke="#D9D9D9" stroke-width="0.300918"></path><path d="M332.342 97.4161L-43.655 97.4161" stroke="#D9D9D9" stroke-width="0.300918"></path><path d="M332.342 113.967L-43.655 113.967" stroke="#D9D9D9" stroke-width="0.300918"></path><path d="M332.342 130.517L-43.655 130.517" stroke="#D9D9D9" stroke-width="0.300918"></path><path d="M332.342 147.067L-43.655 147.067" stroke="#D9D9D9" stroke-width="0.300918"></path><path d="M332.342 163.618L-43.655 163.618" stroke="#D9D9D9" stroke-width="0.300918"></path></g><rect y="90.1266" width="289.532" height="87.8734" fill="url(#paint0_linear_2789_178)"></rect><rect x="23.4065" y="118.084" width="6.87321" height="10.7757" fill="url(#paint1_linear_2789_178)" stroke="#176B87" stroke-width="0.281257"></rect><rect x="33.936" y="113.531" width="7.52362" height="15.3285" fill="url(#paint2_linear_2789_178)" stroke="#176B87" stroke-width="0.281257"></rect><rect x="45.116" y="109.628" width="6.87321" height="19.2309" fill="url(#paint3_linear_2789_178)" stroke="#176B87" stroke-width="0.281257"></rect><rect x="55.6455" y="113.531" width="7.52362" height="15.3285" fill="url(#paint4_linear_2789_178)" stroke="#176B87" stroke-width="0.281257"></rect><rect x="66.8256" y="107.027" width="6.87321" height="21.8326" fill="url(#paint5_linear_2789_178)" stroke="#176B87" stroke-width="0.281257"></rect><rect x="77.3551" y="95.9699" width="6.87321" height="32.8895" fill="url(#paint6_linear_2789_178)" stroke="#176B87" stroke-width="0.281257"></rect><rect x="87.8846" y="113.531" width="6.87321" height="15.3285" fill="url(#paint7_linear_2789_178)" stroke="#176B87" stroke-width="0.281257"></rect><rect x="98.4142" y="92.7179" width="6.87321" height="36.1415" fill="url(#paint8_linear_2789_178)" stroke="#176B87" stroke-width="0.281257"></rect><rect x="108.944" y="92.7179" width="7.52362" height="36.1415" fill="url(#paint9_linear_2789_178)" stroke="#176B87" stroke-width="0.281257"></rect><rect x="120.124" y="100.523" width="6.87321" height="28.3366" fill="url(#paint10_linear_2789_178)" stroke="#176B87" stroke-width="0.281257"></rect><rect x="130.653" y="107.027" width="7.52362" height="21.8326" fill="url(#paint11_linear_2789_178)" stroke="#176B87" stroke-width="0.281257"></rect><rect x="141.833" y="98.5715" width="6.87321" height="30.2878" fill="url(#paint12_linear_2789_178)" stroke="#176B87" stroke-width="0.281257"></rect><rect x="152.363" y="90.1162" width="6.87321" height="38.7431" fill="url(#paint13_linear_2789_178)" stroke="#176B87" stroke-width="0.281257"></rect><rect x="162.892" y="113.531" width="7.52362" height="15.3285" fill="url(#paint14_linear_2789_178)" stroke="#176B87" stroke-width="0.281257"></rect><rect x="174.072" y="90.1162" width="6.87321" height="38.7431" fill="url(#paint15_linear_2789_178)" stroke="#176B87" stroke-width="0.281257"></rect><rect x="184.602" y="105.726" width="6.87321" height="23.1334" fill="url(#paint16_linear_2789_178)" stroke="#176B87" stroke-width="0.281257"></rect><rect x="195.131" y="90.1162" width="7.52362" height="38.7431" fill="url(#paint17_linear_2789_178)" stroke="#176B87" stroke-width="0.281257"></rect><rect x="206.311" y="98.5715" width="6.87321" height="30.2878" fill="url(#paint18_linear_2789_178)" stroke="#176B87" stroke-width="0.281257"></rect><rect x="216.841" y="82.3113" width="6.87321" height="46.548" fill="url(#paint19_linear_2789_178)" stroke="#176B87" stroke-width="0.281257"></rect><rect x="227.37" y="95.9699" width="6.87321" height="32.8895" fill="url(#paint20_linear_2789_178)" stroke="#176B87" stroke-width="0.281257"></rect><rect x="237.9" y="92.7179" width="6.87321" height="36.1415" fill="url(#paint21_linear_2789_178)" stroke="#176B87" stroke-width="0.281257"></rect><rect x="248.43" y="95.9699" width="6.87321" height="32.8895" fill="url(#paint22_linear_2789_178)" stroke="#176B87" stroke-width="0.281257"></rect><rect x="258.959" y="108.328" width="6.87321" height="20.5317" fill="url(#paint23_linear_2789_178)" stroke="#176B87" stroke-width="0.281257"></rect><path d="M30.4608 63.8423L30.4499 63.7548L30.3677 63.723C30.185 63.6524 30.0134 63.5678 29.8529 63.4694C29.6879 63.3683 29.5259 63.2599 29.3671 63.1442L29.2997 63.0952L29.223 63.1276L26.7246 64.1826L24.4339 60.2063L26.5971 58.5599L26.666 58.5075L26.6538 58.4219C26.64 58.3249 26.6333 58.2325 26.6333 58.1445V57.5474C26.6333 57.4588 26.64 57.3661 26.6538 57.2692L26.666 57.1835L26.5971 57.1311L24.4339 55.4848L26.7246 51.5085L29.223 52.5635L29.2999 52.5959L29.3673 52.5467C29.5246 52.4317 29.6891 52.3239 29.861 52.2231C30.0317 52.123 30.2019 52.0376 30.3714 51.9666L30.4503 51.9336L30.4608 51.8488L30.7968 49.1474H35.3772L35.7132 51.8488L35.724 51.9363L35.8063 51.9681C35.989 52.0387 36.1609 52.1233 36.3222 52.2218C36.4876 52.3228 36.649 52.431 36.8064 52.5465L36.8739 52.596L36.951 52.5635L39.4494 51.5085L41.74 55.4848L39.5768 57.1311L39.508 57.1835L39.5202 57.2692C39.5339 57.3661 39.5407 57.4588 39.5407 57.5474V58.1436C39.5407 58.2246 39.5283 58.3107 39.5023 58.4023L39.4748 58.499L39.5548 58.5599L41.718 60.2063L39.4276 64.1823L36.9514 63.1278L36.8743 63.0949L36.8066 63.1444C36.6494 63.2593 36.4848 63.3672 36.313 63.4679C36.1422 63.568 35.9721 63.6535 35.8025 63.7245L35.7237 63.7575L35.7132 63.8423L35.3772 66.5436H30.7968L30.4608 63.8423ZM33.131 61.0889C34.0211 61.0889 34.7848 60.771 35.4139 60.1388C36.0429 59.5066 36.3589 58.7394 36.3589 57.8455C36.3589 56.9516 36.0429 56.1844 35.4139 55.5523C34.7848 54.9201 34.0211 54.6022 33.131 54.6022C32.2269 54.6022 31.4588 54.9196 30.8361 55.5529C30.2143 56.1852 29.9024 56.9522 29.903 57.8456C29.9036 58.7389 30.2157 59.5058 30.8369 60.1381C31.4591 60.7714 32.2269 61.0889 33.131 61.0889Z" fill="url(#paint24_radial_2789_178)" stroke="#176B87" stroke-width="0.294851"></path><path d="M56.615 70.0483L56.6865 69.9967L56.6748 69.9092C56.6545 69.7573 56.648 69.6079 56.6551 69.4609C56.6625 69.3087 56.676 69.1559 56.6957 69.0024L56.7064 68.9198L56.641 68.868L54.979 67.5521L56.8393 64.4948L58.7808 65.3589L58.8598 65.394L58.9291 65.3422C58.9901 65.2965 59.0504 65.2574 59.1101 65.2247L59.5246 64.9974C59.5848 64.9645 59.6504 64.9345 59.7216 64.9076L59.8026 64.8771L59.8154 64.7915L60.1309 62.69L63.7089 62.7655L63.9247 64.8744L63.9332 64.9574L64.0088 64.9929C64.1475 65.0578 64.2841 65.1305 64.4186 65.2109C64.5519 65.2907 64.6749 65.3755 64.7876 65.4653L64.8544 65.5185L64.9338 65.487L66.9117 64.7021L68.6289 67.8341L66.9036 69.0796L66.8321 69.1312L66.8438 69.2186C66.8641 69.3706 66.8707 69.5203 66.8638 69.6678C66.8567 69.8202 66.8431 69.9726 66.8229 70.125L66.812 70.2079L66.8776 70.2598L68.5396 71.5758L66.6793 74.633L64.7378 73.769L64.6588 73.7338L64.5895 73.7857C64.5286 73.8313 64.468 73.8705 64.4078 73.9035L63.994 74.1304C63.9405 74.1597 63.8788 74.183 63.8077 74.1992L63.7097 74.2216L63.6948 74.3211L63.3793 76.4226L59.8018 76.3471L59.594 74.254L59.5857 74.1706L59.5098 74.135C59.3711 74.07 59.2345 73.9974 59.1 73.9169C58.9667 73.8372 58.8437 73.7523 58.731 73.6626L58.6642 73.6093L58.5848 73.6409L56.6069 74.4258L54.8897 71.2938L56.615 70.0483ZM59.4977 70.8437C59.8404 71.4688 60.3584 71.8832 61.0445 72.0815C61.7306 72.2798 62.3918 72.2063 63.0194 71.8622C63.647 71.518 64.0646 71.0001 64.2663 70.315C64.468 69.6299 64.3972 68.9703 64.0544 68.3452C63.7064 67.7106 63.1871 67.2928 62.5024 67.0992C61.819 66.9061 61.1595 66.9825 60.5326 67.3269C59.9058 67.6711 59.4869 68.1861 59.282 68.8657C59.0768 69.5468 59.1497 70.2091 59.4977 70.8437Z" fill="url(#paint25_radial_2789_178)" stroke="#176B87" stroke-width="0.294851"></path><path d="M41.8172 78.8471L41.8045 78.745L41.7085 78.7079C41.4954 78.6255 41.2953 78.5269 41.1079 78.4121C40.9154 78.2941 40.7265 78.1677 40.5412 78.0327L40.4626 77.9755L40.3731 78.0133L37.4582 79.2442L34.7858 74.6051L37.3096 72.6844L37.3899 72.6232L37.3757 72.5233C37.3596 72.4102 37.3517 72.3024 37.3517 72.1997V71.5031C37.3517 71.3997 37.3596 71.2916 37.3757 71.1785L37.3899 71.0786L37.3096 71.0175L34.7858 69.0967L37.4582 64.4577L40.3731 65.6885L40.4628 65.7264L40.5415 65.6689C40.7249 65.5348 40.9169 65.409 41.1174 65.2914C41.3166 65.1746 41.5151 65.0749 41.7129 64.9921L41.8049 64.9536L41.8172 64.8547L42.2092 61.7031H47.553L47.9449 64.8547L47.9576 64.9568L48.0536 64.9939C48.2668 65.0763 48.4673 65.175 48.6554 65.2898C48.8484 65.4077 49.0367 65.534 49.2204 65.6687L49.2991 65.7265L49.3891 65.6885L52.3039 64.4577L54.9763 69.0967L52.4526 71.0175L52.3722 71.0786L52.3864 71.1785C52.4025 71.2916 52.4104 71.3997 52.4104 71.5031V72.1987C52.4104 72.2932 52.396 72.3936 52.3656 72.5005L52.3335 72.6133L52.4269 72.6844L54.9506 74.6051L52.2784 79.2438L49.3896 78.0135L49.2996 77.9752L49.2207 78.0329C49.0372 78.167 48.8452 78.2929 48.6447 78.4104C48.4455 78.5272 48.247 78.6269 48.0492 78.7097L47.9572 78.7482L47.9449 78.8471L47.553 81.9987H42.2092L41.8172 78.8471ZM44.9324 75.6348C45.9709 75.6348 46.8619 75.2639 47.5958 74.5264C48.3296 73.7889 48.6984 72.8938 48.6984 71.8509C48.6984 70.808 48.3296 69.913 47.5958 69.1754C46.8619 68.4379 45.9709 68.067 44.9324 68.067C43.8776 68.067 42.9815 68.4373 42.255 69.1762C41.5296 69.9139 41.1657 70.8087 41.1665 71.851C41.1672 72.8932 41.5313 73.7879 42.2559 74.5256C42.9818 75.2645 43.8776 75.6348 44.9324 75.6348Z" fill="url(#paint26_radial_2789_178)" stroke="#176B87" stroke-width="0.343993"></path></g><path d="M18.0253 0.563291H271.506C281.15 0.563291 288.968 8.38131 288.968 18.0253V177.437H0.563291V18.0253C0.563291 8.3813 8.38131 0.563291 18.0253 0.563291Z" stroke="url(#paint27_linear_2789_178)" stroke-width="1.12658"></path><defs><linearGradient id="paint0_linear_2789_178" x1="144.766" y1="178" x2="144.766" y2="90.1266" gradientUnits="userSpaceOnUse"><stop stop-color="#021117"></stop><stop offset="1" stop-color="#07212A" stop-opacity="0"></stop></linearGradient><linearGradient id="paint1_linear_2789_178" x1="26.8431" y1="117.943" x2="26.8431" y2="129" gradientUnits="userSpaceOnUse"><stop stop-color="#07212A"></stop><stop offset="1" stop-color="#187190"></stop></linearGradient><linearGradient id="paint2_linear_2789_178" x1="37.6978" y1="113.39" x2="37.6978" y2="129" gradientUnits="userSpaceOnUse"><stop stop-color="#07212A"></stop><stop offset="1" stop-color="#187190"></stop></linearGradient><linearGradient id="paint3_linear_2789_178" x1="48.5526" y1="109.488" x2="48.5526" y2="129" gradientUnits="userSpaceOnUse"><stop stop-color="#07212A"></stop><stop offset="1" stop-color="#187190"></stop></linearGradient><linearGradient id="paint4_linear_2789_178" x1="59.4073" y1="113.39" x2="59.4073" y2="129" gradientUnits="userSpaceOnUse"><stop stop-color="#07212A"></stop><stop offset="1" stop-color="#187190"></stop></linearGradient><linearGradient id="paint5_linear_2789_178" x1="70.2622" y1="106.886" x2="70.2622" y2="129" gradientUnits="userSpaceOnUse"><stop stop-color="#07212A"></stop><stop offset="1" stop-color="#187190"></stop></linearGradient><linearGradient id="paint6_linear_2789_178" x1="80.7917" y1="95.8293" x2="80.7917" y2="129" gradientUnits="userSpaceOnUse"><stop stop-color="#07212A"></stop><stop offset="1" stop-color="#187190"></stop></linearGradient><linearGradient id="paint7_linear_2789_178" x1="91.3213" y1="113.39" x2="91.3213" y2="129" gradientUnits="userSpaceOnUse"><stop stop-color="#07212A"></stop><stop offset="1" stop-color="#187190"></stop></linearGradient><linearGradient id="paint8_linear_2789_178" x1="101.851" y1="92.5772" x2="101.851" y2="129" gradientUnits="userSpaceOnUse"><stop stop-color="#07212A"></stop><stop offset="1" stop-color="#187190"></stop></linearGradient><linearGradient id="paint9_linear_2789_178" x1="112.706" y1="92.5772" x2="112.706" y2="129" gradientUnits="userSpaceOnUse"><stop stop-color="#07212A"></stop><stop offset="1" stop-color="#187190"></stop></linearGradient><linearGradient id="paint10_linear_2789_178" x1="123.56" y1="100.382" x2="123.56" y2="129" gradientUnits="userSpaceOnUse"><stop stop-color="#07212A"></stop><stop offset="1" stop-color="#187190"></stop></linearGradient><linearGradient id="paint11_linear_2789_178" x1="134.415" y1="106.886" x2="134.415" y2="129" gradientUnits="userSpaceOnUse"><stop stop-color="#07212A"></stop><stop offset="1" stop-color="#187190"></stop></linearGradient><linearGradient id="paint12_linear_2789_178" x1="145.27" y1="98.4309" x2="145.27" y2="129" gradientUnits="userSpaceOnUse"><stop stop-color="#07212A"></stop><stop offset="1" stop-color="#187190"></stop></linearGradient><linearGradient id="paint13_linear_2789_178" x1="155.799" y1="89.9756" x2="155.799" y2="129" gradientUnits="userSpaceOnUse"><stop stop-color="#07212A"></stop><stop offset="1" stop-color="#187190"></stop></linearGradient><linearGradient id="paint14_linear_2789_178" x1="166.654" y1="113.39" x2="166.654" y2="129" gradientUnits="userSpaceOnUse"><stop stop-color="#07212A"></stop><stop offset="1" stop-color="#187190"></stop></linearGradient><linearGradient id="paint15_linear_2789_178" x1="177.509" y1="89.9756" x2="177.509" y2="129" gradientUnits="userSpaceOnUse"><stop stop-color="#07212A"></stop><stop offset="1" stop-color="#187190"></stop></linearGradient><linearGradient id="paint16_linear_2789_178" x1="188.038" y1="105.585" x2="188.038" y2="129" gradientUnits="userSpaceOnUse"><stop stop-color="#07212A"></stop><stop offset="1" stop-color="#187190"></stop></linearGradient><linearGradient id="paint17_linear_2789_178" x1="198.893" y1="89.9756" x2="198.893" y2="129" gradientUnits="userSpaceOnUse"><stop stop-color="#07212A"></stop><stop offset="1" stop-color="#187190"></stop></linearGradient><linearGradient id="paint18_linear_2789_178" x1="209.748" y1="98.4309" x2="209.748" y2="129" gradientUnits="userSpaceOnUse"><stop stop-color="#07212A"></stop><stop offset="1" stop-color="#187190"></stop></linearGradient><linearGradient id="paint19_linear_2789_178" x1="220.278" y1="82.1707" x2="220.278" y2="129" gradientUnits="userSpaceOnUse"><stop stop-color="#07212A"></stop><stop offset="1" stop-color="#187190"></stop></linearGradient><linearGradient id="paint20_linear_2789_178" x1="230.807" y1="95.8293" x2="230.807" y2="129" gradientUnits="userSpaceOnUse"><stop stop-color="#07212A"></stop><stop offset="1" stop-color="#187190"></stop></linearGradient><linearGradient id="paint21_linear_2789_178" x1="241.337" y1="92.5772" x2="241.337" y2="129" gradientUnits="userSpaceOnUse"><stop stop-color="#07212A"></stop><stop offset="1" stop-color="#187190"></stop></linearGradient><linearGradient id="paint22_linear_2789_178" x1="251.866" y1="95.8293" x2="251.866" y2="129" gradientUnits="userSpaceOnUse"><stop stop-color="#07212A"></stop><stop offset="1" stop-color="#187190"></stop></linearGradient><linearGradient id="paint23_linear_2789_178" x1="262.396" y1="108.187" x2="262.396" y2="129" gradientUnits="userSpaceOnUse"><stop stop-color="#07212A"></stop><stop offset="1" stop-color="#187190"></stop></linearGradient><radialGradient id="paint24_radial_2789_178" cx="0" cy="0" r="1" gradientUnits="userSpaceOnUse" gradientTransform="translate(33.087 57.8455) rotate(90) scale(8.84553)"><stop stop-color="#07212A"></stop><stop offset="1" stop-color="#187190"></stop></radialGradient><radialGradient id="paint25_radial_2789_178" cx="0" cy="0" r="1" gradientUnits="userSpaceOnUse" gradientTransform="translate(61.7593 69.5639) rotate(151.264) scale(7.00271)"><stop stop-color="#07212A"></stop><stop offset="1" stop-color="#187190"></stop></radialGradient><radialGradient id="paint26_radial_2789_178" cx="0" cy="0" r="1" gradientUnits="userSpaceOnUse" gradientTransform="translate(44.8811 71.8509) rotate(90) scale(10.3198)"><stop stop-color="#07212A"></stop><stop offset="1" stop-color="#187190"></stop></radialGradient><linearGradient id="paint27_linear_2789_178" x1="144.766" y1="0" x2="144.766" y2="178" gradientUnits="userSpaceOnUse"><stop offset="0.190327" stop-color="#176B87"></stop><stop offset="1" stop-color="#176B87" stop-opacity="0"></stop></linearGradient><clipPath id="clip0_2789_178"><path d="M0 18.0253C0 8.0702 8.07021 0 18.0253 0H271.506C281.461 0 289.532 8.07021 289.532 18.0253V178H0V18.0253Z" fill="white"></path></clipPath></defs></svg> 