<?xml version="1.0" encoding="UTF-8"?> <svg xmlns="http://www.w3.org/2000/svg" width="478" height="485" viewBox="0 0 478 485" fill="none"><g clip-path="url(#clip0_2766_876)"><path d="M0 16C0 7.16344 7.16344 0 16 0H462C470.837 0 478 7.16344 478 16V485H0V16Z" fill="#00141B"></path><g opacity="0.05"><path d="M17.3918 -16V514.25" stroke="#D9D9D9" stroke-width="0.42437"></path><path d="M40.7322 -16V514.25" stroke="#D9D9D9" stroke-width="0.42437"></path><path d="M64.0725 -16V514.25" stroke="#D9D9D9" stroke-width="0.42437"></path><path d="M87.4128 -16V514.25" stroke="#D9D9D9" stroke-width="0.42437"></path><path d="M110.753 -16V514.25" stroke="#D9D9D9" stroke-width="0.42437"></path><path d="M134.094 -16V514.25" stroke="#D9D9D9" stroke-width="0.42437"></path><path d="M157.434 -16V514.25" stroke="#D9D9D9" stroke-width="0.42437"></path><path d="M180.774 -16V514.25" stroke="#D9D9D9" stroke-width="0.42437"></path><path d="M204.115 -16V514.25" stroke="#D9D9D9" stroke-width="0.42437"></path><path d="M227.455 -16V514.25" stroke="#D9D9D9" stroke-width="0.42437"></path><path d="M250.795 -16V514.25" stroke="#D9D9D9" stroke-width="0.42437"></path><path d="M274.135 -16V514.25" stroke="#D9D9D9" stroke-width="0.42437"></path><path d="M297.476 -16V514.25" stroke="#D9D9D9" stroke-width="0.42437"></path><path d="M320.816 -16V514.25" stroke="#D9D9D9" stroke-width="0.42437"></path><path d="M344.156 -16V514.25" stroke="#D9D9D9" stroke-width="0.42437"></path><path d="M367.497 -16V514.25" stroke="#D9D9D9" stroke-width="0.42437"></path><path d="M390.837 -16V514.25" stroke="#D9D9D9" stroke-width="0.42437"></path><path d="M414.177 -16V514.25" stroke="#D9D9D9" stroke-width="0.42437"></path><path d="M437.518 -16V514.25" stroke="#D9D9D9" stroke-width="0.42437"></path><path d="M460.858 -16V514.25" stroke="#D9D9D9" stroke-width="0.42437"></path><path d="M504.25 27.3918L-26 27.3918" stroke="#D9D9D9" stroke-width="0.42437"></path><path d="M504.25 50.7321L-26 50.7321" stroke="#D9D9D9" stroke-width="0.42437"></path><path d="M504.25 74.0725L-26 74.0725" stroke="#D9D9D9" stroke-width="0.42437"></path><path d="M504.25 97.4128L-26 97.4128" stroke="#D9D9D9" stroke-width="0.42437"></path><path d="M504.25 120.753L-26 120.753" stroke="#D9D9D9" stroke-width="0.42437"></path><path d="M504.25 144.094L-26 144.093" stroke="#D9D9D9" stroke-width="0.42437"></path><path d="M504.25 167.434L-26 167.434" stroke="#D9D9D9" stroke-width="0.42437"></path><path d="M504.25 190.774L-26 190.774" stroke="#D9D9D9" stroke-width="0.42437"></path><path d="M504.25 214.115L-26 214.114" stroke="#D9D9D9" stroke-width="0.42437"></path><path d="M504.25 237.455L-26 237.455" stroke="#D9D9D9" stroke-width="0.42437"></path><path d="M504.25 260.795L-26 260.795" stroke="#D9D9D9" stroke-width="0.42437"></path><path d="M504.25 284.135L-26 284.135" stroke="#D9D9D9" stroke-width="0.42437"></path><path d="M504.25 307.476L-26 307.476" stroke="#D9D9D9" stroke-width="0.42437"></path><path d="M504.25 330.816L-26 330.816" stroke="#D9D9D9" stroke-width="0.42437"></path><path d="M504.25 354.156L-26 354.156" stroke="#D9D9D9" stroke-width="0.42437"></path><path d="M504.25 377.497L-26 377.497" stroke="#D9D9D9" stroke-width="0.42437"></path><path d="M504.25 400.837L-26 400.837" stroke="#D9D9D9" stroke-width="0.42437"></path><path d="M504.25 424.177L-26 424.177" stroke="#D9D9D9" stroke-width="0.42437"></path><path d="M504.25 447.518L-26 447.518" stroke="#D9D9D9" stroke-width="0.42437"></path><path d="M504.25 470.858L-26 470.858" stroke="#D9D9D9" stroke-width="0.42437"></path></g><mask id="path-43-outside-1_2766_876" maskUnits="userSpaceOnUse" x="186.981" y="341.054" width="14" height="63" fill="black"><rect fill="white" x="186.981" y="341.054" width="14" height="63"></rect><path fill-rule="evenodd" clip-rule="evenodd" d="M194.606 342.054H192.95V357.216H187.981V395.811H192.95V402.703H194.606V395.811H199.575V357.216H194.606V342.054Z"></path></mask><path fill-rule="evenodd" clip-rule="evenodd" d="M194.606 342.054H192.95V357.216H187.981V395.811H192.95V402.703H194.606V395.811H199.575V357.216H194.606V342.054Z" fill="url(#paint0_linear_2766_876)"></path><path d="M192.95 342.054V341.404H192.3V342.054H192.95ZM194.606 342.054H195.256V341.404H194.606V342.054ZM192.95 357.216V357.866H193.6V357.216H192.95ZM187.981 357.216V356.566H187.331V357.216H187.981ZM187.981 395.811H187.331V396.461H187.981V395.811ZM192.95 395.811H193.6V395.161H192.95V395.811ZM192.95 402.703H192.3V403.353H192.95V402.703ZM194.606 402.703V403.353H195.256V402.703H194.606ZM194.606 395.811V395.161H193.956V395.811H194.606ZM199.575 395.811V396.461H200.225V395.811H199.575ZM199.575 357.216H200.225V356.566H199.575V357.216ZM194.606 357.216H193.956V357.866H194.606V357.216ZM192.95 342.704H194.606V341.404H192.95V342.704ZM193.6 357.216V342.054H192.3V357.216H193.6ZM187.981 357.866H192.95V356.566H187.981V357.866ZM188.631 395.811V357.216H187.331V395.811H188.631ZM192.95 395.161H187.981V396.461H192.95V395.161ZM193.6 402.703V395.811H192.3V402.703H193.6ZM194.606 402.053H192.95V403.353H194.606V402.053ZM193.956 395.811V402.703H195.256V395.811H193.956ZM199.575 395.161H194.606V396.461H199.575V395.161ZM198.925 357.216V395.811H200.225V357.216H198.925ZM194.606 357.866H199.575V356.566H194.606V357.866ZM193.956 342.054V357.216H195.256V342.054H193.956Z" fill="#3291B0" mask="url(#path-43-outside-1_2766_876)"></path><mask id="path-45-outside-2_2766_876" maskUnits="userSpaceOnUse" x="172.073" y="353.459" width="14" height="50" fill="black"><rect fill="white" x="172.073" y="353.459" width="14" height="50"></rect><path fill-rule="evenodd" clip-rule="evenodd" d="M179.699 354.459H178.042V377.432H173.073V398.874H178.042V402.703H179.699V398.874H184.668V377.432H179.699V354.459Z"></path></mask><path fill-rule="evenodd" clip-rule="evenodd" d="M179.699 354.459H178.042V377.432H173.073V398.874H178.042V402.703H179.699V398.874H184.668V377.432H179.699V354.459Z" fill="url(#paint1_linear_2766_876)"></path><path d="M178.042 354.459V353.809H177.392V354.459H178.042ZM179.699 354.459H180.349V353.809H179.699V354.459ZM178.042 377.432V378.082H178.692V377.432H178.042ZM173.073 377.432V376.782H172.423V377.432H173.073ZM173.073 398.874H172.423V399.524H173.073V398.874ZM178.042 398.874H178.692V398.224H178.042V398.874ZM178.042 402.703H177.392V403.353H178.042V402.703ZM179.699 402.703V403.353H180.349V402.703H179.699ZM179.699 398.874V398.224H179.049V398.874H179.699ZM184.668 398.874V399.524H185.318V398.874H184.668ZM184.668 377.432H185.318V376.782H184.668V377.432ZM179.699 377.432H179.049V378.082H179.699V377.432ZM178.042 355.109H179.699V353.809H178.042V355.109ZM178.692 377.432V354.459H177.392V377.432H178.692ZM173.073 378.082H178.042V376.782H173.073V378.082ZM173.723 398.874V377.432H172.423V398.874H173.723ZM178.042 398.224H173.073V399.524H178.042V398.224ZM178.692 402.703V398.874H177.392V402.703H178.692ZM179.699 402.053H178.042V403.353H179.699V402.053ZM179.049 398.874V402.703H180.349V398.874H179.049ZM184.668 398.224H179.699V399.524H184.668V398.224ZM184.018 377.432V398.874H185.318V377.432H184.018ZM179.699 378.082H184.668V376.782H179.699V378.082ZM179.049 354.459V377.432H180.349V354.459H179.049Z" fill="#3291B0" mask="url(#path-45-outside-2_2766_876)"></path><mask id="path-47-outside-3_2766_876" maskUnits="userSpaceOnUse" x="157.166" y="379.649" width="14" height="37" fill="black"><rect fill="white" x="157.166" y="379.649" width="14" height="37"></rect><path fill-rule="evenodd" clip-rule="evenodd" d="M164.791 380.649H163.135V394.432H158.166V409.595H163.135V415.108H164.791V409.595H169.761V394.432H164.791V380.649Z"></path></mask><path fill-rule="evenodd" clip-rule="evenodd" d="M164.791 380.649H163.135V394.432H158.166V409.595H163.135V415.108H164.791V409.595H169.761V394.432H164.791V380.649Z" fill="url(#paint2_linear_2766_876)"></path><path d="M163.135 380.649V379.999H162.485V380.649H163.135ZM164.791 380.649H165.441V379.999H164.791V380.649ZM163.135 394.432V395.082H163.785V394.432H163.135ZM158.166 394.432V393.782H157.516V394.432H158.166ZM158.166 409.595H157.516V410.245H158.166V409.595ZM163.135 409.595H163.785V408.945H163.135V409.595ZM163.135 415.108H162.485V415.758H163.135V415.108ZM164.791 415.108V415.758H165.441V415.108H164.791ZM164.791 409.595V408.945H164.141V409.595H164.791ZM169.761 409.595V410.245H170.411V409.595H169.761ZM169.761 394.432H170.411V393.782H169.761V394.432ZM164.791 394.432H164.141V395.082H164.791V394.432ZM163.135 381.299H164.791V379.999H163.135V381.299ZM163.785 394.432V380.649H162.485V394.432H163.785ZM158.166 395.082H163.135V393.782H158.166V395.082ZM158.816 409.595V394.432H157.516V409.595H158.816ZM163.135 408.945H158.166V410.245H163.135V408.945ZM163.785 415.108V409.595H162.485V415.108H163.785ZM164.791 414.458H163.135V415.758H164.791V414.458ZM164.141 409.595V415.108H165.441V409.595H164.141ZM169.761 408.945H164.791V410.245H169.761V408.945ZM169.111 394.432V409.595H170.411V394.432H169.111ZM164.791 395.082H169.761V393.782H164.791V395.082ZM164.141 380.649V394.432H165.441V380.649H164.141Z" fill="#3291B0" mask="url(#path-47-outside-3_2766_876)"></path><mask id="path-49-outside-4_2766_876" maskUnits="userSpaceOnUse" x="142.259" y="379.649" width="14" height="49" fill="black"><rect fill="white" x="142.259" y="379.649" width="14" height="49"></rect><path fill-rule="evenodd" clip-rule="evenodd" d="M149.884 380.649H148.228V384.784H143.259V393.054H148.228V427.514H149.884V393.054H154.853V384.784H149.884V380.649Z"></path></mask><path fill-rule="evenodd" clip-rule="evenodd" d="M149.884 380.649H148.228V384.784H143.259V393.054H148.228V427.514H149.884V393.054H154.853V384.784H149.884V380.649Z" fill="url(#paint3_linear_2766_876)"></path><path d="M148.228 380.649V379.999H147.578V380.649H148.228ZM149.884 380.649H150.534V379.999H149.884V380.649ZM148.228 384.784V385.434H148.878V384.784H148.228ZM143.259 384.784V384.134H142.609V384.784H143.259ZM143.259 393.054H142.609V393.704H143.259V393.054ZM148.228 393.054H148.878V392.404H148.228V393.054ZM148.228 427.514H147.578V428.164H148.228V427.514ZM149.884 427.514V428.164H150.534V427.514H149.884ZM149.884 393.054V392.404H149.234V393.054H149.884ZM154.853 393.054V393.704H155.503V393.054H154.853ZM154.853 384.784H155.503V384.134H154.853V384.784ZM149.884 384.784H149.234V385.434H149.884V384.784ZM148.228 381.299H149.884V379.999H148.228V381.299ZM148.878 384.784V380.649H147.578V384.784H148.878ZM143.259 385.434H148.228V384.134H143.259V385.434ZM143.909 393.054V384.784H142.609V393.054H143.909ZM148.228 392.404H143.259V393.704H148.228V392.404ZM148.878 427.514V393.054H147.578V427.514H148.878ZM149.884 426.864H148.228V428.164H149.884V426.864ZM149.234 393.054V427.514H150.534V393.054H149.234ZM154.853 392.404H149.884V393.704H154.853V392.404ZM154.203 384.784V393.054H155.503V384.784H154.203ZM149.884 385.434H154.853V384.134H149.884V385.434ZM149.234 380.649V384.784H150.534V380.649H149.234Z" fill="#3291B0" mask="url(#path-49-outside-4_2766_876)"></path><mask id="path-51-outside-5_2766_876" maskUnits="userSpaceOnUse" x="127.351" y="374.135" width="14" height="49" fill="black"><rect fill="white" x="127.351" y="374.135" width="14" height="49"></rect><path fill-rule="evenodd" clip-rule="evenodd" d="M134.977 375.135H133.32V384.784H128.351V417.865H133.32V422H134.977V417.865H139.946V384.784H134.977V375.135Z"></path></mask><path fill-rule="evenodd" clip-rule="evenodd" d="M134.977 375.135H133.32V384.784H128.351V417.865H133.32V422H134.977V417.865H139.946V384.784H134.977V375.135Z" fill="url(#paint4_linear_2766_876)"></path><path d="M133.32 375.135V374.485H132.67V375.135H133.32ZM134.977 375.135H135.627V374.485H134.977V375.135ZM133.32 384.784V385.434H133.97V384.784H133.32ZM128.351 384.784V384.134H127.701V384.784H128.351ZM128.351 417.865H127.701V418.515H128.351V417.865ZM133.32 417.865H133.97V417.215H133.32V417.865ZM133.32 422H132.67V422.65H133.32V422ZM134.977 422V422.65H135.627V422H134.977ZM134.977 417.865V417.215H134.327V417.865H134.977ZM139.946 417.865V418.515H140.596V417.865H139.946ZM139.946 384.784H140.596V384.134H139.946V384.784ZM134.977 384.784H134.327V385.434H134.977V384.784ZM133.32 375.785H134.977V374.485H133.32V375.785ZM133.97 384.784V375.135H132.67V384.784H133.97ZM128.351 385.434H133.32V384.134H128.351V385.434ZM129.001 417.865V384.784H127.701V417.865H129.001ZM133.32 417.215H128.351V418.515H133.32V417.215ZM133.97 422V417.865H132.67V422H133.97ZM134.977 421.35H133.32V422.65H134.977V421.35ZM134.327 417.865V422H135.627V417.865H134.327ZM139.946 417.215H134.977V418.515H139.946V417.215ZM139.296 384.784V417.865H140.596V384.784H139.296ZM134.977 385.434H139.946V384.134H134.977V385.434ZM134.327 375.135V384.784H135.627V375.135H134.327Z" fill="#3291B0" mask="url(#path-51-outside-5_2766_876)"></path><mask id="path-53-outside-6_2766_876" maskUnits="userSpaceOnUse" x="112.444" y="374.135" width="14" height="64" fill="black"><rect fill="white" x="112.444" y="374.135" width="14" height="64"></rect><path fill-rule="evenodd" clip-rule="evenodd" d="M120.069 375.135H118.413V397.189H113.444V430.27H118.413V437.162H120.069V430.27H125.039V397.189H120.069V375.135Z"></path></mask><path fill-rule="evenodd" clip-rule="evenodd" d="M120.069 375.135H118.413V397.189H113.444V430.27H118.413V437.162H120.069V430.27H125.039V397.189H120.069V375.135Z" fill="url(#paint5_linear_2766_876)"></path><path d="M118.413 375.135V374.485H117.763V375.135H118.413ZM120.069 375.135H120.719V374.485H120.069V375.135ZM118.413 397.189V397.839H119.063V397.189H118.413ZM113.444 397.189V396.539H112.794V397.189H113.444ZM113.444 430.27H112.794V430.92H113.444V430.27ZM118.413 430.27H119.063V429.62H118.413V430.27ZM118.413 437.162H117.763V437.812H118.413V437.162ZM120.069 437.162V437.812H120.719V437.162H120.069ZM120.069 430.27V429.62H119.419V430.27H120.069ZM125.039 430.27V430.92H125.689V430.27H125.039ZM125.039 397.189H125.689V396.539H125.039V397.189ZM120.069 397.189H119.419V397.839H120.069V397.189ZM118.413 375.785H120.069V374.485H118.413V375.785ZM119.063 397.189V375.135H117.763V397.189H119.063ZM113.444 397.839H118.413V396.539H113.444V397.839ZM114.094 430.27V397.189H112.794V430.27H114.094ZM118.413 429.62H113.444V430.92H118.413V429.62ZM119.063 437.162V430.27H117.763V437.162H119.063ZM120.069 436.512H118.413V437.812H120.069V436.512ZM119.419 430.27V437.162H120.719V430.27H119.419ZM125.039 429.62H120.069V430.92H125.039V429.62ZM124.389 397.189V430.27H125.689V397.189H124.389ZM120.069 397.839H125.039V396.539H120.069V397.839ZM119.419 375.135V397.189H120.719V375.135H119.419Z" fill="#3291B0" mask="url(#path-53-outside-6_2766_876)"></path><mask id="path-55-outside-7_2766_876" maskUnits="userSpaceOnUse" x="97.5366" y="389.297" width="14" height="45" fill="black"><rect fill="white" x="97.5366" y="389.297" width="14" height="45"></rect><path fill-rule="evenodd" clip-rule="evenodd" d="M105.162 390.297H103.506V408.216H98.5366V430.27H103.506V433.027H105.162V430.27H110.131V408.216H105.162V390.297Z"></path></mask><path fill-rule="evenodd" clip-rule="evenodd" d="M105.162 390.297H103.506V408.216H98.5366V430.27H103.506V433.027H105.162V430.27H110.131V408.216H105.162V390.297Z" fill="url(#paint6_linear_2766_876)"></path><path d="M103.506 390.297V389.647H102.856V390.297H103.506ZM105.162 390.297H105.812V389.647H105.162V390.297ZM103.506 408.216V408.866H104.156V408.216H103.506ZM98.5366 408.216V407.566H97.8866V408.216H98.5366ZM98.5366 430.27H97.8866V430.92H98.5366V430.27ZM103.506 430.27H104.156V429.62H103.506V430.27ZM103.506 433.027H102.856V433.677H103.506V433.027ZM105.162 433.027V433.677H105.812V433.027H105.162ZM105.162 430.27V429.62H104.512V430.27H105.162ZM110.131 430.27V430.92H110.781V430.27H110.131ZM110.131 408.216H110.781V407.566H110.131V408.216ZM105.162 408.216H104.512V408.866H105.162V408.216ZM103.506 390.947H105.162V389.647H103.506V390.947ZM104.156 408.216V390.297H102.856V408.216H104.156ZM98.5366 408.866H103.506V407.566H98.5366V408.866ZM99.1866 430.27V408.216H97.8866V430.27H99.1866ZM103.506 429.62H98.5366V430.92H103.506V429.62ZM104.156 433.027V430.27H102.856V433.027H104.156ZM105.162 432.377H103.506V433.677H105.162V432.377ZM104.512 430.27V433.027H105.812V430.27H104.512ZM110.131 429.62H105.162V430.92H110.131V429.62ZM109.481 408.216V430.27H110.781V408.216H109.481ZM105.162 408.866H110.131V407.566H105.162V408.866ZM104.512 390.297V408.216H105.812V390.297H104.512Z" fill="#3291B0" mask="url(#path-55-outside-7_2766_876)"></path><mask id="path-57-outside-8_2766_876" maskUnits="userSpaceOnUse" x="82.6294" y="394.811" width="14" height="37" fill="black"><rect fill="white" x="82.6294" y="394.811" width="14" height="37"></rect><path fill-rule="evenodd" clip-rule="evenodd" d="M90.2549 395.811H88.5985V415.108H83.6294V430.27H95.224V415.108H90.2549V395.811Z"></path></mask><path fill-rule="evenodd" clip-rule="evenodd" d="M90.2549 395.811H88.5985V415.108H83.6294V430.27H95.224V415.108H90.2549V395.811Z" fill="url(#paint7_linear_2766_876)"></path><path d="M88.5985 395.811V395.161H87.9485V395.811H88.5985ZM90.2549 395.811H90.9049V395.161H90.2549V395.811ZM88.5985 415.108V415.758H89.2485V415.108H88.5985ZM83.6294 415.108V414.458H82.9794V415.108H83.6294ZM83.6294 430.27H82.9794V430.92H83.6294V430.27ZM95.224 430.27V430.92H95.874V430.27H95.224ZM95.224 415.108H95.874V414.458H95.224V415.108ZM90.2549 415.108H89.6049V415.758H90.2549V415.108ZM88.5985 396.461H90.2549V395.161H88.5985V396.461ZM89.2485 415.108V395.811H87.9485V415.108H89.2485ZM83.6294 415.758H88.5985V414.458H83.6294V415.758ZM84.2794 430.27V415.108H82.9794V430.27H84.2794ZM95.224 429.62H83.6294V430.92H95.224V429.62ZM94.574 415.108V430.27H95.874V415.108H94.574ZM90.2549 415.758H95.224V414.458H90.2549V415.758ZM89.6049 395.811V415.108H90.9049V395.811H89.6049Z" fill="#3291B0" mask="url(#path-57-outside-8_2766_876)"></path><mask id="path-59-outside-9_2766_876" maskUnits="userSpaceOnUse" x="67.722" y="416.865" width="14" height="37" fill="black"><rect fill="white" x="67.722" y="416.865" width="14" height="37"></rect><path fill-rule="evenodd" clip-rule="evenodd" d="M75.3475 417.865H73.6911V422H68.722V433.027H73.6911V452.324H75.3475V433.027H80.3166V422H75.3475V417.865Z"></path></mask><path fill-rule="evenodd" clip-rule="evenodd" d="M75.3475 417.865H73.6911V422H68.722V433.027H73.6911V452.324H75.3475V433.027H80.3166V422H75.3475V417.865Z" fill="url(#paint8_linear_2766_876)"></path><path d="M73.6911 417.865V417.215H73.0411V417.865H73.6911ZM75.3475 417.865H75.9975V417.215H75.3475V417.865ZM73.6911 422V422.65H74.3411V422H73.6911ZM68.722 422V421.35H68.072V422H68.722ZM68.722 433.027H68.072V433.677H68.722V433.027ZM73.6911 433.027H74.3411V432.377H73.6911V433.027ZM73.6911 452.324H73.0411V452.974H73.6911V452.324ZM75.3475 452.324V452.974H75.9975V452.324H75.3475ZM75.3475 433.027V432.377H74.6975V433.027H75.3475ZM80.3166 433.027V433.677H80.9666V433.027H80.3166ZM80.3166 422H80.9666V421.35H80.3166V422ZM75.3475 422H74.6975V422.65H75.3475V422ZM73.6911 418.515H75.3475V417.215H73.6911V418.515ZM74.3411 422V417.865H73.0411V422H74.3411ZM68.722 422.65H73.6911V421.35H68.722V422.65ZM69.372 433.027V422H68.072V433.027H69.372ZM73.6911 432.377H68.722V433.677H73.6911V432.377ZM74.3411 452.324V433.027H73.0411V452.324H74.3411ZM75.3475 451.674H73.6911V452.974H75.3475V451.674ZM74.6975 433.027V452.324H75.9975V433.027H74.6975ZM80.3166 432.377H75.3475V433.677H80.3166V432.377ZM79.6666 422V433.027H80.9666V422H79.6666ZM75.3475 422.65H80.3166V421.35H75.3475V422.65ZM74.6975 417.865V422H75.9975V417.865H74.6975Z" fill="#3291B0" mask="url(#path-59-outside-9_2766_876)"></path><mask id="path-61-outside-10_2766_876" maskUnits="userSpaceOnUse" x="52.8147" y="371.378" width="14" height="78" fill="black"><rect fill="white" x="52.8147" y="371.378" width="14" height="78"></rect><path fill-rule="evenodd" clip-rule="evenodd" d="M65.4093 372.378H53.8147V439.919H58.7838V448.189H60.4402V439.919H65.4093V372.378Z"></path></mask><path fill-rule="evenodd" clip-rule="evenodd" d="M65.4093 372.378H53.8147V439.919H58.7838V448.189H60.4402V439.919H65.4093V372.378Z" fill="url(#paint9_linear_2766_876)"></path><path d="M53.8147 372.378V371.728H53.1647V372.378H53.8147ZM65.4093 372.378H66.0593V371.728H65.4093V372.378ZM53.8147 439.919H53.1647V440.569H53.8147V439.919ZM58.7838 439.919H59.4338V439.269H58.7838V439.919ZM58.7838 448.189H58.1338V448.839H58.7838V448.189ZM60.4402 448.189V448.839H61.0902V448.189H60.4402ZM60.4402 439.919V439.269H59.7902V439.919H60.4402ZM65.4093 439.919V440.569H66.0593V439.919H65.4093ZM53.8147 373.028H65.4093V371.728H53.8147V373.028ZM54.4647 439.919V372.378H53.1647V439.919H54.4647ZM58.7838 439.269H53.8147V440.569H58.7838V439.269ZM59.4338 448.189V439.919H58.1338V448.189H59.4338ZM60.4402 447.539H58.7838V448.839H60.4402V447.539ZM59.7902 439.919V448.189H61.0902V439.919H59.7902ZM65.4093 439.269H60.4402V440.569H65.4093V439.269ZM64.7593 372.378V439.919H66.0593V372.378H64.7593Z" fill="#3291B0" mask="url(#path-61-outside-10_2766_876)"></path><mask id="path-63-outside-11_2766_876" maskUnits="userSpaceOnUse" x="37.9073" y="401.703" width="14" height="56" fill="black"><rect fill="white" x="37.9073" y="401.703" width="14" height="56"></rect><path fill-rule="evenodd" clip-rule="evenodd" d="M45.5328 402.703H43.8765V417.865H38.9073V439.919H43.8765V456.459H45.5328V439.919H50.5019V417.865H45.5328V402.703Z"></path></mask><path fill-rule="evenodd" clip-rule="evenodd" d="M45.5328 402.703H43.8765V417.865H38.9073V439.919H43.8765V456.459H45.5328V439.919H50.5019V417.865H45.5328V402.703Z" fill="url(#paint10_linear_2766_876)"></path><path d="M43.8765 402.703V402.053H43.2265V402.703H43.8765ZM45.5328 402.703H46.1828V402.053H45.5328V402.703ZM43.8765 417.865V418.515H44.5265V417.865H43.8765ZM38.9073 417.865V417.215H38.2573V417.865H38.9073ZM38.9073 439.919H38.2573V440.569H38.9073V439.919ZM43.8765 439.919H44.5265V439.269H43.8765V439.919ZM43.8765 456.459H43.2265V457.109H43.8765V456.459ZM45.5328 456.459V457.109H46.1828V456.459H45.5328ZM45.5328 439.919V439.269H44.8828V439.919H45.5328ZM50.5019 439.919V440.569H51.1519V439.919H50.5019ZM50.5019 417.865H51.1519V417.215H50.5019V417.865ZM45.5328 417.865H44.8828V418.515H45.5328V417.865ZM43.8765 403.353H45.5328V402.053H43.8765V403.353ZM44.5265 417.865V402.703H43.2265V417.865H44.5265ZM38.9073 418.515H43.8765V417.215H38.9073V418.515ZM39.5573 439.919V417.865H38.2573V439.919H39.5573ZM43.8765 439.269H38.9073V440.569H43.8765V439.269ZM44.5265 456.459V439.919H43.2265V456.459H44.5265ZM45.5328 455.809H43.8765V457.109H45.5328V455.809ZM44.8828 439.919V456.459H46.1828V439.919H44.8828ZM50.5019 439.269H45.5328V440.569H50.5019V439.269ZM49.8519 417.865V439.919H51.1519V417.865H49.8519ZM45.5328 418.515H50.5019V417.215H45.5328V418.515ZM44.8828 402.703V417.865H46.1828V402.703H44.8828Z" fill="#3291B0" mask="url(#path-63-outside-11_2766_876)"></path><mask id="path-65-outside-12_2766_876" maskUnits="userSpaceOnUse" x="23" y="422.378" width="14" height="28" fill="black"><rect fill="white" x="23" y="422.378" width="14" height="28"></rect><path fill-rule="evenodd" clip-rule="evenodd" d="M30.6255 423.378H28.9691V430.27H24V439.919H28.9691V449.568H30.6255V439.919H35.5946V430.27H30.6255V423.378Z"></path></mask><path fill-rule="evenodd" clip-rule="evenodd" d="M30.6255 423.378H28.9691V430.27H24V439.919H28.9691V449.568H30.6255V439.919H35.5946V430.27H30.6255V423.378Z" fill="url(#paint11_linear_2766_876)"></path><path d="M28.9691 423.378V422.728H28.3191V423.378H28.9691ZM30.6255 423.378H31.2755V422.728H30.6255V423.378ZM28.9691 430.27V430.92H29.6191V430.27H28.9691ZM24 430.27V429.62H23.35V430.27H24ZM24 439.919H23.35V440.569H24V439.919ZM28.9691 439.919H29.6191V439.269H28.9691V439.919ZM28.9691 449.568H28.3191V450.218H28.9691V449.568ZM30.6255 449.568V450.218H31.2755V449.568H30.6255ZM30.6255 439.919V439.269H29.9755V439.919H30.6255ZM35.5946 439.919V440.569H36.2446V439.919H35.5946ZM35.5946 430.27H36.2446V429.62H35.5946V430.27ZM30.6255 430.27H29.9755V430.92H30.6255V430.27ZM28.9691 424.028H30.6255V422.728H28.9691V424.028ZM29.6191 430.27V423.378H28.3191V430.27H29.6191ZM24 430.92H28.9691V429.62H24V430.92ZM24.65 439.919V430.27H23.35V439.919H24.65ZM28.9691 439.269H24V440.569H28.9691V439.269ZM29.6191 449.568V439.919H28.3191V449.568H29.6191ZM30.6255 448.918H28.9691V450.218H30.6255V448.918ZM29.9755 439.919V449.568H31.2755V439.919H29.9755ZM35.5946 439.269H30.6255V440.569H35.5946V439.269ZM34.9446 430.27V439.919H36.2446V430.27H34.9446ZM30.6255 430.92H35.5946V429.62H30.6255V430.92ZM29.9755 423.378V430.27H31.2755V423.378H29.9755Z" fill="#3291B0" mask="url(#path-65-outside-12_2766_876)"></path><mask id="path-67-outside-13_2766_876" maskUnits="userSpaceOnUse" x="201.888" y="353.459" width="14" height="53" fill="black"><rect fill="white" x="201.888" y="353.459" width="14" height="53"></rect><path fill-rule="evenodd" clip-rule="evenodd" d="M209.514 354.459H207.857V357.216H202.888V395.811H207.857V405.459H209.514V395.811H214.483V357.216H209.514V354.459Z"></path></mask><path fill-rule="evenodd" clip-rule="evenodd" d="M209.514 354.459H207.857V357.216H202.888V395.811H207.857V405.459H209.514V395.811H214.483V357.216H209.514V354.459Z" fill="url(#paint12_linear_2766_876)"></path><path d="M207.857 354.459V353.809H207.207V354.459H207.857ZM209.514 354.459H210.164V353.809H209.514V354.459ZM207.857 357.216V357.866H208.507V357.216H207.857ZM202.888 357.216V356.566H202.238V357.216H202.888ZM202.888 395.811H202.238V396.461H202.888V395.811ZM207.857 395.811H208.507V395.161H207.857V395.811ZM207.857 405.459H207.207V406.109H207.857V405.459ZM209.514 405.459V406.109H210.164V405.459H209.514ZM209.514 395.811V395.161H208.864V395.811H209.514ZM214.483 395.811V396.461H215.133V395.811H214.483ZM214.483 357.216H215.133V356.566H214.483V357.216ZM209.514 357.216H208.864V357.866H209.514V357.216ZM207.857 355.109H209.514V353.809H207.857V355.109ZM208.507 357.216V354.459H207.207V357.216H208.507ZM202.888 357.866H207.857V356.566H202.888V357.866ZM203.538 395.811V357.216H202.238V395.811H203.538ZM207.857 395.161H202.888V396.461H207.857V395.161ZM208.507 405.459V395.811H207.207V405.459H208.507ZM209.514 404.809H207.857V406.109H209.514V404.809ZM208.864 395.811V405.459H210.164V395.811H208.864ZM214.483 395.161H209.514V396.461H214.483V395.161ZM213.833 357.216V395.811H215.133V357.216H213.833ZM209.514 357.866H214.483V356.566H209.514V357.866ZM208.864 354.459V357.216H210.164V354.459H208.864Z" fill="#3291B0" mask="url(#path-67-outside-13_2766_876)"></path><mask id="path-69-outside-14_2766_876" maskUnits="userSpaceOnUse" x="216.795" y="375.514" width="14" height="26" fill="black"><rect fill="white" x="216.795" y="375.514" width="14" height="26"></rect><path fill-rule="evenodd" clip-rule="evenodd" d="M224.421 376.514H222.765V384.784H217.795V393.054H222.765V399.946H224.421V393.054H229.39V384.784H224.421V376.514Z"></path></mask><path fill-rule="evenodd" clip-rule="evenodd" d="M224.421 376.514H222.765V384.784H217.795V393.054H222.765V399.946H224.421V393.054H229.39V384.784H224.421V376.514Z" fill="url(#paint13_linear_2766_876)"></path><path d="M222.765 376.514V375.864H222.115V376.514H222.765ZM224.421 376.514H225.071V375.864H224.421V376.514ZM222.765 384.784V385.434H223.415V384.784H222.765ZM217.795 384.784V384.134H217.145V384.784H217.795ZM217.795 393.054H217.145V393.704H217.795V393.054ZM222.765 393.054H223.415V392.404H222.765V393.054ZM222.765 399.946H222.115V400.596H222.765V399.946ZM224.421 399.946V400.596H225.071V399.946H224.421ZM224.421 393.054V392.404H223.771V393.054H224.421ZM229.39 393.054V393.704H230.04V393.054H229.39ZM229.39 384.784H230.04V384.134H229.39V384.784ZM224.421 384.784H223.771V385.434H224.421V384.784ZM222.765 377.164H224.421V375.864H222.765V377.164ZM223.415 384.784V376.514H222.115V384.784H223.415ZM217.795 385.434H222.765V384.134H217.795V385.434ZM218.445 393.054V384.784H217.145V393.054H218.445ZM222.765 392.404H217.795V393.704H222.765V392.404ZM223.415 399.946V393.054H222.115V399.946H223.415ZM224.421 399.296H222.765V400.596H224.421V399.296ZM223.771 393.054V399.946H225.071V393.054H223.771ZM229.39 392.404H224.421V393.704H229.39V392.404ZM228.74 384.784V393.054H230.04V384.784H228.74ZM224.421 385.434H229.39V384.134H224.421V385.434ZM223.771 376.514V384.784H225.071V376.514H223.771Z" fill="#3291B0" mask="url(#path-69-outside-14_2766_876)"></path><mask id="path-71-outside-15_2766_876" maskUnits="userSpaceOnUse" x="231.703" y="358.973" width="14" height="48" fill="black"><rect fill="white" x="231.703" y="358.973" width="14" height="48"></rect><path fill-rule="evenodd" clip-rule="evenodd" d="M239.328 359.973H237.672V377.892H232.703V388.919H237.672V405.46H239.328V388.919H244.297V377.892H239.328V359.973Z"></path></mask><path fill-rule="evenodd" clip-rule="evenodd" d="M239.328 359.973H237.672V377.892H232.703V388.919H237.672V405.46H239.328V388.919H244.297V377.892H239.328V359.973Z" fill="url(#paint14_linear_2766_876)"></path><path d="M237.672 359.973V359.323H237.022V359.973H237.672ZM239.328 359.973H239.978V359.323H239.328V359.973ZM237.672 377.892V378.542H238.322V377.892H237.672ZM232.703 377.892V377.242H232.053V377.892H232.703ZM232.703 388.919H232.053V389.569H232.703V388.919ZM237.672 388.919H238.322V388.269H237.672V388.919ZM237.672 405.46H237.022V406.11H237.672V405.46ZM239.328 405.46V406.11H239.978V405.46H239.328ZM239.328 388.919V388.269H238.678V388.919H239.328ZM244.297 388.919V389.569H244.947V388.919H244.297ZM244.297 377.892H244.947V377.242H244.297V377.892ZM239.328 377.892H238.678V378.542H239.328V377.892ZM237.672 360.623H239.328V359.323H237.672V360.623ZM238.322 377.892V359.973H237.022V377.892H238.322ZM232.703 378.542H237.672V377.242H232.703V378.542ZM233.353 388.919V377.892H232.053V388.919H233.353ZM237.672 388.269H232.703V389.569H237.672V388.269ZM238.322 405.46V388.919H237.022V405.46H238.322ZM239.328 404.81H237.672V406.11H239.328V404.81ZM238.678 388.919V405.46H239.978V388.919H238.678ZM244.297 388.269H239.328V389.569H244.297V388.269ZM243.647 377.892V388.919H244.947V377.892H243.647ZM239.328 378.542H244.297V377.242H239.328V378.542ZM238.678 359.973V377.892H239.978V359.973H238.678Z" fill="#3291B0" mask="url(#path-71-outside-15_2766_876)"></path><mask id="path-73-outside-16_2766_876" maskUnits="userSpaceOnUse" x="246.61" y="350.703" width="14" height="45" fill="black"><rect fill="white" x="246.61" y="350.703" width="14" height="45"></rect><path fill-rule="evenodd" clip-rule="evenodd" d="M254.236 351.703H252.579V373.757H247.61V383.405H252.579V394.432H254.236V383.405H259.205V373.757H254.236V351.703Z"></path></mask><path fill-rule="evenodd" clip-rule="evenodd" d="M254.236 351.703H252.579V373.757H247.61V383.405H252.579V394.432H254.236V383.405H259.205V373.757H254.236V351.703Z" fill="url(#paint15_linear_2766_876)"></path><path d="M252.579 351.703V351.053H251.929V351.703H252.579ZM254.236 351.703H254.886V351.053H254.236V351.703ZM252.579 373.757V374.407H253.229V373.757H252.579ZM247.61 373.757V373.107H246.96V373.757H247.61ZM247.61 383.405H246.96V384.055H247.61V383.405ZM252.579 383.405H253.229V382.755H252.579V383.405ZM252.579 394.432H251.929V395.082H252.579V394.432ZM254.236 394.432V395.082H254.886V394.432H254.236ZM254.236 383.405V382.755H253.586V383.405H254.236ZM259.205 383.405V384.055H259.855V383.405H259.205ZM259.205 373.757H259.855V373.107H259.205V373.757ZM254.236 373.757H253.586V374.407H254.236V373.757ZM252.579 352.353H254.236V351.053H252.579V352.353ZM253.229 373.757V351.703H251.929V373.757H253.229ZM247.61 374.407H252.579V373.107H247.61V374.407ZM248.26 383.405V373.757H246.96V383.405H248.26ZM252.579 382.755H247.61V384.055H252.579V382.755ZM253.229 394.432V383.405H251.929V394.432H253.229ZM254.236 393.782H252.579V395.082H254.236V393.782ZM253.586 383.405V394.432H254.886V383.405H253.586ZM259.205 382.755H254.236V384.055H259.205V382.755ZM258.555 373.757V383.405H259.855V373.757H258.555ZM254.236 374.407H259.205V373.107H254.236V374.407ZM253.586 351.703V373.757H254.886V351.703H253.586Z" fill="#3291B0" mask="url(#path-73-outside-16_2766_876)"></path><mask id="path-75-outside-17_2766_876" maskUnits="userSpaceOnUse" x="261.517" y="335.541" width="14" height="83" fill="black"><rect fill="white" x="261.517" y="335.541" width="14" height="83"></rect><path fill-rule="evenodd" clip-rule="evenodd" d="M274.112 336.541H262.517V391.676H267.486V417.865H269.143V391.676H274.112V336.541Z"></path></mask><path fill-rule="evenodd" clip-rule="evenodd" d="M274.112 336.541H262.517V391.676H267.486V417.865H269.143V391.676H274.112V336.541Z" fill="url(#paint16_linear_2766_876)"></path><path d="M262.517 336.541V335.891H261.867V336.541H262.517ZM274.112 336.541H274.762V335.891H274.112V336.541ZM262.517 391.676H261.867V392.326H262.517V391.676ZM267.486 391.676H268.136V391.026H267.486V391.676ZM267.486 417.865H266.836V418.515H267.486V417.865ZM269.143 417.865V418.515H269.793V417.865H269.143ZM269.143 391.676V391.026H268.493V391.676H269.143ZM274.112 391.676V392.326H274.762V391.676H274.112ZM262.517 337.191H274.112V335.891H262.517V337.191ZM263.167 391.676V336.541H261.867V391.676H263.167ZM267.486 391.026H262.517V392.326H267.486V391.026ZM268.136 417.865V391.676H266.836V417.865H268.136ZM269.143 417.215H267.486V418.515H269.143V417.215ZM268.493 391.676V417.865H269.793V391.676H268.493ZM274.112 391.026H269.143V392.326H274.112V391.026ZM273.462 336.541V391.676H274.762V336.541H273.462Z" fill="#3291B0" mask="url(#path-75-outside-17_2766_876)"></path><mask id="path-77-outside-18_2766_876" maskUnits="userSpaceOnUse" x="276.425" y="283.162" width="14" height="92" fill="black"><rect fill="white" x="276.425" y="283.162" width="14" height="92"></rect><path fill-rule="evenodd" clip-rule="evenodd" d="M284.05 284.162H282.394V313.108H277.425V373.757H289.019V313.108H284.05V284.162Z"></path></mask><path fill-rule="evenodd" clip-rule="evenodd" d="M284.05 284.162H282.394V313.108H277.425V373.757H289.019V313.108H284.05V284.162Z" fill="url(#paint17_linear_2766_876)"></path><path d="M282.394 284.162V283.512H281.744V284.162H282.394ZM284.05 284.162H284.7V283.512H284.05V284.162ZM282.394 313.108V313.758H283.044V313.108H282.394ZM277.425 313.108V312.458H276.775V313.108H277.425ZM277.425 373.757H276.775V374.407H277.425V373.757ZM289.019 373.757V374.407H289.669V373.757H289.019ZM289.019 313.108H289.669V312.458H289.019V313.108ZM284.05 313.108H283.4V313.758H284.05V313.108ZM282.394 284.812H284.05V283.512H282.394V284.812ZM283.044 313.108V284.162H281.744V313.108H283.044ZM277.425 313.758H282.394V312.458H277.425V313.758ZM278.075 373.757V313.108H276.775V373.757H278.075ZM289.019 373.107H277.425V374.407H289.019V373.107ZM288.369 313.108V373.757H289.669V313.108H288.369ZM284.05 313.758H289.019V312.458H284.05V313.758ZM283.4 284.162V313.108H284.7V284.162H283.4Z" fill="#3291B0" mask="url(#path-77-outside-18_2766_876)"></path><mask id="path-79-outside-19_2766_876" maskUnits="userSpaceOnUse" x="291.332" y="285.919" width="14" height="45" fill="black"><rect fill="white" x="291.332" y="285.919" width="14" height="45"></rect><path fill-rule="evenodd" clip-rule="evenodd" d="M298.958 286.919H297.301V288.297H292.332V326.892H297.301V329.649H298.958V326.892H303.927V288.297H298.958V286.919Z"></path></mask><path fill-rule="evenodd" clip-rule="evenodd" d="M298.958 286.919H297.301V288.297H292.332V326.892H297.301V329.649H298.958V326.892H303.927V288.297H298.958V286.919Z" fill="url(#paint18_linear_2766_876)"></path><path d="M297.301 286.919V286.269H296.651V286.919H297.301ZM298.958 286.919H299.608V286.269H298.958V286.919ZM297.301 288.297V288.947H297.951V288.297H297.301ZM292.332 288.297V287.647H291.682V288.297H292.332ZM292.332 326.892H291.682V327.542H292.332V326.892ZM297.301 326.892H297.951V326.242H297.301V326.892ZM297.301 329.649H296.651V330.299H297.301V329.649ZM298.958 329.649V330.299H299.608V329.649H298.958ZM298.958 326.892V326.242H298.308V326.892H298.958ZM303.927 326.892V327.542H304.577V326.892H303.927ZM303.927 288.297H304.577V287.647H303.927V288.297ZM298.958 288.297H298.308V288.947H298.958V288.297ZM297.301 287.569H298.958V286.269H297.301V287.569ZM297.951 288.297V286.919H296.651V288.297H297.951ZM292.332 288.947H297.301V287.647H292.332V288.947ZM292.982 326.892V288.297H291.682V326.892H292.982ZM297.301 326.242H292.332V327.542H297.301V326.242ZM297.951 329.649V326.892H296.651V329.649H297.951ZM298.958 328.999H297.301V330.299H298.958V328.999ZM298.308 326.892V329.649H299.608V326.892H298.308ZM303.927 326.242H298.958V327.542H303.927V326.242ZM303.277 288.297V326.892H304.577V288.297H303.277ZM298.958 288.947H303.927V287.647H298.958V288.947ZM298.308 286.919V288.297H299.608V286.919H298.308Z" fill="#3291B0" mask="url(#path-79-outside-19_2766_876)"></path><mask id="path-81-outside-20_2766_876" maskUnits="userSpaceOnUse" x="306.239" y="291.432" width="14" height="49" fill="black"><rect fill="white" x="306.239" y="291.432" width="14" height="49"></rect><path fill-rule="evenodd" clip-rule="evenodd" d="M318.834 292.432H307.239V326.892H312.208V339.297H313.865V326.892H318.834V292.432Z"></path></mask><path fill-rule="evenodd" clip-rule="evenodd" d="M318.834 292.432H307.239V326.892H312.208V339.297H313.865V326.892H318.834V292.432Z" fill="url(#paint19_linear_2766_876)"></path><path d="M307.239 292.432V291.782H306.589V292.432H307.239ZM318.834 292.432H319.484V291.782H318.834V292.432ZM307.239 326.892H306.589V327.542H307.239V326.892ZM312.208 326.892H312.858V326.242H312.208V326.892ZM312.208 339.297H311.558V339.947H312.208V339.297ZM313.865 339.297V339.947H314.515V339.297H313.865ZM313.865 326.892V326.242H313.215V326.892H313.865ZM318.834 326.892V327.542H319.484V326.892H318.834ZM307.239 293.082H318.834V291.782H307.239V293.082ZM307.889 326.892V292.432H306.589V326.892H307.889ZM312.208 326.242H307.239V327.542H312.208V326.242ZM312.858 339.297V326.892H311.558V339.297H312.858ZM313.865 338.647H312.208V339.947H313.865V338.647ZM313.215 326.892V339.297H314.515V326.892H313.215ZM318.834 326.242H313.865V327.542H318.834V326.242ZM318.184 292.432V326.892H319.484V292.432H318.184Z" fill="#3291B0" mask="url(#path-81-outside-20_2766_876)"></path><mask id="path-83-outside-21_2766_876" maskUnits="userSpaceOnUse" x="321.147" y="307.973" width="14" height="45" fill="black"><rect fill="white" x="321.147" y="307.973" width="14" height="45"></rect><path fill-rule="evenodd" clip-rule="evenodd" d="M327.116 308.973H322.147V326.892H327.116V351.703H328.772V326.892H333.741V308.973H328.772H327.116Z"></path></mask><path fill-rule="evenodd" clip-rule="evenodd" d="M327.116 308.973H322.147V326.892H327.116V351.703H328.772V326.892H333.741V308.973H328.772H327.116Z" fill="url(#paint20_linear_2766_876)"></path><path d="M322.147 308.973V308.323H321.497V308.973H322.147ZM322.147 326.892H321.497V327.542H322.147V326.892ZM327.116 326.892H327.766V326.242H327.116V326.892ZM327.116 351.703H326.466V352.353H327.116V351.703ZM328.772 351.703V352.353H329.422V351.703H328.772ZM328.772 326.892V326.242H328.122V326.892H328.772ZM333.741 326.892V327.542H334.391V326.892H333.741ZM333.741 308.973H334.391V308.323H333.741V308.973ZM322.147 309.623H327.116V308.323H322.147V309.623ZM322.797 326.892V308.973H321.497V326.892H322.797ZM327.116 326.242H322.147V327.542H327.116V326.242ZM327.766 351.703V326.892H326.466V351.703H327.766ZM328.772 351.053H327.116V352.353H328.772V351.053ZM328.122 326.892V351.703H329.422V326.892H328.122ZM333.741 326.242H328.772V327.542H333.741V326.242ZM333.091 308.973V326.892H334.391V308.973H333.091ZM328.772 309.623H333.741V308.323H328.772V309.623ZM327.116 309.623H328.772V308.323H327.116V309.623Z" fill="#3291B0" mask="url(#path-83-outside-21_2766_876)"></path><mask id="path-85-outside-22_2766_876" maskUnits="userSpaceOnUse" x="336.054" y="244.568" width="14" height="81" fill="black"><rect fill="white" x="336.054" y="244.568" width="14" height="81"></rect><path fill-rule="evenodd" clip-rule="evenodd" d="M343.68 245.568H342.023V249.703H337.054V308.973H342.023V324.135H343.68V308.973H348.649V249.703H343.68V245.568Z"></path></mask><path fill-rule="evenodd" clip-rule="evenodd" d="M343.68 245.568H342.023V249.703H337.054V308.973H342.023V324.135H343.68V308.973H348.649V249.703H343.68V245.568Z" fill="url(#paint21_linear_2766_876)"></path><path d="M342.023 245.568V244.918H341.373V245.568H342.023ZM343.68 245.568H344.33V244.918H343.68V245.568ZM342.023 249.703V250.353H342.673V249.703H342.023ZM337.054 249.703V249.053H336.404V249.703H337.054ZM337.054 308.973H336.404V309.623H337.054V308.973ZM342.023 308.973H342.673V308.323H342.023V308.973ZM342.023 324.135H341.373V324.785H342.023V324.135ZM343.68 324.135V324.785H344.33V324.135H343.68ZM343.68 308.973V308.323H343.03V308.973H343.68ZM348.649 308.973V309.623H349.299V308.973H348.649ZM348.649 249.703H349.299V249.053H348.649V249.703ZM343.68 249.703H343.03V250.353H343.68V249.703ZM342.023 246.218H343.68V244.918H342.023V246.218ZM342.673 249.703V245.568H341.373V249.703H342.673ZM337.054 250.353H342.023V249.053H337.054V250.353ZM337.704 308.973V249.703H336.404V308.973H337.704ZM342.023 308.323H337.054V309.623H342.023V308.323ZM342.673 324.135V308.973H341.373V324.135H342.673ZM343.68 323.485H342.023V324.785H343.68V323.485ZM343.03 308.973V324.135H344.33V308.973H343.03ZM348.649 308.323H343.68V309.623H348.649V308.323ZM347.999 249.703V308.973H349.299V249.703H347.999ZM343.68 250.353H348.649V249.053H343.68V250.353ZM343.03 245.568V249.703H344.33V245.568H343.03Z" fill="#3291B0" mask="url(#path-85-outside-22_2766_876)"></path><mask id="path-87-outside-23_2766_876" maskUnits="userSpaceOnUse" x="350.961" y="212.865" width="14" height="53" fill="black"><rect fill="white" x="350.961" y="212.865" width="14" height="53"></rect><path fill-rule="evenodd" clip-rule="evenodd" d="M358.587 213.865H356.931V220.757H351.961V249.703H356.931V264.865H358.587V249.703H363.556V220.757H358.587V213.865Z"></path></mask><path fill-rule="evenodd" clip-rule="evenodd" d="M358.587 213.865H356.931V220.757H351.961V249.703H356.931V264.865H358.587V249.703H363.556V220.757H358.587V213.865Z" fill="url(#paint22_linear_2766_876)"></path><path d="M356.931 213.865V213.215H356.281V213.865H356.931ZM358.587 213.865H359.237V213.215H358.587V213.865ZM356.931 220.757V221.407H357.581V220.757H356.931ZM351.961 220.757V220.107H351.311V220.757H351.961ZM351.961 249.703H351.311V250.353H351.961V249.703ZM356.931 249.703H357.581V249.053H356.931V249.703ZM356.931 264.865H356.281V265.515H356.931V264.865ZM358.587 264.865V265.515H359.237V264.865H358.587ZM358.587 249.703V249.053H357.937V249.703H358.587ZM363.556 249.703V250.353H364.206V249.703H363.556ZM363.556 220.757H364.206V220.107H363.556V220.757ZM358.587 220.757H357.937V221.407H358.587V220.757ZM356.931 214.515H358.587V213.215H356.931V214.515ZM357.581 220.757V213.865H356.281V220.757H357.581ZM351.961 221.407H356.931V220.107H351.961V221.407ZM352.611 249.703V220.757H351.311V249.703H352.611ZM356.931 249.053H351.961V250.353H356.931V249.053ZM357.581 264.865V249.703H356.281V264.865H357.581ZM358.587 264.215H356.931V265.515H358.587V264.215ZM357.937 249.703V264.865H359.237V249.703H357.937ZM363.556 249.053H358.587V250.353H363.556V249.053ZM362.906 220.757V249.703H364.206V220.757H362.906ZM358.587 221.407H363.556V220.107H358.587V221.407ZM357.937 213.865V220.757H359.237V213.865H357.937Z" fill="#3291B0" mask="url(#path-87-outside-23_2766_876)"></path><mask id="path-89-outside-24_2766_876" maskUnits="userSpaceOnUse" x="365.869" y="196.324" width="14" height="39" fill="black"><rect fill="white" x="365.869" y="196.324" width="14" height="39"></rect><path fill-rule="evenodd" clip-rule="evenodd" d="M373.494 197.324H371.838V205.595H366.869V218H371.838V234.541H373.494V218H378.463V205.595H373.494V197.324Z"></path></mask><path fill-rule="evenodd" clip-rule="evenodd" d="M373.494 197.324H371.838V205.595H366.869V218H371.838V234.541H373.494V218H378.463V205.595H373.494V197.324Z" fill="url(#paint23_linear_2766_876)"></path><path d="M371.838 197.324V196.674H371.188V197.324H371.838ZM373.494 197.324H374.144V196.674H373.494V197.324ZM371.838 205.595V206.245H372.488V205.595H371.838ZM366.869 205.595V204.945H366.219V205.595H366.869ZM366.869 218H366.219V218.65H366.869V218ZM371.838 218H372.488V217.35H371.838V218ZM371.838 234.541H371.188V235.191H371.838V234.541ZM373.494 234.541V235.191H374.144V234.541H373.494ZM373.494 218V217.35H372.844V218H373.494ZM378.463 218V218.65H379.113V218H378.463ZM378.463 205.595H379.113V204.945H378.463V205.595ZM373.494 205.595H372.844V206.245H373.494V205.595ZM371.838 197.974H373.494V196.674H371.838V197.974ZM372.488 205.595V197.324H371.188V205.595H372.488ZM366.869 206.245H371.838V204.945H366.869V206.245ZM367.519 218V205.595H366.219V218H367.519ZM371.838 217.35H366.869V218.65H371.838V217.35ZM372.488 234.541V218H371.188V234.541H372.488ZM373.494 233.891H371.838V235.191H373.494V233.891ZM372.844 218V234.541H374.144V218H372.844ZM378.463 217.35H373.494V218.65H378.463V217.35ZM377.813 205.595V218H379.113V205.595H377.813ZM373.494 206.245H378.463V204.945H373.494V206.245ZM372.844 197.324V205.595H374.144V197.324H372.844Z" fill="#3291B0" mask="url(#path-89-outside-24_2766_876)"></path><mask id="path-91-outside-25_2766_876" maskUnits="userSpaceOnUse" x="380.776" y="192.189" width="14" height="23" fill="black"><rect fill="white" x="380.776" y="192.189" width="14" height="23"></rect><path fill-rule="evenodd" clip-rule="evenodd" d="M388.402 193.189H386.745V201.459H381.776V208.351H386.745V213.865H388.402V208.351H393.371V201.459H388.402V193.189Z"></path></mask><path fill-rule="evenodd" clip-rule="evenodd" d="M388.402 193.189H386.745V201.459H381.776V208.351H386.745V213.865H388.402V208.351H393.371V201.459H388.402V193.189Z" fill="url(#paint24_linear_2766_876)"></path><path d="M386.745 193.189V192.539H386.095V193.189H386.745ZM388.402 193.189H389.052V192.539H388.402V193.189ZM386.745 201.459V202.109H387.395V201.459H386.745ZM381.776 201.459V200.809H381.126V201.459H381.776ZM381.776 208.351H381.126V209.001H381.776V208.351ZM386.745 208.351H387.395V207.701H386.745V208.351ZM386.745 213.865H386.095V214.515H386.745V213.865ZM388.402 213.865V214.515H389.052V213.865H388.402ZM388.402 208.351V207.701H387.752V208.351H388.402ZM393.371 208.351V209.001H394.021V208.351H393.371ZM393.371 201.459H394.021V200.809H393.371V201.459ZM388.402 201.459H387.752V202.109H388.402V201.459ZM386.745 193.839H388.402V192.539H386.745V193.839ZM387.395 201.459V193.189H386.095V201.459H387.395ZM381.776 202.109H386.745V200.809H381.776V202.109ZM382.426 208.351V201.459H381.126V208.351H382.426ZM386.745 207.701H381.776V209.001H386.745V207.701ZM387.395 213.865V208.351H386.095V213.865H387.395ZM388.402 213.215H386.745V214.515H388.402V213.215ZM387.752 208.351V213.865H389.052V208.351H387.752ZM393.371 207.701H388.402V209.001H393.371V207.701ZM392.721 201.459V208.351H394.021V201.459H392.721ZM388.402 202.109H393.371V200.809H388.402V202.109ZM387.752 193.189V201.459H389.052V193.189H387.752Z" fill="#3291B0" mask="url(#path-91-outside-25_2766_876)"></path><mask id="path-93-outside-26_2766_876" maskUnits="userSpaceOnUse" x="395.683" y="200.459" width="14" height="26" fill="black"><rect fill="white" x="395.683" y="200.459" width="14" height="26"></rect><path fill-rule="evenodd" clip-rule="evenodd" d="M408.278 201.459H396.683V211.108H401.652V224.892H403.309V211.108H408.278V201.459Z"></path></mask><path fill-rule="evenodd" clip-rule="evenodd" d="M408.278 201.459H396.683V211.108H401.652V224.892H403.309V211.108H408.278V201.459Z" fill="url(#paint25_linear_2766_876)"></path><path d="M396.683 201.459V200.809H396.033V201.459H396.683ZM408.278 201.459H408.928V200.809H408.278V201.459ZM396.683 211.108H396.033V211.758H396.683V211.108ZM401.652 211.108H402.302V210.458H401.652V211.108ZM401.652 224.892H401.002V225.542H401.652V224.892ZM403.309 224.892V225.542H403.959V224.892H403.309ZM403.309 211.108V210.458H402.659V211.108H403.309ZM408.278 211.108V211.758H408.928V211.108H408.278ZM396.683 202.109H408.278V200.809H396.683V202.109ZM397.333 211.108V201.459H396.033V211.108H397.333ZM401.652 210.458H396.683V211.758H401.652V210.458ZM402.302 224.892V211.108H401.002V224.892H402.302ZM403.309 224.242H401.652V225.542H403.309V224.242ZM402.659 211.108V224.892H403.959V211.108H402.659ZM408.278 210.458H403.309V211.758H408.278V210.458ZM407.628 201.459V211.108H408.928V201.459H407.628Z" fill="#3291B0" mask="url(#path-93-outside-26_2766_876)"></path><mask id="path-95-outside-27_2766_876" maskUnits="userSpaceOnUse" x="410.591" y="126.027" width="14" height="100" fill="black"><rect fill="white" x="410.591" y="126.027" width="14" height="100"></rect><path fill-rule="evenodd" clip-rule="evenodd" d="M418.216 127.027H416.56V143.568H411.591V211.108H416.56V224.892H418.216V211.108H423.185V143.568H418.216V127.027Z"></path></mask><path fill-rule="evenodd" clip-rule="evenodd" d="M418.216 127.027H416.56V143.568H411.591V211.108H416.56V224.892H418.216V211.108H423.185V143.568H418.216V127.027Z" fill="url(#paint26_linear_2766_876)"></path><path d="M416.56 127.027V126.377H415.91V127.027H416.56ZM418.216 127.027H418.866V126.377H418.216V127.027ZM416.56 143.568V144.218H417.21V143.568H416.56ZM411.591 143.568V142.918H410.941V143.568H411.591ZM411.591 211.108H410.941V211.758H411.591V211.108ZM416.56 211.108H417.21V210.458H416.56V211.108ZM416.56 224.892H415.91V225.542H416.56V224.892ZM418.216 224.892V225.542H418.866V224.892H418.216ZM418.216 211.108V210.458H417.566V211.108H418.216ZM423.185 211.108V211.758H423.835V211.108H423.185ZM423.185 143.568H423.835V142.918H423.185V143.568ZM418.216 143.568H417.566V144.218H418.216V143.568ZM416.56 127.677H418.216V126.377H416.56V127.677ZM417.21 143.568V127.027H415.91V143.568H417.21ZM411.591 144.218H416.56V142.918H411.591V144.218ZM412.241 211.108V143.568H410.941V211.108H412.241ZM416.56 210.458H411.591V211.758H416.56V210.458ZM417.21 224.892V211.108H415.91V224.892H417.21ZM418.216 224.242H416.56V225.542H418.216V224.242ZM417.566 211.108V224.892H418.866V211.108H417.566ZM423.185 210.458H418.216V211.758H423.185V210.458ZM422.535 143.568V211.108H423.835V143.568H422.535ZM418.216 144.218H423.185V142.918H418.216V144.218ZM417.566 127.027V143.568H418.866V127.027H417.566Z" fill="#3291B0" mask="url(#path-95-outside-27_2766_876)"></path><mask id="path-97-outside-28_2766_876" maskUnits="userSpaceOnUse" x="425.498" y="92.9459" width="14" height="67" fill="black"><rect fill="white" x="425.498" y="92.9459" width="14" height="67"></rect><path fill-rule="evenodd" clip-rule="evenodd" d="M433.124 93.9459H431.467V103.595H426.498V143.568H431.467V158.73H433.124V143.568H438.093V103.595H433.124V93.9459Z"></path></mask><path fill-rule="evenodd" clip-rule="evenodd" d="M433.124 93.9459H431.467V103.595H426.498V143.568H431.467V158.73H433.124V143.568H438.093V103.595H433.124V93.9459Z" fill="url(#paint27_linear_2766_876)"></path><path d="M431.467 93.9459V93.2959H430.817V93.9459H431.467ZM433.124 93.9459H433.774V93.2959H433.124V93.9459ZM431.467 103.595V104.245H432.117V103.595H431.467ZM426.498 103.595V102.945H425.848V103.595H426.498ZM426.498 143.568H425.848V144.218H426.498V143.568ZM431.467 143.568H432.117V142.918H431.467V143.568ZM431.467 158.73H430.817V159.38H431.467V158.73ZM433.124 158.73V159.38H433.774V158.73H433.124ZM433.124 143.568V142.918H432.474V143.568H433.124ZM438.093 143.568V144.218H438.743V143.568H438.093ZM438.093 103.595H438.743V102.945H438.093V103.595ZM433.124 103.595H432.474V104.245H433.124V103.595ZM431.467 94.5959H433.124V93.2959H431.467V94.5959ZM432.117 103.595V93.9459H430.817V103.595H432.117ZM426.498 104.245H431.467V102.945H426.498V104.245ZM427.148 143.568V103.595H425.848V143.568H427.148ZM431.467 142.918H426.498V144.218H431.467V142.918ZM432.117 158.73V143.568H430.817V158.73H432.117ZM433.124 158.08H431.467V159.38H433.124V158.08ZM432.474 143.568V158.73H433.774V143.568H432.474ZM438.093 142.918H433.124V144.218H438.093V142.918ZM437.443 103.595V143.568H438.743V103.595H437.443ZM433.124 104.245H438.093V102.945H433.124V104.245ZM432.474 93.9459V103.595H433.774V93.9459H432.474Z" fill="#3291B0" mask="url(#path-97-outside-28_2766_876)"></path><mask id="path-99-outside-29_2766_876" maskUnits="userSpaceOnUse" x="440.405" y="64" width="14" height="67" fill="black"><rect fill="white" x="440.405" y="64" width="14" height="67"></rect><path fill-rule="evenodd" clip-rule="evenodd" d="M448.031 65H446.375V84.2973H441.405V124.27H446.375V129.784H448.031V124.27H453V84.2973H448.031V65Z"></path></mask><path fill-rule="evenodd" clip-rule="evenodd" d="M448.031 65H446.375V84.2973H441.405V124.27H446.375V129.784H448.031V124.27H453V84.2973H448.031V65Z" fill="url(#paint28_linear_2766_876)"></path><path d="M446.375 65V64.35H445.725V65H446.375ZM448.031 65H448.681V64.35H448.031V65ZM446.375 84.2973V84.9473H447.025V84.2973H446.375ZM441.405 84.2973V83.6473H440.755V84.2973H441.405ZM441.405 124.27H440.755V124.92H441.405V124.27ZM446.375 124.27H447.025V123.62H446.375V124.27ZM446.375 129.784H445.725V130.434H446.375V129.784ZM448.031 129.784V130.434H448.681V129.784H448.031ZM448.031 124.27V123.62H447.381V124.27H448.031ZM453 124.27V124.92H453.65V124.27H453ZM453 84.2973H453.65V83.6473H453V84.2973ZM448.031 84.2973H447.381V84.9473H448.031V84.2973ZM446.375 65.65H448.031V64.35H446.375V65.65ZM447.025 84.2973V65H445.725V84.2973H447.025ZM441.405 84.9473H446.375V83.6473H441.405V84.9473ZM442.055 124.27V84.2973H440.755V124.27H442.055ZM446.375 123.62H441.405V124.92H446.375V123.62ZM447.025 129.784V124.27H445.725V129.784H447.025ZM448.031 129.134H446.375V130.434H448.031V129.134ZM447.381 124.27V129.784H448.681V124.27H447.381ZM453 123.62H448.031V124.92H453V123.62ZM452.35 84.2973V124.27H453.65V84.2973H452.35ZM448.031 84.9473H453V83.6473H448.031V84.9473ZM447.381 65V84.2973H448.681V65H447.381Z" fill="#3291B0" mask="url(#path-99-outside-29_2766_876)"></path><rect x="1" y="360" width="476" height="139" fill="url(#paint29_linear_2766_876)"></rect><path opacity="0.4" d="M-9 443H486.5" stroke="#176B87" stroke-dasharray="6 6"></path><path opacity="0.4" d="M-9 354H486.5" stroke="#176B87" stroke-dasharray="6 6"></path><path opacity="0.4" d="M-9 144H486.5" stroke="#176B87" stroke-dasharray="6 6"></path><g filter="url(#filter0_d_2766_876)"><rect x="24" y="28" width="85" height="30" rx="15" fill="url(#paint30_linear_2766_876)" shape-rendering="crispEdges"></rect><rect x="24.3" y="28.3" width="84.4" height="29.4" rx="14.7" stroke="#176B87" stroke-width="0.6" shape-rendering="crispEdges"></rect><path d="M50.712 39.668H47.88V47H46.524V39.668H43.68V38.48H50.712V39.668ZM51.8545 47V38.492H53.1985V42.872L57.2065 38.48H58.6945L55.3345 42.248L58.8865 47H57.3625L54.4825 43.1L53.1985 44.432V47H51.8545ZM61.1204 40.976V47H59.7764V38.48H60.8804L65.7044 44.636V38.492H67.0604V47H65.8844L61.1204 40.976ZM68.9756 47V38.48H72.5516C72.9356 38.48 73.2876 38.56 73.6076 38.72C73.9276 38.88 74.2076 39.092 74.4476 39.356C74.6876 39.62 74.8716 39.916 74.9996 40.244C75.1276 40.572 75.1916 40.908 75.1916 41.252C75.1916 41.724 75.0836 42.176 74.8676 42.608C74.6596 43.032 74.3596 43.376 73.9676 43.64C73.5836 43.904 73.1356 44.036 72.6236 44.036H70.3196V47H68.9756ZM70.3196 42.848H72.5396C72.7956 42.848 73.0196 42.78 73.2116 42.644C73.4036 42.5 73.5516 42.308 73.6556 42.068C73.7676 41.828 73.8236 41.556 73.8236 41.252C73.8236 40.94 73.7596 40.664 73.6316 40.424C73.5036 40.184 73.3356 40 73.1276 39.872C72.9276 39.736 72.7076 39.668 72.4676 39.668H70.3196V42.848ZM76.4522 47V38.48H77.7962V45.812H82.3682V47H76.4522ZM88.4347 39.668H85.6027V47H84.2467V39.668H81.4027V38.48H88.4347V39.668Z" fill="white"></path></g><g filter="url(#filter1_d_2766_876)"><rect x="317" y="28" width="137" height="30" rx="15" fill="url(#paint31_linear_2766_876)" shape-rendering="crispEdges"></rect><rect x="317.3" y="28.3" width="136.4" height="29.4" rx="14.7" stroke="#176B87" stroke-width="0.6" shape-rendering="crispEdges"></rect><path d="M338.46 47V38.48H342.036C342.42 38.48 342.772 38.56 343.092 38.72C343.412 38.88 343.692 39.092 343.932 39.356C344.172 39.62 344.356 39.916 344.484 40.244C344.612 40.572 344.676 40.908 344.676 41.252C344.676 41.724 344.568 42.176 344.352 42.608C344.144 43.032 343.844 43.376 343.452 43.64C343.068 43.904 342.62 44.036 342.108 44.036H339.804V47H338.46ZM339.804 42.848H342.024C342.28 42.848 342.504 42.78 342.696 42.644C342.888 42.5 343.036 42.308 343.14 42.068C343.252 41.828 343.308 41.556 343.308 41.252C343.308 40.94 343.244 40.664 343.116 40.424C342.988 40.184 342.82 40 342.612 39.872C342.412 39.736 342.192 39.668 341.952 39.668H339.804V42.848ZM345.242 45.164C345.242 44.764 345.354 44.416 345.578 44.12C345.81 43.816 346.126 43.584 346.526 43.424C346.926 43.256 347.39 43.172 347.918 43.172C348.198 43.172 348.482 43.192 348.77 43.232C349.066 43.272 349.326 43.336 349.55 43.424V43.028C349.55 42.588 349.418 42.244 349.154 41.996C348.89 41.748 348.51 41.624 348.014 41.624C347.662 41.624 347.33 41.688 347.018 41.816C346.706 41.936 346.374 42.108 346.022 42.332L345.578 41.444C345.994 41.164 346.41 40.956 346.826 40.82C347.25 40.684 347.694 40.616 348.158 40.616C348.998 40.616 349.658 40.84 350.138 41.288C350.626 41.728 350.87 42.356 350.87 43.172V45.512C350.87 45.664 350.894 45.772 350.942 45.836C350.998 45.9 351.09 45.936 351.218 45.944V47C351.098 47.024 350.99 47.04 350.894 47.048C350.798 47.056 350.718 47.06 350.654 47.06C350.374 47.06 350.162 46.992 350.018 46.856C349.874 46.72 349.79 46.56 349.766 46.376L349.73 46.016C349.458 46.368 349.11 46.64 348.686 46.832C348.262 47.024 347.834 47.12 347.402 47.12C346.986 47.12 346.614 47.036 346.286 46.868C345.958 46.692 345.702 46.456 345.518 46.16C345.334 45.864 345.242 45.532 345.242 45.164ZM349.238 45.548C349.334 45.444 349.41 45.34 349.466 45.236C349.522 45.132 349.55 45.04 349.55 44.96V44.24C349.326 44.152 349.09 44.088 348.842 44.048C348.594 44 348.35 43.976 348.11 43.976C347.63 43.976 347.238 44.072 346.934 44.264C346.638 44.456 346.49 44.72 346.49 45.056C346.49 45.24 346.538 45.416 346.634 45.584C346.738 45.752 346.882 45.888 347.066 45.992C347.258 46.096 347.494 46.148 347.774 46.148C348.062 46.148 348.338 46.092 348.602 45.98C348.866 45.868 349.078 45.724 349.238 45.548ZM354.704 47.12C354.176 47.12 353.676 47.036 353.204 46.868C352.732 46.692 352.328 46.432 351.992 46.088L352.484 45.2C352.844 45.52 353.204 45.752 353.564 45.896C353.932 46.04 354.296 46.112 354.656 46.112C355.024 46.112 355.324 46.044 355.556 45.908C355.788 45.764 355.904 45.556 355.904 45.284C355.904 45.084 355.844 44.936 355.724 44.84C355.604 44.744 355.428 44.66 355.196 44.588C354.972 44.516 354.7 44.436 354.38 44.348C353.932 44.212 353.556 44.072 353.252 43.928C352.948 43.776 352.72 43.592 352.568 43.376C352.416 43.16 352.34 42.884 352.34 42.548C352.34 42.14 352.444 41.792 352.652 41.504C352.86 41.216 353.148 40.996 353.516 40.844C353.892 40.692 354.324 40.616 354.812 40.616C355.268 40.616 355.688 40.688 356.072 40.832C356.464 40.968 356.808 41.184 357.104 41.48L356.54 42.356C356.26 42.1 355.972 41.912 355.676 41.792C355.388 41.672 355.076 41.612 354.74 41.612C354.548 41.612 354.364 41.636 354.188 41.684C354.012 41.724 353.864 41.804 353.744 41.924C353.632 42.036 353.576 42.196 353.576 42.404C353.576 42.572 353.624 42.708 353.72 42.812C353.816 42.916 353.96 43.004 354.152 43.076C354.344 43.148 354.58 43.228 354.86 43.316C355.348 43.46 355.764 43.604 356.108 43.748C356.452 43.884 356.716 44.064 356.9 44.288C357.092 44.504 357.188 44.804 357.188 45.188C357.188 45.796 356.96 46.272 356.504 46.616C356.056 46.952 355.456 47.12 354.704 47.12ZM361.847 46.676C361.735 46.732 361.595 46.792 361.427 46.856C361.259 46.92 361.067 46.976 360.851 47.024C360.643 47.072 360.427 47.096 360.203 47.096C359.931 47.096 359.679 47.048 359.447 46.952C359.215 46.856 359.027 46.704 358.883 46.496C358.747 46.28 358.679 46.004 358.679 45.668V41.744H357.851V40.724H358.679V38.66H359.999V40.724H361.367V41.744H359.999V45.248C360.015 45.464 360.083 45.624 360.203 45.728C360.331 45.832 360.487 45.884 360.671 45.884C360.855 45.884 361.031 45.852 361.199 45.788C361.367 45.724 361.491 45.672 361.571 45.632L361.847 46.676ZM365.342 43.1C365.342 42.556 365.478 42.06 365.75 41.612C366.022 41.164 366.39 40.808 366.854 40.544C367.326 40.28 367.85 40.148 368.426 40.148C369.05 40.148 369.594 40.3 370.058 40.604C370.522 40.9 370.882 41.332 371.138 41.9C371.402 42.46 371.534 43.136 371.534 43.928C371.534 45.016 371.398 45.924 371.126 46.652C370.862 47.38 370.486 47.928 369.998 48.296C369.51 48.664 368.938 48.848 368.282 48.848C367.746 48.848 367.25 48.72 366.794 48.464C366.338 48.216 365.97 47.868 365.69 47.42L366.47 46.604C366.654 46.932 366.91 47.196 367.238 47.396C367.566 47.596 367.922 47.696 368.306 47.696C368.706 47.696 369.054 47.58 369.35 47.348C369.646 47.124 369.874 46.796 370.034 46.364C370.202 45.932 370.29 45.408 370.298 44.792C370.186 45.024 370.03 45.228 369.83 45.404C369.63 45.58 369.398 45.716 369.134 45.812C368.878 45.908 368.598 45.956 368.294 45.956C367.742 45.956 367.242 45.828 366.794 45.572C366.346 45.316 365.99 44.976 365.726 44.552C365.47 44.12 365.342 43.636 365.342 43.1ZM368.414 41.276C368.086 41.276 367.782 41.36 367.502 41.528C367.23 41.688 367.01 41.908 366.842 42.188C366.682 42.46 366.602 42.764 366.602 43.1C366.602 43.428 366.682 43.728 366.842 44C367.01 44.272 367.23 44.492 367.502 44.66C367.782 44.82 368.086 44.9 368.414 44.9C368.75 44.9 369.054 44.82 369.326 44.66C369.598 44.492 369.814 44.272 369.974 44C370.142 43.728 370.226 43.428 370.226 43.1C370.226 42.772 370.142 42.468 369.974 42.188C369.806 41.908 369.586 41.688 369.314 41.528C369.042 41.36 368.742 41.276 368.414 41.276ZM378.756 43.484C378.756 44.188 378.62 44.816 378.348 45.368C378.084 45.912 377.72 46.34 377.256 46.652C376.8 46.964 376.276 47.12 375.684 47.12C375.1 47.12 374.576 46.964 374.112 46.652C373.648 46.34 373.28 45.912 373.008 45.368C372.744 44.816 372.612 44.188 372.612 43.484C372.612 42.78 372.744 42.156 373.008 41.612C373.28 41.06 373.648 40.628 374.112 40.316C374.576 39.996 375.1 39.836 375.684 39.836C376.276 39.836 376.8 39.996 377.256 40.316C377.72 40.628 378.084 41.06 378.348 41.612C378.62 42.156 378.756 42.78 378.756 43.484ZM377.412 43.484C377.412 43.004 377.34 42.584 377.196 42.224C377.052 41.856 376.848 41.572 376.584 41.372C376.32 41.164 376.02 41.06 375.684 41.06C375.34 41.06 375.036 41.164 374.772 41.372C374.508 41.572 374.3 41.856 374.148 42.224C374.004 42.584 373.932 43.004 373.932 43.484C373.932 43.964 374.004 44.384 374.148 44.744C374.3 45.104 374.508 45.388 374.772 45.596C375.036 45.796 375.34 45.896 375.684 45.896C376.02 45.896 376.316 45.796 376.572 45.596C376.836 45.388 377.04 45.104 377.184 44.744C377.336 44.384 377.412 43.964 377.412 43.484ZM383.296 47V38.48H386.32C387.24 38.48 388.008 38.672 388.624 39.056C389.24 39.432 389.7 39.944 390.004 40.592C390.316 41.232 390.472 41.944 390.472 42.728C390.472 43.592 390.3 44.344 389.956 44.984C389.62 45.624 389.14 46.12 388.516 46.472C387.892 46.824 387.16 47 386.32 47H383.296ZM389.104 42.728C389.104 42.128 388.992 41.6 388.768 41.144C388.552 40.68 388.236 40.32 387.82 40.064C387.412 39.8 386.912 39.668 386.32 39.668H384.64V45.812H386.32C386.92 45.812 387.424 45.676 387.832 45.404C388.248 45.132 388.564 44.764 388.78 44.3C388.996 43.836 389.104 43.312 389.104 42.728ZM391.191 45.164C391.191 44.764 391.303 44.416 391.527 44.12C391.759 43.816 392.075 43.584 392.475 43.424C392.875 43.256 393.339 43.172 393.867 43.172C394.147 43.172 394.431 43.192 394.719 43.232C395.015 43.272 395.275 43.336 395.499 43.424V43.028C395.499 42.588 395.367 42.244 395.103 41.996C394.839 41.748 394.459 41.624 393.963 41.624C393.611 41.624 393.279 41.688 392.967 41.816C392.655 41.936 392.323 42.108 391.971 42.332L391.527 41.444C391.943 41.164 392.359 40.956 392.775 40.82C393.199 40.684 393.643 40.616 394.107 40.616C394.947 40.616 395.607 40.84 396.087 41.288C396.575 41.728 396.819 42.356 396.819 43.172V45.512C396.819 45.664 396.843 45.772 396.891 45.836C396.947 45.9 397.039 45.936 397.167 45.944V47C397.047 47.024 396.939 47.04 396.843 47.048C396.747 47.056 396.667 47.06 396.603 47.06C396.323 47.06 396.111 46.992 395.967 46.856C395.823 46.72 395.739 46.56 395.715 46.376L395.679 46.016C395.407 46.368 395.059 46.64 394.635 46.832C394.211 47.024 393.783 47.12 393.351 47.12C392.935 47.12 392.563 47.036 392.235 46.868C391.907 46.692 391.651 46.456 391.467 46.16C391.283 45.864 391.191 45.532 391.191 45.164ZM395.187 45.548C395.283 45.444 395.359 45.34 395.415 45.236C395.471 45.132 395.499 45.04 395.499 44.96V44.24C395.275 44.152 395.039 44.088 394.791 44.048C394.543 44 394.299 43.976 394.059 43.976C393.579 43.976 393.187 44.072 392.883 44.264C392.587 44.456 392.439 44.72 392.439 45.056C392.439 45.24 392.487 45.416 392.583 45.584C392.687 45.752 392.831 45.888 393.015 45.992C393.207 46.096 393.443 46.148 393.723 46.148C394.011 46.148 394.287 46.092 394.551 45.98C394.815 45.868 395.027 45.724 395.187 45.548ZM398.414 48.476C398.534 48.492 398.65 48.508 398.762 48.524C398.882 48.548 398.978 48.56 399.05 48.56C399.186 48.56 399.302 48.516 399.398 48.428C399.502 48.348 399.606 48.196 399.71 47.972C399.814 47.748 399.942 47.424 400.094 47L397.514 40.724H398.894L400.814 45.656L402.518 40.724H403.79L400.946 48.452C400.858 48.684 400.73 48.896 400.562 49.088C400.394 49.288 400.186 49.444 399.938 49.556C399.69 49.668 399.398 49.724 399.062 49.724C398.966 49.724 398.866 49.716 398.762 49.7C398.658 49.684 398.542 49.66 398.414 49.628V48.476ZM406.829 47.12C406.301 47.12 405.801 47.036 405.329 46.868C404.857 46.692 404.453 46.432 404.117 46.088L404.609 45.2C404.969 45.52 405.329 45.752 405.689 45.896C406.057 46.04 406.421 46.112 406.781 46.112C407.149 46.112 407.449 46.044 407.681 45.908C407.913 45.764 408.029 45.556 408.029 45.284C408.029 45.084 407.969 44.936 407.849 44.84C407.729 44.744 407.553 44.66 407.321 44.588C407.097 44.516 406.825 44.436 406.505 44.348C406.057 44.212 405.681 44.072 405.377 43.928C405.073 43.776 404.845 43.592 404.693 43.376C404.541 43.16 404.465 42.884 404.465 42.548C404.465 42.14 404.569 41.792 404.777 41.504C404.985 41.216 405.273 40.996 405.641 40.844C406.017 40.692 406.449 40.616 406.937 40.616C407.393 40.616 407.813 40.688 408.197 40.832C408.589 40.968 408.933 41.184 409.229 41.48L408.665 42.356C408.385 42.1 408.097 41.912 407.801 41.792C407.513 41.672 407.201 41.612 406.865 41.612C406.673 41.612 406.489 41.636 406.313 41.684C406.137 41.724 405.989 41.804 405.869 41.924C405.757 42.036 405.701 42.196 405.701 42.404C405.701 42.572 405.749 42.708 405.845 42.812C405.941 42.916 406.085 43.004 406.277 43.076C406.469 43.148 406.705 43.228 406.985 43.316C407.473 43.46 407.889 43.604 408.233 43.748C408.577 43.884 408.841 44.064 409.025 44.288C409.217 44.504 409.313 44.804 409.313 45.188C409.313 45.796 409.085 46.272 408.629 46.616C408.181 46.952 407.581 47.12 406.829 47.12Z" fill="white"></path><g clip-path="url(#clip1_2766_876)"><path fill-rule="evenodd" clip-rule="evenodd" d="M422.907 46.4642L418.193 41.75L419.372 40.5717L423.497 44.6967L427.622 40.5717L428.8 41.75L424.086 46.4642C423.93 46.6204 423.718 46.7081 423.497 46.7081C423.276 46.7081 423.064 46.6204 422.907 46.4642Z" fill="#F0F0F0"></path></g></g></g><path d="M0.5 16C0.5 7.43958 7.43959 0.5 16 0.5H462C470.56 0.5 477.5 7.43959 477.5 16V484.5H0.5V16Z" stroke="url(#paint32_linear_2766_876)"></path><defs><filter id="filter0_d_2766_876" x="20" y="28" width="93" height="39" filterUnits="userSpaceOnUse" color-interpolation-filters="sRGB"><feFlood flood-opacity="0" result="BackgroundImageFix"></feFlood><feColorMatrix in="SourceAlpha" type="matrix" values="0 0 0 0 0 0 0 0 0 0 0 0 0 0 0 0 0 0 127 0" result="hardAlpha"></feColorMatrix><feOffset dy="5"></feOffset><feGaussianBlur stdDeviation="2"></feGaussianBlur><feComposite in2="hardAlpha" operator="out"></feComposite><feColorMatrix type="matrix" values="0 0 0 0 0 0 0 0 0 0 0 0 0 0 0 0 0 0 0.1 0"></feColorMatrix><feBlend mode="normal" in2="BackgroundImageFix" result="effect1_dropShadow_2766_876"></feBlend><feBlend mode="normal" in="SourceGraphic" in2="effect1_dropShadow_2766_876" result="shape"></feBlend></filter><filter id="filter1_d_2766_876" x="313" y="28" width="145" height="39" filterUnits="userSpaceOnUse" color-interpolation-filters="sRGB"><feFlood flood-opacity="0" result="BackgroundImageFix"></feFlood><feColorMatrix in="SourceAlpha" type="matrix" values="0 0 0 0 0 0 0 0 0 0 0 0 0 0 0 0 0 0 127 0" result="hardAlpha"></feColorMatrix><feOffset dy="5"></feOffset><feGaussianBlur stdDeviation="2"></feGaussianBlur><feComposite in2="hardAlpha" operator="out"></feComposite><feColorMatrix type="matrix" values="0 0 0 0 0 0 0 0 0 0 0 0 0 0 0 0 0 0 0.1 0"></feColorMatrix><feBlend mode="normal" in2="BackgroundImageFix" result="effect1_dropShadow_2766_876"></feBlend><feBlend mode="normal" in="SourceGraphic" in2="effect1_dropShadow_2766_876" result="shape"></feBlend></filter><linearGradient id="paint0_linear_2766_876" x1="193.778" y1="342.054" x2="193.778" y2="402.703" gradientUnits="userSpaceOnUse"><stop stop-color="#155E77"></stop><stop offset="1" stop-color="#169CC9"></stop></linearGradient><linearGradient id="paint1_linear_2766_876" x1="178.871" y1="354.459" x2="178.871" y2="402.703" gradientUnits="userSpaceOnUse"><stop stop-color="#155E77"></stop><stop offset="1" stop-color="#169CC9"></stop></linearGradient><linearGradient id="paint2_linear_2766_876" x1="163.963" y1="380.649" x2="163.963" y2="415.108" gradientUnits="userSpaceOnUse"><stop stop-color="#176B87"></stop><stop offset="1" stop-color="#0E3C4B"></stop></linearGradient><linearGradient id="paint3_linear_2766_876" x1="149.056" y1="380.649" x2="149.056" y2="427.514" gradientUnits="userSpaceOnUse"><stop stop-color="#155E77"></stop><stop offset="1" stop-color="#169CC9"></stop></linearGradient><linearGradient id="paint4_linear_2766_876" x1="134.149" y1="375.135" x2="134.149" y2="422" gradientUnits="userSpaceOnUse"><stop stop-color="#4CBADE"></stop><stop offset="1" stop-color="#296578"></stop></linearGradient><linearGradient id="paint5_linear_2766_876" x1="119.241" y1="375.135" x2="119.241" y2="437.162" gradientUnits="userSpaceOnUse"><stop stop-color="#155E77"></stop><stop offset="1" stop-color="#169CC9"></stop></linearGradient><linearGradient id="paint6_linear_2766_876" x1="104.334" y1="390.297" x2="104.334" y2="433.027" gradientUnits="userSpaceOnUse"><stop stop-color="#176B87"></stop><stop offset="1" stop-color="#0E3C4B"></stop></linearGradient><linearGradient id="paint7_linear_2766_876" x1="89.4267" y1="395.811" x2="89.4267" y2="430.27" gradientUnits="userSpaceOnUse"><stop stop-color="#155E77"></stop><stop offset="1" stop-color="#169CC9"></stop></linearGradient><linearGradient id="paint8_linear_2766_876" x1="74.5193" y1="417.865" x2="74.5193" y2="452.324" gradientUnits="userSpaceOnUse"><stop stop-color="#176B87"></stop><stop offset="1" stop-color="#0E3C4B"></stop></linearGradient><linearGradient id="paint9_linear_2766_876" x1="59.612" y1="372.378" x2="59.612" y2="448.189" gradientUnits="userSpaceOnUse"><stop stop-color="#176B87"></stop><stop offset="1" stop-color="#0E3C4B"></stop></linearGradient><linearGradient id="paint10_linear_2766_876" x1="44.7046" y1="402.703" x2="44.7046" y2="456.459" gradientUnits="userSpaceOnUse"><stop stop-color="#155E77"></stop><stop offset="1" stop-color="#169CC9"></stop></linearGradient><linearGradient id="paint11_linear_2766_876" x1="29.7973" y1="423.378" x2="29.7973" y2="449.568" gradientUnits="userSpaceOnUse"><stop stop-color="#4CBADE"></stop><stop offset="1" stop-color="#296578"></stop></linearGradient><linearGradient id="paint12_linear_2766_876" x1="208.685" y1="354.459" x2="208.685" y2="405.459" gradientUnits="userSpaceOnUse"><stop stop-color="#176B87"></stop><stop offset="1" stop-color="#0E3C4B"></stop></linearGradient><linearGradient id="paint13_linear_2766_876" x1="223.593" y1="376.514" x2="223.593" y2="399.946" gradientUnits="userSpaceOnUse"><stop stop-color="#155E77"></stop><stop offset="1" stop-color="#169CC9"></stop></linearGradient><linearGradient id="paint14_linear_2766_876" x1="238.5" y1="359.973" x2="238.5" y2="405.46" gradientUnits="userSpaceOnUse"><stop stop-color="#176B87"></stop><stop offset="1" stop-color="#0E3C4B"></stop></linearGradient><linearGradient id="paint15_linear_2766_876" x1="253.407" y1="351.703" x2="253.407" y2="394.432" gradientUnits="userSpaceOnUse"><stop stop-color="#155E77"></stop><stop offset="1" stop-color="#169CC9"></stop></linearGradient><linearGradient id="paint16_linear_2766_876" x1="268.315" y1="336.541" x2="268.315" y2="417.865" gradientUnits="userSpaceOnUse"><stop stop-color="#155E77"></stop><stop offset="1" stop-color="#169CC9"></stop></linearGradient><linearGradient id="paint17_linear_2766_876" x1="283.222" y1="284.162" x2="283.222" y2="373.757" gradientUnits="userSpaceOnUse"><stop stop-color="#155E77"></stop><stop offset="1" stop-color="#169CC9"></stop></linearGradient><linearGradient id="paint18_linear_2766_876" x1="298.129" y1="286.919" x2="298.129" y2="329.649" gradientUnits="userSpaceOnUse"><stop stop-color="#155E77"></stop><stop offset="1" stop-color="#169CC9"></stop></linearGradient><linearGradient id="paint19_linear_2766_876" x1="313.037" y1="292.432" x2="313.037" y2="339.297" gradientUnits="userSpaceOnUse"><stop stop-color="#176B87"></stop><stop offset="1" stop-color="#0E3C4B"></stop></linearGradient><linearGradient id="paint20_linear_2766_876" x1="327.944" y1="308.973" x2="327.944" y2="351.703" gradientUnits="userSpaceOnUse"><stop stop-color="#155E77"></stop><stop offset="1" stop-color="#169CC9"></stop></linearGradient><linearGradient id="paint21_linear_2766_876" x1="342.851" y1="245.568" x2="342.851" y2="324.135" gradientUnits="userSpaceOnUse"><stop stop-color="#4CBADE"></stop><stop offset="1" stop-color="#296578"></stop></linearGradient><linearGradient id="paint22_linear_2766_876" x1="357.759" y1="213.865" x2="357.759" y2="264.865" gradientUnits="userSpaceOnUse"><stop stop-color="#155E77"></stop><stop offset="1" stop-color="#169CC9"></stop></linearGradient><linearGradient id="paint23_linear_2766_876" x1="372.666" y1="197.324" x2="372.666" y2="234.541" gradientUnits="userSpaceOnUse"><stop stop-color="#176B87"></stop><stop offset="1" stop-color="#0E3C4B"></stop></linearGradient><linearGradient id="paint24_linear_2766_876" x1="387.573" y1="193.189" x2="387.573" y2="213.865" gradientUnits="userSpaceOnUse"><stop stop-color="#155E77"></stop><stop offset="1" stop-color="#169CC9"></stop></linearGradient><linearGradient id="paint25_linear_2766_876" x1="402.481" y1="201.459" x2="402.481" y2="224.892" gradientUnits="userSpaceOnUse"><stop stop-color="#176B87"></stop><stop offset="1" stop-color="#0E3C4B"></stop></linearGradient><linearGradient id="paint26_linear_2766_876" x1="417.388" y1="127.027" x2="417.388" y2="224.892" gradientUnits="userSpaceOnUse"><stop stop-color="#155E77"></stop><stop offset="1" stop-color="#169CC9"></stop></linearGradient><linearGradient id="paint27_linear_2766_876" x1="432.295" y1="93.9459" x2="432.295" y2="158.73" gradientUnits="userSpaceOnUse"><stop stop-color="#155E77"></stop><stop offset="1" stop-color="#169CC9"></stop></linearGradient><linearGradient id="paint28_linear_2766_876" x1="447.203" y1="65" x2="447.203" y2="129.784" gradientUnits="userSpaceOnUse"><stop stop-color="#176B87"></stop><stop offset="1" stop-color="#0E3C4B"></stop></linearGradient><linearGradient id="paint29_linear_2766_876" x1="239" y1="499" x2="239" y2="360" gradientUnits="userSpaceOnUse"><stop stop-color="#021117"></stop><stop offset="1" stop-color="#07212A" stop-opacity="0"></stop></linearGradient><linearGradient id="paint30_linear_2766_876" x1="24" y1="43" x2="109" y2="43" gradientUnits="userSpaceOnUse"><stop stop-color="#07212A"></stop><stop offset="1" stop-color="#187190"></stop></linearGradient><linearGradient id="paint31_linear_2766_876" x1="317" y1="43" x2="454" y2="43" gradientUnits="userSpaceOnUse"><stop stop-color="#07212A"></stop><stop offset="1" stop-color="#187190"></stop></linearGradient><linearGradient id="paint32_linear_2766_876" x1="239" y1="0" x2="239" y2="485" gradientUnits="userSpaceOnUse"><stop offset="0.190327" stop-color="#176B87"></stop><stop offset="1" stop-color="#176B87" stop-opacity="0"></stop></linearGradient><clipPath id="clip0_2766_876"><path d="M0 16C0 7.16344 7.16344 0 16 0H462C470.837 0 478 7.16344 478 16V485H0V16Z" fill="white"></path></clipPath><clipPath id="clip1_2766_876"><rect width="10" height="20" fill="white" transform="matrix(0 1 -1 0 433.5 38)"></rect></clipPath></defs></svg> 