<?xml version="1.0" encoding="UTF-8"?> <svg xmlns="http://www.w3.org/2000/svg" width="313" height="317" viewBox="0 0 313 317" fill="none"><g clip-path="url(#clip0_2789_250)"><path d="M0 10.4557C0 4.68115 4.68117 0 10.4557 0H301.908C307.683 0 312.364 4.68117 312.364 10.4557V316.938H0V10.4557Z" fill="#00141B"></path><g opacity="0.05"><path d="M11.3654 -10.4558V336.052" stroke="#D9D9D9" stroke-width="0.277318"></path><path d="M26.6177 -10.4558V336.052" stroke="#D9D9D9" stroke-width="0.277318"></path><path d="M41.8702 -10.4558V336.052" stroke="#D9D9D9" stroke-width="0.277318"></path><path d="M57.1227 -10.4558V336.052" stroke="#D9D9D9" stroke-width="0.277318"></path><path d="M72.3751 -10.4558V336.052" stroke="#D9D9D9" stroke-width="0.277318"></path><path d="M87.6277 -10.4558V336.052" stroke="#D9D9D9" stroke-width="0.277318"></path><path d="M102.88 -10.4558V336.052" stroke="#D9D9D9" stroke-width="0.277318"></path><path d="M118.133 -10.4558V336.052" stroke="#D9D9D9" stroke-width="0.277318"></path><path d="M133.385 -10.4558V336.052" stroke="#D9D9D9" stroke-width="0.277318"></path><path d="M148.637 -10.4558V336.052" stroke="#D9D9D9" stroke-width="0.277318"></path><path d="M163.89 -10.4558V336.052" stroke="#D9D9D9" stroke-width="0.277318"></path><path d="M179.142 -10.4558V336.052" stroke="#D9D9D9" stroke-width="0.277318"></path><path d="M194.395 -10.4558V336.052" stroke="#D9D9D9" stroke-width="0.277318"></path><path d="M209.647 -10.4558V336.052" stroke="#D9D9D9" stroke-width="0.277318"></path><path d="M224.9 -10.4558V336.052" stroke="#D9D9D9" stroke-width="0.277318"></path><path d="M240.152 -10.4558V336.052" stroke="#D9D9D9" stroke-width="0.277318"></path><path d="M255.405 -10.4558V336.052" stroke="#D9D9D9" stroke-width="0.277318"></path><path d="M270.657 -10.4558V336.052" stroke="#D9D9D9" stroke-width="0.277318"></path><path d="M285.91 -10.4558V336.052" stroke="#D9D9D9" stroke-width="0.277318"></path><path d="M301.162 -10.4558V336.052" stroke="#D9D9D9" stroke-width="0.277318"></path><path d="M329.518 17.8999L-16.9905 17.8999" stroke="#D9D9D9" stroke-width="0.277318"></path><path d="M329.518 33.1525L-16.9905 33.1525" stroke="#D9D9D9" stroke-width="0.277318"></path><path d="M329.518 48.4049L-16.9905 48.4049" stroke="#D9D9D9" stroke-width="0.277318"></path><path d="M329.518 63.6574L-16.9905 63.6574" stroke="#D9D9D9" stroke-width="0.277318"></path><path d="M329.518 78.9098L-16.9905 78.9098" stroke="#D9D9D9" stroke-width="0.277318"></path><path d="M329.518 94.1623L-16.9905 94.1622" stroke="#D9D9D9" stroke-width="0.277318"></path><path d="M329.518 109.415L-16.9905 109.415" stroke="#D9D9D9" stroke-width="0.277318"></path><path d="M329.518 124.667L-16.9905 124.667" stroke="#D9D9D9" stroke-width="0.277318"></path><path d="M329.518 139.92L-16.9905 139.92" stroke="#D9D9D9" stroke-width="0.277318"></path><path d="M329.518 155.172L-16.9905 155.172" stroke="#D9D9D9" stroke-width="0.277318"></path><path d="M329.518 170.425L-16.9905 170.425" stroke="#D9D9D9" stroke-width="0.277318"></path><path d="M329.518 185.677L-16.9905 185.677" stroke="#D9D9D9" stroke-width="0.277318"></path><path d="M329.518 200.93L-16.9905 200.929" stroke="#D9D9D9" stroke-width="0.277318"></path><path d="M329.518 216.182L-16.9905 216.182" stroke="#D9D9D9" stroke-width="0.277318"></path><path d="M329.518 231.434L-16.9905 231.434" stroke="#D9D9D9" stroke-width="0.277318"></path><path d="M329.518 246.687L-16.9905 246.687" stroke="#D9D9D9" stroke-width="0.277318"></path><path d="M329.518 261.939L-16.9905 261.939" stroke="#D9D9D9" stroke-width="0.277318"></path><path d="M329.518 277.192L-16.9905 277.192" stroke="#D9D9D9" stroke-width="0.277318"></path><path d="M329.518 292.444L-16.9905 292.444" stroke="#D9D9D9" stroke-width="0.277318"></path><path d="M329.518 307.697L-16.9905 307.697" stroke="#D9D9D9" stroke-width="0.277318"></path></g><mask id="path-43-outside-1_2789_250" maskUnits="userSpaceOnUse" x="121.842" y="222.526" width="10" height="42" fill="black"><rect fill="white" x="121.842" y="222.526" width="10" height="42"></rect><path fill-rule="evenodd" clip-rule="evenodd" d="M127.171 223.526H126.089V233.434H122.842V258.655H126.089V263.159H127.171V258.655H130.419V233.434H127.171V223.526Z"></path></mask><path fill-rule="evenodd" clip-rule="evenodd" d="M127.171 223.526H126.089V233.434H122.842V258.655H126.089V263.159H127.171V258.655H130.419V233.434H127.171V223.526Z" fill="url(#paint0_linear_2789_250)"></path><path d="M126.089 223.526V223.101H125.664V223.526H126.089ZM127.171 223.526H127.596V223.101H127.171V223.526ZM126.089 233.434V233.859H126.514V233.434H126.089ZM122.842 233.434V233.009H122.417V233.434H122.842ZM122.842 258.655H122.417V259.08H122.842V258.655ZM126.089 258.655H126.514V258.23H126.089V258.655ZM126.089 263.159H125.664V263.583H126.089V263.159ZM127.171 263.159V263.583H127.596V263.159H127.171ZM127.171 258.655V258.23H126.747V258.655H127.171ZM130.419 258.655V259.08H130.843V258.655H130.419ZM130.419 233.434H130.843V233.009H130.419V233.434ZM127.171 233.434H126.747V233.859H127.171V233.434ZM126.089 223.951H127.171V223.101H126.089V223.951ZM126.514 233.434V223.526H125.664V233.434H126.514ZM122.842 233.859H126.089V233.009H122.842V233.859ZM123.266 258.655V233.434H122.417V258.655H123.266ZM126.089 258.23H122.842V259.08H126.089V258.23ZM126.514 263.159V258.655H125.664V263.159H126.514ZM127.171 262.734H126.089V263.583H127.171V262.734ZM126.747 258.655V263.159H127.596V258.655H126.747ZM130.419 258.23H127.171V259.08H130.419V258.23ZM129.994 233.434V258.655H130.843V233.434H129.994ZM127.171 233.859H130.419V233.009H127.171V233.859ZM126.747 223.526V233.434H127.596V223.526H126.747Z" fill="#3291B0" mask="url(#path-43-outside-1_2789_250)"></path><mask id="path-45-outside-2_2789_250" maskUnits="userSpaceOnUse" x="112.1" y="230.633" width="10" height="33" fill="black"><rect fill="white" x="112.1" y="230.633" width="10" height="33"></rect><path fill-rule="evenodd" clip-rule="evenodd" d="M117.43 231.633H116.347V246.645H113.1V260.657H116.347V263.159H117.43V260.657H120.677V246.645H117.43V231.633Z"></path></mask><path fill-rule="evenodd" clip-rule="evenodd" d="M117.43 231.633H116.347V246.645H113.1V260.657H116.347V263.159H117.43V260.657H120.677V246.645H117.43V231.633Z" fill="url(#paint1_linear_2789_250)"></path><path d="M116.347 231.633V231.208H115.923V231.633H116.347ZM117.43 231.633H117.855V231.208H117.43V231.633ZM116.347 246.645V247.07H116.772V246.645H116.347ZM113.1 246.645V246.22H112.675V246.645H113.1ZM113.1 260.657H112.675V261.081H113.1V260.657ZM116.347 260.657H116.772V260.232H116.347V260.657ZM116.347 263.159H115.923V263.583H116.347V263.159ZM117.43 263.159V263.583H117.855V263.159H117.43ZM117.43 260.657V260.232H117.005V260.657H117.43ZM120.677 260.657V261.081H121.102V260.657H120.677ZM120.677 246.645H121.102V246.22H120.677V246.645ZM117.43 246.645H117.005V247.07H117.43V246.645ZM116.347 232.057H117.43V231.208H116.347V232.057ZM116.772 246.645V231.633H115.923V246.645H116.772ZM113.1 247.07H116.347V246.22H113.1V247.07ZM113.525 260.657V246.645H112.675V260.657H113.525ZM116.347 260.232H113.1V261.081H116.347V260.232ZM116.772 263.159V260.657H115.923V263.159H116.772ZM117.43 262.734H116.347V263.583H117.43V262.734ZM117.005 260.657V263.159H117.855V260.657H117.005ZM120.677 260.232H117.43V261.081H120.677V260.232ZM120.252 246.645V260.657H121.102V246.645H120.252ZM117.43 247.07H120.677V246.22H117.43V247.07ZM117.005 231.633V246.645H117.855V231.633H117.005Z" fill="#3291B0" mask="url(#path-45-outside-2_2789_250)"></path><mask id="path-47-outside-3_2789_250" maskUnits="userSpaceOnUse" x="102.358" y="247.747" width="10" height="24" fill="black"><rect fill="white" x="102.358" y="247.747" width="10" height="24"></rect><path fill-rule="evenodd" clip-rule="evenodd" d="M107.688 248.747H106.606V257.754H103.358V267.662H106.606V271.265H107.688V267.662H110.935V257.754H107.688V248.747Z"></path></mask><path fill-rule="evenodd" clip-rule="evenodd" d="M107.688 248.747H106.606V257.754H103.358V267.662H106.606V271.265H107.688V267.662H110.935V257.754H107.688V248.747Z" fill="url(#paint2_linear_2789_250)"></path><path d="M106.606 248.747V248.322H106.181V248.747H106.606ZM107.688 248.747H108.113V248.322H107.688V248.747ZM106.606 257.754V258.179H107.031V257.754H106.606ZM103.358 257.754V257.329H102.934V257.754H103.358ZM103.358 267.662H102.934V268.087H103.358V267.662ZM106.606 267.662H107.031V267.237H106.606V267.662ZM106.606 271.265H106.181V271.69H106.606V271.265ZM107.688 271.265V271.69H108.113V271.265H107.688ZM107.688 267.662V267.237H107.263V267.662H107.688ZM110.935 267.662V268.087H111.36V267.662H110.935ZM110.935 257.754H111.36V257.329H110.935V257.754ZM107.688 257.754H107.263V258.179H107.688V257.754ZM106.606 249.171H107.688V248.322H106.606V249.171ZM107.031 257.754V248.747H106.181V257.754H107.031ZM103.358 258.179H106.606V257.329H103.358V258.179ZM103.783 267.662V257.754H102.934V267.662H103.783ZM106.606 267.237H103.358V268.087H106.606V267.237ZM107.031 271.265V267.662H106.181V271.265H107.031ZM107.688 270.841H106.606V271.69H107.688V270.841ZM107.263 267.662V271.265H108.113V267.662H107.263ZM110.935 267.237H107.688V268.087H110.935V267.237ZM110.511 257.754V267.662H111.36V257.754H110.511ZM107.688 258.179H110.935V257.329H107.688V258.179ZM107.263 248.747V257.754H108.113V248.747H107.263Z" fill="#3291B0" mask="url(#path-47-outside-3_2789_250)"></path><mask id="path-49-outside-4_2789_250" maskUnits="userSpaceOnUse" x="92.6168" y="247.747" width="10" height="33" fill="black"><rect fill="white" x="92.6168" y="247.747" width="10" height="33"></rect><path fill-rule="evenodd" clip-rule="evenodd" d="M97.9464 248.747H96.864V251.449H93.6168V256.853H96.864V279.372H97.9464V256.853H101.194V251.449H97.9464V248.747Z"></path></mask><path fill-rule="evenodd" clip-rule="evenodd" d="M97.9464 248.747H96.864V251.449H93.6168V256.853H96.864V279.372H97.9464V256.853H101.194V251.449H97.9464V248.747Z" fill="url(#paint3_linear_2789_250)"></path><path d="M96.864 248.747V248.322H96.4392V248.747H96.864ZM97.9464 248.747H98.3712V248.322H97.9464V248.747ZM96.864 251.449V251.874H97.2888V251.449H96.864ZM93.6168 251.449V251.024H93.1921V251.449H93.6168ZM93.6168 256.853H93.1921V257.278H93.6168V256.853ZM96.864 256.853H97.2888V256.429H96.864V256.853ZM96.864 279.372H96.4392V279.797H96.864V279.372ZM97.9464 279.372V279.797H98.3712V279.372H97.9464ZM97.9464 256.853V256.429H97.5216V256.853H97.9464ZM101.194 256.853V257.278H101.618V256.853H101.194ZM101.194 251.449H101.618V251.024H101.194V251.449ZM97.9464 251.449H97.5216V251.874H97.9464V251.449ZM96.864 249.171H97.9464V248.322H96.864V249.171ZM97.2888 251.449V248.747H96.4392V251.449H97.2888ZM93.6168 251.874H96.864V251.024H93.6168V251.874ZM94.0416 256.853V251.449H93.1921V256.853H94.0416ZM96.864 256.429H93.6168V257.278H96.864V256.429ZM97.2888 279.372V256.853H96.4392V279.372H97.2888ZM97.9464 278.947H96.864V279.797H97.9464V278.947ZM97.5216 256.853V279.372H98.3712V256.853H97.5216ZM101.194 256.429H97.9464V257.278H101.194V256.429ZM100.769 251.449V256.853H101.618V251.449H100.769ZM97.9464 251.874H101.194V251.024H97.9464V251.874ZM97.5216 248.747V251.449H98.3712V248.747H97.5216Z" fill="#3291B0" mask="url(#path-49-outside-4_2789_250)"></path><mask id="path-51-outside-5_2789_250" maskUnits="userSpaceOnUse" x="82.8751" y="244.144" width="10" height="33" fill="black"><rect fill="white" x="82.8751" y="244.144" width="10" height="33"></rect><path fill-rule="evenodd" clip-rule="evenodd" d="M88.2047 245.144H87.1223V251.449H83.8751V273.067H87.1223V275.769H88.2047V273.067H91.452V251.449H88.2047V245.144Z"></path></mask><path fill-rule="evenodd" clip-rule="evenodd" d="M88.2047 245.144H87.1223V251.449H83.8751V273.067H87.1223V275.769H88.2047V273.067H91.452V251.449H88.2047V245.144Z" fill="url(#paint4_linear_2789_250)"></path><path d="M87.1223 245.144V244.719H86.6975V245.144H87.1223ZM88.2047 245.144H88.6295V244.719H88.2047V245.144ZM87.1223 251.449V251.874H87.5471V251.449H87.1223ZM83.8751 251.449V251.024H83.4504V251.449H83.8751ZM83.8751 273.067H83.4504V273.492H83.8751V273.067ZM87.1223 273.067H87.5471V272.642H87.1223V273.067ZM87.1223 275.769H86.6975V276.194H87.1223V275.769ZM88.2047 275.769V276.194H88.6295V275.769H88.2047ZM88.2047 273.067V272.642H87.7799V273.067H88.2047ZM91.452 273.067V273.492H91.8767V273.067H91.452ZM91.452 251.449H91.8767V251.024H91.452V251.449ZM88.2047 251.449H87.7799V251.874H88.2047V251.449ZM87.1223 245.568H88.2047V244.719H87.1223V245.568ZM87.5471 251.449V245.144H86.6975V251.449H87.5471ZM83.8751 251.874H87.1223V251.024H83.8751V251.874ZM84.2999 273.067V251.449H83.4504V273.067H84.2999ZM87.1223 272.642H83.8751V273.492H87.1223V272.642ZM87.5471 275.769V273.067H86.6975V275.769H87.5471ZM88.2047 275.344H87.1223V276.194H88.2047V275.344ZM87.7799 273.067V275.769H88.6295V273.067H87.7799ZM91.452 272.642H88.2047V273.492H91.452V272.642ZM91.0272 251.449V273.067H91.8767V251.449H91.0272ZM88.2047 251.874H91.452V251.024H88.2047V251.874ZM87.7799 245.144V251.449H88.6295V245.144H87.7799Z" fill="#3291B0" mask="url(#path-51-outside-5_2789_250)"></path><mask id="path-53-outside-6_2789_250" maskUnits="userSpaceOnUse" x="73.1335" y="244.144" width="10" height="42" fill="black"><rect fill="white" x="73.1335" y="244.144" width="10" height="42"></rect><path fill-rule="evenodd" clip-rule="evenodd" d="M78.4631 245.144H77.3807V259.556H74.1335V281.173H77.3807V285.677H78.4631V281.173H81.7103V259.556H78.4631V245.144Z"></path></mask><path fill-rule="evenodd" clip-rule="evenodd" d="M78.4631 245.144H77.3807V259.556H74.1335V281.173H77.3807V285.677H78.4631V281.173H81.7103V259.556H78.4631V245.144Z" fill="url(#paint5_linear_2789_250)"></path><path d="M77.3807 245.144V244.719H76.9559V245.144H77.3807ZM78.4631 245.144H78.8878V244.719H78.4631V245.144ZM77.3807 259.556V259.98H77.8054V259.556H77.3807ZM74.1335 259.556V259.131H73.7087V259.556H74.1335ZM74.1335 281.173H73.7087V281.598H74.1335V281.173ZM77.3807 281.173H77.8054V280.749H77.3807V281.173ZM77.3807 285.677H76.9559V286.102H77.3807V285.677ZM78.4631 285.677V286.102H78.8878V285.677H78.4631ZM78.4631 281.173V280.749H78.0383V281.173H78.4631ZM81.7103 281.173V281.598H82.1351V281.173H81.7103ZM81.7103 259.556H82.1351V259.131H81.7103V259.556ZM78.4631 259.556H78.0383V259.98H78.4631V259.556ZM77.3807 245.568H78.4631V244.719H77.3807V245.568ZM77.8054 259.556V245.144H76.9559V259.556H77.8054ZM74.1335 259.98H77.3807V259.131H74.1335V259.98ZM74.5582 281.173V259.556H73.7087V281.173H74.5582ZM77.3807 280.749H74.1335V281.598H77.3807V280.749ZM77.8054 285.677V281.173H76.9559V285.677H77.8054ZM78.4631 285.252H77.3807V286.102H78.4631V285.252ZM78.0383 281.173V285.677H78.8878V281.173H78.0383ZM81.7103 280.749H78.4631V281.598H81.7103V280.749ZM81.2856 259.556V281.173H82.1351V259.556H81.2856ZM78.4631 259.98H81.7103V259.131H78.4631V259.98ZM78.0383 245.144V259.556H78.8878V245.144H78.0383Z" fill="#3291B0" mask="url(#path-53-outside-6_2789_250)"></path><mask id="path-55-outside-7_2789_250" maskUnits="userSpaceOnUse" x="63.3918" y="254.052" width="10" height="30" fill="black"><rect fill="white" x="63.3918" y="254.052" width="10" height="30"></rect><path fill-rule="evenodd" clip-rule="evenodd" d="M68.7214 255.052H67.639V266.762H64.3918V281.173H67.639V282.975H68.7214V281.173H71.9687V266.762H68.7214V255.052Z"></path></mask><path fill-rule="evenodd" clip-rule="evenodd" d="M68.7214 255.052H67.639V266.762H64.3918V281.173H67.639V282.975H68.7214V281.173H71.9687V266.762H68.7214V255.052Z" fill="url(#paint6_linear_2789_250)"></path><path d="M67.639 255.052V254.627H67.2143V255.052H67.639ZM68.7214 255.052H69.1462V254.627H68.7214V255.052ZM67.639 266.762V267.186H68.0638V266.762H67.639ZM64.3918 266.762V266.337H63.9671V266.762H64.3918ZM64.3918 281.173H63.9671V281.598H64.3918V281.173ZM67.639 281.173H68.0638V280.749H67.639V281.173ZM67.639 282.975H67.2143V283.4H67.639V282.975ZM68.7214 282.975V283.4H69.1462V282.975H68.7214ZM68.7214 281.173V280.749H68.2967V281.173H68.7214ZM71.9687 281.173V281.598H72.3935V281.173H71.9687ZM71.9687 266.762H72.3935V266.337H71.9687V266.762ZM68.7214 266.762H68.2967V267.186H68.7214V266.762ZM67.639 255.477H68.7214V254.627H67.639V255.477ZM68.0638 266.762V255.052H67.2143V266.762H68.0638ZM64.3918 267.186H67.639V266.337H64.3918V267.186ZM64.8166 281.173V266.762H63.9671V281.173H64.8166ZM67.639 280.749H64.3918V281.598H67.639V280.749ZM68.0638 282.975V281.173H67.2143V282.975H68.0638ZM68.7214 282.55H67.639V283.4H68.7214V282.55ZM68.2967 281.173V282.975H69.1462V281.173H68.2967ZM71.9687 280.749H68.7214V281.598H71.9687V280.749ZM71.5439 266.762V281.173H72.3935V266.762H71.5439ZM68.7214 267.186H71.9687V266.337H68.7214V267.186ZM68.2967 255.052V266.762H69.1462V255.052H68.2967Z" fill="#3291B0" mask="url(#path-55-outside-7_2789_250)"></path><mask id="path-57-outside-8_2789_250" maskUnits="userSpaceOnUse" x="53.6502" y="257.655" width="10" height="24" fill="black"><rect fill="white" x="53.6502" y="257.655" width="10" height="24"></rect><path fill-rule="evenodd" clip-rule="evenodd" d="M58.9799 258.655H57.8975V271.265H54.6502V281.173H57.8975V281.173H58.9799V281.173H62.2271V271.265H58.9799V258.655Z"></path></mask><path fill-rule="evenodd" clip-rule="evenodd" d="M58.9799 258.655H57.8975V271.265H54.6502V281.173H57.8975V281.173H58.9799V281.173H62.2271V271.265H58.9799V258.655Z" fill="url(#paint7_linear_2789_250)"></path><path d="M57.8975 258.655V258.23H57.4727V258.655H57.8975ZM58.9799 258.655H59.4047V258.23H58.9799V258.655ZM57.8975 271.265V271.69H58.3223V271.265H57.8975ZM54.6502 271.265V270.84H54.2254V271.265H54.6502ZM54.6502 281.173H54.2254V281.598H54.6502V281.173ZM57.8975 281.173H58.3223V280.749H57.8975V281.173ZM57.8975 281.173H57.4727V281.598H57.8975V281.173ZM58.9799 281.173V281.598H59.4047V281.173H58.9799ZM58.9799 281.173V280.749H58.5552V281.173H58.9799ZM62.2271 281.173V281.598H62.6518V281.173H62.2271ZM62.2271 271.265H62.6518V270.84H62.2271V271.265ZM58.9799 271.265H58.5552V271.69H58.9799V271.265ZM57.8975 259.08H58.9799V258.23H57.8975V259.08ZM58.3223 271.265V258.655H57.4727V271.265H58.3223ZM54.6502 271.69H57.8975V270.84H54.6502V271.69ZM55.075 281.173V271.265H54.2254V281.173H55.075ZM57.8975 280.749H54.6502V281.598H57.8975V280.749ZM58.3223 281.173V281.173H57.4727V281.173H58.3223ZM58.9799 280.749H57.8975V281.598H58.9799V280.749ZM58.5552 281.173V281.173H59.4047V281.173H58.5552ZM62.2271 280.749H58.9799V281.598H62.2271V280.749ZM61.8023 271.265V281.173H62.6518V271.265H61.8023ZM58.9799 271.69H62.2271V270.84H58.9799V271.69ZM58.5552 258.655V271.265H59.4047V258.655H58.5552Z" fill="#3291B0" mask="url(#path-57-outside-8_2789_250)"></path><mask id="path-59-outside-9_2789_250" maskUnits="userSpaceOnUse" x="43.9086" y="272.067" width="10" height="24" fill="black"><rect fill="white" x="43.9086" y="272.067" width="10" height="24"></rect><path fill-rule="evenodd" clip-rule="evenodd" d="M49.2382 273.067H48.1557V275.769H44.9086V282.975H48.1557V295.585H49.2382V282.975H52.4854V275.769H49.2382V273.067Z"></path></mask><path fill-rule="evenodd" clip-rule="evenodd" d="M49.2382 273.067H48.1557V275.769H44.9086V282.975H48.1557V295.585H49.2382V282.975H52.4854V275.769H49.2382V273.067Z" fill="url(#paint8_linear_2789_250)"></path><path d="M48.1557 273.067V272.642H47.731V273.067H48.1557ZM49.2382 273.067H49.6629V272.642H49.2382V273.067ZM48.1557 275.769V276.194H48.5805V275.769H48.1557ZM44.9086 275.769V275.344H44.4838V275.769H44.9086ZM44.9086 282.975H44.4838V283.4H44.9086V282.975ZM48.1557 282.975H48.5805V282.55H48.1557V282.975ZM48.1557 295.585H47.731V296.01H48.1557V295.585ZM49.2382 295.585V296.01H49.6629V295.585H49.2382ZM49.2382 282.975V282.55H48.8134V282.975H49.2382ZM52.4854 282.975V283.4H52.9102V282.975H52.4854ZM52.4854 275.769H52.9102V275.344H52.4854V275.769ZM49.2382 275.769H48.8134V276.194H49.2382V275.769ZM48.1557 273.492H49.2382V272.642H48.1557V273.492ZM48.5805 275.769V273.067H47.731V275.769H48.5805ZM44.9086 276.194H48.1557V275.344H44.9086V276.194ZM45.3333 282.975V275.769H44.4838V282.975H45.3333ZM48.1557 282.55H44.9086V283.4H48.1557V282.55ZM48.5805 295.585V282.975H47.731V295.585H48.5805ZM49.2382 295.161H48.1557V296.01H49.2382V295.161ZM48.8134 282.975V295.585H49.6629V282.975H48.8134ZM52.4854 282.55H49.2382V283.4H52.4854V282.55ZM52.0607 275.769V282.975H52.9102V275.769H52.0607ZM49.2382 276.194H52.4854V275.344H49.2382V276.194ZM48.8134 273.067V275.769H49.6629V273.067H48.8134Z" fill="#3291B0" mask="url(#path-59-outside-9_2789_250)"></path><mask id="path-61-outside-10_2789_250" maskUnits="userSpaceOnUse" x="34.1669" y="242.342" width="10" height="51" fill="black"><rect fill="white" x="34.1669" y="242.342" width="10" height="51"></rect><path fill-rule="evenodd" clip-rule="evenodd" d="M42.7437 243.342H35.1669V287.479H38.4141V292.883H39.4965V287.479H42.7437V243.342Z"></path></mask><path fill-rule="evenodd" clip-rule="evenodd" d="M42.7437 243.342H35.1669V287.479H38.4141V292.883H39.4965V287.479H42.7437V243.342Z" fill="url(#paint9_linear_2789_250)"></path><path d="M35.1669 243.342V242.917H34.7421V243.342H35.1669ZM42.7437 243.342H43.1685V242.917H42.7437V243.342ZM35.1669 287.479H34.7421V287.903H35.1669V287.479ZM38.4141 287.479H38.8388V287.054H38.4141V287.479ZM38.4141 292.883H37.9893V293.308H38.4141V292.883ZM39.4965 292.883V293.308H39.9212V292.883H39.4965ZM39.4965 287.479V287.054H39.0717V287.479H39.4965ZM42.7437 287.479V287.903H43.1685V287.479H42.7437ZM35.1669 243.767H42.7437V242.917H35.1669V243.767ZM35.5916 287.479V243.342H34.7421V287.479H35.5916ZM38.4141 287.054H35.1669V287.903H38.4141V287.054ZM38.8388 292.883V287.479H37.9893V292.883H38.8388ZM39.4965 292.458H38.4141V293.308H39.4965V292.458ZM39.0717 287.479V292.883H39.9212V287.479H39.0717ZM42.7437 287.054H39.4965V287.903H42.7437V287.054ZM42.319 243.342V287.479H43.1685V243.342H42.319Z" fill="#3291B0" mask="url(#path-61-outside-10_2789_250)"></path><mask id="path-63-outside-11_2789_250" maskUnits="userSpaceOnUse" x="24.4252" y="262.159" width="10" height="37" fill="black"><rect fill="white" x="24.4252" y="262.159" width="10" height="37"></rect><path fill-rule="evenodd" clip-rule="evenodd" d="M29.7548 263.159H28.6724V273.067H25.4252V287.479H28.6724V298.288H29.7548V287.479H33.0021V273.067H29.7548V263.159Z"></path></mask><path fill-rule="evenodd" clip-rule="evenodd" d="M29.7548 263.159H28.6724V273.067H25.4252V287.479H28.6724V298.288H29.7548V287.479H33.0021V273.067H29.7548V263.159Z" fill="url(#paint10_linear_2789_250)"></path><path d="M28.6724 263.159V262.734H28.2476V263.159H28.6724ZM29.7548 263.159H30.1796V262.734H29.7548V263.159ZM28.6724 273.067V273.491H29.0972V273.067H28.6724ZM25.4252 273.067V272.642H25.0005V273.067H25.4252ZM25.4252 287.479H25.0005V287.903H25.4252V287.479ZM28.6724 287.479H29.0972V287.054H28.6724V287.479ZM28.6724 298.288H28.2476V298.712H28.6724V298.288ZM29.7548 298.288V298.712H30.1796V298.288H29.7548ZM29.7548 287.479V287.054H29.3301V287.479H29.7548ZM33.0021 287.479V287.903H33.4268V287.479H33.0021ZM33.0021 273.067H33.4268V272.642H33.0021V273.067ZM29.7548 273.067H29.3301V273.491H29.7548V273.067ZM28.6724 263.583H29.7548V262.734H28.6724V263.583ZM29.0972 273.067V263.159H28.2476V273.067H29.0972ZM25.4252 273.491H28.6724V272.642H25.4252V273.491ZM25.85 287.479V273.067H25.0005V287.479H25.85ZM28.6724 287.054H25.4252V287.903H28.6724V287.054ZM29.0972 298.288V287.479H28.2476V298.288H29.0972ZM29.7548 297.863H28.6724V298.712H29.7548V297.863ZM29.3301 287.479V298.288H30.1796V287.479H29.3301ZM33.0021 287.054H29.7548V287.903H33.0021V287.054ZM32.5773 273.067V287.479H33.4268V273.067H32.5773ZM29.7548 273.491H33.0021V272.642H29.7548V273.491ZM29.3301 263.159V273.067H30.1796V263.159H29.3301Z" fill="#3291B0" mask="url(#path-63-outside-11_2789_250)"></path><mask id="path-65-outside-12_2789_250" maskUnits="userSpaceOnUse" x="14.6836" y="275.67" width="10" height="19" fill="black"><rect fill="white" x="14.6836" y="275.67" width="10" height="19"></rect><path fill-rule="evenodd" clip-rule="evenodd" d="M20.0132 276.67H18.9308V281.173H15.6836V287.479H18.9308V293.784H20.0132V287.479H23.2604V281.173H20.0132V276.67Z"></path></mask><path fill-rule="evenodd" clip-rule="evenodd" d="M20.0132 276.67H18.9308V281.173H15.6836V287.479H18.9308V293.784H20.0132V287.479H23.2604V281.173H20.0132V276.67Z" fill="url(#paint11_linear_2789_250)"></path><path d="M18.9308 276.67V276.245H18.506V276.67H18.9308ZM20.0132 276.67H20.4379V276.245H20.0132V276.67ZM18.9308 281.173V281.598H19.3555V281.173H18.9308ZM15.6836 281.173V280.749H15.2588V281.173H15.6836ZM15.6836 287.479H15.2588V287.903H15.6836V287.479ZM18.9308 287.479H19.3555V287.054H18.9308V287.479ZM18.9308 293.784H18.506V294.209H18.9308V293.784ZM20.0132 293.784V294.209H20.4379V293.784H20.0132ZM20.0132 287.479V287.054H19.5884V287.479H20.0132ZM23.2604 287.479V287.903H23.6852V287.479H23.2604ZM23.2604 281.173H23.6852V280.749H23.2604V281.173ZM20.0132 281.173H19.5884V281.598H20.0132V281.173ZM18.9308 277.095H20.0132V276.245H18.9308V277.095ZM19.3555 281.173V276.67H18.506V281.173H19.3555ZM15.6836 281.598H18.9308V280.749H15.6836V281.598ZM16.1084 287.479V281.173H15.2588V287.479H16.1084ZM18.9308 287.054H15.6836V287.903H18.9308V287.054ZM19.3555 293.784V287.479H18.506V293.784H19.3555ZM20.0132 293.359H18.9308V294.209H20.0132V293.359ZM19.5884 287.479V293.784H20.4379V287.479H19.5884ZM23.2604 287.054H20.0132V287.903H23.2604V287.054ZM22.8357 281.173V287.479H23.6852V281.173H22.8357ZM20.0132 281.598H23.2604V280.749H20.0132V281.598ZM19.5884 276.67V281.173H20.4379V276.67H19.5884Z" fill="#3291B0" mask="url(#path-65-outside-12_2789_250)"></path><mask id="path-67-outside-13_2789_250" maskUnits="userSpaceOnUse" x="131.583" y="230.633" width="10" height="35" fill="black"><rect fill="white" x="131.583" y="230.633" width="10" height="35"></rect><path fill-rule="evenodd" clip-rule="evenodd" d="M136.913 231.633H135.831V233.434H132.583V258.655H135.831V264.96H136.913V258.655H140.16V233.434H136.913V231.633Z"></path></mask><path fill-rule="evenodd" clip-rule="evenodd" d="M136.913 231.633H135.831V233.434H132.583V258.655H135.831V264.96H136.913V258.655H140.16V233.434H136.913V231.633Z" fill="url(#paint12_linear_2789_250)"></path><path d="M135.831 231.633V231.208H135.406V231.633H135.831ZM136.913 231.633H137.338V231.208H136.913V231.633ZM135.831 233.434V233.859H136.255V233.434H135.831ZM132.583 233.434V233.009H132.159V233.434H132.583ZM132.583 258.655H132.159V259.08H132.583V258.655ZM135.831 258.655H136.255V258.23H135.831V258.655ZM135.831 264.96H135.406V265.385H135.831V264.96ZM136.913 264.96V265.385H137.338V264.96H136.913ZM136.913 258.655V258.23H136.488V258.655H136.913ZM140.16 258.655V259.08H140.585V258.655H140.16ZM140.16 233.434H140.585V233.009H140.16V233.434ZM136.913 233.434H136.488V233.859H136.913V233.434ZM135.831 232.057H136.913V231.208H135.831V232.057ZM136.255 233.434V231.633H135.406V233.434H136.255ZM132.583 233.859H135.831V233.009H132.583V233.859ZM133.008 258.655V233.434H132.159V258.655H133.008ZM135.831 258.23H132.583V259.08H135.831V258.23ZM136.255 264.96V258.655H135.406V264.96H136.255ZM136.913 264.535H135.831V265.385H136.913V264.535ZM136.488 258.655V264.96H137.338V258.655H136.488ZM140.16 258.23H136.913V259.08H140.16V258.23ZM139.736 233.434V258.655H140.585V233.434H139.736ZM136.913 233.859H140.16V233.009H136.913V233.859ZM136.488 231.633V233.434H137.338V231.633H136.488Z" fill="#3291B0" mask="url(#path-67-outside-13_2789_250)"></path><mask id="path-69-outside-14_2789_250" maskUnits="userSpaceOnUse" x="141.325" y="245.044" width="10" height="17" fill="black"><rect fill="white" x="141.325" y="245.044" width="10" height="17"></rect><path fill-rule="evenodd" clip-rule="evenodd" d="M146.655 246.044H145.572V251.449H142.325V256.853H145.572V261.357H146.655V256.853H149.902V251.449H146.655V246.044Z"></path></mask><path fill-rule="evenodd" clip-rule="evenodd" d="M146.655 246.044H145.572V251.449H142.325V256.853H145.572V261.357H146.655V256.853H149.902V251.449H146.655V246.044Z" fill="url(#paint13_linear_2789_250)"></path><path d="M145.572 246.044V245.62H145.147V246.044H145.572ZM146.655 246.044H147.079V245.62H146.655V246.044ZM145.572 251.449V251.874H145.997V251.449H145.572ZM142.325 251.449V251.024H141.9V251.449H142.325ZM142.325 256.853H141.9V257.278H142.325V256.853ZM145.572 256.853H145.997V256.429H145.572V256.853ZM145.572 261.357H145.147V261.782H145.572V261.357ZM146.655 261.357V261.782H147.079V261.357H146.655ZM146.655 256.853V256.429H146.23V256.853H146.655ZM149.902 256.853V257.278H150.327V256.853H149.902ZM149.902 251.449H150.327V251.024H149.902V251.449ZM146.655 251.449H146.23V251.874H146.655V251.449ZM145.572 246.469H146.655V245.62H145.572V246.469ZM145.997 251.449V246.044H145.147V251.449H145.997ZM142.325 251.874H145.572V251.024H142.325V251.874ZM142.75 256.853V251.449H141.9V256.853H142.75ZM145.572 256.429H142.325V257.278H145.572V256.429ZM145.997 261.357V256.853H145.147V261.357H145.997ZM146.655 260.932H145.572V261.782H146.655V260.932ZM146.23 256.853V261.357H147.079V256.853H146.23ZM149.902 256.429H146.655V257.278H149.902V256.429ZM149.477 251.449V256.853H150.327V251.449H149.477ZM146.655 251.874H149.902V251.024H146.655V251.874ZM146.23 246.044V251.449H147.079V246.044H146.23Z" fill="#3291B0" mask="url(#path-69-outside-14_2789_250)"></path><mask id="path-71-outside-15_2789_250" maskUnits="userSpaceOnUse" x="151.067" y="234.236" width="10" height="32" fill="black"><rect fill="white" x="151.067" y="234.236" width="10" height="32"></rect><path fill-rule="evenodd" clip-rule="evenodd" d="M156.396 235.236H155.314V246.945H152.067V254.151H155.314V264.96H156.396V254.151H159.644V246.945H156.396V235.236Z"></path></mask><path fill-rule="evenodd" clip-rule="evenodd" d="M156.396 235.236H155.314V246.945H152.067V254.151H155.314V264.96H156.396V254.151H159.644V246.945H156.396V235.236Z" fill="url(#paint14_linear_2789_250)"></path><path d="M155.314 235.236V234.811H154.889V235.236H155.314ZM156.396 235.236H156.821V234.811H156.396V235.236ZM155.314 246.945V247.37H155.739V246.945H155.314ZM152.067 246.945V246.52H151.642V246.945H152.067ZM152.067 254.151H151.642V254.576H152.067V254.151ZM155.314 254.151H155.739V253.726H155.314V254.151ZM155.314 264.96H154.889V265.385H155.314V264.96ZM156.396 264.96V265.385H156.821V264.96H156.396ZM156.396 254.151V253.726H155.972V254.151H156.396ZM159.644 254.151V254.576H160.068V254.151H159.644ZM159.644 246.945H160.068V246.52H159.644V246.945ZM156.396 246.945H155.972V247.37H156.396V246.945ZM155.314 235.66H156.396V234.811H155.314V235.66ZM155.739 246.945V235.236H154.889V246.945H155.739ZM152.067 247.37H155.314V246.52H152.067V247.37ZM152.492 254.151V246.945H151.642V254.151H152.492ZM155.314 253.726H152.067V254.576H155.314V253.726ZM155.739 264.96V254.151H154.889V264.96H155.739ZM156.396 264.535H155.314V265.385H156.396V264.535ZM155.972 254.151V264.96H156.821V254.151H155.972ZM159.644 253.726H156.396V254.576H159.644V253.726ZM159.219 246.945V254.151H160.068V246.945H159.219ZM156.396 247.37H159.644V246.52H156.396V247.37ZM155.972 235.236V246.945H156.821V235.236H155.972Z" fill="#3291B0" mask="url(#path-71-outside-15_2789_250)"></path><mask id="path-73-outside-16_2789_250" maskUnits="userSpaceOnUse" x="160.808" y="228.831" width="10" height="30" fill="black"><rect fill="white" x="160.808" y="228.831" width="10" height="30"></rect><path fill-rule="evenodd" clip-rule="evenodd" d="M166.138 229.831H165.056V244.243H161.808V250.548H165.056V257.754H166.138V250.548H169.385V244.243H166.138V229.831Z"></path></mask><path fill-rule="evenodd" clip-rule="evenodd" d="M166.138 229.831H165.056V244.243H161.808V250.548H165.056V257.754H166.138V250.548H169.385V244.243H166.138V229.831Z" fill="url(#paint15_linear_2789_250)"></path><path d="M165.056 229.831V229.406H164.631V229.831H165.056ZM166.138 229.831H166.563V229.406H166.138V229.831ZM165.056 244.243V244.668H165.48V244.243H165.056ZM161.808 244.243V243.818H161.384V244.243H161.808ZM161.808 250.548H161.384V250.973H161.808V250.548ZM165.056 250.548H165.48V250.123H165.056V250.548ZM165.056 257.754H164.631V258.179H165.056V257.754ZM166.138 257.754V258.179H166.563V257.754H166.138ZM166.138 250.548V250.123H165.713V250.548H166.138ZM169.385 250.548V250.973H169.81V250.548H169.385ZM169.385 244.243H169.81V243.818H169.385V244.243ZM166.138 244.243H165.713V244.668H166.138V244.243ZM165.056 230.256H166.138V229.406H165.056V230.256ZM165.48 244.243V229.831H164.631V244.243H165.48ZM161.808 244.668H165.056V243.818H161.808V244.668ZM162.233 250.548V244.243H161.384V250.548H162.233ZM165.056 250.123H161.808V250.973H165.056V250.123ZM165.48 257.754V250.548H164.631V257.754H165.48ZM166.138 257.329H165.056V258.179H166.138V257.329ZM165.713 250.548V257.754H166.563V250.548H165.713ZM169.385 250.123H166.138V250.973H169.385V250.123ZM168.961 244.243V250.548H169.81V244.243H168.961ZM166.138 244.668H169.385V243.818H166.138V244.668ZM165.713 229.831V244.243H166.563V229.831H165.713Z" fill="#3291B0" mask="url(#path-73-outside-16_2789_250)"></path><mask id="path-75-outside-17_2789_250" maskUnits="userSpaceOnUse" x="170.55" y="218.923" width="10" height="55" fill="black"><rect fill="white" x="170.55" y="218.923" width="10" height="55"></rect><path fill-rule="evenodd" clip-rule="evenodd" d="M179.127 219.923H171.55V255.953H174.797V273.067H175.88V255.953H179.127V219.923Z"></path></mask><path fill-rule="evenodd" clip-rule="evenodd" d="M179.127 219.923H171.55V255.953H174.797V273.067H175.88V255.953H179.127V219.923Z" fill="url(#paint16_linear_2789_250)"></path><path d="M171.55 219.923V219.498H171.125V219.923H171.55ZM179.127 219.923H179.552V219.498H179.127V219.923ZM171.55 255.953H171.125V256.377H171.55V255.953ZM174.797 255.953H175.222V255.528H174.797V255.953ZM174.797 273.067H174.373V273.492H174.797V273.067ZM175.88 273.067V273.492H176.304V273.067H175.88ZM175.88 255.953V255.528H175.455V255.953H175.88ZM179.127 255.953V256.377H179.552V255.953H179.127ZM171.55 220.348H179.127V219.498H171.55V220.348ZM171.975 255.953V219.923H171.125V255.953H171.975ZM174.797 255.528H171.55V256.377H174.797V255.528ZM175.222 273.067V255.953H174.373V273.067H175.222ZM175.88 272.642H174.797V273.492H175.88V272.642ZM175.455 255.953V273.067H176.304V255.953H175.455ZM179.127 255.528H175.88V256.377H179.127V255.528ZM178.702 219.923V255.953H179.552V219.923H178.702Z" fill="#3291B0" mask="url(#path-75-outside-17_2789_250)"></path><mask id="path-77-outside-18_2789_250" maskUnits="userSpaceOnUse" x="180.292" y="184.695" width="10" height="60" fill="black"><rect fill="white" x="180.292" y="184.695" width="10" height="60"></rect><path fill-rule="evenodd" clip-rule="evenodd" d="M185.621 185.695H184.539V204.61H181.292V244.243H188.869V204.61H185.621V185.695Z"></path></mask><path fill-rule="evenodd" clip-rule="evenodd" d="M185.621 185.695H184.539V204.61H181.292V244.243H188.869V204.61H185.621V185.695Z" fill="url(#paint17_linear_2789_250)"></path><path d="M184.539 185.695V185.27H184.114V185.695H184.539ZM185.621 185.695H186.046V185.27H185.621V185.695ZM184.539 204.61V205.035H184.964V204.61H184.539ZM181.292 204.61V204.185H180.867V204.61H181.292ZM181.292 244.243H180.867V244.668H181.292V244.243ZM188.869 244.243V244.668H189.293V244.243H188.869ZM188.869 204.61H189.293V204.185H188.869V204.61ZM185.621 204.61H185.197V205.035H185.621V204.61ZM184.539 186.119H185.621V185.27H184.539V186.119ZM184.964 204.61V185.695H184.114V204.61H184.964ZM181.292 205.035H184.539V204.185H181.292V205.035ZM181.717 244.243V204.61H180.867V244.243H181.717ZM188.869 243.818H181.292V244.668H188.869V243.818ZM188.444 204.61V244.243H189.293V204.61H188.444ZM185.621 205.035H188.869V204.185H185.621V205.035ZM185.197 185.695V204.61H186.046V185.695H185.197Z" fill="#3291B0" mask="url(#path-77-outside-18_2789_250)"></path><mask id="path-79-outside-19_2789_250" maskUnits="userSpaceOnUse" x="190.033" y="186.496" width="10" height="30" fill="black"><rect fill="white" x="190.033" y="186.496" width="10" height="30"></rect><path fill-rule="evenodd" clip-rule="evenodd" d="M195.363 187.496H194.281V188.397H191.033V213.618H194.281V215.419H195.363V213.618H198.61V188.397H195.363V187.496Z"></path></mask><path fill-rule="evenodd" clip-rule="evenodd" d="M195.363 187.496H194.281V188.397H191.033V213.618H194.281V215.419H195.363V213.618H198.61V188.397H195.363V187.496Z" fill="url(#paint18_linear_2789_250)"></path><path d="M194.281 187.496V187.071H193.856V187.496H194.281ZM195.363 187.496H195.788V187.071H195.363V187.496ZM194.281 188.397V188.822H194.705V188.397H194.281ZM191.033 188.397V187.972H190.609V188.397H191.033ZM191.033 213.618H190.609V214.042H191.033V213.618ZM194.281 213.618H194.705V213.193H194.281V213.618ZM194.281 215.419H193.856V215.844H194.281V215.419ZM195.363 215.419V215.844H195.788V215.419H195.363ZM195.363 213.618V213.193H194.938V213.618H195.363ZM198.61 213.618V214.042H199.035V213.618H198.61ZM198.61 188.397H199.035V187.972H198.61V188.397ZM195.363 188.397H194.938V188.822H195.363V188.397ZM194.281 187.921H195.363V187.071H194.281V187.921ZM194.705 188.397V187.496H193.856V188.397H194.705ZM191.033 188.822H194.281V187.972H191.033V188.822ZM191.458 213.618V188.397H190.609V213.618H191.458ZM194.281 213.193H191.033V214.042H194.281V213.193ZM194.705 215.419V213.618H193.856V215.419H194.705ZM195.363 214.994H194.281V215.844H195.363V214.994ZM194.938 213.618V215.419H195.788V213.618H194.938ZM198.61 213.193H195.363V214.042H198.61V213.193ZM198.186 188.397V213.618H199.035V188.397H198.186ZM195.363 188.822H198.61V187.972H195.363V188.822ZM194.938 187.496V188.397H195.788V187.496H194.938Z" fill="#3291B0" mask="url(#path-79-outside-19_2789_250)"></path><mask id="path-81-outside-20_2789_250" maskUnits="userSpaceOnUse" x="199.775" y="190.099" width="10" height="33" fill="black"><rect fill="white" x="199.775" y="190.099" width="10" height="33"></rect><path fill-rule="evenodd" clip-rule="evenodd" d="M208.352 191.099H200.775V213.618H204.022V221.724H205.105V213.618H208.352V191.099Z"></path></mask><path fill-rule="evenodd" clip-rule="evenodd" d="M208.352 191.099H200.775V213.618H204.022V221.724H205.105V213.618H208.352V191.099Z" fill="url(#paint19_linear_2789_250)"></path><path d="M200.775 191.099V190.674H200.35V191.099H200.775ZM208.352 191.099H208.777V190.674H208.352V191.099ZM200.775 213.618H200.35V214.042H200.775V213.618ZM204.022 213.618H204.447V213.193H204.022V213.618ZM204.022 221.724H203.598V222.149H204.022V221.724ZM205.105 221.724V222.149H205.53V221.724H205.105ZM205.105 213.618V213.193H204.68V213.618H205.105ZM208.352 213.618V214.042H208.777V213.618H208.352ZM200.775 191.524H208.352V190.674H200.775V191.524ZM201.2 213.618V191.099H200.35V213.618H201.2ZM204.022 213.193H200.775V214.042H204.022V213.193ZM204.447 221.724V213.618H203.598V221.724H204.447ZM205.105 221.3H204.022V222.149H205.105V221.3ZM204.68 213.618V221.724H205.53V213.618H204.68ZM208.352 213.193H205.105V214.042H208.352V213.193ZM207.927 191.099V213.618H208.777V191.099H207.927Z" fill="#3291B0" mask="url(#path-81-outside-20_2789_250)"></path><mask id="path-83-outside-21_2789_250" maskUnits="userSpaceOnUse" x="209.517" y="200.908" width="10" height="30" fill="black"><rect fill="white" x="209.517" y="200.908" width="10" height="30"></rect><path fill-rule="evenodd" clip-rule="evenodd" d="M218.094 201.908H210.517V213.618H213.764V229.831H214.846V213.618H218.094V201.908Z"></path></mask><path fill-rule="evenodd" clip-rule="evenodd" d="M218.094 201.908H210.517V213.618H213.764V229.831H214.846V213.618H218.094V201.908Z" fill="url(#paint20_linear_2789_250)"></path><path d="M210.517 201.908V201.483H210.092V201.908H210.517ZM218.094 201.908H218.518V201.483H218.094V201.908ZM210.517 213.618H210.092V214.042H210.517V213.618ZM213.764 213.618H214.189V213.193H213.764V213.618ZM213.764 229.831H213.339V230.256H213.764V229.831ZM214.846 229.831V230.256H215.271V229.831H214.846ZM214.846 213.618V213.193H214.422V213.618H214.846ZM218.094 213.618V214.042H218.518V213.618H218.094ZM210.517 202.333H218.094V201.483H210.517V202.333ZM210.941 213.618V201.908H210.092V213.618H210.941ZM213.764 213.193H210.517V214.042H213.764V213.193ZM214.189 229.831V213.618H213.339V229.831H214.189ZM214.846 229.406H213.764V230.256H214.846V229.406ZM214.422 213.618V229.831H215.271V213.618H214.422ZM218.094 213.193H214.846V214.042H218.094V213.193ZM217.669 201.908V213.618H218.518V201.908H217.669Z" fill="#3291B0" mask="url(#path-83-outside-21_2789_250)"></path><mask id="path-85-outside-22_2789_250" maskUnits="userSpaceOnUse" x="219.258" y="159.474" width="10" height="53" fill="black"><rect fill="white" x="219.258" y="159.474" width="10" height="53"></rect><path fill-rule="evenodd" clip-rule="evenodd" d="M224.588 160.474H223.506V163.176H220.258V201.908H223.506V211.816H224.588V201.908H227.835V163.176H224.588V160.474Z"></path></mask><path fill-rule="evenodd" clip-rule="evenodd" d="M224.588 160.474H223.506V163.176H220.258V201.908H223.506V211.816H224.588V201.908H227.835V163.176H224.588V160.474Z" fill="url(#paint21_linear_2789_250)"></path><path d="M223.506 160.474V160.049H223.081V160.474H223.506ZM224.588 160.474H225.013V160.049H224.588V160.474ZM223.506 163.176V163.601H223.93V163.176H223.506ZM220.258 163.176V162.751H219.834V163.176H220.258ZM220.258 201.908H219.834V202.333H220.258V201.908ZM223.506 201.908H223.93V201.483H223.506V201.908ZM223.506 211.816H223.081V212.241H223.506V211.816ZM224.588 211.816V212.241H225.013V211.816H224.588ZM224.588 201.908V201.483H224.163V201.908H224.588ZM227.835 201.908V202.333H228.26V201.908H227.835ZM227.835 163.176H228.26V162.751H227.835V163.176ZM224.588 163.176H224.163V163.601H224.588V163.176ZM223.506 160.898H224.588V160.049H223.506V160.898ZM223.93 163.176V160.474H223.081V163.176H223.93ZM220.258 163.601H223.506V162.751H220.258V163.601ZM220.683 201.908V163.176H219.834V201.908H220.683ZM223.506 201.483H220.258V202.333H223.506V201.483ZM223.93 211.816V201.908H223.081V211.816H223.93ZM224.588 211.391H223.506V212.241H224.588V211.391ZM224.163 201.908V211.816H225.013V201.908H224.163ZM227.835 201.483H224.588V202.333H227.835V201.483ZM227.411 163.176V201.908H228.26V163.176H227.411ZM224.588 163.601H227.835V162.751H224.588V163.601ZM224.163 160.474V163.176H225.013V160.474H224.163Z" fill="#3291B0" mask="url(#path-85-outside-22_2789_250)"></path><mask id="path-87-outside-23_2789_250" maskUnits="userSpaceOnUse" x="229" y="138.757" width="10" height="35" fill="black"><rect fill="white" x="229" y="138.757" width="10" height="35"></rect><path fill-rule="evenodd" clip-rule="evenodd" d="M234.33 139.757H233.247V144.26H230V163.176H233.247V173.084H234.33V163.176H237.577V144.26H234.33V139.757Z"></path></mask><path fill-rule="evenodd" clip-rule="evenodd" d="M234.33 139.757H233.247V144.26H230V163.176H233.247V173.084H234.33V163.176H237.577V144.26H234.33V139.757Z" fill="url(#paint22_linear_2789_250)"></path><path d="M233.247 139.757V139.332H232.823V139.757H233.247ZM234.33 139.757H234.755V139.332H234.33V139.757ZM233.247 144.26V144.685H233.672V144.26H233.247ZM230 144.26V143.836H229.575V144.26H230ZM230 163.176H229.575V163.601H230V163.176ZM233.247 163.176H233.672V162.751H233.247V163.176ZM233.247 173.084H232.823V173.509H233.247V173.084ZM234.33 173.084V173.509H234.755V173.084H234.33ZM234.33 163.176V162.751H233.905V163.176H234.33ZM237.577 163.176V163.601H238.002V163.176H237.577ZM237.577 144.26H238.002V143.836H237.577V144.26ZM234.33 144.26H233.905V144.685H234.33V144.26ZM233.247 140.181H234.33V139.332H233.247V140.181ZM233.672 144.26V139.757H232.823V144.26H233.672ZM230 144.685H233.247V143.836H230V144.685ZM230.425 163.176V144.26H229.575V163.176H230.425ZM233.247 162.751H230V163.601H233.247V162.751ZM233.672 173.084V163.176H232.823V173.084H233.672ZM234.33 172.659H233.247V173.509H234.33V172.659ZM233.905 163.176V173.084H234.755V163.176H233.905ZM237.577 162.751H234.33V163.601H237.577V162.751ZM237.152 144.26V163.176H238.002V144.26H237.152ZM234.33 144.685H237.577V143.836H234.33V144.685ZM233.905 139.757V144.26H234.755V139.757H233.905Z" fill="#3291B0" mask="url(#path-87-outside-23_2789_250)"></path><mask id="path-89-outside-24_2789_250" maskUnits="userSpaceOnUse" x="238.742" y="127.948" width="10" height="26" fill="black"><rect fill="white" x="238.742" y="127.948" width="10" height="26"></rect><path fill-rule="evenodd" clip-rule="evenodd" d="M244.071 128.948H242.989V134.352H239.742V142.459H242.989V153.268H244.071V142.459H247.319V134.352H244.071V128.948Z"></path></mask><path fill-rule="evenodd" clip-rule="evenodd" d="M244.071 128.948H242.989V134.352H239.742V142.459H242.989V153.268H244.071V142.459H247.319V134.352H244.071V128.948Z" fill="url(#paint23_linear_2789_250)"></path><path d="M242.989 128.948V128.523H242.564V128.948H242.989ZM244.071 128.948H244.496V128.523H244.071V128.948ZM242.989 134.352V134.777H243.414V134.352H242.989ZM239.742 134.352V133.927H239.317V134.352H239.742ZM239.742 142.459H239.317V142.884H239.742V142.459ZM242.989 142.459H243.414V142.034H242.989V142.459ZM242.989 153.268H242.564V153.693H242.989V153.268ZM244.071 153.268V153.693H244.496V153.268H244.071ZM244.071 142.459V142.034H243.647V142.459H244.071ZM247.319 142.459V142.884H247.743V142.459H247.319ZM247.319 134.352H247.743V133.927H247.319V134.352ZM244.071 134.352H243.647V134.777H244.071V134.352ZM242.989 129.372H244.071V128.523H242.989V129.372ZM243.414 134.352V128.948H242.564V134.352H243.414ZM239.742 134.777H242.989V133.927H239.742V134.777ZM240.166 142.459V134.352H239.317V142.459H240.166ZM242.989 142.034H239.742V142.884H242.989V142.034ZM243.414 153.268V142.459H242.564V153.268H243.414ZM244.071 152.843H242.989V153.693H244.071V152.843ZM243.647 142.459V153.268H244.496V142.459H243.647ZM247.319 142.034H244.071V142.884H247.319V142.034ZM246.894 134.352V142.459H247.743V134.352H246.894ZM244.071 134.777H247.319V133.927H244.071V134.777ZM243.647 128.948V134.352H244.496V128.948H243.647Z" fill="#3291B0" mask="url(#path-89-outside-24_2789_250)"></path><mask id="path-91-outside-25_2789_250" maskUnits="userSpaceOnUse" x="248.483" y="125.246" width="10" height="15" fill="black"><rect fill="white" x="248.483" y="125.246" width="10" height="15"></rect><path fill-rule="evenodd" clip-rule="evenodd" d="M253.813 126.246H252.731V131.65H249.483V136.154H252.731V139.757H253.813V136.154H257.06V131.65H253.813V126.246Z"></path></mask><path fill-rule="evenodd" clip-rule="evenodd" d="M253.813 126.246H252.731V131.65H249.483V136.154H252.731V139.757H253.813V136.154H257.06V131.65H253.813V126.246Z" fill="url(#paint24_linear_2789_250)"></path><path d="M252.731 126.246V125.821H252.306V126.246H252.731ZM253.813 126.246H254.238V125.821H253.813V126.246ZM252.731 131.65V132.075H253.155V131.65H252.731ZM249.483 131.65V131.225H249.059V131.65H249.483ZM249.483 136.154H249.059V136.578H249.483V136.154ZM252.731 136.154H253.155V135.729H252.731V136.154ZM252.731 139.757H252.306V140.181H252.731V139.757ZM253.813 139.757V140.181H254.238V139.757H253.813ZM253.813 136.154V135.729H253.388V136.154H253.813ZM257.06 136.154V136.578H257.485V136.154H257.06ZM257.06 131.65H257.485V131.225H257.06V131.65ZM253.813 131.65H253.388V132.075H253.813V131.65ZM252.731 126.67H253.813V125.821H252.731V126.67ZM253.155 131.65V126.246H252.306V131.65H253.155ZM249.483 132.075H252.731V131.225H249.483V132.075ZM249.908 136.154V131.65H249.059V136.154H249.908ZM252.731 135.729H249.483V136.578H252.731V135.729ZM253.155 139.757V136.154H252.306V139.757H253.155ZM253.813 139.332H252.731V140.181H253.813V139.332ZM253.388 136.154V139.757H254.238V136.154H253.388ZM257.06 135.729H253.813V136.578H257.06V135.729ZM256.635 131.65V136.154H257.485V131.65H256.635ZM253.813 132.075H257.06V131.225H253.813V132.075ZM253.388 126.246V131.65H254.238V126.246H253.388Z" fill="#3291B0" mask="url(#path-91-outside-25_2789_250)"></path><mask id="path-93-outside-26_2789_250" maskUnits="userSpaceOnUse" x="258.225" y="130.65" width="10" height="17" fill="black"><rect fill="white" x="258.225" y="130.65" width="10" height="17"></rect><path fill-rule="evenodd" clip-rule="evenodd" d="M266.802 131.65H259.225V137.955H262.472V146.963H263.555V137.955H266.802V131.65Z"></path></mask><path fill-rule="evenodd" clip-rule="evenodd" d="M266.802 131.65H259.225V137.955H262.472V146.963H263.555V137.955H266.802V131.65Z" fill="url(#paint25_linear_2789_250)"></path><path d="M259.225 131.65V131.225H258.8V131.65H259.225ZM266.802 131.65H267.227V131.225H266.802V131.65ZM259.225 137.955H258.8V138.38H259.225V137.955ZM262.472 137.955H262.897V137.53H262.472V137.955ZM262.472 146.963H262.048V147.387H262.472V146.963ZM263.555 146.963V147.387H263.979V146.963H263.555ZM263.555 137.955V137.53H263.13V137.955H263.555ZM266.802 137.955V138.38H267.227V137.955H266.802ZM259.225 132.075H266.802V131.225H259.225V132.075ZM259.65 137.955V131.65H258.8V137.955H259.65ZM262.472 137.53H259.225V138.38H262.472V137.53ZM262.897 146.963V137.955H262.048V146.963H262.897ZM263.555 146.538H262.472V147.387H263.555V146.538ZM263.13 137.955V146.963H263.979V137.955H263.13ZM266.802 137.53H263.555V138.38H266.802V137.53ZM266.377 131.65V137.955H267.227V131.65H266.377Z" fill="#3291B0" mask="url(#path-93-outside-26_2789_250)"></path><mask id="path-95-outside-27_2789_250" maskUnits="userSpaceOnUse" x="267.967" y="82.0097" width="10" height="66" fill="black"><rect fill="white" x="267.967" y="82.0097" width="10" height="66"></rect><path fill-rule="evenodd" clip-rule="evenodd" d="M273.296 83.0097H272.214V93.8187H268.967V137.955H272.214V146.962H273.296V137.955H276.544V93.8187H273.296V83.0097Z"></path></mask><path fill-rule="evenodd" clip-rule="evenodd" d="M273.296 83.0097H272.214V93.8187H268.967V137.955H272.214V146.962H273.296V137.955H276.544V93.8187H273.296V83.0097Z" fill="url(#paint26_linear_2789_250)"></path><path d="M272.214 83.0097V82.5849H271.789V83.0097H272.214ZM273.296 83.0097H273.721V82.5849H273.296V83.0097ZM272.214 93.8187V94.2435H272.639V93.8187H272.214ZM268.967 93.8187V93.394H268.542V93.8187H268.967ZM268.967 137.955H268.542V138.38H268.967V137.955ZM272.214 137.955H272.639V137.53H272.214V137.955ZM272.214 146.962H271.789V147.387H272.214V146.962ZM273.296 146.962V147.387H273.721V146.962H273.296ZM273.296 137.955V137.53H272.872V137.955H273.296ZM276.544 137.955V138.38H276.968V137.955H276.544ZM276.544 93.8187H276.968V93.394H276.544V93.8187ZM273.296 93.8187H272.872V94.2435H273.296V93.8187ZM272.214 83.4344H273.296V82.5849H272.214V83.4344ZM272.639 93.8187V83.0097H271.789V93.8187H272.639ZM268.967 94.2435H272.214V93.394H268.967V94.2435ZM269.391 137.955V93.8187H268.542V137.955H269.391ZM272.214 137.53H268.967V138.38H272.214V137.53ZM272.639 146.962V137.955H271.789V146.962H272.639ZM273.296 146.538H272.214V147.387H273.296V146.538ZM272.872 137.955V146.962H273.721V137.955H272.872ZM276.544 137.53H273.296V138.38H276.544V137.53ZM276.119 93.8187V137.955H276.968V93.8187H276.119ZM273.296 94.2435H276.544V93.394H273.296V94.2435ZM272.872 83.0097V93.8187H273.721V83.0097H272.872Z" fill="#3291B0" mask="url(#path-95-outside-27_2789_250)"></path><mask id="path-97-outside-28_2789_250" maskUnits="userSpaceOnUse" x="277.708" y="60.3919" width="10" height="44" fill="black"><rect fill="white" x="277.708" y="60.3919" width="10" height="44"></rect><path fill-rule="evenodd" clip-rule="evenodd" d="M283.038 61.3919H281.956V67.6971H278.708V93.8187H281.956V103.727H283.038V93.8187H286.285V67.6971H283.038V61.3919Z"></path></mask><path fill-rule="evenodd" clip-rule="evenodd" d="M283.038 61.3919H281.956V67.6971H278.708V93.8187H281.956V103.727H283.038V93.8187H286.285V67.6971H283.038V61.3919Z" fill="url(#paint27_linear_2789_250)"></path><path d="M281.956 61.3919V60.9671H281.531V61.3919H281.956ZM283.038 61.3919H283.463V60.9671H283.038V61.3919ZM281.956 67.6971V68.1219H282.38V67.6971H281.956ZM278.708 67.6971V67.2724H278.284V67.6971H278.708ZM278.708 93.8187H278.284V94.2435H278.708V93.8187ZM281.956 93.8187H282.38V93.394H281.956V93.8187ZM281.956 103.727H281.531V104.152H281.956V103.727ZM283.038 103.727V104.152H283.463V103.727H283.038ZM283.038 93.8187V93.394H282.613V93.8187H283.038ZM286.285 93.8187V94.2435H286.71V93.8187H286.285ZM286.285 67.6971H286.71V67.2724H286.285V67.6971ZM283.038 67.6971H282.613V68.1219H283.038V67.6971ZM281.956 61.8167H283.038V60.9671H281.956V61.8167ZM282.38 67.6971V61.3919H281.531V67.6971H282.38ZM278.708 68.1219H281.956V67.2724H278.708V68.1219ZM279.133 93.8187V67.6971H278.284V93.8187H279.133ZM281.956 93.394H278.708V94.2435H281.956V93.394ZM282.38 103.727V93.8187H281.531V103.727H282.38ZM283.038 103.302H281.956V104.152H283.038V103.302ZM282.613 93.8187V103.727H283.463V93.8187H282.613ZM286.285 93.394H283.038V94.2435H286.285V93.394ZM285.86 67.6971V93.8187H286.71V67.6971H285.86ZM283.038 68.1219H286.285V67.2724H283.038V68.1219ZM282.613 61.3919V67.6971H283.463V61.3919H282.613Z" fill="#3291B0" mask="url(#path-97-outside-28_2789_250)"></path><mask id="path-99-outside-29_2789_250" maskUnits="userSpaceOnUse" x="287.45" y="41.4762" width="10" height="44" fill="black"><rect fill="white" x="287.45" y="41.4762" width="10" height="44"></rect><path fill-rule="evenodd" clip-rule="evenodd" d="M292.78 42.4762H291.697V55.0867H288.45V81.2083H291.697V84.8112H292.78V81.2083H296.027V55.0867H292.78V42.4762Z"></path></mask><path fill-rule="evenodd" clip-rule="evenodd" d="M292.78 42.4762H291.697V55.0867H288.45V81.2083H291.697V84.8112H292.78V81.2083H296.027V55.0867H292.78V42.4762Z" fill="url(#paint28_linear_2789_250)"></path><path d="M291.697 42.4762V42.0514H291.272V42.4762H291.697ZM292.78 42.4762H293.204V42.0514H292.78V42.4762ZM291.697 55.0867V55.5114H292.122V55.0867H291.697ZM288.45 55.0867V54.6619H288.025V55.0867H288.45ZM288.45 81.2083H288.025V81.633H288.45V81.2083ZM291.697 81.2083H292.122V80.7835H291.697V81.2083ZM291.697 84.8112H291.272V85.2359H291.697V84.8112ZM292.78 84.8112V85.2359H293.204V84.8112H292.78ZM292.78 81.2083V80.7835H292.355V81.2083H292.78ZM296.027 81.2083V81.633H296.452V81.2083H296.027ZM296.027 55.0867H296.452V54.6619H296.027V55.0867ZM292.78 55.0867H292.355V55.5114H292.78V55.0867ZM291.697 42.901H292.78V42.0514H291.697V42.901ZM292.122 55.0867V42.4762H291.272V55.0867H292.122ZM288.45 55.5114H291.697V54.6619H288.45V55.5114ZM288.875 81.2083V55.0867H288.025V81.2083H288.875ZM291.697 80.7835H288.45V81.633H291.697V80.7835ZM292.122 84.8112V81.2083H291.272V84.8112H292.122ZM292.78 84.3864H291.697V85.2359H292.78V84.3864ZM292.355 81.2083V84.8112H293.204V81.2083H292.355ZM296.027 80.7835H292.78V81.633H296.027V80.7835ZM295.602 55.0867V81.2083H296.452V55.0867H295.602ZM292.78 55.5114H296.027V54.6619H292.78V55.5114ZM292.355 42.4762V55.0867H293.204V42.4762H292.355Z" fill="#3291B0" mask="url(#path-99-outside-29_2789_250)"></path><rect x="0.653442" y="235.253" width="311.057" height="90.8339" fill="url(#paint29_linear_2789_250)"></rect><path opacity="0.4" d="M-5.88141 289.492H317.918" stroke="#176B87" stroke-width="0.653481" stroke-dasharray="3.92 3.92"></path><path opacity="0.4" d="M-5.88141 231.332H317.918" stroke="#176B87" stroke-width="0.653481" stroke-dasharray="3.92 3.92"></path><path opacity="0.4" d="M-5.88141 94.1012H317.918" stroke="#176B87" stroke-width="0.653481" stroke-dasharray="3.92 3.92"></path><g filter="url(#filter0_d_2789_250)"><rect x="15.6836" y="18.2975" width="55.5459" height="19.4557" rx="9.72785" fill="url(#paint30_linear_2789_250)" shape-rendering="crispEdges"></rect><rect x="15.8796" y="18.4935" width="55.1538" height="19.0636" rx="9.5318" stroke="#176B87" stroke-width="0.392089" shape-rendering="crispEdges"></rect><path d="M33.1694 25.734H31.3188V30.5253H30.4327V25.734H28.5742V24.9577H33.1694V25.734ZM33.9161 30.5253V24.9655H34.7943V27.8278L37.4135 24.9577H38.3859L36.1902 27.42L38.5113 30.5253H37.5154L35.6334 27.9767L34.7943 28.8472V30.5253H33.9161ZM39.9711 26.5888V30.5253H39.0929V24.9577H39.8143L42.9667 28.9805V24.9655H43.8528V30.5253H43.0843L39.9711 26.5888ZM45.1044 30.5253V24.9577H47.4412C47.6922 24.9577 47.9222 25.0099 48.1313 25.1145C48.3404 25.2191 48.5234 25.3576 48.6802 25.5301C48.8371 25.7026 48.9573 25.8961 49.0409 26.1104C49.1246 26.3247 49.1664 26.5443 49.1664 26.7691C49.1664 27.0776 49.0958 27.3729 48.9547 27.6552C48.8188 27.9323 48.6227 28.1571 48.3666 28.3296C48.1156 28.5021 47.8229 28.5884 47.4883 28.5884H45.9827V30.5253H45.1044ZM45.9827 27.8121H47.4334C47.6007 27.8121 47.7471 27.7676 47.8725 27.6788C47.998 27.5847 48.0947 27.4592 48.1627 27.3024C48.2359 27.1455 48.2725 26.9678 48.2725 26.7691C48.2725 26.5652 48.2306 26.3849 48.147 26.228C48.0633 26.0712 47.9536 25.951 47.8176 25.8673C47.6869 25.7784 47.5432 25.734 47.3863 25.734H45.9827V27.8121ZM49.9902 30.5253V24.9577H50.8684V29.749H53.8562V30.5253H49.9902ZM57.8205 25.734H55.9698V30.5253H55.0837V25.734H53.2252V24.9577H57.8205V25.734Z" fill="white"></path></g><g filter="url(#filter1_d_2789_250)"><rect x="207.153" y="18.2975" width="89.5269" height="19.4557" rx="9.72785" fill="url(#paint31_linear_2789_250)" shape-rendering="crispEdges"></rect><rect x="207.349" y="18.4935" width="89.1348" height="19.0636" rx="9.5318" stroke="#176B87" stroke-width="0.392089" shape-rendering="crispEdges"></rect><path d="M221.029 30.5253V24.9577H223.366C223.617 24.9577 223.847 25.0099 224.056 25.1145C224.265 25.2191 224.448 25.3576 224.605 25.5301C224.762 25.7026 224.882 25.8961 224.966 26.1104C225.049 26.3247 225.091 26.5443 225.091 26.7691C225.091 27.0776 225.021 27.3729 224.88 27.6552C224.744 27.9323 224.548 28.1571 224.291 28.3296C224.04 28.5021 223.748 28.5884 223.413 28.5884H221.907V30.5253H221.029ZM221.907 27.8121H223.358C223.525 27.8121 223.672 27.7676 223.797 27.6788C223.923 27.5847 224.02 27.4592 224.087 27.3024C224.161 27.1455 224.197 26.9678 224.197 26.7691C224.197 26.5652 224.155 26.3849 224.072 26.228C223.988 26.0712 223.878 25.951 223.742 25.8673C223.612 25.7784 223.468 25.734 223.311 25.734H221.907V27.8121ZM225.461 29.3255C225.461 29.0641 225.534 28.8367 225.681 28.6433C225.832 28.4446 226.039 28.293 226.3 28.1885C226.562 28.0787 226.865 28.0238 227.21 28.0238C227.393 28.0238 227.579 28.0369 227.767 28.063C227.96 28.0891 228.13 28.131 228.276 28.1885V27.9297C228.276 27.6422 228.19 27.4174 228.018 27.2553C227.845 27.0932 227.597 27.0122 227.273 27.0122C227.043 27.0122 226.826 27.054 226.622 27.1377C226.418 27.2161 226.201 27.3285 225.971 27.4749L225.681 26.8946C225.953 26.7116 226.225 26.5757 226.496 26.4868C226.773 26.3979 227.064 26.3535 227.367 26.3535C227.916 26.3535 228.347 26.4999 228.661 26.7926C228.98 27.0802 229.139 27.4906 229.139 28.0238V29.5529C229.139 29.6523 229.155 29.7228 229.186 29.7647C229.223 29.8065 229.283 29.83 229.366 29.8352V30.5253C229.288 30.541 229.217 30.5515 229.155 30.5567C229.092 30.5619 229.04 30.5645 228.998 30.5645C228.815 30.5645 228.676 30.5201 228.582 30.4312C228.488 30.3423 228.433 30.2378 228.418 30.1175L228.394 29.8823C228.216 30.1123 227.989 30.2901 227.712 30.4155C227.435 30.541 227.155 30.6037 226.873 30.6037C226.601 30.6037 226.358 30.5488 226.144 30.4391C225.929 30.324 225.762 30.1698 225.642 29.9764C225.521 29.783 225.461 29.566 225.461 29.3255ZM228.073 29.5765C228.135 29.5085 228.185 29.4405 228.222 29.3726C228.258 29.3046 228.276 29.2445 228.276 29.1922V28.7217C228.13 28.6642 227.976 28.6224 227.814 28.5962C227.652 28.5649 227.492 28.5492 227.335 28.5492C227.022 28.5492 226.766 28.6119 226.567 28.7374C226.374 28.8629 226.277 29.0354 226.277 29.255C226.277 29.3752 226.308 29.4902 226.371 29.6C226.439 29.7098 226.533 29.7987 226.653 29.8666C226.779 29.9346 226.933 29.9686 227.116 29.9686C227.304 29.9686 227.484 29.932 227.657 29.8588C227.829 29.7856 227.968 29.6915 228.073 29.5765ZM231.644 30.6037C231.299 30.6037 230.972 30.5488 230.664 30.4391C230.355 30.324 230.091 30.1541 229.872 29.9293L230.193 29.3491C230.429 29.5582 230.664 29.7098 230.899 29.8039C231.14 29.898 231.378 29.945 231.613 29.945C231.853 29.945 232.049 29.9006 232.201 29.8117C232.353 29.7176 232.428 29.5817 232.428 29.4039C232.428 29.2733 232.389 29.1765 232.311 29.1138C232.232 29.0511 232.117 28.9962 231.966 28.9491C231.819 28.9021 231.642 28.8498 231.432 28.7923C231.14 28.7034 230.894 28.6119 230.695 28.5178C230.497 28.4185 230.348 28.2983 230.248 28.1571C230.149 28.016 230.099 27.8356 230.099 27.616C230.099 27.3494 230.167 27.122 230.303 26.9338C230.439 26.7456 230.627 26.6018 230.868 26.5025C231.114 26.4032 231.396 26.3535 231.715 26.3535C232.013 26.3535 232.287 26.4006 232.538 26.4947C232.794 26.5835 233.019 26.7247 233.212 26.9181L232.844 27.4906C232.661 27.3233 232.473 27.2004 232.279 27.122C232.091 27.0436 231.887 27.0044 231.668 27.0044C231.542 27.0044 231.422 27.02 231.307 27.0514C231.192 27.0776 231.095 27.1298 231.017 27.2083C230.944 27.2814 230.907 27.386 230.907 27.5219C230.907 27.6317 230.938 27.7206 231.001 27.7885C231.064 27.8565 231.158 27.914 231.283 27.9611C231.409 28.0081 231.563 28.0604 231.746 28.1179C232.065 28.212 232.337 28.3061 232.562 28.4002C232.786 28.4891 232.959 28.6067 233.079 28.7531C233.205 28.8942 233.267 29.0903 233.267 29.3412C233.267 29.7385 233.118 30.0496 232.82 30.2744C232.528 30.494 232.136 30.6037 231.644 30.6037ZM236.312 30.3136C236.239 30.3502 236.147 30.3894 236.037 30.4312C235.928 30.473 235.802 30.5096 235.661 30.541C235.525 30.5724 235.384 30.5881 235.238 30.5881C235.06 30.5881 234.895 30.5567 234.743 30.494C234.592 30.4312 234.469 30.3319 234.375 30.196C234.286 30.0548 234.242 29.8745 234.242 29.6549V27.0906H233.701V26.4241H234.242V25.0753H235.104V26.4241H235.998V27.0906H235.104V29.3804C235.115 29.5216 235.159 29.6261 235.238 29.6941C235.321 29.7621 235.423 29.796 235.543 29.796C235.664 29.796 235.779 29.7751 235.888 29.7333C235.998 29.6915 236.079 29.6575 236.131 29.6314L236.312 30.3136ZM238.596 27.9767C238.596 27.6213 238.685 27.2971 238.862 27.0044C239.04 26.7116 239.281 26.479 239.584 26.3064C239.892 26.1339 240.235 26.0477 240.611 26.0477C241.019 26.0477 241.374 26.147 241.678 26.3457C241.981 26.5391 242.216 26.8214 242.383 27.1926C242.556 27.5585 242.642 28.0003 242.642 28.5178C242.642 29.2288 242.553 29.8222 242.376 30.2979C242.203 30.7736 241.957 31.1318 241.638 31.3722C241.32 31.6127 240.946 31.733 240.517 31.733C240.167 31.733 239.843 31.6493 239.545 31.482C239.247 31.32 239.006 31.0925 238.823 30.7998L239.333 30.2665C239.453 30.4809 239.62 30.6534 239.835 30.7841C240.049 30.9148 240.282 30.9801 240.533 30.9801C240.794 30.9801 241.022 30.9043 241.215 30.7527C241.408 30.6064 241.557 30.392 241.662 30.1097C241.772 29.8274 241.829 29.485 241.834 29.0824C241.761 29.234 241.659 29.3674 241.529 29.4824C241.398 29.5974 241.246 29.6863 241.074 29.749C240.907 29.8117 240.724 29.8431 240.525 29.8431C240.164 29.8431 239.837 29.7594 239.545 29.5922C239.252 29.4249 239.019 29.2027 238.847 28.9256C238.679 28.6433 238.596 28.327 238.596 27.9767ZM240.603 26.7848C240.389 26.7848 240.19 26.8397 240.007 26.9495C239.83 27.054 239.686 27.1978 239.576 27.3808C239.471 27.5585 239.419 27.7572 239.419 27.9767C239.419 28.1911 239.471 28.3871 239.576 28.5649C239.686 28.7426 239.83 28.8864 240.007 28.9962C240.19 29.1007 240.389 29.153 240.603 29.153C240.823 29.153 241.022 29.1007 241.199 28.9962C241.377 28.8864 241.518 28.7426 241.623 28.5649C241.733 28.3871 241.787 28.1911 241.787 27.9767C241.787 27.7624 241.733 27.5637 241.623 27.3808C241.513 27.1978 241.369 27.054 241.191 26.9495C241.014 26.8397 240.818 26.7848 240.603 26.7848ZM247.362 28.2277C247.362 28.6877 247.273 29.0981 247.095 29.4588C246.923 29.8143 246.685 30.094 246.382 30.2979C246.084 30.5018 245.741 30.6037 245.354 30.6037C244.973 30.6037 244.63 30.5018 244.327 30.2979C244.024 30.094 243.783 29.8143 243.606 29.4588C243.433 29.0981 243.347 28.6877 243.347 28.2277C243.347 27.7676 243.433 27.3599 243.606 27.0044C243.783 26.6436 244.024 26.3613 244.327 26.1575C244.63 25.9483 244.973 25.8438 245.354 25.8438C245.741 25.8438 246.084 25.9483 246.382 26.1575C246.685 26.3613 246.923 26.6436 247.095 27.0044C247.273 27.3599 247.362 27.7676 247.362 28.2277ZM246.484 28.2277C246.484 27.914 246.437 27.6395 246.342 27.4043C246.248 27.1638 246.115 26.9782 245.943 26.8475C245.77 26.7116 245.574 26.6436 245.354 26.6436C245.13 26.6436 244.931 26.7116 244.758 26.8475C244.586 26.9782 244.45 27.1638 244.351 27.4043C244.257 27.6395 244.209 27.914 244.209 28.2277C244.209 28.5414 244.257 28.8158 244.351 29.0511C244.45 29.2863 244.586 29.4719 244.758 29.6078C244.931 29.7385 245.13 29.8039 245.354 29.8039C245.574 29.8039 245.767 29.7385 245.935 29.6078C246.107 29.4719 246.24 29.2863 246.335 29.0511C246.434 28.8158 246.484 28.5414 246.484 28.2277ZM250.329 30.5253V24.9577H252.305C252.906 24.9577 253.408 25.0831 253.81 25.3341C254.213 25.5798 254.514 25.9144 254.712 26.3378C254.916 26.756 255.018 27.2213 255.018 27.7337C255.018 28.2983 254.906 28.7897 254.681 29.2079C254.461 29.6261 254.148 29.9503 253.74 30.1803C253.332 30.4103 252.854 30.5253 252.305 30.5253H250.329ZM254.124 27.7337C254.124 27.3416 254.051 26.9965 253.904 26.6985C253.763 26.3953 253.557 26.1601 253.285 25.9928C253.018 25.8203 252.692 25.734 252.305 25.734H251.207V29.749H252.305C252.697 29.749 253.026 29.6601 253.293 29.4824C253.565 29.3046 253.771 29.0641 253.912 28.7609C254.053 28.4577 254.124 28.1153 254.124 27.7337ZM255.488 29.3255C255.488 29.0641 255.561 28.8367 255.708 28.6433C255.859 28.4446 256.066 28.293 256.327 28.1885C256.589 28.0787 256.892 28.0238 257.237 28.0238C257.42 28.0238 257.605 28.0369 257.794 28.063C257.987 28.0891 258.157 28.131 258.303 28.1885V27.9297C258.303 27.6422 258.217 27.4174 258.045 27.2553C257.872 27.0932 257.624 27.0122 257.3 27.0122C257.07 27.0122 256.853 27.054 256.649 27.1377C256.445 27.2161 256.228 27.3285 255.998 27.4749L255.708 26.8946C255.98 26.7116 256.251 26.5757 256.523 26.4868C256.8 26.3979 257.091 26.3535 257.394 26.3535C257.943 26.3535 258.374 26.4999 258.688 26.7926C259.007 27.0802 259.166 27.4906 259.166 28.0238V29.5529C259.166 29.6523 259.182 29.7228 259.213 29.7647C259.25 29.8065 259.31 29.83 259.393 29.8352V30.5253C259.315 30.541 259.244 30.5515 259.182 30.5567C259.119 30.5619 259.067 30.5645 259.025 30.5645C258.842 30.5645 258.703 30.5201 258.609 30.4312C258.515 30.3423 258.46 30.2378 258.445 30.1175L258.421 29.8823C258.243 30.1123 258.016 30.2901 257.739 30.4155C257.462 30.541 257.182 30.6037 256.9 30.6037C256.628 30.6037 256.385 30.5488 256.17 30.4391C255.956 30.324 255.789 30.1698 255.669 29.9764C255.548 29.783 255.488 29.566 255.488 29.3255ZM258.1 29.5765C258.162 29.5085 258.212 29.4405 258.249 29.3726C258.285 29.3046 258.303 29.2445 258.303 29.1922V28.7217C258.157 28.6642 258.003 28.6224 257.841 28.5962C257.679 28.5649 257.519 28.5492 257.362 28.5492C257.049 28.5492 256.793 28.6119 256.594 28.7374C256.4 28.8629 256.304 29.0354 256.304 29.255C256.304 29.3752 256.335 29.4902 256.398 29.6C256.466 29.7098 256.56 29.7987 256.68 29.8666C256.806 29.9346 256.96 29.9686 257.143 29.9686C257.331 29.9686 257.511 29.932 257.684 29.8588C257.856 29.7856 257.995 29.6915 258.1 29.5765ZM260.208 31.4899C260.287 31.5003 260.362 31.5108 260.436 31.5212C260.514 31.5369 260.577 31.5448 260.624 31.5448C260.713 31.5448 260.788 31.516 260.851 31.4585C260.919 31.4062 260.987 31.3069 261.055 31.1605C261.123 31.0141 261.207 30.8024 261.306 30.5253L259.62 26.4241H260.522L261.777 29.647L262.89 26.4241H263.721L261.863 31.4742C261.805 31.6258 261.722 31.7643 261.612 31.8898C261.502 32.0205 261.366 32.1224 261.204 32.1956C261.042 32.2688 260.851 32.3054 260.632 32.3054C260.569 32.3054 260.504 32.3002 260.436 32.2897C260.368 32.2793 260.292 32.2636 260.208 32.2427V31.4899ZM265.707 30.6037C265.362 30.6037 265.035 30.5488 264.727 30.4391C264.418 30.324 264.154 30.1541 263.935 29.9293L264.256 29.3491C264.491 29.5582 264.727 29.7098 264.962 29.8039C265.202 29.898 265.44 29.945 265.675 29.945C265.916 29.945 266.112 29.9006 266.264 29.8117C266.415 29.7176 266.491 29.5817 266.491 29.4039C266.491 29.2733 266.452 29.1765 266.373 29.1138C266.295 29.0511 266.18 28.9962 266.028 28.9491C265.882 28.9021 265.704 28.8498 265.495 28.7923C265.202 28.7034 264.957 28.6119 264.758 28.5178C264.559 28.4185 264.41 28.2983 264.311 28.1571C264.212 28.016 264.162 27.8356 264.162 27.616C264.162 27.3494 264.23 27.122 264.366 26.9338C264.502 26.7456 264.69 26.6018 264.93 26.5025C265.176 26.4032 265.459 26.3535 265.777 26.3535C266.075 26.3535 266.35 26.4006 266.601 26.4947C266.857 26.5835 267.082 26.7247 267.275 26.9181L266.907 27.4906C266.724 27.3233 266.535 27.2004 266.342 27.122C266.154 27.0436 265.95 27.0044 265.73 27.0044C265.605 27.0044 265.485 27.02 265.37 27.0514C265.255 27.0776 265.158 27.1298 265.079 27.2083C265.006 27.2814 264.97 27.386 264.97 27.5219C264.97 27.6317 265.001 27.7206 265.064 27.7885C265.127 27.8565 265.221 27.914 265.346 27.9611C265.472 28.0081 265.626 28.0604 265.809 28.1179C266.128 28.212 266.4 28.3061 266.624 28.4002C266.849 28.4891 267.022 28.6067 267.142 28.7531C267.267 28.8942 267.33 29.0903 267.33 29.3412C267.33 29.7385 267.181 30.0496 266.883 30.2744C266.59 30.494 266.198 30.6037 265.707 30.6037Z" fill="white"></path><g clip-path="url(#clip1_2789_250)"><path fill-rule="evenodd" clip-rule="evenodd" d="M276.51 30.289L273.429 27.2084L274.199 26.4383L276.895 29.1339L279.591 26.4383L280.361 27.2084L277.28 30.289C277.178 30.3911 277.039 30.4484 276.895 30.4484C276.751 30.4484 276.612 30.3911 276.51 30.289Z" fill="#F0F0F0"></path></g></g></g><path d="M10.4557 0.32674H301.908C307.502 0.32674 312.037 4.86163 312.037 10.4557V316.612H0.32674V10.4557C0.32674 4.86161 4.86163 0.32674 10.4557 0.32674Z" stroke="url(#paint32_linear_2789_250)" stroke-width="0.653481"></path><defs><filter id="filter0_d_2789_250" x="13.0697" y="18.2975" width="60.7737" height="25.337" filterUnits="userSpaceOnUse" color-interpolation-filters="sRGB"><feFlood flood-opacity="0" result="BackgroundImageFix"></feFlood><feColorMatrix in="SourceAlpha" type="matrix" values="0 0 0 0 0 0 0 0 0 0 0 0 0 0 0 0 0 0 127 0" result="hardAlpha"></feColorMatrix><feOffset dy="3.2674"></feOffset><feGaussianBlur stdDeviation="1.30696"></feGaussianBlur><feComposite in2="hardAlpha" operator="out"></feComposite><feColorMatrix type="matrix" values="0 0 0 0 0 0 0 0 0 0 0 0 0 0 0 0 0 0 0.1 0"></feColorMatrix><feBlend mode="normal" in2="BackgroundImageFix" result="effect1_dropShadow_2789_250"></feBlend><feBlend mode="normal" in="SourceGraphic" in2="effect1_dropShadow_2789_250" result="shape"></feBlend></filter><filter id="filter1_d_2789_250" x="204.54" y="18.2975" width="94.7547" height="25.337" filterUnits="userSpaceOnUse" color-interpolation-filters="sRGB"><feFlood flood-opacity="0" result="BackgroundImageFix"></feFlood><feColorMatrix in="SourceAlpha" type="matrix" values="0 0 0 0 0 0 0 0 0 0 0 0 0 0 0 0 0 0 127 0" result="hardAlpha"></feColorMatrix><feOffset dy="3.2674"></feOffset><feGaussianBlur stdDeviation="1.30696"></feGaussianBlur><feComposite in2="hardAlpha" operator="out"></feComposite><feColorMatrix type="matrix" values="0 0 0 0 0 0 0 0 0 0 0 0 0 0 0 0 0 0 0.1 0"></feColorMatrix><feBlend mode="normal" in2="BackgroundImageFix" result="effect1_dropShadow_2789_250"></feBlend><feBlend mode="normal" in="SourceGraphic" in2="effect1_dropShadow_2789_250" result="shape"></feBlend></filter><linearGradient id="paint0_linear_2789_250" x1="126.63" y1="223.526" x2="126.63" y2="263.159" gradientUnits="userSpaceOnUse"><stop stop-color="#155E77"></stop><stop offset="1" stop-color="#169CC9"></stop></linearGradient><linearGradient id="paint1_linear_2789_250" x1="116.889" y1="231.633" x2="116.889" y2="263.159" gradientUnits="userSpaceOnUse"><stop stop-color="#155E77"></stop><stop offset="1" stop-color="#169CC9"></stop></linearGradient><linearGradient id="paint2_linear_2789_250" x1="107.147" y1="248.747" x2="107.147" y2="271.265" gradientUnits="userSpaceOnUse"><stop stop-color="#176B87"></stop><stop offset="1" stop-color="#0E3C4B"></stop></linearGradient><linearGradient id="paint3_linear_2789_250" x1="97.4052" y1="248.747" x2="97.4052" y2="279.372" gradientUnits="userSpaceOnUse"><stop stop-color="#155E77"></stop><stop offset="1" stop-color="#169CC9"></stop></linearGradient><linearGradient id="paint4_linear_2789_250" x1="87.6635" y1="245.144" x2="87.6635" y2="275.769" gradientUnits="userSpaceOnUse"><stop stop-color="#4CBADE"></stop><stop offset="1" stop-color="#296578"></stop></linearGradient><linearGradient id="paint5_linear_2789_250" x1="77.9219" y1="245.144" x2="77.9219" y2="285.677" gradientUnits="userSpaceOnUse"><stop stop-color="#155E77"></stop><stop offset="1" stop-color="#169CC9"></stop></linearGradient><linearGradient id="paint6_linear_2789_250" x1="68.1803" y1="255.052" x2="68.1803" y2="282.975" gradientUnits="userSpaceOnUse"><stop stop-color="#176B87"></stop><stop offset="1" stop-color="#0E3C4B"></stop></linearGradient><linearGradient id="paint7_linear_2789_250" x1="58.4386" y1="258.655" x2="58.4386" y2="281.173" gradientUnits="userSpaceOnUse"><stop stop-color="#155E77"></stop><stop offset="1" stop-color="#169CC9"></stop></linearGradient><linearGradient id="paint8_linear_2789_250" x1="48.697" y1="273.067" x2="48.697" y2="295.585" gradientUnits="userSpaceOnUse"><stop stop-color="#176B87"></stop><stop offset="1" stop-color="#0E3C4B"></stop></linearGradient><linearGradient id="paint9_linear_2789_250" x1="38.9553" y1="243.342" x2="38.9553" y2="292.883" gradientUnits="userSpaceOnUse"><stop stop-color="#176B87"></stop><stop offset="1" stop-color="#0E3C4B"></stop></linearGradient><linearGradient id="paint10_linear_2789_250" x1="29.2137" y1="263.159" x2="29.2137" y2="298.288" gradientUnits="userSpaceOnUse"><stop stop-color="#155E77"></stop><stop offset="1" stop-color="#169CC9"></stop></linearGradient><linearGradient id="paint11_linear_2789_250" x1="19.472" y1="276.67" x2="19.472" y2="293.784" gradientUnits="userSpaceOnUse"><stop stop-color="#4CBADE"></stop><stop offset="1" stop-color="#296578"></stop></linearGradient><linearGradient id="paint12_linear_2789_250" x1="136.372" y1="231.633" x2="136.372" y2="264.96" gradientUnits="userSpaceOnUse"><stop stop-color="#176B87"></stop><stop offset="1" stop-color="#0E3C4B"></stop></linearGradient><linearGradient id="paint13_linear_2789_250" x1="146.113" y1="246.044" x2="146.113" y2="261.357" gradientUnits="userSpaceOnUse"><stop stop-color="#155E77"></stop><stop offset="1" stop-color="#169CC9"></stop></linearGradient><linearGradient id="paint14_linear_2789_250" x1="155.855" y1="235.236" x2="155.855" y2="264.96" gradientUnits="userSpaceOnUse"><stop stop-color="#176B87"></stop><stop offset="1" stop-color="#0E3C4B"></stop></linearGradient><linearGradient id="paint15_linear_2789_250" x1="165.597" y1="229.831" x2="165.597" y2="257.754" gradientUnits="userSpaceOnUse"><stop stop-color="#155E77"></stop><stop offset="1" stop-color="#169CC9"></stop></linearGradient><linearGradient id="paint16_linear_2789_250" x1="175.339" y1="219.923" x2="175.339" y2="273.067" gradientUnits="userSpaceOnUse"><stop stop-color="#155E77"></stop><stop offset="1" stop-color="#169CC9"></stop></linearGradient><linearGradient id="paint17_linear_2789_250" x1="185.08" y1="185.695" x2="185.08" y2="244.243" gradientUnits="userSpaceOnUse"><stop stop-color="#155E77"></stop><stop offset="1" stop-color="#169CC9"></stop></linearGradient><linearGradient id="paint18_linear_2789_250" x1="194.822" y1="187.496" x2="194.822" y2="215.419" gradientUnits="userSpaceOnUse"><stop stop-color="#155E77"></stop><stop offset="1" stop-color="#169CC9"></stop></linearGradient><linearGradient id="paint19_linear_2789_250" x1="204.564" y1="191.099" x2="204.564" y2="221.724" gradientUnits="userSpaceOnUse"><stop stop-color="#176B87"></stop><stop offset="1" stop-color="#0E3C4B"></stop></linearGradient><linearGradient id="paint20_linear_2789_250" x1="214.305" y1="201.908" x2="214.305" y2="229.831" gradientUnits="userSpaceOnUse"><stop stop-color="#155E77"></stop><stop offset="1" stop-color="#169CC9"></stop></linearGradient><linearGradient id="paint21_linear_2789_250" x1="224.047" y1="160.474" x2="224.047" y2="211.816" gradientUnits="userSpaceOnUse"><stop stop-color="#4CBADE"></stop><stop offset="1" stop-color="#296578"></stop></linearGradient><linearGradient id="paint22_linear_2789_250" x1="233.789" y1="139.757" x2="233.789" y2="173.084" gradientUnits="userSpaceOnUse"><stop stop-color="#155E77"></stop><stop offset="1" stop-color="#169CC9"></stop></linearGradient><linearGradient id="paint23_linear_2789_250" x1="243.53" y1="128.948" x2="243.53" y2="153.268" gradientUnits="userSpaceOnUse"><stop stop-color="#176B87"></stop><stop offset="1" stop-color="#0E3C4B"></stop></linearGradient><linearGradient id="paint24_linear_2789_250" x1="253.272" y1="126.246" x2="253.272" y2="139.757" gradientUnits="userSpaceOnUse"><stop stop-color="#155E77"></stop><stop offset="1" stop-color="#169CC9"></stop></linearGradient><linearGradient id="paint25_linear_2789_250" x1="263.014" y1="131.65" x2="263.014" y2="146.963" gradientUnits="userSpaceOnUse"><stop stop-color="#176B87"></stop><stop offset="1" stop-color="#0E3C4B"></stop></linearGradient><linearGradient id="paint26_linear_2789_250" x1="272.755" y1="83.0097" x2="272.755" y2="146.962" gradientUnits="userSpaceOnUse"><stop stop-color="#155E77"></stop><stop offset="1" stop-color="#169CC9"></stop></linearGradient><linearGradient id="paint27_linear_2789_250" x1="282.497" y1="61.3919" x2="282.497" y2="103.727" gradientUnits="userSpaceOnUse"><stop stop-color="#155E77"></stop><stop offset="1" stop-color="#169CC9"></stop></linearGradient><linearGradient id="paint28_linear_2789_250" x1="292.238" y1="42.4762" x2="292.238" y2="84.8112" gradientUnits="userSpaceOnUse"><stop stop-color="#176B87"></stop><stop offset="1" stop-color="#0E3C4B"></stop></linearGradient><linearGradient id="paint29_linear_2789_250" x1="156.182" y1="326.087" x2="156.182" y2="235.253" gradientUnits="userSpaceOnUse"><stop stop-color="#021117"></stop><stop offset="1" stop-color="#07212A" stop-opacity="0"></stop></linearGradient><linearGradient id="paint30_linear_2789_250" x1="15.6836" y1="28.0253" x2="71.2295" y2="28.0253" gradientUnits="userSpaceOnUse"><stop stop-color="#07212A"></stop><stop offset="1" stop-color="#187190"></stop></linearGradient><linearGradient id="paint31_linear_2789_250" x1="207.153" y1="28.0253" x2="296.68" y2="28.0253" gradientUnits="userSpaceOnUse"><stop stop-color="#07212A"></stop><stop offset="1" stop-color="#187190"></stop></linearGradient><linearGradient id="paint32_linear_2789_250" x1="156.182" y1="0" x2="156.182" y2="316.938" gradientUnits="userSpaceOnUse"><stop offset="0.190327" stop-color="#176B87"></stop><stop offset="1" stop-color="#176B87" stop-opacity="0"></stop></linearGradient><clipPath id="clip0_2789_250"><path d="M0 10.4557C0 4.68115 4.68117 0 10.4557 0H301.908C307.683 0 312.364 4.68117 312.364 10.4557V316.938H0V10.4557Z" fill="white"></path></clipPath><clipPath id="clip1_2789_250"><rect width="6.53481" height="13.0696" fill="white" transform="matrix(0 1 -1 0 283.432 24.7579)"></rect></clipPath></defs></svg> 