<?xml version="1.0" encoding="UTF-8"?> <svg xmlns="http://www.w3.org/2000/svg" width="257" height="158" viewBox="0 0 257 158" fill="none"><g clip-path="url(#clip0_2766_377)"><path d="M0 16C0 7.16345 7.16344 0 16 0H241C249.837 0 257 7.16344 257 16V158H0V16Z" fill="#00141B"></path><rect x="47.2856" y="44.5915" width="58.7786" height="79.0549" rx="4.75218" transform="rotate(-17.4155 47.2856 44.5915)" fill="url(#paint0_linear_2766_377)"></rect><rect x="47.2856" y="44.5915" width="58.7786" height="79.0549" rx="4.75218" transform="rotate(-17.4155 47.2856 44.5915)" stroke="url(#paint1_linear_2766_377)" stroke-width="0.455648"></rect><path d="M97.6273 52.0804C98.6756 55.4224 98.6188 59.0133 97.4653 62.3205C96.3118 65.6276 94.123 68.4749 91.2236 70.44C88.3242 72.4051 84.8686 73.3833 81.3694 73.2295C77.8702 73.0757 74.5138 71.7981 71.798 69.5863C69.0821 67.3744 67.1516 64.3461 66.2926 60.9505C65.4337 57.5549 65.6921 53.9728 67.0295 50.7357C68.367 47.4985 70.7123 44.7787 73.7175 42.9795C76.7227 41.1804 80.2277 40.3979 83.7127 40.748L83.1538 46.3119C80.8652 46.082 78.5633 46.5959 76.5898 47.7774C74.6162 48.9589 73.0761 50.745 72.1977 52.8709C71.3194 54.9968 71.1497 57.3492 71.7138 59.5792C72.2778 61.8091 73.5457 63.7979 75.3292 65.2504C77.1127 66.703 79.317 67.542 81.6149 67.643C83.9129 67.744 86.1822 67.1016 88.0863 65.8111C89.9904 64.5206 91.4278 62.6507 92.1853 60.4789C92.9429 58.307 92.9802 55.9488 92.2917 53.754L97.6273 52.0804Z" fill="url(#paint2_linear_2766_377)"></path><path d="M97.6273 52.0804C96.6871 49.0832 94.9004 46.4217 92.4824 44.4166C90.0644 42.4115 87.1182 41.1483 83.9987 40.7792C80.8793 40.4101 77.7196 40.9508 74.9004 42.3362C72.0812 43.7216 69.7227 45.8925 68.109 48.5876C66.4953 51.2826 65.6952 54.3867 65.8052 57.526C65.9151 60.6653 66.9304 63.7058 68.7287 66.2813C70.5271 68.8568 73.0317 70.8575 75.9409 72.0422C78.8502 73.2269 82.0399 73.5452 85.1259 72.9588L84.0818 67.4652C82.0552 67.8503 79.9605 67.6413 78.05 66.8633C76.1394 66.0852 74.4946 64.7714 73.3136 63.08C72.1326 61.3886 71.4659 59.3919 71.3937 57.3303C71.3215 55.2686 71.8469 53.2301 72.9066 51.4602C73.9664 49.6904 75.5152 48.2647 77.3666 47.3549C79.2181 46.4451 81.2931 46.09 83.3416 46.3324C85.3902 46.5748 87.325 47.4044 88.913 48.7211C90.5009 50.0379 91.6743 51.7857 92.2917 53.754L97.6273 52.0804Z" fill="url(#paint3_linear_2766_377)"></path><path d="M97.6273 52.0804C96.4926 48.4629 94.1315 45.3545 90.9511 43.2908C87.7706 41.2272 83.9699 40.3376 80.204 40.7753C76.438 41.213 72.9427 42.9506 70.3203 45.6887C67.698 48.4268 66.1128 51.9939 65.838 55.7752L71.4152 56.1805C71.5957 53.6972 72.6367 51.3547 74.3588 49.5565C76.081 47.7584 78.3764 46.6173 80.8496 46.3298C83.3227 46.0424 85.8187 46.6266 87.9073 47.9818C89.996 49.337 91.5465 51.3784 92.2917 53.754L97.6273 52.0804Z" fill="url(#paint4_linear_2766_377)"></path><rect x="75.9025" y="97.3613" width="4.50158" height="11.254" transform="rotate(-17.4155 75.9025 97.3613)" fill="#0B5036"></rect><rect x="79.7101" y="90.073" width="4.50158" height="17.0685" transform="rotate(-17.4155 79.7101 90.073)" fill="#107B53"></rect><rect x="84.5844" y="86.1851" width="4.50158" height="19.3193" transform="rotate(-17.4155 84.5844 86.1851)" fill="#0D6846"></rect><rect x="91.592" y="89.0979" width="4.50158" height="14.4426" transform="rotate(-17.4155 91.592 89.0979)" fill="#118057"></rect><rect x="97.4279" y="84.5153" width="4.50158" height="17.0685" transform="rotate(-17.4155 97.4279 84.5153)" fill="#0FB074"></rect><rect x="105.422" y="88.6915" width="4.50158" height="10.6913" transform="rotate(-17.4155 105.422 88.6915)" fill="#0C8F5F"></rect><path d="M69.7759 86.6038L76.7651 108.885L116.496 96.4225" stroke="#0EA16B" stroke-width="0.750263" stroke-linecap="square"></path><g opacity="0.05"><path d="M3.25256 -87.75V246" stroke="#D9D9D9" stroke-width="0.267107"></path><path d="M17.9435 -87.75V246" stroke="#D9D9D9" stroke-width="0.267107"></path><path d="M32.6343 -87.75V246" stroke="#D9D9D9" stroke-width="0.267107"></path><path d="M47.3252 -87.75V246" stroke="#D9D9D9" stroke-width="0.267107"></path><path d="M62.0161 -87.75V246" stroke="#D9D9D9" stroke-width="0.267107"></path><path d="M76.7069 -87.75V246" stroke="#D9D9D9" stroke-width="0.267107"></path><path d="M91.3978 -87.75V246" stroke="#D9D9D9" stroke-width="0.267107"></path><path d="M106.089 -87.75V246" stroke="#D9D9D9" stroke-width="0.267107"></path><path d="M120.78 -87.75V246" stroke="#D9D9D9" stroke-width="0.267107"></path><path d="M135.47 -87.75V246" stroke="#D9D9D9" stroke-width="0.267107"></path><path d="M150.161 -87.75V246" stroke="#D9D9D9" stroke-width="0.267107"></path><path d="M164.852 -87.75V246" stroke="#D9D9D9" stroke-width="0.267107"></path><path d="M179.543 -87.75V246" stroke="#D9D9D9" stroke-width="0.267107"></path><path d="M194.234 -87.75V246" stroke="#D9D9D9" stroke-width="0.267107"></path><path d="M208.925 -87.75V246" stroke="#D9D9D9" stroke-width="0.267107"></path><path d="M223.616 -87.75V246" stroke="#D9D9D9" stroke-width="0.267107"></path><path d="M238.307 -87.75V246" stroke="#D9D9D9" stroke-width="0.267107"></path><path d="M252.997 -87.75V246" stroke="#D9D9D9" stroke-width="0.267107"></path><path d="M295 13.0161L-38.75 13.016" stroke="#D9D9D9" stroke-width="0.267107"></path><path d="M295 27.7069L-38.75 27.7069" stroke="#D9D9D9" stroke-width="0.267107"></path><path d="M295 42.3978L-38.75 42.3978" stroke="#D9D9D9" stroke-width="0.267107"></path><path d="M295 57.0887L-38.75 57.0887" stroke="#D9D9D9" stroke-width="0.267107"></path><path d="M295 71.7795L-38.75 71.7795" stroke="#D9D9D9" stroke-width="0.267107"></path><path d="M295 86.4705L-38.75 86.4704" stroke="#D9D9D9" stroke-width="0.267107"></path><path d="M295 101.161L-38.75 101.161" stroke="#D9D9D9" stroke-width="0.267107"></path><path d="M295 115.852L-38.75 115.852" stroke="#D9D9D9" stroke-width="0.267107"></path><path d="M295 130.543L-38.75 130.543" stroke="#D9D9D9" stroke-width="0.267107"></path><path d="M295 145.234L-38.75 145.234" stroke="#D9D9D9" stroke-width="0.267107"></path></g><g clip-path="url(#clip1_2766_377)"><rect x="136.761" y="18" width="75.5259" height="96.5486" rx="4.67171" transform="rotate(33.1025 136.761 18)" fill="url(#paint5_linear_2766_377)"></rect><path opacity="0.4" d="M127.011 46.4988L133.632 44.5413L135.121 47.6035L141.948 49.963L153.332 43.9073L154.574 54.4767L158.254 60.5939L165.988 61.9183L179.988 58.2654L176.8 68.5022L183.889 70.1032" stroke="#88D498" stroke-width="0.871348"></path><path d="M125.474 49.2142L176.185 82.2761" stroke="#88D498" stroke-width="0.194655"></path><path d="M126.494 54.1263L126.972 53.3945L126.403 53.7573L126.2 53.6246L126.302 52.9582L125.825 53.69L125.444 53.4413L126.349 52.052L126.766 52.3237L126.64 53.1724L127.367 52.7153L127.782 52.9858L126.876 54.3751L126.494 54.1263ZM127.219 54.1554C127.264 54.0863 127.323 54.038 127.395 54.0104C127.467 53.9816 127.547 53.9739 127.633 53.9873C127.72 54.0015 127.807 54.0367 127.893 54.0928C127.933 54.1192 127.969 54.1471 128 54.1766C128.032 54.2069 128.057 54.2371 128.075 54.2672L128.095 54.2358C128.127 54.1876 128.136 54.1424 128.122 54.1002C128.11 54.0588 128.073 54.0177 128.01 53.9769C127.953 53.9395 127.892 53.914 127.829 53.9004C127.767 53.8863 127.697 53.8797 127.619 53.8805L127.662 53.5795C127.76 53.5802 127.853 53.5948 127.943 53.6232C128.034 53.6512 128.123 53.6937 128.211 53.7507C128.374 53.857 128.476 53.9762 128.516 54.1084C128.558 54.2402 128.532 54.3784 128.438 54.5232L128.308 54.7228C128.285 54.758 128.274 54.7862 128.275 54.8074C128.277 54.8272 128.29 54.847 128.314 54.8666L128.11 55.1797C128.076 55.1666 128.044 55.1525 128.015 55.1372C127.986 55.1241 127.962 55.1108 127.941 55.0972C127.874 55.0538 127.831 55.0089 127.811 54.9624C127.793 54.9155 127.795 54.8652 127.815 54.8115L127.831 54.7692C127.747 54.7981 127.665 54.8087 127.585 54.8009C127.505 54.7917 127.431 54.7651 127.364 54.7208C127.296 54.6766 127.244 54.6223 127.208 54.5579C127.172 54.4935 127.154 54.4263 127.155 54.3563C127.157 54.285 127.178 54.218 127.219 54.1554ZM127.805 54.5738C127.826 54.5727 127.845 54.5693 127.862 54.5635C127.88 54.5564 127.893 54.5463 127.901 54.5333L127.951 54.457C127.935 54.4355 127.915 54.4133 127.891 54.3902C127.869 54.368 127.847 54.35 127.826 54.3364C127.782 54.3075 127.737 54.2939 127.691 54.2957C127.647 54.2983 127.613 54.3166 127.591 54.3505C127.579 54.3688 127.573 54.3891 127.574 54.4116C127.575 54.4327 127.581 54.4538 127.594 54.4749C127.607 54.4946 127.625 54.5121 127.649 54.5274C127.671 54.5419 127.696 54.5535 127.724 54.5623C127.753 54.5706 127.781 54.5745 127.805 54.5738ZM129.407 55.0104C129.336 54.9636 129.265 54.9289 129.196 54.9063C129.127 54.8837 129.067 54.8813 129.014 54.8991L128.616 55.5096L128.244 55.2672L128.915 54.238L129.256 54.4599L129.128 54.6556C129.21 54.6103 129.29 54.5872 129.369 54.5864C129.448 54.5843 129.519 54.6032 129.58 54.6432C129.594 54.6526 129.604 54.6589 129.609 54.6623C129.616 54.6666 129.621 54.6711 129.626 54.6758L129.407 55.0104ZM129.737 56.2406L129.75 55.7131L129.622 55.7468L129.43 56.0403L129.058 55.7979L129.99 54.3695L130.362 54.6119L129.853 55.3926L130.375 55.1897L130.767 55.4448L130.119 55.664L130.131 56.497L129.737 56.2406ZM130.64 56.8568C130.55 56.7981 130.479 56.7321 130.426 56.6588C130.374 56.5841 130.34 56.507 130.323 56.4272C130.308 56.3483 130.308 56.2695 130.324 56.1907C130.34 56.112 130.371 56.038 130.416 55.9689C130.48 55.8697 130.561 55.7931 130.657 55.739C130.755 55.6836 130.862 55.6583 130.977 55.6631C131.094 55.6667 131.214 55.7084 131.336 55.7884C131.459 55.8683 131.546 55.9603 131.597 56.0643C131.648 56.1683 131.669 56.2748 131.659 56.3837C131.65 56.4927 131.614 56.5947 131.552 56.69C131.539 56.7095 131.524 56.7289 131.508 56.7481C131.494 56.7668 131.481 56.7831 131.468 56.7971L130.746 56.3264C130.725 56.3646 130.715 56.401 130.716 56.4355C130.72 56.4696 130.732 56.5003 130.751 56.5278C130.772 56.5561 130.796 56.5796 130.825 56.5983C130.865 56.6247 130.909 56.6402 130.956 56.6449C131.005 56.6504 131.046 56.6407 131.079 56.6158L131.335 56.9112C131.272 56.9481 131.202 56.9713 131.125 56.9807C131.05 56.991 130.97 56.9868 130.888 56.9682C130.806 56.9484 130.723 56.9112 130.64 56.8568ZM130.883 56.0982L131.224 56.3202C131.242 56.2837 131.251 56.2486 131.251 56.2149C131.252 56.1821 131.244 56.1511 131.228 56.1219C131.213 56.0935 131.19 56.0691 131.158 56.0487C131.127 56.0283 131.095 56.0165 131.061 56.0134C131.029 56.0112 130.998 56.0167 130.967 56.0299C130.937 56.0441 130.909 56.0668 130.883 56.0982ZM132.086 57.6907C132.042 57.6829 131.997 57.6728 131.949 57.6603C131.904 57.6474 131.859 57.631 131.814 57.6112C131.771 57.5922 131.73 57.5704 131.692 57.5457C131.636 57.5091 131.591 57.4664 131.556 57.4175C131.521 57.3673 131.504 57.3114 131.503 57.2496C131.505 57.1874 131.53 57.1191 131.578 57.0448L131.886 56.5732L131.759 56.4903L131.941 56.2105L132.068 56.2934L132.279 55.9705L132.65 56.2129L132.44 56.5358L132.641 56.6672L132.459 56.947L132.258 56.8156L132.036 57.156C132.013 57.19 132.005 57.2188 132.01 57.2425C132.016 57.2649 132.031 57.2842 132.056 57.3003C132.074 57.3122 132.097 57.3226 132.125 57.3314C132.153 57.3401 132.181 57.3476 132.211 57.3538L132.086 57.6907ZM134.07 57.7325C134.07 57.7325 134.063 57.7187 134.05 57.6912C134.036 57.6637 134.016 57.6302 133.99 57.5908C133.964 57.55 133.934 57.5091 133.9 57.4679C133.865 57.4268 133.827 57.3927 133.785 57.3655C133.753 57.3442 133.723 57.332 133.695 57.3288C133.667 57.3256 133.645 57.3364 133.629 57.3612C133.614 57.3847 133.612 57.4104 133.623 57.4384C133.635 57.4663 133.656 57.4985 133.686 57.5349C133.717 57.5722 133.754 57.6167 133.797 57.6685C133.866 57.7508 133.921 57.8293 133.961 57.904C134.002 57.9787 134.021 58.0539 134.021 58.1295C134.02 58.2038 133.992 58.2846 133.935 58.372C133.88 58.4555 133.82 58.5162 133.752 58.554C133.686 58.5905 133.616 58.6092 133.543 58.6099C133.47 58.6107 133.397 58.5985 133.324 58.5733C133.252 58.5468 133.183 58.5123 133.118 58.4698C133.052 58.4264 132.986 58.3744 132.922 58.3137C132.859 58.2526 132.802 58.1882 132.749 58.1205C132.698 58.0515 132.654 57.9824 132.62 57.9132L133.002 57.6858C133.002 57.6858 133.01 57.7021 133.026 57.7348C133.042 57.7674 133.065 57.8076 133.095 57.8552C133.125 57.9028 133.162 57.9515 133.204 58.0012C133.247 58.0517 133.295 58.0944 133.349 58.1293C133.39 58.1565 133.423 58.17 133.445 58.1697C133.47 58.169 133.488 58.1596 133.5 58.1413C133.518 58.1139 133.517 58.0837 133.498 58.0506C133.479 58.0163 133.451 57.9773 133.412 57.9336C133.376 57.8895 133.336 57.84 133.291 57.7852C133.228 57.705 133.182 57.631 133.152 57.5631C133.123 57.4938 133.111 57.4277 133.117 57.3645C133.123 57.3001 133.149 57.234 133.193 57.1662C133.26 57.0631 133.34 56.9927 133.434 56.9551C133.527 56.9174 133.624 56.9065 133.726 56.9223C133.829 56.9376 133.926 56.9751 134.018 57.0346C134.086 57.0788 134.145 57.1298 134.197 57.1876C134.251 57.2449 134.297 57.3032 134.337 57.3624C134.377 57.4224 134.412 57.4765 134.44 57.5246L134.07 57.7325ZM133.801 58.89L134.472 57.8608L134.844 58.1031L134.173 59.1324L133.801 58.89ZM134.528 57.7747L134.733 57.4616L135.104 57.704L134.9 58.0171L134.528 57.7747ZM134.453 59.0027L135.285 58.7532L134.845 58.4661L135.011 58.2118L135.838 58.7514L135.695 58.9705L134.866 59.2213L135.351 59.5377L135.185 59.7921L134.31 59.2219L134.453 59.0027ZM135.809 60.2267C135.719 60.168 135.647 60.102 135.595 60.0287C135.543 59.954 135.509 59.8769 135.492 59.7971C135.477 59.7182 135.477 59.6394 135.493 59.5606C135.509 59.4819 135.539 59.4079 135.585 59.3388C135.649 59.2396 135.73 59.163 135.826 59.1089C135.924 59.0535 136.031 59.0282 136.146 59.033C136.263 59.0366 136.383 59.0783 136.505 59.1583C136.628 59.2382 136.715 59.3302 136.766 59.4342C136.817 59.5382 136.838 59.6447 136.828 59.7536C136.818 59.8626 136.783 59.9646 136.721 60.0599C136.708 60.0794 136.693 60.0988 136.677 60.118C136.663 60.1367 136.65 60.153 136.637 60.167L135.915 59.6962C135.894 59.7345 135.884 59.7709 135.885 59.8054C135.889 59.8395 135.901 59.8702 135.92 59.8977C135.941 59.926 135.965 59.9495 135.994 59.9682C136.034 59.9946 136.078 60.0101 136.125 60.0148C136.174 60.0203 136.214 60.0106 136.247 59.9857L136.504 60.2811C136.441 60.318 136.371 60.3412 136.294 60.3506C136.218 60.3609 136.139 60.3567 136.057 60.3381C135.975 60.3182 135.892 60.2811 135.809 60.2267ZM136.052 59.4681L136.393 59.6901C136.411 59.6536 136.42 59.6185 136.42 59.5848C136.421 59.552 136.413 59.521 136.397 59.4918C136.382 59.4634 136.358 59.439 136.327 59.4186C136.296 59.3982 136.264 59.3864 136.23 59.3833C136.198 59.3811 136.167 59.3866 136.136 59.3998C136.106 59.414 136.078 59.4367 136.052 59.4681Z" fill="#88D498"></path><path d="M147.946 68.1118L148.852 66.7226L149.451 67.1129C149.518 67.1572 149.572 67.2117 149.612 67.2765C149.651 67.3413 149.676 67.4108 149.688 67.485C149.7 67.5579 149.698 67.6302 149.683 67.7021C149.669 67.7748 149.643 67.8405 149.604 67.8992C149.551 67.9814 149.481 68.0462 149.394 68.0938C149.308 68.1422 149.216 68.1673 149.116 68.1692C149.018 68.1706 148.924 68.1416 148.833 68.082L148.606 67.934L148.328 68.3606L147.946 68.1118ZM148.823 67.6014L149.024 67.7328C149.04 67.743 149.058 67.7482 149.078 67.7484C149.098 67.7487 149.12 67.7407 149.144 67.7244C149.169 67.7091 149.193 67.6831 149.217 67.6466C149.242 67.6075 149.256 67.5736 149.258 67.5451C149.262 67.5161 149.258 67.4922 149.246 67.4733C149.237 67.454 149.224 67.4392 149.208 67.429L149.016 67.304L148.823 67.6014ZM150.303 68.6333C150.231 68.5865 150.161 68.5518 150.092 68.5292C150.023 68.5066 149.962 68.5042 149.91 68.522L149.512 69.1325L149.14 68.8901L149.811 67.8608L150.151 68.0828L150.024 68.2785C150.105 68.2332 150.185 68.2101 150.264 68.2093C150.343 68.2072 150.414 68.2261 150.475 68.2661C150.489 68.2754 150.499 68.2818 150.504 68.2852C150.511 68.2895 150.516 68.294 150.521 68.2987L150.303 68.6333ZM149.954 69.4208L150.625 68.3916L150.997 68.6339L150.326 69.6632L149.954 69.4208ZM150.681 68.3055L150.885 67.9924L151.257 68.2348L151.053 68.5478L150.681 68.3055ZM151.01 70.1371C150.918 70.0775 150.847 70.0105 150.795 69.9358C150.745 69.8621 150.711 69.7847 150.696 69.7036C150.68 69.6213 150.681 69.5401 150.698 69.46C150.715 69.3799 150.746 69.3046 150.792 69.2342C150.854 69.1403 150.932 69.0669 151.028 69.0141C151.126 68.9608 151.233 68.9366 151.349 68.9415C151.466 68.9472 151.585 68.9896 151.706 69.0687C151.83 69.1495 151.917 69.2436 151.968 69.3511C152.019 69.4585 152.038 69.567 152.027 69.6764L151.593 69.5499C151.592 69.5141 151.584 69.4816 151.568 69.4524C151.553 69.424 151.53 69.4001 151.5 69.3805C151.466 69.3584 151.43 69.3475 151.39 69.3479C151.352 69.347 151.313 69.3574 151.275 69.3789C151.238 69.4013 151.205 69.436 151.174 69.483C151.144 69.5286 151.126 69.5735 151.12 69.6176C151.115 69.6613 151.121 69.7012 151.136 69.7373C151.153 69.7721 151.178 69.8006 151.212 69.8227C151.233 69.8363 151.253 69.846 151.274 69.8519C151.295 69.8564 151.316 69.8575 151.338 69.8551C151.362 69.8536 151.384 69.8484 151.404 69.8395L151.695 70.1851C151.632 70.222 151.563 70.2456 151.487 70.2559C151.413 70.267 151.335 70.2637 151.254 70.246C151.174 70.2278 151.093 70.1915 151.01 70.1371ZM152.127 70.8658C152.037 70.8072 151.966 70.7412 151.914 70.6678C151.862 70.5932 151.828 70.516 151.811 70.4363C151.795 70.3574 151.796 70.2786 151.812 70.1998C151.828 70.121 151.858 70.0471 151.903 69.9779C151.968 69.8788 152.049 69.8022 152.145 69.7481C152.243 69.6926 152.349 69.6673 152.465 69.6722C152.582 69.6758 152.701 69.7175 152.824 69.7975C152.947 69.8774 153.034 69.9694 153.085 70.0734C153.136 70.1774 153.157 70.2838 153.147 70.3928C153.137 70.5017 153.101 70.6038 153.039 70.699C153.027 70.7186 153.012 70.738 152.996 70.7572C152.982 70.7759 152.968 70.7922 152.955 70.8062L152.233 70.3354C152.212 70.3737 152.202 70.41 152.204 70.4446C152.208 70.4787 152.219 70.5094 152.239 70.5369C152.259 70.5652 152.284 70.5887 152.313 70.6074C152.353 70.6337 152.397 70.6493 152.444 70.654C152.492 70.6595 152.533 70.6498 152.566 70.6249L152.823 70.9203C152.759 70.9572 152.689 70.9804 152.613 70.9898C152.537 71.0001 152.458 70.9959 152.375 70.9773C152.294 70.9574 152.211 70.9203 152.127 70.8658ZM152.371 70.1073L152.712 70.3292C152.73 70.2928 152.739 70.2577 152.738 70.224C152.739 70.1912 152.732 70.1601 152.715 70.1309C152.7 70.1026 152.677 70.0782 152.646 70.0578C152.615 70.0374 152.582 70.0256 152.549 70.0225C152.517 70.0202 152.486 70.0257 152.455 70.039C152.425 70.0531 152.397 70.0759 152.371 70.1073Z" fill="#88D498"></path><path d="M166.281 80.0656L166.758 79.3338L166.19 79.6966L165.987 79.5639L166.089 78.8975L165.612 79.6293L165.231 79.3805L166.136 77.9912L166.553 78.263L166.426 79.1117L167.154 78.6546L167.569 78.9251L166.663 80.3143L166.281 80.0656ZM166.8 80.5514C166.823 80.5814 166.845 80.6071 166.867 80.6284C166.889 80.652 166.91 80.6705 166.931 80.6841C166.958 80.702 166.984 80.7117 167.009 80.7131C167.034 80.7159 167.058 80.7103 167.082 80.6962C167.106 80.6821 167.129 80.6609 167.151 80.6326L167.448 79.3597L167.83 79.6085L167.603 80.3838L168.184 79.8394L168.53 80.0652L167.431 80.9907C167.368 81.0444 167.298 81.0816 167.221 81.1023C167.144 81.1242 167.066 81.1289 166.986 81.1164C166.906 81.1051 166.831 81.0765 166.761 81.0306C166.728 81.0093 166.698 80.9848 166.669 80.957C166.641 80.9314 166.616 80.9018 166.593 80.8684L166.8 80.5514ZM169.831 81.0468C169.831 81.0468 169.824 81.0331 169.81 81.0056C169.797 80.9781 169.777 80.9446 169.75 80.9051C169.725 80.8644 169.695 80.8234 169.66 80.7823C169.626 80.7412 169.588 80.707 169.546 80.6798C169.513 80.6586 169.483 80.6463 169.455 80.6432C169.428 80.64 169.406 80.6508 169.39 80.6756C169.374 80.6991 169.373 80.7248 169.384 80.7527C169.396 80.7807 169.416 80.8129 169.447 80.8493C169.478 80.8865 169.515 80.9311 169.557 80.9829C169.627 81.0651 169.681 81.1436 169.722 81.2184C169.762 81.2931 169.782 81.3683 169.781 81.4439C169.781 81.5181 169.753 81.599 169.696 81.6864C169.641 81.7699 169.58 81.8305 169.513 81.8684C169.446 81.9049 169.376 81.9236 169.303 81.9243C169.23 81.9251 169.158 81.9128 169.085 81.8877C169.013 81.8612 168.944 81.8267 168.879 81.7842C168.812 81.7408 168.747 81.6888 168.682 81.6281C168.62 81.567 168.562 81.5026 168.51 81.4349C168.458 81.3659 168.415 81.2968 168.38 81.2276L168.763 81.0001C168.763 81.0001 168.771 81.0165 168.787 81.0491C168.802 81.0818 168.825 81.1219 168.856 81.1696C168.886 81.2172 168.922 81.2659 168.964 81.3155C169.007 81.3661 169.056 81.4088 169.109 81.4436C169.151 81.4708 169.183 81.4843 169.206 81.4841C169.23 81.4834 169.248 81.4739 169.26 81.4557C169.278 81.4283 169.278 81.3981 169.258 81.365C169.24 81.3306 169.211 81.2916 169.173 81.248C169.136 81.2038 169.096 81.1544 169.052 81.0995C168.989 81.0194 168.942 80.9454 168.912 80.8774C168.883 80.8082 168.871 80.742 168.877 80.6789C168.884 80.6145 168.909 80.5484 168.954 80.4805C169.021 80.3775 169.101 80.3071 169.194 80.2694C169.288 80.2318 169.385 80.2208 169.486 80.2366C169.59 80.252 169.687 80.2894 169.778 80.349C169.846 80.3932 169.906 80.4442 169.957 80.502C170.011 80.5593 170.058 80.6176 170.097 80.6768C170.138 80.7368 170.172 80.7909 170.201 80.839L169.831 81.0468ZM169.562 82.2044L170.233 81.1751L170.605 81.4175L169.934 82.4468L169.562 82.2044ZM170.289 81.089L170.493 80.776L170.865 81.0183L170.661 81.3314L170.289 81.089ZM170.214 82.3171L171.046 82.0675L170.605 81.7805L170.771 81.5261L171.599 82.0657L171.456 82.2849L170.626 82.5357L171.111 82.8521L170.946 83.1065L170.071 82.5362L170.214 82.3171ZM171.569 83.541C171.479 83.4823 171.408 83.4163 171.355 83.343C171.304 83.2684 171.269 83.1912 171.253 83.1115C171.237 83.0326 171.237 82.9538 171.254 82.875C171.27 82.7962 171.3 82.7223 171.345 82.6531C171.41 82.554 171.49 82.4774 171.587 82.4232C171.685 82.3678 171.791 82.3425 171.907 82.3474C172.024 82.351 172.143 82.3927 172.266 82.4726C172.389 82.5526 172.475 82.6446 172.527 82.7486C172.578 82.8526 172.599 82.959 172.589 83.068C172.579 83.1769 172.543 83.279 172.481 83.3742C172.468 83.3938 172.454 83.4132 172.438 83.4323C172.424 83.4511 172.41 83.4674 172.397 83.4813L171.675 83.0106C171.654 83.0488 171.644 83.0852 171.646 83.1198C171.65 83.1538 171.661 83.1846 171.681 83.2121C171.701 83.2403 171.726 83.2638 171.755 83.2826C171.795 83.3089 171.839 83.3245 171.886 83.3292C171.934 83.3347 171.975 83.325 172.008 83.3L172.264 83.5954C172.201 83.6324 172.131 83.6555 172.055 83.665C171.979 83.6753 171.9 83.6711 171.817 83.6525C171.736 83.6326 171.653 83.5955 171.569 83.541ZM171.813 82.7824L172.153 83.0044C172.172 82.9679 172.181 82.9329 172.18 82.8992C172.181 82.8663 172.174 82.8353 172.157 82.8061C172.142 82.7778 172.119 82.7534 172.088 82.733C172.057 82.7126 172.024 82.7008 171.991 82.6977C171.959 82.6954 171.927 82.7009 171.896 82.7142C171.867 82.7283 171.839 82.7511 171.813 82.7824Z" fill="#88D498"></path><rect x="85.551" y="110.093" width="19.4654" height="2.72516" rx="0.778619" transform="rotate(33.1025 85.551 110.093)" fill="#88D498"></rect><rect x="124.686" y="135.607" width="14.4044" height="2.72516" rx="0.778619" transform="rotate(33.1025 124.686 135.607)" fill="#88D498"></rect><path opacity="0.6" fill-rule="evenodd" clip-rule="evenodd" d="M121.271 55.3042C121.506 54.944 121.988 54.8423 122.348 55.0772L137.35 64.8576C137.71 65.0924 137.812 65.5748 137.577 65.935L136.939 66.9134C136.704 67.2736 136.222 67.3753 135.862 67.1404L120.86 57.36C120.5 57.1252 120.398 56.6428 120.633 56.2826L121.271 55.3042ZM102.135 84.6552C102.37 84.295 102.852 84.1934 103.213 84.4282L118.214 94.2086C118.575 94.4434 118.676 94.9258 118.441 95.2861L117.803 96.2644C117.569 96.6246 117.086 96.7263 116.726 96.4914L101.724 86.7111C101.364 86.4762 101.262 85.9938 101.497 85.6336L102.135 84.6552ZM120.222 58.3385C119.862 58.1037 119.379 58.2053 119.145 58.5656L118.507 59.5439C118.272 59.9041 118.373 60.3865 118.734 60.6214L133.735 70.4018C134.096 70.6366 134.578 70.535 134.813 70.1748L135.451 69.1964C135.685 68.8362 135.584 68.3538 135.224 68.1189L120.222 58.3385ZM100.009 87.9164C100.244 87.5562 100.726 87.4545 101.087 87.6894L116.088 97.4698C116.448 97.7046 116.55 98.187 116.315 98.5472L115.677 99.5256C115.442 99.8858 114.96 99.9875 114.6 99.7526L99.5982 89.9722C99.238 89.7374 99.1363 89.255 99.3712 88.8948L100.009 87.9164ZM118.096 61.5997C117.736 61.3649 117.253 61.4665 117.018 61.8267L116.381 62.8051C116.146 63.1653 116.247 63.6477 116.608 63.8826L131.609 73.6629C131.969 73.8978 132.452 73.7962 132.687 73.4359L133.324 72.4576C133.559 72.0973 133.458 71.6149 133.097 71.3801L118.096 61.5997ZM97.8828 91.1777C98.1177 90.8175 98.6001 90.7158 98.9603 90.9507L113.962 100.731C114.322 100.966 114.424 101.448 114.189 101.809L113.551 102.787C113.316 103.147 112.834 103.249 112.474 103.014L97.472 93.2335C97.1118 92.9987 97.0101 92.5163 97.245 92.1561L97.8828 91.1777ZM115.97 64.8609C115.609 64.626 115.127 64.7277 114.892 65.0879L114.254 66.0663C114.019 66.4265 114.121 66.9089 114.481 67.1437L129.483 76.9241C129.843 77.159 130.326 77.0573 130.56 76.6971L131.198 75.7187C131.433 75.3585 131.331 74.8761 130.971 74.6413L115.97 64.8609ZM95.7567 94.4389C95.9915 94.0786 96.4739 93.977 96.8341 94.2119L111.836 103.992C112.196 104.227 112.298 104.709 112.063 105.07L111.425 106.048C111.19 106.408 110.708 106.51 110.347 106.275L95.3458 96.4947C94.9856 96.2599 94.884 95.7775 95.1188 95.4172L95.7567 94.4389ZM113.844 68.1221C113.483 67.8872 113.001 67.9889 112.766 68.3491L112.128 69.3274C111.893 69.6877 111.995 70.1701 112.355 70.4049L127.357 80.1853C127.717 80.4201 128.199 80.3185 128.434 79.9583L129.072 78.9799C129.307 78.6197 129.205 78.1373 128.845 77.9024L113.844 68.1221ZM93.6305 97.7002C93.8654 97.34 94.3478 97.2383 94.708 97.4732L109.71 107.254C110.07 107.488 110.171 107.971 109.937 108.331L109.299 109.309C109.064 109.67 108.582 109.771 108.221 109.536L93.2197 99.756C92.8594 99.5212 92.7578 99.0388 92.9927 98.6785L93.6305 97.7002ZM111.717 71.3832C111.357 71.1484 110.875 71.25 110.64 71.6103L110.002 72.5886C109.767 72.9488 109.869 73.4312 110.229 73.6661L125.231 83.4465C125.591 83.6813 126.073 83.5797 126.308 83.2195L126.946 82.2411C127.181 81.8809 127.079 81.3985 126.719 81.1636L111.717 71.3832ZM91.5044 100.961C91.7392 100.601 92.2216 100.499 92.5818 100.734L107.583 110.515C107.944 110.75 108.045 111.232 107.81 111.592L107.173 112.571C106.938 112.931 106.455 113.032 106.095 112.798L91.0935 103.017C90.7333 102.782 90.6317 102.3 90.8665 101.94L91.5044 100.961ZM109.591 74.6446C109.231 74.4097 108.748 74.5113 108.514 74.8716L107.876 75.8499C107.641 76.2102 107.743 76.6926 108.103 76.9274L123.104 86.7078C123.465 86.9426 123.947 86.841 124.182 86.4808L124.82 85.5024C125.055 85.1422 124.953 84.6598 124.593 84.4249L109.591 74.6446ZM89.3782 104.223C89.6131 103.862 90.0955 103.761 90.4557 103.996L105.457 113.776C105.818 114.011 105.919 114.493 105.684 114.853L105.046 115.832C104.812 116.192 104.329 116.294 103.969 116.059L88.9674 106.278C88.6071 106.044 88.5055 105.561 88.7404 105.201L89.3782 104.223ZM107.465 77.9057C107.105 77.6709 106.622 77.7725 106.387 78.1327L105.75 79.1111C105.515 79.4713 105.616 79.9537 105.977 80.1886L120.978 89.969C121.338 90.2038 121.821 90.1022 122.056 89.7419L122.694 88.7636C122.928 88.4034 122.827 87.9209 122.467 87.6861L107.465 77.9057ZM87.252 107.484C87.4868 107.124 87.9692 107.022 88.3294 107.257L103.331 117.037C103.691 117.272 103.793 117.754 103.558 118.115L102.92 119.093C102.685 119.453 102.203 119.555 101.843 119.32L86.8411 109.54C86.4809 109.305 86.3793 108.822 86.6141 108.462L87.252 107.484ZM105.339 81.167C104.979 80.9322 104.496 81.0338 104.261 81.394L103.623 82.3724C103.389 82.7326 103.49 83.215 103.85 83.4499L118.852 93.2303C119.212 93.4651 119.695 93.3635 119.93 93.0033L120.567 92.0249C120.802 91.6647 120.701 91.1823 120.34 90.9474L105.339 81.167ZM160.405 80.8182C160.64 80.458 161.123 80.3563 161.483 80.5912L172.245 87.6075C172.605 87.8424 172.707 88.3248 172.472 88.685L171.834 89.6634C171.599 90.0236 171.117 90.1253 170.756 89.8904L159.994 82.874C159.634 82.6392 159.533 82.1568 159.767 81.7966L160.405 80.8182ZM142.347 109.942C141.987 109.707 141.505 109.809 141.27 110.169L140.632 111.148C140.397 111.508 140.499 111.99 140.859 112.225L151.621 119.242C151.981 119.476 152.464 119.375 152.698 119.014L153.336 118.036C153.571 117.676 153.47 117.194 153.109 116.959L142.347 109.942ZM158.279 84.0795C158.514 83.7193 158.996 83.6177 159.357 83.8525L170.119 90.8689C170.479 91.1037 170.58 91.5861 170.346 91.9463L169.708 92.9247C169.473 93.2849 168.99 93.3866 168.63 93.1517L157.868 86.1354C157.508 85.9005 157.406 85.4181 157.641 85.0579L158.279 84.0795ZM140.221 113.203C139.861 112.969 139.378 113.07 139.144 113.43L138.506 114.409C138.271 114.769 138.373 115.251 138.733 115.486L149.495 122.503C149.855 122.738 150.337 122.636 150.572 122.276L151.21 121.297C151.445 120.937 151.343 120.455 150.983 120.22L140.221 113.203ZM156.153 87.3407C156.388 86.9805 156.87 86.8788 157.23 87.1137L167.993 94.13C168.353 94.3649 168.454 94.8473 168.22 95.2075L167.582 96.1859C167.347 96.5461 166.864 96.6477 166.504 96.4129L155.742 89.3965C155.382 89.1617 155.28 88.6793 155.515 88.3191L156.153 87.3407ZM138.095 116.465C137.735 116.23 137.252 116.331 137.017 116.692L136.38 117.67C136.145 118.03 136.246 118.513 136.607 118.747L147.369 125.764C147.729 125.999 148.211 125.897 148.446 125.537L149.084 124.558C149.319 124.198 149.217 123.716 148.857 123.481L138.095 116.465ZM154.027 90.6019C154.262 90.2416 154.744 90.14 155.104 90.3749L165.866 97.3912C166.227 97.6261 166.328 98.1085 166.093 98.4687L165.455 99.447C165.221 99.8073 164.738 99.9089 164.378 99.6741L153.616 92.6577C153.256 92.4229 153.154 91.9405 153.389 91.5802L154.027 90.6019ZM135.969 119.726C135.609 119.491 135.126 119.593 134.891 119.953L134.253 120.931C134.019 121.291 134.12 121.774 134.48 122.009L145.242 129.025C145.603 129.26 146.085 129.158 146.32 128.798L146.958 127.82C147.193 127.459 147.091 126.977 146.731 126.742L135.969 119.726ZM151.901 93.8632C152.135 93.5029 152.618 93.4013 152.978 93.6362L163.74 100.653C164.1 100.887 164.202 101.37 163.967 101.73L163.329 102.708C163.094 103.069 162.612 103.17 162.252 102.935L151.49 95.919C151.13 95.6842 151.028 95.2018 151.263 94.8415L151.901 93.8632ZM133.843 122.987C133.482 122.752 133 122.854 132.765 123.214L132.127 124.193C131.892 124.553 131.994 125.035 132.354 125.27L143.116 132.286C143.477 132.521 143.959 132.42 144.194 132.059L144.832 131.081C145.066 130.721 144.965 130.238 144.605 130.003L133.843 122.987ZM149.774 97.1243C150.009 96.7641 150.492 96.6625 150.852 96.8973L161.614 103.914C161.974 104.149 162.076 104.631 161.841 104.991L161.203 105.97C160.968 106.33 160.486 106.431 160.126 106.197L149.364 99.1802C149.003 98.9453 148.902 98.4629 149.137 98.1027L149.774 97.1243ZM131.716 126.248C131.356 126.013 130.874 126.115 130.639 126.475L130.001 127.454C129.766 127.814 129.868 128.296 130.228 128.531L140.99 135.548C141.35 135.782 141.833 135.681 142.068 135.32L142.705 134.342C142.94 133.982 142.839 133.5 142.478 133.265L131.716 126.248ZM147.648 100.386C147.883 100.025 148.366 99.9237 148.726 100.159L159.488 107.175C159.848 107.41 159.95 107.892 159.715 108.252L159.077 109.231C158.842 109.591 158.36 109.693 158 109.458L147.237 102.441C146.877 102.207 146.776 101.724 147.01 101.364L147.648 100.386ZM129.59 129.51C129.23 129.275 128.748 129.376 128.513 129.737L127.875 130.715C127.64 131.075 127.742 131.558 128.102 131.792L138.864 138.809C139.224 139.044 139.707 138.942 139.941 138.582L140.579 137.603C140.814 137.243 140.712 136.761 140.352 136.526L129.59 129.51ZM145.522 103.647C145.757 103.287 146.239 103.185 146.6 103.42L157.362 110.436C157.722 110.671 157.824 111.153 157.589 111.514L156.951 112.492C156.716 112.852 156.234 112.954 155.873 112.719L145.111 105.703C144.751 105.468 144.649 104.985 144.884 104.625L145.522 103.647ZM127.464 132.771C127.104 132.536 126.621 132.638 126.387 132.998L125.749 133.976C125.514 134.336 125.616 134.819 125.976 135.054L136.738 142.07C137.098 142.305 137.58 142.203 137.815 141.843L138.453 140.865C138.688 140.504 138.586 140.022 138.226 139.787L127.464 132.771ZM143.396 106.908C143.631 106.548 144.113 106.446 144.473 106.681L155.235 113.697C155.596 113.932 155.697 114.415 155.463 114.775L154.825 115.753C154.59 116.113 154.107 116.215 153.747 115.98L142.985 108.964C142.625 108.729 142.523 108.247 142.758 107.886L143.396 106.908ZM144.851 69.7477C144.49 69.5129 144.008 69.6145 143.773 69.9747L143.135 70.9531C142.9 71.3133 143.002 71.7957 143.362 72.0306L152.494 77.9839C152.854 78.2187 153.336 78.1171 153.571 77.7569L154.209 76.7785C154.444 76.4183 154.342 75.9359 153.982 75.701L144.851 69.7477ZM124.638 99.3258C124.872 98.9656 125.355 98.864 125.715 99.0988L134.846 105.052C135.207 105.287 135.308 105.769 135.073 106.13L134.436 107.108C134.201 107.468 133.718 107.57 133.358 107.335L124.227 101.382C123.866 101.147 123.765 100.664 124 100.304L124.638 99.3258ZM142.724 73.009C142.364 72.7742 141.882 72.8758 141.647 73.2361L141.009 74.2144C140.774 74.5746 140.876 75.057 141.236 75.2919L150.367 81.2452C150.728 81.48 151.21 81.3784 151.445 81.0182L152.083 80.0398C152.318 79.6796 152.216 79.1972 151.856 78.9623L142.724 73.009ZM122.511 102.587C122.746 102.227 123.229 102.125 123.589 102.36L132.72 108.313C133.08 108.548 133.182 109.031 132.947 109.391L132.309 110.369C132.075 110.729 131.592 110.831 131.232 110.596L122.101 104.643C121.74 104.408 121.639 103.926 121.874 103.565L122.511 102.587ZM140.598 76.2702C140.238 76.0354 139.756 76.137 139.521 76.4972L138.883 77.4756C138.648 77.8358 138.75 78.3182 139.11 78.5531L148.241 84.5063C148.602 84.7412 149.084 84.6396 149.319 84.2793L149.957 83.301C150.192 82.9407 150.09 82.4583 149.73 82.2235L140.598 76.2702ZM120.385 105.848C120.62 105.488 121.102 105.386 121.463 105.621L130.594 111.574C130.954 111.809 131.056 112.292 130.821 112.652L130.183 113.63C129.948 113.991 129.466 114.092 129.106 113.857L119.974 107.904C119.614 107.669 119.513 107.187 119.747 106.827L120.385 105.848ZM138.472 79.5314C138.112 79.2965 137.629 79.3982 137.395 79.7584L136.757 80.7368C136.522 81.097 136.624 81.5794 136.984 81.8142L146.115 87.7675C146.475 88.0024 146.958 87.9007 147.193 87.5405L147.831 86.5621C148.065 86.2019 147.964 85.7195 147.604 85.4847L138.472 79.5314ZM118.259 109.109C118.494 108.749 118.976 108.648 119.337 108.882L128.468 114.836C128.828 115.07 128.93 115.553 128.695 115.913L128.057 116.891C127.822 117.252 127.34 117.353 126.98 117.118L117.848 111.165C117.488 110.93 117.386 110.448 117.621 110.088L118.259 109.109ZM136.346 82.7927C135.986 82.5579 135.503 82.6595 135.268 83.0197L134.631 83.9981C134.396 84.3583 134.497 84.8407 134.858 85.0756L143.989 91.0288C144.349 91.2637 144.832 91.162 145.066 90.8018L145.704 89.8234C145.939 89.4632 145.838 88.9808 145.477 88.746L136.346 82.7927ZM116.133 112.371C116.368 112.01 116.85 111.909 117.21 112.144L126.342 118.097C126.702 118.332 126.804 118.814 126.569 119.174L125.931 120.153C125.696 120.513 125.214 120.615 124.853 120.38L115.722 114.427C115.362 114.192 115.26 113.709 115.495 113.349L116.133 112.371ZM134.22 86.0539C133.859 85.819 133.377 85.9207 133.142 86.2809L132.504 87.2593C132.27 87.6195 132.371 88.1019 132.731 88.3367L141.863 94.29C142.223 94.5248 142.705 94.4232 142.94 94.063L143.578 93.0846C143.813 92.7244 143.711 92.242 143.351 92.0071L134.22 86.0539ZM114.007 115.632C114.242 115.272 114.724 115.17 115.084 115.405L124.216 121.358C124.576 121.593 124.677 122.075 124.443 122.436L123.805 123.414C123.57 123.774 123.088 123.876 122.727 123.641L113.596 117.688C113.236 117.453 113.134 116.97 113.369 116.61L114.007 115.632ZM132.094 89.3152C131.733 89.0803 131.251 89.182 131.016 89.5422L130.378 90.5206C130.143 90.8808 130.245 91.3632 130.605 91.598L139.737 97.5513C140.097 97.7862 140.579 97.6845 140.814 97.3243L141.452 96.3459C141.687 95.9857 141.585 95.5033 141.225 95.2685L132.094 89.3152ZM111.881 118.893C112.115 118.533 112.598 118.431 112.958 118.666L122.089 124.619C122.45 124.854 122.551 125.337 122.316 125.697L121.679 126.675C121.444 127.035 120.961 127.137 120.601 126.902L111.47 120.949C111.109 120.714 111.008 120.232 111.243 119.872L111.881 118.893ZM129.967 92.5764C129.607 92.3415 129.125 92.4431 128.89 92.8034L128.252 93.7817C128.017 94.142 128.119 94.6244 128.479 94.8592L137.61 100.812C137.971 101.047 138.453 100.946 138.688 100.585L139.326 99.6071C139.561 99.2469 139.459 98.7645 139.099 98.5296L129.967 92.5764ZM109.754 122.154C109.989 121.794 110.472 121.692 110.832 121.927L119.963 127.881C120.324 128.115 120.425 128.598 120.19 128.958L119.552 129.936C119.318 130.297 118.835 130.398 118.475 130.163L109.344 124.21C108.983 123.975 108.882 123.493 109.117 123.133L109.754 122.154ZM127.841 95.8375C127.481 95.6027 126.999 95.7043 126.764 96.0645L126.126 97.0429C125.891 97.4031 125.993 97.8855 126.353 98.1204L135.484 104.074C135.845 104.309 136.327 104.207 136.562 103.847L137.2 102.868C137.435 102.508 137.333 102.026 136.973 101.791L127.841 95.8375Z" fill="url(#paint6_linear_2766_377)"></path><rect x="108.053" y="124.763" width="12.4579" height="2.72516" rx="0.778619" transform="rotate(33.1025 108.053 124.763)" fill="#88D498"></rect></g><rect x="136.841" y="18.3768" width="74.9813" height="96.004" rx="4.39942" transform="rotate(33.1025 136.841 18.3768)" stroke="url(#paint7_linear_2766_377)" stroke-width="0.544593"></rect><rect y="80" width="257" height="78" fill="url(#paint8_linear_2766_377)"></rect></g><path d="M0.5 16C0.5 7.43959 7.43959 0.5 16 0.5H241C249.56 0.5 256.5 7.43959 256.5 16V157.5H0.5V16Z" stroke="url(#paint9_linear_2766_377)"></path><defs><linearGradient id="paint0_linear_2766_377" x1="76.6171" y1="44.4423" x2="76.6171" y2="123.953" gradientUnits="userSpaceOnUse"><stop stop-color="#07212A"></stop><stop offset="0.4" stop-color="#0A161A"></stop><stop offset="1" stop-color="#187190"></stop></linearGradient><linearGradient id="paint1_linear_2766_377" x1="76.6171" y1="44.4423" x2="76.6171" y2="123.953" gradientUnits="userSpaceOnUse"><stop stop-color="#88D498" stop-opacity="0.8"></stop><stop offset="1" stop-color="#88D498" stop-opacity="0"></stop></linearGradient><linearGradient id="paint2_linear_2766_377" x1="77.2092" y1="41.4131" x2="86.96" y2="72.4985" gradientUnits="userSpaceOnUse"><stop stop-color="#075236"></stop><stop offset="1" stop-color="#0FB87A"></stop></linearGradient><linearGradient id="paint3_linear_2766_377" x1="77.2092" y1="41.4131" x2="86.96" y2="72.4985" gradientUnits="userSpaceOnUse"><stop stop-color="#16A771"></stop><stop offset="1" stop-color="#08412C"></stop></linearGradient><linearGradient id="paint4_linear_2766_377" x1="77.2092" y1="41.4131" x2="86.96" y2="72.4985" gradientUnits="userSpaceOnUse"><stop stop-color="#118B5E"></stop><stop offset="1" stop-color="#052519"></stop></linearGradient><linearGradient id="paint5_linear_2766_377" x1="174.524" y1="18" x2="174.524" y2="114.549" gradientUnits="userSpaceOnUse"><stop stop-color="#07212A"></stop><stop offset="0.4" stop-color="#0A161A"></stop><stop offset="1" stop-color="#187190"></stop></linearGradient><linearGradient id="paint6_linear_2766_377" x1="147.297" y1="71.3423" x2="111.789" y2="125.805" gradientUnits="userSpaceOnUse"><stop stop-color="#88D498"></stop><stop offset="0.73057" stop-color="#88D498" stop-opacity="0"></stop></linearGradient><linearGradient id="paint7_linear_2766_377" x1="174.524" y1="18" x2="174.524" y2="114.549" gradientUnits="userSpaceOnUse"><stop stop-color="#88D498" stop-opacity="0.8"></stop><stop offset="1" stop-color="#88D498" stop-opacity="0"></stop></linearGradient><linearGradient id="paint8_linear_2766_377" x1="128.5" y1="158" x2="128.5" y2="80" gradientUnits="userSpaceOnUse"><stop stop-color="#021117"></stop><stop offset="1" stop-color="#07212A" stop-opacity="0"></stop></linearGradient><linearGradient id="paint9_linear_2766_377" x1="128.5" y1="0" x2="128.5" y2="158" gradientUnits="userSpaceOnUse"><stop offset="0.190327" stop-color="#176B87"></stop><stop offset="1" stop-color="#176B87" stop-opacity="0"></stop></linearGradient><clipPath id="clip0_2766_377"><path d="M0 16C0 7.16345 7.16344 0 16 0H241C249.837 0 257 7.16344 257 16V158H0V16Z" fill="white"></path></clipPath><clipPath id="clip1_2766_377"><rect x="136.761" y="18" width="75.5259" height="96.5486" rx="4.67171" transform="rotate(33.1025 136.761 18)" fill="white"></rect></clipPath></defs></svg> 