<?xml version="1.0" encoding="UTF-8"?> <svg xmlns="http://www.w3.org/2000/svg" width="290" height="178" viewBox="0 0 290 178" fill="none"><g clip-path="url(#clip0_2789_446)"><path d="M0 18.0253C0 8.0702 8.07021 0 18.0253 0H271.506C281.461 0 289.532 8.07021 289.532 18.0253V178H0V18.0253Z" fill="#00141B"></path><g filter="url(#filter0_f_2789_446)"><circle cx="144.266" cy="89" r="72" fill="#174C5D"></circle></g><circle cx="144.266" cy="86.9428" r="46.4936" fill="url(#paint0_radial_2789_446)"></circle><path fill-rule="evenodd" clip-rule="evenodd" d="M144.266 141.114C174.184 141.114 198.437 116.861 198.437 86.9429C198.437 57.0248 174.184 32.7714 144.266 32.7714C114.348 32.7714 90.0944 57.0248 90.0944 86.9429C90.0944 116.861 114.348 141.114 144.266 141.114ZM144.266 136.849C171.828 136.849 194.172 114.505 194.172 86.9428C194.172 59.3805 171.828 37.0369 144.266 37.0369C116.703 37.0369 94.3598 59.3805 94.3598 86.9428C94.3598 114.505 116.703 136.849 144.266 136.849Z" fill="#144658"></path><path fill-rule="evenodd" clip-rule="evenodd" d="M144.266 136.849C171.828 136.849 194.172 114.505 194.172 86.9429C194.172 59.3806 171.828 37.0369 144.266 37.0369C116.704 37.0369 94.3599 59.3806 94.3599 86.9429C94.3599 114.505 116.704 136.849 144.266 136.849ZM144.266 132.157C169.237 132.157 189.48 111.914 189.48 86.9429C189.48 61.9719 169.237 41.7289 144.266 41.7289C119.295 41.7289 99.0519 61.9719 99.0519 86.9429C99.0519 111.914 119.295 132.157 144.266 132.157Z" fill="url(#paint1_linear_2789_446)"></path><g opacity="0.23"><path d="M189.266 86.9429C189.266 111.796 169.119 131.944 144.266 131.944C119.413 131.944 99.2652 111.796 99.2652 86.9429C99.2652 62.0897 119.413 41.9422 144.266 41.9422C169.119 41.9422 189.266 62.0897 189.266 86.9429Z" stroke="#9BE5FF" stroke-width="0.426547"></path><path d="M189.48 86.9429H183.935" stroke="#9BE5FF" stroke-width="1.27964"></path><path d="M187.484 100.269L182.184 98.6368" stroke="#9BE5FF" stroke-width="1.27964"></path><path d="M181.664 112.36L177.075 109.248" stroke="#9BE5FF" stroke-width="1.27964"></path><path d="M172.476 122.279L169.005 117.954" stroke="#9BE5FF" stroke-width="1.27964"></path><path d="M160.799 129.039L158.754 123.884" stroke="#9BE5FF" stroke-width="1.27964"></path><path d="M147.646 132.032L147.218 126.504" stroke="#9BE5FF" stroke-width="1.27964"></path><path d="M134.029 130.993L135.275 125.59" stroke="#9BE5FF" stroke-width="1.27964"></path><path d="M121.514 126.023L124.299 121.229" stroke="#9BE5FF" stroke-width="1.27964"></path><path d="M111.011 117.577L115.086 113.816" stroke="#9BE5FF" stroke-width="1.27964"></path><path d="M103.476 106.473L108.473 104.068" stroke="#9BE5FF" stroke-width="1.27964"></path><path d="M99.5357 93.5805L105.022 92.7718" stroke="#9BE5FF" stroke-width="1.27964"></path><path d="M99.587 79.9658L105.066 80.8164" stroke="#9BE5FF" stroke-width="1.27964"></path><path d="M103.635 67.0845L108.614 69.5263" stroke="#9BE5FF" stroke-width="1.27964"></path><path d="M111.188 56.1172L115.236 59.9078" stroke="#9BE5FF" stroke-width="1.27964"></path><path d="M121.801 47.6954L124.551 52.5107" stroke="#9BE5FF" stroke-width="1.27964"></path><path d="M134.252 42.8412L135.456 48.2539" stroke="#9BE5FF" stroke-width="1.27964"></path><path d="M148.119 41.8907L147.649 47.4159" stroke="#9BE5FF" stroke-width="1.27964"></path><path d="M161.207 45.0097L159.123 50.1485" stroke="#9BE5FF" stroke-width="1.27964"></path><path d="M172.747 51.8252L169.245 56.1243" stroke="#9BE5FF" stroke-width="1.27964"></path><path d="M181.88 61.8449L177.268 64.9238" stroke="#9BE5FF" stroke-width="1.27964"></path><path d="M187.63 74.101L182.312 75.6727" stroke="#9BE5FF" stroke-width="1.27964"></path></g><mask id="path-29-inside-1_2789_446" fill="white"><path d="M155.914 139.847C168.819 137.006 180.241 129.545 188.029 118.87C195.817 108.194 199.435 95.0396 198.2 81.8828C196.966 68.7259 190.965 56.474 181.327 47.4333C171.689 38.3925 159.079 33.1865 145.87 32.7952C132.661 32.4038 119.765 36.8542 109.609 45.3085C99.4524 53.7628 92.7366 65.6379 90.7255 78.6986C88.7144 91.7593 91.5467 105.105 98.6892 116.223C105.832 127.341 116.792 135.464 129.507 139.065L130.155 136.774C117.999 133.332 107.521 125.565 100.692 114.936C93.8637 104.306 91.1559 91.5476 93.0786 79.061C95.0013 66.5743 101.422 55.2211 111.132 47.1383C120.842 39.0556 133.171 34.8008 145.8 35.175C158.428 35.5491 170.484 40.5263 179.698 49.1697C188.913 57.8131 194.65 69.5266 195.83 82.1052C197.01 94.6838 193.552 107.26 186.106 117.466C178.66 127.673 167.74 134.806 155.402 137.522L153.523 139.057L155.914 139.847Z"></path></mask><path d="M155.914 139.847L155.053 142.452L155.768 142.688L156.503 142.526L155.914 139.847ZM129.507 139.065L128.759 141.704L131.398 142.451L132.146 139.812L129.507 139.065ZM130.155 136.774L132.794 137.521L133.542 134.882L130.903 134.135L130.155 136.774ZM155.402 137.522L154.812 134.843L154.173 134.984L153.666 135.398L155.402 137.522ZM153.523 139.057L151.788 136.933L147.919 140.094L152.662 141.661L153.523 139.057ZM156.503 142.526C170.062 139.541 182.063 131.702 190.245 120.486L185.813 117.253C178.42 127.388 167.576 134.471 155.324 137.169L156.503 142.526ZM190.245 120.486C198.428 109.27 202.228 95.4496 200.931 81.6266L195.47 82.139C196.641 94.6296 193.207 107.118 185.813 117.253L190.245 120.486ZM200.931 81.6266C199.635 67.8036 193.33 54.9313 183.204 45.4328L179.451 49.4338C188.601 58.0168 194.298 69.6483 195.47 82.139L200.931 81.6266ZM183.204 45.4328C173.078 35.9343 159.829 30.4647 145.951 30.0535L145.789 35.5368C158.329 35.9084 170.301 40.8508 179.451 49.4338L183.204 45.4328ZM145.951 30.0535C132.074 29.6424 118.524 34.3181 107.854 43.2004L111.363 47.4166C121.006 39.3903 133.249 35.1653 145.789 35.5368L145.951 30.0535ZM107.854 43.2004C97.1833 52.0828 90.1275 64.5592 88.0146 78.2812L93.4364 79.1161C95.3457 66.7167 101.721 55.4428 111.363 47.4166L107.854 43.2004ZM88.0146 78.2812C85.9017 92.0032 88.8774 106.024 96.3815 117.705L100.997 114.74C94.216 104.185 91.5271 91.5154 93.4364 79.1161L88.0146 78.2812ZM96.3815 117.705C103.886 129.386 115.401 137.921 128.759 141.704L130.254 136.426C118.183 133.008 107.778 125.295 100.997 114.74L96.3815 117.705ZM132.146 139.812L132.794 137.521L127.516 136.027L126.867 138.318L132.146 139.812ZM130.903 134.135C119.39 130.875 109.467 123.52 103 113.453L98.3846 116.418C105.575 127.611 116.608 135.789 129.408 139.413L130.903 134.135ZM103 113.453C96.533 103.387 93.9686 91.3038 95.7895 79.4784L90.3677 78.6435C88.3431 91.7915 91.1943 105.226 98.3846 116.418L103 113.453ZM95.7895 79.4784C97.6104 67.653 103.691 56.9011 112.887 49.2464L109.377 45.0302C99.1529 53.5411 92.3922 65.4956 90.3677 78.6435L95.7895 79.4784ZM112.887 49.2464C122.082 41.5917 133.759 37.5623 145.718 37.9166L145.881 32.4333C132.584 32.0394 119.601 36.5194 109.377 45.0302L112.887 49.2464ZM145.718 37.9166C157.678 38.2709 169.095 42.9846 177.822 51.1702L181.575 47.1692C171.872 38.0681 159.178 32.8273 145.881 32.4333L145.718 37.9166ZM177.822 51.1702C186.548 59.3559 191.982 70.449 193.099 82.3614L198.561 81.849C197.318 68.6042 191.277 56.2704 181.575 47.1692L177.822 51.1702ZM193.099 82.3614C194.217 94.2738 190.942 106.184 183.89 115.85L188.322 119.083C196.162 108.336 199.804 95.0937 198.561 81.849L193.099 82.3614ZM183.89 115.85C176.838 125.516 166.497 132.271 154.812 134.843L155.991 140.201C168.983 137.34 180.481 129.83 188.322 119.083L183.89 115.85ZM153.666 135.398L151.788 136.933L155.259 141.181L157.137 139.646L153.666 135.398ZM152.662 141.661L155.053 142.452L156.774 137.243L154.384 136.453L152.662 141.661Z" fill="url(#paint2_linear_2789_446)" mask="url(#path-29-inside-1_2789_446)"></path><g filter="url(#filter1_d_2789_446)"><path d="M123.792 86.6488C123.792 85.9745 123.841 85.372 123.941 84.8412C124.055 84.3104 124.234 83.8298 124.476 83.3995C124.733 82.9547 125.068 82.5459 125.481 82.1729C125.909 81.7856 126.444 81.4197 127.086 81.0754C127.756 80.7168 128.312 80.4155 128.754 80.1717C129.211 79.9134 129.574 79.6983 129.845 79.5261C130.116 79.354 130.302 79.189 130.401 79.0312C130.515 78.859 130.573 78.6725 130.573 78.4717C130.573 78.1991 130.508 77.9624 130.38 77.7616C130.252 77.5607 130.066 77.4101 129.824 77.3097C129.581 77.1949 129.282 77.1375 128.925 77.1375C128.64 77.1375 128.369 77.1734 128.113 77.2451C127.856 77.3169 127.606 77.4245 127.364 77.5679C127.136 77.7114 126.915 77.8835 126.701 78.0844C126.487 78.2709 126.273 78.486 126.059 78.7299L123.899 76.1907C124.141 75.9468 124.448 75.703 124.818 75.4591C125.203 75.2152 125.638 75 126.123 74.8135C126.608 74.6127 127.136 74.4549 127.706 74.3401C128.291 74.211 128.897 74.1465 129.524 74.1465C130.551 74.1465 131.414 74.3043 132.113 74.6199C132.826 74.9211 133.368 75.3515 133.738 75.911C134.109 76.4705 134.295 77.1304 134.295 77.8907C134.295 78.3784 134.216 78.8088 134.059 79.1818C133.917 79.5405 133.724 79.8632 133.482 80.1501C133.239 80.4371 132.961 80.6953 132.647 80.9248C132.348 81.1543 132.049 81.3624 131.749 81.5489C131.407 81.721 131.086 81.8932 130.786 82.0653C130.487 82.2231 130.209 82.3809 129.952 82.5387C129.695 82.6822 129.453 82.84 129.225 83.0121C129.011 83.1699 128.804 83.3492 128.605 83.5501H134.53V86.6488H123.792Z" fill="#5CAEC8"></path><path d="M141.719 89.3816V86.4336H135.836V83.3564L142.81 74.3616H145.142V83.3349H147.024V86.4336H145.142V89.3816H141.719ZM139.216 83.3349H142.125V79.5261L139.216 83.3349Z" fill="#5CAEC8"></path><path d="M156.014 86.0152L145.211 101.293H141.425L152.227 86.0152H156.014Z" fill="#5CAEC8"></path><path d="M163.615 91.8682H157.219V88.7265H169.006L161.519 104.005H157.647L163.615 91.8682Z" fill="#5CAEC8"></path></g><g opacity="0.05"><path d="M3.66431 -98.8575V277.139" stroke="#D9D9D9" stroke-width="0.300918"></path><path d="M20.2148 -98.8575V277.139" stroke="#D9D9D9" stroke-width="0.300918"></path><path d="M36.7653 -98.8575V277.139" stroke="#D9D9D9" stroke-width="0.300918"></path><path d="M53.3158 -98.8575V277.139" stroke="#D9D9D9" stroke-width="0.300918"></path><path d="M69.8663 -98.8575V277.139" stroke="#D9D9D9" stroke-width="0.300918"></path><path d="M86.4167 -98.8575V277.139" stroke="#D9D9D9" stroke-width="0.300918"></path><path d="M102.967 -98.8575V277.139" stroke="#D9D9D9" stroke-width="0.300918"></path><path d="M119.518 -98.8575V277.139" stroke="#D9D9D9" stroke-width="0.300918"></path><path d="M136.068 -98.8575V277.139" stroke="#D9D9D9" stroke-width="0.300918"></path><path d="M152.619 -98.8575V277.139" stroke="#D9D9D9" stroke-width="0.300918"></path><path d="M169.169 -98.8575V277.139" stroke="#D9D9D9" stroke-width="0.300918"></path><path d="M185.72 -98.8575V277.139" stroke="#D9D9D9" stroke-width="0.300918"></path><path d="M202.27 -98.8575V277.139" stroke="#D9D9D9" stroke-width="0.300918"></path><path d="M218.821 -98.8575V277.139" stroke="#D9D9D9" stroke-width="0.300918"></path><path d="M235.371 -98.8575V277.139" stroke="#D9D9D9" stroke-width="0.300918"></path><path d="M251.922 -98.8575V277.139" stroke="#D9D9D9" stroke-width="0.300918"></path><path d="M268.472 -98.8575V277.139" stroke="#D9D9D9" stroke-width="0.300918"></path><path d="M285.022 -98.8575V277.139" stroke="#D9D9D9" stroke-width="0.300918"></path><path d="M332.342 14.6638L-43.655 14.6638" stroke="#D9D9D9" stroke-width="0.300918"></path><path d="M332.342 31.2143L-43.655 31.2143" stroke="#D9D9D9" stroke-width="0.300918"></path><path d="M332.342 47.7646L-43.655 47.7645" stroke="#D9D9D9" stroke-width="0.300918"></path><path d="M332.342 64.3151L-43.655 64.3151" stroke="#D9D9D9" stroke-width="0.300918"></path><path d="M332.342 80.8656L-43.655 80.8656" stroke="#D9D9D9" stroke-width="0.300918"></path><path d="M332.342 97.4162L-43.655 97.4161" stroke="#D9D9D9" stroke-width="0.300918"></path><path d="M332.342 113.967L-43.655 113.967" stroke="#D9D9D9" stroke-width="0.300918"></path><path d="M332.342 130.517L-43.655 130.517" stroke="#D9D9D9" stroke-width="0.300918"></path><path d="M332.342 147.067L-43.655 147.067" stroke="#D9D9D9" stroke-width="0.300918"></path><path d="M332.342 163.618L-43.655 163.618" stroke="#D9D9D9" stroke-width="0.300918"></path></g><rect y="90.1266" width="289.532" height="87.8734" fill="url(#paint3_linear_2789_446)"></rect></g><path d="M18.0253 0.563291H271.506C281.15 0.563291 288.968 8.38131 288.968 18.0253V177.437H0.563291V18.0253C0.563291 8.3813 8.38131 0.563291 18.0253 0.563291Z" stroke="url(#paint4_linear_2789_446)" stroke-width="1.12658"></path><defs><filter id="filter0_f_2789_446" x="14.6659" y="-40.6" width="259.2" height="259.2" filterUnits="userSpaceOnUse" color-interpolation-filters="sRGB"><feFlood flood-opacity="0" result="BackgroundImageFix"></feFlood><feBlend mode="normal" in="SourceGraphic" in2="BackgroundImageFix" result="shape"></feBlend><feGaussianBlur stdDeviation="28.8" result="effect1_foregroundBlur_2789_446"></feGaussianBlur></filter><filter id="filter1_d_2789_446" x="122.085" y="74.1465" width="48.6264" height="33.2706" filterUnits="userSpaceOnUse" color-interpolation-filters="sRGB"><feFlood flood-opacity="0" result="BackgroundImageFix"></feFlood><feColorMatrix in="SourceAlpha" type="matrix" values="0 0 0 0 0 0 0 0 0 0 0 0 0 0 0 0 0 0 127 0" result="hardAlpha"></feColorMatrix><feOffset dy="1.70619"></feOffset><feGaussianBlur stdDeviation="0.853093"></feGaussianBlur><feComposite in2="hardAlpha" operator="out"></feComposite><feColorMatrix type="matrix" values="0 0 0 0 0 0 0 0 0 0 0 0 0 0 0 0 0 0 0.25 0"></feColorMatrix><feBlend mode="normal" in2="BackgroundImageFix" result="effect1_dropShadow_2789_446"></feBlend><feBlend mode="normal" in="SourceGraphic" in2="effect1_dropShadow_2789_446" result="shape"></feBlend></filter><radialGradient id="paint0_radial_2789_446" cx="0" cy="0" r="1" gradientUnits="userSpaceOnUse" gradientTransform="translate(144.266 86.9428) rotate(90) scale(46.4936 42.1498)"><stop stop-color="#082832"></stop><stop offset="1" stop-color="#1F5E72"></stop></radialGradient><linearGradient id="paint1_linear_2789_446" x1="157.915" y1="51.966" x2="101.185" y2="158.389" gradientUnits="userSpaceOnUse"><stop stop-color="#08222B"></stop><stop offset="1" stop-color="#0B3D4F"></stop></linearGradient><linearGradient id="paint2_linear_2789_446" x1="85.2945" y1="32.0857" x2="155.914" y2="139.847" gradientUnits="userSpaceOnUse"><stop stop-color="#05212B" stop-opacity="0"></stop><stop offset="1" stop-color="#05212B"></stop></linearGradient><linearGradient id="paint3_linear_2789_446" x1="144.766" y1="178" x2="144.766" y2="90.1266" gradientUnits="userSpaceOnUse"><stop stop-color="#021117"></stop><stop offset="1" stop-color="#07212A" stop-opacity="0"></stop></linearGradient><linearGradient id="paint4_linear_2789_446" x1="144.766" y1="0" x2="144.766" y2="178" gradientUnits="userSpaceOnUse"><stop offset="0.190327" stop-color="#176B87"></stop><stop offset="1" stop-color="#176B87" stop-opacity="0"></stop></linearGradient><clipPath id="clip0_2789_446"><path d="M0 18.0253C0 8.0702 8.07021 0 18.0253 0H271.506C281.461 0 289.532 8.07021 289.532 18.0253V178H0V18.0253Z" fill="white"></path></clipPath></defs></svg> 