<?xml version="1.0" encoding="UTF-8"?> <svg xmlns="http://www.w3.org/2000/svg" width="256" height="158" viewBox="0 0 256 158" fill="none"><g clip-path="url(#clip0_2766_498)"><path d="M0 16C0 7.16345 7.16344 0 16 0H240C248.837 0 256 7.16344 256 16V158H0V16Z" fill="#00141B"></path><g opacity="0.05"><path d="M3.25256 -87.75V246" stroke="#D9D9D9" stroke-width="0.267107"></path><path d="M17.9434 -87.75V246" stroke="#D9D9D9" stroke-width="0.267107"></path><path d="M32.6343 -87.75V246" stroke="#D9D9D9" stroke-width="0.267107"></path><path d="M47.3252 -87.75V246" stroke="#D9D9D9" stroke-width="0.267107"></path><path d="M62.0161 -87.75V246" stroke="#D9D9D9" stroke-width="0.267107"></path><path d="M76.7069 -87.75V246" stroke="#D9D9D9" stroke-width="0.267107"></path><path d="M91.3978 -87.75V246" stroke="#D9D9D9" stroke-width="0.267107"></path><path d="M106.089 -87.75V246" stroke="#D9D9D9" stroke-width="0.267107"></path><path d="M120.78 -87.75V246" stroke="#D9D9D9" stroke-width="0.267107"></path><path d="M135.47 -87.75V246" stroke="#D9D9D9" stroke-width="0.267107"></path><path d="M150.161 -87.75V246" stroke="#D9D9D9" stroke-width="0.267107"></path><path d="M164.852 -87.75V246" stroke="#D9D9D9" stroke-width="0.267107"></path><path d="M179.543 -87.75V246" stroke="#D9D9D9" stroke-width="0.267107"></path><path d="M194.234 -87.75V246" stroke="#D9D9D9" stroke-width="0.267107"></path><path d="M208.925 -87.75V246" stroke="#D9D9D9" stroke-width="0.267107"></path><path d="M223.616 -87.75V246" stroke="#D9D9D9" stroke-width="0.267107"></path><path d="M238.307 -87.75V246" stroke="#D9D9D9" stroke-width="0.267107"></path><path d="M252.997 -87.75V246" stroke="#D9D9D9" stroke-width="0.267107"></path><path d="M295 13.0161L-38.75 13.016" stroke="#D9D9D9" stroke-width="0.267107"></path><path d="M295 27.7069L-38.75 27.7069" stroke="#D9D9D9" stroke-width="0.267107"></path><path d="M295 42.3978L-38.75 42.3978" stroke="#D9D9D9" stroke-width="0.267107"></path><path d="M295 57.0887L-38.75 57.0887" stroke="#D9D9D9" stroke-width="0.267107"></path><path d="M295 71.7795L-38.75 71.7795" stroke="#D9D9D9" stroke-width="0.267107"></path><path d="M295 86.4705L-38.75 86.4704" stroke="#D9D9D9" stroke-width="0.267107"></path><path d="M295 101.161L-38.75 101.161" stroke="#D9D9D9" stroke-width="0.267107"></path><path d="M295 115.852L-38.75 115.852" stroke="#D9D9D9" stroke-width="0.267107"></path><path d="M295 130.543L-38.75 130.543" stroke="#D9D9D9" stroke-width="0.267107"></path><path d="M295 145.234L-38.75 145.234" stroke="#D9D9D9" stroke-width="0.267107"></path></g><circle cx="129.714" cy="43.7143" r="21.3061" fill="#176B87" stroke="#3291B0" stroke-width="1.18367"></circle><g filter="url(#filter0_d_2766_498)"><path d="M129.857 29.1629C130.48 29.1629 131.078 29.4106 131.519 29.8515C131.96 30.2924 132.208 30.8904 132.208 31.5139C132.208 32.3838 131.738 33.1479 131.032 33.5476V35.0405H132.208C134.39 35.0405 136.483 35.9075 138.026 37.4506C139.57 38.9938 140.437 41.0868 140.437 43.2692H141.612C141.924 43.2692 142.223 43.393 142.443 43.6135C142.664 43.8339 142.788 44.1329 142.788 44.4447V47.9712C142.788 48.283 142.664 48.582 142.443 48.8025C142.223 49.0229 141.924 49.1468 141.612 49.1468H140.437V50.3223C140.437 50.9458 140.189 51.5438 139.748 51.9847C139.307 52.4256 138.709 52.6733 138.086 52.6733H121.628C121.005 52.6733 120.407 52.4256 119.966 51.9847C119.525 51.5438 119.277 50.9458 119.277 50.3223V49.1468H118.102C117.79 49.1468 117.491 49.0229 117.27 48.8025C117.05 48.582 116.926 48.283 116.926 47.9712V44.4447C116.926 44.1329 117.05 43.8339 117.27 43.6135C117.491 43.393 117.79 43.2692 118.102 43.2692H119.277C119.277 41.0868 120.144 38.9938 121.687 37.4506C123.23 35.9075 125.323 35.0405 127.506 35.0405H128.681V33.5476C127.976 33.1479 127.506 32.3838 127.506 31.5139C127.506 30.8904 127.754 30.2924 128.194 29.8515C128.635 29.4106 129.233 29.1629 129.857 29.1629ZM124.567 42.0936C123.788 42.0936 123.04 42.4033 122.489 42.9544C121.938 43.5055 121.628 44.253 121.628 45.0324C121.628 45.8119 121.938 46.5594 122.489 47.1105C123.04 47.6616 123.788 47.9712 124.567 47.9712C125.346 47.9712 126.094 47.6616 126.645 47.1105C127.196 46.5594 127.506 45.8119 127.506 45.0324C127.506 44.253 127.196 43.5055 126.645 42.9544C126.094 42.4033 125.346 42.0936 124.567 42.0936ZM135.147 42.0936C134.367 42.0936 133.62 42.4033 133.069 42.9544C132.518 43.5055 132.208 44.253 132.208 45.0324C132.208 45.8119 132.518 46.5594 133.069 47.1105C133.62 47.6616 134.367 47.9712 135.147 47.9712C135.926 47.9712 136.674 47.6616 137.225 47.1105C137.776 46.5594 138.086 45.8119 138.086 45.0324C138.086 44.253 137.776 43.5055 137.225 42.9544C136.674 42.4033 135.926 42.0936 135.147 42.0936Z" fill="url(#paint0_linear_2766_498)"></path></g><circle cx="181.714" cy="107.714" r="21.3061" fill="#176B87" stroke="#3291B0" stroke-width="1.18367"></circle><g filter="url(#filter1_d_2766_498)"><path d="M185.106 99.8468C184.245 98.9833 183.042 98.5078 181.714 98.5078C180.379 98.5078 179.172 98.9805 178.315 99.8386C177.449 100.706 177.026 101.885 177.125 103.159C177.322 105.671 179.381 107.714 181.714 107.714C184.048 107.714 186.103 105.671 186.303 103.159C186.403 101.898 185.978 100.721 185.106 99.8468ZM189.504 116.92H173.925C173.721 116.923 173.519 116.883 173.333 116.804C173.148 116.725 172.984 116.608 172.853 116.463C172.566 116.144 172.45 115.708 172.536 115.267C172.909 113.342 174.075 111.726 175.907 110.591C177.535 109.584 179.597 109.029 181.714 109.029C183.831 109.029 185.893 109.584 187.521 110.591C189.354 111.725 190.519 113.342 190.893 115.266C190.979 115.707 190.863 116.143 190.575 116.463C190.445 116.608 190.281 116.725 190.095 116.804C189.91 116.883 189.708 116.923 189.504 116.92Z" fill="url(#paint1_linear_2766_498)"></path></g><circle cx="73.7143" cy="107.624" r="21.3061" fill="#176B87" stroke="#3291B0" stroke-width="1.18367"></circle><g filter="url(#filter2_d_2766_498)"><path d="M84.0612 99.6076C84.0823 99.4805 84.0699 99.3501 84.0251 99.2293C83.9804 99.1085 83.9049 99.0015 83.8061 98.9188C83.7073 98.8362 83.5886 98.7808 83.4618 98.7581C83.335 98.7353 83.2045 98.7461 83.0832 98.7893L62.3689 106.187C62.2323 106.236 62.1131 106.324 62.026 106.44C61.9389 106.555 61.8878 106.694 61.8789 106.839C61.8701 106.984 61.904 107.128 61.9764 107.253C62.0487 107.379 62.1564 107.481 62.286 107.546L68.2044 110.505C68.321 110.563 68.451 110.59 68.5812 110.582C68.7114 110.574 68.8371 110.531 68.9457 110.459L73.8579 107.183L70.918 110.861C70.854 110.941 70.8073 111.034 70.781 111.133C70.7546 111.232 70.7491 111.335 70.7648 111.437C70.7806 111.538 70.8172 111.635 70.8723 111.721C70.9274 111.808 70.9999 111.882 71.0852 111.938L79.9627 117.857C80.0655 117.925 80.1838 117.967 80.3067 117.978C80.4297 117.989 80.5534 117.969 80.6667 117.919C80.78 117.87 80.8791 117.794 80.9551 117.696C81.0312 117.599 81.0817 117.484 81.102 117.363L84.0612 99.6076Z" fill="url(#paint2_linear_2766_498)"></path></g><path d="M87 90.449L116.449 61" stroke="#3291B0"></path><path d="M171 89L143 61" stroke="#3291B0"></path><rect y="80" width="257" height="78" fill="url(#paint3_linear_2766_498)"></rect></g><path d="M0.5 16C0.5 7.43959 7.43959 0.5 16 0.5H240C248.56 0.5 255.5 7.43959 255.5 16V157.5H0.5V16Z" stroke="url(#paint4_linear_2766_498)"></path><defs><filter id="filter0_d_2766_498" x="115.595" y="29.1629" width="28.5247" height="26.44" filterUnits="userSpaceOnUse" color-interpolation-filters="sRGB"><feFlood flood-opacity="0" result="BackgroundImageFix"></feFlood><feColorMatrix in="SourceAlpha" type="matrix" values="0 0 0 0 0 0 0 0 0 0 0 0 0 0 0 0 0 0 127 0" result="hardAlpha"></feColorMatrix><feOffset dy="1.59796"></feOffset><feGaussianBlur stdDeviation="0.665816"></feGaussianBlur><feComposite in2="hardAlpha" operator="out"></feComposite><feColorMatrix type="matrix" values="0 0 0 0 0 0 0 0 0 0 0 0 0 0 0 0 0 0 0.25 0"></feColorMatrix><feBlend mode="normal" in2="BackgroundImageFix" result="effect1_dropShadow_2766_498"></feBlend><feBlend mode="normal" in="SourceGraphic" in2="effect1_dropShadow_2766_498" result="shape"></feBlend></filter><filter id="filter1_d_2766_498" x="171.176" y="98.5078" width="21.076" height="21.3423" filterUnits="userSpaceOnUse" color-interpolation-filters="sRGB"><feFlood flood-opacity="0" result="BackgroundImageFix"></feFlood><feColorMatrix in="SourceAlpha" type="matrix" values="0 0 0 0 0 0 0 0 0 0 0 0 0 0 0 0 0 0 127 0" result="hardAlpha"></feColorMatrix><feOffset dy="1.59796"></feOffset><feGaussianBlur stdDeviation="0.665816"></feGaussianBlur><feComposite in2="hardAlpha" operator="out"></feComposite><feColorMatrix type="matrix" values="0 0 0 0 0 0 0 0 0 0 0 0 0 0 0 0 0 0 0.25 0"></feColorMatrix><feBlend mode="normal" in2="BackgroundImageFix" result="effect1_dropShadow_2766_498"></feBlend><feBlend mode="normal" in="SourceGraphic" in2="effect1_dropShadow_2766_498" result="shape"></feBlend></filter><filter id="filter2_d_2766_498" x="60.5459" y="98.7465" width="24.8569" height="22.1637" filterUnits="userSpaceOnUse" color-interpolation-filters="sRGB"><feFlood flood-opacity="0" result="BackgroundImageFix"></feFlood><feColorMatrix in="SourceAlpha" type="matrix" values="0 0 0 0 0 0 0 0 0 0 0 0 0 0 0 0 0 0 127 0" result="hardAlpha"></feColorMatrix><feOffset dy="1.59796"></feOffset><feGaussianBlur stdDeviation="0.665816"></feGaussianBlur><feComposite in2="hardAlpha" operator="out"></feComposite><feColorMatrix type="matrix" values="0 0 0 0 0 0 0 0 0 0 0 0 0 0 0 0 0 0 0.25 0"></feColorMatrix><feBlend mode="normal" in2="BackgroundImageFix" result="effect1_dropShadow_2766_498"></feBlend><feBlend mode="normal" in="SourceGraphic" in2="effect1_dropShadow_2766_498" result="shape"></feBlend></filter><linearGradient id="paint0_linear_2766_498" x1="129.857" y1="29.1629" x2="129.857" y2="52.6733" gradientUnits="userSpaceOnUse"><stop stop-color="#061A21"></stop><stop offset="0.385" stop-color="#0F5167"></stop><stop offset="0.645" stop-color="#09303D"></stop><stop offset="1" stop-color="#04181F"></stop></linearGradient><linearGradient id="paint1_linear_2766_498" x1="181.714" y1="98.5078" x2="181.714" y2="116.921" gradientUnits="userSpaceOnUse"><stop stop-color="#061A21"></stop><stop offset="0.385" stop-color="#0F5167"></stop><stop offset="0.645" stop-color="#09303D"></stop><stop offset="1" stop-color="#04181F"></stop></linearGradient><linearGradient id="paint2_linear_2766_498" x1="72.9744" y1="98.7465" x2="72.9744" y2="117.981" gradientUnits="userSpaceOnUse"><stop stop-color="#061A21"></stop><stop offset="0.385" stop-color="#0F5167"></stop><stop offset="0.645" stop-color="#09303D"></stop><stop offset="1" stop-color="#04181F"></stop></linearGradient><linearGradient id="paint3_linear_2766_498" x1="128.5" y1="158" x2="128.5" y2="80" gradientUnits="userSpaceOnUse"><stop stop-color="#021117"></stop><stop offset="1" stop-color="#07212A" stop-opacity="0"></stop></linearGradient><linearGradient id="paint4_linear_2766_498" x1="128" y1="0" x2="128" y2="158" gradientUnits="userSpaceOnUse"><stop offset="0.190327" stop-color="#176B87"></stop><stop offset="1" stop-color="#176B87" stop-opacity="0"></stop></linearGradient><clipPath id="clip0_2766_498"><path d="M0 16C0 7.16345 7.16344 0 16 0H240C248.837 0 256 7.16344 256 16V158H0V16Z" fill="white"></path></clipPath></defs></svg> 