<?xml version="1.0" encoding="UTF-8"?> <svg xmlns="http://www.w3.org/2000/svg" width="290" height="178" viewBox="0 0 290 178" fill="none"><g clip-path="url(#clip0_2789_5)"><path d="M0 18.0253C0 8.0702 8.07021 0 18.0253 0H271.506C281.461 0 289.532 8.07021 289.532 18.0253V178H0V18.0253Z" fill="#00141B"></path><rect x="53.2711" y="50.2361" width="66.2189" height="89.0618" rx="5.35372" transform="rotate(-17.4155 53.2711 50.2361)" fill="url(#paint0_linear_2789_5)"></rect><rect x="53.2711" y="50.2361" width="66.2189" height="89.0618" rx="5.35372" transform="rotate(-17.4155 53.2711 50.2361)" stroke="url(#paint1_linear_2789_5)" stroke-width="0.513325"></rect><path d="M109.985 58.6728C111.166 62.4378 111.102 66.4833 109.803 70.2091C108.503 73.9349 106.037 77.1426 102.771 79.3564C99.5044 81.5702 95.6115 82.6722 91.6693 82.499C87.7272 82.3257 83.9459 80.8865 80.8863 78.3946C77.8267 75.9028 75.6517 72.4911 74.6841 68.6657C73.7164 64.8403 74.0075 60.8048 75.5143 57.1579C77.021 53.5109 79.6632 50.4468 83.0488 48.4199C86.4344 46.3931 90.3831 45.5115 94.3093 45.9059L93.6796 52.1741C91.1012 51.9151 88.508 52.494 86.2847 53.8251C84.0613 55.1562 82.3262 57.1684 81.3367 59.5634C80.3472 61.9584 80.156 64.6086 80.7914 67.1208C81.4269 69.633 82.8552 71.8735 84.8645 73.5099C86.8738 75.1464 89.3571 76.0916 91.9459 76.2053C94.5348 76.3191 97.0914 75.5954 99.2365 74.1415C101.382 72.6877 103.001 70.5812 103.854 68.1344C104.708 65.6876 104.75 63.0309 103.974 60.5583L109.985 58.6728Z" fill="url(#paint2_linear_2789_5)"></path><path d="M109.985 58.6728C108.926 55.2962 106.913 52.2978 104.189 50.0389C101.465 47.78 98.1458 46.357 94.6315 45.9411C91.1172 45.5253 87.5576 46.1344 84.3815 47.6952C81.2054 49.2559 78.5484 51.7017 76.7304 54.7378C74.9124 57.774 74.0111 61.2711 74.1349 64.8077C74.2588 68.3444 75.4026 71.7698 77.4286 74.6713C79.4545 77.5729 82.2762 79.8267 85.5537 81.1614C88.8312 82.4961 92.4247 82.8547 95.9013 82.194L94.7251 76.005C92.442 76.4389 90.0821 76.2034 87.9297 75.3269C85.7773 74.4504 83.9243 72.9703 82.5938 71.0648C81.2633 69.1593 80.5122 66.9098 80.4308 64.5872C80.3495 62.2646 80.9414 59.9681 82.1353 57.9742C83.3292 55.9803 85.0741 54.3741 87.1599 53.3491C89.2457 52.3242 91.5833 51.9241 93.8912 52.1972C96.1991 52.4703 98.3788 53.4049 100.168 54.8883C101.957 56.3718 103.279 58.3408 103.974 60.5583L109.985 58.6728Z" fill="url(#paint3_linear_2789_5)"></path><path d="M109.985 58.6728C108.707 54.5974 106.047 51.0955 102.464 48.7706C98.8808 46.4458 94.599 45.4436 90.3564 45.9367C86.1137 46.4298 82.176 48.3874 79.2216 51.4721C76.2673 54.5567 74.4815 58.5753 74.172 62.8353L80.4551 63.2919C80.6584 60.4943 81.8312 57.8552 83.7713 55.8295C85.7115 53.8037 88.2975 52.5181 91.0837 52.1943C93.8699 51.8705 96.6818 52.5286 99.0348 54.0554C101.388 55.5822 103.135 57.8819 103.974 60.5583L109.985 58.6728Z" fill="url(#paint4_linear_2789_5)"></path><rect x="85.5103" y="109.686" width="5.0714" height="12.6785" transform="rotate(-17.4155 85.5103 109.686)" fill="#0B5036"></rect><rect x="89.8" y="101.475" width="5.0714" height="19.2291" transform="rotate(-17.4155 89.8 101.475)" fill="#107B53"></rect><rect x="95.2912" y="97.0947" width="5.0714" height="21.7648" transform="rotate(-17.4155 95.2912 97.0947)" fill="#0D6846"></rect><rect x="103.186" y="100.376" width="5.0714" height="16.2707" transform="rotate(-17.4155 103.186 100.376)" fill="#118057"></rect><rect x="109.76" y="95.2134" width="5.0714" height="19.2291" transform="rotate(-17.4155 109.76 95.2134)" fill="#0FB074"></rect><rect x="118.766" y="99.9183" width="5.0714" height="12.0446" transform="rotate(-17.4155 118.766 99.9183)" fill="#0C8F5F"></rect><path d="M78.6082 97.5664L86.4822 122.668L131.242 108.628" stroke="#0EA16B" stroke-width="0.845234" stroke-linecap="square"></path><g opacity="0.05"><path d="M3.66434 -98.8575V277.139" stroke="#D9D9D9" stroke-width="0.300918"></path><path d="M20.2149 -98.8575V277.139" stroke="#D9D9D9" stroke-width="0.300918"></path><path d="M36.7653 -98.8575V277.139" stroke="#D9D9D9" stroke-width="0.300918"></path><path d="M53.3158 -98.8575V277.139" stroke="#D9D9D9" stroke-width="0.300918"></path><path d="M69.8663 -98.8575V277.139" stroke="#D9D9D9" stroke-width="0.300918"></path><path d="M86.4167 -98.8575V277.139" stroke="#D9D9D9" stroke-width="0.300918"></path><path d="M102.967 -98.8575V277.139" stroke="#D9D9D9" stroke-width="0.300918"></path><path d="M119.518 -98.8575V277.139" stroke="#D9D9D9" stroke-width="0.300918"></path><path d="M136.068 -98.8575V277.139" stroke="#D9D9D9" stroke-width="0.300918"></path><path d="M152.619 -98.8575V277.139" stroke="#D9D9D9" stroke-width="0.300918"></path><path d="M169.169 -98.8575V277.139" stroke="#D9D9D9" stroke-width="0.300918"></path><path d="M185.72 -98.8575V277.139" stroke="#D9D9D9" stroke-width="0.300918"></path><path d="M202.27 -98.8575V277.139" stroke="#D9D9D9" stroke-width="0.300918"></path><path d="M218.821 -98.8575V277.139" stroke="#D9D9D9" stroke-width="0.300918"></path><path d="M235.371 -98.8575V277.139" stroke="#D9D9D9" stroke-width="0.300918"></path><path d="M251.922 -98.8575V277.139" stroke="#D9D9D9" stroke-width="0.300918"></path><path d="M268.472 -98.8575V277.139" stroke="#D9D9D9" stroke-width="0.300918"></path><path d="M285.022 -98.8575V277.139" stroke="#D9D9D9" stroke-width="0.300918"></path><path d="M332.342 14.6638L-43.655 14.6638" stroke="#D9D9D9" stroke-width="0.300918"></path><path d="M332.342 31.2143L-43.655 31.2143" stroke="#D9D9D9" stroke-width="0.300918"></path><path d="M332.342 47.7646L-43.655 47.7645" stroke="#D9D9D9" stroke-width="0.300918"></path><path d="M332.342 64.3151L-43.655 64.3151" stroke="#D9D9D9" stroke-width="0.300918"></path><path d="M332.342 80.8656L-43.655 80.8656" stroke="#D9D9D9" stroke-width="0.300918"></path><path d="M332.342 97.4162L-43.655 97.4161" stroke="#D9D9D9" stroke-width="0.300918"></path><path d="M332.342 113.967L-43.655 113.967" stroke="#D9D9D9" stroke-width="0.300918"></path><path d="M332.342 130.517L-43.655 130.517" stroke="#D9D9D9" stroke-width="0.300918"></path><path d="M332.342 147.067L-43.655 147.067" stroke="#D9D9D9" stroke-width="0.300918"></path><path d="M332.342 163.618L-43.655 163.618" stroke="#D9D9D9" stroke-width="0.300918"></path></g><g clip-path="url(#clip1_2789_5)"><rect x="154.073" y="20.2785" width="85.0862" height="108.77" rx="5.26307" transform="rotate(33.1025 154.073 20.2785)" fill="url(#paint5_linear_2789_5)"></rect><path opacity="0.4" d="M143.089 52.3846L150.547 50.1793L152.225 53.6291L159.916 56.2873L172.741 49.4651L174.141 61.3723L178.286 68.2638L187 69.7559L202.772 65.6406L199.18 77.1732L207.166 78.9769" stroke="#88D498" stroke-width="0.981646"></path><path d="M141.356 55.4437L198.487 92.6906" stroke="#88D498" stroke-width="0.219294"></path><path d="M142.645 60.7655L143.182 59.9411L142.542 60.3498L142.313 60.2003L142.428 59.4495L141.891 60.274L141.461 59.9937L142.481 58.4286L142.951 58.7347L142.808 59.6909L143.628 59.1759L144.095 59.4806L143.075 61.0458L142.645 60.7655ZM143.461 60.7983C143.512 60.7204 143.578 60.666 143.659 60.635C143.741 60.6025 143.83 60.5938 143.927 60.6089C144.026 60.6249 144.123 60.6645 144.22 60.7278C144.266 60.7575 144.306 60.7889 144.341 60.8221C144.377 60.8563 144.405 60.8903 144.425 60.9242L144.448 60.8889C144.484 60.8345 144.494 60.7836 144.479 60.7361C144.465 60.6895 144.423 60.6432 144.352 60.5972C144.288 60.555 144.22 60.5263 144.148 60.511C144.079 60.4952 144 60.4877 143.911 60.4886L143.96 60.1494C144.07 60.1502 144.176 60.1667 144.276 60.1987C144.379 60.2303 144.48 60.2782 144.578 60.3423C144.762 60.4621 144.877 60.5965 144.922 60.7454C144.97 60.8938 144.94 61.0496 144.834 61.2127L144.687 61.4375C144.661 61.4772 144.649 61.509 144.65 61.5328C144.653 61.5552 144.667 61.5774 144.695 61.5995L144.465 61.9522C144.426 61.9375 144.391 61.9216 144.358 61.9044C144.326 61.8896 144.298 61.8746 144.274 61.8593C144.199 61.8104 144.151 61.7598 144.128 61.7075C144.108 61.6547 144.109 61.598 144.132 61.5374L144.151 61.4897C144.056 61.5223 143.964 61.5342 143.873 61.5254C143.783 61.5152 143.7 61.4851 143.624 61.4353C143.547 61.3855 143.489 61.3243 143.448 61.2517C143.408 61.1791 143.388 61.1034 143.389 61.0246C143.391 60.9443 143.415 60.8689 143.461 60.7983ZM144.121 61.2696C144.145 61.2684 144.167 61.2645 144.186 61.258C144.205 61.25 144.22 61.2387 144.23 61.224L144.286 61.138C144.268 61.1139 144.246 61.0888 144.219 61.0628C144.193 61.0378 144.168 61.0176 144.145 61.0022C144.095 60.9697 144.044 60.9544 143.993 60.9564C143.943 60.9593 143.905 60.9799 143.88 61.0181C143.867 61.0387 143.86 61.0616 143.86 61.0869C143.862 61.1107 143.869 61.1345 143.883 61.1582C143.898 61.1804 143.919 61.2002 143.945 61.2174C143.97 61.2337 143.998 61.2468 144.029 61.2567C144.063 61.2661 144.094 61.2704 144.121 61.2696ZM145.926 61.7615C145.845 61.7088 145.766 61.6697 145.689 61.6442C145.611 61.6188 145.543 61.6161 145.483 61.6361L145.035 62.3239L144.616 62.0508L145.372 60.8913L145.756 61.1414L145.612 61.3618C145.704 61.3108 145.794 61.2848 145.883 61.2839C145.972 61.2815 146.052 61.3028 146.121 61.3478C146.137 61.3584 146.148 61.3656 146.154 61.3694C146.161 61.3742 146.167 61.3792 146.172 61.3845L145.926 61.7615ZM146.298 63.1474L146.312 62.5532L146.168 62.5911L145.952 62.9218L145.533 62.6487L146.582 61.0395L147.001 61.3126L146.428 62.1921L147.017 61.9635L147.458 62.2509L146.728 62.4978L146.741 63.4363L146.298 63.1474ZM147.315 63.8416C147.213 63.7755 147.133 63.7011 147.074 63.6185C147.016 63.5345 146.977 63.4475 146.958 63.3577C146.941 63.2688 146.941 63.18 146.959 63.0913C146.977 63.0025 147.011 62.9192 147.062 62.8413C147.135 62.7296 147.226 62.6433 147.335 62.5823C147.445 62.5199 147.565 62.4914 147.695 62.4969C147.827 62.5009 147.961 62.5479 148.099 62.638C148.238 62.728 148.335 62.8317 148.393 62.9488C148.451 63.066 148.474 63.1859 148.463 63.3087C148.452 63.4314 148.412 63.5464 148.342 63.6537C148.328 63.6757 148.311 63.6976 148.293 63.7192C148.277 63.7402 148.262 63.7586 148.248 63.7744L147.434 63.244C147.41 63.2871 147.399 63.3281 147.401 63.367C147.405 63.4054 147.418 63.4401 147.44 63.471C147.463 63.5029 147.491 63.5293 147.523 63.5504C147.569 63.5801 147.618 63.5976 147.671 63.6029C147.726 63.6092 147.772 63.5982 147.809 63.5701L148.098 63.9029C148.027 63.9445 147.948 63.9706 147.861 63.9812C147.776 63.9928 147.687 63.9881 147.594 63.9672C147.502 63.9448 147.409 63.9029 147.315 63.8416ZM147.589 62.987L147.973 63.2371C147.993 63.196 148.003 63.1565 148.003 63.1185C148.004 63.0815 147.995 63.0466 147.977 63.0137C147.96 62.9817 147.934 62.9543 147.899 62.9313C147.864 62.9083 147.827 62.895 147.79 62.8915C147.754 62.889 147.718 62.8952 147.683 62.9101C147.65 62.926 147.619 62.9517 147.589 62.987ZM148.944 64.7811C148.895 64.7723 148.844 64.7609 148.79 64.7469C148.739 64.7323 148.688 64.7139 148.638 64.6915C148.589 64.6701 148.543 64.6455 148.5 64.6177C148.437 64.5765 148.386 64.5284 148.346 64.4733C148.308 64.4168 148.288 64.3538 148.288 64.2842C148.289 64.2141 148.317 64.1372 148.372 64.0534L148.718 63.5221L148.575 63.4287L148.781 63.1135L148.924 63.2069L149.161 62.8432L149.58 63.1162L149.343 63.48L149.57 63.628L149.364 63.9432L149.137 63.7952L148.887 64.1788C148.862 64.217 148.853 64.2494 148.858 64.2761C148.865 64.3014 148.882 64.3231 148.91 64.3413C148.931 64.3547 148.956 64.3664 148.988 64.3763C149.019 64.3862 149.051 64.3946 149.084 64.4015L148.944 64.7811ZM151.179 64.8282C151.179 64.8282 151.172 64.8127 151.156 64.7817C151.141 64.7507 151.118 64.713 151.089 64.6685C151.06 64.6226 151.026 64.5765 150.987 64.5301C150.948 64.4838 150.905 64.4453 150.858 64.4147C150.822 64.3907 150.788 64.377 150.757 64.3734C150.725 64.3698 150.701 64.382 150.682 64.4099C150.665 64.4364 150.663 64.4653 150.676 64.4968C150.689 64.5283 150.712 64.5646 150.746 64.6056C150.782 64.6476 150.824 64.6978 150.871 64.7561C150.949 64.8488 151.011 64.9372 151.057 65.0214C151.102 65.1056 151.124 65.1903 151.123 65.2754C151.123 65.3591 151.091 65.4502 151.027 65.5487C150.966 65.6427 150.897 65.7111 150.821 65.7537C150.746 65.7948 150.667 65.8158 150.585 65.8167C150.503 65.8175 150.421 65.8038 150.339 65.7754C150.258 65.7456 150.18 65.7067 150.107 65.6588C150.032 65.61 149.958 65.5514 149.885 65.483C149.815 65.4141 149.75 65.3416 149.691 65.2653C149.633 65.1876 149.584 65.1097 149.545 65.0318L149.976 64.7755C149.976 64.7755 149.985 64.7939 150.003 64.8307C150.021 64.8675 150.047 64.9128 150.081 64.9664C150.115 65.0201 150.156 65.0749 150.203 65.1309C150.252 65.1878 150.306 65.2359 150.366 65.2752C150.414 65.3058 150.45 65.321 150.475 65.3208C150.503 65.32 150.523 65.3093 150.537 65.2887C150.557 65.2579 150.556 65.2238 150.534 65.1866C150.513 65.1479 150.481 65.1039 150.438 65.0547C150.397 65.005 150.352 64.9493 150.302 64.8875C150.231 64.7973 150.179 64.7139 150.145 64.6373C150.112 64.5593 150.099 64.4848 150.105 64.4136C150.113 64.3411 150.141 64.2666 150.191 64.1901C150.267 64.074 150.357 63.9948 150.462 63.9523C150.568 63.9099 150.677 63.8976 150.791 63.9154C150.908 63.9327 151.017 63.9749 151.12 64.0419C151.197 64.0918 151.264 64.1492 151.322 64.2143C151.383 64.2789 151.435 64.3445 151.479 64.4112C151.525 64.4789 151.564 64.5398 151.596 64.594L151.179 64.8282ZM150.876 66.1322L151.632 64.9727L152.051 65.2458L151.295 66.4053L150.876 66.1322ZM151.696 64.8757L151.926 64.523L152.344 64.796L152.114 65.1488L151.696 64.8757ZM151.611 66.2592L152.548 65.978L152.052 65.6547L152.239 65.3681L153.171 65.976L153.01 66.2229L152.075 66.5055L152.622 66.8619L152.435 67.1485L151.45 66.5061L151.611 66.2592ZM153.138 67.6381C153.037 67.5719 152.956 67.4976 152.897 67.415C152.839 67.3309 152.8 67.244 152.781 67.1541C152.764 67.0653 152.764 66.9765 152.782 66.8877C152.8 66.799 152.835 66.7157 152.885 66.6378C152.958 66.5261 153.049 66.4398 153.158 66.3788C153.268 66.3163 153.388 66.2879 153.518 66.2933C153.65 66.2973 153.785 66.3444 153.923 66.4344C154.061 66.5245 154.159 66.6281 154.216 66.7453C154.274 66.8625 154.297 66.9824 154.286 67.1051C154.276 67.2279 154.235 67.3429 154.165 67.4502C154.151 67.4722 154.134 67.494 154.116 67.5156C154.1 67.5367 154.085 67.5551 154.071 67.5708L153.257 67.0405C153.233 67.0836 153.222 67.1246 153.224 67.1635C153.229 67.2019 153.242 67.2365 153.263 67.2674C153.287 67.2993 153.314 67.3258 153.347 67.3469C153.392 67.3766 153.442 67.3941 153.495 67.3994C153.549 67.4056 153.595 67.3947 153.632 67.3666L153.921 67.6994C153.85 67.741 153.771 67.7671 153.685 67.7777C153.6 67.7893 153.51 67.7846 153.417 67.7637C153.325 67.7412 153.232 67.6994 153.138 67.6381ZM153.412 66.7835L153.796 67.0335C153.816 66.9924 153.827 66.9529 153.826 66.915C153.827 66.878 153.819 66.843 153.8 66.8101C153.783 66.7782 153.757 66.7507 153.722 66.7277C153.687 66.7047 153.65 66.6915 153.613 66.688C153.577 66.6854 153.541 66.6916 153.506 66.7066C153.473 66.7225 153.442 66.7481 153.412 66.7835Z" fill="#88D498"></path><path d="M166.812 76.5214L167.832 74.9563L168.507 75.3961C168.583 75.4459 168.643 75.5073 168.688 75.5803C168.733 75.6534 168.761 75.7317 168.774 75.8152C168.787 75.8973 168.785 75.9788 168.768 76.0598C168.752 76.1417 168.723 76.2157 168.68 76.2819C168.62 76.3744 168.54 76.4475 168.443 76.5011C168.346 76.5556 168.242 76.5839 168.13 76.586C168.02 76.5876 167.913 76.5549 167.811 76.4878L167.555 76.3211L167.241 76.8017L166.812 76.5214ZM167.799 75.9464L168.026 76.0944C168.044 76.1059 168.064 76.1118 168.087 76.112C168.11 76.1123 168.135 76.1033 168.161 76.085C168.189 76.0677 168.217 76.0384 168.243 75.9973C168.272 75.9532 168.288 75.9151 168.29 75.883C168.294 75.8503 168.29 75.8233 168.276 75.8021C168.266 75.7803 168.251 75.7636 168.234 75.7522L168.018 75.6113L167.799 75.9464ZM169.467 77.1089C169.386 77.0562 169.306 77.0171 169.229 76.9916C169.151 76.9661 169.083 76.9634 169.024 76.9835L168.575 77.6713L168.156 77.3982L168.912 76.2387L169.296 76.4887L169.152 76.7092C169.244 76.6581 169.334 76.6321 169.423 76.6312C169.512 76.6288 169.592 76.6502 169.661 76.6952C169.677 76.7057 169.688 76.7129 169.694 76.7168C169.701 76.7216 169.707 76.7266 169.712 76.7319L169.467 77.1089ZM169.074 77.9961L169.829 76.8366L170.248 77.1096L169.492 78.2691L169.074 77.9961ZM169.893 76.7396L170.123 76.3869L170.541 76.6599L170.312 77.0126L169.893 76.7396ZM170.263 78.803C170.16 78.736 170.08 78.6604 170.021 78.5763C169.964 78.4932 169.927 78.406 169.909 78.3147C169.892 78.2219 169.893 78.1304 169.912 78.0402C169.931 77.95 169.967 77.8652 170.018 77.7859C170.087 77.6801 170.176 77.5974 170.284 77.5379C170.394 77.4779 170.514 77.4506 170.645 77.4561C170.777 77.4625 170.911 77.5103 171.048 77.5994C171.187 77.6904 171.286 77.7965 171.343 77.9175C171.4 78.0386 171.422 78.1607 171.409 78.284L170.92 78.1416C170.92 78.1012 170.91 78.0645 170.892 78.0316C170.875 77.9997 170.849 77.9727 170.816 77.9507C170.777 77.9258 170.736 77.9135 170.692 77.914C170.649 77.913 170.605 77.9246 170.562 77.9489C170.521 77.9741 170.483 78.0132 170.448 78.0661C170.415 78.1176 170.394 78.1681 170.387 78.2178C170.382 78.267 170.388 78.312 170.406 78.3527C170.424 78.3919 170.453 78.424 170.491 78.4489C170.514 78.4642 170.538 78.4752 170.56 78.4817C170.584 78.4868 170.609 78.4881 170.633 78.4854C170.66 78.4836 170.685 78.4778 170.708 78.4678L171.035 78.8571C170.964 78.8987 170.886 78.9253 170.801 78.9369C170.717 78.9495 170.63 78.9457 170.538 78.9257C170.449 78.9052 170.357 78.8643 170.263 78.803ZM171.522 79.624C171.421 79.5579 171.341 79.4836 171.281 79.401C171.223 79.3169 171.185 79.2299 171.166 79.1401C171.148 79.0513 171.148 78.9624 171.166 78.8737C171.185 78.785 171.219 78.7016 171.27 78.6237C171.343 78.5121 171.433 78.4257 171.542 78.3648C171.652 78.3023 171.772 78.2738 171.903 78.2793C172.034 78.2833 172.169 78.3304 172.307 78.4204C172.445 78.5105 172.543 78.6141 172.601 78.7313C172.658 78.8484 172.682 78.9684 172.671 79.0911C172.66 79.2138 172.62 79.3289 172.55 79.4361C172.535 79.4582 172.519 79.48 172.501 79.5016C172.485 79.5227 172.47 79.5411 172.455 79.5568L171.642 79.0265C171.618 79.0696 171.607 79.1105 171.609 79.1494C171.613 79.1878 171.626 79.2225 171.648 79.2534C171.671 79.2853 171.699 79.3118 171.731 79.3329C171.777 79.3626 171.826 79.3801 171.879 79.3854C171.934 79.3916 171.979 79.3807 172.017 79.3526L172.305 79.6853C172.234 79.7269 172.156 79.7531 172.069 79.7637C171.984 79.7753 171.895 79.7706 171.802 79.7496C171.71 79.7272 171.616 79.6854 171.522 79.624ZM171.797 78.7694L172.18 79.0195C172.201 78.9784 172.211 78.9389 172.211 78.901C172.212 78.864 172.203 78.829 172.185 78.7961C172.168 78.7642 172.142 78.7367 172.106 78.7137C172.071 78.6907 172.035 78.6775 171.997 78.674C171.961 78.6714 171.926 78.6776 171.891 78.6926C171.857 78.7085 171.826 78.7341 171.797 78.7694Z" fill="#88D498"></path><path d="M187.468 89.9882L188.005 89.1637L187.365 89.5725L187.136 89.423L187.251 88.6722L186.714 89.4967L186.284 89.2164L187.304 87.6513L187.774 87.9574L187.631 88.9135L188.451 88.3986L188.918 88.7033L187.898 90.2684L187.468 89.9882ZM188.052 90.5355C188.078 90.5693 188.103 90.5982 188.127 90.6223C188.152 90.6488 188.176 90.6697 188.199 90.685C188.23 90.7052 188.26 90.716 188.288 90.7177C188.315 90.7208 188.343 90.7145 188.37 90.6986C188.397 90.6828 188.423 90.6589 188.448 90.627L188.783 89.193L189.213 89.4732L188.957 90.3466L189.612 89.7334L190.002 89.9878L188.763 91.0303C188.692 91.0909 188.613 91.1328 188.527 91.1561C188.44 91.1808 188.351 91.1861 188.262 91.172C188.172 91.1593 188.087 91.127 188.008 91.0753C187.971 91.0514 187.937 91.0237 187.905 90.9924C187.873 90.9635 187.845 90.9303 187.819 90.8926L188.052 90.5355ZM191.467 91.0936C191.467 91.0936 191.459 91.0781 191.444 91.0472C191.428 91.0162 191.406 90.9785 191.376 90.934C191.347 90.8881 191.314 90.8419 191.275 90.7956C191.236 90.7493 191.193 90.7108 191.146 90.6802C191.109 90.6562 191.075 90.6424 191.044 90.6389C191.013 90.6353 190.988 90.6475 190.97 90.6754C190.952 90.7019 190.95 90.7308 190.963 90.7623C190.976 90.7938 191 90.8301 191.034 90.8711C191.069 90.9131 191.111 90.9632 191.159 91.0216C191.236 91.1142 191.298 91.2027 191.344 91.2869C191.389 91.3711 191.412 91.4557 191.411 91.5409C191.411 91.6246 191.378 91.7157 191.314 91.8142C191.253 91.9082 191.184 91.9765 191.108 92.0192C191.033 92.0603 190.955 92.0813 190.872 92.0822C190.79 92.083 190.708 92.0693 190.626 92.0409C190.545 92.0111 190.468 91.9722 190.394 91.9243C190.319 91.8754 190.245 91.8168 190.173 91.7485C190.102 91.6796 190.038 91.6071 189.979 91.5308C189.92 91.453 189.872 91.3752 189.832 91.2973L190.263 91.041C190.263 91.041 190.272 91.0594 190.29 91.0962C190.308 91.133 190.334 91.1782 190.368 91.2319C190.402 91.2856 190.443 91.3404 190.49 91.3963C190.539 91.4533 190.594 91.5014 190.654 91.5406C190.701 91.5713 190.737 91.5865 190.762 91.5862C190.79 91.5855 190.811 91.5748 190.824 91.5542C190.844 91.5234 190.843 91.4893 190.821 91.4521C190.801 91.4134 190.769 91.3694 190.725 91.3202C190.684 91.2705 190.639 91.2148 190.589 91.153C190.518 91.0627 190.466 90.9793 190.432 90.9028C190.399 90.8248 190.386 90.7502 190.392 90.6791C190.4 90.6065 190.429 90.532 190.478 90.4556C190.554 90.3395 190.645 90.2603 190.75 90.2178C190.855 90.1754 190.964 90.1631 191.079 90.1809C191.195 90.1982 191.305 90.2404 191.408 90.3074C191.484 90.3572 191.551 90.4147 191.609 90.4798C191.67 90.5444 191.722 90.61 191.767 90.6767C191.813 90.7444 191.852 90.8053 191.883 90.8595L191.467 91.0936ZM191.164 92.3977L191.92 91.2382L192.338 91.5112L191.583 92.6708L191.164 92.3977ZM191.983 91.1412L192.213 90.7885L192.632 91.0615L192.402 91.4142L191.983 91.1412ZM191.898 92.5247L192.835 92.2435L192.339 91.9202L192.526 91.6336L193.459 92.2415L193.298 92.4884L192.363 92.771L192.909 93.1274L192.723 93.414L191.737 92.7716L191.898 92.5247ZM193.425 93.9035C193.324 93.8374 193.244 93.7631 193.184 93.6805C193.126 93.5964 193.087 93.5095 193.068 93.4196C193.051 93.3308 193.051 93.242 193.069 93.1532C193.087 93.0645 193.122 92.9811 193.173 92.9033C193.245 92.7916 193.336 92.7052 193.445 92.6443C193.555 92.5818 193.675 92.5533 193.806 92.5588C193.937 92.5628 194.072 92.6099 194.21 92.6999C194.348 92.79 194.446 92.8936 194.504 93.0108C194.561 93.1279 194.585 93.2479 194.574 93.3706C194.563 93.4934 194.522 93.6084 194.452 93.7156C194.438 93.7377 194.422 93.7595 194.404 93.7811C194.388 93.8022 194.373 93.8206 194.358 93.8363L193.545 93.306C193.521 93.3491 193.51 93.39 193.512 93.429C193.516 93.4673 193.529 93.502 193.551 93.5329C193.574 93.5648 193.602 93.5913 193.634 93.6124C193.679 93.6421 193.729 93.6596 193.782 93.6649C193.836 93.6711 193.882 93.6602 193.92 93.6321L194.208 93.9648C194.137 94.0065 194.058 94.0326 193.972 94.0432C193.887 94.0548 193.798 94.0501 193.705 94.0291C193.612 94.0067 193.519 93.9649 193.425 93.9035ZM193.7 93.0489L194.083 93.299C194.104 93.2579 194.114 93.2184 194.113 93.1805C194.115 93.1435 194.106 93.1085 194.088 93.0756C194.071 93.0437 194.045 93.0162 194.009 92.9932C193.974 92.9702 193.938 92.957 193.9 92.9535C193.864 92.9509 193.829 92.9571 193.794 92.9721C193.76 92.988 193.729 93.0136 193.7 93.0489Z" fill="#88D498"></path><rect x="96.3802" y="124.028" width="21.9294" height="3.07012" rx="0.877178" transform="rotate(33.1025 96.3802 124.028)" fill="#88D498"></rect><rect x="140.469" y="152.772" width="16.2278" height="3.07012" rx="0.877178" transform="rotate(33.1025 140.469 152.772)" fill="#88D498"></rect><path opacity="0.6" fill-rule="evenodd" clip-rule="evenodd" d="M180.71 91.0481C180.974 90.6423 181.518 90.5278 181.924 90.7924L194.048 98.6969C194.454 98.9615 194.568 99.5049 194.304 99.9107L193.585 101.013C193.32 101.419 192.777 101.533 192.371 101.269L180.247 93.3642C179.841 93.0996 179.727 92.5562 179.991 92.1503L180.71 91.0481ZM136.621 62.3046C136.886 61.8988 137.429 61.7843 137.835 62.0489L154.736 73.0673C155.142 73.3318 155.256 73.8753 154.992 74.2811L154.273 75.3833C154.008 75.7892 153.465 75.9037 153.059 75.6391L136.159 64.6207C135.753 64.3561 135.638 63.8126 135.903 63.4068L136.621 62.3046ZM115.064 95.371C115.328 94.9652 115.872 94.8507 116.278 95.1153L133.178 106.134C133.584 106.398 133.698 106.942 133.434 107.348L132.715 108.45C132.451 108.856 131.907 108.97 131.501 108.705L114.601 97.6871C114.195 97.4225 114.081 96.879 114.345 96.4732L115.064 95.371ZM135.44 65.7232C135.034 65.4586 134.491 65.5731 134.226 65.9789L133.508 67.0811C133.243 67.487 133.357 68.0304 133.763 68.295L150.664 79.3134C151.07 79.578 151.613 79.4635 151.878 79.0576L152.596 77.9554C152.861 77.5496 152.746 77.0061 152.341 76.7416L135.44 65.7232ZM112.668 99.045C112.933 98.6392 113.476 98.5247 113.882 98.7893L130.783 109.808C131.189 110.072 131.303 110.616 131.039 111.022L130.32 112.124C130.055 112.53 129.512 112.644 129.106 112.38L112.206 101.361C111.8 101.097 111.685 100.553 111.95 100.147L112.668 99.045ZM133.045 69.3969C132.639 69.1324 132.095 69.2469 131.831 69.6527L131.112 70.7549C130.848 71.1607 130.962 71.7042 131.368 71.9688L148.268 82.9872C148.674 83.2517 149.218 83.1372 149.482 82.7314L150.201 81.6292C150.465 81.2234 150.351 80.6799 149.945 80.4153L133.045 69.3969ZM110.273 102.719C110.538 102.313 111.081 102.199 111.487 102.463L128.387 113.482C128.793 113.746 128.908 114.29 128.643 114.696L127.925 115.798C127.66 116.204 127.117 116.318 126.711 116.054L109.81 105.035C109.404 104.771 109.29 104.227 109.554 103.821L110.273 102.719ZM130.649 73.071C130.244 72.8064 129.7 72.9209 129.436 73.3267L128.717 74.4289C128.452 74.8348 128.567 75.3782 128.973 75.6428L145.873 86.6612C146.279 86.9258 146.823 86.8113 147.087 86.4055L147.806 85.3032C148.07 84.8974 147.956 84.354 147.55 84.0894L130.649 73.071ZM107.878 106.393C108.142 105.987 108.686 105.873 109.092 106.137L125.992 117.156C126.398 117.42 126.513 117.964 126.248 118.37L125.529 119.472C125.265 119.878 124.721 119.992 124.316 119.728L107.415 108.709C107.009 108.445 106.895 107.901 107.159 107.495L107.878 106.393ZM128.254 76.745C127.848 76.4805 127.305 76.595 127.04 77.0008L126.322 78.103C126.057 78.5088 126.172 79.0523 126.577 79.3169L143.478 90.3352C143.884 90.5998 144.427 90.4853 144.692 90.0795L145.41 88.9773C145.675 88.5715 145.561 88.028 145.155 87.7634L128.254 76.745ZM105.482 110.067C105.747 109.661 106.29 109.547 106.696 109.811L123.597 120.83C124.003 121.094 124.117 121.638 123.853 122.044L123.134 123.146C122.869 123.552 122.326 123.666 121.92 123.402L105.02 112.383C104.614 112.119 104.499 111.575 104.764 111.169L105.482 110.067ZM125.859 80.4191C125.453 80.1545 124.91 80.269 124.645 80.6748L123.926 81.777C123.662 82.1829 123.776 82.7263 124.182 82.9909L141.083 94.0093C141.488 94.2739 142.032 94.1594 142.297 93.7535L143.015 92.6513C143.28 92.2455 143.165 91.702 142.759 91.4375L125.859 80.4191ZM103.087 113.741C103.352 113.335 103.895 113.221 104.301 113.485L121.202 124.504C121.607 124.768 121.722 125.312 121.457 125.718L120.739 126.82C120.474 127.226 119.931 127.34 119.525 127.076L102.624 116.057C102.219 115.793 102.104 115.249 102.369 114.843L103.087 113.741ZM123.463 84.0931C123.058 83.8285 122.514 83.943 122.25 84.3489L121.531 85.4511C121.266 85.8569 121.381 86.4004 121.787 86.6649L138.687 97.6833C139.093 97.9479 139.637 97.8334 139.901 97.4276L140.62 96.3254C140.884 95.9196 140.77 95.3761 140.364 95.1115L123.463 84.0931ZM100.692 117.415C100.956 117.009 101.5 116.895 101.906 117.16L118.806 128.178C119.212 128.442 119.327 128.986 119.062 129.392L118.343 130.494C118.079 130.9 117.535 131.014 117.13 130.75L100.229 119.731C99.8232 119.467 99.7087 118.923 99.9733 118.517L100.692 117.415ZM121.068 87.7672C120.662 87.5026 120.119 87.6171 119.854 88.0229L119.136 89.1251C118.871 89.5309 118.986 90.0744 119.391 90.339L136.292 101.357C136.698 101.622 137.241 101.507 137.506 101.102L138.224 99.9994C138.489 99.5936 138.374 99.0501 137.969 98.7856L121.068 87.7672ZM98.2965 121.089C98.5611 120.683 99.1045 120.569 99.5104 120.834L116.411 131.852C116.817 132.117 116.931 132.66 116.667 133.066L115.948 134.168C115.683 134.574 115.14 134.688 114.734 134.424L97.8336 123.405C97.4278 123.141 97.3133 122.597 97.5779 122.192L98.2965 121.089ZM118.673 91.4412C118.267 91.1766 117.724 91.2911 117.459 91.697L116.74 92.7992C116.476 93.205 116.59 93.7485 116.996 94.013L133.897 105.031C134.303 105.296 134.846 105.182 135.111 104.776L135.829 103.673C136.094 103.268 135.979 102.724 135.573 102.46L118.673 91.4412ZM160.366 123.859C159.96 123.594 159.417 123.709 159.152 124.115L158.433 125.217C158.169 125.623 158.283 126.166 158.689 126.431L170.813 134.335C171.219 134.6 171.763 134.485 172.027 134.08L172.746 132.977C173.011 132.572 172.896 132.028 172.49 131.764L160.366 123.859ZM178.314 94.7224C178.579 94.3166 179.122 94.2021 179.528 94.4667L191.653 102.371C192.058 102.636 192.173 103.179 191.908 103.585L191.19 104.687C190.925 105.093 190.382 105.208 189.976 104.943L177.852 97.0385C177.446 96.7739 177.331 96.2305 177.596 95.8247L178.314 94.7224ZM157.971 127.533C157.565 127.268 157.021 127.383 156.757 127.789L156.038 128.891C155.773 129.297 155.888 129.84 156.294 130.105L168.418 138.009C168.824 138.274 169.367 138.159 169.632 137.753L170.351 136.651C170.615 136.245 170.501 135.702 170.095 135.437L157.971 127.533ZM175.919 98.3962C176.184 97.9904 176.727 97.8759 177.133 98.1405L189.257 106.045C189.663 106.31 189.778 106.853 189.513 107.259L188.795 108.361C188.53 108.767 187.987 108.881 187.581 108.617L175.456 100.712C175.051 100.448 174.936 99.9042 175.201 99.4984L175.919 98.3962ZM155.575 131.207C155.169 130.942 154.626 131.057 154.361 131.463L153.643 132.565C153.378 132.971 153.493 133.514 153.899 133.779L166.023 141.683C166.429 141.948 166.972 141.833 167.237 141.427L167.955 140.325C168.22 139.919 168.105 139.376 167.7 139.111L155.575 131.207ZM173.524 102.07C173.788 101.664 174.332 101.55 174.738 101.815L186.862 109.719C187.268 109.984 187.382 110.527 187.118 110.933L186.399 112.035C186.135 112.441 185.591 112.555 185.185 112.291L173.061 104.386C172.655 104.122 172.541 103.578 172.805 103.172L173.524 102.07ZM153.18 134.881C152.774 134.616 152.231 134.731 151.966 135.137L151.248 136.239C150.983 136.645 151.098 137.188 151.503 137.453L163.628 145.357C164.033 145.622 164.577 145.507 164.842 145.101L165.56 143.999C165.825 143.593 165.71 143.05 165.304 142.785L153.18 134.881ZM171.129 105.745C171.393 105.339 171.937 105.224 172.342 105.489L184.467 113.393C184.873 113.658 184.987 114.201 184.722 114.607L184.004 115.709C183.739 116.115 183.196 116.23 182.79 115.965L170.666 108.061C170.26 107.796 170.145 107.253 170.41 106.847L171.129 105.745ZM150.785 138.555C150.379 138.29 149.835 138.405 149.571 138.811L148.852 139.913C148.588 140.319 148.702 140.862 149.108 141.127L161.232 149.031C161.638 149.296 162.182 149.181 162.446 148.776L163.165 147.673C163.429 147.268 163.315 146.724 162.909 146.459L150.785 138.555ZM168.733 109.418C168.998 109.013 169.541 108.898 169.947 109.163L182.071 117.067C182.477 117.332 182.592 117.875 182.327 118.281L181.609 119.383C181.344 119.789 180.8 119.903 180.395 119.639L168.27 111.734C167.865 111.47 167.75 110.926 168.015 110.521L168.733 109.418ZM148.389 142.229C147.984 141.964 147.44 142.079 147.175 142.485L146.457 143.587C146.192 143.993 146.307 144.536 146.713 144.801L158.837 152.705C159.243 152.97 159.786 152.855 160.051 152.45L160.769 151.347C161.034 150.942 160.919 150.398 160.514 150.134L148.389 142.229ZM166.338 113.092C166.603 112.687 167.146 112.572 167.552 112.837L179.676 120.741C180.082 121.006 180.196 121.549 179.932 121.955L179.213 123.057C178.949 123.463 178.405 123.578 177.999 123.313L165.875 115.408C165.469 115.144 165.355 114.6 165.619 114.195L166.338 113.092ZM145.994 145.903C145.588 145.638 145.045 145.753 144.78 146.159L144.062 147.261C143.797 147.667 143.912 148.21 144.317 148.475L156.442 156.379C156.848 156.644 157.391 156.529 157.656 156.124L158.374 155.021C158.639 154.616 158.524 154.072 158.118 153.808L145.994 145.903ZM163.943 116.766C164.207 116.361 164.751 116.246 165.157 116.511L177.281 124.415C177.687 124.68 177.801 125.223 177.537 125.629L176.818 126.731C176.553 127.137 176.01 127.252 175.604 126.987L163.48 119.083C163.074 118.818 162.96 118.274 163.224 117.869L163.943 116.766ZM143.599 149.577C143.193 149.313 142.649 149.427 142.385 149.833L141.666 150.935C141.402 151.341 141.516 151.884 141.922 152.149L154.046 160.053C154.452 160.318 154.996 160.203 155.26 159.798L155.979 158.695C156.243 158.29 156.129 157.746 155.723 157.482L143.599 149.577ZM161.547 120.44C161.812 120.035 162.355 119.92 162.761 120.185L174.886 128.089C175.291 128.354 175.406 128.897 175.141 129.303L174.423 130.405C174.158 130.811 173.615 130.926 173.209 130.661L161.085 122.757C160.679 122.492 160.564 121.949 160.829 121.543L161.547 120.44ZM163.186 78.5766C162.78 78.312 162.237 78.4265 161.972 78.8323L161.254 79.9345C160.989 80.3403 161.104 80.8838 161.509 81.1484L171.797 87.8552C172.202 88.1198 172.746 88.0053 173.01 87.5995L173.729 86.4973C173.994 86.0914 173.879 85.548 173.473 85.2834L163.186 78.5766ZM140.414 111.899C140.679 111.493 141.223 111.378 141.628 111.643L151.916 118.35C152.321 118.614 152.436 119.158 152.171 119.564L151.453 120.666C151.188 121.072 150.645 121.186 150.239 120.922L139.952 114.215C139.546 113.95 139.431 113.407 139.696 113.001L140.414 111.899ZM160.791 82.2506C160.385 81.986 159.842 82.1005 159.577 82.5063L158.858 83.6086C158.594 84.0144 158.708 84.5578 159.114 84.8224L169.401 91.5293C169.807 91.7938 170.351 91.6793 170.615 91.2735L171.334 90.1713C171.598 89.7655 171.484 89.222 171.078 88.9574L160.791 82.2506ZM138.019 115.572C138.284 115.167 138.827 115.052 139.233 115.317L149.52 122.024C149.926 122.288 150.041 122.832 149.776 123.237L149.057 124.34C148.793 124.745 148.249 124.86 147.844 124.595L137.556 117.889C137.15 117.624 137.036 117.081 137.301 116.675L138.019 115.572ZM158.395 85.9246C157.99 85.6601 157.446 85.7746 157.182 86.1804L156.463 87.2826C156.198 87.6884 156.313 88.2319 156.719 88.4965L167.006 95.2033C167.412 95.4679 167.955 95.3534 168.22 94.9476L168.938 93.8454C169.203 93.4395 169.089 92.8961 168.683 92.6315L158.395 85.9246ZM135.624 119.247C135.888 118.841 136.432 118.726 136.838 118.991L147.125 125.698C147.531 125.962 147.645 126.506 147.381 126.911L146.662 128.014C146.398 128.42 145.854 128.534 145.448 128.269L135.161 121.563C134.755 121.298 134.641 120.755 134.905 120.349L135.624 119.247ZM156 89.5984C155.594 89.3338 155.051 89.4483 154.786 89.8542L154.068 90.9564C153.803 91.3622 153.918 91.9057 154.324 92.1702L164.611 98.8771C165.017 99.1417 165.56 99.0272 165.825 98.6213L166.543 97.5191C166.808 97.1133 166.693 96.5698 166.288 96.3053L156 89.5984ZM133.229 122.921C133.493 122.515 134.037 122.4 134.442 122.665L144.73 129.372C145.135 129.636 145.25 130.18 144.985 130.586L144.267 131.688C144.002 132.094 143.459 132.208 143.053 131.943L132.766 125.237C132.36 124.972 132.245 124.429 132.51 124.023L133.229 122.921ZM153.605 93.2727C153.199 93.0082 152.656 93.1227 152.391 93.5285L151.672 94.6307C151.408 95.0365 151.522 95.58 151.928 95.8446L162.215 102.551C162.621 102.816 163.165 102.701 163.429 102.296L164.148 101.193C164.412 100.788 164.298 100.244 163.892 99.9796L153.605 93.2727ZM130.833 126.595C131.098 126.189 131.641 126.074 132.047 126.339L142.334 133.046C142.74 133.31 142.855 133.854 142.59 134.26L141.872 135.362C141.607 135.768 141.064 135.882 140.658 135.618L130.37 128.911C129.965 128.646 129.85 128.103 130.115 127.697L130.833 126.595ZM151.21 96.9468C150.804 96.6822 150.26 96.7967 149.996 97.2025L149.277 98.3047C149.012 98.7106 149.127 99.254 149.533 99.5186L159.82 106.225C160.226 106.49 160.769 106.376 161.034 105.97L161.753 104.867C162.017 104.462 161.903 103.918 161.497 103.654L151.21 96.9468ZM128.438 130.269C128.703 129.863 129.246 129.748 129.652 130.013L139.939 136.72C140.345 136.984 140.459 137.528 140.195 137.934L139.476 139.036C139.212 139.442 138.668 139.556 138.262 139.292L127.975 132.585C127.569 132.32 127.455 131.777 127.719 131.371L128.438 130.269ZM148.814 100.621C148.408 100.356 147.865 100.471 147.6 100.877L146.882 101.979C146.617 102.385 146.732 102.928 147.138 103.193L157.425 109.899C157.831 110.164 158.374 110.05 158.639 109.644L159.357 108.542C159.622 108.136 159.507 107.592 159.102 107.328L148.814 100.621ZM126.043 133.943C126.307 133.537 126.851 133.422 127.256 133.687L137.544 140.394C137.95 140.658 138.064 141.202 137.799 141.608L137.081 142.71C136.816 143.116 136.273 143.23 135.867 142.966L125.58 136.259C125.174 135.994 125.059 135.451 125.324 135.045L126.043 133.943ZM146.419 104.295C146.013 104.03 145.47 104.145 145.205 104.551L144.486 105.653C144.222 106.059 144.336 106.602 144.742 106.867L155.03 113.574C155.435 113.838 155.979 113.724 156.243 113.318L156.962 112.216C157.227 111.81 157.112 111.266 156.706 111.002L146.419 104.295ZM123.647 137.617C123.912 137.211 124.455 137.096 124.861 137.361L135.148 144.068C135.554 144.332 135.669 144.876 135.404 145.282L134.686 146.384C134.421 146.79 133.878 146.904 133.472 146.64L123.184 139.933C122.779 139.668 122.664 139.125 122.929 138.719L123.647 137.617ZM144.024 107.969C143.618 107.704 143.074 107.819 142.81 108.224L142.091 109.327C141.827 109.732 141.941 110.276 142.347 110.54L152.634 117.247C153.04 117.512 153.584 117.397 153.848 116.992L154.567 115.889C154.831 115.484 154.717 114.94 154.311 114.675L144.024 107.969Z" fill="url(#paint6_linear_2789_5)"></path><rect x="121.731" y="140.556" width="14.0348" height="3.07012" rx="0.877178" transform="rotate(33.1025 121.731 140.556)" fill="#88D498"></rect></g><rect x="154.162" y="20.703" width="84.4726" height="108.156" rx="4.9563" transform="rotate(33.1025 154.162 20.703)" stroke="url(#paint7_linear_2789_5)" stroke-width="0.613529"></rect><rect x="6.10352e-05" y="90.1266" width="289.532" height="87.8734" fill="url(#paint8_linear_2789_5)"></rect></g><path d="M18.0253 0.563291H271.506C281.15 0.563291 288.968 8.38131 288.968 18.0253V177.437H0.563291V18.0253C0.563291 8.3813 8.38131 0.563291 18.0253 0.563291Z" stroke="url(#paint9_linear_2789_5)" stroke-width="1.12658"></path><defs><linearGradient id="paint0_linear_2789_5" x1="86.3155" y1="50.068" x2="86.3155" y2="139.643" gradientUnits="userSpaceOnUse"><stop stop-color="#07212A"></stop><stop offset="0.4" stop-color="#0A161A"></stop><stop offset="1" stop-color="#187190"></stop></linearGradient><linearGradient id="paint1_linear_2789_5" x1="86.3155" y1="50.068" x2="86.3155" y2="139.643" gradientUnits="userSpaceOnUse"><stop stop-color="#88D498" stop-opacity="0.8"></stop><stop offset="1" stop-color="#88D498" stop-opacity="0"></stop></linearGradient><linearGradient id="paint2_linear_2789_5" x1="86.9825" y1="46.6552" x2="97.9676" y2="81.6755" gradientUnits="userSpaceOnUse"><stop stop-color="#075236"></stop><stop offset="1" stop-color="#0FB87A"></stop></linearGradient><linearGradient id="paint3_linear_2789_5" x1="86.9825" y1="46.6552" x2="97.9676" y2="81.6755" gradientUnits="userSpaceOnUse"><stop stop-color="#16A771"></stop><stop offset="1" stop-color="#08412C"></stop></linearGradient><linearGradient id="paint4_linear_2789_5" x1="86.9825" y1="46.6552" x2="97.9676" y2="81.6755" gradientUnits="userSpaceOnUse"><stop stop-color="#118B5E"></stop><stop offset="1" stop-color="#052519"></stop></linearGradient><linearGradient id="paint5_linear_2789_5" x1="196.616" y1="20.2785" x2="196.616" y2="129.048" gradientUnits="userSpaceOnUse"><stop stop-color="#07212A"></stop><stop offset="0.4" stop-color="#0A161A"></stop><stop offset="1" stop-color="#187190"></stop></linearGradient><linearGradient id="paint6_linear_2789_5" x1="165.942" y1="80.3729" x2="125.94" y2="141.729" gradientUnits="userSpaceOnUse"><stop stop-color="#88D498"></stop><stop offset="0.73057" stop-color="#88D498" stop-opacity="0"></stop></linearGradient><linearGradient id="paint7_linear_2789_5" x1="196.616" y1="20.2785" x2="196.616" y2="129.048" gradientUnits="userSpaceOnUse"><stop stop-color="#88D498" stop-opacity="0.8"></stop><stop offset="1" stop-color="#88D498" stop-opacity="0"></stop></linearGradient><linearGradient id="paint8_linear_2789_5" x1="144.766" y1="178" x2="144.766" y2="90.1266" gradientUnits="userSpaceOnUse"><stop stop-color="#021117"></stop><stop offset="1" stop-color="#07212A" stop-opacity="0"></stop></linearGradient><linearGradient id="paint9_linear_2789_5" x1="144.766" y1="0" x2="144.766" y2="178" gradientUnits="userSpaceOnUse"><stop offset="0.190327" stop-color="#176B87"></stop><stop offset="1" stop-color="#176B87" stop-opacity="0"></stop></linearGradient><clipPath id="clip0_2789_5"><path d="M0 18.0253C0 8.0702 8.07021 0 18.0253 0H271.506C281.461 0 289.532 8.07021 289.532 18.0253V178H0V18.0253Z" fill="white"></path></clipPath><clipPath id="clip1_2789_5"><rect x="154.073" y="20.2785" width="85.0862" height="108.77" rx="5.26307" transform="rotate(33.1025 154.073 20.2785)" fill="white"></rect></clipPath></defs></svg> 