<?xml version="1.0" encoding="UTF-8"?> <svg xmlns="http://www.w3.org/2000/svg" width="134" height="134" viewBox="0 0 134 134" fill="none"><g clip-path="url(#clip0_2774_313)"><path d="M0 8C0 3.58172 3.58172 0 8 0H126C130.418 0 134 3.58172 134 8V126C134 130.418 130.418 134 126 134H8C3.58172 134 0 130.418 0 126V8Z" fill="#00141B"></path><rect opacity="0.3" x="165.814" y="35.2392" width="198.19" height="1.081" transform="rotate(143.788 165.814 35.2392)" fill="url(#paint0_linear_2774_313)"></rect><rect opacity="0.3" x="147.867" y="142.225" width="198.19" height="1.25297" transform="rotate(-171.112 147.867 142.225)" fill="url(#paint1_linear_2774_313)"></rect><rect opacity="0.3" x="-20.0476" y="53.9097" width="133.673" height="1.12656" transform="rotate(-29.0332 -20.0476 53.9097)" fill="url(#paint2_linear_2774_313)"></rect><rect opacity="0.3" x="-15.1187" y="9.09058" width="178.474" height="1.1931" transform="rotate(15 -15.1187 9.09058)" fill="url(#paint3_linear_2774_313)"></rect><path d="M51.5455 43V49.125H60.8182V55.25H51.5455L45.3636 61.375V70.5625H39.1818V61.375H33V85.875H39.1818V76.6875H45.3636V85.875H54.6364L60.8182 92H85.5455V79.75H91.7273V88.9375H101V58.3125H91.7273V67.5H85.5455V55.25H67V49.125H76.2727V43H51.5455Z" fill="url(#paint4_linear_2774_313)"></path><path d="M61.0682 49.125V48.875H60.8182H51.7955V43.25H76.0227V48.875H67H66.75V49.125V55.25V55.5H67H85.2955V67.5V67.75H85.5455H91.7273H91.9773V67.5V58.5625H100.75V88.6875H91.9773V79.75V79.5H91.7273H85.5455H85.2955V79.75V91.75H60.9211L54.8123 85.6974L54.7392 85.625H54.6364H45.6136V76.6875V76.4375H45.3636H39.1818H38.9318V76.6875V85.625H33.25V61.625H38.9318V70.5625V70.8125H39.1818H45.3636H45.6136V70.5625V61.4792L51.6483 55.5H60.8182H61.0682V55.25V49.125Z" stroke="#16A5D5" stroke-opacity="0.31" stroke-width="0.5"></path><rect opacity="0.3" x="179.76" y="27.6186" width="198.19" height="0.874797" transform="rotate(135 179.76 27.6186)" fill="url(#paint5_linear_2774_313)"></rect><rect x="101" y="59" width="41" height="29" fill="url(#paint6_linear_2774_313)"></rect><path d="M-8 47L33 61V86L-8 102V47Z" fill="url(#paint7_linear_2774_313)"></path></g><path d="M8 0.5H126C130.142 0.5 133.5 3.85786 133.5 8V126C133.5 130.142 130.142 133.5 126 133.5H8C3.85787 133.5 0.5 130.142 0.5 126V8C0.5 3.85787 3.85786 0.5 8 0.5Z" stroke="url(#paint8_linear_2774_313)"></path><defs><linearGradient id="paint0_linear_2774_313" x1="165.814" y1="35.7797" x2="364.004" y2="35.7797" gradientUnits="userSpaceOnUse"><stop offset="0.210354" stop-color="#176B87" stop-opacity="0"></stop><stop offset="0.505" stop-color="#176B87"></stop><stop offset="0.750345" stop-color="#176B87" stop-opacity="0"></stop></linearGradient><linearGradient id="paint1_linear_2774_313" x1="147.867" y1="142.852" x2="346.057" y2="142.852" gradientUnits="userSpaceOnUse"><stop offset="0.210354" stop-color="#176B87" stop-opacity="0"></stop><stop offset="0.505" stop-color="#176B87"></stop><stop offset="0.750345" stop-color="#176B87" stop-opacity="0"></stop></linearGradient><linearGradient id="paint2_linear_2774_313" x1="-20.0476" y1="54.473" x2="113.626" y2="54.473" gradientUnits="userSpaceOnUse"><stop offset="0.210354" stop-color="#176B87" stop-opacity="0"></stop><stop offset="0.505" stop-color="#176B87"></stop><stop offset="0.750345" stop-color="#176B87" stop-opacity="0"></stop></linearGradient><linearGradient id="paint3_linear_2774_313" x1="-15.1187" y1="9.68712" x2="163.355" y2="9.68712" gradientUnits="userSpaceOnUse"><stop offset="0.210354" stop-color="#176B87" stop-opacity="0"></stop><stop offset="0.505" stop-color="#176B87"></stop><stop offset="0.750345" stop-color="#176B87" stop-opacity="0"></stop></linearGradient><linearGradient id="paint4_linear_2774_313" x1="33" y1="67.5" x2="101" y2="67.5" gradientUnits="userSpaceOnUse"><stop offset="0.305" stop-color="#01202A"></stop><stop offset="1" stop-color="#1583A7"></stop></linearGradient><linearGradient id="paint5_linear_2774_313" x1="179.76" y1="28.056" x2="377.95" y2="28.056" gradientUnits="userSpaceOnUse"><stop offset="0.210354" stop-color="#176B87" stop-opacity="0"></stop><stop offset="0.505" stop-color="#176B87"></stop><stop offset="0.750345" stop-color="#176B87" stop-opacity="0"></stop></linearGradient><linearGradient id="paint6_linear_2774_313" x1="101" y1="73.5" x2="142" y2="73.5" gradientUnits="userSpaceOnUse"><stop stop-color="#1EA2CE"></stop><stop offset="0.827672" stop-color="#1EA2CE" stop-opacity="0"></stop></linearGradient><linearGradient id="paint7_linear_2774_313" x1="33" y1="73.5" x2="-8" y2="73.5" gradientUnits="userSpaceOnUse"><stop stop-color="#1EA2CE"></stop><stop offset="0.65" stop-color="#1EA2CE" stop-opacity="0"></stop></linearGradient><linearGradient id="paint8_linear_2774_313" x1="134" y1="67" x2="0" y2="67" gradientUnits="userSpaceOnUse"><stop offset="0.190327" stop-color="#176B87"></stop><stop offset="1" stop-color="#176B87" stop-opacity="0"></stop></linearGradient><clipPath id="clip0_2774_313"><path d="M0 8C0 3.58172 3.58172 0 8 0H126C130.418 0 134 3.58172 134 8V126C134 130.418 130.418 134 126 134H8C3.58172 134 0 130.418 0 126V8Z" fill="white"></path></clipPath></defs></svg> 