<?xml version="1.0" encoding="UTF-8"?> <svg xmlns="http://www.w3.org/2000/svg" width="257" height="158" viewBox="0 0 257 158" fill="none"><g clip-path="url(#clip0_2766_557)"><path d="M0 16C0 7.16345 7.16344 0 16 0H241C249.837 0 257 7.16344 257 16V158H0V16Z" fill="#00141B"></path><g opacity="0.05"><path d="M3.25256 -87.75V246" stroke="#D9D9D9" stroke-width="0.267107"></path><path d="M17.9435 -87.75V246" stroke="#D9D9D9" stroke-width="0.267107"></path><path d="M32.6343 -87.75V246" stroke="#D9D9D9" stroke-width="0.267107"></path><path d="M47.3252 -87.75V246" stroke="#D9D9D9" stroke-width="0.267107"></path><path d="M62.0161 -87.75V246" stroke="#D9D9D9" stroke-width="0.267107"></path><path d="M76.7069 -87.75V246" stroke="#D9D9D9" stroke-width="0.267107"></path><path d="M91.3978 -87.75V246" stroke="#D9D9D9" stroke-width="0.267107"></path><path d="M106.089 -87.75V246" stroke="#D9D9D9" stroke-width="0.267107"></path><path d="M120.78 -87.75V246" stroke="#D9D9D9" stroke-width="0.267107"></path><path d="M135.47 -87.75V246" stroke="#D9D9D9" stroke-width="0.267107"></path><path d="M150.161 -87.75V246" stroke="#D9D9D9" stroke-width="0.267107"></path><path d="M164.852 -87.75V246" stroke="#D9D9D9" stroke-width="0.267107"></path><path d="M179.543 -87.75V246" stroke="#D9D9D9" stroke-width="0.267107"></path><path d="M194.234 -87.75V246" stroke="#D9D9D9" stroke-width="0.267107"></path><path d="M208.925 -87.75V246" stroke="#D9D9D9" stroke-width="0.267107"></path><path d="M223.616 -87.75V246" stroke="#D9D9D9" stroke-width="0.267107"></path><path d="M238.307 -87.75V246" stroke="#D9D9D9" stroke-width="0.267107"></path><path d="M252.997 -87.75V246" stroke="#D9D9D9" stroke-width="0.267107"></path><path d="M295 13.0161L-38.75 13.0161" stroke="#D9D9D9" stroke-width="0.267107"></path><path d="M295 27.7069L-38.75 27.7069" stroke="#D9D9D9" stroke-width="0.267107"></path><path d="M295 42.3978L-38.75 42.3978" stroke="#D9D9D9" stroke-width="0.267107"></path><path d="M295 57.0886L-38.75 57.0886" stroke="#D9D9D9" stroke-width="0.267107"></path><path d="M295 71.7795L-38.75 71.7795" stroke="#D9D9D9" stroke-width="0.267107"></path><path d="M295 86.4705L-38.75 86.4704" stroke="#D9D9D9" stroke-width="0.267107"></path><path d="M295 101.161L-38.75 101.161" stroke="#D9D9D9" stroke-width="0.267107"></path><path d="M295 115.852L-38.75 115.852" stroke="#D9D9D9" stroke-width="0.267107"></path><path d="M295 130.543L-38.75 130.543" stroke="#D9D9D9" stroke-width="0.267107"></path><path d="M295 145.234L-38.75 145.234" stroke="#D9D9D9" stroke-width="0.267107"></path></g><g opacity="0.2" filter="url(#filter0_d_2766_557)"><ellipse cx="128" cy="79" rx="107" ry="99" fill="url(#paint0_radial_2766_557)"></ellipse></g><g opacity="0.2" filter="url(#filter1_d_2766_557)"><ellipse cx="128" cy="79" rx="77" ry="71" fill="url(#paint1_radial_2766_557)"></ellipse></g><g opacity="0.2" filter="url(#filter2_d_2766_557)"><ellipse cx="128" cy="79" rx="53" ry="49" fill="url(#paint2_radial_2766_557)"></ellipse></g><rect y="116" width="257" height="42" fill="url(#paint3_linear_2766_557)"></rect><rect width="257" height="42" transform="matrix(1 0 0 -1 0 40)" fill="url(#paint4_linear_2766_557)"></rect><g filter="url(#filter3_d_2766_557)"><path d="M128 51L128 43L130 43L130 51L137 51L129 59L121 51L128 51Z" fill="url(#paint5_linear_2766_557)" stroke="#176B87" stroke-width="0.248276"></path><path d="M101 80L93 80L93 78L101 78L101 71L109 79L101 87L101 80Z" fill="url(#paint6_linear_2766_557)" stroke="#176B87" stroke-width="0.248276"></path><path d="M108.494 59.9082L102.837 54.2513L104.251 52.8371L109.908 58.4939L114.858 53.5442L114.858 64.8579L103.544 64.8579L108.494 59.9082Z" fill="url(#paint7_linear_2766_557)" stroke="#176B87" stroke-width="0.248276"></path><path d="M148.205 58.6066L153.861 52.9497L155.276 54.364L149.619 60.0208L154.568 64.9706H143.255V53.6569L148.205 58.6066Z" fill="url(#paint8_linear_2766_557)" stroke="#176B87" stroke-width="0.248276"></path><path d="M130 107V115H128V107H121L129 99L137 107H130Z" fill="url(#paint9_linear_2766_557)" stroke="#176B87" stroke-width="0.248276"></path><path d="M157 78L165 78L165 80L157 80L157 87L149 79L157 71L157 78Z" fill="url(#paint10_linear_2766_557)" stroke="#176B87" stroke-width="0.248276"></path><path d="M149.506 98.0918L155.163 103.749L153.749 105.163L148.092 99.5061L143.142 104.456V93.1421H154.456L149.506 98.0918Z" fill="url(#paint11_linear_2766_557)" stroke="#176B87" stroke-width="0.248276"></path><path d="M110.021 99.6187L104.364 105.276L102.95 103.861L108.607 98.2045L103.657 93.2548L114.971 93.2548L114.971 104.568L110.021 99.6187Z" fill="url(#paint12_linear_2766_557)" stroke="#176B87" stroke-width="0.248276"></path></g></g><path d="M0.5 16C0.5 7.43959 7.43959 0.5 16 0.5H241C249.56 0.5 256.5 7.43959 256.5 16V157.5H0.5V16Z" stroke="url(#paint13_linear_2766_557)"></path><defs><filter id="filter0_d_2766_557" x="19.4" y="-21.6" width="217.2" height="201.2" filterUnits="userSpaceOnUse" color-interpolation-filters="sRGB"><feFlood flood-opacity="0" result="BackgroundImageFix"></feFlood><feColorMatrix in="SourceAlpha" type="matrix" values="0 0 0 0 0 0 0 0 0 0 0 0 0 0 0 0 0 0 127 0" result="hardAlpha"></feColorMatrix><feMorphology radius="1" operator="dilate" in="SourceAlpha" result="effect1_dropShadow_2766_557"></feMorphology><feOffset></feOffset><feGaussianBlur stdDeviation="0.3"></feGaussianBlur><feComposite in2="hardAlpha" operator="out"></feComposite><feColorMatrix type="matrix" values="0 0 0 0 0 0 0 0 0 0 0 0 0 0 0 0 0 0 0.25 0"></feColorMatrix><feBlend mode="normal" in2="BackgroundImageFix" result="effect1_dropShadow_2766_557"></feBlend><feBlend mode="normal" in="SourceGraphic" in2="effect1_dropShadow_2766_557" result="shape"></feBlend></filter><filter id="filter1_d_2766_557" x="49.4" y="6.4" width="157.2" height="145.2" filterUnits="userSpaceOnUse" color-interpolation-filters="sRGB"><feFlood flood-opacity="0" result="BackgroundImageFix"></feFlood><feColorMatrix in="SourceAlpha" type="matrix" values="0 0 0 0 0 0 0 0 0 0 0 0 0 0 0 0 0 0 127 0" result="hardAlpha"></feColorMatrix><feMorphology radius="1" operator="dilate" in="SourceAlpha" result="effect1_dropShadow_2766_557"></feMorphology><feOffset></feOffset><feGaussianBlur stdDeviation="0.3"></feGaussianBlur><feComposite in2="hardAlpha" operator="out"></feComposite><feColorMatrix type="matrix" values="0 0 0 0 0 0 0 0 0 0 0 0 0 0 0 0 0 0 0.25 0"></feColorMatrix><feBlend mode="normal" in2="BackgroundImageFix" result="effect1_dropShadow_2766_557"></feBlend><feBlend mode="normal" in="SourceGraphic" in2="effect1_dropShadow_2766_557" result="shape"></feBlend></filter><filter id="filter2_d_2766_557" x="73.4" y="28.4" width="109.2" height="101.2" filterUnits="userSpaceOnUse" color-interpolation-filters="sRGB"><feFlood flood-opacity="0" result="BackgroundImageFix"></feFlood><feColorMatrix in="SourceAlpha" type="matrix" values="0 0 0 0 0 0 0 0 0 0 0 0 0 0 0 0 0 0 127 0" result="hardAlpha"></feColorMatrix><feMorphology radius="1" operator="dilate" in="SourceAlpha" result="effect1_dropShadow_2766_557"></feMorphology><feOffset></feOffset><feGaussianBlur stdDeviation="0.3"></feGaussianBlur><feComposite in2="hardAlpha" operator="out"></feComposite><feColorMatrix type="matrix" values="0 0 0 0 0 0 0 0 0 0 0 0 0 0 0 0 0 0 0.25 0"></feColorMatrix><feBlend mode="normal" in2="BackgroundImageFix" result="effect1_dropShadow_2766_557"></feBlend><feBlend mode="normal" in="SourceGraphic" in2="effect1_dropShadow_2766_557" result="shape"></feBlend></filter><filter id="filter3_d_2766_557" x="87.9103" y="37.9103" width="82.1793" height="82.1793" filterUnits="userSpaceOnUse" color-interpolation-filters="sRGB"><feFlood flood-opacity="0" result="BackgroundImageFix"></feFlood><feColorMatrix in="SourceAlpha" type="matrix" values="0 0 0 0 0 0 0 0 0 0 0 0 0 0 0 0 0 0 127 0" result="hardAlpha"></feColorMatrix><feOffset></feOffset><feGaussianBlur stdDeviation="2.48276"></feGaussianBlur><feComposite in2="hardAlpha" operator="out"></feComposite><feColorMatrix type="matrix" values="0 0 0 0 0 0 0 0 0 0 0 0 0 0 0 0 0 0 0.25 0"></feColorMatrix><feBlend mode="normal" in2="BackgroundImageFix" result="effect1_dropShadow_2766_557"></feBlend><feBlend mode="normal" in="SourceGraphic" in2="effect1_dropShadow_2766_557" result="shape"></feBlend></filter><radialGradient id="paint0_radial_2766_557" cx="0" cy="0" r="1" gradientUnits="userSpaceOnUse" gradientTransform="translate(128 79) rotate(90) scale(99 107)"><stop stop-color="#0F303C"></stop><stop offset="1" stop-color="#2983A2"></stop></radialGradient><radialGradient id="paint1_radial_2766_557" cx="0" cy="0" r="1" gradientUnits="userSpaceOnUse" gradientTransform="translate(128 79) rotate(90) scale(71 77)"><stop stop-color="#0F303C"></stop><stop offset="1" stop-color="#2983A2"></stop></radialGradient><radialGradient id="paint2_radial_2766_557" cx="0" cy="0" r="1" gradientUnits="userSpaceOnUse" gradientTransform="translate(128 79) rotate(90) scale(49 53)"><stop stop-color="#0F303C"></stop><stop offset="1" stop-color="#2983A2"></stop></radialGradient><linearGradient id="paint3_linear_2766_557" x1="128.5" y1="158" x2="128.5" y2="116" gradientUnits="userSpaceOnUse"><stop stop-color="#021117"></stop><stop offset="1" stop-color="#07212A" stop-opacity="0"></stop></linearGradient><linearGradient id="paint4_linear_2766_557" x1="128.5" y1="42" x2="128.5" y2="0" gradientUnits="userSpaceOnUse"><stop stop-color="#021117"></stop><stop offset="1" stop-color="#07212A" stop-opacity="0"></stop></linearGradient><linearGradient id="paint5_linear_2766_557" x1="129" y1="59" x2="129" y2="43" gradientUnits="userSpaceOnUse"><stop stop-color="#88D498"></stop><stop offset="1" stop-color="#476E4F"></stop></linearGradient><linearGradient id="paint6_linear_2766_557" x1="109" y1="79" x2="93" y2="79" gradientUnits="userSpaceOnUse"><stop stop-color="#88D498"></stop><stop offset="1" stop-color="#476E4F"></stop></linearGradient><linearGradient id="paint7_linear_2766_557" x1="114.858" y1="64.8579" x2="103.544" y2="53.5442" gradientUnits="userSpaceOnUse"><stop stop-color="#88D498"></stop><stop offset="1" stop-color="#476E4F"></stop></linearGradient><linearGradient id="paint8_linear_2766_557" x1="143.255" y1="64.9706" x2="154.568" y2="53.6569" gradientUnits="userSpaceOnUse"><stop stop-color="#88D498"></stop><stop offset="1" stop-color="#476E4F"></stop></linearGradient><linearGradient id="paint9_linear_2766_557" x1="129" y1="99" x2="129" y2="115" gradientUnits="userSpaceOnUse"><stop stop-color="#88D498"></stop><stop offset="1" stop-color="#476E4F"></stop></linearGradient><linearGradient id="paint10_linear_2766_557" x1="149" y1="79" x2="165" y2="79" gradientUnits="userSpaceOnUse"><stop stop-color="#88D498"></stop><stop offset="1" stop-color="#476E4F"></stop></linearGradient><linearGradient id="paint11_linear_2766_557" x1="143.142" y1="93.1421" x2="154.456" y2="104.456" gradientUnits="userSpaceOnUse"><stop stop-color="#88D498"></stop><stop offset="1" stop-color="#476E4F"></stop></linearGradient><linearGradient id="paint12_linear_2766_557" x1="114.971" y1="93.2548" x2="103.657" y2="104.568" gradientUnits="userSpaceOnUse"><stop stop-color="#88D498"></stop><stop offset="1" stop-color="#476E4F"></stop></linearGradient><linearGradient id="paint13_linear_2766_557" x1="128.5" y1="0" x2="128.5" y2="158" gradientUnits="userSpaceOnUse"><stop offset="0.190327" stop-color="#176B87"></stop><stop offset="1" stop-color="#176B87" stop-opacity="0"></stop></linearGradient><clipPath id="clip0_2766_557"><path d="M0 16C0 7.16345 7.16344 0 16 0H241C249.837 0 257 7.16344 257 16V158H0V16Z" fill="white"></path></clipPath></defs></svg> 