<?xml version="1.0" encoding="UTF-8"?> <svg xmlns="http://www.w3.org/2000/svg" width="134" height="134" viewBox="0 0 134 134" fill="none"><g clip-path="url(#clip0_2774_440)"><path d="M0 8C0 3.58172 3.58172 0 8 0H126C130.418 0 134 3.58172 134 8V126C134 130.418 130.418 134 126 134H8C3.58172 134 0 130.418 0 126V8Z" fill="#00141B"></path><rect opacity="0.3" width="102.29" height="1.1931" transform="matrix(-0.90931 0.416119 0.416119 0.90931 75.6089 -5.15228)" fill="url(#paint0_linear_2774_440)"></rect><rect opacity="0.3" width="95.3788" height="1.5444" transform="matrix(0.59948 0.80039 0.80039 -0.59948 -21 74.9258)" fill="url(#paint1_linear_2774_440)"></rect><path fill-rule="evenodd" clip-rule="evenodd" d="M29.7692 38.5385C33.5078 38.5385 36.5385 35.5078 36.5385 31.7693C36.5385 28.0307 33.5078 25 29.7692 25C26.0307 25 23 28.0307 23 31.7693C23 35.5078 26.0307 38.5385 29.7692 38.5385ZM27.9467 35.1071L34.1953 28.8586L33.4611 28.1244L27.9467 33.6335L25.817 31.509L25.0828 32.2432L27.9467 35.1071Z" fill="url(#paint2_linear_2774_440)"></path><path d="M34.1953 28.8586L34.266 28.9293L34.3367 28.8586L34.266 28.7879L34.1953 28.8586ZM27.9467 35.1071L27.876 35.1778L27.9467 35.2485L28.0175 35.1778L27.9467 35.1071ZM33.4611 28.1244L33.5318 28.0537L33.4611 27.983L33.3904 28.0536L33.4611 28.1244ZM27.9467 33.6335L27.8761 33.7043L27.9468 33.7748L28.0174 33.7042L27.9467 33.6335ZM25.817 31.509L25.8877 31.4382L25.817 31.3676L25.7463 31.4383L25.817 31.509ZM25.0828 32.2432L25.0121 32.1725L24.9414 32.2432L25.0121 32.3139L25.0828 32.2432ZM36.4385 31.7693C36.4385 35.4526 33.4525 38.4385 29.7692 38.4385V38.6385C33.563 38.6385 36.6385 35.563 36.6385 31.7693H36.4385ZM29.7692 25.1C33.4525 25.1 36.4385 28.086 36.4385 31.7693H36.6385C36.6385 27.9755 33.563 24.9 29.7692 24.9V25.1ZM23.1 31.7693C23.1 28.086 26.0859 25.1 29.7692 25.1V24.9C25.9755 24.9 22.9 27.9755 22.9 31.7693H23.1ZM29.7692 38.4385C26.0859 38.4385 23.1 35.4526 23.1 31.7693H22.9C22.9 35.563 25.9755 38.6385 29.7692 38.6385V38.4385ZM34.1246 28.7879L27.876 35.0364L28.0175 35.1778L34.266 28.9293L34.1246 28.7879ZM33.3904 28.1951L34.1246 28.9293L34.266 28.7879L33.5318 28.0537L33.3904 28.1951ZM28.0174 33.7042L33.5317 28.1951L33.3904 28.0536L27.8761 33.5627L28.0174 33.7042ZM25.7464 31.5798L27.8761 33.7043L28.0174 33.5627L25.8877 31.4382L25.7464 31.5798ZM25.1536 32.3139L25.8878 31.5797L25.7463 31.4383L25.0121 32.1725L25.1536 32.3139ZM28.0175 35.0364L25.1536 32.1725L25.0121 32.3139L27.876 35.1778L28.0175 35.0364Z" fill="#176B87"></path><path d="M54.077 31.7693C54.077 35.5078 51.0463 38.5385 47.3078 38.5385C43.5693 38.5385 40.5386 35.5078 40.5386 31.7693C40.5386 28.0307 43.5693 25 47.3078 25C51.0463 25 54.077 28.0307 54.077 31.7693Z" fill="#176B87"></path><path fill-rule="evenodd" clip-rule="evenodd" d="M64.8461 38.5385C68.5847 38.5385 71.6154 35.5078 71.6154 31.7693C71.6154 28.0307 68.5847 25 64.8461 25C61.1076 25 58.0769 28.0307 58.0769 31.7693C58.0769 35.5078 61.1076 38.5385 64.8461 38.5385ZM63.0237 35.1071L69.2722 28.8586L68.538 28.1244L63.0237 33.6335L60.8939 31.509L60.1597 32.2432L63.0237 35.1071Z" fill="url(#paint3_linear_2774_440)"></path><path d="M69.2722 28.8586L69.3429 28.9293L69.4136 28.8586L69.3429 28.7879L69.2722 28.8586ZM63.0237 35.1071L62.9529 35.1778L63.0237 35.2485L63.0944 35.1778L63.0237 35.1071ZM68.538 28.1244L68.6087 28.0537L68.538 27.983L68.4673 28.0536L68.538 28.1244ZM63.0237 33.6335L62.953 33.7043L63.0237 33.7748L63.0943 33.7042L63.0237 33.6335ZM60.8939 31.509L60.9646 31.4382L60.8939 31.3676L60.8232 31.4383L60.8939 31.509ZM60.1597 32.2432L60.089 32.1725L60.0183 32.2432L60.089 32.3139L60.1597 32.2432ZM71.5154 31.7693C71.5154 35.4526 68.5294 38.4385 64.8461 38.4385V38.6385C68.6399 38.6385 71.7154 35.563 71.7154 31.7693H71.5154ZM64.8461 25.1C68.5294 25.1 71.5154 28.086 71.5154 31.7693H71.7154C71.7154 27.9755 68.6399 24.9 64.8461 24.9V25.1ZM58.1769 31.7693C58.1769 28.086 61.1628 25.1 64.8461 25.1V24.9C61.0524 24.9 57.9769 27.9755 57.9769 31.7693H58.1769ZM64.8461 38.4385C61.1628 38.4385 58.1769 35.4526 58.1769 31.7693H57.9769C57.9769 35.563 61.0524 38.6385 64.8461 38.6385V38.4385ZM69.2015 28.7879L62.9529 35.0364L63.0944 35.1778L69.3429 28.9293L69.2015 28.7879ZM68.4673 28.1951L69.2015 28.9293L69.3429 28.7879L68.6087 28.0537L68.4673 28.1951ZM63.0943 33.7042L68.6086 28.1951L68.4673 28.0536L62.953 33.5627L63.0943 33.7042ZM60.8233 31.5798L62.953 33.7043L63.0943 33.5627L60.9646 31.4382L60.8233 31.5798ZM60.2305 32.3139L60.9647 31.5797L60.8232 31.4383L60.089 32.1725L60.2305 32.3139ZM63.0944 35.0364L60.2305 32.1725L60.089 32.3139L62.9529 35.1778L63.0944 35.0364Z" fill="#176B87"></path><path fill-rule="evenodd" clip-rule="evenodd" d="M82.3847 38.5385C86.1233 38.5385 89.1539 35.5078 89.1539 31.7693C89.1539 28.0307 86.1233 25 82.3847 25C78.6462 25 75.6155 28.0307 75.6155 31.7693C75.6155 35.5078 78.6462 38.5385 82.3847 38.5385ZM80.5622 35.1071L86.8107 28.8586L86.0765 28.1244L80.5622 33.6335L78.4325 31.509L77.6983 32.2432L80.5622 35.1071Z" fill="url(#paint4_linear_2774_440)"></path><path d="M86.8107 28.8586L86.8815 28.9293L86.9522 28.8586L86.8815 28.7879L86.8107 28.8586ZM80.5622 35.1071L80.4915 35.1778L80.5622 35.2485L80.6329 35.1778L80.5622 35.1071ZM86.0765 28.1244L86.1473 28.0537L86.0766 27.983L86.0059 28.0536L86.0765 28.1244ZM80.5622 33.6335L80.4916 33.7043L80.5623 33.7748L80.6329 33.7042L80.5622 33.6335ZM78.4325 31.509L78.5031 31.4382L78.4324 31.3676L78.3618 31.4383L78.4325 31.509ZM77.6983 32.2432L77.6276 32.1725L77.5569 32.2432L77.6276 32.3139L77.6983 32.2432ZM89.0539 31.7693C89.0539 35.4526 86.068 38.4385 82.3847 38.4385V38.6385C86.1785 38.6385 89.2539 35.563 89.2539 31.7693H89.0539ZM82.3847 25.1C86.068 25.1 89.0539 28.086 89.0539 31.7693H89.2539C89.2539 27.9755 86.1785 24.9 82.3847 24.9V25.1ZM75.7155 31.7693C75.7155 28.086 78.7014 25.1 82.3847 25.1V24.9C78.5909 24.9 75.5155 27.9755 75.5155 31.7693H75.7155ZM82.3847 38.4385C78.7014 38.4385 75.7155 35.4526 75.7155 31.7693H75.5155C75.5155 35.563 78.5909 38.6385 82.3847 38.6385V38.4385ZM86.74 28.7879L80.4915 35.0364L80.6329 35.1778L86.8815 28.9293L86.74 28.7879ZM86.0058 28.1951L86.74 28.9293L86.8815 28.7879L86.1473 28.0537L86.0058 28.1951ZM80.6329 33.7042L86.1472 28.1951L86.0059 28.0536L80.4915 33.5627L80.6329 33.7042ZM78.3619 31.5798L80.4916 33.7043L80.6329 33.5627L78.5031 31.4382L78.3619 31.5798ZM77.769 32.3139L78.5032 31.5797L78.3618 31.4383L77.6276 32.1725L77.769 32.3139ZM80.6329 35.0364L77.769 32.1725L77.6276 32.3139L80.4915 35.1778L80.6329 35.0364Z" fill="#176B87"></path><path fill-rule="evenodd" clip-rule="evenodd" d="M99.923 38.5385C103.662 38.5385 106.692 35.5078 106.692 31.7693C106.692 28.0307 103.662 25 99.923 25C96.1845 25 93.1538 28.0307 93.1538 31.7693C93.1538 35.5078 96.1845 38.5385 99.923 38.5385ZM98.1006 35.1071L104.349 28.8586L103.615 28.1244L98.1006 33.6335L95.9708 31.509L95.2366 32.2432L98.1006 35.1071Z" fill="url(#paint5_linear_2774_440)"></path><path d="M104.349 28.8586L104.42 28.9293L104.49 28.8586L104.42 28.7879L104.349 28.8586ZM98.1006 35.1071L98.0298 35.1778L98.1006 35.2485L98.1713 35.1778L98.1006 35.1071ZM103.615 28.1244L103.686 28.0537L103.615 27.983L103.544 28.0536L103.615 28.1244ZM98.1006 33.6335L98.0299 33.7043L98.1006 33.7748L98.1712 33.7042L98.1006 33.6335ZM95.9708 31.509L96.0415 31.4382L95.9708 31.3676L95.9001 31.4383L95.9708 31.509ZM95.2366 32.2432L95.1659 32.1725L95.0952 32.2432L95.1659 32.3139L95.2366 32.2432ZM106.592 31.7693C106.592 35.4526 103.606 38.4385 99.923 38.4385V38.6385C103.717 38.6385 106.792 35.563 106.792 31.7693H106.592ZM99.923 25.1C103.606 25.1 106.592 28.086 106.592 31.7693H106.792C106.792 27.9755 103.717 24.9 99.923 24.9V25.1ZM93.2538 31.7693C93.2538 28.086 96.2397 25.1 99.923 25.1V24.9C96.1293 24.9 93.0538 27.9755 93.0538 31.7693H93.2538ZM99.923 38.4385C96.2397 38.4385 93.2538 35.4526 93.2538 31.7693H93.0538C93.0538 35.563 96.1293 38.6385 99.923 38.6385V38.4385ZM104.278 28.7879L98.0298 35.0364L98.1713 35.1778L104.42 28.9293L104.278 28.7879ZM103.544 28.1951L104.278 28.9293L104.42 28.7879L103.686 28.0537L103.544 28.1951ZM98.1712 33.7042L103.686 28.1951L103.544 28.0536L98.0299 33.5627L98.1712 33.7042ZM95.9002 31.5798L98.0299 33.7043L98.1712 33.5627L96.0415 31.4382L95.9002 31.5798ZM95.3074 32.3139L96.0416 31.5797L95.9001 31.4383L95.1659 32.1725L95.3074 32.3139ZM98.1713 35.0364L95.3074 32.1725L95.1659 32.3139L98.0298 35.1778L98.1713 35.0364Z" fill="#176B87"></path><path fill-rule="evenodd" clip-rule="evenodd" d="M29.7692 56.077C33.5078 56.077 36.5385 53.0463 36.5385 49.3077C36.5385 45.5692 33.5078 42.5385 29.7692 42.5385C26.0307 42.5385 23 45.5692 23 49.3077C23 53.0463 26.0307 56.077 29.7692 56.077ZM27.9467 52.6455L34.1953 46.3969L33.4611 45.6627L27.9467 51.1718L25.817 49.0473L25.0828 49.7815L27.9467 52.6455Z" fill="url(#paint6_linear_2774_440)"></path><path d="M34.1953 46.3969L34.266 46.4676L34.3367 46.3969L34.266 46.3262L34.1953 46.3969ZM27.9467 52.6455L27.876 52.7162L27.9467 52.7869L28.0175 52.7162L27.9467 52.6455ZM33.4611 45.6627L33.5318 45.592L33.4611 45.5213L33.3904 45.592L33.4611 45.6627ZM27.9467 51.1718L27.8761 51.2426L27.9468 51.3131L28.0174 51.2426L27.9467 51.1718ZM25.817 49.0473L25.8877 48.9765L25.817 48.906L25.7463 48.9766L25.817 49.0473ZM25.0828 49.7815L25.0121 49.7108L24.9414 49.7815L25.0121 49.8523L25.0828 49.7815ZM36.4385 49.3077C36.4385 52.991 33.4525 55.977 29.7692 55.977V56.177C33.563 56.177 36.6385 53.1015 36.6385 49.3077H36.4385ZM29.7692 42.6385C33.4525 42.6385 36.4385 45.6244 36.4385 49.3077H36.6385C36.6385 45.514 33.563 42.4385 29.7692 42.4385V42.6385ZM23.1 49.3077C23.1 45.6244 26.0859 42.6385 29.7692 42.6385V42.4385C25.9755 42.4385 22.9 45.514 22.9 49.3077H23.1ZM29.7692 55.977C26.0859 55.977 23.1 52.991 23.1 49.3077H22.9C22.9 53.1015 25.9755 56.177 29.7692 56.177V55.977ZM34.1246 46.3262L27.876 52.5747L28.0175 52.7162L34.266 46.4676L34.1246 46.3262ZM33.3904 45.7334L34.1246 46.4676L34.266 46.3262L33.5318 45.592L33.3904 45.7334ZM28.0174 51.2426L33.5317 45.7335L33.3904 45.592L27.8761 51.1011L28.0174 51.2426ZM25.7464 49.1181L27.8761 51.2426L28.0174 51.101L25.8877 48.9765L25.7464 49.1181ZM25.1536 49.8523L25.8878 49.1181L25.7463 48.9766L25.0121 49.7108L25.1536 49.8523ZM28.0175 52.5747L25.1536 49.7108L25.0121 49.8523L27.876 52.7162L28.0175 52.5747Z" fill="#176B87"></path><path fill-rule="evenodd" clip-rule="evenodd" d="M47.3078 56.077C51.0463 56.077 54.077 53.0463 54.077 49.3077C54.077 45.5692 51.0463 42.5385 47.3078 42.5385C43.5693 42.5385 40.5386 45.5692 40.5386 49.3077C40.5386 53.0463 43.5693 56.077 47.3078 56.077ZM45.4853 52.6455L51.7338 46.3969L50.9996 45.6627L45.4853 51.1718L43.3556 49.0473L42.6214 49.7815L45.4853 52.6455Z" fill="url(#paint7_linear_2774_440)"></path><path d="M51.7338 46.3969L51.8046 46.4676L51.8753 46.3969L51.8046 46.3262L51.7338 46.3969ZM45.4853 52.6455L45.4146 52.7162L45.4853 52.7869L45.556 52.7162L45.4853 52.6455ZM50.9996 45.6627L51.0703 45.592L50.9997 45.5213L50.929 45.592L50.9996 45.6627ZM45.4853 51.1718L45.4147 51.2426L45.4854 51.3131L45.556 51.2426L45.4853 51.1718ZM43.3556 49.0473L43.4262 48.9765L43.3555 48.906L43.2849 48.9766L43.3556 49.0473ZM42.6214 49.7815L42.5507 49.7108L42.48 49.7815L42.5507 49.8523L42.6214 49.7815ZM53.977 49.3077C53.977 52.991 50.9911 55.977 47.3078 55.977V56.177C51.1016 56.177 54.177 53.1015 54.177 49.3077H53.977ZM47.3078 42.6385C50.9911 42.6385 53.977 45.6244 53.977 49.3077H54.177C54.177 45.514 51.1016 42.4385 47.3078 42.4385V42.6385ZM40.6386 49.3077C40.6386 45.6244 43.6245 42.6385 47.3078 42.6385V42.4385C43.514 42.4385 40.4386 45.514 40.4386 49.3077H40.6386ZM47.3078 55.977C43.6245 55.977 40.6386 52.991 40.6386 49.3077H40.4386C40.4386 53.1015 43.514 56.177 47.3078 56.177V55.977ZM51.6631 46.3262L45.4146 52.5747L45.556 52.7162L51.8046 46.4676L51.6631 46.3262ZM50.9289 45.7334L51.6631 46.4676L51.8046 46.3262L51.0703 45.592L50.9289 45.7334ZM45.556 51.2426L51.0703 45.7335L50.929 45.592L45.4146 51.1011L45.556 51.2426ZM43.285 49.1181L45.4147 51.2426L45.5559 51.101L43.4262 48.9765L43.285 49.1181ZM42.6921 49.8523L43.4263 49.1181L43.2849 48.9766L42.5507 49.7108L42.6921 49.8523ZM45.556 52.5747L42.6921 49.7108L42.5507 49.8523L45.4146 52.7162L45.556 52.5747Z" fill="#176B87"></path><path fill-rule="evenodd" clip-rule="evenodd" d="M64.8461 56.077C68.5847 56.077 71.6154 53.0463 71.6154 49.3077C71.6154 45.5692 68.5847 42.5385 64.8461 42.5385C61.1076 42.5385 58.0769 45.5692 58.0769 49.3077C58.0769 53.0463 61.1076 56.077 64.8461 56.077ZM63.0237 52.6455L69.2722 46.3969L68.538 45.6627L63.0237 51.1718L60.8939 49.0473L60.1597 49.7815L63.0237 52.6455Z" fill="url(#paint8_linear_2774_440)"></path><path d="M69.2722 46.3969L69.3429 46.4676L69.4136 46.3969L69.3429 46.3262L69.2722 46.3969ZM63.0237 52.6455L62.9529 52.7162L63.0237 52.7869L63.0944 52.7162L63.0237 52.6455ZM68.538 45.6627L68.6087 45.592L68.538 45.5213L68.4673 45.592L68.538 45.6627ZM63.0237 51.1718L62.953 51.2426L63.0237 51.3131L63.0943 51.2426L63.0237 51.1718ZM60.8939 49.0473L60.9646 48.9765L60.8939 48.906L60.8232 48.9766L60.8939 49.0473ZM60.1597 49.7815L60.089 49.7108L60.0183 49.7815L60.089 49.8523L60.1597 49.7815ZM71.5154 49.3077C71.5154 52.991 68.5294 55.977 64.8461 55.977V56.177C68.6399 56.177 71.7154 53.1015 71.7154 49.3077H71.5154ZM64.8461 42.6385C68.5294 42.6385 71.5154 45.6244 71.5154 49.3077H71.7154C71.7154 45.514 68.6399 42.4385 64.8461 42.4385V42.6385ZM58.1769 49.3077C58.1769 45.6244 61.1628 42.6385 64.8461 42.6385V42.4385C61.0524 42.4385 57.9769 45.514 57.9769 49.3077H58.1769ZM64.8461 55.977C61.1628 55.977 58.1769 52.991 58.1769 49.3077H57.9769C57.9769 53.1015 61.0524 56.177 64.8461 56.177V55.977ZM69.2015 46.3262L62.9529 52.5747L63.0944 52.7162L69.3429 46.4676L69.2015 46.3262ZM68.4673 45.7334L69.2015 46.4676L69.3429 46.3262L68.6087 45.592L68.4673 45.7334ZM63.0943 51.2426L68.6086 45.7335L68.4673 45.592L62.953 51.1011L63.0943 51.2426ZM60.8233 49.1181L62.953 51.2426L63.0943 51.101L60.9646 48.9765L60.8233 49.1181ZM60.2305 49.8523L60.9647 49.1181L60.8232 48.9766L60.089 49.7108L60.2305 49.8523ZM63.0944 52.5747L60.2305 49.7108L60.089 49.8523L62.9529 52.7162L63.0944 52.5747Z" fill="#176B87"></path><path fill-rule="evenodd" clip-rule="evenodd" d="M82.3847 56.077C86.1233 56.077 89.1539 53.0463 89.1539 49.3077C89.1539 45.5692 86.1233 42.5385 82.3847 42.5385C78.6462 42.5385 75.6155 45.5692 75.6155 49.3077C75.6155 53.0463 78.6462 56.077 82.3847 56.077ZM80.5622 52.6455L86.8107 46.3969L86.0765 45.6627L80.5622 51.1718L78.4325 49.0473L77.6983 49.7815L80.5622 52.6455Z" fill="url(#paint9_linear_2774_440)"></path><path d="M86.8107 46.3969L86.8815 46.4676L86.9522 46.3969L86.8815 46.3262L86.8107 46.3969ZM80.5622 52.6455L80.4915 52.7162L80.5622 52.7869L80.6329 52.7162L80.5622 52.6455ZM86.0765 45.6627L86.1473 45.592L86.0766 45.5213L86.0059 45.592L86.0765 45.6627ZM80.5622 51.1718L80.4916 51.2426L80.5623 51.3131L80.6329 51.2426L80.5622 51.1718ZM78.4325 49.0473L78.5031 48.9765L78.4324 48.906L78.3618 48.9766L78.4325 49.0473ZM77.6983 49.7815L77.6276 49.7108L77.5569 49.7815L77.6276 49.8523L77.6983 49.7815ZM89.0539 49.3077C89.0539 52.991 86.068 55.977 82.3847 55.977V56.177C86.1785 56.177 89.2539 53.1015 89.2539 49.3077H89.0539ZM82.3847 42.6385C86.068 42.6385 89.0539 45.6244 89.0539 49.3077H89.2539C89.2539 45.514 86.1785 42.4385 82.3847 42.4385V42.6385ZM75.7155 49.3077C75.7155 45.6244 78.7014 42.6385 82.3847 42.6385V42.4385C78.5909 42.4385 75.5155 45.514 75.5155 49.3077H75.7155ZM82.3847 55.977C78.7014 55.977 75.7155 52.991 75.7155 49.3077H75.5155C75.5155 53.1015 78.5909 56.177 82.3847 56.177V55.977ZM86.74 46.3262L80.4915 52.5747L80.6329 52.7162L86.8815 46.4676L86.74 46.3262ZM86.0058 45.7334L86.74 46.4676L86.8815 46.3262L86.1473 45.592L86.0058 45.7334ZM80.6329 51.2426L86.1472 45.7335L86.0059 45.592L80.4915 51.1011L80.6329 51.2426ZM78.3619 49.1181L80.4916 51.2426L80.6329 51.101L78.5031 48.9765L78.3619 49.1181ZM77.769 49.8523L78.5032 49.1181L78.3618 48.9766L77.6276 49.7108L77.769 49.8523ZM80.6329 52.5747L77.769 49.7108L77.6276 49.8523L80.4915 52.7162L80.6329 52.5747Z" fill="#176B87"></path><path fill-rule="evenodd" clip-rule="evenodd" d="M99.923 56.077C103.662 56.077 106.692 53.0463 106.692 49.3077C106.692 45.5692 103.662 42.5385 99.923 42.5385C96.1845 42.5385 93.1538 45.5692 93.1538 49.3077C93.1538 53.0463 96.1845 56.077 99.923 56.077ZM98.1006 52.6455L104.349 46.3969L103.615 45.6627L98.1006 51.1718L95.9708 49.0473L95.2366 49.7815L98.1006 52.6455Z" fill="url(#paint10_linear_2774_440)"></path><path d="M104.349 46.3969L104.42 46.4676L104.49 46.3969L104.42 46.3262L104.349 46.3969ZM98.1006 52.6455L98.0298 52.7162L98.1006 52.7869L98.1713 52.7162L98.1006 52.6455ZM103.615 45.6627L103.686 45.592L103.615 45.5213L103.544 45.592L103.615 45.6627ZM98.1006 51.1718L98.0299 51.2426L98.1006 51.3131L98.1712 51.2426L98.1006 51.1718ZM95.9708 49.0473L96.0415 48.9765L95.9708 48.906L95.9001 48.9766L95.9708 49.0473ZM95.2366 49.7815L95.1659 49.7108L95.0952 49.7815L95.1659 49.8523L95.2366 49.7815ZM106.592 49.3077C106.592 52.991 103.606 55.977 99.923 55.977V56.177C103.717 56.177 106.792 53.1015 106.792 49.3077H106.592ZM99.923 42.6385C103.606 42.6385 106.592 45.6244 106.592 49.3077H106.792C106.792 45.514 103.717 42.4385 99.923 42.4385V42.6385ZM93.2538 49.3077C93.2538 45.6244 96.2397 42.6385 99.923 42.6385V42.4385C96.1293 42.4385 93.0538 45.514 93.0538 49.3077H93.2538ZM99.923 55.977C96.2397 55.977 93.2538 52.991 93.2538 49.3077H93.0538C93.0538 53.1015 96.1293 56.177 99.923 56.177V55.977ZM104.278 46.3262L98.0298 52.5747L98.1713 52.7162L104.42 46.4676L104.278 46.3262ZM103.544 45.7334L104.278 46.4676L104.42 46.3262L103.686 45.592L103.544 45.7334ZM98.1712 51.2426L103.686 45.7335L103.544 45.592L98.0299 51.1011L98.1712 51.2426ZM95.9002 49.1181L98.0299 51.2426L98.1712 51.101L96.0415 48.9765L95.9002 49.1181ZM95.3074 49.8523L96.0416 49.1181L95.9001 48.9766L95.1659 49.7108L95.3074 49.8523ZM98.1713 52.5747L95.3074 49.7108L95.1659 49.8523L98.0298 52.7162L98.1713 52.5747Z" fill="#176B87"></path><path fill-rule="evenodd" clip-rule="evenodd" d="M29.7692 73.6154C33.5078 73.6154 36.5385 70.5847 36.5385 66.8462C36.5385 63.1076 33.5078 60.077 29.7692 60.077C26.0307 60.077 23 63.1076 23 66.8462C23 70.5847 26.0307 73.6154 29.7692 73.6154ZM27.9467 70.1841L34.1953 63.9355L33.4611 63.2013L27.9467 68.7105L25.817 66.586L25.0828 67.3202L27.9467 70.1841Z" fill="url(#paint11_linear_2774_440)"></path><path d="M34.1953 63.9355L34.266 64.0063L34.3367 63.9355L34.266 63.8648L34.1953 63.9355ZM27.9467 70.1841L27.876 70.2548L27.9467 70.3255L28.0175 70.2548L27.9467 70.1841ZM33.4611 63.2013L33.5318 63.1306L33.4611 63.06L33.3904 63.1306L33.4611 63.2013ZM27.9467 68.7105L27.8761 68.7813L27.9468 68.8518L28.0174 68.7812L27.9467 68.7105ZM25.817 66.586L25.8877 66.5152L25.817 66.4446L25.7463 66.5152L25.817 66.586ZM25.0828 67.3202L25.0121 67.2494L24.9414 67.3202L25.0121 67.3909L25.0828 67.3202ZM36.4385 66.8462C36.4385 70.5295 33.4525 73.5154 29.7692 73.5154V73.7154C33.563 73.7154 36.6385 70.64 36.6385 66.8462H36.4385ZM29.7692 60.177C33.4525 60.177 36.4385 63.1629 36.4385 66.8462H36.6385C36.6385 63.0524 33.563 59.977 29.7692 59.977V60.177ZM23.1 66.8462C23.1 63.1629 26.0859 60.177 29.7692 60.177V59.977C25.9755 59.977 22.9 63.0524 22.9 66.8462H23.1ZM29.7692 73.5154C26.0859 73.5154 23.1 70.5295 23.1 66.8462H22.9C22.9 70.64 25.9755 73.7154 29.7692 73.7154V73.5154ZM34.1246 63.8648L27.876 70.1134L28.0175 70.2548L34.266 64.0063L34.1246 63.8648ZM33.3904 63.2721L34.1246 64.0063L34.266 63.8648L33.5318 63.1306L33.3904 63.2721ZM28.0174 68.7812L33.5317 63.2721L33.3904 63.1306L27.8761 68.6397L28.0174 68.7812ZM25.7464 66.6568L27.8761 68.7813L28.0174 68.6397L25.8877 66.5152L25.7464 66.6568ZM25.1536 67.3909L25.8878 66.6567L25.7463 66.5152L25.0121 67.2494L25.1536 67.3909ZM28.0175 70.1134L25.1536 67.2494L25.0121 67.3909L27.876 70.2548L28.0175 70.1134Z" fill="#176B87"></path><path fill-rule="evenodd" clip-rule="evenodd" d="M47.3078 73.6154C51.0463 73.6154 54.077 70.5847 54.077 66.8462C54.077 63.1076 51.0463 60.077 47.3078 60.077C43.5693 60.077 40.5386 63.1076 40.5386 66.8462C40.5386 70.5847 43.5693 73.6154 47.3078 73.6154ZM45.4853 70.1841L51.7338 63.9355L50.9996 63.2013L45.4853 68.7105L43.3556 66.586L42.6214 67.3202L45.4853 70.1841Z" fill="url(#paint12_linear_2774_440)"></path><path d="M51.7338 63.9355L51.8046 64.0063L51.8753 63.9355L51.8046 63.8648L51.7338 63.9355ZM45.4853 70.1841L45.4146 70.2548L45.4853 70.3255L45.556 70.2548L45.4853 70.1841ZM50.9996 63.2013L51.0703 63.1306L50.9997 63.06L50.929 63.1306L50.9996 63.2013ZM45.4853 68.7105L45.4147 68.7813L45.4854 68.8518L45.556 68.7812L45.4853 68.7105ZM43.3556 66.586L43.4262 66.5152L43.3555 66.4446L43.2849 66.5152L43.3556 66.586ZM42.6214 67.3202L42.5507 67.2494L42.48 67.3202L42.5507 67.3909L42.6214 67.3202ZM53.977 66.8462C53.977 70.5295 50.9911 73.5154 47.3078 73.5154V73.7154C51.1016 73.7154 54.177 70.64 54.177 66.8462H53.977ZM47.3078 60.177C50.9911 60.177 53.977 63.1629 53.977 66.8462H54.177C54.177 63.0524 51.1016 59.977 47.3078 59.977V60.177ZM40.6386 66.8462C40.6386 63.1629 43.6245 60.177 47.3078 60.177V59.977C43.514 59.977 40.4386 63.0524 40.4386 66.8462H40.6386ZM47.3078 73.5154C43.6245 73.5154 40.6386 70.5295 40.6386 66.8462H40.4386C40.4386 70.64 43.514 73.7154 47.3078 73.7154V73.5154ZM51.6631 63.8648L45.4146 70.1134L45.556 70.2548L51.8046 64.0063L51.6631 63.8648ZM50.9289 63.2721L51.6631 64.0063L51.8046 63.8648L51.0703 63.1306L50.9289 63.2721ZM45.556 68.7812L51.0703 63.2721L50.929 63.1306L45.4146 68.6397L45.556 68.7812ZM43.285 66.6568L45.4147 68.7813L45.5559 68.6397L43.4262 66.5152L43.285 66.6568ZM42.6921 67.3909L43.4263 66.6567L43.2849 66.5152L42.5507 67.2494L42.6921 67.3909ZM45.556 70.1134L42.6921 67.2494L42.5507 67.3909L45.4146 70.2548L45.556 70.1134Z" fill="#176B87"></path><path d="M71.6154 66.8462C71.6154 70.5847 68.5847 73.6154 64.8461 73.6154C61.1076 73.6154 58.0769 70.5847 58.0769 66.8462C58.0769 63.1076 61.1076 60.077 64.8461 60.077C68.5847 60.077 71.6154 63.1076 71.6154 66.8462Z" fill="#176B87"></path><path fill-rule="evenodd" clip-rule="evenodd" d="M82.3847 73.6154C86.1233 73.6154 89.1539 70.5847 89.1539 66.8462C89.1539 63.1076 86.1233 60.077 82.3847 60.077C78.6462 60.077 75.6155 63.1076 75.6155 66.8462C75.6155 70.5847 78.6462 73.6154 82.3847 73.6154ZM80.5622 70.1841L86.8107 63.9355L86.0765 63.2013L80.5622 68.7105L78.4325 66.586L77.6983 67.3202L80.5622 70.1841Z" fill="url(#paint13_linear_2774_440)"></path><path d="M86.8107 63.9355L86.8815 64.0063L86.9522 63.9355L86.8815 63.8648L86.8107 63.9355ZM80.5622 70.1841L80.4915 70.2548L80.5622 70.3255L80.6329 70.2548L80.5622 70.1841ZM86.0765 63.2013L86.1473 63.1306L86.0766 63.06L86.0059 63.1306L86.0765 63.2013ZM80.5622 68.7105L80.4916 68.7813L80.5623 68.8518L80.6329 68.7812L80.5622 68.7105ZM78.4325 66.586L78.5031 66.5152L78.4324 66.4446L78.3618 66.5152L78.4325 66.586ZM77.6983 67.3202L77.6276 67.2494L77.5569 67.3202L77.6276 67.3909L77.6983 67.3202ZM89.0539 66.8462C89.0539 70.5295 86.068 73.5154 82.3847 73.5154V73.7154C86.1785 73.7154 89.2539 70.64 89.2539 66.8462H89.0539ZM82.3847 60.177C86.068 60.177 89.0539 63.1629 89.0539 66.8462H89.2539C89.2539 63.0524 86.1785 59.977 82.3847 59.977V60.177ZM75.7155 66.8462C75.7155 63.1629 78.7014 60.177 82.3847 60.177V59.977C78.5909 59.977 75.5155 63.0524 75.5155 66.8462H75.7155ZM82.3847 73.5154C78.7014 73.5154 75.7155 70.5295 75.7155 66.8462H75.5155C75.5155 70.64 78.5909 73.7154 82.3847 73.7154V73.5154ZM86.74 63.8648L80.4915 70.1134L80.6329 70.2548L86.8815 64.0063L86.74 63.8648ZM86.0058 63.2721L86.74 64.0063L86.8815 63.8648L86.1473 63.1306L86.0058 63.2721ZM80.6329 68.7812L86.1472 63.2721L86.0059 63.1306L80.4915 68.6397L80.6329 68.7812ZM78.3619 66.6568L80.4916 68.7813L80.6329 68.6397L78.5031 66.5152L78.3619 66.6568ZM77.769 67.3909L78.5032 66.6567L78.3618 66.5152L77.6276 67.2494L77.769 67.3909ZM80.6329 70.1134L77.769 67.2494L77.6276 67.3909L80.4915 70.2548L80.6329 70.1134Z" fill="#176B87"></path><path fill-rule="evenodd" clip-rule="evenodd" d="M99.923 73.6154C103.662 73.6154 106.692 70.5847 106.692 66.8462C106.692 63.1076 103.662 60.077 99.923 60.077C96.1845 60.077 93.1538 63.1076 93.1538 66.8462C93.1538 70.5847 96.1845 73.6154 99.923 73.6154ZM98.1006 70.1841L104.349 63.9355L103.615 63.2013L98.1006 68.7105L95.9708 66.586L95.2366 67.3202L98.1006 70.1841Z" fill="url(#paint14_linear_2774_440)"></path><path d="M104.349 63.9355L104.42 64.0063L104.49 63.9355L104.42 63.8648L104.349 63.9355ZM98.1006 70.1841L98.0298 70.2548L98.1006 70.3255L98.1713 70.2548L98.1006 70.1841ZM103.615 63.2013L103.686 63.1306L103.615 63.06L103.544 63.1306L103.615 63.2013ZM98.1006 68.7105L98.0299 68.7813L98.1006 68.8518L98.1712 68.7812L98.1006 68.7105ZM95.9708 66.586L96.0415 66.5152L95.9708 66.4446L95.9001 66.5152L95.9708 66.586ZM95.2366 67.3202L95.1659 67.2494L95.0952 67.3202L95.1659 67.3909L95.2366 67.3202ZM106.592 66.8462C106.592 70.5295 103.606 73.5154 99.923 73.5154V73.7154C103.717 73.7154 106.792 70.64 106.792 66.8462H106.592ZM99.923 60.177C103.606 60.177 106.592 63.1629 106.592 66.8462H106.792C106.792 63.0524 103.717 59.977 99.923 59.977V60.177ZM93.2538 66.8462C93.2538 63.1629 96.2397 60.177 99.923 60.177V59.977C96.1293 59.977 93.0538 63.0524 93.0538 66.8462H93.2538ZM99.923 73.5154C96.2397 73.5154 93.2538 70.5295 93.2538 66.8462H93.0538C93.0538 70.64 96.1293 73.7154 99.923 73.7154V73.5154ZM104.278 63.8648L98.0298 70.1134L98.1713 70.2548L104.42 64.0063L104.278 63.8648ZM103.544 63.2721L104.278 64.0063L104.42 63.8648L103.686 63.1306L103.544 63.2721ZM98.1712 68.7812L103.686 63.2721L103.544 63.1306L98.0299 68.6397L98.1712 68.7812ZM95.9002 66.6568L98.0299 68.7813L98.1712 68.6397L96.0415 66.5152L95.9002 66.6568ZM95.3074 67.3909L96.0416 66.6567L95.9001 66.5152L95.1659 67.2494L95.3074 67.3909ZM98.1713 70.1134L95.3074 67.2494L95.1659 67.3909L98.0298 70.2548L98.1713 70.1134Z" fill="#176B87"></path><path fill-rule="evenodd" clip-rule="evenodd" d="M29.7692 91.1539C33.5078 91.1539 36.5385 88.1232 36.5385 84.3847C36.5385 80.6461 33.5078 77.6154 29.7692 77.6154C26.0307 77.6154 23 80.6461 23 84.3847C23 88.1232 26.0307 91.1539 29.7692 91.1539ZM27.9467 87.7224L34.1953 81.4739L33.4611 80.7397L27.9467 86.2488L25.817 84.1243L25.0828 84.8585L27.9467 87.7224Z" fill="url(#paint15_linear_2774_440)"></path><path d="M34.1953 81.4739L34.266 81.5446L34.3367 81.4739L34.266 81.4032L34.1953 81.4739ZM27.9467 87.7224L27.876 87.7931L27.9467 87.8639L28.0175 87.7931L27.9467 87.7224ZM33.4611 80.7397L33.5318 80.669L33.4611 80.5983L33.3904 80.669L33.4611 80.7397ZM27.9467 86.2488L27.8761 86.3196L27.9468 86.3901L28.0174 86.3196L27.9467 86.2488ZM25.817 84.1243L25.8877 84.0535L25.817 83.983L25.7463 84.0536L25.817 84.1243ZM25.0828 84.8585L25.0121 84.7878L24.9414 84.8585L25.0121 84.9292L25.0828 84.8585ZM36.4385 84.3847C36.4385 88.068 33.4525 91.0539 29.7692 91.0539V91.2539C33.563 91.2539 36.6385 88.1784 36.6385 84.3847H36.4385ZM29.7692 77.7154C33.4525 77.7154 36.4385 80.7013 36.4385 84.3847H36.6385C36.6385 80.5909 33.563 77.5154 29.7692 77.5154V77.7154ZM23.1 84.3847C23.1 80.7013 26.0859 77.7154 29.7692 77.7154V77.5154C25.9755 77.5154 22.9 80.5909 22.9 84.3847H23.1ZM29.7692 91.0539C26.0859 91.0539 23.1 88.068 23.1 84.3847H22.9C22.9 88.1784 25.9755 91.2539 29.7692 91.2539V91.0539ZM34.1246 81.4032L27.876 87.6517L28.0175 87.7931L34.266 81.5446L34.1246 81.4032ZM33.3904 80.8104L34.1246 81.5446L34.266 81.4032L33.5318 80.669L33.3904 80.8104ZM28.0174 86.3196L33.5317 80.8105L33.3904 80.669L27.8761 86.1781L28.0174 86.3196ZM25.7464 84.1951L27.8761 86.3196L28.0174 86.178L25.8877 84.0535L25.7464 84.1951ZM25.1536 84.9292L25.8878 84.195L25.7463 84.0536L25.0121 84.7878L25.1536 84.9292ZM28.0175 87.6517L25.1536 84.7878L25.0121 84.9292L27.876 87.7931L28.0175 87.6517Z" fill="#176B87"></path><path d="M54.077 84.3847C54.077 88.1232 51.0463 91.1539 47.3078 91.1539C43.5693 91.1539 40.5386 88.1232 40.5386 84.3847C40.5386 80.6461 43.5693 77.6154 47.3078 77.6154C51.0463 77.6154 54.077 80.6461 54.077 84.3847Z" fill="#176B87"></path><path d="M71.6154 84.3847C71.6154 88.1232 68.5847 91.1539 64.8461 91.1539C61.1076 91.1539 58.0769 88.1232 58.0769 84.3847C58.0769 80.6461 61.1076 77.6154 64.8461 77.6154C68.5847 77.6154 71.6154 80.6461 71.6154 84.3847Z" fill="#176B87"></path><path fill-rule="evenodd" clip-rule="evenodd" d="M82.3847 91.1539C86.1233 91.1539 89.1539 88.1232 89.1539 84.3847C89.1539 80.6461 86.1233 77.6154 82.3847 77.6154C78.6462 77.6154 75.6155 80.6461 75.6155 84.3847C75.6155 88.1232 78.6462 91.1539 82.3847 91.1539ZM80.5622 87.7224L86.8107 81.4739L86.0765 80.7397L80.5622 86.2488L78.4325 84.1243L77.6983 84.8585L80.5622 87.7224Z" fill="url(#paint16_linear_2774_440)"></path><path d="M86.8107 81.4739L86.8815 81.5446L86.9522 81.4739L86.8815 81.4032L86.8107 81.4739ZM80.5622 87.7224L80.4915 87.7931L80.5622 87.8639L80.6329 87.7931L80.5622 87.7224ZM86.0765 80.7397L86.1473 80.669L86.0766 80.5983L86.0059 80.669L86.0765 80.7397ZM80.5622 86.2488L80.4916 86.3196L80.5623 86.3901L80.6329 86.3196L80.5622 86.2488ZM78.4325 84.1243L78.5031 84.0535L78.4324 83.983L78.3618 84.0536L78.4325 84.1243ZM77.6983 84.8585L77.6276 84.7878L77.5569 84.8585L77.6276 84.9292L77.6983 84.8585ZM89.0539 84.3847C89.0539 88.068 86.068 91.0539 82.3847 91.0539V91.2539C86.1785 91.2539 89.2539 88.1784 89.2539 84.3847H89.0539ZM82.3847 77.7154C86.068 77.7154 89.0539 80.7013 89.0539 84.3847H89.2539C89.2539 80.5909 86.1785 77.5154 82.3847 77.5154V77.7154ZM75.7155 84.3847C75.7155 80.7013 78.7014 77.7154 82.3847 77.7154V77.5154C78.5909 77.5154 75.5155 80.5909 75.5155 84.3847H75.7155ZM82.3847 91.0539C78.7014 91.0539 75.7155 88.068 75.7155 84.3847H75.5155C75.5155 88.1784 78.5909 91.2539 82.3847 91.2539V91.0539ZM86.74 81.4032L80.4915 87.6517L80.6329 87.7931L86.8815 81.5446L86.74 81.4032ZM86.0058 80.8104L86.74 81.5446L86.8815 81.4032L86.1473 80.669L86.0058 80.8104ZM80.6329 86.3196L86.1472 80.8105L86.0059 80.669L80.4915 86.1781L80.6329 86.3196ZM78.3619 84.1951L80.4916 86.3196L80.6329 86.178L78.5031 84.0535L78.3619 84.1951ZM77.769 84.9292L78.5032 84.195L78.3618 84.0536L77.6276 84.7878L77.769 84.9292ZM80.6329 87.6517L77.769 84.7878L77.6276 84.9292L80.4915 87.7931L80.6329 87.6517Z" fill="#176B87"></path><path fill-rule="evenodd" clip-rule="evenodd" d="M99.923 91.1539C103.662 91.1539 106.692 88.1232 106.692 84.3847C106.692 80.6461 103.662 77.6154 99.923 77.6154C96.1845 77.6154 93.1538 80.6461 93.1538 84.3847C93.1538 88.1232 96.1845 91.1539 99.923 91.1539ZM98.1006 87.7224L104.349 81.4739L103.615 80.7397L98.1006 86.2488L95.9708 84.1243L95.2366 84.8585L98.1006 87.7224Z" fill="url(#paint17_linear_2774_440)"></path><path d="M104.349 81.4739L104.42 81.5446L104.49 81.4739L104.42 81.4032L104.349 81.4739ZM98.1006 87.7224L98.0298 87.7931L98.1006 87.8639L98.1713 87.7931L98.1006 87.7224ZM103.615 80.7397L103.686 80.669L103.615 80.5983L103.544 80.669L103.615 80.7397ZM98.1006 86.2488L98.0299 86.3196L98.1006 86.3901L98.1712 86.3196L98.1006 86.2488ZM95.9708 84.1243L96.0415 84.0535L95.9708 83.983L95.9001 84.0536L95.9708 84.1243ZM95.2366 84.8585L95.1659 84.7878L95.0952 84.8585L95.1659 84.9292L95.2366 84.8585ZM106.592 84.3847C106.592 88.068 103.606 91.0539 99.923 91.0539V91.2539C103.717 91.2539 106.792 88.1784 106.792 84.3847H106.592ZM99.923 77.7154C103.606 77.7154 106.592 80.7013 106.592 84.3847H106.792C106.792 80.5909 103.717 77.5154 99.923 77.5154V77.7154ZM93.2538 84.3847C93.2538 80.7013 96.2397 77.7154 99.923 77.7154V77.5154C96.1293 77.5154 93.0538 80.5909 93.0538 84.3847H93.2538ZM99.923 91.0539C96.2397 91.0539 93.2538 88.068 93.2538 84.3847H93.0538C93.0538 88.1784 96.1293 91.2539 99.923 91.2539V91.0539ZM104.278 81.4032L98.0298 87.6517L98.1713 87.7931L104.42 81.5446L104.278 81.4032ZM103.544 80.8104L104.278 81.5446L104.42 81.4032L103.686 80.669L103.544 80.8104ZM98.1712 86.3196L103.686 80.8105L103.544 80.669L98.0299 86.1781L98.1712 86.3196ZM95.9002 84.1951L98.0299 86.3196L98.1712 86.178L96.0415 84.0535L95.9002 84.1951ZM95.3074 84.9292L96.0416 84.195L95.9001 84.0536L95.1659 84.7878L95.3074 84.9292ZM98.1713 87.6517L95.3074 84.7878L95.1659 84.9292L98.0298 87.7931L98.1713 87.6517Z" fill="#176B87"></path><path fill-rule="evenodd" clip-rule="evenodd" d="M29.7692 108.692C33.5078 108.692 36.5385 105.662 36.5385 101.923C36.5385 98.1846 33.5078 95.1539 29.7692 95.1539C26.0307 95.1539 23 98.1846 23 101.923C23 105.662 26.0307 108.692 29.7692 108.692ZM27.9467 105.261L34.1953 99.0125L33.4611 98.2783L27.9467 103.787L25.817 101.663L25.0828 102.397L27.9467 105.261Z" fill="url(#paint18_linear_2774_440)"></path><path d="M34.1953 99.0125L34.266 99.0832L34.3367 99.0125L34.266 98.9418L34.1953 99.0125ZM27.9467 105.261L27.876 105.332L27.9467 105.402L28.0175 105.332L27.9467 105.261ZM33.4611 98.2783L33.5318 98.2076L33.4611 98.1369L33.3904 98.2076L33.4611 98.2783ZM27.9467 103.787L27.8761 103.858L27.9468 103.929L28.0174 103.858L27.9467 103.787ZM25.817 101.663L25.8877 101.592L25.817 101.522L25.7463 101.592L25.817 101.663ZM25.0828 102.397L25.0121 102.326L24.9414 102.397L25.0121 102.468L25.0828 102.397ZM36.4385 101.923C36.4385 105.606 33.4525 108.592 29.7692 108.592V108.792C33.563 108.792 36.6385 105.717 36.6385 101.923H36.4385ZM29.7692 95.2539C33.4525 95.2539 36.4385 98.2398 36.4385 101.923H36.6385C36.6385 98.1293 33.563 95.0539 29.7692 95.0539V95.2539ZM23.1 101.923C23.1 98.2398 26.0859 95.2539 29.7692 95.2539V95.0539C25.9755 95.0539 22.9 98.1293 22.9 101.923H23.1ZM29.7692 108.592C26.0859 108.592 23.1 105.606 23.1 101.923H22.9C22.9 105.717 25.9755 108.792 29.7692 108.792V108.592ZM34.1246 98.9418L27.876 105.19L28.0175 105.332L34.266 99.0832L34.1246 98.9418ZM33.3904 98.349L34.1246 99.0832L34.266 98.9418L33.5318 98.2076L33.3904 98.349ZM28.0174 103.858L33.5317 98.3491L33.3904 98.2076L27.8761 103.717L28.0174 103.858ZM25.7464 101.734L27.8761 103.858L28.0174 103.717L25.8877 101.592L25.7464 101.734ZM25.1536 102.468L25.8878 101.734L25.7463 101.592L25.0121 102.326L25.1536 102.468ZM28.0175 105.19L25.1536 102.326L25.0121 102.468L27.876 105.332L28.0175 105.19Z" fill="#176B87"></path><path fill-rule="evenodd" clip-rule="evenodd" d="M47.3078 108.692C51.0463 108.692 54.077 105.662 54.077 101.923C54.077 98.1846 51.0463 95.1539 47.3078 95.1539C43.5693 95.1539 40.5386 98.1846 40.5386 101.923C40.5386 105.662 43.5693 108.692 47.3078 108.692ZM45.4853 105.261L51.7338 99.0125L50.9996 98.2783L45.4853 103.787L43.3556 101.663L42.6214 102.397L45.4853 105.261Z" fill="url(#paint19_linear_2774_440)"></path><path d="M51.7338 99.0125L51.8046 99.0832L51.8753 99.0125L51.8046 98.9418L51.7338 99.0125ZM45.4853 105.261L45.4146 105.332L45.4853 105.402L45.556 105.332L45.4853 105.261ZM50.9996 98.2783L51.0703 98.2076L50.9997 98.1369L50.929 98.2076L50.9996 98.2783ZM45.4853 103.787L45.4147 103.858L45.4854 103.929L45.556 103.858L45.4853 103.787ZM43.3556 101.663L43.4262 101.592L43.3555 101.522L43.2849 101.592L43.3556 101.663ZM42.6214 102.397L42.5507 102.326L42.48 102.397L42.5507 102.468L42.6214 102.397ZM53.977 101.923C53.977 105.606 50.9911 108.592 47.3078 108.592V108.792C51.1016 108.792 54.177 105.717 54.177 101.923H53.977ZM47.3078 95.2539C50.9911 95.2539 53.977 98.2398 53.977 101.923H54.177C54.177 98.1293 51.1016 95.0539 47.3078 95.0539V95.2539ZM40.6386 101.923C40.6386 98.2398 43.6245 95.2539 47.3078 95.2539V95.0539C43.514 95.0539 40.4386 98.1293 40.4386 101.923H40.6386ZM47.3078 108.592C43.6245 108.592 40.6386 105.606 40.6386 101.923H40.4386C40.4386 105.717 43.514 108.792 47.3078 108.792V108.592ZM51.6631 98.9418L45.4146 105.19L45.556 105.332L51.8046 99.0832L51.6631 98.9418ZM50.9289 98.349L51.6631 99.0832L51.8046 98.9418L51.0703 98.2076L50.9289 98.349ZM45.556 103.858L51.0703 98.3491L50.929 98.2076L45.4146 103.717L45.556 103.858ZM43.285 101.734L45.4147 103.858L45.5559 103.717L43.4262 101.592L43.285 101.734ZM42.6921 102.468L43.4263 101.734L43.2849 101.592L42.5507 102.326L42.6921 102.468ZM45.556 105.19L42.6921 102.326L42.5507 102.468L45.4146 105.332L45.556 105.19Z" fill="#176B87"></path><path fill-rule="evenodd" clip-rule="evenodd" d="M64.8461 108.692C68.5847 108.692 71.6154 105.662 71.6154 101.923C71.6154 98.1846 68.5847 95.1539 64.8461 95.1539C61.1076 95.1539 58.0769 98.1846 58.0769 101.923C58.0769 105.662 61.1076 108.692 64.8461 108.692ZM63.0237 105.261L69.2722 99.0125L68.538 98.2783L63.0237 103.787L60.8939 101.663L60.1597 102.397L63.0237 105.261Z" fill="url(#paint20_linear_2774_440)"></path><path d="M69.2722 99.0125L69.3429 99.0832L69.4136 99.0125L69.3429 98.9418L69.2722 99.0125ZM63.0237 105.261L62.9529 105.332L63.0237 105.402L63.0944 105.332L63.0237 105.261ZM68.538 98.2783L68.6087 98.2076L68.538 98.1369L68.4673 98.2076L68.538 98.2783ZM63.0237 103.787L62.953 103.858L63.0237 103.929L63.0943 103.858L63.0237 103.787ZM60.8939 101.663L60.9646 101.592L60.8939 101.522L60.8232 101.592L60.8939 101.663ZM60.1597 102.397L60.089 102.326L60.0183 102.397L60.089 102.468L60.1597 102.397ZM71.5154 101.923C71.5154 105.606 68.5294 108.592 64.8461 108.592V108.792C68.6399 108.792 71.7154 105.717 71.7154 101.923H71.5154ZM64.8461 95.2539C68.5294 95.2539 71.5154 98.2398 71.5154 101.923H71.7154C71.7154 98.1293 68.6399 95.0539 64.8461 95.0539V95.2539ZM58.1769 101.923C58.1769 98.2398 61.1628 95.2539 64.8461 95.2539V95.0539C61.0524 95.0539 57.9769 98.1293 57.9769 101.923H58.1769ZM64.8461 108.592C61.1628 108.592 58.1769 105.606 58.1769 101.923H57.9769C57.9769 105.717 61.0524 108.792 64.8461 108.792V108.592ZM69.2015 98.9418L62.9529 105.19L63.0944 105.332L69.3429 99.0832L69.2015 98.9418ZM68.4673 98.349L69.2015 99.0832L69.3429 98.9418L68.6087 98.2076L68.4673 98.349ZM63.0943 103.858L68.6086 98.3491L68.4673 98.2076L62.953 103.717L63.0943 103.858ZM60.8233 101.734L62.953 103.858L63.0943 103.717L60.9646 101.592L60.8233 101.734ZM60.2305 102.468L60.9647 101.734L60.8232 101.592L60.089 102.326L60.2305 102.468ZM63.0944 105.19L60.2305 102.326L60.089 102.468L62.9529 105.332L63.0944 105.19Z" fill="#176B87"></path><path d="M89.1539 101.923C89.1539 105.662 86.1233 108.692 82.3847 108.692C78.6462 108.692 75.6155 105.662 75.6155 101.923C75.6155 98.1846 78.6462 95.1539 82.3847 95.1539C86.1233 95.1539 89.1539 98.1846 89.1539 101.923Z" fill="#176B87"></path><path fill-rule="evenodd" clip-rule="evenodd" d="M99.923 108.692C103.662 108.692 106.692 105.662 106.692 101.923C106.692 98.1846 103.662 95.1539 99.923 95.1539C96.1845 95.1539 93.1538 98.1846 93.1538 101.923C93.1538 105.662 96.1845 108.692 99.923 108.692ZM98.1006 105.261L104.349 99.0125L103.615 98.2783L98.1006 103.787L95.9708 101.663L95.2366 102.397L98.1006 105.261Z" fill="url(#paint21_linear_2774_440)"></path><path d="M104.349 99.0125L104.42 99.0832L104.49 99.0125L104.42 98.9418L104.349 99.0125ZM98.1006 105.261L98.0298 105.332L98.1006 105.402L98.1713 105.332L98.1006 105.261ZM103.615 98.2783L103.686 98.2076L103.615 98.1369L103.544 98.2076L103.615 98.2783ZM98.1006 103.787L98.0299 103.858L98.1006 103.929L98.1712 103.858L98.1006 103.787ZM95.9708 101.663L96.0415 101.592L95.9708 101.522L95.9001 101.592L95.9708 101.663ZM95.2366 102.397L95.1659 102.326L95.0952 102.397L95.1659 102.468L95.2366 102.397ZM106.592 101.923C106.592 105.606 103.606 108.592 99.923 108.592V108.792C103.717 108.792 106.792 105.717 106.792 101.923H106.592ZM99.923 95.2539C103.606 95.2539 106.592 98.2398 106.592 101.923H106.792C106.792 98.1293 103.717 95.0539 99.923 95.0539V95.2539ZM93.2538 101.923C93.2538 98.2398 96.2397 95.2539 99.923 95.2539V95.0539C96.1293 95.0539 93.0538 98.1293 93.0538 101.923H93.2538ZM99.923 108.592C96.2397 108.592 93.2538 105.606 93.2538 101.923H93.0538C93.0538 105.717 96.1293 108.792 99.923 108.792V108.592ZM104.278 98.9418L98.0298 105.19L98.1713 105.332L104.42 99.0832L104.278 98.9418ZM103.544 98.349L104.278 99.0832L104.42 98.9418L103.686 98.2076L103.544 98.349ZM98.1712 103.858L103.686 98.3491L103.544 98.2076L98.0299 103.717L98.1712 103.858ZM95.9002 101.734L98.0299 103.858L98.1712 103.717L96.0415 101.592L95.9002 101.734ZM95.3074 102.468L96.0416 101.734L95.9001 101.592L95.1659 102.326L95.3074 102.468ZM98.1713 105.19L95.3074 102.326L95.1659 102.468L98.0298 105.332L98.1713 105.19Z" fill="#176B87"></path><rect opacity="0.3" x="206.545" y="51.8722" width="198.19" height="1.081" transform="rotate(143.788 206.545 51.8722)" fill="url(#paint22_linear_2774_440)"></rect></g><path d="M8 0.5H126C130.142 0.5 133.5 3.85786 133.5 8V126C133.5 130.142 130.142 133.5 126 133.5H8C3.85787 133.5 0.5 130.142 0.5 126V8C0.5 3.85787 3.85786 0.5 8 0.5Z" stroke="url(#paint23_linear_2774_440)"></path><defs><linearGradient id="paint0_linear_2774_440" x1="0" y1="0.596548" x2="102.29" y2="0.596548" gradientUnits="userSpaceOnUse"><stop offset="0.210354" stop-color="#176B87" stop-opacity="0"></stop><stop offset="0.505" stop-color="#176B87"></stop><stop offset="0.750345" stop-color="#176B87" stop-opacity="0"></stop></linearGradient><linearGradient id="paint1_linear_2774_440" x1="0" y1="0.772202" x2="95.3788" y2="0.772202" gradientUnits="userSpaceOnUse"><stop offset="0.210354" stop-color="#176B87" stop-opacity="0"></stop><stop offset="0.505" stop-color="#176B87"></stop><stop offset="0.750345" stop-color="#176B87" stop-opacity="0"></stop></linearGradient><linearGradient id="paint2_linear_2774_440" x1="29.7692" y1="25" x2="29.7692" y2="38.5385" gradientUnits="userSpaceOnUse"><stop stop-color="#07212A"></stop><stop offset="1" stop-color="#187190"></stop></linearGradient><linearGradient id="paint3_linear_2774_440" x1="64.8461" y1="25" x2="64.8461" y2="38.5385" gradientUnits="userSpaceOnUse"><stop stop-color="#07212A"></stop><stop offset="1" stop-color="#187190"></stop></linearGradient><linearGradient id="paint4_linear_2774_440" x1="82.3847" y1="25" x2="82.3847" y2="38.5385" gradientUnits="userSpaceOnUse"><stop stop-color="#07212A"></stop><stop offset="1" stop-color="#187190"></stop></linearGradient><linearGradient id="paint5_linear_2774_440" x1="99.923" y1="25" x2="99.923" y2="38.5385" gradientUnits="userSpaceOnUse"><stop stop-color="#07212A"></stop><stop offset="1" stop-color="#187190"></stop></linearGradient><linearGradient id="paint6_linear_2774_440" x1="29.7692" y1="42.5385" x2="29.7692" y2="56.077" gradientUnits="userSpaceOnUse"><stop stop-color="#07212A"></stop><stop offset="1" stop-color="#187190"></stop></linearGradient><linearGradient id="paint7_linear_2774_440" x1="47.3078" y1="42.5385" x2="47.3078" y2="56.077" gradientUnits="userSpaceOnUse"><stop stop-color="#07212A"></stop><stop offset="1" stop-color="#187190"></stop></linearGradient><linearGradient id="paint8_linear_2774_440" x1="64.8461" y1="42.5385" x2="64.8461" y2="56.077" gradientUnits="userSpaceOnUse"><stop stop-color="#07212A"></stop><stop offset="1" stop-color="#187190"></stop></linearGradient><linearGradient id="paint9_linear_2774_440" x1="82.3847" y1="42.5385" x2="82.3847" y2="56.077" gradientUnits="userSpaceOnUse"><stop stop-color="#07212A"></stop><stop offset="1" stop-color="#187190"></stop></linearGradient><linearGradient id="paint10_linear_2774_440" x1="99.923" y1="42.5385" x2="99.923" y2="56.077" gradientUnits="userSpaceOnUse"><stop stop-color="#07212A"></stop><stop offset="1" stop-color="#187190"></stop></linearGradient><linearGradient id="paint11_linear_2774_440" x1="29.7692" y1="60.077" x2="29.7692" y2="73.6154" gradientUnits="userSpaceOnUse"><stop stop-color="#07212A"></stop><stop offset="1" stop-color="#187190"></stop></linearGradient><linearGradient id="paint12_linear_2774_440" x1="47.3078" y1="60.077" x2="47.3078" y2="73.6154" gradientUnits="userSpaceOnUse"><stop stop-color="#07212A"></stop><stop offset="1" stop-color="#187190"></stop></linearGradient><linearGradient id="paint13_linear_2774_440" x1="82.3847" y1="60.077" x2="82.3847" y2="73.6154" gradientUnits="userSpaceOnUse"><stop stop-color="#07212A"></stop><stop offset="1" stop-color="#187190"></stop></linearGradient><linearGradient id="paint14_linear_2774_440" x1="99.923" y1="60.077" x2="99.923" y2="73.6154" gradientUnits="userSpaceOnUse"><stop stop-color="#07212A"></stop><stop offset="1" stop-color="#187190"></stop></linearGradient><linearGradient id="paint15_linear_2774_440" x1="29.7692" y1="77.6154" x2="29.7692" y2="91.1539" gradientUnits="userSpaceOnUse"><stop stop-color="#07212A"></stop><stop offset="1" stop-color="#187190"></stop></linearGradient><linearGradient id="paint16_linear_2774_440" x1="82.3847" y1="77.6154" x2="82.3847" y2="91.1539" gradientUnits="userSpaceOnUse"><stop stop-color="#07212A"></stop><stop offset="1" stop-color="#187190"></stop></linearGradient><linearGradient id="paint17_linear_2774_440" x1="99.923" y1="77.6154" x2="99.923" y2="91.1539" gradientUnits="userSpaceOnUse"><stop stop-color="#07212A"></stop><stop offset="1" stop-color="#187190"></stop></linearGradient><linearGradient id="paint18_linear_2774_440" x1="29.7692" y1="95.1539" x2="29.7692" y2="108.692" gradientUnits="userSpaceOnUse"><stop stop-color="#07212A"></stop><stop offset="1" stop-color="#187190"></stop></linearGradient><linearGradient id="paint19_linear_2774_440" x1="47.3078" y1="95.1539" x2="47.3078" y2="108.692" gradientUnits="userSpaceOnUse"><stop stop-color="#07212A"></stop><stop offset="1" stop-color="#187190"></stop></linearGradient><linearGradient id="paint20_linear_2774_440" x1="64.8461" y1="95.1539" x2="64.8461" y2="108.692" gradientUnits="userSpaceOnUse"><stop stop-color="#07212A"></stop><stop offset="1" stop-color="#187190"></stop></linearGradient><linearGradient id="paint21_linear_2774_440" x1="99.923" y1="95.1539" x2="99.923" y2="108.692" gradientUnits="userSpaceOnUse"><stop stop-color="#07212A"></stop><stop offset="1" stop-color="#187190"></stop></linearGradient><linearGradient id="paint22_linear_2774_440" x1="206.545" y1="52.4127" x2="404.736" y2="52.4127" gradientUnits="userSpaceOnUse"><stop offset="0.210354" stop-color="#176B87" stop-opacity="0"></stop><stop offset="0.505" stop-color="#176B87"></stop><stop offset="0.750345" stop-color="#176B87" stop-opacity="0"></stop></linearGradient><linearGradient id="paint23_linear_2774_440" x1="134" y1="67" x2="0" y2="67" gradientUnits="userSpaceOnUse"><stop offset="0.190327" stop-color="#176B87"></stop><stop offset="1" stop-color="#176B87" stop-opacity="0"></stop></linearGradient><clipPath id="clip0_2774_440"><path d="M0 8C0 3.58172 3.58172 0 8 0H126C130.418 0 134 3.58172 134 8V126C134 130.418 130.418 134 126 134H8C3.58172 134 0 130.418 0 126V8Z" fill="white"></path></clipPath></defs></svg> 