<?xml version="1.0" encoding="UTF-8"?> <svg xmlns="http://www.w3.org/2000/svg" width="805" height="165" viewBox="0 0 805 165" fill="none"><g clip-path="url(#clip0_2766_618)"><path d="M0 16C0 7.16345 7.16344 0 16 0H789C797.837 0 805 7.16344 805 16V165H0V16Z" fill="#00141B"></path><g opacity="0.05"><path d="M300.312 -85V248.75" stroke="#D9D9D9" stroke-width="0.267107"></path><path d="M315.003 -85V248.75" stroke="#D9D9D9" stroke-width="0.267107"></path><path d="M329.693 -85V248.75" stroke="#D9D9D9" stroke-width="0.267107"></path><path d="M344.384 -85V248.75" stroke="#D9D9D9" stroke-width="0.267107"></path><path d="M359.075 -85V248.75" stroke="#D9D9D9" stroke-width="0.267107"></path><path d="M373.766 -85V248.75" stroke="#D9D9D9" stroke-width="0.267107"></path><path d="M388.457 -85V248.75" stroke="#D9D9D9" stroke-width="0.267107"></path><path d="M403.148 -85V248.75" stroke="#D9D9D9" stroke-width="0.267107"></path><path d="M417.839 -85V248.75" stroke="#D9D9D9" stroke-width="0.267107"></path><path d="M432.53 -85V248.75" stroke="#D9D9D9" stroke-width="0.267107"></path><path d="M447.22 -85V248.75" stroke="#D9D9D9" stroke-width="0.267107"></path><path d="M461.911 -85V248.75" stroke="#D9D9D9" stroke-width="0.267107"></path><path d="M476.602 -85V248.75" stroke="#D9D9D9" stroke-width="0.267107"></path><path d="M491.293 -85V248.75" stroke="#D9D9D9" stroke-width="0.267107"></path><path d="M505.984 -85V248.75" stroke="#D9D9D9" stroke-width="0.267107"></path><path d="M520.675 -85V248.75" stroke="#D9D9D9" stroke-width="0.267107"></path><path d="M535.366 -85V248.75" stroke="#D9D9D9" stroke-width="0.267107"></path><path d="M550.057 -85V248.75" stroke="#D9D9D9" stroke-width="0.267107"></path><path d="M564.747 -85V248.75" stroke="#D9D9D9" stroke-width="0.267107"></path><path d="M579.438 -85V248.75" stroke="#D9D9D9" stroke-width="0.267107"></path><path d="M606.75 1.0752L273 1.07518" stroke="#D9D9D9" stroke-width="0.267107"></path><path d="M606.75 15.7661L273 15.7661" stroke="#D9D9D9" stroke-width="0.267107"></path><path d="M606.75 30.4569L273 30.4569" stroke="#D9D9D9" stroke-width="0.267107"></path><path d="M606.75 45.1478L273 45.1478" stroke="#D9D9D9" stroke-width="0.267107"></path><path d="M606.75 59.8386L273 59.8386" stroke="#D9D9D9" stroke-width="0.267107"></path><path d="M606.75 74.5295L273 74.5295" stroke="#D9D9D9" stroke-width="0.267107"></path><path d="M606.75 89.2205L273 89.2204" stroke="#D9D9D9" stroke-width="0.267107"></path><path d="M606.75 103.911L273 103.911" stroke="#D9D9D9" stroke-width="0.267107"></path><path d="M606.75 118.602L273 118.602" stroke="#D9D9D9" stroke-width="0.267107"></path><path d="M606.75 133.293L273 133.293" stroke="#D9D9D9" stroke-width="0.267107"></path><path d="M606.75 147.984L273 147.984" stroke="#D9D9D9" stroke-width="0.267107"></path><path d="M606.75 162.675L273 162.675" stroke="#D9D9D9" stroke-width="0.267107"></path></g><g opacity="0.05"><path d="M0.311646 -85V248.75" stroke="#D9D9D9" stroke-width="0.267107"></path><path d="M15.0026 -85V248.75" stroke="#D9D9D9" stroke-width="0.267107"></path><path d="M29.6935 -85V248.75" stroke="#D9D9D9" stroke-width="0.267107"></path><path d="M44.3843 -85V248.75" stroke="#D9D9D9" stroke-width="0.267107"></path><path d="M59.0752 -85V248.75" stroke="#D9D9D9" stroke-width="0.267107"></path><path d="M73.7661 -85V248.75" stroke="#D9D9D9" stroke-width="0.267107"></path><path d="M88.4569 -85V248.75" stroke="#D9D9D9" stroke-width="0.267107"></path><path d="M103.148 -85V248.75" stroke="#D9D9D9" stroke-width="0.267107"></path><path d="M117.839 -85V248.75" stroke="#D9D9D9" stroke-width="0.267107"></path><path d="M132.53 -85V248.75" stroke="#D9D9D9" stroke-width="0.267107"></path><path d="M147.22 -85V248.75" stroke="#D9D9D9" stroke-width="0.267107"></path><path d="M161.911 -85V248.75" stroke="#D9D9D9" stroke-width="0.267107"></path><path d="M176.602 -85V248.75" stroke="#D9D9D9" stroke-width="0.267107"></path><path d="M191.293 -85V248.75" stroke="#D9D9D9" stroke-width="0.267107"></path><path d="M205.984 -85V248.75" stroke="#D9D9D9" stroke-width="0.267107"></path><path d="M220.675 -85V248.75" stroke="#D9D9D9" stroke-width="0.267107"></path><path d="M235.366 -85V248.75" stroke="#D9D9D9" stroke-width="0.267107"></path><path d="M250.057 -85V248.75" stroke="#D9D9D9" stroke-width="0.267107"></path><path d="M264.747 -85V248.75" stroke="#D9D9D9" stroke-width="0.267107"></path><path d="M279.438 -85V248.75" stroke="#D9D9D9" stroke-width="0.267107"></path><path d="M306.75 1.0752L-27 1.07518" stroke="#D9D9D9" stroke-width="0.267107"></path><path d="M306.75 15.7661L-27 15.7661" stroke="#D9D9D9" stroke-width="0.267107"></path><path d="M306.75 30.4569L-27 30.4569" stroke="#D9D9D9" stroke-width="0.267107"></path><path d="M306.75 45.1478L-27 45.1478" stroke="#D9D9D9" stroke-width="0.267107"></path><path d="M306.75 59.8386L-27 59.8386" stroke="#D9D9D9" stroke-width="0.267107"></path><path d="M306.75 74.5295L-27 74.5295" stroke="#D9D9D9" stroke-width="0.267107"></path><path d="M306.75 89.2205L-27 89.2204" stroke="#D9D9D9" stroke-width="0.267107"></path><path d="M306.75 103.911L-27 103.911" stroke="#D9D9D9" stroke-width="0.267107"></path><path d="M306.75 118.602L-27 118.602" stroke="#D9D9D9" stroke-width="0.267107"></path><path d="M306.75 133.293L-27 133.293" stroke="#D9D9D9" stroke-width="0.267107"></path><path d="M306.75 147.984L-27 147.984" stroke="#D9D9D9" stroke-width="0.267107"></path><path d="M306.75 162.675L-27 162.675" stroke="#D9D9D9" stroke-width="0.267107"></path></g><g opacity="0.05"><path d="M579.312 -85V248.75" stroke="#D9D9D9" stroke-width="0.267107"></path><path d="M594.003 -85V248.75" stroke="#D9D9D9" stroke-width="0.267107"></path><path d="M608.693 -85V248.75" stroke="#D9D9D9" stroke-width="0.267107"></path><path d="M623.384 -85V248.75" stroke="#D9D9D9" stroke-width="0.267107"></path><path d="M638.075 -85V248.75" stroke="#D9D9D9" stroke-width="0.267107"></path><path d="M652.766 -85V248.75" stroke="#D9D9D9" stroke-width="0.267107"></path><path d="M667.457 -85V248.75" stroke="#D9D9D9" stroke-width="0.267107"></path><path d="M682.148 -85V248.75" stroke="#D9D9D9" stroke-width="0.267107"></path><path d="M696.839 -85V248.75" stroke="#D9D9D9" stroke-width="0.267107"></path><path d="M711.53 -85V248.75" stroke="#D9D9D9" stroke-width="0.267107"></path><path d="M726.22 -85V248.75" stroke="#D9D9D9" stroke-width="0.267107"></path><path d="M740.911 -85V248.75" stroke="#D9D9D9" stroke-width="0.267107"></path><path d="M755.602 -85V248.75" stroke="#D9D9D9" stroke-width="0.267107"></path><path d="M770.293 -85V248.75" stroke="#D9D9D9" stroke-width="0.267107"></path><path d="M784.984 -85V248.75" stroke="#D9D9D9" stroke-width="0.267107"></path><path d="M799.675 -85V248.75" stroke="#D9D9D9" stroke-width="0.267107"></path><path d="M885.75 1.0752L552 1.07518" stroke="#D9D9D9" stroke-width="0.267107"></path><path d="M885.75 15.7661L552 15.7661" stroke="#D9D9D9" stroke-width="0.267107"></path><path d="M885.75 30.4569L552 30.4569" stroke="#D9D9D9" stroke-width="0.267107"></path><path d="M885.75 45.1478L552 45.1478" stroke="#D9D9D9" stroke-width="0.267107"></path><path d="M885.75 59.8386L552 59.8386" stroke="#D9D9D9" stroke-width="0.267107"></path><path d="M885.75 74.5295L552 74.5295" stroke="#D9D9D9" stroke-width="0.267107"></path><path d="M885.75 89.2205L552 89.2204" stroke="#D9D9D9" stroke-width="0.267107"></path><path d="M885.75 103.911L552 103.911" stroke="#D9D9D9" stroke-width="0.267107"></path><path d="M885.75 118.602L552 118.602" stroke="#D9D9D9" stroke-width="0.267107"></path><path d="M885.75 133.293L552 133.293" stroke="#D9D9D9" stroke-width="0.267107"></path><path d="M885.75 147.984L552 147.984" stroke="#D9D9D9" stroke-width="0.267107"></path><path d="M885.75 162.675L552 162.675" stroke="#D9D9D9" stroke-width="0.267107"></path></g><rect x="93.2162" y="127.216" width="10.5676" height="16.5676" fill="url(#paint0_linear_2766_618)" stroke="#176B87" stroke-width="0.432432"></rect><rect x="109.405" y="120.216" width="11.5676" height="23.5676" fill="url(#paint1_linear_2766_618)" stroke="#176B87" stroke-width="0.432432"></rect><rect x="126.595" y="114.216" width="10.5676" height="29.5676" fill="url(#paint2_linear_2766_618)" stroke="#176B87" stroke-width="0.432432"></rect><rect x="142.784" y="120.216" width="11.5676" height="23.5676" fill="url(#paint3_linear_2766_618)" stroke="#176B87" stroke-width="0.432432"></rect><rect x="159.973" y="110.216" width="10.5676" height="33.5676" fill="url(#paint4_linear_2766_618)" stroke="#176B87" stroke-width="0.432432"></rect><rect x="176.162" y="93.2162" width="10.5676" height="50.5676" fill="url(#paint5_linear_2766_618)" stroke="#176B87" stroke-width="0.432432"></rect><rect x="192.351" y="120.216" width="10.5676" height="23.5676" fill="url(#paint6_linear_2766_618)" stroke="#176B87" stroke-width="0.432432"></rect><rect x="208.541" y="88.2162" width="10.5676" height="55.5676" fill="url(#paint7_linear_2766_618)" stroke="#176B87" stroke-width="0.432432"></rect><rect x="224.73" y="88.2162" width="11.5676" height="55.5676" fill="url(#paint8_linear_2766_618)" stroke="#176B87" stroke-width="0.432432"></rect><rect x="241.919" y="100.216" width="10.5676" height="43.5676" fill="url(#paint9_linear_2766_618)" stroke="#176B87" stroke-width="0.432432"></rect><rect x="258.108" y="110.216" width="11.5676" height="33.5676" fill="url(#paint10_linear_2766_618)" stroke="#176B87" stroke-width="0.432432"></rect><rect x="275.297" y="97.2162" width="10.5676" height="46.5676" fill="url(#paint11_linear_2766_618)" stroke="#176B87" stroke-width="0.432432"></rect><rect x="291.486" y="84.2162" width="10.5676" height="59.5676" fill="url(#paint12_linear_2766_618)" stroke="#176B87" stroke-width="0.432432"></rect><rect x="307.676" y="120.216" width="11.5676" height="23.5676" fill="url(#paint13_linear_2766_618)" stroke="#176B87" stroke-width="0.432432"></rect><rect x="324.865" y="84.2162" width="10.5676" height="59.5676" fill="url(#paint14_linear_2766_618)" stroke="#176B87" stroke-width="0.432432"></rect><rect x="341.054" y="108.216" width="10.5676" height="35.5676" fill="url(#paint15_linear_2766_618)" stroke="#176B87" stroke-width="0.432432"></rect><rect x="357.243" y="84.2162" width="11.5676" height="59.5676" fill="url(#paint16_linear_2766_618)" stroke="#176B87" stroke-width="0.432432"></rect><rect x="374.433" y="97.2162" width="10.5676" height="46.5676" fill="url(#paint17_linear_2766_618)" stroke="#176B87" stroke-width="0.432432"></rect><rect x="390.622" y="72.2162" width="10.5676" height="71.5676" fill="url(#paint18_linear_2766_618)" stroke="#176B87" stroke-width="0.432432"></rect><rect x="406.811" y="93.2162" width="10.5676" height="50.5676" fill="url(#paint19_linear_2766_618)" stroke="#176B87" stroke-width="0.432432"></rect><rect x="423" y="88.2162" width="10.5676" height="55.5676" fill="url(#paint20_linear_2766_618)" stroke="#176B87" stroke-width="0.432432"></rect><rect x="439.189" y="93.2162" width="10.5676" height="50.5676" fill="url(#paint21_linear_2766_618)" stroke="#176B87" stroke-width="0.432432"></rect><rect x="455.378" y="112.216" width="10.5676" height="31.5676" fill="url(#paint22_linear_2766_618)" stroke="#176B87" stroke-width="0.432432"></rect><rect x="471.568" y="93.2162" width="10.5676" height="50.5676" fill="url(#paint23_linear_2766_618)" stroke="#176B87" stroke-width="0.432432"></rect><rect x="487.757" y="64.2162" width="10.5676" height="79.5676" fill="url(#paint24_linear_2766_618)" stroke="#176B87" stroke-width="0.432432"></rect><rect x="503.946" y="84.2162" width="11.5676" height="59.5676" fill="url(#paint25_linear_2766_618)" stroke="#176B87" stroke-width="0.432432"></rect><rect x="521.135" y="97.2162" width="10.5676" height="46.5676" fill="url(#paint26_linear_2766_618)" stroke="#176B87" stroke-width="0.432432"></rect><rect x="537.324" y="69.2162" width="10.5676" height="74.5676" fill="url(#paint27_linear_2766_618)" stroke="#176B87" stroke-width="0.432432"></rect><rect x="553.513" y="46.2162" width="10.5676" height="97.5676" fill="url(#paint28_linear_2766_618)" stroke="#176B87" stroke-width="0.432432"></rect><rect x="569.703" y="91.2162" width="11.5676" height="52.5676" fill="url(#paint29_linear_2766_618)" stroke="#176B87" stroke-width="0.432432"></rect><rect x="586.892" y="72.2162" width="10.5676" height="71.5676" fill="url(#paint30_linear_2766_618)" stroke="#176B87" stroke-width="0.432432"></rect><rect x="603.081" y="34.2162" width="10.5676" height="109.568" fill="url(#paint31_linear_2766_618)" stroke="#176B87" stroke-width="0.432432"></rect><rect x="619.27" y="97.2162" width="10.5676" height="46.5676" fill="url(#paint32_linear_2766_618)" stroke="#176B87" stroke-width="0.432432"></rect><rect x="635.459" y="72.2162" width="10.5676" height="71.5676" fill="url(#paint33_linear_2766_618)" stroke="#176B87" stroke-width="0.432432"></rect><rect x="651.649" y="64.2162" width="10.5676" height="79.5676" fill="url(#paint34_linear_2766_618)" stroke="#176B87" stroke-width="0.432432"></rect><rect x="667.838" y="84.2162" width="11.5676" height="59.5676" fill="url(#paint35_linear_2766_618)" stroke="#176B87" stroke-width="0.432432"></rect><rect x="685.027" y="97.2162" width="10.5676" height="46.5676" fill="url(#paint36_linear_2766_618)" stroke="#176B87" stroke-width="0.432432"></rect><rect x="701.216" y="54.2162" width="10.5676" height="89.5676" fill="url(#paint37_linear_2766_618)" stroke="#176B87" stroke-width="0.432432"></rect><path d="M104.062 43.82L104.046 43.6855L103.919 43.6366C103.638 43.528 103.374 43.398 103.128 43.2467C102.874 43.0913 102.625 42.9246 102.381 42.7468L102.277 42.6713L102.159 42.7212L98.3178 44.3432L94.7959 38.2296L98.1219 35.6984L98.2277 35.6178L98.209 35.4861C98.1878 35.3371 98.1774 35.195 98.1774 35.0597V34.1417C98.1774 34.0054 98.1878 33.8629 98.209 33.7139L98.2277 33.5822L98.1219 33.5016L94.7959 30.9704L98.3178 24.8568L102.159 26.4788L102.277 26.5288L102.381 26.453C102.623 26.2763 102.876 26.1104 103.14 25.9555C103.403 25.8016 103.664 25.6702 103.925 25.5611L104.046 25.5103L104.062 25.38L104.579 21.2267H111.621L112.138 25.38L112.154 25.5145L112.281 25.5634C112.562 25.672 112.826 25.8021 113.074 25.9534C113.328 26.1088 113.577 26.2752 113.819 26.4528L113.922 26.5289L114.041 26.4788L117.882 24.8568L121.404 30.9704L118.078 33.5016L117.972 33.5822L117.991 33.7139C118.012 33.8629 118.023 34.0054 118.023 34.1417V35.0583C118.023 35.1829 118.004 35.3152 117.964 35.456L117.921 35.6047L118.044 35.6984L121.37 38.2296L117.849 44.3427L114.042 42.7215L113.923 42.671L113.819 42.747C113.577 42.9237 113.324 43.0896 113.06 43.2445C112.797 43.3984 112.536 43.5297 112.275 43.6389L112.154 43.6897L112.138 43.82L111.621 47.9733H104.579L104.062 43.82ZM108.168 39.5867C109.536 39.5867 110.71 39.0979 111.678 38.1259C112.645 37.1539 113.131 35.9744 113.131 34.6C113.131 33.2256 112.645 32.0461 111.678 31.0741C110.71 30.1021 109.536 29.6133 108.168 29.6133C106.778 29.6133 105.597 30.1014 104.639 31.0751C103.683 32.0472 103.204 33.2266 103.205 34.6002C103.206 35.9736 103.685 37.1527 104.64 38.1248C105.597 39.0986 106.778 39.5867 108.168 39.5867Z" fill="url(#paint38_radial_2766_618)" stroke="#176B87" stroke-width="0.453333"></path><path d="M144.274 53.3617L144.384 53.2824L144.366 53.148C144.335 52.9144 144.325 52.6847 144.336 52.4587C144.347 52.2247 144.368 51.9897 144.398 51.7537L144.415 51.6266L144.314 51.5471L141.759 49.5239L144.619 44.8233L147.604 46.1517L147.726 46.2058L147.832 46.1261C147.926 46.0559 148.019 45.9958 148.111 45.9455L148.748 45.5961C148.84 45.5454 148.941 45.4992 149.051 45.4579L149.175 45.411L149.195 45.2795L149.68 42.0484L155.181 42.1645L155.513 45.4068L155.526 45.5345L155.642 45.589C155.856 45.6889 156.066 45.8006 156.272 45.9243C156.477 46.0469 156.666 46.1774 156.84 46.3154L156.942 46.3972L157.065 46.3488L160.105 45.1419L162.746 49.9574L160.093 51.8724L159.983 51.9517L160.001 52.0861C160.032 52.3198 160.042 52.5499 160.032 52.7767C160.021 53.011 160 53.2453 159.969 53.4796L159.952 53.6071L160.053 53.687L162.608 55.7102L159.748 60.4108L156.763 59.0823L156.642 59.0283L156.535 59.108C156.441 59.1782 156.348 59.2384 156.256 59.2891L155.62 59.638C155.537 59.6831 155.442 59.7188 155.333 59.7438L155.182 59.7782L155.159 59.9311L154.674 63.1622L149.174 63.0462L148.854 59.8279L148.842 59.6997L148.725 59.6451C148.512 59.5452 148.302 59.4334 148.095 59.3098C147.89 59.1871 147.701 59.0567 147.528 58.9187L147.425 58.8368L147.303 58.8853L144.262 60.0921L141.622 55.2767L144.274 53.3617ZM148.706 54.5847C149.233 55.5458 150.03 56.183 151.085 56.4879C152.14 56.7927 153.156 56.6797 154.121 56.1506C155.086 55.6215 155.728 54.8251 156.038 53.7718C156.348 52.7185 156.239 51.7044 155.712 50.7433C155.177 49.7676 154.379 49.1252 153.326 48.8276C152.275 48.5306 151.262 48.6482 150.298 49.1775C149.334 49.7068 148.69 50.4986 148.375 51.5435C148.059 52.5906 148.171 53.609 148.706 54.5847Z" fill="url(#paint39_radial_2766_618)" stroke="#176B87" stroke-width="0.453333"></path><path d="M121.523 66.89L121.503 66.733L121.356 66.6759C121.028 66.5493 120.72 66.3976 120.432 66.2211C120.136 66.0397 119.846 65.8453 119.561 65.6378L119.44 65.5498L119.302 65.608L114.821 67.5004L110.712 60.3678L114.592 57.4147L114.716 57.3207L114.694 57.1671C114.669 56.9932 114.657 56.8274 114.657 56.6696V55.5986C114.657 55.4396 114.669 55.2733 114.694 55.0995L114.716 54.9458L114.592 54.8518L110.712 51.8987L114.821 44.7661L119.302 46.6586L119.44 46.7168L119.561 46.6284C119.843 46.4222 120.138 46.2288 120.447 46.0481C120.753 45.8685 121.058 45.7152 121.362 45.5879L121.504 45.5287L121.523 45.3766L122.125 40.531H130.341L130.944 45.3766L130.964 45.5336L131.111 45.5906C131.439 45.7173 131.747 45.869 132.036 46.0456C132.333 46.2268 132.623 46.421 132.905 46.6282L133.026 46.7169L133.164 46.6586L137.646 44.7661L141.755 51.8987L137.875 54.8518L137.751 54.9458L137.773 55.0995C137.798 55.2733 137.81 55.4396 137.81 55.5986V56.668C137.81 56.8133 137.788 56.9677 137.741 57.132L137.692 57.3055L137.835 57.4147L141.715 60.3678L137.607 67.4998L133.165 65.6083L133.027 65.5494L132.906 65.6381C132.623 65.8443 132.328 66.0378 132.02 66.2185C131.714 66.398 131.409 66.5513 131.104 66.6787L130.963 66.7379L130.944 66.89L130.341 71.7355H122.125L121.523 66.89ZM126.312 61.951C127.909 61.951 129.279 61.3808 130.407 60.2468C131.536 59.1129 132.102 57.7367 132.102 56.1333C132.102 54.5298 131.536 53.1537 130.407 52.0197C129.279 50.8858 127.909 50.3155 126.312 50.3155C124.691 50.3155 123.313 50.8849 122.196 52.0209C121.08 53.1551 120.521 54.5309 120.522 56.1335C120.523 57.7358 121.083 59.1115 122.197 60.2456C123.313 61.3816 124.691 61.951 126.312 61.951Z" fill="url(#paint40_radial_2766_618)" stroke="#176B87" stroke-width="0.528889"></path></g><path d="M0.5 16C0.5 7.43959 7.43959 0.5 16 0.5H789C797.56 0.5 804.5 7.43959 804.5 16V164.5H0.5V16Z" stroke="url(#paint41_linear_2766_618)"></path><defs><linearGradient id="paint0_linear_2766_618" x1="98.5" y1="127" x2="98.5" y2="144" gradientUnits="userSpaceOnUse"><stop stop-color="#07212A"></stop><stop offset="1" stop-color="#187190"></stop></linearGradient><linearGradient id="paint1_linear_2766_618" x1="115.189" y1="120" x2="115.189" y2="144" gradientUnits="userSpaceOnUse"><stop stop-color="#07212A"></stop><stop offset="1" stop-color="#187190"></stop></linearGradient><linearGradient id="paint2_linear_2766_618" x1="131.878" y1="114" x2="131.878" y2="144" gradientUnits="userSpaceOnUse"><stop stop-color="#07212A"></stop><stop offset="1" stop-color="#187190"></stop></linearGradient><linearGradient id="paint3_linear_2766_618" x1="148.568" y1="120" x2="148.568" y2="144" gradientUnits="userSpaceOnUse"><stop stop-color="#07212A"></stop><stop offset="1" stop-color="#187190"></stop></linearGradient><linearGradient id="paint4_linear_2766_618" x1="165.257" y1="110" x2="165.257" y2="144" gradientUnits="userSpaceOnUse"><stop stop-color="#07212A"></stop><stop offset="1" stop-color="#187190"></stop></linearGradient><linearGradient id="paint5_linear_2766_618" x1="181.446" y1="93" x2="181.446" y2="144" gradientUnits="userSpaceOnUse"><stop stop-color="#07212A"></stop><stop offset="1" stop-color="#187190"></stop></linearGradient><linearGradient id="paint6_linear_2766_618" x1="197.635" y1="120" x2="197.635" y2="144" gradientUnits="userSpaceOnUse"><stop stop-color="#07212A"></stop><stop offset="1" stop-color="#187190"></stop></linearGradient><linearGradient id="paint7_linear_2766_618" x1="213.824" y1="88" x2="213.824" y2="144" gradientUnits="userSpaceOnUse"><stop stop-color="#07212A"></stop><stop offset="1" stop-color="#187190"></stop></linearGradient><linearGradient id="paint8_linear_2766_618" x1="230.514" y1="88" x2="230.514" y2="144" gradientUnits="userSpaceOnUse"><stop stop-color="#07212A"></stop><stop offset="1" stop-color="#187190"></stop></linearGradient><linearGradient id="paint9_linear_2766_618" x1="247.203" y1="100" x2="247.203" y2="144" gradientUnits="userSpaceOnUse"><stop stop-color="#07212A"></stop><stop offset="1" stop-color="#187190"></stop></linearGradient><linearGradient id="paint10_linear_2766_618" x1="263.892" y1="110" x2="263.892" y2="144" gradientUnits="userSpaceOnUse"><stop stop-color="#07212A"></stop><stop offset="1" stop-color="#187190"></stop></linearGradient><linearGradient id="paint11_linear_2766_618" x1="280.581" y1="97" x2="280.581" y2="144" gradientUnits="userSpaceOnUse"><stop stop-color="#07212A"></stop><stop offset="1" stop-color="#187190"></stop></linearGradient><linearGradient id="paint12_linear_2766_618" x1="296.77" y1="84" x2="296.77" y2="144" gradientUnits="userSpaceOnUse"><stop stop-color="#07212A"></stop><stop offset="1" stop-color="#187190"></stop></linearGradient><linearGradient id="paint13_linear_2766_618" x1="313.459" y1="120" x2="313.459" y2="144" gradientUnits="userSpaceOnUse"><stop stop-color="#07212A"></stop><stop offset="1" stop-color="#187190"></stop></linearGradient><linearGradient id="paint14_linear_2766_618" x1="330.149" y1="84" x2="330.149" y2="144" gradientUnits="userSpaceOnUse"><stop stop-color="#07212A"></stop><stop offset="1" stop-color="#187190"></stop></linearGradient><linearGradient id="paint15_linear_2766_618" x1="346.338" y1="108" x2="346.338" y2="144" gradientUnits="userSpaceOnUse"><stop stop-color="#07212A"></stop><stop offset="1" stop-color="#187190"></stop></linearGradient><linearGradient id="paint16_linear_2766_618" x1="363.027" y1="84" x2="363.027" y2="144" gradientUnits="userSpaceOnUse"><stop stop-color="#07212A"></stop><stop offset="1" stop-color="#187190"></stop></linearGradient><linearGradient id="paint17_linear_2766_618" x1="379.716" y1="97" x2="379.716" y2="144" gradientUnits="userSpaceOnUse"><stop stop-color="#07212A"></stop><stop offset="1" stop-color="#187190"></stop></linearGradient><linearGradient id="paint18_linear_2766_618" x1="395.905" y1="72" x2="395.905" y2="144" gradientUnits="userSpaceOnUse"><stop stop-color="#07212A"></stop><stop offset="1" stop-color="#187190"></stop></linearGradient><linearGradient id="paint19_linear_2766_618" x1="412.095" y1="93" x2="412.095" y2="144" gradientUnits="userSpaceOnUse"><stop stop-color="#07212A"></stop><stop offset="1" stop-color="#187190"></stop></linearGradient><linearGradient id="paint20_linear_2766_618" x1="428.284" y1="88" x2="428.284" y2="144" gradientUnits="userSpaceOnUse"><stop stop-color="#07212A"></stop><stop offset="1" stop-color="#187190"></stop></linearGradient><linearGradient id="paint21_linear_2766_618" x1="444.473" y1="93" x2="444.473" y2="144" gradientUnits="userSpaceOnUse"><stop stop-color="#07212A"></stop><stop offset="1" stop-color="#187190"></stop></linearGradient><linearGradient id="paint22_linear_2766_618" x1="460.662" y1="112" x2="460.662" y2="144" gradientUnits="userSpaceOnUse"><stop stop-color="#07212A"></stop><stop offset="1" stop-color="#187190"></stop></linearGradient><linearGradient id="paint23_linear_2766_618" x1="476.851" y1="93" x2="476.851" y2="144" gradientUnits="userSpaceOnUse"><stop stop-color="#07212A"></stop><stop offset="1" stop-color="#187190"></stop></linearGradient><linearGradient id="paint24_linear_2766_618" x1="493.041" y1="64" x2="493.041" y2="144" gradientUnits="userSpaceOnUse"><stop stop-color="#07212A"></stop><stop offset="1" stop-color="#187190"></stop></linearGradient><linearGradient id="paint25_linear_2766_618" x1="509.73" y1="84" x2="509.73" y2="144" gradientUnits="userSpaceOnUse"><stop stop-color="#07212A"></stop><stop offset="1" stop-color="#187190"></stop></linearGradient><linearGradient id="paint26_linear_2766_618" x1="526.419" y1="97" x2="526.419" y2="144" gradientUnits="userSpaceOnUse"><stop stop-color="#07212A"></stop><stop offset="1" stop-color="#187190"></stop></linearGradient><linearGradient id="paint27_linear_2766_618" x1="542.608" y1="69" x2="542.608" y2="144" gradientUnits="userSpaceOnUse"><stop stop-color="#07212A"></stop><stop offset="1" stop-color="#187190"></stop></linearGradient><linearGradient id="paint28_linear_2766_618" x1="558.797" y1="46" x2="558.797" y2="144" gradientUnits="userSpaceOnUse"><stop stop-color="#07212A"></stop><stop offset="1" stop-color="#187190"></stop></linearGradient><linearGradient id="paint29_linear_2766_618" x1="575.486" y1="91" x2="575.486" y2="144" gradientUnits="userSpaceOnUse"><stop stop-color="#07212A"></stop><stop offset="1" stop-color="#187190"></stop></linearGradient><linearGradient id="paint30_linear_2766_618" x1="592.176" y1="72" x2="592.176" y2="144" gradientUnits="userSpaceOnUse"><stop stop-color="#07212A"></stop><stop offset="1" stop-color="#187190"></stop></linearGradient><linearGradient id="paint31_linear_2766_618" x1="608.365" y1="34" x2="608.365" y2="144" gradientUnits="userSpaceOnUse"><stop stop-color="#07212A"></stop><stop offset="1" stop-color="#187190"></stop></linearGradient><linearGradient id="paint32_linear_2766_618" x1="624.554" y1="97" x2="624.554" y2="144" gradientUnits="userSpaceOnUse"><stop stop-color="#07212A"></stop><stop offset="1" stop-color="#187190"></stop></linearGradient><linearGradient id="paint33_linear_2766_618" x1="640.743" y1="72" x2="640.743" y2="144" gradientUnits="userSpaceOnUse"><stop stop-color="#07212A"></stop><stop offset="1" stop-color="#187190"></stop></linearGradient><linearGradient id="paint34_linear_2766_618" x1="656.932" y1="64" x2="656.932" y2="144" gradientUnits="userSpaceOnUse"><stop stop-color="#07212A"></stop><stop offset="1" stop-color="#187190"></stop></linearGradient><linearGradient id="paint35_linear_2766_618" x1="673.622" y1="84" x2="673.622" y2="144" gradientUnits="userSpaceOnUse"><stop stop-color="#07212A"></stop><stop offset="1" stop-color="#187190"></stop></linearGradient><linearGradient id="paint36_linear_2766_618" x1="690.311" y1="97" x2="690.311" y2="144" gradientUnits="userSpaceOnUse"><stop stop-color="#07212A"></stop><stop offset="1" stop-color="#187190"></stop></linearGradient><linearGradient id="paint37_linear_2766_618" x1="706.5" y1="54" x2="706.5" y2="144" gradientUnits="userSpaceOnUse"><stop stop-color="#07212A"></stop><stop offset="1" stop-color="#187190"></stop></linearGradient><radialGradient id="paint38_radial_2766_618" cx="0" cy="0" r="1" gradientUnits="userSpaceOnUse" gradientTransform="translate(108.1 34.6) rotate(90) scale(13.6)"><stop stop-color="#07212A"></stop><stop offset="1" stop-color="#187190"></stop></radialGradient><radialGradient id="paint39_radial_2766_618" cx="0" cy="0" r="1" gradientUnits="userSpaceOnUse" gradientTransform="translate(152.184 52.617) rotate(151.264) scale(10.7667)"><stop stop-color="#07212A"></stop><stop offset="1" stop-color="#187190"></stop></radialGradient><radialGradient id="paint40_radial_2766_618" cx="0" cy="0" r="1" gradientUnits="userSpaceOnUse" gradientTransform="translate(126.233 56.1333) rotate(90) scale(15.8667)"><stop stop-color="#07212A"></stop><stop offset="1" stop-color="#187190"></stop></radialGradient><linearGradient id="paint41_linear_2766_618" x1="402.5" y1="0" x2="402.5" y2="165" gradientUnits="userSpaceOnUse"><stop offset="0.190327" stop-color="#176B87"></stop><stop offset="1" stop-color="#176B87" stop-opacity="0"></stop></linearGradient><clipPath id="clip0_2766_618"><path d="M0 16C0 7.16345 7.16344 0 16 0H789C797.837 0 805 7.16344 805 16V165H0V16Z" fill="white"></path></clipPath></defs></svg> 