<?xml version="1.0" encoding="UTF-8"?> <svg xmlns="http://www.w3.org/2000/svg" width="290" height="178" viewBox="0 0 290 178" fill="none"><g clip-path="url(#clip0_2789_390)"><path d="M0 18.0253C0 8.0702 8.07021 0 18.0253 0H271.506C281.461 0 289.532 8.07021 289.532 18.0253V178H0V18.0253Z" fill="#00141B"></path><g opacity="0.05"><path d="M3.66431 -98.8575V277.139" stroke="#D9D9D9" stroke-width="0.300918"></path><path d="M20.2148 -98.8575V277.139" stroke="#D9D9D9" stroke-width="0.300918"></path><path d="M36.7653 -98.8575V277.139" stroke="#D9D9D9" stroke-width="0.300918"></path><path d="M53.3158 -98.8575V277.139" stroke="#D9D9D9" stroke-width="0.300918"></path><path d="M69.8663 -98.8575V277.139" stroke="#D9D9D9" stroke-width="0.300918"></path><path d="M86.4167 -98.8575V277.139" stroke="#D9D9D9" stroke-width="0.300918"></path><path d="M102.967 -98.8575V277.139" stroke="#D9D9D9" stroke-width="0.300918"></path><path d="M119.518 -98.8575V277.139" stroke="#D9D9D9" stroke-width="0.300918"></path><path d="M136.068 -98.8575V277.139" stroke="#D9D9D9" stroke-width="0.300918"></path><path d="M152.619 -98.8575V277.139" stroke="#D9D9D9" stroke-width="0.300918"></path><path d="M169.169 -98.8575V277.139" stroke="#D9D9D9" stroke-width="0.300918"></path><path d="M185.72 -98.8575V277.139" stroke="#D9D9D9" stroke-width="0.300918"></path><path d="M202.27 -98.8575V277.139" stroke="#D9D9D9" stroke-width="0.300918"></path><path d="M218.821 -98.8575V277.139" stroke="#D9D9D9" stroke-width="0.300918"></path><path d="M235.371 -98.8575V277.139" stroke="#D9D9D9" stroke-width="0.300918"></path><path d="M251.922 -98.8575V277.139" stroke="#D9D9D9" stroke-width="0.300918"></path><path d="M268.472 -98.8575V277.139" stroke="#D9D9D9" stroke-width="0.300918"></path><path d="M285.022 -98.8575V277.139" stroke="#D9D9D9" stroke-width="0.300918"></path><path d="M332.342 14.6638L-43.655 14.6638" stroke="#D9D9D9" stroke-width="0.300918"></path><path d="M332.342 31.2143L-43.655 31.2143" stroke="#D9D9D9" stroke-width="0.300918"></path><path d="M332.342 47.7646L-43.655 47.7645" stroke="#D9D9D9" stroke-width="0.300918"></path><path d="M332.342 64.3151L-43.655 64.3151" stroke="#D9D9D9" stroke-width="0.300918"></path><path d="M332.342 80.8656L-43.655 80.8656" stroke="#D9D9D9" stroke-width="0.300918"></path><path d="M332.342 97.4162L-43.655 97.4162" stroke="#D9D9D9" stroke-width="0.300918"></path><path d="M332.342 113.967L-43.655 113.967" stroke="#D9D9D9" stroke-width="0.300918"></path><path d="M332.342 130.517L-43.655 130.517" stroke="#D9D9D9" stroke-width="0.300918"></path><path d="M332.342 147.067L-43.655 147.067" stroke="#D9D9D9" stroke-width="0.300918"></path><path d="M332.342 163.618L-43.655 163.618" stroke="#D9D9D9" stroke-width="0.300918"></path></g><circle cx="146.98" cy="56.7143" r="21.3061" fill="#176B87" stroke="#3291B0" stroke-width="1.18367"></circle><g filter="url(#filter0_d_2789_390)"><path d="M147.123 42.1629C147.746 42.1629 148.344 42.4106 148.785 42.8515C149.226 43.2924 149.474 43.8904 149.474 44.5139C149.474 45.3838 149.004 46.1479 148.298 46.5476V48.0405H149.474C151.656 48.0405 153.749 48.9074 155.292 50.4506C156.836 51.9938 157.702 54.0868 157.702 56.2691H158.878C159.19 56.2691 159.489 56.393 159.709 56.6134C159.93 56.8339 160.053 57.1329 160.053 57.4447V60.9712C160.053 61.283 159.93 61.582 159.709 61.8025C159.489 62.0229 159.19 62.1468 158.878 62.1468H157.702V63.3223C157.702 63.9458 157.455 64.5438 157.014 64.9847C156.573 65.4256 155.975 65.6733 155.351 65.6733H138.894C138.271 65.6733 137.673 65.4256 137.232 64.9847C136.791 64.5438 136.543 63.9458 136.543 63.3223V62.1468H135.368C135.056 62.1468 134.757 62.0229 134.536 61.8025C134.316 61.582 134.192 61.283 134.192 60.9712V57.4447C134.192 57.1329 134.316 56.8339 134.536 56.6134C134.757 56.393 135.056 56.2691 135.368 56.2691H136.543C136.543 54.0868 137.41 51.9938 138.953 50.4506C140.496 48.9074 142.589 48.0405 144.772 48.0405H145.947V46.5476C145.242 46.1479 144.772 45.3838 144.772 44.5139C144.772 43.8904 145.019 43.2924 145.46 42.8515C145.901 42.4106 146.499 42.1629 147.123 42.1629ZM141.833 55.0936C141.053 55.0936 140.306 55.4032 139.755 55.9544C139.204 56.5055 138.894 57.253 138.894 58.0324C138.894 58.8118 139.204 59.5593 139.755 60.1105C140.306 60.6616 141.053 60.9712 141.833 60.9712C142.612 60.9712 143.36 60.6616 143.911 60.1105C144.462 59.5593 144.772 58.8118 144.772 58.0324C144.772 57.253 144.462 56.5055 143.911 55.9544C143.36 55.4032 142.612 55.0936 141.833 55.0936ZM152.413 55.0936C151.633 55.0936 150.886 55.4032 150.335 55.9544C149.783 56.5055 149.474 57.253 149.474 58.0324C149.474 58.8118 149.783 59.5593 150.335 60.1105C150.886 60.6616 151.633 60.9712 152.413 60.9712C153.192 60.9712 153.94 60.6616 154.491 60.1105C155.042 59.5593 155.351 58.8118 155.351 58.0324C155.351 57.253 155.042 56.5055 154.491 55.9544C153.94 55.4032 153.192 55.0936 152.413 55.0936Z" fill="url(#paint0_linear_2789_390)"></path></g><circle cx="198.98" cy="120.714" r="21.3061" fill="#176B87" stroke="#3291B0" stroke-width="1.18367"></circle><g filter="url(#filter1_d_2789_390)"><path d="M202.372 112.847C201.511 111.983 200.308 111.508 198.98 111.508C197.645 111.508 196.438 111.98 195.581 112.839C194.714 113.706 194.292 114.885 194.391 116.159C194.588 118.671 196.646 120.714 198.98 120.714C201.314 120.714 203.369 118.671 203.569 116.159C203.669 114.898 203.244 113.721 202.372 112.847ZM206.77 129.92H191.191C190.987 129.923 190.785 129.883 190.599 129.804C190.414 129.725 190.25 129.608 190.119 129.463C189.832 129.144 189.716 128.708 189.802 128.267C190.175 126.342 191.341 124.726 193.173 123.591C194.801 122.584 196.863 122.029 198.98 122.029C201.097 122.029 203.159 122.584 204.787 123.591C206.62 124.725 207.785 126.342 208.159 128.266C208.245 128.707 208.129 129.143 207.841 129.463C207.71 129.608 207.547 129.725 207.361 129.804C207.176 129.883 206.974 129.923 206.77 129.92Z" fill="url(#paint1_linear_2789_390)"></path></g><circle cx="90.9802" cy="120.624" r="21.3061" fill="#176B87" stroke="#3291B0" stroke-width="1.18367"></circle><g filter="url(#filter2_d_2789_390)"><path d="M101.327 112.608C101.348 112.481 101.336 112.35 101.291 112.229C101.246 112.109 101.171 112.002 101.072 111.919C100.973 111.836 100.855 111.781 100.728 111.758C100.601 111.735 100.47 111.746 100.349 111.789L79.6347 119.187C79.4982 119.236 79.379 119.324 79.2919 119.44C79.2048 119.556 79.1536 119.694 79.1448 119.839C79.136 119.984 79.1699 120.128 79.2422 120.254C79.3146 120.379 79.4223 120.481 79.5519 120.546L85.4703 123.505C85.5869 123.563 85.7169 123.59 85.8471 123.582C85.9772 123.574 86.103 123.531 86.2115 123.459L91.1238 120.183L88.1838 123.861C88.1199 123.941 88.0732 124.034 88.0468 124.133C88.0205 124.232 88.015 124.335 88.0307 124.437C88.0464 124.538 88.083 124.635 88.1382 124.721C88.1933 124.808 88.2658 124.882 88.351 124.939L97.2286 130.857C97.3314 130.925 97.4496 130.967 97.5726 130.978C97.6956 130.989 97.8193 130.969 97.9326 130.92C98.0458 130.87 98.145 130.794 98.221 130.696C98.297 130.599 98.3475 130.484 98.3679 130.363L101.327 112.608Z" fill="url(#paint2_linear_2789_390)"></path></g><path d="M104.266 103.449L133.715 74" stroke="#3291B0"></path><path d="M188.266 102L160.266 74" stroke="#3291B0"></path><rect y="90.1266" width="289.532" height="87.8734" fill="url(#paint3_linear_2789_390)"></rect></g><path d="M18.0253 0.563291H271.506C281.15 0.563291 288.968 8.38131 288.968 18.0253V177.437H0.563291V18.0253C0.563291 8.3813 8.38131 0.563291 18.0253 0.563291Z" stroke="url(#paint4_linear_2789_390)" stroke-width="1.12658"></path><defs><filter id="filter0_d_2789_390" x="132.86" y="42.1628" width="28.5247" height="26.44" filterUnits="userSpaceOnUse" color-interpolation-filters="sRGB"><feFlood flood-opacity="0" result="BackgroundImageFix"></feFlood><feColorMatrix in="SourceAlpha" type="matrix" values="0 0 0 0 0 0 0 0 0 0 0 0 0 0 0 0 0 0 127 0" result="hardAlpha"></feColorMatrix><feOffset dy="1.59796"></feOffset><feGaussianBlur stdDeviation="0.665816"></feGaussianBlur><feComposite in2="hardAlpha" operator="out"></feComposite><feColorMatrix type="matrix" values="0 0 0 0 0 0 0 0 0 0 0 0 0 0 0 0 0 0 0.25 0"></feColorMatrix><feBlend mode="normal" in2="BackgroundImageFix" result="effect1_dropShadow_2789_390"></feBlend><feBlend mode="normal" in="SourceGraphic" in2="effect1_dropShadow_2789_390" result="shape"></feBlend></filter><filter id="filter1_d_2789_390" x="188.442" y="111.508" width="21.076" height="21.3423" filterUnits="userSpaceOnUse" color-interpolation-filters="sRGB"><feFlood flood-opacity="0" result="BackgroundImageFix"></feFlood><feColorMatrix in="SourceAlpha" type="matrix" values="0 0 0 0 0 0 0 0 0 0 0 0 0 0 0 0 0 0 127 0" result="hardAlpha"></feColorMatrix><feOffset dy="1.59796"></feOffset><feGaussianBlur stdDeviation="0.665816"></feGaussianBlur><feComposite in2="hardAlpha" operator="out"></feComposite><feColorMatrix type="matrix" values="0 0 0 0 0 0 0 0 0 0 0 0 0 0 0 0 0 0 0.25 0"></feColorMatrix><feBlend mode="normal" in2="BackgroundImageFix" result="effect1_dropShadow_2789_390"></feBlend><feBlend mode="normal" in="SourceGraphic" in2="effect1_dropShadow_2789_390" result="shape"></feBlend></filter><filter id="filter2_d_2789_390" x="77.8118" y="111.746" width="24.8569" height="22.1637" filterUnits="userSpaceOnUse" color-interpolation-filters="sRGB"><feFlood flood-opacity="0" result="BackgroundImageFix"></feFlood><feColorMatrix in="SourceAlpha" type="matrix" values="0 0 0 0 0 0 0 0 0 0 0 0 0 0 0 0 0 0 127 0" result="hardAlpha"></feColorMatrix><feOffset dy="1.59796"></feOffset><feGaussianBlur stdDeviation="0.665816"></feGaussianBlur><feComposite in2="hardAlpha" operator="out"></feComposite><feColorMatrix type="matrix" values="0 0 0 0 0 0 0 0 0 0 0 0 0 0 0 0 0 0 0.25 0"></feColorMatrix><feBlend mode="normal" in2="BackgroundImageFix" result="effect1_dropShadow_2789_390"></feBlend><feBlend mode="normal" in="SourceGraphic" in2="effect1_dropShadow_2789_390" result="shape"></feBlend></filter><linearGradient id="paint0_linear_2789_390" x1="147.123" y1="42.1629" x2="147.123" y2="65.6733" gradientUnits="userSpaceOnUse"><stop stop-color="#061A21"></stop><stop offset="0.385" stop-color="#0F5167"></stop><stop offset="0.645" stop-color="#09303D"></stop><stop offset="1" stop-color="#04181F"></stop></linearGradient><linearGradient id="paint1_linear_2789_390" x1="198.98" y1="111.508" x2="198.98" y2="129.92" gradientUnits="userSpaceOnUse"><stop stop-color="#061A21"></stop><stop offset="0.385" stop-color="#0F5167"></stop><stop offset="0.645" stop-color="#09303D"></stop><stop offset="1" stop-color="#04181F"></stop></linearGradient><linearGradient id="paint2_linear_2789_390" x1="90.2402" y1="111.747" x2="90.2402" y2="130.981" gradientUnits="userSpaceOnUse"><stop stop-color="#061A21"></stop><stop offset="0.385" stop-color="#0F5167"></stop><stop offset="0.645" stop-color="#09303D"></stop><stop offset="1" stop-color="#04181F"></stop></linearGradient><linearGradient id="paint3_linear_2789_390" x1="144.766" y1="178" x2="144.766" y2="90.1266" gradientUnits="userSpaceOnUse"><stop stop-color="#021117"></stop><stop offset="1" stop-color="#07212A" stop-opacity="0"></stop></linearGradient><linearGradient id="paint4_linear_2789_390" x1="144.766" y1="0" x2="144.766" y2="178" gradientUnits="userSpaceOnUse"><stop offset="0.190327" stop-color="#176B87"></stop><stop offset="1" stop-color="#176B87" stop-opacity="0"></stop></linearGradient><clipPath id="clip0_2789_390"><path d="M0 18.0253C0 8.0702 8.07021 0 18.0253 0H271.506C281.461 0 289.532 8.07021 289.532 18.0253V178H0V18.0253Z" fill="white"></path></clipPath></defs></svg> 