<?xml version="1.0" encoding="UTF-8"?> <svg xmlns="http://www.w3.org/2000/svg" width="256" height="492" viewBox="0 0 256 492" fill="none"><g clip-path="url(#clip0_2766_791)"><path d="M0 16C0 7.16346 7.16344 0 16 0H240C248.837 0 256 7.16344 256 16V492H0V16Z" fill="#00141B"></path><g filter="url(#filter0_f_2766_791)"><circle cx="128" cy="249" r="105" fill="#174C5D"></circle></g><g opacity="0.05"><path d="M23.0935 -16V514.25" stroke="#D9D9D9" stroke-width="0.42437"></path><path d="M46.4338 -16V514.25" stroke="#D9D9D9" stroke-width="0.42437"></path><path d="M69.7742 -16V514.25" stroke="#D9D9D9" stroke-width="0.42437"></path><path d="M93.1145 -16V514.25" stroke="#D9D9D9" stroke-width="0.42437"></path><path d="M116.455 -16V514.25" stroke="#D9D9D9" stroke-width="0.42437"></path><path d="M139.795 -16V514.25" stroke="#D9D9D9" stroke-width="0.42437"></path><path d="M163.135 -16V514.25" stroke="#D9D9D9" stroke-width="0.42437"></path><path d="M186.476 -16V514.25" stroke="#D9D9D9" stroke-width="0.42437"></path><path d="M209.816 -16V514.25" stroke="#D9D9D9" stroke-width="0.42437"></path><path d="M233.156 -16V514.25" stroke="#D9D9D9" stroke-width="0.42437"></path><path d="M393.25 27.3918L-137 27.3918" stroke="#D9D9D9" stroke-width="0.42437"></path><path d="M393.25 50.7322L-137 50.7322" stroke="#D9D9D9" stroke-width="0.42437"></path><path d="M393.25 74.0725L-137 74.0725" stroke="#D9D9D9" stroke-width="0.42437"></path><path d="M393.25 97.4128L-137 97.4128" stroke="#D9D9D9" stroke-width="0.42437"></path><path d="M393.25 120.753L-137 120.753" stroke="#D9D9D9" stroke-width="0.42437"></path><path d="M393.25 144.094L-137 144.093" stroke="#D9D9D9" stroke-width="0.42437"></path><path d="M393.25 167.434L-137 167.434" stroke="#D9D9D9" stroke-width="0.42437"></path><path d="M393.25 190.774L-137 190.774" stroke="#D9D9D9" stroke-width="0.42437"></path><path d="M393.25 214.115L-137 214.114" stroke="#D9D9D9" stroke-width="0.42437"></path><path d="M393.25 237.455L-137 237.455" stroke="#D9D9D9" stroke-width="0.42437"></path><path d="M393.25 260.795L-137 260.795" stroke="#D9D9D9" stroke-width="0.42437"></path><path d="M393.25 284.135L-137 284.135" stroke="#D9D9D9" stroke-width="0.42437"></path><path d="M393.25 307.476L-137 307.476" stroke="#D9D9D9" stroke-width="0.42437"></path><path d="M393.25 330.816L-137 330.816" stroke="#D9D9D9" stroke-width="0.42437"></path><path d="M393.25 354.156L-137 354.156" stroke="#D9D9D9" stroke-width="0.42437"></path><path d="M393.25 377.497L-137 377.497" stroke="#D9D9D9" stroke-width="0.42437"></path><path d="M393.25 400.837L-137 400.837" stroke="#D9D9D9" stroke-width="0.42437"></path><path d="M393.25 424.177L-137 424.177" stroke="#D9D9D9" stroke-width="0.42437"></path><path d="M393.25 447.518L-137 447.518" stroke="#D9D9D9" stroke-width="0.42437"></path><path d="M393.25 470.858L-137 470.858" stroke="#D9D9D9" stroke-width="0.42437"></path></g><circle cx="128" cy="246" r="67.8031" fill="url(#paint0_radial_2766_791)"></circle><path fill-rule="evenodd" clip-rule="evenodd" d="M128 325C171.63 325 207 289.63 207 246C207 202.37 171.63 167 128 167C84.3695 167 49 202.37 49 246C49 289.63 84.3695 325 128 325ZM128 318.78C168.195 318.78 200.78 286.195 200.78 246C200.78 205.805 168.195 173.22 128 173.22C87.805 173.22 55.2205 205.805 55.2205 246C55.2205 286.195 87.805 318.78 128 318.78Z" fill="#144658"></path><path fill-rule="evenodd" clip-rule="evenodd" d="M128 318.78C168.195 318.78 200.78 286.195 200.78 246C200.78 205.805 168.195 173.22 128 173.22C87.805 173.22 55.2205 205.805 55.2205 246C55.2205 286.195 87.805 318.78 128 318.78ZM128 311.937C164.416 311.937 193.937 282.416 193.937 246C193.937 209.584 164.416 180.063 128 180.063C91.584 180.063 62.063 209.584 62.063 246C62.063 282.416 91.584 311.937 128 311.937Z" fill="url(#paint1_linear_2766_791)"></path><g opacity="0.23"><path d="M193.626 246C193.626 282.244 164.244 311.626 128 311.626C91.7558 311.626 62.374 282.244 62.374 246C62.374 209.756 91.7558 180.374 128 180.374C164.244 180.374 193.626 209.756 193.626 246Z" stroke="#9BE5FF" stroke-width="0.622047"></path><path d="M193.937 246H185.85" stroke="#9BE5FF" stroke-width="1.86614"></path><path d="M191.026 265.433L183.298 263.054" stroke="#9BE5FF" stroke-width="1.86614"></path><path d="M182.539 283.067L175.847 278.528" stroke="#9BE5FF" stroke-width="1.86614"></path><path d="M169.14 297.531L164.079 291.225" stroke="#9BE5FF" stroke-width="1.86614"></path><path d="M152.11 307.39L149.128 299.873" stroke="#9BE5FF" stroke-width="1.86614"></path><path d="M132.929 311.755L132.306 303.693" stroke="#9BE5FF" stroke-width="1.86614"></path><path d="M113.072 310.24L114.889 302.36" stroke="#9BE5FF" stroke-width="1.86614"></path><path d="M94.8196 302.993L98.8813 296" stroke="#9BE5FF" stroke-width="1.86614"></path><path d="M79.504 290.675L85.4461 285.19" stroke="#9BE5FF" stroke-width="1.86614"></path><path d="M68.5147 274.481L75.8013 270.975" stroke="#9BE5FF" stroke-width="1.86614"></path><path d="M62.7686 255.68L70.7687 254.501" stroke="#9BE5FF" stroke-width="1.86614"></path><path d="M62.8432 235.825L70.8341 237.066" stroke="#9BE5FF" stroke-width="1.86614"></path><path d="M68.7465 217.04L76.0069 220.601" stroke="#9BE5FF" stroke-width="1.86614"></path><path d="M79.762 201.046L85.664 206.574" stroke="#9BE5FF" stroke-width="1.86614"></path><path d="M95.2394 188.764L99.2494 195.786" stroke="#9BE5FF" stroke-width="1.86614"></path><path d="M113.396 181.685L115.153 189.579" stroke="#9BE5FF" stroke-width="1.86614"></path><path d="M133.619 180.299L132.934 188.356" stroke="#9BE5FF" stroke-width="1.86614"></path><path d="M152.706 184.848L149.667 192.342" stroke="#9BE5FF" stroke-width="1.86614"></path><path d="M169.536 194.787L164.428 201.056" stroke="#9BE5FF" stroke-width="1.86614"></path><path d="M182.854 209.399L176.129 213.889" stroke="#9BE5FF" stroke-width="1.86614"></path><path d="M191.24 227.272L183.485 229.564" stroke="#9BE5FF" stroke-width="1.86614"></path></g><mask id="path-59-inside-1_2766_791" fill="white"><path d="M144.986 323.152C163.807 319.009 180.464 308.128 191.822 292.56C203.179 276.991 208.455 257.808 206.655 238.621C204.854 219.434 196.103 201.566 182.048 188.382C167.992 175.198 149.602 167.605 130.339 167.035C111.077 166.464 92.2695 172.954 77.4582 185.283C62.6469 197.612 52.8531 214.93 49.9202 233.977C46.9874 253.024 51.1178 272.486 61.534 288.7C71.9502 304.914 87.9337 316.761 106.476 322.011L107.422 318.671C89.6946 313.651 74.4135 302.324 64.4551 286.823C54.4967 271.322 50.5479 252.715 53.3518 234.506C56.1558 216.296 65.5192 199.739 79.6795 187.952C93.8398 176.164 111.82 169.96 130.237 170.505C148.653 171.051 166.235 178.309 179.672 190.914C193.11 203.519 201.477 220.601 203.198 238.945C204.919 257.289 199.875 275.629 189.017 290.514C178.158 305.398 162.233 315.8 144.24 319.761L141.5 322L144.986 323.152Z"></path></mask><path d="M144.986 323.152L143.731 326.95L144.774 327.295L145.846 327.059L144.986 323.152ZM106.476 322.011L105.386 325.86L109.235 326.95L110.325 323.101L106.476 322.011ZM107.422 318.671L111.271 319.76L112.36 315.912L108.512 314.822L107.422 318.671ZM144.24 319.761L143.38 315.855L142.448 316.06L141.709 316.664L144.24 319.761ZM141.5 322L138.969 318.902L133.328 323.512L140.245 325.798L141.5 322ZM145.846 327.059C165.62 322.705 183.12 311.274 195.053 294.917L188.59 290.202C177.807 304.983 161.994 315.312 144.126 319.246L145.846 327.059ZM195.053 294.917C206.986 278.56 212.528 258.406 210.637 238.247L202.672 238.994C204.381 257.21 199.373 275.422 188.59 290.202L195.053 294.917ZM210.637 238.247C208.746 218.089 199.551 199.317 184.784 185.465L179.311 191.299C192.655 203.816 200.963 220.779 202.672 238.994L210.637 238.247ZM184.784 185.465C170.017 171.613 150.696 163.636 130.458 163.036L130.221 171.033C148.509 171.575 165.967 178.782 179.311 191.299L184.784 185.465ZM130.458 163.036C110.22 162.437 90.4603 169.256 74.8991 182.209L80.0173 188.358C94.0786 176.653 111.934 170.491 130.221 171.033L130.458 163.036ZM74.8991 182.209C59.3379 195.162 49.0482 213.357 45.9668 233.368L53.8736 234.586C56.658 216.504 65.9559 200.062 80.0173 188.358L74.8991 182.209ZM45.9668 233.368C42.8854 253.38 47.225 273.827 58.1686 290.862L64.8993 286.538C55.0105 271.145 51.0893 252.668 53.8736 234.586L45.9668 233.368ZM58.1686 290.862C69.1122 307.897 85.905 320.344 105.386 325.86L107.566 318.163C89.9624 313.178 74.7881 301.931 64.8993 286.538L58.1686 290.862ZM110.325 323.101L111.271 319.76L103.573 317.581L102.627 320.922L110.325 323.101ZM108.512 314.822C91.7233 310.068 77.2515 299.341 67.8205 284.661L61.0898 288.985C71.5756 305.307 87.666 317.234 106.332 322.519L108.512 314.822ZM67.8205 284.661C58.3895 269.981 54.6498 252.36 57.3052 235.114L49.3984 233.897C46.4459 253.071 50.604 272.663 61.0898 288.985L67.8205 284.661ZM57.3052 235.114C59.9607 217.869 68.8282 202.189 82.2386 191.026L77.1204 184.878C62.2101 197.289 52.3509 214.723 49.3984 233.897L57.3052 235.114ZM82.2386 191.026C95.649 179.863 112.677 173.987 130.118 174.503L130.355 166.507C110.964 165.932 92.0307 172.466 77.1204 184.878L82.2386 191.026ZM130.118 174.503C147.559 175.02 164.21 181.894 176.936 193.832L182.409 187.997C168.26 174.724 149.747 167.081 130.355 166.507L130.118 174.503ZM176.936 193.832C189.662 205.769 197.585 221.946 199.215 239.319L207.18 238.571C205.368 219.256 196.558 201.269 182.409 187.997L176.936 193.832ZM199.215 239.319C200.845 256.691 196.069 274.06 185.785 288.156L192.248 292.871C203.682 277.198 208.992 257.887 207.18 238.571L199.215 239.319ZM185.785 288.156C175.502 302.252 160.42 312.103 143.38 315.855L145.1 323.668C164.046 319.497 180.814 308.544 192.248 292.871L185.785 288.156ZM141.709 316.664L138.969 318.902L144.031 325.098L146.771 322.859L141.709 316.664ZM140.245 325.798L143.731 326.95L146.242 319.354L142.755 318.202L140.245 325.798Z" fill="url(#paint2_linear_2766_791)" mask="url(#path-59-inside-1_2766_791)"></path><g filter="url(#filter1_d_2766_791)"><path d="M98.1417 245.571C98.1417 244.588 98.2145 243.709 98.3601 242.935C98.5265 242.161 98.7864 241.46 99.14 240.833C99.5143 240.184 100.003 239.588 100.606 239.044C101.23 238.479 102.01 237.946 102.946 237.443C103.923 236.92 104.734 236.481 105.379 236.125C106.045 235.749 106.575 235.435 106.97 235.184C107.365 234.933 107.635 234.692 107.781 234.462C107.947 234.211 108.031 233.939 108.031 233.646C108.031 233.249 107.937 232.904 107.75 232.611C107.563 232.318 107.292 232.098 106.939 231.952C106.585 231.784 106.149 231.701 105.629 231.701C105.213 231.701 104.818 231.753 104.443 231.858C104.069 231.962 103.705 232.119 103.351 232.328C103.019 232.537 102.696 232.789 102.384 233.081C102.072 233.353 101.76 233.667 101.448 234.023L98.2977 230.32C98.6512 229.964 99.0984 229.609 99.6391 229.253C100.201 228.897 100.835 228.583 101.542 228.311C102.249 228.019 103.019 227.788 103.85 227.621C104.703 227.433 105.587 227.339 106.502 227.339C107.999 227.339 109.258 227.569 110.277 228.029C111.317 228.468 112.107 229.096 112.648 229.912C113.188 230.728 113.459 231.69 113.459 232.799C113.459 233.51 113.344 234.138 113.115 234.682C112.907 235.205 112.627 235.676 112.273 236.094C111.92 236.512 111.514 236.889 111.057 237.224C110.62 237.558 110.183 237.862 109.746 238.134C109.247 238.385 108.779 238.636 108.343 238.887C107.906 239.117 107.5 239.347 107.126 239.577C106.752 239.787 106.398 240.017 106.065 240.268C105.753 240.498 105.452 240.759 105.161 241.052H113.802V245.571H98.1417Z" fill="#5CAEC8"></path><path d="M124.286 249.557V245.257H115.707V240.77L125.877 227.652H129.277V240.738H132.022V245.257H129.277V249.557H124.286ZM120.636 240.738H124.879V235.184L120.636 240.738Z" fill="#5CAEC8"></path><path d="M145.132 244.647L129.379 266.928H123.857L139.611 244.647H145.132Z" fill="#5CAEC8"></path><path d="M156.218 253.183H146.89V248.601H164.079L153.16 270.882H147.514L156.218 253.183Z" fill="#5CAEC8"></path></g></g><path d="M0.5 16C0.5 7.4396 7.43959 0.5 16 0.5H240C248.56 0.5 255.5 7.43959 255.5 16V491.5H0.5V16Z" stroke="url(#paint3_linear_2766_791)"></path><defs><filter id="filter0_f_2766_791" x="-61" y="60" width="378" height="378" filterUnits="userSpaceOnUse" color-interpolation-filters="sRGB"><feFlood flood-opacity="0" result="BackgroundImageFix"></feFlood><feBlend mode="normal" in="SourceGraphic" in2="BackgroundImageFix" result="shape"></feBlend><feGaussianBlur stdDeviation="42" result="effect1_foregroundBlur_2766_791"></feGaussianBlur></filter><filter id="filter1_d_2766_791" x="95.6535" y="227.339" width="70.9134" height="48.5197" filterUnits="userSpaceOnUse" color-interpolation-filters="sRGB"><feFlood flood-opacity="0" result="BackgroundImageFix"></feFlood><feColorMatrix in="SourceAlpha" type="matrix" values="0 0 0 0 0 0 0 0 0 0 0 0 0 0 0 0 0 0 127 0" result="hardAlpha"></feColorMatrix><feOffset dy="2.48819"></feOffset><feGaussianBlur stdDeviation="1.24409"></feGaussianBlur><feComposite in2="hardAlpha" operator="out"></feComposite><feColorMatrix type="matrix" values="0 0 0 0 0 0 0 0 0 0 0 0 0 0 0 0 0 0 0.25 0"></feColorMatrix><feBlend mode="normal" in2="BackgroundImageFix" result="effect1_dropShadow_2766_791"></feBlend><feBlend mode="normal" in="SourceGraphic" in2="effect1_dropShadow_2766_791" result="shape"></feBlend></filter><radialGradient id="paint0_radial_2766_791" cx="0" cy="0" r="1" gradientUnits="userSpaceOnUse" gradientTransform="translate(128 246) rotate(90) scale(67.8031 61.4684)"><stop stop-color="#082832"></stop><stop offset="1" stop-color="#1F5E72"></stop></radialGradient><linearGradient id="paint1_linear_2766_791" x1="147.905" y1="194.992" x2="65.1732" y2="350.193" gradientUnits="userSpaceOnUse"><stop stop-color="#08222B"></stop><stop offset="1" stop-color="#0B3D4F"></stop></linearGradient><linearGradient id="paint2_linear_2766_791" x1="42" y1="166" x2="144.986" y2="323.152" gradientUnits="userSpaceOnUse"><stop stop-color="#05212B" stop-opacity="0"></stop><stop offset="1" stop-color="#05212B"></stop></linearGradient><linearGradient id="paint3_linear_2766_791" x1="128" y1="0" x2="128" y2="492" gradientUnits="userSpaceOnUse"><stop offset="0.190327" stop-color="#176B87"></stop><stop offset="1" stop-color="#176B87" stop-opacity="0"></stop></linearGradient><clipPath id="clip0_2766_791"><path d="M0 16C0 7.16346 7.16344 0 16 0H240C248.837 0 256 7.16344 256 16V492H0V16Z" fill="white"></path></clipPath></defs></svg> 