<?xml version="1.0" encoding="UTF-8"?> <svg xmlns="http://www.w3.org/2000/svg" width="290" height="178" viewBox="0 0 290 178" fill="none"><g clip-path="url(#clip0_2789_122)"><path d="M0 18.0253C0 8.0702 8.07021 0 18.0253 0H271.506C281.461 0 289.532 8.07021 289.532 18.0253V178H0V18.0253Z" fill="#00141B"></path><g opacity="0.2" filter="url(#filter0_d_2789_122)"><ellipse cx="143.266" cy="89" rx="107" ry="99" fill="url(#paint0_radial_2789_122)"></ellipse></g><g opacity="0.2" filter="url(#filter1_d_2789_122)"><ellipse cx="143.266" cy="89" rx="77" ry="71" fill="url(#paint1_radial_2789_122)"></ellipse></g><g opacity="0.2" filter="url(#filter2_d_2789_122)"><ellipse cx="143.266" cy="89" rx="53" ry="49" fill="url(#paint2_radial_2789_122)"></ellipse></g><g filter="url(#filter3_d_2789_122)"><path d="M142.266 61L142.266 53L144.266 53L144.266 61L151.266 61L143.266 69L135.266 61L142.266 61Z" fill="url(#paint3_linear_2789_122)" stroke="#176B87" stroke-width="0.248276"></path><path d="M115.266 90L107.266 90L107.266 88L115.266 88L115.266 81L123.266 89L115.266 97L115.266 90Z" fill="url(#paint4_linear_2789_122)" stroke="#176B87" stroke-width="0.248276"></path><path d="M122.76 69.9082L117.103 64.2514L118.517 62.8371L124.174 68.494L129.124 63.5442L129.124 74.858L117.81 74.858L122.76 69.9082Z" fill="url(#paint5_linear_2789_122)" stroke="#176B87" stroke-width="0.248276"></path><path d="M162.47 68.6067L168.127 62.9498L169.541 64.364L163.885 70.0209L168.834 74.9706H157.521V63.6569L162.47 68.6067Z" fill="url(#paint6_linear_2789_122)" stroke="#176B87" stroke-width="0.248276"></path><path d="M144.266 117V125H142.266V117H135.266L143.266 109L151.266 117H144.266Z" fill="url(#paint7_linear_2789_122)" stroke="#176B87" stroke-width="0.248276"></path><path d="M171.266 88L179.266 88L179.266 90L171.266 90L171.266 97.0001L163.266 89L171.266 81L171.266 88Z" fill="url(#paint8_linear_2789_122)" stroke="#176B87" stroke-width="0.248276"></path><path d="M163.772 108.092L169.429 113.749L168.015 115.163L162.358 109.506L157.408 114.456V103.142H168.722L163.772 108.092Z" fill="url(#paint9_linear_2789_122)" stroke="#176B87" stroke-width="0.248276"></path><path d="M124.287 109.619L118.63 115.276L117.216 113.861L122.872 108.204L117.923 103.255L129.236 103.255L129.236 114.568L124.287 109.619Z" fill="url(#paint10_linear_2789_122)" stroke="#176B87" stroke-width="0.248276"></path></g><g opacity="0.05"><path d="M3.66431 -98.8575V277.139" stroke="#D9D9D9" stroke-width="0.300918"></path><path d="M20.2148 -98.8575V277.139" stroke="#D9D9D9" stroke-width="0.300918"></path><path d="M36.7653 -98.8575V277.139" stroke="#D9D9D9" stroke-width="0.300918"></path><path d="M53.3158 -98.8575V277.139" stroke="#D9D9D9" stroke-width="0.300918"></path><path d="M69.8663 -98.8575V277.139" stroke="#D9D9D9" stroke-width="0.300918"></path><path d="M86.4167 -98.8575V277.139" stroke="#D9D9D9" stroke-width="0.300918"></path><path d="M102.967 -98.8575V277.139" stroke="#D9D9D9" stroke-width="0.300918"></path><path d="M119.518 -98.8575V277.139" stroke="#D9D9D9" stroke-width="0.300918"></path><path d="M136.068 -98.8575V277.139" stroke="#D9D9D9" stroke-width="0.300918"></path><path d="M152.619 -98.8575V277.139" stroke="#D9D9D9" stroke-width="0.300918"></path><path d="M169.169 -98.8575V277.139" stroke="#D9D9D9" stroke-width="0.300918"></path><path d="M185.72 -98.8575V277.139" stroke="#D9D9D9" stroke-width="0.300918"></path><path d="M202.27 -98.8575V277.139" stroke="#D9D9D9" stroke-width="0.300918"></path><path d="M218.821 -98.8575V277.139" stroke="#D9D9D9" stroke-width="0.300918"></path><path d="M235.371 -98.8575V277.139" stroke="#D9D9D9" stroke-width="0.300918"></path><path d="M251.922 -98.8575V277.139" stroke="#D9D9D9" stroke-width="0.300918"></path><path d="M268.472 -98.8575V277.139" stroke="#D9D9D9" stroke-width="0.300918"></path><path d="M285.022 -98.8575V277.139" stroke="#D9D9D9" stroke-width="0.300918"></path><path d="M332.342 14.6638L-43.655 14.6637" stroke="#D9D9D9" stroke-width="0.300918"></path><path d="M332.342 31.2143L-43.655 31.2143" stroke="#D9D9D9" stroke-width="0.300918"></path><path d="M332.342 47.7645L-43.655 47.7645" stroke="#D9D9D9" stroke-width="0.300918"></path><path d="M332.342 64.3151L-43.655 64.315" stroke="#D9D9D9" stroke-width="0.300918"></path><path d="M332.342 80.8656L-43.655 80.8656" stroke="#D9D9D9" stroke-width="0.300918"></path><path d="M332.342 97.4161L-43.655 97.4161" stroke="#D9D9D9" stroke-width="0.300918"></path><path d="M332.342 113.967L-43.655 113.967" stroke="#D9D9D9" stroke-width="0.300918"></path><path d="M332.342 130.517L-43.655 130.517" stroke="#D9D9D9" stroke-width="0.300918"></path><path d="M332.342 147.067L-43.655 147.067" stroke="#D9D9D9" stroke-width="0.300918"></path><path d="M332.342 163.618L-43.655 163.618" stroke="#D9D9D9" stroke-width="0.300918"></path></g><rect y="90.1266" width="289.532" height="87.8734" fill="url(#paint11_linear_2789_122)"></rect></g><path d="M18.0253 0.563291H271.506C281.15 0.563291 288.968 8.38131 288.968 18.0253V177.437H0.563291V18.0253C0.563291 8.3813 8.38131 0.563291 18.0253 0.563291Z" stroke="url(#paint12_linear_2789_122)" stroke-width="1.12658"></path><defs><filter id="filter0_d_2789_122" x="34.6659" y="-11.6" width="217.2" height="201.2" filterUnits="userSpaceOnUse" color-interpolation-filters="sRGB"><feFlood flood-opacity="0" result="BackgroundImageFix"></feFlood><feColorMatrix in="SourceAlpha" type="matrix" values="0 0 0 0 0 0 0 0 0 0 0 0 0 0 0 0 0 0 127 0" result="hardAlpha"></feColorMatrix><feMorphology radius="1" operator="dilate" in="SourceAlpha" result="effect1_dropShadow_2789_122"></feMorphology><feOffset></feOffset><feGaussianBlur stdDeviation="0.3"></feGaussianBlur><feComposite in2="hardAlpha" operator="out"></feComposite><feColorMatrix type="matrix" values="0 0 0 0 0 0 0 0 0 0 0 0 0 0 0 0 0 0 0.25 0"></feColorMatrix><feBlend mode="normal" in2="BackgroundImageFix" result="effect1_dropShadow_2789_122"></feBlend><feBlend mode="normal" in="SourceGraphic" in2="effect1_dropShadow_2789_122" result="shape"></feBlend></filter><filter id="filter1_d_2789_122" x="64.6659" y="16.4" width="157.2" height="145.2" filterUnits="userSpaceOnUse" color-interpolation-filters="sRGB"><feFlood flood-opacity="0" result="BackgroundImageFix"></feFlood><feColorMatrix in="SourceAlpha" type="matrix" values="0 0 0 0 0 0 0 0 0 0 0 0 0 0 0 0 0 0 127 0" result="hardAlpha"></feColorMatrix><feMorphology radius="1" operator="dilate" in="SourceAlpha" result="effect1_dropShadow_2789_122"></feMorphology><feOffset></feOffset><feGaussianBlur stdDeviation="0.3"></feGaussianBlur><feComposite in2="hardAlpha" operator="out"></feComposite><feColorMatrix type="matrix" values="0 0 0 0 0 0 0 0 0 0 0 0 0 0 0 0 0 0 0.25 0"></feColorMatrix><feBlend mode="normal" in2="BackgroundImageFix" result="effect1_dropShadow_2789_122"></feBlend><feBlend mode="normal" in="SourceGraphic" in2="effect1_dropShadow_2789_122" result="shape"></feBlend></filter><filter id="filter2_d_2789_122" x="88.6659" y="38.4" width="109.2" height="101.2" filterUnits="userSpaceOnUse" color-interpolation-filters="sRGB"><feFlood flood-opacity="0" result="BackgroundImageFix"></feFlood><feColorMatrix in="SourceAlpha" type="matrix" values="0 0 0 0 0 0 0 0 0 0 0 0 0 0 0 0 0 0 127 0" result="hardAlpha"></feColorMatrix><feMorphology radius="1" operator="dilate" in="SourceAlpha" result="effect1_dropShadow_2789_122"></feMorphology><feOffset></feOffset><feGaussianBlur stdDeviation="0.3"></feGaussianBlur><feComposite in2="hardAlpha" operator="out"></feComposite><feColorMatrix type="matrix" values="0 0 0 0 0 0 0 0 0 0 0 0 0 0 0 0 0 0 0.25 0"></feColorMatrix><feBlend mode="normal" in2="BackgroundImageFix" result="effect1_dropShadow_2789_122"></feBlend><feBlend mode="normal" in="SourceGraphic" in2="effect1_dropShadow_2789_122" result="shape"></feBlend></filter><filter id="filter3_d_2789_122" x="102.176" y="47.9103" width="82.1793" height="82.1793" filterUnits="userSpaceOnUse" color-interpolation-filters="sRGB"><feFlood flood-opacity="0" result="BackgroundImageFix"></feFlood><feColorMatrix in="SourceAlpha" type="matrix" values="0 0 0 0 0 0 0 0 0 0 0 0 0 0 0 0 0 0 127 0" result="hardAlpha"></feColorMatrix><feOffset></feOffset><feGaussianBlur stdDeviation="2.48276"></feGaussianBlur><feComposite in2="hardAlpha" operator="out"></feComposite><feColorMatrix type="matrix" values="0 0 0 0 0 0 0 0 0 0 0 0 0 0 0 0 0 0 0.25 0"></feColorMatrix><feBlend mode="normal" in2="BackgroundImageFix" result="effect1_dropShadow_2789_122"></feBlend><feBlend mode="normal" in="SourceGraphic" in2="effect1_dropShadow_2789_122" result="shape"></feBlend></filter><radialGradient id="paint0_radial_2789_122" cx="0" cy="0" r="1" gradientUnits="userSpaceOnUse" gradientTransform="translate(143.266 89) rotate(90) scale(99 107)"><stop stop-color="#0F303C"></stop><stop offset="1" stop-color="#2983A2"></stop></radialGradient><radialGradient id="paint1_radial_2789_122" cx="0" cy="0" r="1" gradientUnits="userSpaceOnUse" gradientTransform="translate(143.266 89) rotate(90) scale(71 77)"><stop stop-color="#0F303C"></stop><stop offset="1" stop-color="#2983A2"></stop></radialGradient><radialGradient id="paint2_radial_2789_122" cx="0" cy="0" r="1" gradientUnits="userSpaceOnUse" gradientTransform="translate(143.266 89) rotate(90) scale(49 53)"><stop stop-color="#0F303C"></stop><stop offset="1" stop-color="#2983A2"></stop></radialGradient><linearGradient id="paint3_linear_2789_122" x1="143.266" y1="69" x2="143.266" y2="53" gradientUnits="userSpaceOnUse"><stop stop-color="#88D498"></stop><stop offset="1" stop-color="#476E4F"></stop></linearGradient><linearGradient id="paint4_linear_2789_122" x1="123.266" y1="89" x2="107.266" y2="89" gradientUnits="userSpaceOnUse"><stop stop-color="#88D498"></stop><stop offset="1" stop-color="#476E4F"></stop></linearGradient><linearGradient id="paint5_linear_2789_122" x1="129.124" y1="74.858" x2="117.81" y2="63.5442" gradientUnits="userSpaceOnUse"><stop stop-color="#88D498"></stop><stop offset="1" stop-color="#476E4F"></stop></linearGradient><linearGradient id="paint6_linear_2789_122" x1="157.521" y1="74.9706" x2="168.834" y2="63.6569" gradientUnits="userSpaceOnUse"><stop stop-color="#88D498"></stop><stop offset="1" stop-color="#476E4F"></stop></linearGradient><linearGradient id="paint7_linear_2789_122" x1="143.266" y1="109" x2="143.266" y2="125" gradientUnits="userSpaceOnUse"><stop stop-color="#88D498"></stop><stop offset="1" stop-color="#476E4F"></stop></linearGradient><linearGradient id="paint8_linear_2789_122" x1="163.266" y1="89" x2="179.266" y2="89" gradientUnits="userSpaceOnUse"><stop stop-color="#88D498"></stop><stop offset="1" stop-color="#476E4F"></stop></linearGradient><linearGradient id="paint9_linear_2789_122" x1="157.408" y1="103.142" x2="168.722" y2="114.456" gradientUnits="userSpaceOnUse"><stop stop-color="#88D498"></stop><stop offset="1" stop-color="#476E4F"></stop></linearGradient><linearGradient id="paint10_linear_2789_122" x1="129.236" y1="103.255" x2="117.923" y2="114.568" gradientUnits="userSpaceOnUse"><stop stop-color="#88D498"></stop><stop offset="1" stop-color="#476E4F"></stop></linearGradient><linearGradient id="paint11_linear_2789_122" x1="144.766" y1="178" x2="144.766" y2="90.1266" gradientUnits="userSpaceOnUse"><stop stop-color="#021117"></stop><stop offset="1" stop-color="#07212A" stop-opacity="0"></stop></linearGradient><linearGradient id="paint12_linear_2789_122" x1="144.766" y1="0" x2="144.766" y2="178" gradientUnits="userSpaceOnUse"><stop offset="0.190327" stop-color="#176B87"></stop><stop offset="1" stop-color="#176B87" stop-opacity="0"></stop></linearGradient><clipPath id="clip0_2789_122"><path d="M0 18.0253C0 8.0702 8.07021 0 18.0253 0H271.506C281.461 0 289.532 8.07021 289.532 18.0253V178H0V18.0253Z" fill="white"></path></clipPath></defs></svg> 