<?xml version="1.0" encoding="UTF-8"?> <svg xmlns="http://www.w3.org/2000/svg" width="44" height="44" viewBox="0 0 44 44" fill="none"><path d="M4.10088 0C1.83655 0 0 1.84883 0 4.1305V30.5611C0 33.8295 4.18394 35.144 6.02758 32.4563L18.6449 14.0605C18.705 13.9732 18.6944 13.8538 18.6201 13.7773L16.0447 11.1821C15.9051 11.0414 16.0041 10.8027 16.2003 10.8027L32.2645 10.7938C32.3864 10.792 32.4854 10.8936 32.4854 11.0165L32.4536 27.2001C32.4536 27.3996 32.2167 27.4975 32.0771 27.3568L29.7792 25.0377C29.7049 24.9629 29.5865 24.9523 29.4999 25.011L11.334 37.4364C8.63837 39.2799 9.93227 43.5244 13.19 43.5244H39.0946C41.3589 43.5244 43.1955 41.6756 43.1955 39.3939V4.1305C43.1955 1.84883 41.3589 0 39.0946 0H4.10088ZM22.394 17.3485C20.2711 17.3485 18.5495 19.0851 18.5495 21.2243C18.5495 23.3652 20.2711 25.1001 22.394 25.1001C24.5187 25.1001 26.2404 23.3652 26.2404 21.2243C26.2404 19.0851 24.5187 17.3485 22.394 17.3485Z" fill="#88D498"></path></svg> 