<?xml version="1.0" encoding="UTF-8"?> <svg xmlns="http://www.w3.org/2000/svg" width="178" height="63" viewBox="0 0 178 63" fill="none"><g clip-path="url(#clip0_465_734)"><path d="M171.643 0.886047H6.35714C2.84619 0.886047 0 3.73224 0 7.2432V56.2741C0 59.785 2.8462 62.6312 6.35715 62.6312H171.643C175.154 62.6312 178 59.785 178 56.2741V7.24319C178 3.73224 175.154 0.886047 171.643 0.886047Z" fill="url(#paint0_radial_465_734)"></path><mask id="mask0_465_734" style="mask-type:luminance" maskUnits="userSpaceOnUse" x="21" y="15" width="136" height="33"><path d="M156.313 15.8457H21.6868V47.6716H156.313V15.8457Z" fill="white"></path></mask><g mask="url(#mask0_465_734)"><path d="M67.9715 27.2027H64.821L64.8103 31.4263H67.9605C69.2637 31.4263 70.2061 30.5923 70.2061 29.3173C70.2061 28.042 69.2637 27.2027 67.9715 27.2027ZM62.5002 38.4291L62.5163 25.1482L68.2838 25.1536C71.0409 25.1536 72.5702 27.0719 72.5702 29.3227C72.5702 31.5733 71.0085 33.4806 68.2729 33.4806L64.8049 33.4753L64.7942 38.4345H62.5002V38.4291Z" fill="white"></path><path d="M80.5993 27.0174C77.9499 27.0174 76.2482 29.061 76.2482 31.8076C76.2482 34.5326 77.9338 36.6088 80.594 36.6088C83.2327 36.6088 84.9451 34.5433 84.9451 31.8186C84.9505 29.072 83.2327 27.0228 80.5993 27.0174ZM80.6047 24.9465C84.5412 24.952 87.3092 27.8621 87.3092 31.824C87.2983 35.7859 84.5252 38.6905 80.5886 38.6851C76.6521 38.6798 73.884 35.7695 73.884 31.8076C73.895 27.8458 76.6681 24.9411 80.6047 24.9465Z" fill="white"></path><path d="M89.5225 38.4618L89.5439 25.1809H91.8435L91.8272 36.4125L97.6108 36.4182V38.4671L89.5225 38.4618Z" fill="white"></path><path d="M105.236 27.0501C102.587 27.0501 100.885 29.0937 100.885 31.8403C100.885 34.5652 102.571 36.6415 105.231 36.6415C107.869 36.6415 109.582 34.5762 109.582 31.8513C109.582 29.1047 107.875 27.0556 105.236 27.0501ZM105.236 24.9793C109.173 24.9902 111.94 27.8948 111.94 31.8566C111.93 35.8186 109.156 38.7232 105.22 38.7178C101.283 38.7125 98.5154 35.8022 98.5154 31.8403C98.5264 27.8785 101.305 24.9738 105.236 24.9793Z" fill="white"></path><path d="M123.308 38.5052L116.474 28.8213L116.469 38.4945H114.164L114.18 25.2136H116.539L123.238 34.6416L123.244 25.219H125.549L125.532 38.5052H123.308Z" fill="white"></path><path d="M128.322 38.5108L128.338 25.23H130.643L130.627 38.5108H128.322Z" fill="white"></path><path d="M133.421 38.5215L133.437 25.2354L142.431 25.2463V27.2954L135.742 27.2899L135.737 30.7287L142.285 30.7396V32.7886L135.737 32.7776L135.726 36.4616L142.415 36.4672V38.5215H133.421Z" fill="white"></path><path d="M153.556 38.5435L149.884 33.3389L146.2 38.5381H143.438L148.37 31.7313L143.761 25.2518H146.518L149.894 30.1347L153.26 25.2627H156.039L151.424 31.7096L156.313 38.5435H153.556Z" fill="white"></path><path d="M48.919 23.8294L48.9137 31.775L42.1122 27.7968L35.3164 23.813L42.1286 19.8512L48.9297 15.8838L48.919 23.8294Z" fill="white"></path><path d="M35.3057 31.7586L35.3004 39.7041L28.5043 35.7259L21.7084 31.7423L28.515 27.7804L35.3164 23.813L35.3057 31.7586Z" fill="#92BE8D"></path><path d="M21.7192 23.7967L21.7245 15.8511L28.5206 19.8348L35.3164 23.813L28.515 27.7804L21.7084 31.7423L21.7192 23.7967Z" fill="#119E5F"></path><path d="M21.6976 39.6878L21.7083 31.7423L28.5042 35.7259L35.3003 39.7041L28.4989 43.6717L21.6868 47.6333L21.6976 39.6878Z" fill="white"></path><path d="M42.1122 27.7967L35.3163 23.813L35.3056 31.7586L35.3003 39.7041L42.0961 43.6934L48.8866 47.6663L48.8976 39.7205L48.9136 31.775L42.1122 27.7967Z" fill="#119E5F"></path></g></g><defs><radialGradient id="paint0_radial_465_734" cx="0" cy="0" r="1" gradientUnits="userSpaceOnUse" gradientTransform="translate(82.0423 31.7586) scale(173.651 361.355)"><stop offset="0.08" stop-color="#0A3D4E"></stop><stop offset="0.548764" stop-color="#07212A"></stop></radialGradient><clipPath id="clip0_465_734"><rect width="178" height="61.962" fill="white" transform="translate(0 0.886047)"></rect></clipPath></defs></svg> 