<?xml version="1.0" encoding="UTF-8"?> <svg xmlns="http://www.w3.org/2000/svg" width="650" height="515" viewBox="0 0 650 515" fill="none"><path d="M451 97.3958V123H400.089V97.3958H415.703V67.4238C415.044 68.6287 414.017 69.8336 412.624 71.0385C411.232 72.143 409.656 73.1973 407.896 74.2014C406.21 75.2055 404.488 76.0088 402.728 76.6112C400.969 77.2137 399.393 77.5149 398 77.5149V51.3082C399.026 51.3082 400.419 50.8062 402.178 49.8021C404.011 48.798 405.88 47.5429 407.786 46.0368C409.692 44.4302 411.378 42.8237 412.844 41.2172C414.311 39.6106 415.263 38.2049 415.703 37H437.035V97.3958H451Z" fill="url(#paint0_linear_468_1163)"></path><path d="M78 448.636V373H270V448.636L222.5 469H174H124.5L78 448.636Z" fill="url(#paint1_linear_468_1163)"></path><ellipse cx="174" cy="373" rx="96" ry="4" fill="url(#paint2_radial_468_1163)"></ellipse><path d="M145 351C145 346.754 145.278 343.018 145.835 339.792C146.392 336.565 147.296 333.678 148.548 331.131C149.801 328.583 151.401 326.248 153.349 324.126C155.367 322.003 157.837 320.007 160.759 318.139C164.516 315.677 167.508 313.682 169.734 312.153C171.961 310.625 173.596 309.436 174.639 308.587C175.753 307.653 176.448 306.889 176.727 306.294C177.075 305.615 177.249 304.893 177.249 304.129C177.249 302.686 176.97 301.539 176.414 300.69C175.927 299.756 175.231 299.077 174.326 298.652C173.422 298.143 172.309 297.888 170.987 297.888C169.873 297.888 168.76 298.058 167.647 298.398C166.603 298.737 165.56 299.289 164.516 300.053C163.472 300.818 162.394 301.794 161.281 302.983C160.237 304.087 159.159 305.445 158.046 307.059L145.522 289.1C146.913 287.317 148.618 285.703 150.636 284.26C152.723 282.731 155.019 281.458 157.524 280.439C160.098 279.335 162.812 278.486 165.664 277.892C168.517 277.297 171.439 277 174.431 277C179.719 277 184.171 277.934 187.789 279.802C191.407 281.585 194.156 284.175 196.034 287.571C197.913 290.968 198.852 295.086 198.852 299.926C198.852 302.558 198.574 304.936 198.017 307.059C197.46 309.096 196.695 310.922 195.721 312.535C194.747 314.149 193.599 315.635 192.277 316.993C191.025 318.352 189.668 319.625 188.207 320.814C187.163 321.493 186.05 322.215 184.867 322.979C183.754 323.659 182.606 324.338 181.423 325.017C180.24 325.697 179.058 326.418 177.875 327.182C176.692 327.862 175.509 328.583 174.326 329.348H200V351H145Z" fill="url(#paint3_linear_468_1163)"></path><g opacity="0.4" filter="url(#filter0_f_468_1163)"><circle cx="418" cy="260" r="76" fill="#139DCD"></circle></g><path d="M318 319.879V182H510V319.879L462.5 357H414H364.5L318 319.879Z" fill="url(#paint4_linear_468_1163)" stroke="url(#paint5_linear_468_1163)"></path><ellipse cx="414" cy="182" rx="96" ry="7" fill="url(#paint6_radial_468_1163)"></ellipse><circle cx="310.5" cy="157.5" r="2.5" fill="url(#paint7_linear_468_1163)"></circle><circle cx="470.5" cy="141.5" r="2.5" fill="url(#paint8_linear_468_1163)"></circle><circle cx="519.5" cy="180.5" r="3.5" fill="url(#paint9_linear_468_1163)"></circle><circle cx="403.5" cy="196.5" r="1.5" fill="url(#paint10_linear_468_1163)"></circle><circle cx="340.5" cy="223.5" r="1.5" fill="url(#paint11_linear_468_1163)"></circle><circle cx="466.5" cy="248.5" r="1.5" fill="url(#paint12_linear_468_1163)"></circle><circle cx="442.5" cy="157.5" r="2.5" fill="url(#paint13_linear_468_1163)"></circle><g clip-path="url(#clip0_468_1163)"><path d="M357.646 138.976C356.737 135.289 358.989 131.564 362.675 130.655L403.274 120.646C406.961 119.737 410.686 121.989 411.595 125.675L420.255 160.801C421.163 164.488 418.912 168.213 415.225 169.122L374.626 179.131C370.94 180.04 367.214 177.788 366.305 174.101L357.646 138.976Z" fill="url(#paint14_linear_468_1163)"></path><g filter="url(#filter1_d_468_1163)"><path d="M391.102 135.979L389.12 133.714L401.536 133.532L401.593 145.984L399.496 144.247L379.214 156.304L391.102 135.979ZM394.052 138.586C392.528 138.602 391.3 139.859 391.316 141.389C391.331 142.918 392.583 144.151 394.108 144.136C395.632 144.121 396.861 142.863 396.846 141.334C396.831 139.804 395.577 138.571 394.052 138.586Z" fill="url(#paint15_linear_468_1163)"></path></g><g filter="url(#filter2_d_468_1163)"><path d="M388.159 165.951L390.141 168.216L377.724 168.398L377.668 155.946L379.765 157.683L400.046 145.626L388.159 165.951ZM385.208 163.344C386.733 163.328 387.961 162.071 387.945 160.541C387.93 159.012 386.678 157.779 385.153 157.794C383.628 157.81 382.4 159.067 382.415 160.597C382.43 162.126 383.684 163.359 385.208 163.344Z" fill="url(#paint16_linear_468_1163)"></path></g><g opacity="0.4" filter="url(#filter3_f_468_1163)"><rect x="350.022" y="168.61" width="85.3601" height="24.1585" transform="rotate(-13.8491 350.022 168.61)" fill="url(#paint17_linear_468_1163)"></rect></g><g opacity="0.2" filter="url(#filter4_f_468_1163)"><rect x="429.239" y="133.321" width="85.3601" height="28.1849" transform="rotate(166.151 429.239 133.321)" fill="url(#paint18_linear_468_1163)"></rect></g></g><path d="M357.84 138.928C356.957 135.348 359.144 131.731 362.723 130.849L403.322 120.84C406.901 119.957 410.518 122.144 411.401 125.723L420.06 160.849C420.943 164.428 418.757 168.045 415.177 168.928L374.578 178.937C370.999 179.819 367.382 177.633 366.499 174.053L357.84 138.928Z" stroke="url(#paint19_linear_468_1163)" stroke-width="0.4"></path><g clip-path="url(#clip1_468_1163)"><rect x="431.039" y="134.644" width="39.5319" height="35.5214" rx="6.87511" transform="rotate(36.3199 431.039 134.644)" fill="url(#paint20_linear_468_1163)"></rect><g filter="url(#filter5_d_468_1163)"><path d="M445.025 155.498L445.359 153.383L451.117 160.084L444.34 165.79L444.333 163.852L428.504 158.266L445.025 155.498ZM444.945 158.299C444.242 157.473 442.996 157.375 442.167 158.08C441.338 158.786 441.236 160.032 441.939 160.858C442.642 161.684 443.889 161.782 444.717 161.077C445.546 160.371 445.648 159.125 444.945 158.299Z" fill="url(#paint21_linear_468_1163)"></path></g><g filter="url(#filter6_d_468_1163)"><path d="M427.309 167.549L426.975 169.664L421.217 162.963L427.994 157.258L428.001 159.195L443.831 164.782L427.309 167.549ZM427.389 164.749C428.092 165.575 429.338 165.672 430.167 164.967C430.996 164.262 431.099 163.016 430.395 162.19C429.692 161.364 428.445 161.265 427.617 161.971C426.788 162.676 426.686 163.923 427.389 164.749Z" fill="url(#paint22_linear_468_1163)"></path></g><g opacity="0.4" filter="url(#filter7_f_468_1163)"><rect x="408.477" y="147.924" width="60.7301" height="17.1878" transform="rotate(36.3199 408.477 147.924)" fill="url(#paint23_linear_468_1163)"></rect></g><g opacity="0.2" filter="url(#filter8_f_468_1163)"><rect x="463.857" y="175.123" width="60.7301" height="20.0524" transform="rotate(-143.68 463.857 175.123)" fill="url(#paint24_linear_468_1163)"></rect></g></g><rect x="431.082" y="134.924" width="39.1319" height="35.1214" rx="6.67511" transform="rotate(36.3199 431.082 134.924)" stroke="url(#paint25_linear_468_1163)" stroke-width="0.4"></rect><defs><filter id="filter0_f_468_1163" x="186" y="28" width="464" height="464" filterUnits="userSpaceOnUse" color-interpolation-filters="sRGB"><feFlood flood-opacity="0" result="BackgroundImageFix"></feFlood><feBlend mode="normal" in="SourceGraphic" in2="BackgroundImageFix" result="shape"></feBlend><feGaussianBlur stdDeviation="78" result="effect1_foregroundBlur_468_1163"></feGaussianBlur></filter><filter id="filter1_d_468_1163" x="377.254" y="133.532" width="26.3003" height="26.6929" filterUnits="userSpaceOnUse" color-interpolation-filters="sRGB"><feFlood flood-opacity="0" result="BackgroundImageFix"></feFlood><feColorMatrix in="SourceAlpha" type="matrix" values="0 0 0 0 0 0 0 0 0 0 0 0 0 0 0 0 0 0 127 0" result="hardAlpha"></feColorMatrix><feOffset dy="1.96069"></feOffset><feGaussianBlur stdDeviation="0.980345"></feGaussianBlur><feComposite in2="hardAlpha" operator="out"></feComposite><feColorMatrix type="matrix" values="0 0 0 0 0 0 0 0 0 0 0 0 0 0 0 0 0 0 0.25 0"></feColorMatrix><feBlend mode="normal" in2="BackgroundImageFix" result="effect1_dropShadow_468_1163"></feBlend><feBlend mode="normal" in="SourceGraphic" in2="effect1_dropShadow_468_1163" result="shape"></feBlend></filter><filter id="filter2_d_468_1163" x="375.707" y="145.626" width="26.3003" height="26.6929" filterUnits="userSpaceOnUse" color-interpolation-filters="sRGB"><feFlood flood-opacity="0" result="BackgroundImageFix"></feFlood><feColorMatrix in="SourceAlpha" type="matrix" values="0 0 0 0 0 0 0 0 0 0 0 0 0 0 0 0 0 0 127 0" result="hardAlpha"></feColorMatrix><feOffset dy="1.96069"></feOffset><feGaussianBlur stdDeviation="0.980345"></feGaussianBlur><feComposite in2="hardAlpha" operator="out"></feComposite><feColorMatrix type="matrix" values="0 0 0 0 0 0 0 0 0 0 0 0 0 0 0 0 0 0 0.25 0"></feColorMatrix><feBlend mode="normal" in2="BackgroundImageFix" result="effect1_dropShadow_468_1163"></feBlend><feBlend mode="normal" in="SourceGraphic" in2="effect1_dropShadow_468_1163" result="shape"></feBlend></filter><filter id="filter3_f_468_1163" x="335.527" y="133.682" width="117.652" height="72.8788" filterUnits="userSpaceOnUse" color-interpolation-filters="sRGB"><feFlood flood-opacity="0" result="BackgroundImageFix"></feFlood><feBlend mode="normal" in="SourceGraphic" in2="BackgroundImageFix" result="shape"></feBlend><feGaussianBlur stdDeviation="7.24755" result="effect1_foregroundBlur_468_1163"></feGaussianBlur></filter><filter id="filter4_f_468_1163" x="292.102" y="58.4435" width="184.649" height="142.821" filterUnits="userSpaceOnUse" color-interpolation-filters="sRGB"><feFlood flood-opacity="0" result="BackgroundImageFix"></feFlood><feBlend mode="normal" in="SourceGraphic" in2="BackgroundImageFix" result="shape"></feBlend><feGaussianBlur stdDeviation="23.7559" result="effect1_foregroundBlur_468_1163"></feGaussianBlur></filter><filter id="filter5_d_468_1163" x="427.109" y="153.383" width="25.4036" height="15.1961" filterUnits="userSpaceOnUse" color-interpolation-filters="sRGB"><feFlood flood-opacity="0" result="BackgroundImageFix"></feFlood><feColorMatrix in="SourceAlpha" type="matrix" values="0 0 0 0 0 0 0 0 0 0 0 0 0 0 0 0 0 0 127 0" result="hardAlpha"></feColorMatrix><feOffset dy="1.39495"></feOffset><feGaussianBlur stdDeviation="0.697475"></feGaussianBlur><feComposite in2="hardAlpha" operator="out"></feComposite><feColorMatrix type="matrix" values="0 0 0 0 0 0 0 0 0 0 0 0 0 0 0 0 0 0 0.25 0"></feColorMatrix><feBlend mode="normal" in2="BackgroundImageFix" result="effect1_dropShadow_468_1163"></feBlend><feBlend mode="normal" in="SourceGraphic" in2="effect1_dropShadow_468_1163" result="shape"></feBlend></filter><filter id="filter6_d_468_1163" x="419.822" y="157.258" width="25.4036" height="15.1961" filterUnits="userSpaceOnUse" color-interpolation-filters="sRGB"><feFlood flood-opacity="0" result="BackgroundImageFix"></feFlood><feColorMatrix in="SourceAlpha" type="matrix" values="0 0 0 0 0 0 0 0 0 0 0 0 0 0 0 0 0 0 127 0" result="hardAlpha"></feColorMatrix><feOffset dy="1.39495"></feOffset><feGaussianBlur stdDeviation="0.697475"></feGaussianBlur><feComposite in2="hardAlpha" operator="out"></feComposite><feColorMatrix type="matrix" values="0 0 0 0 0 0 0 0 0 0 0 0 0 0 0 0 0 0 0.25 0"></feColorMatrix><feBlend mode="normal" in2="BackgroundImageFix" result="effect1_dropShadow_468_1163"></feBlend><feBlend mode="normal" in="SourceGraphic" in2="effect1_dropShadow_468_1163" result="shape"></feBlend></filter><filter id="filter7_f_468_1163" x="387.984" y="137.612" width="79.7372" height="70.4439" filterUnits="userSpaceOnUse" color-interpolation-filters="sRGB"><feFlood flood-opacity="0" result="BackgroundImageFix"></feFlood><feBlend mode="normal" in="SourceGraphic" in2="BackgroundImageFix" result="shape"></feBlend><feGaussianBlur stdDeviation="5.15633" result="effect1_foregroundBlur_468_1163"></feGaussianBlur></filter><filter id="filter8_f_468_1163" x="381.122" y="89.1938" width="128.414" height="119.732" filterUnits="userSpaceOnUse" color-interpolation-filters="sRGB"><feFlood flood-opacity="0" result="BackgroundImageFix"></feFlood><feBlend mode="normal" in="SourceGraphic" in2="BackgroundImageFix" result="shape"></feBlend><feGaussianBlur stdDeviation="16.9013" result="effect1_foregroundBlur_468_1163"></feGaussianBlur></filter><linearGradient id="paint0_linear_468_1163" x1="424.5" y1="37" x2="424.5" y2="123" gradientUnits="userSpaceOnUse"><stop stop-color="#0A313E"></stop><stop offset="0.86745" stop-color="#020E18"></stop></linearGradient><linearGradient id="paint1_linear_468_1163" x1="174" y1="373" x2="174" y2="469" gradientUnits="userSpaceOnUse"><stop stop-color="#07212A"></stop><stop offset="1" stop-color="#020E18"></stop></linearGradient><radialGradient id="paint2_radial_468_1163" cx="0" cy="0" r="1" gradientUnits="userSpaceOnUse" gradientTransform="translate(174 373) scale(96 4)"><stop stop-color="#154556"></stop><stop offset="1" stop-color="#178FB8" stop-opacity="0.5"></stop></radialGradient><linearGradient id="paint3_linear_468_1163" x1="172.5" y1="277" x2="172.5" y2="351" gradientUnits="userSpaceOnUse"><stop stop-color="#0A313E"></stop><stop offset="0.86745" stop-color="#020E18"></stop></linearGradient><linearGradient id="paint4_linear_468_1163" x1="414" y1="182" x2="414" y2="357" gradientUnits="userSpaceOnUse"><stop stop-color="#07212A"></stop><stop offset="1" stop-color="#020E18"></stop></linearGradient><linearGradient id="paint5_linear_468_1163" x1="414" y1="182" x2="414" y2="357" gradientUnits="userSpaceOnUse"><stop stop-color="#176B87"></stop><stop offset="0.4988" stop-color="#176B87" stop-opacity="0"></stop></linearGradient><radialGradient id="paint6_radial_468_1163" cx="0" cy="0" r="1" gradientUnits="userSpaceOnUse" gradientTransform="translate(414 182) scale(96 7)"><stop stop-color="#154556"></stop><stop offset="1" stop-color="#11AADE"></stop></radialGradient><linearGradient id="paint7_linear_468_1163" x1="310.5" y1="155" x2="310.5" y2="160" gradientUnits="userSpaceOnUse"><stop stop-color="#12A5D8"></stop><stop offset="0.797588" stop-color="#071F28"></stop></linearGradient><linearGradient id="paint8_linear_468_1163" x1="470.5" y1="139" x2="470.5" y2="144" gradientUnits="userSpaceOnUse"><stop stop-color="#12A5D8"></stop><stop offset="0.797588" stop-color="#071F28"></stop></linearGradient><linearGradient id="paint9_linear_468_1163" x1="519.5" y1="177" x2="519.5" y2="184" gradientUnits="userSpaceOnUse"><stop stop-color="#12A5D8"></stop><stop offset="0.797588" stop-color="#071F28"></stop></linearGradient><linearGradient id="paint10_linear_468_1163" x1="403.5" y1="195" x2="403.5" y2="198" gradientUnits="userSpaceOnUse"><stop stop-color="#12A5D8"></stop><stop offset="0.797588" stop-color="#071F28"></stop></linearGradient><linearGradient id="paint11_linear_468_1163" x1="340.5" y1="222" x2="340.5" y2="225" gradientUnits="userSpaceOnUse"><stop stop-color="#12A5D8"></stop><stop offset="0.797588" stop-color="#071F28"></stop></linearGradient><linearGradient id="paint12_linear_468_1163" x1="466.5" y1="247" x2="466.5" y2="250" gradientUnits="userSpaceOnUse"><stop stop-color="#12A5D8"></stop><stop offset="0.797588" stop-color="#071F28"></stop></linearGradient><linearGradient id="paint13_linear_468_1163" x1="442.5" y1="155" x2="442.5" y2="160" gradientUnits="userSpaceOnUse"><stop stop-color="#12A5D8"></stop><stop offset="0.797588" stop-color="#071F28"></stop></linearGradient><linearGradient id="paint14_linear_468_1163" x1="396.605" y1="182.409" x2="381.356" y2="117.353" gradientUnits="userSpaceOnUse"><stop stop-color="#176B87"></stop><stop offset="0.455" stop-color="#0B2C36"></stop><stop offset="0.74" stop-color="#061A21"></stop></linearGradient><linearGradient id="paint15_linear_468_1163" x1="390.263" y1="133.644" x2="390.488" y2="156.191" gradientUnits="userSpaceOnUse"><stop stop-color="#3E98B6"></stop><stop offset="1" stop-color="#042029"></stop></linearGradient><linearGradient id="paint16_linear_468_1163" x1="388.998" y1="168.286" x2="388.773" y2="145.739" gradientUnits="userSpaceOnUse"><stop stop-color="#3E98B6"></stop><stop offset="1" stop-color="#042029"></stop></linearGradient><linearGradient id="paint17_linear_468_1163" x1="392.702" y1="192.768" x2="392.702" y2="168.61" gradientUnits="userSpaceOnUse"><stop offset="0.5" stop-color="#07212A"></stop><stop offset="0.75" stop-color="#0E3D4D"></stop><stop offset="1" stop-color="#187190"></stop></linearGradient><linearGradient id="paint18_linear_468_1163" x1="471.919" y1="161.506" x2="471.919" y2="133.321" gradientUnits="userSpaceOnUse"><stop offset="0.5" stop-color="#07212A"></stop><stop offset="0.75" stop-color="#0E3D4D"></stop><stop offset="1" stop-color="#187190"></stop></linearGradient><linearGradient id="paint19_linear_468_1163" x1="382.975" y1="125.65" x2="394.926" y2="174.126" gradientUnits="userSpaceOnUse"><stop stop-color="#176B87"></stop><stop offset="0.54" stop-color="#176B87" stop-opacity="0"></stop></linearGradient><linearGradient id="paint20_linear_468_1163" x1="450.555" y1="176.173" x2="451.1" y2="128.637" gradientUnits="userSpaceOnUse"><stop stop-color="#176B87"></stop><stop offset="0.455" stop-color="#0B2C36"></stop><stop offset="0.74" stop-color="#061A21"></stop></linearGradient><linearGradient id="paint21_linear_468_1163" x1="445.919" y1="153.976" x2="433.702" y2="164.374" gradientUnits="userSpaceOnUse"><stop stop-color="#3E98B6"></stop><stop offset="1" stop-color="#042029"></stop></linearGradient><linearGradient id="paint22_linear_468_1163" x1="426.416" y1="169.071" x2="438.632" y2="158.674" gradientUnits="userSpaceOnUse"><stop stop-color="#3E98B6"></stop><stop offset="1" stop-color="#042029"></stop></linearGradient><linearGradient id="paint23_linear_468_1163" x1="438.842" y1="165.112" x2="438.842" y2="147.924" gradientUnits="userSpaceOnUse"><stop offset="0.5" stop-color="#07212A"></stop><stop offset="0.75" stop-color="#0E3D4D"></stop><stop offset="1" stop-color="#187190"></stop></linearGradient><linearGradient id="paint24_linear_468_1163" x1="494.222" y1="195.176" x2="494.222" y2="175.123" gradientUnits="userSpaceOnUse"><stop offset="0.5" stop-color="#07212A"></stop><stop offset="0.75" stop-color="#0E3D4D"></stop><stop offset="1" stop-color="#187190"></stop></linearGradient><linearGradient id="paint25_linear_468_1163" x1="450.805" y1="134.644" x2="450.805" y2="170.165" gradientUnits="userSpaceOnUse"><stop stop-color="#176B87"></stop><stop offset="0.54" stop-color="#176B87" stop-opacity="0"></stop></linearGradient><clipPath id="clip0_468_1163"><path d="M357.646 138.976C356.737 135.289 358.989 131.564 362.675 130.655L403.274 120.646C406.961 119.737 410.686 121.989 411.595 125.675L420.255 160.801C421.163 164.488 418.912 168.213 415.225 169.122L374.626 179.131C370.94 180.04 367.214 177.788 366.305 174.101L357.646 138.976Z" fill="white"></path></clipPath><clipPath id="clip1_468_1163"><rect x="431.039" y="134.644" width="39.5319" height="35.5214" rx="6.87511" transform="rotate(36.3199 431.039 134.644)" fill="white"></rect></clipPath></defs></svg> 